<svg width="840" height="530" viewBox="0 0 840 530" fill="none" xmlns="http://www.w3.org/2000/svg">
<path fill-rule="evenodd" clip-rule="evenodd" d="M141.774 174.916C134.418 175.5 128.674 173.877 123.771 170.987C118.219 167.714 113.788 162.829 109.357 157.944C108.935 157.479 108.514 157.015 108.092 156.552C103.187 151.173 98.1071 145.92 91.2371 142.511C84.4 139.119 75.7015 137.514 63.5156 139.632L63.1731 137.661C75.716 135.481 84.8551 137.112 92.1261 140.72C99.3643 144.311 104.663 149.824 109.57 155.205C109.984 155.659 110.396 156.113 110.805 156.564L110.808 156.566C115.284 161.497 119.511 166.154 124.787 169.264C129.295 171.922 134.603 173.462 141.525 172.93L141.345 171.488L155.055 172.132L141.926 176.136L141.774 174.916Z" fill="#1C1B1B"/>
<path fill-rule="evenodd" clip-rule="evenodd" d="M386.935 169.306C392.653 164.646 395.682 159.505 397.227 154.029C398.977 147.829 398.803 141.239 398.63 134.647L398.63 134.646C398.613 134.02 398.597 133.394 398.582 132.768C398.41 125.493 398.451 118.189 401.059 110.979C403.655 103.805 408.83 96.6356 419.098 89.7469L417.984 88.0861C407.415 95.1766 401.939 102.669 399.178 110.299C396.43 117.895 396.41 125.538 396.583 132.816C396.597 133.432 396.613 134.045 396.629 134.654L396.629 134.655C396.802 141.309 396.965 147.594 395.302 153.486C393.881 158.521 391.111 163.301 385.742 167.698L384.876 166.532L375.416 176.47L387.667 170.293L386.935 169.306Z" fill="#1C1B1B"/>
<path fill-rule="evenodd" clip-rule="evenodd" d="M287.013 417.582C293.245 400.728 299.209 388.788 307.966 380.022C316.647 371.332 327.981 365.849 344.769 361.663L344.582 360.09L358.239 360.822L345.132 364.726L345.006 363.665C328.546 367.796 317.667 373.141 309.381 381.435C300.943 389.883 295.1 401.479 288.889 418.275L287.013 417.582Z" fill="#1C1B1B"/>
<path d="M289 29L259.961 29L259.961 87.1045" stroke="#1C1B1B" stroke-width="2"/>
<path d="M259.957 98.9956L262.518 82.7804L257.396 82.7804L259.957 98.9956Z" fill="#1C1B1B"/>
<line x1="571" y1="305" x2="499.799" y2="305" stroke="#1C1B1B" stroke-width="2"/>
<path d="M491 305L503 302.402L503 307.598L491 305Z" fill="#1C1B1B"/>
<path d="M284.38 433.77C284.38 431.55 283.12 430.14 281.14 430.14C279.43 430.14 278.11 431.1 276.34 433.59L277.48 430.14L271.69 430.98V431.79C273.04 431.85 273.31 431.97 273.31 432.54C273.31 432.84 273.07 433.92 272.65 435.48L269.65 447.12C269.08 449.1 268.84 449.37 267.4 449.34V450.15H274.87V449.34C273.37 449.31 272.92 449.1 272.92 448.38C272.92 447.96 273.13 447.06 273.7 444.96C273.91 444.24 273.91 444.18 274.03 443.73C275.08 444.27 275.44 444.39 276.07 444.39C280.15 444.39 284.38 438.96 284.38 433.77ZM280.63 433.98C280.51 435.96 279.55 438.93 278.47 440.88C277.54 442.5 276.58 443.34 275.56 443.34C274.9 443.34 274.39 442.86 274.39 442.26C274.39 441.75 274.72 440.52 275.53 437.79C276.19 435.6 276.46 434.85 276.91 434.16C277.66 432.99 278.68 432.21 279.46 432.27C280.24 432.33 280.69 433.02 280.63 433.98ZM299.86 440.4L299.23 440.01C298.18 441.63 297.58 442.23 297.07 442.23C296.83 442.23 296.65 442.02 296.65 441.72C296.65 441.36 296.98 439.92 297.4 438.57L299.74 430.53H296.2C294.52 436.32 293.68 438.3 291.94 440.46C291.01 441.6 290.35 442.11 289.75 442.11C289.33 442.11 289.12 441.87 289.12 441.36C289.12 440.91 289.15 440.73 289.57 439.38L292.39 430.14C292.21 430.17 292 430.2 291.55 430.29C289.33 430.68 287.56 430.92 286.12 430.98V431.79C287.5 431.88 287.8 432.03 287.8 432.63C287.8 433.11 287.65 433.95 287.38 434.82L286.18 438.81C285.76 440.31 285.55 441.3 285.55 442.05C285.55 443.52 286.3 444.27 287.8 444.27C289.81 444.27 290.71 443.49 293.8 439.17C293.26 440.82 293.08 441.6 293.08 442.47C293.08 443.7 293.71 444.27 295.03 444.27C296.83 444.27 298.3 443.07 299.86 440.4Z" fill="#1C1B1B"/>
<path d="M588.37 304.43C588.37 303.08 587.62 301.61 585.94 299.66C584.77 298.31 584.26 297.41 584.26 296.72C584.26 295.76 584.89 295.13 585.85 295.13C587.23 295.13 588.01 296.21 588.49 298.7L589.3 298.76L589.99 294.17H589.12C588.79 294.74 588.7 294.8 588.25 294.8C587.95 294.8 587.71 294.74 587.17 294.53C586.42 294.23 586.03 294.14 585.43 294.14C583 294.14 581.41 295.61 581.41 297.92C581.41 299.54 581.83 300.38 583.81 302.75C584.95 304.1 585.49 305.12 585.49 305.87C585.49 306.77 584.74 307.49 583.78 307.49C582.25 307.49 581.29 306.17 580.9 303.5L580.09 303.41L579.43 308.39H580.24C580.36 308.03 580.72 307.79 581.11 307.79C581.32 307.79 581.65 307.88 582.04 308.03C582.76 308.27 583.3 308.39 583.93 308.39C586.48 308.39 588.37 306.68 588.37 304.43Z" fill="#1C1B1B"/>
<path d="M315.47 28.55L314.81 28.07C313.97 29.42 313.25 30.23 312.8 30.23C312.62 30.23 312.47 30.05 312.47 29.87C312.47 29.6 313.16 26.9 314.18 23.18L317.51 11.03C315.71 11.45 314.24 11.66 311.24 11.9V12.71H311.87C312.65 12.71 313.1 13.01 313.1 13.55C313.1 13.82 312.95 14.45 312.23 17.09L311.69 19.13C310.97 18.41 310.4 18.14 309.53 18.14C305.87 18.14 301.37 23.93 301.37 28.64C301.37 30.83 302.72 32.39 304.55 32.39C306.47 32.39 307.82 31.31 309.53 28.46C309.26 29.63 309.2 30.02 309.2 30.5C309.2 31.64 309.86 32.33 311 32.33C312.47 32.33 313.82 31.19 315.47 28.55ZM311.24 20.87C311.24 22.19 309.95 26.09 308.9 28.01C308.06 29.48 307.19 30.23 306.32 30.23C305.57 30.23 305.03 29.39 305.09 28.34C305.18 26.72 306.11 23.96 307.19 22.01C308.15 20.3 309.23 19.34 310.13 19.4C310.79 19.43 311.24 20.03 311.24 20.87Z" fill="#1C1B1B"/>
<path d="M440.38 86.25L439.51 85.74C438.13 87.81 437.26 88.47 435.97 88.47C434.71 88.47 434.05 87.63 434.05 86.01C434.05 85.53 434.11 85.14 434.23 84.54C437.35 83.94 438.82 83.28 440.32 81.9C441.37 80.94 441.94 79.83 441.94 78.75C441.94 77.22 440.62 76.14 438.79 76.14C434.44 76.14 430.15 81.03 430.15 85.98C430.15 88.53 432.07 90.39 434.68 90.39C436.99 90.39 438.58 89.22 440.38 86.25ZM439.18 78.15C439.18 79.47 438.67 80.76 437.71 81.75C436.9 82.62 436.15 83.04 434.44 83.58C435.52 79.41 436.9 77.13 438.34 77.13C438.91 77.13 439.18 77.46 439.18 78.15ZM455.81 79.77C455.81 77.55 454.55 76.14 452.57 76.14C450.86 76.14 449.54 77.1 447.77 79.59L448.91 76.14L443.12 76.98V77.79C444.47 77.85 444.74 77.97 444.74 78.54C444.74 78.84 444.5 79.92 444.08 81.48L441.08 93.12C440.51 95.1 440.27 95.37 438.83 95.34V96.15H446.3V95.34C444.8 95.31 444.35 95.1 444.35 94.38C444.35 93.96 444.56 93.06 445.13 90.96C445.34 90.24 445.34 90.18 445.46 89.73C446.51 90.27 446.87 90.39 447.5 90.39C451.58 90.39 455.81 84.96 455.81 79.77ZM452.06 79.98C451.94 81.96 450.98 84.93 449.9 86.88C448.97 88.5 448.01 89.34 446.99 89.34C446.33 89.34 445.82 88.86 445.82 88.26C445.82 87.75 446.15 86.52 446.96 83.79C447.62 81.6 447.89 80.85 448.34 80.16C449.09 78.99 450.11 78.21 450.89 78.27C451.67 78.33 452.12 79.02 452.06 79.98Z" fill="#1C1B1B"/>
<path d="M50.38 141.31L49.54 140.77C48.1 142.78 47.17 143.47 45.88 143.47C44.56 143.47 43.69 142.39 43.69 140.8C43.69 138.91 44.47 136.21 45.55 134.26C46.36 132.85 47.2 132.13 48.13 132.13C48.49 132.13 48.79 132.34 48.79 132.64C48.79 132.76 48.73 132.94 48.55 133.21C48.28 133.69 48.16 134.02 48.16 134.38C48.16 135.28 48.88 135.94 49.9 135.94C51.01 135.94 51.76 135.1 51.76 133.84C51.76 132.25 50.41 131.14 48.4 131.14C44.17 131.14 39.85 136.06 39.85 140.86C39.85 143.53 41.71 145.39 44.44 145.39C45.76 145.39 47.05 144.91 48.07 144.04C48.85 143.38 49.33 142.81 50.38 141.31Z" fill="#1C1B1B"/>
<path d="M4.5 409.72C3.9 409.72 3.39 409.51 2.97 409.09C2.55 408.67 2.34 408.16 2.34 407.56V381.82C2.34 381.22 2.55 380.71 2.97 380.29C3.39 379.87 3.9 379.66 4.5 379.66H13.5C14.1 379.66 14.61 379.87 15.03 380.29C15.45 380.71 15.66 381.22 15.66 381.82C15.66 382.42 15.45 382.93 15.03 383.35C14.61 383.77 14.1 383.98 13.5 383.98H6.66V392.08H12.6C13.2 392.08 13.71 392.29 14.13 392.71C14.55 393.13 14.76 393.64 14.76 394.24C14.76 394.84 14.55 395.35 14.13 395.77C13.71 396.19 13.2 396.4 12.6 396.4H6.66V407.56C6.66 408.16 6.45 408.67 6.03 409.09C5.61 409.51 5.1 409.72 4.5 409.72ZM20.7158 409.9C20.1158 409.9 19.6058 409.69 19.1858 409.27C18.7658 408.85 18.5558 408.34 18.5558 407.74V381.64C18.5558 381.04 18.7658 380.53 19.1858 380.11C19.6058 379.69 20.1158 379.48 20.7158 379.48C21.3158 379.48 21.8258 379.69 22.2458 380.11C22.6658 380.53 22.8758 381.04 22.8758 381.64V407.74C22.8758 408.34 22.6658 408.85 22.2458 409.27C21.8258 409.69 21.3158 409.9 20.7158 409.9ZM39.9846 392.98C40.5846 392.98 41.0946 393.19 41.5146 393.61C41.9346 394.03 42.1446 394.54 42.1446 395.14V402.34C42.1446 403.39 41.9496 404.38 41.5596 405.31C41.1696 406.21 40.6296 407.005 39.9396 407.695C39.2496 408.385 38.4396 408.925 37.5096 409.315C36.6096 409.705 35.6346 409.9 34.5846 409.9C33.5346 409.9 32.5446 409.705 31.6146 409.315C30.7146 408.925 29.9196 408.385 29.2296 407.695C28.5696 407.005 28.0296 406.21 27.6096 405.31C27.2196 404.38 27.0246 403.39 27.0246 402.34V387.04C27.0246 386.2 27.1596 385.39 27.4296 384.61C27.6996 383.8 28.0746 383.08 28.5546 382.45C29.0646 381.79 29.6646 381.235 30.3546 380.785C31.0446 380.305 31.8096 379.96 32.6496 379.75C33.4596 379.54 34.2846 379.465 35.1246 379.525C35.9646 379.555 36.7596 379.735 37.5096 380.065C38.2596 380.365 38.9496 380.785 39.5796 381.325C40.2096 381.865 40.7346 382.51 41.1546 383.26C41.4546 383.77 41.5146 384.31 41.3346 384.88C41.1846 385.45 40.8546 385.9 40.3446 386.23C39.8346 386.53 39.2946 386.605 38.7246 386.455C38.1546 386.275 37.7196 385.93 37.4196 385.42C37.0296 384.79 36.4896 384.34 35.7996 384.07C35.1396 383.77 34.4646 383.725 33.7746 383.935C33.0546 384.115 32.4696 384.505 32.0196 385.105C31.5696 385.675 31.3446 386.32 31.3446 387.04V402.34C31.3446 403.24 31.6596 404.005 32.2896 404.635C32.9496 405.265 33.7146 405.58 34.5846 405.58C35.4846 405.58 36.2496 405.265 36.8796 404.635C37.5096 404.005 37.8246 403.24 37.8246 402.34V397.3H35.4846C34.8846 397.3 34.3746 397.09 33.9546 396.67C33.5346 396.25 33.3246 395.74 33.3246 395.14C33.3246 394.54 33.5346 394.03 33.9546 393.61C34.3746 393.19 34.8846 392.98 35.4846 392.98H39.9846ZM45.4795 407.29C45.4795 406.57 45.7345 405.955 46.2445 405.445C46.7545 404.935 47.3695 404.68 48.0895 404.68C48.8095 404.68 49.4245 404.935 49.9345 405.445C50.4445 405.955 50.6995 406.57 50.6995 407.29C50.6995 408.01 50.4445 408.625 49.9345 409.135C49.4245 409.645 48.8095 409.9 48.0895 409.9C47.3695 409.9 46.7545 409.645 46.2445 409.135C45.7345 408.625 45.4795 408.01 45.4795 407.29ZM56.9268 409.9C56.3268 409.9 55.8168 409.69 55.3968 409.27C54.9768 408.85 54.7668 408.34 54.7668 407.74V381.64C54.7668 381.13 54.9168 380.68 55.2168 380.29C55.5168 379.9 55.9218 379.645 56.4318 379.525C56.9418 379.405 57.4218 379.465 57.8718 379.705C58.3218 379.915 58.6518 380.26 58.8618 380.74C59.4618 382.06 60.0768 383.365 60.7068 384.655C61.2168 385.795 61.7868 387.01 62.4168 388.3C63.0468 389.56 63.6168 390.745 64.1268 391.855C64.6368 390.745 65.1918 389.56 65.7918 388.3C66.4218 387.01 66.9918 385.795 67.5018 384.655C68.1018 383.365 68.7168 382.06 69.3468 380.74C69.5868 380.26 69.9168 379.915 70.3368 379.705C70.7868 379.465 71.2668 379.405 71.7768 379.525C72.2868 379.645 72.6918 379.9 72.9918 380.29C73.3218 380.68 73.4868 381.13 73.4868 381.64V407.74C73.4868 408.34 73.2768 408.85 72.8568 409.27C72.4368 409.69 71.9268 409.9 71.3268 409.9C70.7268 409.9 70.2168 409.69 69.7968 409.27C69.3768 408.85 69.1668 408.34 69.1668 407.74V391.315C68.7768 392.125 68.4018 392.92 68.0418 393.7C67.6818 394.48 67.3518 395.17 67.0518 395.77C66.7218 396.49 66.3918 397.18 66.0618 397.84C65.8818 398.23 65.6118 398.545 65.2518 398.785C64.9218 398.995 64.5468 399.1 64.1268 399.1C63.1968 399.1 62.5368 398.68 62.1468 397.84C61.8168 397.18 61.4868 396.49 61.1568 395.77C60.8568 395.17 60.5268 394.48 60.1668 393.7C59.8068 392.92 59.4468 392.125 59.0868 391.315V407.74C59.0868 408.34 58.8768 408.85 58.4568 409.27C58.0368 409.69 57.5268 409.9 56.9268 409.9ZM78.1457 381.82C78.1457 381.22 78.3557 380.71 78.7757 380.29C79.1957 379.87 79.7057 379.66 80.3057 379.66H85.7057C86.7557 379.66 87.7307 379.855 88.6307 380.245C89.5607 380.635 90.3707 381.175 91.0607 381.865C91.7507 382.555 92.2907 383.365 92.6807 384.295C93.0707 385.195 93.2657 386.17 93.2657 387.22V389.74C93.2657 390.79 93.0707 391.78 92.6807 392.71C92.2907 393.61 91.7507 394.405 91.0607 395.095C90.3707 395.785 89.5607 396.325 88.6307 396.715C87.7307 397.105 86.7557 397.3 85.7057 397.3H82.4657V407.74C82.4657 408.34 82.2557 408.85 81.8357 409.27C81.4157 409.69 80.9057 409.9 80.3057 409.9C79.7057 409.9 79.1957 409.69 78.7757 409.27C78.3557 408.85 78.1457 408.34 78.1457 407.74V381.82ZM88.9457 387.22C88.9457 386.32 88.6307 385.555 88.0007 384.925C87.3707 384.295 86.6057 383.98 85.7057 383.98H82.4657V392.98H85.7057C86.6057 392.98 87.3707 392.665 88.0007 392.035C88.6307 391.405 88.9457 390.64 88.9457 389.74V387.22Z" fill="#1C1B1B"/>
</svg>
