<svg width="840" height="530" viewBox="0 0 840 530" fill="none" xmlns="http://www.w3.org/2000/svg">
<g clip-path="url(#clip0)">
<path fill-rule="evenodd" clip-rule="evenodd" d="M141.774 163.916C134.418 164.5 128.674 162.877 123.771 159.987C118.219 156.714 113.788 151.829 109.357 146.944C108.935 146.479 108.514 146.015 108.092 145.552C103.187 140.173 98.1071 134.92 91.2371 131.511C84.4 128.119 75.7015 126.514 63.5156 128.632L63.1731 126.661C75.716 124.481 84.8551 126.112 92.1261 129.72C99.3643 133.311 104.663 138.824 109.57 144.205C109.984 144.659 110.396 145.113 110.805 145.564L110.808 145.566C115.284 150.497 119.511 155.154 124.787 158.264C129.295 160.922 134.603 162.462 141.525 161.93L141.345 160.488L155.055 161.132L141.926 165.136L141.774 163.916Z" fill="#1C1B1B"/>
<path fill-rule="evenodd" clip-rule="evenodd" d="M404.935 178.306C410.653 173.646 413.682 168.505 415.227 163.029C416.977 156.829 416.803 150.239 416.63 143.647L416.63 143.646C416.613 143.02 416.597 142.394 416.582 141.768C416.41 134.493 416.451 127.189 419.059 119.979C421.655 112.805 426.83 105.636 437.098 98.7469L435.984 97.0861C425.415 104.177 419.939 111.669 417.178 119.299C414.43 126.895 414.41 134.538 414.583 141.816C414.597 142.432 414.613 143.045 414.629 143.654L414.629 143.655C414.802 150.309 414.965 156.594 413.302 162.486C411.881 167.521 409.111 172.301 403.742 176.698L402.876 175.532L393.416 185.47L405.667 179.293L404.935 178.306Z" fill="#1C1B1B"/>
<path fill-rule="evenodd" clip-rule="evenodd" d="M297.013 416.582C303.245 399.728 309.209 387.788 317.966 379.022C326.647 370.332 337.981 364.849 354.769 360.663L354.582 359.09L368.239 359.822L355.132 363.726L355.006 362.665C338.546 366.796 327.667 372.141 319.381 380.435C310.943 388.883 305.1 400.479 298.889 417.275L297.013 416.582Z" fill="#1C1B1B"/>
<path d="M289 24L259.961 24L259.961 82.1045" stroke="#1C1B1B" stroke-width="2"/>
<path d="M259.957 93.9956L262.518 77.7804L257.396 77.7804L259.957 93.9956Z" fill="#1C1B1B"/>
<line x1="561" y1="294" x2="489.799" y2="294" stroke="#1C1B1B" stroke-width="2"/>
<path d="M481 294L493 291.402L493 296.598L481 294Z" fill="#1C1B1B"/>
<path d="M294.38 432.77C294.38 430.55 293.12 429.14 291.14 429.14C289.43 429.14 288.11 430.1 286.34 432.59L287.48 429.14L281.69 429.98V430.79C283.04 430.85 283.31 430.97 283.31 431.54C283.31 431.84 283.07 432.92 282.65 434.48L279.65 446.12C279.08 448.1 278.84 448.37 277.4 448.34V449.15H284.87V448.34C283.37 448.31 282.92 448.1 282.92 447.38C282.92 446.96 283.13 446.06 283.7 443.96C283.91 443.24 283.91 443.18 284.03 442.73C285.08 443.27 285.44 443.39 286.07 443.39C290.15 443.39 294.38 437.96 294.38 432.77ZM290.63 432.98C290.51 434.96 289.55 437.93 288.47 439.88C287.54 441.5 286.58 442.34 285.56 442.34C284.9 442.34 284.39 441.86 284.39 441.26C284.39 440.75 284.72 439.52 285.53 436.79C286.19 434.6 286.46 433.85 286.91 433.16C287.66 431.99 288.68 431.21 289.46 431.27C290.24 431.33 290.69 432.02 290.63 432.98ZM309.86 439.4L309.23 439.01C308.18 440.63 307.58 441.23 307.07 441.23C306.83 441.23 306.65 441.02 306.65 440.72C306.65 440.36 306.98 438.92 307.4 437.57L309.74 429.53H306.2C304.52 435.32 303.68 437.3 301.94 439.46C301.01 440.6 300.35 441.11 299.75 441.11C299.33 441.11 299.12 440.87 299.12 440.36C299.12 439.91 299.15 439.73 299.57 438.38L302.39 429.14C302.21 429.17 302 429.2 301.55 429.29C299.33 429.68 297.56 429.92 296.12 429.98V430.79C297.5 430.88 297.8 431.03 297.8 431.63C297.8 432.11 297.65 432.95 297.38 433.82L296.18 437.81C295.76 439.31 295.55 440.3 295.55 441.05C295.55 442.52 296.3 443.27 297.8 443.27C299.81 443.27 300.71 442.49 303.8 438.17C303.26 439.82 303.08 440.6 303.08 441.47C303.08 442.7 303.71 443.27 305.03 443.27C306.83 443.27 308.3 442.07 309.86 439.4Z" fill="#1C1B1B"/>
<path d="M578.37 293.43C578.37 292.08 577.62 290.61 575.94 288.66C574.77 287.31 574.26 286.41 574.26 285.72C574.26 284.76 574.89 284.13 575.85 284.13C577.23 284.13 578.01 285.21 578.49 287.7L579.3 287.76L579.99 283.17H579.12C578.79 283.74 578.7 283.8 578.25 283.8C577.95 283.8 577.71 283.74 577.17 283.53C576.42 283.23 576.03 283.14 575.43 283.14C573 283.14 571.41 284.61 571.41 286.92C571.41 288.54 571.83 289.38 573.81 291.75C574.95 293.1 575.49 294.12 575.49 294.87C575.49 295.77 574.74 296.49 573.78 296.49C572.25 296.49 571.29 295.17 570.9 292.5L570.09 292.41L569.43 297.39H570.24C570.36 297.03 570.72 296.79 571.11 296.79C571.32 296.79 571.65 296.88 572.04 297.03C572.76 297.27 573.3 297.39 573.93 297.39C576.48 297.39 578.37 295.68 578.37 293.43Z" fill="#1C1B1B"/>
<path d="M315.47 23.55L314.81 23.07C313.97 24.42 313.25 25.23 312.8 25.23C312.62 25.23 312.47 25.05 312.47 24.87C312.47 24.6 313.16 21.9 314.18 18.18L317.51 6.03C315.71 6.45 314.24 6.66 311.24 6.9V7.71H311.87C312.65 7.71 313.1 8.01 313.1 8.55C313.1 8.82 312.95 9.45 312.23 12.09L311.69 14.13C310.97 13.41 310.4 13.14 309.53 13.14C305.87 13.14 301.37 18.93 301.37 23.64C301.37 25.83 302.72 27.39 304.55 27.39C306.47 27.39 307.82 26.31 309.53 23.46C309.26 24.63 309.2 25.02 309.2 25.5C309.2 26.64 309.86 27.33 311 27.33C312.47 27.33 313.82 26.19 315.47 23.55ZM311.24 15.87C311.24 17.19 309.95 21.09 308.9 23.01C308.06 24.48 307.19 25.23 306.32 25.23C305.57 25.23 305.03 24.39 305.09 23.34C305.18 21.72 306.11 18.96 307.19 17.01C308.15 15.3 309.23 14.34 310.13 14.4C310.79 14.43 311.24 15.03 311.24 15.87Z" fill="#1C1B1B"/>
<path d="M458.38 95.25L457.51 94.74C456.13 96.81 455.26 97.47 453.97 97.47C452.71 97.47 452.05 96.63 452.05 95.01C452.05 94.53 452.11 94.14 452.23 93.54C455.35 92.94 456.82 92.28 458.32 90.9C459.37 89.94 459.94 88.83 459.94 87.75C459.94 86.22 458.62 85.14 456.79 85.14C452.44 85.14 448.15 90.03 448.15 94.98C448.15 97.53 450.07 99.39 452.68 99.39C454.99 99.39 456.58 98.22 458.38 95.25ZM457.18 87.15C457.18 88.47 456.67 89.76 455.71 90.75C454.9 91.62 454.15 92.04 452.44 92.58C453.52 88.41 454.9 86.13 456.34 86.13C456.91 86.13 457.18 86.46 457.18 87.15ZM473.81 88.77C473.81 86.55 472.55 85.14 470.57 85.14C468.86 85.14 467.54 86.1 465.77 88.59L466.91 85.14L461.12 85.98V86.79C462.47 86.85 462.74 86.97 462.74 87.54C462.74 87.84 462.5 88.92 462.08 90.48L459.08 102.12C458.51 104.1 458.27 104.37 456.83 104.34V105.15H464.3V104.34C462.8 104.31 462.35 104.1 462.35 103.38C462.35 102.96 462.56 102.06 463.13 99.96C463.34 99.24 463.34 99.18 463.46 98.73C464.51 99.27 464.87 99.39 465.5 99.39C469.58 99.39 473.81 93.96 473.81 88.77ZM470.06 88.98C469.94 90.96 468.98 93.93 467.9 95.88C466.97 97.5 466.01 98.34 464.99 98.34C464.33 98.34 463.82 97.86 463.82 97.26C463.82 96.75 464.15 95.52 464.96 92.79C465.62 90.6 465.89 89.85 466.34 89.16C467.09 87.99 468.11 87.21 468.89 87.27C469.67 87.33 470.12 88.02 470.06 88.98Z" fill="#1C1B1B"/>
<path d="M50.38 130.31L49.54 129.77C48.1 131.78 47.17 132.47 45.88 132.47C44.56 132.47 43.69 131.39 43.69 129.8C43.69 127.91 44.47 125.21 45.55 123.26C46.36 121.85 47.2 121.13 48.13 121.13C48.49 121.13 48.79 121.34 48.79 121.64C48.79 121.76 48.73 121.94 48.55 122.21C48.28 122.69 48.16 123.02 48.16 123.38C48.16 124.28 48.88 124.94 49.9 124.94C51.01 124.94 51.76 124.1 51.76 122.84C51.76 121.25 50.41 120.14 48.4 120.14C44.17 120.14 39.85 125.06 39.85 129.86C39.85 132.53 41.71 134.39 44.44 134.39C45.76 134.39 47.05 133.91 48.07 133.04C48.85 132.38 49.33 131.81 50.38 130.31Z" fill="#1C1B1B"/>
<path d="M44.5 398.72C43.9 398.72 43.39 398.51 42.97 398.09C42.55 397.67 42.34 397.16 42.34 396.56V370.82C42.34 370.22 42.55 369.71 42.97 369.29C43.39 368.87 43.9 368.66 44.5 368.66H53.5C54.1 368.66 54.61 368.87 55.03 369.29C55.45 369.71 55.66 370.22 55.66 370.82C55.66 371.42 55.45 371.93 55.03 372.35C54.61 372.77 54.1 372.98 53.5 372.98H46.66V381.08H52.6C53.2 381.08 53.71 381.29 54.13 381.71C54.55 382.13 54.76 382.64 54.76 383.24C54.76 383.84 54.55 384.35 54.13 384.77C53.71 385.19 53.2 385.4 52.6 385.4H46.66V396.56C46.66 397.16 46.45 397.67 46.03 398.09C45.61 398.51 45.1 398.72 44.5 398.72ZM60.7158 398.9C60.1158 398.9 59.6058 398.69 59.1858 398.27C58.7658 397.85 58.5558 397.34 58.5558 396.74V370.64C58.5558 370.04 58.7658 369.53 59.1858 369.11C59.6058 368.69 60.1158 368.48 60.7158 368.48C61.3158 368.48 61.8258 368.69 62.2458 369.11C62.6658 369.53 62.8758 370.04 62.8758 370.64V396.74C62.8758 397.34 62.6658 397.85 62.2458 398.27C61.8258 398.69 61.3158 398.9 60.7158 398.9ZM79.9846 381.98C80.5846 381.98 81.0946 382.19 81.5146 382.61C81.9346 383.03 82.1446 383.54 82.1446 384.14V391.34C82.1446 392.39 81.9496 393.38 81.5596 394.31C81.1696 395.21 80.6296 396.005 79.9396 396.695C79.2496 397.385 78.4396 397.925 77.5096 398.315C76.6096 398.705 75.6346 398.9 74.5846 398.9C73.5346 398.9 72.5446 398.705 71.6146 398.315C70.7146 397.925 69.9196 397.385 69.2296 396.695C68.5696 396.005 68.0296 395.21 67.6096 394.31C67.2196 393.38 67.0246 392.39 67.0246 391.34V376.04C67.0246 375.2 67.1596 374.39 67.4296 373.61C67.6996 372.8 68.0746 372.08 68.5546 371.45C69.0646 370.79 69.6646 370.235 70.3546 369.785C71.0446 369.305 71.8096 368.96 72.6496 368.75C73.4596 368.54 74.2846 368.465 75.1246 368.525C75.9646 368.555 76.7596 368.735 77.5096 369.065C78.2596 369.365 78.9496 369.785 79.5796 370.325C80.2096 370.865 80.7346 371.51 81.1546 372.26C81.4546 372.77 81.5146 373.31 81.3346 373.88C81.1846 374.45 80.8546 374.9 80.3446 375.23C79.8346 375.53 79.2946 375.605 78.7246 375.455C78.1546 375.275 77.7196 374.93 77.4196 374.42C77.0296 373.79 76.4896 373.34 75.7996 373.07C75.1396 372.77 74.4646 372.725 73.7746 372.935C73.0546 373.115 72.4696 373.505 72.0196 374.105C71.5696 374.675 71.3446 375.32 71.3446 376.04V391.34C71.3446 392.24 71.6596 393.005 72.2896 393.635C72.9496 394.265 73.7146 394.58 74.5846 394.58C75.4846 394.58 76.2496 394.265 76.8796 393.635C77.5096 393.005 77.8246 392.24 77.8246 391.34V386.3H75.4846C74.8846 386.3 74.3746 386.09 73.9546 385.67C73.5346 385.25 73.3246 384.74 73.3246 384.14C73.3246 383.54 73.5346 383.03 73.9546 382.61C74.3746 382.19 74.8846 381.98 75.4846 381.98H79.9846ZM85.4795 396.29C85.4795 395.57 85.7345 394.955 86.2445 394.445C86.7545 393.935 87.3695 393.68 88.0895 393.68C88.8095 393.68 89.4245 393.935 89.9345 394.445C90.4445 394.955 90.6995 395.57 90.6995 396.29C90.6995 397.01 90.4445 397.625 89.9345 398.135C89.4245 398.645 88.8095 398.9 88.0895 398.9C87.3695 398.9 86.7545 398.645 86.2445 398.135C85.7345 397.625 85.4795 397.01 85.4795 396.29ZM96.9268 398.9C96.3268 398.9 95.8168 398.69 95.3968 398.27C94.9768 397.85 94.7668 397.34 94.7668 396.74V370.64C94.7668 370.13 94.9168 369.68 95.2168 369.29C95.5168 368.9 95.9218 368.645 96.4318 368.525C96.9418 368.405 97.4218 368.465 97.8718 368.705C98.3218 368.915 98.6518 369.26 98.8618 369.74C99.4618 371.06 100.077 372.365 100.707 373.655C101.217 374.795 101.787 376.01 102.417 377.3C103.047 378.56 103.617 379.745 104.127 380.855C104.637 379.745 105.192 378.56 105.792 377.3C106.422 376.01 106.992 374.795 107.502 373.655C108.102 372.365 108.717 371.06 109.347 369.74C109.587 369.26 109.917 368.915 110.337 368.705C110.787 368.465 111.267 368.405 111.777 368.525C112.287 368.645 112.692 368.9 112.992 369.29C113.322 369.68 113.487 370.13 113.487 370.64V396.74C113.487 397.34 113.277 397.85 112.857 398.27C112.437 398.69 111.927 398.9 111.327 398.9C110.727 398.9 110.217 398.69 109.797 398.27C109.377 397.85 109.167 397.34 109.167 396.74V380.315C108.777 381.125 108.402 381.92 108.042 382.7C107.682 383.48 107.352 384.17 107.052 384.77C106.722 385.49 106.392 386.18 106.062 386.84C105.882 387.23 105.612 387.545 105.252 387.785C104.922 387.995 104.547 388.1 104.127 388.1C103.197 388.1 102.537 387.68 102.147 386.84C101.817 386.18 101.487 385.49 101.157 384.77C100.857 384.17 100.527 383.48 100.167 382.7C99.8068 381.92 99.4468 381.125 99.0868 380.315V396.74C99.0868 397.34 98.8768 397.85 98.4568 398.27C98.0368 398.69 97.5268 398.9 96.9268 398.9ZM118.146 370.82C118.146 370.22 118.356 369.71 118.776 369.29C119.196 368.87 119.706 368.66 120.306 368.66H125.706C126.756 368.66 127.731 368.855 128.631 369.245C129.561 369.635 130.371 370.175 131.061 370.865C131.751 371.555 132.291 372.365 132.681 373.295C133.071 374.195 133.266 375.17 133.266 376.22V378.74C133.266 379.79 133.071 380.78 132.681 381.71C132.291 382.61 131.751 383.405 131.061 384.095C130.371 384.785 129.561 385.325 128.631 385.715C127.731 386.105 126.756 386.3 125.706 386.3H122.466V396.74C122.466 397.34 122.256 397.85 121.836 398.27C121.416 398.69 120.906 398.9 120.306 398.9C119.706 398.9 119.196 398.69 118.776 398.27C118.356 397.85 118.146 397.34 118.146 396.74V370.82ZM128.946 376.22C128.946 375.32 128.631 374.555 128.001 373.925C127.371 373.295 126.606 372.98 125.706 372.98H122.466V381.98H125.706C126.606 381.98 127.371 381.665 128.001 381.035C128.631 380.405 128.946 379.64 128.946 378.74V376.22Z" fill="#1C1B1B"/>
</g>
<defs>
<clipPath id="clip0">
<rect width="840" height="530" fill="white"/>
</clipPath>
</defs>
</svg>
