<svg width="840" height="452" viewBox="0 0 840 452" fill="none" xmlns="http://www.w3.org/2000/svg">
<g clip-path="url(#clip0)">
<path fill-rule="evenodd" clip-rule="evenodd" d="M177.774 165.916C170.418 166.5 164.674 164.877 159.771 161.987C154.219 158.714 149.788 153.829 145.357 148.944C144.935 148.479 144.514 148.015 144.092 147.552C139.187 142.173 134.107 136.92 127.237 133.511C120.4 130.119 111.702 128.514 99.5156 130.632L99.1731 128.661C111.716 126.481 120.855 128.112 128.126 131.72C135.364 135.311 140.663 140.824 145.57 146.205C145.984 146.659 146.396 147.113 146.805 147.564L146.808 147.566C151.284 152.497 155.511 157.154 160.787 160.264C165.295 162.922 170.603 164.462 177.525 163.93L177.345 162.488L191.055 163.132L177.926 167.136L177.774 165.916Z" fill="#1C1B1B"/>
<path fill-rule="evenodd" clip-rule="evenodd" d="M422.935 160.306C428.653 155.646 431.682 150.505 433.227 145.029C434.977 138.829 434.803 132.239 434.63 125.647L434.63 125.646C434.613 125.02 434.597 124.394 434.582 123.768C434.41 116.493 434.451 109.189 437.059 101.979C439.655 94.8048 444.83 87.6356 455.098 80.7469L453.984 79.0861C443.415 86.1766 437.939 93.6689 435.178 101.299C432.43 108.895 432.41 116.538 432.583 123.816C432.597 124.432 432.613 125.045 432.629 125.654L432.629 125.655C432.802 132.309 432.965 138.594 431.302 144.486C429.881 149.521 427.111 154.301 421.742 158.698L420.876 157.532L411.416 167.47L423.667 161.293L422.935 160.306Z" fill="#1C1B1B"/>
<path fill-rule="evenodd" clip-rule="evenodd" d="M332.013 415.582C338.245 398.728 344.209 386.788 352.966 378.022C361.647 369.332 372.981 363.849 389.769 359.663L389.582 358.09L403.239 358.822L390.132 362.726L390.006 361.665C373.546 365.796 362.667 371.141 354.381 379.435C345.943 387.883 340.1 399.479 333.889 416.275L332.013 415.582Z" fill="#1C1B1B"/>
<path d="M325 20L295.961 20L295.961 78.1045" stroke="#1C1B1B" stroke-width="2"/>
<path d="M295.957 89.9956L298.518 73.7804L293.396 73.7804L295.957 89.9956Z" fill="#1C1B1B"/>
<line x1="600" y1="296" x2="528.799" y2="296" stroke="#1C1B1B" stroke-width="2"/>
<path d="M520 296L532 293.402L532 298.598L520 296Z" fill="#1C1B1B"/>
<path d="M329.38 431.77C329.38 429.55 328.12 428.14 326.14 428.14C324.43 428.14 323.11 429.1 321.34 431.59L322.48 428.14L316.69 428.98V429.79C318.04 429.85 318.31 429.97 318.31 430.54C318.31 430.84 318.07 431.92 317.65 433.48L314.65 445.12C314.08 447.1 313.84 447.37 312.4 447.34V448.15H319.87V447.34C318.37 447.31 317.92 447.1 317.92 446.38C317.92 445.96 318.13 445.06 318.7 442.96C318.91 442.24 318.91 442.18 319.03 441.73C320.08 442.27 320.44 442.39 321.07 442.39C325.15 442.39 329.38 436.96 329.38 431.77ZM325.63 431.98C325.51 433.96 324.55 436.93 323.47 438.88C322.54 440.5 321.58 441.34 320.56 441.34C319.9 441.34 319.39 440.86 319.39 440.26C319.39 439.75 319.72 438.52 320.53 435.79C321.19 433.6 321.46 432.85 321.91 432.16C322.66 430.99 323.68 430.21 324.46 430.27C325.24 430.33 325.69 431.02 325.63 431.98ZM344.86 438.4L344.23 438.01C343.18 439.63 342.58 440.23 342.07 440.23C341.83 440.23 341.65 440.02 341.65 439.72C341.65 439.36 341.98 437.92 342.4 436.57L344.74 428.53H341.2C339.52 434.32 338.68 436.3 336.94 438.46C336.01 439.6 335.35 440.11 334.75 440.11C334.33 440.11 334.12 439.87 334.12 439.36C334.12 438.91 334.15 438.73 334.57 437.38L337.39 428.14C337.21 428.17 337 428.2 336.55 428.29C334.33 428.68 332.56 428.92 331.12 428.98V429.79C332.5 429.88 332.8 430.03 332.8 430.63C332.8 431.11 332.65 431.95 332.38 432.82L331.18 436.81C330.76 438.31 330.55 439.3 330.55 440.05C330.55 441.52 331.3 442.27 332.8 442.27C334.81 442.27 335.71 441.49 338.8 437.17C338.26 438.82 338.08 439.6 338.08 440.47C338.08 441.7 338.71 442.27 340.03 442.27C341.83 442.27 343.3 441.07 344.86 438.4Z" fill="#1C1B1B"/>
<path d="M617.37 295.43C617.37 294.08 616.62 292.61 614.94 290.66C613.77 289.31 613.26 288.41 613.26 287.72C613.26 286.76 613.89 286.13 614.85 286.13C616.23 286.13 617.01 287.21 617.49 289.7L618.3 289.76L618.99 285.17H618.12C617.79 285.74 617.7 285.8 617.25 285.8C616.95 285.8 616.71 285.74 616.17 285.53C615.42 285.23 615.03 285.14 614.43 285.14C612 285.14 610.41 286.61 610.41 288.92C610.41 290.54 610.83 291.38 612.81 293.75C613.95 295.1 614.49 296.12 614.49 296.87C614.49 297.77 613.74 298.49 612.78 298.49C611.25 298.49 610.29 297.17 609.9 294.5L609.09 294.41L608.43 299.39H609.24C609.36 299.03 609.72 298.79 610.11 298.79C610.32 298.79 610.65 298.88 611.04 299.03C611.76 299.27 612.3 299.39 612.93 299.39C615.48 299.39 617.37 297.68 617.37 295.43Z" fill="#1C1B1B"/>
<path d="M351.47 19.55L350.81 19.07C349.97 20.42 349.25 21.23 348.8 21.23C348.62 21.23 348.47 21.05 348.47 20.87C348.47 20.6 349.16 17.9 350.18 14.18L353.51 2.03C351.71 2.45 350.24 2.66 347.24 2.9V3.71H347.87C348.65 3.71 349.1 4.01 349.1 4.55C349.1 4.82 348.95 5.45 348.23 8.09L347.69 10.13C346.97 9.41 346.4 9.14 345.53 9.14C341.87 9.14 337.37 14.93 337.37 19.64C337.37 21.83 338.72 23.39 340.55 23.39C342.47 23.39 343.82 22.31 345.53 19.46C345.26 20.63 345.2 21.02 345.2 21.5C345.2 22.64 345.86 23.33 347 23.33C348.47 23.33 349.82 22.19 351.47 19.55ZM347.24 11.87C347.24 13.19 345.95 17.09 344.9 19.01C344.06 20.48 343.19 21.23 342.32 21.23C341.57 21.23 341.03 20.39 341.09 19.34C341.18 17.72 342.11 14.96 343.19 13.01C344.15 11.3 345.23 10.34 346.13 10.4C346.79 10.43 347.24 11.03 347.24 11.87Z" fill="#1C1B1B"/>
<path d="M476.38 77.25L475.51 76.74C474.13 78.81 473.26 79.47 471.97 79.47C470.71 79.47 470.05 78.63 470.05 77.01C470.05 76.53 470.11 76.14 470.23 75.54C473.35 74.94 474.82 74.28 476.32 72.9C477.37 71.94 477.94 70.83 477.94 69.75C477.94 68.22 476.62 67.14 474.79 67.14C470.44 67.14 466.15 72.03 466.15 76.98C466.15 79.53 468.07 81.39 470.68 81.39C472.99 81.39 474.58 80.22 476.38 77.25ZM475.18 69.15C475.18 70.47 474.67 71.76 473.71 72.75C472.9 73.62 472.15 74.04 470.44 74.58C471.52 70.41 472.9 68.13 474.34 68.13C474.91 68.13 475.18 68.46 475.18 69.15ZM491.81 70.77C491.81 68.55 490.55 67.14 488.57 67.14C486.86 67.14 485.54 68.1 483.77 70.59L484.91 67.14L479.12 67.98V68.79C480.47 68.85 480.74 68.97 480.74 69.54C480.74 69.84 480.5 70.92 480.08 72.48L477.08 84.12C476.51 86.1 476.27 86.37 474.83 86.34V87.15H482.3V86.34C480.8 86.31 480.35 86.1 480.35 85.38C480.35 84.96 480.56 84.06 481.13 81.96C481.34 81.24 481.34 81.18 481.46 80.73C482.51 81.27 482.87 81.39 483.5 81.39C487.58 81.39 491.81 75.96 491.81 70.77ZM488.06 70.98C487.94 72.96 486.98 75.93 485.9 77.88C484.97 79.5 484.01 80.34 482.99 80.34C482.33 80.34 481.82 79.86 481.82 79.26C481.82 78.75 482.15 77.52 482.96 74.79C483.62 72.6 483.89 71.85 484.34 71.16C485.09 69.99 486.11 69.21 486.89 69.27C487.67 69.33 488.12 70.02 488.06 70.98Z" fill="#1C1B1B"/>
<path d="M86.38 132.31L85.54 131.77C84.1 133.78 83.17 134.47 81.88 134.47C80.56 134.47 79.69 133.39 79.69 131.8C79.69 129.91 80.47 127.21 81.55 125.26C82.36 123.85 83.2 123.13 84.13 123.13C84.49 123.13 84.79 123.34 84.79 123.64C84.79 123.76 84.73 123.94 84.55 124.21C84.28 124.69 84.16 125.02 84.16 125.38C84.16 126.28 84.88 126.94 85.9 126.94C87.01 126.94 87.76 126.1 87.76 124.84C87.76 123.25 86.41 122.14 84.4 122.14C80.17 122.14 75.85 127.06 75.85 131.86C75.85 134.53 77.71 136.39 80.44 136.39C81.76 136.39 83.05 135.91 84.07 135.04C84.85 134.38 85.33 133.81 86.38 132.31Z" fill="#1C1B1B"/>
<path d="M40.5 400.72C39.9 400.72 39.39 400.51 38.97 400.09C38.55 399.67 38.34 399.16 38.34 398.56V372.82C38.34 372.22 38.55 371.71 38.97 371.29C39.39 370.87 39.9 370.66 40.5 370.66H49.5C50.1 370.66 50.61 370.87 51.03 371.29C51.45 371.71 51.66 372.22 51.66 372.82C51.66 373.42 51.45 373.93 51.03 374.35C50.61 374.77 50.1 374.98 49.5 374.98H42.66V383.08H48.6C49.2 383.08 49.71 383.29 50.13 383.71C50.55 384.13 50.76 384.64 50.76 385.24C50.76 385.84 50.55 386.35 50.13 386.77C49.71 387.19 49.2 387.4 48.6 387.4H42.66V398.56C42.66 399.16 42.45 399.67 42.03 400.09C41.61 400.51 41.1 400.72 40.5 400.72ZM56.7158 400.9C56.1158 400.9 55.6058 400.69 55.1858 400.27C54.7658 399.85 54.5558 399.34 54.5558 398.74V372.64C54.5558 372.04 54.7658 371.53 55.1858 371.11C55.6058 370.69 56.1158 370.48 56.7158 370.48C57.3158 370.48 57.8258 370.69 58.2458 371.11C58.6658 371.53 58.8758 372.04 58.8758 372.64V398.74C58.8758 399.34 58.6658 399.85 58.2458 400.27C57.8258 400.69 57.3158 400.9 56.7158 400.9ZM75.9846 383.98C76.5846 383.98 77.0946 384.19 77.5146 384.61C77.9346 385.03 78.1446 385.54 78.1446 386.14V393.34C78.1446 394.39 77.9496 395.38 77.5596 396.31C77.1696 397.21 76.6296 398.005 75.9396 398.695C75.2496 399.385 74.4396 399.925 73.5096 400.315C72.6096 400.705 71.6346 400.9 70.5846 400.9C69.5346 400.9 68.5446 400.705 67.6146 400.315C66.7146 399.925 65.9196 399.385 65.2296 398.695C64.5696 398.005 64.0296 397.21 63.6096 396.31C63.2196 395.38 63.0246 394.39 63.0246 393.34V378.04C63.0246 377.2 63.1596 376.39 63.4296 375.61C63.6996 374.8 64.0746 374.08 64.5546 373.45C65.0646 372.79 65.6646 372.235 66.3546 371.785C67.0446 371.305 67.8096 370.96 68.6496 370.75C69.4596 370.54 70.2846 370.465 71.1246 370.525C71.9646 370.555 72.7596 370.735 73.5096 371.065C74.2596 371.365 74.9496 371.785 75.5796 372.325C76.2096 372.865 76.7346 373.51 77.1546 374.26C77.4546 374.77 77.5146 375.31 77.3346 375.88C77.1846 376.45 76.8546 376.9 76.3446 377.23C75.8346 377.53 75.2946 377.605 74.7246 377.455C74.1546 377.275 73.7196 376.93 73.4196 376.42C73.0296 375.79 72.4896 375.34 71.7996 375.07C71.1396 374.77 70.4646 374.725 69.7746 374.935C69.0546 375.115 68.4696 375.505 68.0196 376.105C67.5696 376.675 67.3446 377.32 67.3446 378.04V393.34C67.3446 394.24 67.6596 395.005 68.2896 395.635C68.9496 396.265 69.7146 396.58 70.5846 396.58C71.4846 396.58 72.2496 396.265 72.8796 395.635C73.5096 395.005 73.8246 394.24 73.8246 393.34V388.3H71.4846C70.8846 388.3 70.3746 388.09 69.9546 387.67C69.5346 387.25 69.3246 386.74 69.3246 386.14C69.3246 385.54 69.5346 385.03 69.9546 384.61C70.3746 384.19 70.8846 383.98 71.4846 383.98H75.9846ZM81.4795 398.29C81.4795 397.57 81.7345 396.955 82.2445 396.445C82.7545 395.935 83.3695 395.68 84.0895 395.68C84.8095 395.68 85.4245 395.935 85.9345 396.445C86.4445 396.955 86.6995 397.57 86.6995 398.29C86.6995 399.01 86.4445 399.625 85.9345 400.135C85.4245 400.645 84.8095 400.9 84.0895 400.9C83.3695 400.9 82.7545 400.645 82.2445 400.135C81.7345 399.625 81.4795 399.01 81.4795 398.29ZM92.9268 400.9C92.3268 400.9 91.8168 400.69 91.3968 400.27C90.9768 399.85 90.7668 399.34 90.7668 398.74V372.64C90.7668 372.13 90.9168 371.68 91.2168 371.29C91.5168 370.9 91.9218 370.645 92.4318 370.525C92.9418 370.405 93.4218 370.465 93.8718 370.705C94.3218 370.915 94.6518 371.26 94.8618 371.74C95.4618 373.06 96.0768 374.365 96.7068 375.655C97.2168 376.795 97.7868 378.01 98.4168 379.3C99.0468 380.56 99.6168 381.745 100.127 382.855C100.637 381.745 101.192 380.56 101.792 379.3C102.422 378.01 102.992 376.795 103.502 375.655C104.102 374.365 104.717 373.06 105.347 371.74C105.587 371.26 105.917 370.915 106.337 370.705C106.787 370.465 107.267 370.405 107.777 370.525C108.287 370.645 108.692 370.9 108.992 371.29C109.322 371.68 109.487 372.13 109.487 372.64V398.74C109.487 399.34 109.277 399.85 108.857 400.27C108.437 400.69 107.927 400.9 107.327 400.9C106.727 400.9 106.217 400.69 105.797 400.27C105.377 399.85 105.167 399.34 105.167 398.74V382.315C104.777 383.125 104.402 383.92 104.042 384.7C103.682 385.48 103.352 386.17 103.052 386.77C102.722 387.49 102.392 388.18 102.062 388.84C101.882 389.23 101.612 389.545 101.252 389.785C100.922 389.995 100.547 390.1 100.127 390.1C99.1968 390.1 98.5368 389.68 98.1468 388.84C97.8168 388.18 97.4868 387.49 97.1568 386.77C96.8568 386.17 96.5268 385.48 96.1668 384.7C95.8068 383.92 95.4468 383.125 95.0868 382.315V398.74C95.0868 399.34 94.8768 399.85 94.4568 400.27C94.0368 400.69 93.5268 400.9 92.9268 400.9ZM114.146 372.82C114.146 372.22 114.356 371.71 114.776 371.29C115.196 370.87 115.706 370.66 116.306 370.66H121.706C122.756 370.66 123.731 370.855 124.631 371.245C125.561 371.635 126.371 372.175 127.061 372.865C127.751 373.555 128.291 374.365 128.681 375.295C129.071 376.195 129.266 377.17 129.266 378.22V380.74C129.266 381.79 129.071 382.78 128.681 383.71C128.291 384.61 127.751 385.405 127.061 386.095C126.371 386.785 125.561 387.325 124.631 387.715C123.731 388.105 122.756 388.3 121.706 388.3H118.466V398.74C118.466 399.34 118.256 399.85 117.836 400.27C117.416 400.69 116.906 400.9 116.306 400.9C115.706 400.9 115.196 400.69 114.776 400.27C114.356 399.85 114.146 399.34 114.146 398.74V372.82ZM124.946 378.22C124.946 377.32 124.631 376.555 124.001 375.925C123.371 375.295 122.606 374.98 121.706 374.98H118.466V383.98H121.706C122.606 383.98 123.371 383.665 124.001 383.035C124.631 382.405 124.946 381.64 124.946 380.74V378.22Z" fill="#1C1B1B"/>
</g>
<defs>
<clipPath id="clip0">
<rect width="840" height="452" fill="white"/>
</clipPath>
</defs>
</svg>
