<svg width="840" height="546" viewBox="0 0 840 546" fill="none" xmlns="http://www.w3.org/2000/svg">
<path fill-rule="evenodd" clip-rule="evenodd" d="M142.774 189.916C135.418 190.5 129.674 188.877 124.771 185.987C119.219 182.714 114.788 177.829 110.357 172.944C109.935 172.479 109.514 172.015 109.092 171.552C104.187 166.173 99.1071 160.92 92.2371 157.511C85.4 154.119 76.7015 152.514 64.5156 154.632L64.1731 152.661C76.716 150.481 85.8551 152.112 93.1261 155.72C100.364 159.311 105.663 164.824 110.57 170.205C110.984 170.659 111.396 171.113 111.805 171.564L111.808 171.566C116.284 176.497 120.511 181.154 125.787 184.264C130.295 186.922 135.603 188.462 142.525 187.93L142.345 186.488L156.055 187.132L142.926 191.136L142.774 189.916Z" fill="#1C1B1B"/>
<path fill-rule="evenodd" clip-rule="evenodd" d="M387.935 184.306C393.653 179.646 396.682 174.505 398.227 169.029C399.977 162.829 399.803 156.239 399.63 149.647L399.63 149.646C399.613 149.02 399.597 148.394 399.582 147.768C399.41 140.493 399.451 133.189 402.059 125.979C404.655 118.805 409.83 111.636 420.098 104.747L418.984 103.086C408.415 110.177 402.939 117.669 400.178 125.299C397.43 132.895 397.41 140.538 397.583 147.816C397.597 148.432 397.613 149.045 397.629 149.654L397.629 149.655C397.802 156.309 397.965 162.594 396.302 168.486C394.881 173.521 392.111 178.301 386.742 182.698L385.876 181.532L376.416 191.47L388.667 185.293L387.935 184.306Z" fill="#1C1B1B"/>
<path fill-rule="evenodd" clip-rule="evenodd" d="M297.013 439.582C303.245 422.728 309.209 410.788 317.966 402.022C326.647 393.332 337.981 387.849 354.769 383.663L354.582 382.09L368.239 382.822L355.132 386.726L355.006 385.665C338.546 389.796 327.667 395.141 319.381 403.435C310.943 411.883 305.1 423.479 298.889 440.275L297.013 439.582Z" fill="#1C1B1B"/>
<path d="M290 44L260.961 44L260.961 102.105" stroke="#1C1B1B" stroke-width="2"/>
<path d="M260.957 113.996L263.518 97.7804L258.396 97.7804L260.957 113.996Z" fill="#1C1B1B"/>
<line x1="565" y1="320" x2="493.799" y2="320" stroke="#1C1B1B" stroke-width="2"/>
<path d="M485 320L497 317.402L497 322.598L485 320Z" fill="#1C1B1B"/>
<path d="M294.38 455.77C294.38 453.55 293.12 452.14 291.14 452.14C289.43 452.14 288.11 453.1 286.34 455.59L287.48 452.14L281.69 452.98V453.79C283.04 453.85 283.31 453.97 283.31 454.54C283.31 454.84 283.07 455.92 282.65 457.48L279.65 469.12C279.08 471.1 278.84 471.37 277.4 471.34V472.15H284.87V471.34C283.37 471.31 282.92 471.1 282.92 470.38C282.92 469.96 283.13 469.06 283.7 466.96C283.91 466.24 283.91 466.18 284.03 465.73C285.08 466.27 285.44 466.39 286.07 466.39C290.15 466.39 294.38 460.96 294.38 455.77ZM290.63 455.98C290.51 457.96 289.55 460.93 288.47 462.88C287.54 464.5 286.58 465.34 285.56 465.34C284.9 465.34 284.39 464.86 284.39 464.26C284.39 463.75 284.72 462.52 285.53 459.79C286.19 457.6 286.46 456.85 286.91 456.16C287.66 454.99 288.68 454.21 289.46 454.27C290.24 454.33 290.69 455.02 290.63 455.98ZM309.86 462.4L309.23 462.01C308.18 463.63 307.58 464.23 307.07 464.23C306.83 464.23 306.65 464.02 306.65 463.72C306.65 463.36 306.98 461.92 307.4 460.57L309.74 452.53H306.2C304.52 458.32 303.68 460.3 301.94 462.46C301.01 463.6 300.35 464.11 299.75 464.11C299.33 464.11 299.12 463.87 299.12 463.36C299.12 462.91 299.15 462.73 299.57 461.38L302.39 452.14C302.21 452.17 302 452.2 301.55 452.29C299.33 452.68 297.56 452.92 296.12 452.98V453.79C297.5 453.88 297.8 454.03 297.8 454.63C297.8 455.11 297.65 455.95 297.38 456.82L296.18 460.81C295.76 462.31 295.55 463.3 295.55 464.05C295.55 465.52 296.3 466.27 297.8 466.27C299.81 466.27 300.71 465.49 303.8 461.17C303.26 462.82 303.08 463.6 303.08 464.47C303.08 465.7 303.71 466.27 305.03 466.27C306.83 466.27 308.3 465.07 309.86 462.4Z" fill="#1C1B1B"/>
<path d="M582.37 319.43C582.37 318.08 581.62 316.61 579.94 314.66C578.77 313.31 578.26 312.41 578.26 311.72C578.26 310.76 578.89 310.13 579.85 310.13C581.23 310.13 582.01 311.21 582.49 313.7L583.3 313.76L583.99 309.17H583.12C582.79 309.74 582.7 309.8 582.25 309.8C581.95 309.8 581.71 309.74 581.17 309.53C580.42 309.23 580.03 309.14 579.43 309.14C577 309.14 575.41 310.61 575.41 312.92C575.41 314.54 575.83 315.38 577.81 317.75C578.95 319.1 579.49 320.12 579.49 320.87C579.49 321.77 578.74 322.49 577.78 322.49C576.25 322.49 575.29 321.17 574.9 318.5L574.09 318.41L573.43 323.39H574.24C574.36 323.03 574.72 322.79 575.11 322.79C575.32 322.79 575.65 322.88 576.04 323.03C576.76 323.27 577.3 323.39 577.93 323.39C580.48 323.39 582.37 321.68 582.37 319.43Z" fill="#1C1B1B"/>
<path d="M316.47 43.55L315.81 43.07C314.97 44.42 314.25 45.23 313.8 45.23C313.62 45.23 313.47 45.05 313.47 44.87C313.47 44.6 314.16 41.9 315.18 38.18L318.51 26.03C316.71 26.45 315.24 26.66 312.24 26.9V27.71H312.87C313.65 27.71 314.1 28.01 314.1 28.55C314.1 28.82 313.95 29.45 313.23 32.09L312.69 34.13C311.97 33.41 311.4 33.14 310.53 33.14C306.87 33.14 302.37 38.93 302.37 43.64C302.37 45.83 303.72 47.39 305.55 47.39C307.47 47.39 308.82 46.31 310.53 43.46C310.26 44.63 310.2 45.02 310.2 45.5C310.2 46.64 310.86 47.33 312 47.33C313.47 47.33 314.82 46.19 316.47 43.55ZM312.24 35.87C312.24 37.19 310.95 41.09 309.9 43.01C309.06 44.48 308.19 45.23 307.32 45.23C306.57 45.23 306.03 44.39 306.09 43.34C306.18 41.72 307.11 38.96 308.19 37.01C309.15 35.3 310.23 34.34 311.13 34.4C311.79 34.43 312.24 35.03 312.24 35.87Z" fill="#1C1B1B"/>
<path d="M441.38 101.25L440.51 100.74C439.13 102.81 438.26 103.47 436.97 103.47C435.71 103.47 435.05 102.63 435.05 101.01C435.05 100.53 435.11 100.14 435.23 99.54C438.35 98.94 439.82 98.28 441.32 96.9C442.37 95.94 442.94 94.83 442.94 93.75C442.94 92.22 441.62 91.14 439.79 91.14C435.44 91.14 431.15 96.03 431.15 100.98C431.15 103.53 433.07 105.39 435.68 105.39C437.99 105.39 439.58 104.22 441.38 101.25ZM440.18 93.15C440.18 94.47 439.67 95.76 438.71 96.75C437.9 97.62 437.15 98.04 435.44 98.58C436.52 94.41 437.9 92.13 439.34 92.13C439.91 92.13 440.18 92.46 440.18 93.15ZM456.81 94.77C456.81 92.55 455.55 91.14 453.57 91.14C451.86 91.14 450.54 92.1 448.77 94.59L449.91 91.14L444.12 91.98V92.79C445.47 92.85 445.74 92.97 445.74 93.54C445.74 93.84 445.5 94.92 445.08 96.48L442.08 108.12C441.51 110.1 441.27 110.37 439.83 110.34V111.15H447.3V110.34C445.8 110.31 445.35 110.1 445.35 109.38C445.35 108.96 445.56 108.06 446.13 105.96C446.34 105.24 446.34 105.18 446.46 104.73C447.51 105.27 447.87 105.39 448.5 105.39C452.58 105.39 456.81 99.96 456.81 94.77ZM453.06 94.98C452.94 96.96 451.98 99.93 450.9 101.88C449.97 103.5 449.01 104.34 447.99 104.34C447.33 104.34 446.82 103.86 446.82 103.26C446.82 102.75 447.15 101.52 447.96 98.79C448.62 96.6 448.89 95.85 449.34 95.16C450.09 93.99 451.11 93.21 451.89 93.27C452.67 93.33 453.12 94.02 453.06 94.98Z" fill="#1C1B1B"/>
<path d="M51.38 156.31L50.54 155.77C49.1 157.78 48.17 158.47 46.88 158.47C45.56 158.47 44.69 157.39 44.69 155.8C44.69 153.91 45.47 151.21 46.55 149.26C47.36 147.85 48.2 147.13 49.13 147.13C49.49 147.13 49.79 147.34 49.79 147.64C49.79 147.76 49.73 147.94 49.55 148.21C49.28 148.69 49.16 149.02 49.16 149.38C49.16 150.28 49.88 150.94 50.9 150.94C52.01 150.94 52.76 150.1 52.76 148.84C52.76 147.25 51.41 146.14 49.4 146.14C45.17 146.14 40.85 151.06 40.85 155.86C40.85 158.53 42.71 160.39 45.44 160.39C46.76 160.39 48.05 159.91 49.07 159.04C49.85 158.38 50.33 157.81 51.38 156.31Z" fill="#1C1B1B"/>
<path d="M5.5 424.72C4.9 424.72 4.39 424.51 3.97 424.09C3.55 423.67 3.34 423.16 3.34 422.56V396.82C3.34 396.22 3.55 395.71 3.97 395.29C4.39 394.87 4.9 394.66 5.5 394.66H14.5C15.1 394.66 15.61 394.87 16.03 395.29C16.45 395.71 16.66 396.22 16.66 396.82C16.66 397.42 16.45 397.93 16.03 398.35C15.61 398.77 15.1 398.98 14.5 398.98H7.66V407.08H13.6C14.2 407.08 14.71 407.29 15.13 407.71C15.55 408.13 15.76 408.64 15.76 409.24C15.76 409.84 15.55 410.35 15.13 410.77C14.71 411.19 14.2 411.4 13.6 411.4H7.66V422.56C7.66 423.16 7.45 423.67 7.03 424.09C6.61 424.51 6.1 424.72 5.5 424.72ZM21.7158 424.9C21.1158 424.9 20.6058 424.69 20.1858 424.27C19.7658 423.85 19.5558 423.34 19.5558 422.74V396.64C19.5558 396.04 19.7658 395.53 20.1858 395.11C20.6058 394.69 21.1158 394.48 21.7158 394.48C22.3158 394.48 22.8258 394.69 23.2458 395.11C23.6658 395.53 23.8758 396.04 23.8758 396.64V422.74C23.8758 423.34 23.6658 423.85 23.2458 424.27C22.8258 424.69 22.3158 424.9 21.7158 424.9ZM40.9846 407.98C41.5846 407.98 42.0946 408.19 42.5146 408.61C42.9346 409.03 43.1446 409.54 43.1446 410.14V417.34C43.1446 418.39 42.9496 419.38 42.5596 420.31C42.1696 421.21 41.6296 422.005 40.9396 422.695C40.2496 423.385 39.4396 423.925 38.5096 424.315C37.6096 424.705 36.6346 424.9 35.5846 424.9C34.5346 424.9 33.5446 424.705 32.6146 424.315C31.7146 423.925 30.9196 423.385 30.2296 422.695C29.5696 422.005 29.0296 421.21 28.6096 420.31C28.2196 419.38 28.0246 418.39 28.0246 417.34V402.04C28.0246 401.2 28.1596 400.39 28.4296 399.61C28.6996 398.8 29.0746 398.08 29.5546 397.45C30.0646 396.79 30.6646 396.235 31.3546 395.785C32.0446 395.305 32.8096 394.96 33.6496 394.75C34.4596 394.54 35.2846 394.465 36.1246 394.525C36.9646 394.555 37.7596 394.735 38.5096 395.065C39.2596 395.365 39.9496 395.785 40.5796 396.325C41.2096 396.865 41.7346 397.51 42.1546 398.26C42.4546 398.77 42.5146 399.31 42.3346 399.88C42.1846 400.45 41.8546 400.9 41.3446 401.23C40.8346 401.53 40.2946 401.605 39.7246 401.455C39.1546 401.275 38.7196 400.93 38.4196 400.42C38.0296 399.79 37.4896 399.34 36.7996 399.07C36.1396 398.77 35.4646 398.725 34.7746 398.935C34.0546 399.115 33.4696 399.505 33.0196 400.105C32.5696 400.675 32.3446 401.32 32.3446 402.04V417.34C32.3446 418.24 32.6596 419.005 33.2896 419.635C33.9496 420.265 34.7146 420.58 35.5846 420.58C36.4846 420.58 37.2496 420.265 37.8796 419.635C38.5096 419.005 38.8246 418.24 38.8246 417.34V412.3H36.4846C35.8846 412.3 35.3746 412.09 34.9546 411.67C34.5346 411.25 34.3246 410.74 34.3246 410.14C34.3246 409.54 34.5346 409.03 34.9546 408.61C35.3746 408.19 35.8846 407.98 36.4846 407.98H40.9846ZM46.4795 422.29C46.4795 421.57 46.7345 420.955 47.2445 420.445C47.7545 419.935 48.3695 419.68 49.0895 419.68C49.8095 419.68 50.4245 419.935 50.9345 420.445C51.4445 420.955 51.6995 421.57 51.6995 422.29C51.6995 423.01 51.4445 423.625 50.9345 424.135C50.4245 424.645 49.8095 424.9 49.0895 424.9C48.3695 424.9 47.7545 424.645 47.2445 424.135C46.7345 423.625 46.4795 423.01 46.4795 422.29ZM57.9268 424.9C57.3268 424.9 56.8168 424.69 56.3968 424.27C55.9768 423.85 55.7668 423.34 55.7668 422.74V396.64C55.7668 396.13 55.9168 395.68 56.2168 395.29C56.5168 394.9 56.9218 394.645 57.4318 394.525C57.9418 394.405 58.4218 394.465 58.8718 394.705C59.3218 394.915 59.6518 395.26 59.8618 395.74C60.4618 397.06 61.0768 398.365 61.7068 399.655C62.2168 400.795 62.7868 402.01 63.4168 403.3C64.0468 404.56 64.6168 405.745 65.1268 406.855C65.6368 405.745 66.1918 404.56 66.7918 403.3C67.4218 402.01 67.9918 400.795 68.5018 399.655C69.1018 398.365 69.7168 397.06 70.3468 395.74C70.5868 395.26 70.9168 394.915 71.3368 394.705C71.7868 394.465 72.2668 394.405 72.7768 394.525C73.2868 394.645 73.6918 394.9 73.9918 395.29C74.3218 395.68 74.4868 396.13 74.4868 396.64V422.74C74.4868 423.34 74.2768 423.85 73.8568 424.27C73.4368 424.69 72.9268 424.9 72.3268 424.9C71.7268 424.9 71.2168 424.69 70.7968 424.27C70.3768 423.85 70.1668 423.34 70.1668 422.74V406.315C69.7768 407.125 69.4018 407.92 69.0418 408.7C68.6818 409.48 68.3518 410.17 68.0518 410.77C67.7218 411.49 67.3918 412.18 67.0618 412.84C66.8818 413.23 66.6118 413.545 66.2518 413.785C65.9218 413.995 65.5468 414.1 65.1268 414.1C64.1968 414.1 63.5368 413.68 63.1468 412.84C62.8168 412.18 62.4868 411.49 62.1568 410.77C61.8568 410.17 61.5268 409.48 61.1668 408.7C60.8068 407.92 60.4468 407.125 60.0868 406.315V422.74C60.0868 423.34 59.8768 423.85 59.4568 424.27C59.0368 424.69 58.5268 424.9 57.9268 424.9ZM79.1457 396.82C79.1457 396.22 79.3557 395.71 79.7757 395.29C80.1957 394.87 80.7057 394.66 81.3057 394.66H86.7057C87.7557 394.66 88.7307 394.855 89.6307 395.245C90.5607 395.635 91.3707 396.175 92.0607 396.865C92.7507 397.555 93.2907 398.365 93.6807 399.295C94.0707 400.195 94.2657 401.17 94.2657 402.22V404.74C94.2657 405.79 94.0707 406.78 93.6807 407.71C93.2907 408.61 92.7507 409.405 92.0607 410.095C91.3707 410.785 90.5607 411.325 89.6307 411.715C88.7307 412.105 87.7557 412.3 86.7057 412.3H83.4657V422.74C83.4657 423.34 83.2557 423.85 82.8357 424.27C82.4157 424.69 81.9057 424.9 81.3057 424.9C80.7057 424.9 80.1957 424.69 79.7757 424.27C79.3557 423.85 79.1457 423.34 79.1457 422.74V396.82ZM89.9457 402.22C89.9457 401.32 89.6307 400.555 89.0007 399.925C88.3707 399.295 87.6057 398.98 86.7057 398.98H83.4657V407.98H86.7057C87.6057 407.98 88.3707 407.665 89.0007 407.035C89.6307 406.405 89.9457 405.64 89.9457 404.74V402.22Z" fill="#1C1B1B"/>
</svg>
