<svg width="840" height="495" viewBox="0 0 840 495" fill="none" xmlns="http://www.w3.org/2000/svg">
<path fill-rule="evenodd" clip-rule="evenodd" d="M392.381 79.6101C374.57 77.8168 361.274 77.9317 349.597 81.936C338.021 85.9053 328.155 93.6526 317.065 106.848L315.741 105.995L310.423 118.538L319.65 108.515L318.759 107.941C329.656 95.0145 339.199 87.6157 350.245 83.8278C361.496 79.97 374.43 79.8129 392.18 81.6L392.381 79.6101Z" fill="#1C1B1B"/>
<path fill-rule="evenodd" clip-rule="evenodd" d="M470.381 121.61C452.57 119.817 439.274 119.932 427.597 123.936C416.021 127.905 406.155 135.653 395.065 148.848L393.741 147.995L388.423 160.538L397.65 150.515L396.759 149.941C407.656 137.014 417.199 129.616 428.245 125.828C439.496 121.97 452.43 121.813 470.18 123.6L470.381 121.61Z" fill="#1C1B1B"/>
<path fill-rule="evenodd" clip-rule="evenodd" d="M551.381 170.61C533.57 168.817 520.274 168.932 508.597 172.936C497.021 176.905 487.155 184.653 476.065 197.848L474.741 196.995L469.423 209.538L478.65 199.515L477.759 198.941C488.656 186.014 498.199 178.616 509.245 174.828C520.496 170.97 533.43 170.813 551.18 172.6L551.381 170.61Z" fill="#1C1B1B"/>
<line x1="128.103" y1="444.113" x2="177.805" y2="449.56" stroke="#1C1B1B" stroke-width="2"/>
<path d="M187.058 450.476L174.846 451.751L175.412 446.586L187.058 450.476Z" fill="#1C1B1B"/>
<line x1="98.6765" y1="422.294" x2="78.5424" y2="376.527" stroke="#1C1B1B" stroke-width="2"/>
<path d="M74.746 368.208L81.9564 378.146L77.2001 380.238L74.746 368.208Z" fill="#1C1B1B"/>
<path d="M111.65 444.64L111.02 444.19C109.79 445.84 109.34 446.29 108.86 446.29C108.62 446.29 108.5 446.11 108.5 445.84C108.5 445.09 108.77 443.86 109.52 441.4L111.65 434.32L108.32 434.53L107.78 436.3C107.51 434.77 106.85 434.14 105.56 434.14C101.87 434.14 97.37 439.9 97.37 444.58C97.37 446.86 98.66 448.39 100.61 448.39C102.44 448.39 103.82 447.31 105.53 444.43C105.17 445.66 105.11 446.02 105.11 446.44C105.11 447.55 106.01 448.42 107.12 448.42C108.53 448.42 109.91 447.25 111.65 444.64ZM107.09 436.81C107.09 438.61 106.1 441.94 104.93 444.01C104.12 445.48 103.22 446.26 102.41 446.26C101.63 446.26 101.06 445.57 101.06 444.64C101.06 443.08 102.05 440.08 103.28 437.86C104.18 436.27 105.17 435.34 105.98 435.4C106.64 435.46 107.09 436 107.09 436.81Z" fill="#1C1B1B"/>
<path d="M415.38 76.77C415.38 74.55 414.12 73.14 412.14 73.14C410.43 73.14 409.11 74.1 407.34 76.59L408.48 73.14L402.69 73.98V74.79C404.04 74.85 404.31 74.97 404.31 75.54C404.31 75.84 404.07 76.92 403.65 78.48L400.65 90.12C400.08 92.1 399.84 92.37 398.4 92.34V93.15H405.87V92.34C404.37 92.31 403.92 92.1 403.92 91.38C403.92 90.96 404.13 90.06 404.7 87.96C404.91 87.24 404.91 87.18 405.03 86.73C406.08 87.27 406.44 87.39 407.07 87.39C411.15 87.39 415.38 81.96 415.38 76.77ZM411.63 76.98C411.51 78.96 410.55 81.93 409.47 83.88C408.54 85.5 407.58 86.34 406.56 86.34C405.9 86.34 405.39 85.86 405.39 85.26C405.39 84.75 405.72 83.52 406.53 80.79C407.19 78.6 407.46 77.85 407.91 77.16C408.66 75.99 409.68 75.21 410.46 75.27C411.24 75.33 411.69 76.02 411.63 76.98ZM429.75 83.64L429.12 83.19C427.89 84.84 427.44 85.29 426.96 85.29C426.72 85.29 426.6 85.11 426.6 84.84C426.6 84.09 426.87 82.86 427.62 80.4L429.75 73.32L426.42 73.53L425.88 75.3C425.61 73.77 424.95 73.14 423.66 73.14C419.97 73.14 415.47 78.9 415.47 83.58C415.47 85.86 416.76 87.39 418.71 87.39C420.54 87.39 421.92 86.31 423.63 83.43C423.27 84.66 423.21 85.02 423.21 85.44C423.21 86.55 424.11 87.42 425.22 87.42C426.63 87.42 428.01 86.25 429.75 83.64ZM425.19 75.81C425.19 77.61 424.2 80.94 423.03 83.01C422.22 84.48 421.32 85.26 420.51 85.26C419.73 85.26 419.16 84.57 419.16 83.64C419.16 82.08 420.15 79.08 421.38 76.86C422.28 75.27 423.27 74.34 424.08 74.4C424.74 74.46 425.19 75 425.19 75.81Z" fill="#1C1B1B"/>
<path d="M495.38 118.77C495.38 116.55 494.12 115.14 492.14 115.14C490.43 115.14 489.11 116.1 487.34 118.59L488.48 115.14L482.69 115.98V116.79C484.04 116.85 484.31 116.97 484.31 117.54C484.31 117.84 484.07 118.92 483.65 120.48L480.65 132.12C480.08 134.1 479.84 134.37 478.4 134.34V135.15H485.87V134.34C484.37 134.31 483.92 134.1 483.92 133.38C483.92 132.96 484.13 132.06 484.7 129.96C484.91 129.24 484.91 129.18 485.03 128.73C486.08 129.27 486.44 129.39 487.07 129.39C491.15 129.39 495.38 123.96 495.38 118.77ZM491.63 118.98C491.51 120.96 490.55 123.93 489.47 125.88C488.54 127.5 487.58 128.34 486.56 128.34C485.9 128.34 485.39 127.86 485.39 127.26C485.39 126.75 485.72 125.52 486.53 122.79C487.19 120.6 487.46 119.85 487.91 119.16C488.66 117.99 489.68 117.21 490.46 117.27C491.24 117.33 491.69 118.02 491.63 118.98ZM509.75 125.64L509.12 125.19C507.89 126.84 507.44 127.29 506.96 127.29C506.72 127.29 506.6 127.11 506.6 126.84C506.6 126.09 506.87 124.86 507.62 122.4L509.75 115.32L506.42 115.53L505.88 117.3C505.61 115.77 504.95 115.14 503.66 115.14C499.97 115.14 495.47 120.9 495.47 125.58C495.47 127.86 496.76 129.39 498.71 129.39C500.54 129.39 501.92 128.31 503.63 125.43C503.27 126.66 503.21 127.02 503.21 127.44C503.21 128.55 504.11 129.42 505.22 129.42C506.63 129.42 508.01 128.25 509.75 125.64ZM505.19 117.81C505.19 119.61 504.2 122.94 503.03 125.01C502.22 126.48 501.32 127.26 500.51 127.26C499.73 127.26 499.16 126.57 499.16 125.64C499.16 124.08 500.15 121.08 501.38 118.86C502.28 117.27 503.27 116.34 504.08 116.4C504.74 116.46 505.19 117 505.19 117.81ZM518.674 111.39C518.674 109.62 517.654 108.45 516.124 108.45C514.894 108.45 513.994 109.38 513.994 110.64C513.994 111.45 514.294 111.93 515.194 112.53C515.884 112.98 516.094 113.28 516.094 113.73C516.094 114.78 514.924 115.95 512.554 117.21L512.944 117.93C516.424 116.43 518.674 113.82 518.674 111.39Z" fill="#1C1B1B"/>
<path d="M574.38 167.77C574.38 165.55 573.12 164.14 571.14 164.14C569.43 164.14 568.11 165.1 566.34 167.59L567.48 164.14L561.69 164.98V165.79C563.04 165.85 563.31 165.97 563.31 166.54C563.31 166.84 563.07 167.92 562.65 169.48L559.65 181.12C559.08 183.1 558.84 183.37 557.4 183.34V184.15H564.87V183.34C563.37 183.31 562.92 183.1 562.92 182.38C562.92 181.96 563.13 181.06 563.7 178.96C563.91 178.24 563.91 178.18 564.03 177.73C565.08 178.27 565.44 178.39 566.07 178.39C570.15 178.39 574.38 172.96 574.38 167.77ZM570.63 167.98C570.51 169.96 569.55 172.93 568.47 174.88C567.54 176.5 566.58 177.34 565.56 177.34C564.9 177.34 564.39 176.86 564.39 176.26C564.39 175.75 564.72 174.52 565.53 171.79C566.19 169.6 566.46 168.85 566.91 168.16C567.66 166.99 568.68 166.21 569.46 166.27C570.24 166.33 570.69 167.02 570.63 167.98ZM588.75 174.64L588.12 174.19C586.89 175.84 586.44 176.29 585.96 176.29C585.72 176.29 585.6 176.11 585.6 175.84C585.6 175.09 585.87 173.86 586.62 171.4L588.75 164.32L585.42 164.53L584.88 166.3C584.61 164.77 583.95 164.14 582.66 164.14C578.97 164.14 574.47 169.9 574.47 174.58C574.47 176.86 575.76 178.39 577.71 178.39C579.54 178.39 580.92 177.31 582.63 174.43C582.27 175.66 582.21 176.02 582.21 176.44C582.21 177.55 583.11 178.42 584.22 178.42C585.63 178.42 587.01 177.25 588.75 174.64ZM584.19 166.81C584.19 168.61 583.2 171.94 582.03 174.01C581.22 175.48 580.32 176.26 579.51 176.26C578.73 176.26 578.16 175.57 578.16 174.64C578.16 173.08 579.15 170.08 580.38 167.86C581.28 166.27 582.27 165.34 583.08 165.4C583.74 165.46 584.19 166 584.19 166.81ZM604.59 160.39C604.59 158.62 603.57 157.45 602.04 157.45C600.81 157.45 599.91 158.38 599.91 159.64C599.91 160.45 600.21 160.93 601.11 161.53C601.8 161.98 602.01 162.28 602.01 162.73C602.01 163.78 600.84 164.95 598.47 166.21L598.86 166.93C602.34 165.43 604.59 162.82 604.59 160.39ZM596.91 160.39C596.91 158.62 595.89 157.45 594.36 157.45C593.13 157.45 592.23 158.38 592.23 159.64C592.23 160.45 592.53 160.93 593.43 161.53C594.12 161.98 594.33 162.28 594.33 162.73C594.33 163.78 593.16 164.95 590.79 166.21L591.18 166.93C594.66 165.43 596.91 162.82 596.91 160.39Z" fill="#1C1B1B"/>
</svg>
