<svg width="840" height="530" viewBox="0 0 840 530" fill="none" xmlns="http://www.w3.org/2000/svg">
<path fill-rule="evenodd" clip-rule="evenodd" d="M143.459 176.329C136.203 174.989 131.075 171.935 127.087 167.874C122.571 163.275 119.556 157.41 116.54 151.544C116.253 150.987 115.966 150.429 115.678 149.873C112.333 143.408 108.785 137.019 103.032 131.948C97.3056 126.902 89.319 123.1 77 121.992L77.1792 120C89.859 121.14 98.2646 125.081 104.354 130.448C110.416 135.79 114.108 142.486 117.455 148.954C117.737 149.5 118.017 150.045 118.296 150.586L118.298 150.59C121.345 156.511 124.223 162.103 128.514 166.473C132.181 170.207 136.909 173.068 143.733 174.346L143.932 172.906L157.009 177.077L143.291 177.547L143.459 176.329Z" fill="#1C1B1B"/>
<line x1="336.5" y1="400.597" x2="398.161" y2="364.997" stroke="#1C1B1B" stroke-width="2"/>
<path d="M405.781 360.598L396.688 368.848L394.09 364.348L405.781 360.598Z" fill="#1C1B1B"/>
<path fill-rule="evenodd" clip-rule="evenodd" d="M139.896 302.972C146.128 286.119 152.091 274.179 160.849 265.412C169.53 256.723 180.864 251.24 197.651 247.054L197.465 245.481L211.121 246.213L198.014 250.116L197.889 249.056C181.429 253.186 170.549 258.532 162.264 266.826C153.825 275.273 147.983 286.87 141.771 303.666L139.896 302.972Z" fill="#1C1B1B"/>
<path d="M353 42L382.041 42L382.041 100.108" stroke="#1C1B1B" stroke-width="2"/>
<path d="M382.043 112L379.482 95.7838L384.604 95.7838L382.043 112Z" fill="#1C1B1B"/>
<line x1="703.072" y1="266.25" x2="631.872" y2="266.25" stroke="#1C1B1B" stroke-width="2"/>
<path d="M623.072 266.25L635.072 263.652L635.072 268.849L623.072 266.25Z" fill="#1C1B1B"/>
<path d="M325.38 407.31L324.54 406.77C323.1 408.78 322.17 409.47 320.88 409.47C319.56 409.47 318.69 408.39 318.69 406.8C318.69 404.91 319.47 402.21 320.55 400.26C321.36 398.85 322.2 398.13 323.13 398.13C323.49 398.13 323.79 398.34 323.79 398.64C323.79 398.76 323.73 398.94 323.55 399.21C323.28 399.69 323.16 400.02 323.16 400.38C323.16 401.28 323.88 401.94 324.9 401.94C326.01 401.94 326.76 401.1 326.76 399.84C326.76 398.25 325.41 397.14 323.4 397.14C319.17 397.14 314.85 402.06 314.85 406.86C314.85 409.53 316.71 411.39 319.44 411.39C320.76 411.39 322.05 410.91 323.07 410.04C323.85 409.38 324.33 408.81 325.38 407.31Z" fill="#1C1B1B"/>
<path d="M731.65 265.64L731.02 265.19C729.79 266.84 729.34 267.29 728.86 267.29C728.62 267.29 728.5 267.11 728.5 266.84C728.5 266.09 728.77 264.86 729.52 262.4L731.65 255.32L728.32 255.53L727.78 257.3C727.51 255.77 726.85 255.14 725.56 255.14C721.87 255.14 717.37 260.9 717.37 265.58C717.37 267.86 718.66 269.39 720.61 269.39C722.44 269.39 723.82 268.31 725.53 265.43C725.17 266.66 725.11 267.02 725.11 267.44C725.11 268.55 726.01 269.42 727.12 269.42C728.53 269.42 729.91 268.25 731.65 265.64ZM727.09 257.81C727.09 259.61 726.1 262.94 724.93 265.01C724.12 266.48 723.22 267.26 722.41 267.26C721.63 267.26 721.06 266.57 721.06 265.64C721.06 264.08 722.05 261.08 723.28 258.86C724.18 257.27 725.17 256.34 725.98 256.4C726.64 256.46 727.09 257 727.09 257.81Z" fill="#1C1B1B"/>
<path d="M329.14 45.19L328.48 44.77L328.06 45.37C327.28 46.54 326.59 47.17 326.14 47.17C325.9 47.17 325.69 46.96 325.69 46.72C325.69 46.45 325.84 45.67 325.96 45.16L328.69 35.14C327.07 35.5 324.97 35.8 322.63 35.98V36.79H323.02C323.92 36.79 324.4 37.09 324.4 37.66C324.4 37.9 324.31 38.35 324.19 38.86L322.45 45.31C322.21 46.18 322.06 46.96 322.06 47.38C322.06 48.52 322.9 49.27 324.13 49.27C325.93 49.27 327.04 48.37 329.14 45.19ZM329.98 31.3C329.98 30.19 329.05 29.26 327.91 29.26C326.86 29.26 325.93 30.19 325.93 31.24C325.93 32.41 326.8 33.31 327.91 33.31C329.05 33.31 329.98 32.41 329.98 31.3ZM339.83 45.31L338.99 44.77C337.55 46.78 336.62 47.47 335.33 47.47C334.01 47.47 333.14 46.39 333.14 44.8C333.14 42.91 333.92 40.21 335 38.26C335.81 36.85 336.65 36.13 337.58 36.13C337.94 36.13 338.24 36.34 338.24 36.64C338.24 36.76 338.18 36.94 338 37.21C337.73 37.69 337.61 38.02 337.61 38.38C337.61 39.28 338.33 39.94 339.35 39.94C340.46 39.94 341.21 39.1 341.21 37.84C341.21 36.25 339.86 35.14 337.85 35.14C333.62 35.14 329.3 40.06 329.3 44.86C329.3 47.53 331.16 49.39 333.89 49.39C335.21 49.39 336.5 48.91 337.52 48.04C338.3 47.38 338.78 46.81 339.83 45.31Z" fill="#1C1B1B"/>
<path d="M49.38 122.31L48.54 121.77C47.1 123.78 46.17 124.47 44.88 124.47C43.56 124.47 42.69 123.39 42.69 121.8C42.69 119.91 43.47 117.21 44.55 115.26C45.36 113.85 46.2 113.13 47.13 113.13C47.49 113.13 47.79 113.34 47.79 113.64C47.79 113.76 47.73 113.94 47.55 114.21C47.28 114.69 47.16 115.02 47.16 115.38C47.16 116.28 47.88 116.94 48.9 116.94C50.01 116.94 50.76 116.1 50.76 114.84C50.76 113.25 49.41 112.14 47.4 112.14C43.17 112.14 38.85 117.06 38.85 121.86C38.85 124.53 40.71 126.39 43.44 126.39C44.76 126.39 46.05 125.91 47.07 125.04C47.85 124.38 48.33 123.81 49.38 122.31ZM64.6601 116.67C64.6601 114.03 62.7101 112.14 59.9501 112.14C55.5101 112.14 51.3401 116.91 51.3401 121.95C51.3401 124.5 53.3501 126.39 56.1101 126.39C60.5801 126.39 64.6601 121.74 64.6601 116.67ZM59.2301 122.7C58.3601 124.62 57.4601 125.52 56.3801 125.52C55.4801 125.52 54.9101 124.83 54.9101 123.66C54.9101 121.38 55.9601 117.15 56.9801 115.26C57.7901 113.76 58.6901 113.01 59.6801 113.01C60.5501 113.01 61.0901 113.67 61.0901 114.75C61.0901 116.76 60.2201 120.54 59.2301 122.7Z" fill="#1C1B1B"/>
<path d="M137.38 329.31L136.54 328.77C135.1 330.78 134.17 331.47 132.88 331.47C131.56 331.47 130.69 330.39 130.69 328.8C130.69 326.91 131.47 324.21 132.55 322.26C133.36 320.85 134.2 320.13 135.13 320.13C135.49 320.13 135.79 320.34 135.79 320.64C135.79 320.76 135.73 320.94 135.55 321.21C135.28 321.69 135.16 322.02 135.16 322.38C135.16 323.28 135.88 323.94 136.9 323.94C138.01 323.94 138.76 323.1 138.76 321.84C138.76 320.25 137.41 319.14 135.4 319.14C131.17 319.14 126.85 324.06 126.85 328.86C126.85 331.53 128.71 333.39 131.44 333.39C132.76 333.39 134.05 332.91 135.07 332.04C135.85 331.38 136.33 330.81 137.38 329.31ZM152.81 314.46C152.81 312.99 151.67 312.06 149.84 312.06C148.28 312.06 146.84 312.69 145.76 313.89C144.5 315.27 143.93 316.5 143.06 319.53H140.87L140.6 320.79H142.79L140.15 332.55C139.22 336.99 138.65 338.22 137.45 338.22C137.15 338.22 136.91 338.07 136.91 337.89C136.91 337.89 136.97 337.74 137.03 337.62C137.27 337.26 137.39 336.93 137.39 336.6C137.39 335.88 136.67 335.16 135.89 335.16C135.08 335.16 134.36 335.91 134.36 336.78C134.36 338.22 135.53 339.15 137.33 339.15C138.65 339.15 139.79 338.7 140.75 337.77C141.83 336.72 142.52 335.37 143.45 332.61C144.26 330.18 144.62 328.74 146.3 320.79H149L149.27 319.53H146.51L147.05 317.4C147.8 314.43 148.7 312.93 149.78 312.93C150.08 312.93 150.29 313.08 150.29 313.32C150.29 313.32 150.26 313.47 150.14 313.65C149.9 314.01 149.81 314.28 149.81 314.58C149.81 315.42 150.44 316.05 151.28 316.05C152.18 316.05 152.81 315.39 152.81 314.46Z" fill="#1C1B1B"/>
<path d="M131.5 452.72C130.9 452.72 130.39 452.51 129.97 452.09C129.55 451.67 129.34 451.16 129.34 450.56V424.82C129.34 424.22 129.55 423.71 129.97 423.29C130.39 422.87 130.9 422.66 131.5 422.66H140.5C141.1 422.66 141.61 422.87 142.03 423.29C142.45 423.71 142.66 424.22 142.66 424.82C142.66 425.42 142.45 425.93 142.03 426.35C141.61 426.77 141.1 426.98 140.5 426.98H133.66V435.08H139.6C140.2 435.08 140.71 435.29 141.13 435.71C141.55 436.13 141.76 436.64 141.76 437.24C141.76 437.84 141.55 438.35 141.13 438.77C140.71 439.19 140.2 439.4 139.6 439.4H133.66V450.56C133.66 451.16 133.45 451.67 133.03 452.09C132.61 452.51 132.1 452.72 131.5 452.72ZM147.716 452.9C147.116 452.9 146.606 452.69 146.186 452.27C145.766 451.85 145.556 451.34 145.556 450.74V424.64C145.556 424.04 145.766 423.53 146.186 423.11C146.606 422.69 147.116 422.48 147.716 422.48C148.316 422.48 148.826 422.69 149.246 423.11C149.666 423.53 149.876 424.04 149.876 424.64V450.74C149.876 451.34 149.666 451.85 149.246 452.27C148.826 452.69 148.316 452.9 147.716 452.9ZM166.985 435.98C167.585 435.98 168.095 436.19 168.515 436.61C168.935 437.03 169.145 437.54 169.145 438.14V445.34C169.145 446.39 168.95 447.38 168.56 448.31C168.17 449.21 167.63 450.005 166.94 450.695C166.25 451.385 165.44 451.925 164.51 452.315C163.61 452.705 162.635 452.9 161.585 452.9C160.535 452.9 159.545 452.705 158.615 452.315C157.715 451.925 156.92 451.385 156.23 450.695C155.57 450.005 155.03 449.21 154.61 448.31C154.22 447.38 154.025 446.39 154.025 445.34V430.04C154.025 429.2 154.16 428.39 154.43 427.61C154.7 426.8 155.075 426.08 155.555 425.45C156.065 424.79 156.665 424.235 157.355 423.785C158.045 423.305 158.81 422.96 159.65 422.75C160.46 422.54 161.285 422.465 162.125 422.525C162.965 422.555 163.76 422.735 164.51 423.065C165.26 423.365 165.95 423.785 166.58 424.325C167.21 424.865 167.735 425.51 168.155 426.26C168.455 426.77 168.515 427.31 168.335 427.88C168.185 428.45 167.855 428.9 167.345 429.23C166.835 429.53 166.295 429.605 165.725 429.455C165.155 429.275 164.72 428.93 164.42 428.42C164.03 427.79 163.49 427.34 162.8 427.07C162.14 426.77 161.465 426.725 160.775 426.935C160.055 427.115 159.47 427.505 159.02 428.105C158.57 428.675 158.345 429.32 158.345 430.04V445.34C158.345 446.24 158.66 447.005 159.29 447.635C159.95 448.265 160.715 448.58 161.585 448.58C162.485 448.58 163.25 448.265 163.88 447.635C164.51 447.005 164.825 446.24 164.825 445.34V440.3H162.485C161.885 440.3 161.375 440.09 160.955 439.67C160.535 439.25 160.325 438.74 160.325 438.14C160.325 437.54 160.535 437.03 160.955 436.61C161.375 436.19 161.885 435.98 162.485 435.98H166.985ZM172.48 450.29C172.48 449.57 172.735 448.955 173.245 448.445C173.755 447.935 174.37 447.68 175.09 447.68C175.81 447.68 176.425 447.935 176.935 448.445C177.445 448.955 177.7 449.57 177.7 450.29C177.7 451.01 177.445 451.625 176.935 452.135C176.425 452.645 175.81 452.9 175.09 452.9C174.37 452.9 173.755 452.645 173.245 452.135C172.735 451.625 172.48 451.01 172.48 450.29ZM186.807 452.63C185.997 452.42 185.247 452.09 184.557 451.64C183.867 451.16 183.267 450.605 182.757 449.975C182.277 449.315 181.902 448.595 181.632 447.815C181.362 447.035 181.227 446.21 181.227 445.34V430.04C181.227 429.2 181.362 428.39 181.632 427.61C181.902 426.8 182.277 426.08 182.757 425.45C183.267 424.79 183.867 424.235 184.557 423.785C185.247 423.305 185.997 422.96 186.807 422.75C188.487 422.3 190.107 422.405 191.667 423.065C193.227 423.695 194.442 424.76 195.312 426.26C195.642 426.77 195.717 427.31 195.537 427.88C195.387 428.45 195.057 428.9 194.547 429.23C194.037 429.53 193.497 429.605 192.927 429.455C192.357 429.275 191.907 428.93 191.577 428.42C191.217 427.79 190.692 427.34 190.002 427.07C189.342 426.77 188.652 426.725 187.932 426.935C187.242 427.115 186.672 427.505 186.222 428.105C185.772 428.675 185.547 429.32 185.547 430.04V445.34C185.547 446.09 185.772 446.75 186.222 447.32C186.672 447.89 187.242 448.28 187.932 448.49C188.652 448.67 189.342 448.625 190.002 448.355C190.692 448.055 191.217 447.59 191.577 446.96C191.907 446.45 192.357 446.12 192.927 445.97C193.497 445.79 194.037 445.85 194.547 446.15C195.057 446.48 195.387 446.93 195.537 447.5C195.717 448.07 195.642 448.61 195.312 449.12C194.442 450.62 193.227 451.685 191.667 452.315C190.107 452.975 188.487 453.08 186.807 452.63ZM199.081 424.82C199.081 424.22 199.291 423.71 199.711 423.29C200.131 422.87 200.641 422.66 201.241 422.66H210.241C210.841 422.66 211.351 422.87 211.771 423.29C212.191 423.71 212.401 424.22 212.401 424.82C212.401 425.42 212.191 425.93 211.771 426.35C211.351 426.77 210.841 426.98 210.241 426.98H203.401V435.08H209.341C209.941 435.08 210.451 435.29 210.871 435.71C211.291 436.13 211.501 436.64 211.501 437.24C211.501 437.84 211.291 438.35 210.871 438.77C210.451 439.19 209.941 439.4 209.341 439.4H203.401V448.4H210.241C210.841 448.4 211.351 448.61 211.771 449.03C212.191 449.45 212.401 449.96 212.401 450.56C212.401 451.16 212.191 451.67 211.771 452.09C211.351 452.51 210.841 452.72 210.241 452.72H201.241C200.641 452.72 200.131 452.51 199.711 452.09C199.291 451.67 199.081 451.16 199.081 450.56V424.82Z" fill="#1C1B1B"/>
</svg>
