<svg width="840" height="530" viewBox="0 0 840 530" fill="none" xmlns="http://www.w3.org/2000/svg">
<path fill-rule="evenodd" clip-rule="evenodd" d="M143.459 186.329C136.203 184.989 131.075 181.935 127.087 177.874C122.571 173.275 119.556 167.41 116.54 161.544C116.253 160.987 115.966 160.429 115.678 159.873C112.333 153.408 108.785 147.019 103.032 141.948C97.3056 136.902 89.319 133.1 77 131.992L77.1792 130C89.859 131.14 98.2646 135.081 104.354 140.448C110.416 145.79 114.108 152.486 117.455 158.954C117.737 159.5 118.017 160.045 118.296 160.586L118.298 160.59C121.345 166.511 124.223 172.103 128.514 176.473C132.181 180.207 136.909 183.068 143.733 184.346L143.932 182.906L157.009 187.077L143.291 187.547L143.459 186.329Z" fill="#1C1B1B"/>
<line x1="336.5" y1="410.597" x2="398.161" y2="374.997" stroke="#1C1B1B" stroke-width="2"/>
<path d="M405.781 370.598L396.688 378.848L394.09 374.348L405.781 370.598Z" fill="#1C1B1B"/>
<path fill-rule="evenodd" clip-rule="evenodd" d="M139.896 312.972C146.128 296.119 152.091 284.179 160.849 275.412C169.53 266.723 180.864 261.24 197.651 257.054L197.465 255.481L211.121 256.213L198.014 260.116L197.889 259.056C181.429 263.186 170.549 268.532 162.264 276.826C153.825 285.273 147.983 296.87 141.771 313.666L139.896 312.972Z" fill="#1C1B1B"/>
<path d="M353 52L382.041 52L382.041 110.108" stroke="#1C1B1B" stroke-width="2"/>
<path d="M382.043 122L379.482 105.784L384.604 105.784L382.043 122Z" fill="#1C1B1B"/>
<line x1="703.072" y1="276.25" x2="631.872" y2="276.25" stroke="#1C1B1B" stroke-width="2"/>
<path d="M623.072 276.25L635.072 273.652L635.072 278.849L623.072 276.25Z" fill="#1C1B1B"/>
<path d="M325.38 417.31L324.54 416.77C323.1 418.78 322.17 419.47 320.88 419.47C319.56 419.47 318.69 418.39 318.69 416.8C318.69 414.91 319.47 412.21 320.55 410.26C321.36 408.85 322.2 408.13 323.13 408.13C323.49 408.13 323.79 408.34 323.79 408.64C323.79 408.76 323.73 408.94 323.55 409.21C323.28 409.69 323.16 410.02 323.16 410.38C323.16 411.28 323.88 411.94 324.9 411.94C326.01 411.94 326.76 411.1 326.76 409.84C326.76 408.25 325.41 407.14 323.4 407.14C319.17 407.14 314.85 412.06 314.85 416.86C314.85 419.53 316.71 421.39 319.44 421.39C320.76 421.39 322.05 420.91 323.07 420.04C323.85 419.38 324.33 418.81 325.38 417.31Z" fill="#1C1B1B"/>
<path d="M731.65 275.64L731.02 275.19C729.79 276.84 729.34 277.29 728.86 277.29C728.62 277.29 728.5 277.11 728.5 276.84C728.5 276.09 728.77 274.86 729.52 272.4L731.65 265.32L728.32 265.53L727.78 267.3C727.51 265.77 726.85 265.14 725.56 265.14C721.87 265.14 717.37 270.9 717.37 275.58C717.37 277.86 718.66 279.39 720.61 279.39C722.44 279.39 723.82 278.31 725.53 275.43C725.17 276.66 725.11 277.02 725.11 277.44C725.11 278.55 726.01 279.42 727.12 279.42C728.53 279.42 729.91 278.25 731.65 275.64ZM727.09 267.81C727.09 269.61 726.1 272.94 724.93 275.01C724.12 276.48 723.22 277.26 722.41 277.26C721.63 277.26 721.06 276.57 721.06 275.64C721.06 274.08 722.05 271.08 723.28 268.86C724.18 267.27 725.17 266.34 725.98 266.4C726.64 266.46 727.09 267 727.09 267.81Z" fill="#1C1B1B"/>
<path d="M329.14 55.19L328.48 54.77L328.06 55.37C327.28 56.54 326.59 57.17 326.14 57.17C325.9 57.17 325.69 56.96 325.69 56.72C325.69 56.45 325.84 55.67 325.96 55.16L328.69 45.14C327.07 45.5 324.97 45.8 322.63 45.98V46.79H323.02C323.92 46.79 324.4 47.09 324.4 47.66C324.4 47.9 324.31 48.35 324.19 48.86L322.45 55.31C322.21 56.18 322.06 56.96 322.06 57.38C322.06 58.52 322.9 59.27 324.13 59.27C325.93 59.27 327.04 58.37 329.14 55.19ZM329.98 41.3C329.98 40.19 329.05 39.26 327.91 39.26C326.86 39.26 325.93 40.19 325.93 41.24C325.93 42.41 326.8 43.31 327.91 43.31C329.05 43.31 329.98 42.41 329.98 41.3ZM339.83 55.31L338.99 54.77C337.55 56.78 336.62 57.47 335.33 57.47C334.01 57.47 333.14 56.39 333.14 54.8C333.14 52.91 333.92 50.21 335 48.26C335.81 46.85 336.65 46.13 337.58 46.13C337.94 46.13 338.24 46.34 338.24 46.64C338.24 46.76 338.18 46.94 338 47.21C337.73 47.69 337.61 48.02 337.61 48.38C337.61 49.28 338.33 49.94 339.35 49.94C340.46 49.94 341.21 49.1 341.21 47.84C341.21 46.25 339.86 45.14 337.85 45.14C333.62 45.14 329.3 50.06 329.3 54.86C329.3 57.53 331.16 59.39 333.89 59.39C335.21 59.39 336.5 58.91 337.52 58.04C338.3 57.38 338.78 56.81 339.83 55.31Z" fill="#1C1B1B"/>
<path d="M49.38 132.31L48.54 131.77C47.1 133.78 46.17 134.47 44.88 134.47C43.56 134.47 42.69 133.39 42.69 131.8C42.69 129.91 43.47 127.21 44.55 125.26C45.36 123.85 46.2 123.13 47.13 123.13C47.49 123.13 47.79 123.34 47.79 123.64C47.79 123.76 47.73 123.94 47.55 124.21C47.28 124.69 47.16 125.02 47.16 125.38C47.16 126.28 47.88 126.94 48.9 126.94C50.01 126.94 50.76 126.1 50.76 124.84C50.76 123.25 49.41 122.14 47.4 122.14C43.17 122.14 38.85 127.06 38.85 131.86C38.85 134.53 40.71 136.39 43.44 136.39C44.76 136.39 46.05 135.91 47.07 135.04C47.85 134.38 48.33 133.81 49.38 132.31ZM64.6601 126.67C64.6601 124.03 62.7101 122.14 59.9501 122.14C55.5101 122.14 51.3401 126.91 51.3401 131.95C51.3401 134.5 53.3501 136.39 56.1101 136.39C60.5801 136.39 64.6601 131.74 64.6601 126.67ZM59.2301 132.7C58.3601 134.62 57.4601 135.52 56.3801 135.52C55.4801 135.52 54.9101 134.83 54.9101 133.66C54.9101 131.38 55.9601 127.15 56.9801 125.26C57.7901 123.76 58.6901 123.01 59.6801 123.01C60.5501 123.01 61.0901 123.67 61.0901 124.75C61.0901 126.76 60.2201 130.54 59.2301 132.7Z" fill="#1C1B1B"/>
<path d="M137.38 339.31L136.54 338.77C135.1 340.78 134.17 341.47 132.88 341.47C131.56 341.47 130.69 340.39 130.69 338.8C130.69 336.91 131.47 334.21 132.55 332.26C133.36 330.85 134.2 330.13 135.13 330.13C135.49 330.13 135.79 330.34 135.79 330.64C135.79 330.76 135.73 330.94 135.55 331.21C135.28 331.69 135.16 332.02 135.16 332.38C135.16 333.28 135.88 333.94 136.9 333.94C138.01 333.94 138.76 333.1 138.76 331.84C138.76 330.25 137.41 329.14 135.4 329.14C131.17 329.14 126.85 334.06 126.85 338.86C126.85 341.53 128.71 343.39 131.44 343.39C132.76 343.39 134.05 342.91 135.07 342.04C135.85 341.38 136.33 340.81 137.38 339.31ZM152.81 324.46C152.81 322.99 151.67 322.06 149.84 322.06C148.28 322.06 146.84 322.69 145.76 323.89C144.5 325.27 143.93 326.5 143.06 329.53H140.87L140.6 330.79H142.79L140.15 342.55C139.22 346.99 138.65 348.22 137.45 348.22C137.15 348.22 136.91 348.07 136.91 347.89C136.91 347.89 136.97 347.74 137.03 347.62C137.27 347.26 137.39 346.93 137.39 346.6C137.39 345.88 136.67 345.16 135.89 345.16C135.08 345.16 134.36 345.91 134.36 346.78C134.36 348.22 135.53 349.15 137.33 349.15C138.65 349.15 139.79 348.7 140.75 347.77C141.83 346.72 142.52 345.37 143.45 342.61C144.26 340.18 144.62 338.74 146.3 330.79H149L149.27 329.53H146.51L147.05 327.4C147.8 324.43 148.7 322.93 149.78 322.93C150.08 322.93 150.29 323.08 150.29 323.32C150.29 323.32 150.26 323.47 150.14 323.65C149.9 324.01 149.81 324.28 149.81 324.58C149.81 325.42 150.44 326.05 151.28 326.05C152.18 326.05 152.81 325.39 152.81 324.46Z" fill="#1C1B1B"/>
<path d="M131.5 462.72C130.9 462.72 130.39 462.51 129.97 462.09C129.55 461.67 129.34 461.16 129.34 460.56V434.82C129.34 434.22 129.55 433.71 129.97 433.29C130.39 432.87 130.9 432.66 131.5 432.66H140.5C141.1 432.66 141.61 432.87 142.03 433.29C142.45 433.71 142.66 434.22 142.66 434.82C142.66 435.42 142.45 435.93 142.03 436.35C141.61 436.77 141.1 436.98 140.5 436.98H133.66V445.08H139.6C140.2 445.08 140.71 445.29 141.13 445.71C141.55 446.13 141.76 446.64 141.76 447.24C141.76 447.84 141.55 448.35 141.13 448.77C140.71 449.19 140.2 449.4 139.6 449.4H133.66V460.56C133.66 461.16 133.45 461.67 133.03 462.09C132.61 462.51 132.1 462.72 131.5 462.72ZM147.716 462.9C147.116 462.9 146.606 462.69 146.186 462.27C145.766 461.85 145.556 461.34 145.556 460.74V434.64C145.556 434.04 145.766 433.53 146.186 433.11C146.606 432.69 147.116 432.48 147.716 432.48C148.316 432.48 148.826 432.69 149.246 433.11C149.666 433.53 149.876 434.04 149.876 434.64V460.74C149.876 461.34 149.666 461.85 149.246 462.27C148.826 462.69 148.316 462.9 147.716 462.9ZM166.985 445.98C167.585 445.98 168.095 446.19 168.515 446.61C168.935 447.03 169.145 447.54 169.145 448.14V455.34C169.145 456.39 168.95 457.38 168.56 458.31C168.17 459.21 167.63 460.005 166.94 460.695C166.25 461.385 165.44 461.925 164.51 462.315C163.61 462.705 162.635 462.9 161.585 462.9C160.535 462.9 159.545 462.705 158.615 462.315C157.715 461.925 156.92 461.385 156.23 460.695C155.57 460.005 155.03 459.21 154.61 458.31C154.22 457.38 154.025 456.39 154.025 455.34V440.04C154.025 439.2 154.16 438.39 154.43 437.61C154.7 436.8 155.075 436.08 155.555 435.45C156.065 434.79 156.665 434.235 157.355 433.785C158.045 433.305 158.81 432.96 159.65 432.75C160.46 432.54 161.285 432.465 162.125 432.525C162.965 432.555 163.76 432.735 164.51 433.065C165.26 433.365 165.95 433.785 166.58 434.325C167.21 434.865 167.735 435.51 168.155 436.26C168.455 436.77 168.515 437.31 168.335 437.88C168.185 438.45 167.855 438.9 167.345 439.23C166.835 439.53 166.295 439.605 165.725 439.455C165.155 439.275 164.72 438.93 164.42 438.42C164.03 437.79 163.49 437.34 162.8 437.07C162.14 436.77 161.465 436.725 160.775 436.935C160.055 437.115 159.47 437.505 159.02 438.105C158.57 438.675 158.345 439.32 158.345 440.04V455.34C158.345 456.24 158.66 457.005 159.29 457.635C159.95 458.265 160.715 458.58 161.585 458.58C162.485 458.58 163.25 458.265 163.88 457.635C164.51 457.005 164.825 456.24 164.825 455.34V450.3H162.485C161.885 450.3 161.375 450.09 160.955 449.67C160.535 449.25 160.325 448.74 160.325 448.14C160.325 447.54 160.535 447.03 160.955 446.61C161.375 446.19 161.885 445.98 162.485 445.98H166.985ZM172.48 460.29C172.48 459.57 172.735 458.955 173.245 458.445C173.755 457.935 174.37 457.68 175.09 457.68C175.81 457.68 176.425 457.935 176.935 458.445C177.445 458.955 177.7 459.57 177.7 460.29C177.7 461.01 177.445 461.625 176.935 462.135C176.425 462.645 175.81 462.9 175.09 462.9C174.37 462.9 173.755 462.645 173.245 462.135C172.735 461.625 172.48 461.01 172.48 460.29ZM186.807 462.63C185.997 462.42 185.247 462.09 184.557 461.64C183.867 461.16 183.267 460.605 182.757 459.975C182.277 459.315 181.902 458.595 181.632 457.815C181.362 457.035 181.227 456.21 181.227 455.34V440.04C181.227 439.2 181.362 438.39 181.632 437.61C181.902 436.8 182.277 436.08 182.757 435.45C183.267 434.79 183.867 434.235 184.557 433.785C185.247 433.305 185.997 432.96 186.807 432.75C188.487 432.3 190.107 432.405 191.667 433.065C193.227 433.695 194.442 434.76 195.312 436.26C195.642 436.77 195.717 437.31 195.537 437.88C195.387 438.45 195.057 438.9 194.547 439.23C194.037 439.53 193.497 439.605 192.927 439.455C192.357 439.275 191.907 438.93 191.577 438.42C191.217 437.79 190.692 437.34 190.002 437.07C189.342 436.77 188.652 436.725 187.932 436.935C187.242 437.115 186.672 437.505 186.222 438.105C185.772 438.675 185.547 439.32 185.547 440.04V455.34C185.547 456.09 185.772 456.75 186.222 457.32C186.672 457.89 187.242 458.28 187.932 458.49C188.652 458.67 189.342 458.625 190.002 458.355C190.692 458.055 191.217 457.59 191.577 456.96C191.907 456.45 192.357 456.12 192.927 455.97C193.497 455.79 194.037 455.85 194.547 456.15C195.057 456.48 195.387 456.93 195.537 457.5C195.717 458.07 195.642 458.61 195.312 459.12C194.442 460.62 193.227 461.685 191.667 462.315C190.107 462.975 188.487 463.08 186.807 462.63ZM199.081 434.82C199.081 434.22 199.291 433.71 199.711 433.29C200.131 432.87 200.641 432.66 201.241 432.66H210.241C210.841 432.66 211.351 432.87 211.771 433.29C212.191 433.71 212.401 434.22 212.401 434.82C212.401 435.42 212.191 435.93 211.771 436.35C211.351 436.77 210.841 436.98 210.241 436.98H203.401V445.08H209.341C209.941 445.08 210.451 445.29 210.871 445.71C211.291 446.13 211.501 446.64 211.501 447.24C211.501 447.84 211.291 448.35 210.871 448.77C210.451 449.19 209.941 449.4 209.341 449.4H203.401V458.4H210.241C210.841 458.4 211.351 458.61 211.771 459.03C212.191 459.45 212.401 459.96 212.401 460.56C212.401 461.16 212.191 461.67 211.771 462.09C211.351 462.51 210.841 462.72 210.241 462.72H201.241C200.641 462.72 200.131 462.51 199.711 462.09C199.291 461.67 199.081 461.16 199.081 460.56V434.82Z" fill="#1C1B1B"/>
</svg>
