<svg width="840" height="424" viewBox="0 0 840 424" fill="none" xmlns="http://www.w3.org/2000/svg">
<g clip-path="url(#clip0)">
<path fill-rule="evenodd" clip-rule="evenodd" d="M500.988 243.44C507.727 240.231 511.938 235.905 514.77 230.894C517.979 225.218 519.39 218.697 520.802 212.174C520.936 211.554 521.07 210.934 521.206 210.314C522.783 203.119 524.577 195.943 528.874 189.478C533.151 183.043 539.964 177.234 551.717 172.924L551.028 171.046C538.935 175.481 531.754 181.533 527.209 188.371C522.684 195.179 520.83 202.688 519.252 209.886C519.119 210.496 518.987 211.103 518.856 211.706C517.429 218.291 516.08 224.513 513.029 229.909C510.422 234.522 506.548 238.559 500.21 241.596L499.634 240.229L487.945 247.731L501.476 244.598L500.988 243.44Z" fill="#1C1B1B"/>
<path fill-rule="evenodd" clip-rule="evenodd" d="M279.013 394.582C285.245 377.728 291.209 365.788 299.966 357.022C308.647 348.332 319.981 342.849 336.769 338.663L336.582 337.09L350.239 337.822L337.132 341.726L337.006 340.665C320.546 344.796 309.667 350.141 301.381 358.435C292.943 366.883 287.1 378.479 280.889 395.275L279.013 394.582Z" fill="#1C1B1B"/>
<path d="M339.001 28L309.967 28L309.967 86.0946" stroke="#1C1B1B" stroke-width="2"/>
<path d="M309.957 97.9839L312.517 81.7715L307.396 81.7715L309.957 97.9839Z" fill="#1C1B1B"/>
<path d="M276.38 407.77C276.38 405.55 275.12 404.14 273.14 404.14C271.43 404.14 270.11 405.1 268.34 407.59L269.48 404.14L263.69 404.98V405.79C265.04 405.85 265.31 405.97 265.31 406.54C265.31 406.84 265.07 407.92 264.65 409.48L261.65 421.12C261.08 423.1 260.84 423.37 259.4 423.34V424.15H266.87V423.34C265.37 423.31 264.92 423.1 264.92 422.38C264.92 421.96 265.13 421.06 265.7 418.96C265.91 418.24 265.91 418.18 266.03 417.73C267.08 418.27 267.44 418.39 268.07 418.39C272.15 418.39 276.38 412.96 276.38 407.77ZM272.63 407.98C272.51 409.96 271.55 412.93 270.47 414.88C269.54 416.5 268.58 417.34 267.56 417.34C266.9 417.34 266.39 416.86 266.39 416.26C266.39 415.75 266.72 414.52 267.53 411.79C268.19 409.6 268.46 408.85 268.91 408.16C269.66 406.99 270.68 406.21 271.46 406.27C272.24 406.33 272.69 407.02 272.63 407.98ZM290.75 414.64L290.12 414.19C288.89 415.84 288.44 416.29 287.96 416.29C287.72 416.29 287.6 416.11 287.6 415.84C287.6 415.09 287.87 413.86 288.62 411.4L290.75 404.32L287.42 404.53L286.88 406.3C286.61 404.77 285.95 404.14 284.66 404.14C280.97 404.14 276.47 409.9 276.47 414.58C276.47 416.86 277.76 418.39 279.71 418.39C281.54 418.39 282.92 417.31 284.63 414.43C284.27 415.66 284.21 416.02 284.21 416.44C284.21 417.55 285.11 418.42 286.22 418.42C287.63 418.42 289.01 417.25 290.75 414.64ZM286.19 406.81C286.19 408.61 285.2 411.94 284.03 414.01C283.22 415.48 282.32 416.26 281.51 416.26C280.73 416.26 280.16 415.57 280.16 414.64C280.16 413.08 281.15 410.08 282.38 407.86C283.28 406.27 284.27 405.34 285.08 405.4C285.74 405.46 286.19 406 286.19 406.81Z" fill="#1C1B1B"/>
<path d="M359.38 28.31L358.54 27.77C357.1 29.78 356.17 30.47 354.88 30.47C353.56 30.47 352.69 29.39 352.69 27.8C352.69 25.91 353.47 23.21 354.55 21.26C355.36 19.85 356.2 19.13 357.13 19.13C357.49 19.13 357.79 19.34 357.79 19.64C357.79 19.76 357.73 19.94 357.55 20.21C357.28 20.69 357.16 21.02 357.16 21.38C357.16 22.28 357.88 22.94 358.9 22.94C360.01 22.94 360.76 22.1 360.76 20.84C360.76 19.25 359.41 18.14 357.4 18.14C353.17 18.14 348.85 23.06 348.85 27.86C348.85 30.53 350.71 32.39 353.44 32.39C354.76 32.39 356.05 31.91 357.07 31.04C357.85 30.38 358.33 29.81 359.38 28.31Z" fill="#1C1B1B"/>
<path d="M572.37 167.43C572.37 166.08 571.62 164.61 569.94 162.66C568.77 161.31 568.26 160.41 568.26 159.72C568.26 158.76 568.89 158.13 569.85 158.13C571.23 158.13 572.01 159.21 572.49 161.7L573.3 161.76L573.99 157.17H573.12C572.79 157.74 572.7 157.8 572.25 157.8C571.95 157.8 571.71 157.74 571.17 157.53C570.42 157.23 570.03 157.14 569.43 157.14C567 157.14 565.41 158.61 565.41 160.92C565.41 162.54 565.83 163.38 567.81 165.75C568.95 167.1 569.49 168.12 569.49 168.87C569.49 169.77 568.74 170.49 567.78 170.49C566.25 170.49 565.29 169.17 564.9 166.5L564.09 166.41L563.43 171.39H564.24C564.36 171.03 564.72 170.79 565.11 170.79C565.32 170.79 565.65 170.88 566.04 171.03C566.76 171.27 567.3 171.39 567.93 171.39C570.48 171.39 572.37 169.68 572.37 167.43ZM583.13 167.43C583.13 166.08 582.38 164.61 580.7 162.66C579.53 161.31 579.02 160.41 579.02 159.72C579.02 158.76 579.65 158.13 580.61 158.13C581.99 158.13 582.77 159.21 583.25 161.7L584.06 161.76L584.75 157.17H583.88C583.55 157.74 583.46 157.8 583.01 157.8C582.71 157.8 582.47 157.74 581.93 157.53C581.18 157.23 580.79 157.14 580.19 157.14C577.76 157.14 576.17 158.61 576.17 160.92C576.17 162.54 576.59 163.38 578.57 165.75C579.71 167.1 580.25 168.12 580.25 168.87C580.25 169.77 579.5 170.49 578.54 170.49C577.01 170.49 576.05 169.17 575.66 166.5L574.85 166.41L574.19 171.39H575C575.12 171.03 575.48 170.79 575.87 170.79C576.08 170.79 576.41 170.88 576.8 171.03C577.52 171.27 578.06 171.39 578.69 171.39C581.24 171.39 583.13 169.68 583.13 167.43Z" fill="#1C1B1B"/>
</g>
<defs>
<clipPath id="clip0">
<rect width="840" height="424" fill="white"/>
</clipPath>
</defs>
</svg>
