<svg width="429" height="170" viewBox="0 0 429 170" fill="none" xmlns="http://www.w3.org/2000/svg">
<path d="M44.17 137.96L43.4 136.63C38.85 146.22 38.08 146.64 26.04 146.57H12.81L14.7 144.75C18.41 141.32 18.9 140.41 20.65 133.13C22.68 124.45 23.66 120.6 24.57 117.87C25.62 114.93 27.44 113.6 30.38 113.6C31.29 113.6 31.92 113.6 34.51 113.74L37.24 109.82C35.84 109.68 35.14 109.61 34.16 109.61C32.83 109.61 31.64 109.75 30.45 110.03C28.56 110.52 25.2 112.9 22.4 115.7C18.97 119.2 17.78 122.42 15.05 135.44C13.16 144.4 11.34 146.99 6.93 146.99C6.37 146.99 5.53 146.99 4.76 146.92C3.78 147.9 3.36 148.39 2.31 149.72L9.17 149.51L19.88 149.86L33.67 150.42C37.31 150.42 38.85 149.65 40.11 147.06C40.95 145.45 43.12 140.62 44.17 137.96ZM74.9755 143.07V141.04C73.6455 141.88 69.0255 145.17 67.9055 145.17C67.2055 145.17 67.0655 144.26 67.0655 143.63C67.0655 141.04 70.2155 128.23 71.0555 124.8C71.3355 124.38 72.7355 122.63 73.0855 122.28C70.7055 121.65 67.6255 121.23 64.8255 121.23C60.1355 121.23 59.6455 121.72 56.4255 123.96C54.5355 125.29 52.7855 126.06 51.4555 128.16C47.9555 133.62 46.6255 140.69 46.6255 145.1C46.6255 147.2 47.1855 150.98 49.6355 150.98C52.2255 150.98 58.5255 145.73 62.1655 143.21L61.6755 146.36C61.2555 148.74 60.8355 150.91 62.5155 150.91C64.2655 150.91 72.9455 144.54 74.9755 143.07ZM62.5855 140.48C60.4855 142.02 55.8655 145.8 54.0455 145.8C52.2255 145.8 51.8755 143.91 51.8755 142.23C51.8755 137.75 53.2755 132.64 55.0955 129.07C56.2855 126.62 57.4055 124.59 60.5555 124.59C62.3055 124.59 64.4755 125.08 66.2255 125.43L62.5855 140.48ZM118.211 140.62L117.651 139.01C113.171 144.68 112.681 145.17 110.791 145.17C110.441 145.17 109.951 145.1 109.321 144.96L96.7909 142.93L105.401 134.95L111.631 129.14L115.131 125.85C117.161 122.77 118.001 120.39 118.001 117.31C118.001 112.83 115.131 109.96 110.791 109.96C107.221 109.96 103.511 111.29 100.641 113.67C98.1209 115.63 96.7909 118.15 96.7909 121.02C96.7909 121.58 96.8609 121.93 97.0009 122.7L101.971 123.26C101.341 121.37 101.131 120.39 101.131 119.13C101.131 115.28 103.441 112.76 106.941 112.76C110.231 112.76 112.611 115.63 112.611 119.62C112.611 121.79 111.911 124.24 110.791 125.99C109.321 128.37 107.571 130.26 102.181 135.3C93.1509 143.77 92.1009 144.82 88.6709 149.16L88.9509 151.19C91.9609 147.9 92.8009 147.34 94.5509 147.34C95.2509 147.34 96.1609 147.48 97.2809 147.76C102.461 148.95 109.321 150.21 110.441 150.21C111.001 150.21 111.351 150.14 112.051 149.86L118.211 140.62ZM154.081 111.01C150.511 111.29 146.591 111.36 141.761 111.36C134.131 111.36 134.061 111.36 133.711 107.23H132.661L131.961 109.05C130.631 112.69 130.561 112.76 129.651 115.56L129.861 115.98C132.241 116.12 133.361 116.19 135.181 116.19C138.681 116.19 143.161 115.98 148.901 115.56C135.321 132.29 132.451 136.21 128.251 143.77C127.831 145.24 127.761 146.01 127.761 147.34C127.761 148.39 127.831 149.3 128.041 151.26L134.341 149.3C133.991 147.06 133.851 146.01 133.851 144.68C133.851 138.94 135.741 135.65 148.551 118.85C151.561 114.86 151.911 114.3 154.081 111.01ZM173.781 142.58V140.55C171.191 142.65 166.221 146.92 162.651 146.92C158.731 146.92 158.381 142.72 158.451 139.99C160.061 139.22 166.921 134.04 168.321 132.99C170.911 130.89 172.801 128.65 172.801 125.36C172.801 123.05 171.401 121.3 168.811 121.3C166.291 121.3 164.121 122.56 161.601 124.52C155.441 129.28 153.271 137.12 153.271 143.7C153.271 147.97 155.021 150.98 159.291 150.98C164.681 150.98 170.911 145.45 173.781 142.58ZM167.621 127.32C167.621 132.36 161.881 135.23 158.521 137.82C158.801 134.32 161.461 124.38 165.451 124.38C166.991 124.38 167.621 125.78 167.621 127.32ZM172.101 117.24C171.261 114.09 170.281 109.68 170.421 104.01L165.101 105.55C167.761 111.01 168.391 112.55 170.211 117.66L172.101 117.24ZM219.34 143.07V141.46C218.64 141.81 217.87 142.3 216.96 142.93C214.44 144.54 213.25 145.1 212.41 145.1C211.64 145.1 211.15 144.4 211.15 143.21C211.15 141.67 212.06 137.68 213.46 132.78C215.56 125.57 216.12 123.33 216.12 122.28C216.12 121.58 215.7 121.23 215 121.23C213.74 121.23 209.4 123.47 200.86 128.51C201.07 127.74 201.14 127.18 201.21 126.9C202.05 123.4 202.26 122.42 202.26 122C202.26 121.51 201.91 121.23 201.35 121.23C200.3 121.23 196.66 123.19 189.66 127.67L187.42 129.07C188.68 123.96 188.96 122.7 188.96 122.21C188.96 121.65 188.54 121.23 187.91 121.23C187.07 121.23 181.54 124.24 176.99 127.11L176.5 129.07C180.35 127.18 180.91 126.97 181.68 126.97C182.31 126.97 182.73 127.53 182.73 128.3C182.73 129.42 180.21 139.78 177.27 150.7L182.24 148.81L186.72 131.8C191.41 128.65 194.28 126.97 195.19 126.97C195.75 126.97 196.1 127.6 196.1 128.51C196.1 130.61 193.44 141.25 190.5 150.7L195.82 148.81L200.16 131.31C204.22 128.72 208 126.62 208.84 126.62C209.4 126.62 209.75 127.11 209.75 127.95C209.75 129.49 209.12 132.36 207.23 139.85C206.11 144.19 205.76 145.94 205.76 147.55C205.76 149.02 206.18 149.79 207.44 150.7C211.57 148.67 215.07 146.43 219.34 143.07ZM240.978 142.58V140.55C238.388 142.65 233.418 146.92 229.848 146.92C225.928 146.92 225.578 142.72 225.648 139.99C227.258 139.22 234.118 134.04 235.518 132.99C238.108 130.89 239.998 128.65 239.998 125.36C239.998 123.05 238.598 121.3 236.008 121.3C233.488 121.3 231.318 122.56 228.798 124.52C222.638 129.28 220.468 137.12 220.468 143.7C220.468 147.97 222.218 150.98 226.488 150.98C231.878 150.98 238.108 145.45 240.978 142.58ZM234.818 127.32C234.818 132.36 229.078 135.23 225.718 137.82C225.998 134.32 228.658 124.38 232.648 124.38C234.188 124.38 234.818 125.78 234.818 127.32ZM311.228 157.21L307.798 152.94C305.558 157.07 303.598 158.68 300.868 158.68C297.578 158.68 294.428 155.18 291.558 148.25C289.738 143.91 287.568 137.4 284.698 128.3C288.688 127.04 290.298 126.27 292.468 124.87C295.758 122.63 297.648 119.41 297.648 116.05C297.648 111.71 294.148 109.33 287.778 109.33L283.718 109.47L284.278 107.23L277.908 110.24C266.428 112.2 260.338 117.52 260.338 125.71C260.338 127.53 260.548 128.72 261.318 131.31L267.198 128.3C266.638 125.92 266.428 124.73 266.428 123.12C266.428 119.76 267.478 117.1 269.648 115.07C271.608 113.32 273.568 112.55 278.048 111.99L277.418 114.51L276.228 119.41L272.728 133.27C269.788 145.1 267.898 146.92 258.798 146.85L256.068 149.93L260.198 150C263.838 150 270.138 149.86 272.238 149.72L277.418 147.06L268.178 146.85C276.088 138.94 276.508 138.31 278.748 129.42L278.888 129.35C279.658 129.28 280.078 129.91 280.498 131.66C283.158 143.35 285.468 150 288.338 154.27C291.348 158.75 295.478 160.92 301.008 160.92C304.928 160.92 307.308 160.08 311.228 157.21ZM291.558 116.89C291.558 120.39 289.668 123.75 286.728 125.57C284.628 126.83 282.948 127.32 279.168 127.81L283.228 111.43H285.398C289.738 111.43 291.558 113.04 291.558 116.89ZM322.121 142.58V140.55C319.531 142.65 314.561 146.92 310.991 146.92C307.071 146.92 306.721 142.72 306.791 139.99C308.401 139.22 315.261 134.04 316.661 132.99C319.251 130.89 321.141 128.65 321.141 125.36C321.141 123.05 319.741 121.3 317.151 121.3C314.631 121.3 312.461 122.56 309.941 124.52C303.781 129.28 301.611 137.12 301.611 143.7C301.611 147.97 303.361 150.98 307.631 150.98C313.021 150.98 319.251 145.45 322.121 142.58ZM315.961 127.32C315.961 132.36 310.221 135.23 306.861 137.82C307.141 134.32 309.801 124.38 313.791 124.38C315.331 124.38 315.961 125.78 315.961 127.32ZM352.84 121.3L344.72 121.44C340.45 121.51 339.26 121.72 337.16 122.98C333.8 125.08 331.42 127.04 329.95 128.93C327.85 131.66 325.33 140.13 325.33 144.4C325.33 146.15 325.75 147.41 326.87 148.95L318.82 155.88C315.32 158.96 313.71 161.27 313.71 163.23C313.71 165.82 316.79 167.29 322.11 167.29C328.55 167.29 333.59 165.47 338.28 161.41C341.29 158.82 341.99 157.35 343.46 150.42L346.96 134.67C347.24 133.13 347.59 131.8 347.87 130.68L348.92 126.76C349.06 126.13 349.2 125.64 349.27 125.22C350.53 124.87 350.6 124.87 352.84 121.3ZM337.79 153.85C336.88 158.05 336.25 159.66 334.99 160.99C333.45 162.74 330.58 163.65 326.45 163.65C321.9 163.65 319.45 162.39 319.45 160.15C319.45 157.28 321.34 155.53 340.8 140.62L337.79 153.85ZM348.22 125.15C347.87 125.43 347.45 125.78 347.1 125.99C344.86 127.6 344.37 128.23 343.74 129.91L341.43 138.1C340.03 139.01 338.35 140.27 332.47 144.68C331.21 143.42 330.72 142.3 330.72 140.62C330.72 138.24 332.4 132.15 333.87 128.79C335.27 125.92 336.74 125.22 341.85 125.22C342.34 125.22 343.18 125.22 344.09 125.15H345.98C346.75 125.15 347.45 125.15 348.22 125.15ZM368.757 143.7L369.037 141.6C365.607 143.7 362.177 145.45 361.547 145.45C360.777 145.45 360.217 144.61 360.217 143.49C360.217 140.97 361.057 138.31 361.687 135.65L363.857 126.76C364.207 125.29 364.767 123.05 364.767 122.21C364.767 121.65 364.557 121.3 363.927 121.3C362.317 121.3 355.037 126.06 352.937 127.46L352.867 129.49C354.477 128.58 356.997 126.9 357.977 126.9C358.747 126.9 358.817 127.67 358.817 128.3C358.817 129.84 357.277 135.02 356.507 138.24C355.737 141.46 354.477 144.75 354.477 147.9C354.477 149.72 355.177 150.84 356.297 150.84C357.487 150.84 358.747 150.21 362.807 147.55C363.927 146.78 364.487 146.36 368.757 143.7ZM369.247 111.22C367.987 109.19 367.917 108.98 367.217 107.37C367.147 107.09 367.007 106.74 366.867 106.46C366.447 106.81 366.167 107.02 365.887 107.23C363.997 108.84 363.857 108.91 362.037 110.17C362.597 111.85 363.087 112.69 364.697 115.07L367.007 112.97C367.427 112.69 367.637 112.48 369.247 111.22ZM395.444 127.67C395.444 123.89 392.854 121.23 389.144 121.23C386.344 121.23 381.864 123.26 377.734 126.34C373.254 129.7 370.104 136.98 370.104 143.91C370.104 148.18 372.484 150.91 376.194 150.91C378.154 150.91 380.114 150.21 383.334 148.53C386.834 146.57 389.144 144.82 390.404 143.14C393.204 139.36 395.444 132.5 395.444 127.67ZM390.054 131.45C390.054 134.39 389.074 138.03 387.324 141.46C385.364 145.45 382.844 147.62 380.184 147.62C377.314 147.62 375.494 145.03 375.494 141.04C375.494 132.92 380.604 124.52 385.504 124.52C388.304 124.52 390.054 127.25 390.054 131.45ZM428.441 141.04C421.441 145.03 421.161 145.17 420.461 145.17C419.761 145.17 419.341 144.4 419.341 143.28C419.341 141.81 419.831 139.5 421.161 134.67C424.451 122.91 424.451 122.91 424.451 122.42C424.451 121.65 423.961 121.23 423.051 121.23C422.001 121.23 420.461 121.86 417.941 123.47L408.351 129.42C408.981 127.11 410.031 122.7 410.031 122.14C410.031 121.65 409.611 121.23 409.121 121.23C408.351 121.23 403.311 123.82 398.131 126.9L397.711 128.72C402.191 126.69 402.471 126.62 403.101 126.62C403.591 126.62 403.941 127.04 403.941 127.6C403.941 129.07 402.611 134.88 400.861 141.25L399.251 146.92L398.271 150.7L403.521 148.67L407.651 132.22C416.401 126.69 416.611 126.62 417.591 126.62C418.081 126.62 418.361 126.97 418.361 127.53C418.361 128.58 417.801 131.24 415.771 139.22C414.231 145.45 413.951 146.64 413.951 147.97C413.951 148.95 414.231 149.86 415.001 151.12C418.221 149.65 423.051 146.64 427.951 143L428.441 141.04Z" fill="#1C1B1B"/>
<path d="M52.3008 106.64C51.7674 106.64 51.3141 106.453 50.9408 106.08C50.5674 105.707 50.3808 105.253 50.3808 104.72V81.68C50.3808 81.1467 50.5674 80.6933 50.9408 80.32C51.3141 79.9467 51.7674 79.76 52.3008 79.76C52.8341 79.76 53.2874 79.9467 53.6608 80.32C54.0341 80.6933 54.2208 81.1467 54.2208 81.68V102.8H60.3008C60.8341 102.8 61.2874 102.987 61.6608 103.36C62.0341 103.733 62.2208 104.187 62.2208 104.72C62.2208 105.253 62.0341 105.707 61.6608 106.08C61.2874 106.453 60.8341 106.64 60.3008 106.64H52.3008ZM79.087 104.36C79.2204 104.893 79.1537 105.387 78.887 105.84C78.647 106.293 78.2737 106.587 77.767 106.72C77.2337 106.853 76.7404 106.787 76.287 106.52C75.8337 106.28 75.5404 105.907 75.407 105.4C75.3004 105.08 75.1937 104.693 75.087 104.24C74.9804 103.867 74.847 103.427 74.687 102.92C74.5537 102.387 74.407 101.813 74.247 101.2H67.447C67.2604 101.813 67.1004 102.387 66.967 102.92C66.8337 103.427 66.7137 103.867 66.607 104.24C66.5004 104.693 66.3937 105.08 66.287 105.4C66.1537 105.907 65.8604 106.28 65.407 106.52C64.9537 106.787 64.4604 106.853 63.927 106.72C63.4204 106.587 63.0337 106.293 62.767 105.84C62.527 105.387 62.4737 104.893 62.607 104.36L69.007 81.16C69.1137 80.7333 69.327 80.4 69.647 80.16C69.9937 79.8933 70.3937 79.76 70.847 79.76C71.3004 79.76 71.687 79.8933 72.007 80.16C72.3537 80.4 72.5804 80.7333 72.687 81.16L79.087 104.36ZM73.167 97.36C72.7937 95.9733 72.407 94.5467 72.007 93.08C71.607 91.6133 71.2204 90.2267 70.847 88.92C70.4737 90.2267 70.087 91.6133 69.687 93.08C69.287 94.5467 68.9004 95.9733 68.527 97.36H73.167ZM99.968 79.92C100.501 79.92 100.955 80.1067 101.328 80.48C101.701 80.8533 101.888 81.3067 101.888 81.84C101.888 82.3733 101.701 82.8267 101.328 83.2C100.955 83.5733 100.501 83.76 99.968 83.76H96.688V104.88C96.688 105.413 96.5013 105.867 96.128 106.24C95.7546 106.613 95.3013 106.8 94.768 106.8C94.2346 106.8 93.7813 106.613 93.408 106.24C93.0346 105.867 92.848 105.413 92.848 104.88V83.76H89.568C89.0346 83.76 88.5813 83.5733 88.208 83.2C87.8346 82.8267 87.648 82.3733 87.648 81.84C87.648 81.3067 87.8346 80.8533 88.208 80.48C88.5813 80.1067 89.0346 79.92 89.568 79.92H99.968ZM117.883 88.88C117.883 90.1867 117.55 91.3733 116.883 92.44C116.243 93.48 115.377 94.28 114.283 94.84L117.763 104.2C117.977 104.707 117.963 105.2 117.723 105.68C117.51 106.16 117.15 106.493 116.643 106.68C116.137 106.867 115.643 106.853 115.163 106.64C114.71 106.427 114.377 106.067 114.163 105.56L110.443 95.6H108.283V104.88C108.283 105.413 108.097 105.867 107.723 106.24C107.35 106.613 106.897 106.8 106.363 106.8C105.83 106.8 105.377 106.613 105.003 106.24C104.63 105.867 104.443 105.413 104.443 104.88V81.84C104.443 81.3067 104.63 80.8533 105.003 80.48C105.377 80.1067 105.83 79.92 106.363 79.92H111.163C112.097 79.92 112.963 80.0933 113.763 80.44C114.59 80.7867 115.31 81.2667 115.923 81.88C116.537 82.4933 117.017 83.2133 117.363 84.04C117.71 84.84 117.883 85.7067 117.883 86.64V88.88ZM108.283 91.76H111.163C111.963 91.76 112.643 91.48 113.203 90.92C113.763 90.36 114.043 89.68 114.043 88.88V86.64C114.043 85.84 113.763 85.16 113.203 84.6C112.643 84.04 111.963 83.76 111.163 83.76H108.283V91.76ZM135.884 104.36C136.017 104.893 135.951 105.387 135.684 105.84C135.444 106.293 135.071 106.587 134.564 106.72C134.031 106.853 133.537 106.787 133.084 106.52C132.631 106.28 132.337 105.907 132.204 105.4C132.097 105.08 131.991 104.693 131.884 104.24C131.777 103.867 131.644 103.427 131.484 102.92C131.351 102.387 131.204 101.813 131.044 101.2H124.244C124.057 101.813 123.897 102.387 123.764 102.92C123.631 103.427 123.511 103.867 123.404 104.24C123.297 104.693 123.191 105.08 123.084 105.4C122.951 105.907 122.657 106.28 122.204 106.52C121.751 106.787 121.257 106.853 120.724 106.72C120.217 106.587 119.831 106.293 119.564 105.84C119.324 105.387 119.271 104.893 119.404 104.36L125.804 81.16C125.911 80.7333 126.124 80.4 126.444 80.16C126.791 79.8933 127.191 79.76 127.644 79.76C128.097 79.76 128.484 79.8933 128.804 80.16C129.151 80.4 129.377 80.7333 129.484 81.16L135.884 104.36ZM129.964 97.36C129.591 95.9733 129.204 94.5467 128.804 93.08C128.404 91.6133 128.017 90.2267 127.644 88.92C127.271 90.2267 126.884 91.6133 126.484 93.08C126.084 94.5467 125.697 95.9733 125.324 97.36H129.964ZM151.91 106.76C151.456 106.867 151.03 106.813 150.63 106.6C150.23 106.413 149.936 106.12 149.75 105.72C148.95 104.013 148.11 102.267 147.23 100.48C146.483 98.96 145.656 97.28 144.75 95.44C143.87 93.6 143.016 91.8133 142.19 90.08V104.88C142.19 105.413 142.003 105.867 141.63 106.24C141.256 106.613 140.803 106.8 140.27 106.8C139.736 106.8 139.283 106.613 138.91 106.24C138.536 105.867 138.35 105.413 138.35 104.88V81.68C138.35 81.2267 138.483 80.8267 138.75 80.48C139.016 80.1333 139.376 79.9067 139.83 79.8C140.283 79.6933 140.696 79.7467 141.07 79.96C141.47 80.1467 141.776 80.44 141.99 80.84C142.79 82.5467 143.63 84.2933 144.51 86.08C145.256 87.6 146.07 89.28 146.95 91.12C147.83 92.96 148.696 94.7467 149.55 96.48V81.68C149.55 81.1467 149.736 80.6933 150.11 80.32C150.483 79.9467 150.936 79.76 151.47 79.76C152.003 79.76 152.456 79.9467 152.83 80.32C153.203 80.6933 153.39 81.1467 153.39 81.68V104.88C153.39 105.333 153.243 105.733 152.95 106.08C152.683 106.427 152.336 106.653 151.91 106.76ZM164.728 102.32C165.102 102.053 165.382 101.733 165.568 101.36C165.755 100.987 165.875 100.573 165.928 100.12C166.008 99.2133 165.728 98.4133 165.088 97.72L158.688 91.16C157.995 90.4667 157.488 89.6667 157.168 88.76C156.848 87.8533 156.728 86.92 156.808 85.96C156.888 85 157.155 84.1067 157.608 83.28C158.062 82.4267 158.675 81.7067 159.448 81.12C160.222 80.5333 161.075 80.1333 162.008 79.92C162.968 79.7067 163.915 79.6933 164.848 79.88C165.782 80.0933 166.635 80.48 167.408 81.04C168.208 81.5733 168.848 82.2667 169.328 83.12C169.595 83.5733 169.648 84.0533 169.488 84.56C169.355 85.0667 169.062 85.4667 168.608 85.76C168.155 86.0267 167.675 86.0933 167.168 85.96C166.662 85.8 166.275 85.4933 166.008 85.04C165.555 84.32 164.915 83.8533 164.088 83.64C163.235 83.48 162.462 83.6667 161.768 84.2C161.075 84.7067 160.702 85.4 160.648 86.28C160.568 87.1333 160.835 87.8667 161.448 88.48L167.808 95.04C168.502 95.76 169.022 96.5867 169.368 97.52C169.715 98.4533 169.848 99.4133 169.768 100.4C169.688 101.413 169.408 102.347 168.928 103.2C168.448 104.053 167.822 104.787 167.048 105.4C166.248 106.013 165.368 106.427 164.408 106.64C163.448 106.853 162.475 106.867 161.488 106.68C160.502 106.467 159.608 106.08 158.808 105.52C158.008 104.933 157.368 104.213 156.888 103.36C156.595 102.907 156.515 102.427 156.648 101.92C156.808 101.387 157.115 100.987 157.568 100.72C158.022 100.453 158.502 100.4 159.008 100.56C159.515 100.693 159.915 100.987 160.208 101.44C160.662 102.213 161.342 102.707 162.248 102.92C163.182 103.08 164.008 102.88 164.728 102.32ZM174.762 106.64C174.228 106.64 173.775 106.453 173.402 106.08C173.028 105.707 172.842 105.253 172.842 104.72V81.84C172.842 81.3067 173.028 80.8533 173.402 80.48C173.775 80.1067 174.228 79.92 174.762 79.92H182.762C183.295 79.92 183.748 80.1067 184.122 80.48C184.495 80.8533 184.682 81.3067 184.682 81.84C184.682 82.3733 184.495 82.8267 184.122 83.2C183.748 83.5733 183.295 83.76 182.762 83.76H176.682V90.96H181.962C182.495 90.96 182.948 91.1467 183.322 91.52C183.695 91.8933 183.882 92.3467 183.882 92.88C183.882 93.4133 183.695 93.8667 183.322 94.24C182.948 94.6133 182.495 94.8 181.962 94.8H176.682V104.72C176.682 105.253 176.495 105.707 176.122 106.08C175.748 106.453 175.295 106.64 174.762 106.64ZM193.496 106.8C192.562 106.8 191.682 106.627 190.856 106.28C190.056 105.933 189.349 105.453 188.736 104.84C188.122 104.227 187.642 103.52 187.296 102.72C186.949 101.893 186.776 101.013 186.776 100.08V86.48C186.776 85.5467 186.949 84.68 187.296 83.88C187.642 83.0533 188.122 82.3333 188.736 81.72C189.349 81.1067 190.056 80.6267 190.856 80.28C191.682 79.9333 192.562 79.76 193.496 79.76C194.429 79.76 195.296 79.9333 196.096 80.28C196.922 80.6267 197.642 81.1067 198.256 81.72C198.869 82.3333 199.349 83.0533 199.696 83.88C200.042 84.68 200.216 85.5467 200.216 86.48V100.08C200.216 101.013 200.042 101.893 199.696 102.72C199.349 103.52 198.869 104.227 198.256 104.84C197.642 105.453 196.922 105.933 196.096 106.28C195.296 106.627 194.429 106.8 193.496 106.8ZM193.496 83.6C192.696 83.6 192.016 83.88 191.456 84.44C190.896 85 190.616 85.68 190.616 86.48V100.08C190.616 100.88 190.896 101.56 191.456 102.12C192.016 102.68 192.696 102.96 193.496 102.96C194.296 102.96 194.976 102.68 195.536 102.12C196.096 101.56 196.376 100.88 196.376 100.08V86.48C196.376 85.68 196.096 85 195.536 84.44C194.976 83.88 194.296 83.6 193.496 83.6ZM216.072 106.56C215.352 106.373 214.685 106.08 214.072 105.68C213.458 105.253 212.925 104.76 212.472 104.2C212.045 103.613 211.712 102.973 211.472 102.28C211.232 101.587 211.112 100.853 211.112 100.08V86.48C211.112 85.7333 211.232 85.0133 211.472 84.32C211.712 83.6 212.045 82.96 212.472 82.4C212.925 81.8133 213.458 81.32 214.072 80.92C214.685 80.4933 215.352 80.1867 216.072 80C217.565 79.6 219.005 79.6933 220.392 80.28C221.778 80.84 222.858 81.7867 223.632 83.12C223.925 83.5733 223.992 84.0533 223.832 84.56C223.698 85.0667 223.405 85.4667 222.952 85.76C222.498 86.0267 222.018 86.0933 221.512 85.96C221.005 85.8 220.605 85.4933 220.312 85.04C219.992 84.48 219.525 84.08 218.912 83.84C218.325 83.5733 217.712 83.5333 217.072 83.72C216.458 83.88 215.952 84.2267 215.552 84.76C215.152 85.2667 214.952 85.84 214.952 86.48V100.08C214.952 100.747 215.152 101.333 215.552 101.84C215.952 102.347 216.458 102.693 217.072 102.88C217.712 103.04 218.325 103 218.912 102.76C219.525 102.493 219.992 102.08 220.312 101.52C220.605 101.067 221.005 100.773 221.512 100.64C222.018 100.48 222.498 100.533 222.952 100.8C223.405 101.093 223.698 101.493 223.832 102C223.992 102.507 223.925 102.987 223.632 103.44C222.858 104.773 221.778 105.72 220.392 106.28C219.005 106.867 217.565 106.96 216.072 106.56ZM233.222 106.8C232.289 106.8 231.409 106.627 230.582 106.28C229.782 105.933 229.076 105.453 228.462 104.84C227.849 104.227 227.369 103.52 227.022 102.72C226.676 101.893 226.502 101.013 226.502 100.08V86.48C226.502 85.5467 226.676 84.68 227.022 83.88C227.369 83.0533 227.849 82.3333 228.462 81.72C229.076 81.1067 229.782 80.6267 230.582 80.28C231.409 79.9333 232.289 79.76 233.222 79.76C234.156 79.76 235.022 79.9333 235.822 80.28C236.649 80.6267 237.369 81.1067 237.982 81.72C238.596 82.3333 239.076 83.0533 239.422 83.88C239.769 84.68 239.942 85.5467 239.942 86.48V100.08C239.942 101.013 239.769 101.893 239.422 102.72C239.076 103.52 238.596 104.227 237.982 104.84C237.369 105.453 236.649 105.933 235.822 106.28C235.022 106.627 234.156 106.8 233.222 106.8ZM233.222 83.6C232.422 83.6 231.742 83.88 231.182 84.44C230.622 85 230.342 85.68 230.342 86.48V100.08C230.342 100.88 230.622 101.56 231.182 102.12C231.742 102.68 232.422 102.96 233.222 102.96C234.022 102.96 234.702 102.68 235.262 102.12C235.822 101.56 236.102 100.88 236.102 100.08V86.48C236.102 85.68 235.822 85 235.262 84.44C234.702 83.88 234.022 83.6 233.222 83.6ZM250.343 79.92C251.276 79.92 252.143 80.0933 252.943 80.44C253.77 80.7867 254.49 81.2667 255.103 81.88C255.716 82.4933 256.196 83.2133 256.543 84.04C256.89 84.84 257.063 85.7067 257.063 86.64V99.92C257.063 100.853 256.89 101.733 256.543 102.56C256.196 103.36 255.716 104.067 255.103 104.68C254.49 105.293 253.77 105.773 252.943 106.12C252.143 106.467 251.276 106.64 250.343 106.64H245.543C245.01 106.64 244.556 106.453 244.183 106.08C243.81 105.707 243.623 105.253 243.623 104.72V81.84C243.623 81.3067 243.81 80.8533 244.183 80.48C244.556 80.1067 245.01 79.92 245.543 79.92H250.343ZM253.223 86.64C253.223 85.84 252.943 85.16 252.383 84.6C251.823 84.04 251.143 83.76 250.343 83.76H247.463V102.8H250.343C251.143 102.8 251.823 102.52 252.383 101.96C252.943 101.4 253.223 100.72 253.223 99.92V86.64ZM260.732 81.84C260.732 81.3067 260.919 80.8533 261.292 80.48C261.666 80.1067 262.119 79.92 262.652 79.92H270.652C271.186 79.92 271.639 80.1067 272.012 80.48C272.386 80.8533 272.572 81.3067 272.572 81.84C272.572 82.3733 272.386 82.8267 272.012 83.2C271.639 83.5733 271.186 83.76 270.652 83.76H264.572V90.96H269.852C270.386 90.96 270.839 91.1467 271.212 91.52C271.586 91.8933 271.772 92.3467 271.772 92.88C271.772 93.4133 271.586 93.8667 271.212 94.24C270.839 94.6133 270.386 94.8 269.852 94.8H264.572V102.8H270.652C271.186 102.8 271.639 102.987 272.012 103.36C272.386 103.733 272.572 104.187 272.572 104.72C272.572 105.253 272.386 105.707 272.012 106.08C271.639 106.453 271.186 106.64 270.652 106.64H262.652C262.119 106.64 261.666 106.453 261.292 106.08C260.919 105.707 260.732 105.253 260.732 104.72V81.84ZM290.314 102.32C290.688 102.053 290.968 101.733 291.154 101.36C291.341 100.987 291.461 100.573 291.514 100.12C291.594 99.2133 291.314 98.4133 290.674 97.72L284.274 91.16C283.581 90.4667 283.074 89.6667 282.754 88.76C282.434 87.8533 282.314 86.92 282.394 85.96C282.474 85 282.741 84.1067 283.194 83.28C283.648 82.4267 284.261 81.7067 285.034 81.12C285.808 80.5333 286.661 80.1333 287.594 79.92C288.554 79.7067 289.501 79.6933 290.434 79.88C291.368 80.0933 292.221 80.48 292.994 81.04C293.794 81.5733 294.434 82.2667 294.914 83.12C295.181 83.5733 295.234 84.0533 295.074 84.56C294.941 85.0667 294.648 85.4667 294.194 85.76C293.741 86.0267 293.261 86.0933 292.754 85.96C292.248 85.8 291.861 85.4933 291.594 85.04C291.141 84.32 290.501 83.8533 289.674 83.64C288.821 83.48 288.048 83.6667 287.354 84.2C286.661 84.7067 286.288 85.4 286.234 86.28C286.154 87.1333 286.421 87.8667 287.034 88.48L293.394 95.04C294.088 95.76 294.608 96.5867 294.954 97.52C295.301 98.4533 295.434 99.4133 295.354 100.4C295.274 101.413 294.994 102.347 294.514 103.2C294.034 104.053 293.408 104.787 292.634 105.4C291.834 106.013 290.954 106.427 289.994 106.64C289.034 106.853 288.061 106.867 287.074 106.68C286.088 106.467 285.194 106.08 284.394 105.52C283.594 104.933 282.954 104.213 282.474 103.36C282.181 102.907 282.101 102.427 282.234 101.92C282.394 101.387 282.701 100.987 283.154 100.72C283.608 100.453 284.088 100.4 284.594 100.56C285.101 100.693 285.501 100.987 285.794 101.44C286.248 102.213 286.928 102.707 287.834 102.92C288.768 103.08 289.594 102.88 290.314 102.32ZM304.668 106.8C303.734 106.8 302.854 106.627 302.028 106.28C301.228 105.933 300.521 105.453 299.908 104.84C299.294 104.227 298.814 103.52 298.468 102.72C298.121 101.893 297.948 101.013 297.948 100.08V86.48C297.948 85.5467 298.121 84.68 298.468 83.88C298.814 83.0533 299.294 82.3333 299.908 81.72C300.521 81.1067 301.228 80.6267 302.028 80.28C302.854 79.9333 303.734 79.76 304.668 79.76C305.601 79.76 306.468 79.9333 307.268 80.28C308.094 80.6267 308.814 81.1067 309.428 81.72C310.041 82.3333 310.521 83.0533 310.868 83.88C311.214 84.68 311.388 85.5467 311.388 86.48V100.08C311.388 101.013 311.214 101.893 310.868 102.72C310.521 103.52 310.041 104.227 309.428 104.84C308.814 105.453 308.094 105.933 307.268 106.28C306.468 106.627 305.601 106.8 304.668 106.8ZM304.668 83.6C303.868 83.6 303.188 83.88 302.628 84.44C302.068 85 301.788 85.68 301.788 86.48V100.08C301.788 100.88 302.068 101.56 302.628 102.12C303.188 102.68 303.868 102.96 304.668 102.96C305.468 102.96 306.148 102.68 306.708 102.12C307.268 101.56 307.548 100.88 307.548 100.08V86.48C307.548 85.68 307.268 85 306.708 84.44C306.148 83.88 305.468 83.6 304.668 83.6ZM318.588 100.08C318.588 100.88 318.868 101.56 319.428 102.12C319.988 102.68 320.668 102.96 321.468 102.96C322.242 102.96 322.908 102.68 323.468 102.12C324.055 101.56 324.348 100.88 324.348 100.08V81.68C324.348 81.1467 324.535 80.6933 324.908 80.32C325.282 79.9467 325.735 79.76 326.268 79.76C326.802 79.76 327.255 79.9467 327.628 80.32C328.002 80.6933 328.188 81.1467 328.188 81.68V100.08C328.188 101.013 328.002 101.893 327.628 102.72C327.282 103.52 326.802 104.227 326.188 104.84C325.602 105.453 324.895 105.933 324.068 106.28C323.242 106.627 322.375 106.8 321.468 106.8C320.535 106.8 319.655 106.627 318.828 106.28C318.028 105.933 317.322 105.453 316.708 104.84C316.095 104.227 315.615 103.52 315.268 102.72C314.922 101.893 314.748 101.013 314.748 100.08V81.68C314.748 81.1467 314.935 80.6933 315.308 80.32C315.682 79.9467 316.135 79.76 316.668 79.76C317.202 79.76 317.655 79.9467 318.028 80.32C318.402 80.6933 318.588 81.1467 318.588 81.68V100.08ZM345.461 88.88C345.461 90.1867 345.128 91.3733 344.461 92.44C343.821 93.48 342.955 94.28 341.861 94.84L345.341 104.2C345.555 104.707 345.541 105.2 345.301 105.68C345.088 106.16 344.728 106.493 344.221 106.68C343.715 106.867 343.221 106.853 342.741 106.64C342.288 106.427 341.955 106.067 341.741 105.56L338.021 95.6H335.861V104.88C335.861 105.413 335.675 105.867 335.301 106.24C334.928 106.613 334.475 106.8 333.941 106.8C333.408 106.8 332.955 106.613 332.581 106.24C332.208 105.867 332.021 105.413 332.021 104.88V81.84C332.021 81.3067 332.208 80.8533 332.581 80.48C332.955 80.1067 333.408 79.92 333.941 79.92H338.741C339.675 79.92 340.541 80.0933 341.341 80.44C342.168 80.7867 342.888 81.2667 343.501 81.88C344.115 82.4933 344.595 83.2133 344.941 84.04C345.288 84.84 345.461 85.7067 345.461 86.64V88.88ZM335.861 91.76H338.741C339.541 91.76 340.221 91.48 340.781 90.92C341.341 90.36 341.621 89.68 341.621 88.88V86.64C341.621 85.84 341.341 85.16 340.781 84.6C340.221 84.04 339.541 83.76 338.741 83.76H335.861V91.76ZM353.142 106.56C352.422 106.373 351.755 106.08 351.142 105.68C350.529 105.253 349.995 104.76 349.542 104.2C349.115 103.613 348.782 102.973 348.542 102.28C348.302 101.587 348.182 100.853 348.182 100.08V86.48C348.182 85.7333 348.302 85.0133 348.542 84.32C348.782 83.6 349.115 82.96 349.542 82.4C349.995 81.8133 350.529 81.32 351.142 80.92C351.755 80.4933 352.422 80.1867 353.142 80C354.635 79.6 356.075 79.6933 357.462 80.28C358.849 80.84 359.929 81.7867 360.702 83.12C360.995 83.5733 361.062 84.0533 360.902 84.56C360.769 85.0667 360.475 85.4667 360.022 85.76C359.569 86.0267 359.089 86.0933 358.582 85.96C358.075 85.8 357.675 85.4933 357.382 85.04C357.062 84.48 356.595 84.08 355.982 83.84C355.395 83.5733 354.782 83.5333 354.142 83.72C353.529 83.88 353.022 84.2267 352.622 84.76C352.222 85.2667 352.022 85.84 352.022 86.48V100.08C352.022 100.747 352.222 101.333 352.622 101.84C353.022 102.347 353.529 102.693 354.142 102.88C354.782 103.04 355.395 103 355.982 102.76C356.595 102.493 357.062 102.08 357.382 101.52C357.675 101.067 358.075 100.773 358.582 100.64C359.089 100.48 359.569 100.533 360.022 100.8C360.475 101.093 360.769 101.493 360.902 102C361.062 102.507 360.995 102.987 360.702 103.44C359.929 104.773 358.849 105.72 357.462 106.28C356.075 106.867 354.635 106.96 353.142 106.56ZM364.053 81.84C364.053 81.3067 364.239 80.8533 364.613 80.48C364.986 80.1067 365.439 79.92 365.973 79.92H373.973C374.506 79.92 374.959 80.1067 375.333 80.48C375.706 80.8533 375.893 81.3067 375.893 81.84C375.893 82.3733 375.706 82.8267 375.333 83.2C374.959 83.5733 374.506 83.76 373.973 83.76H367.893V90.96H373.173C373.706 90.96 374.159 91.1467 374.533 91.52C374.906 91.8933 375.093 92.3467 375.093 92.88C375.093 93.4133 374.906 93.8667 374.533 94.24C374.159 94.6133 373.706 94.8 373.173 94.8H367.893V102.8H373.973C374.506 102.8 374.959 102.987 375.333 103.36C375.706 103.733 375.893 104.187 375.893 104.72C375.893 105.253 375.706 105.707 375.333 106.08C374.959 106.453 374.506 106.64 373.973 106.64H365.973C365.439 106.64 364.986 106.453 364.613 106.08C364.239 105.707 364.053 105.253 364.053 104.72V81.84Z" fill="#1C1B1B"/>
<path d="M4.26953 28.8C3.7362 28.8 3.28286 28.6133 2.90953 28.24C2.5362 27.8667 2.34953 27.4133 2.34953 26.88V3.68C2.34953 3.14667 2.5362 2.69333 2.90953 2.32C3.28286 1.94667 3.7362 1.76 4.26953 1.76C4.80286 1.76 5.2562 1.94667 5.62953 2.32C6.00286 2.69333 6.18953 3.14667 6.18953 3.68V26.88C6.18953 27.4133 6.00286 27.8667 5.62953 28.24C5.2562 28.6133 4.80286 28.8 4.26953 28.8ZM23.9173 28.76C23.464 28.8667 23.0373 28.8133 22.6373 28.6C22.2373 28.4133 21.944 28.12 21.7573 27.72C20.9573 26.0133 20.1173 24.2667 19.2373 22.48C18.4907 20.96 17.664 19.28 16.7573 17.44C15.8773 15.6 15.024 13.8133 14.1973 12.08V26.88C14.1973 27.4133 14.0107 27.8667 13.6373 28.24C13.264 28.6133 12.8107 28.8 12.2773 28.8C11.744 28.8 11.2907 28.6133 10.9173 28.24C10.544 27.8667 10.3573 27.4133 10.3573 26.88V3.68C10.3573 3.22667 10.4907 2.82667 10.7573 2.48C11.024 2.13333 11.384 1.90667 11.8373 1.8C12.2907 1.69333 12.704 1.74667 13.0773 1.96C13.4773 2.14666 13.784 2.44 13.9973 2.84C14.7973 4.54667 15.6373 6.29333 16.5173 8.08C17.264 9.6 18.0773 11.28 18.9573 13.12C19.8373 14.96 20.704 16.7467 21.5573 18.48V3.68C21.5573 3.14667 21.744 2.69333 22.1173 2.32C22.4907 1.94667 22.944 1.76 23.4773 1.76C24.0107 1.76 24.464 1.94667 24.8373 2.32C25.2107 2.69333 25.3973 3.14667 25.3973 3.68V26.88C25.3973 27.3333 25.2507 27.7333 24.9573 28.08C24.6907 28.4267 24.344 28.6533 23.9173 28.76ZM28.2161 4.2C28.0828 3.66667 28.1361 3.17333 28.3761 2.72C28.6428 2.26666 29.0428 1.97333 29.5761 1.84C30.0828 1.70667 30.5628 1.77333 31.0161 2.04C31.4961 2.28 31.8028 2.65333 31.9361 3.16C32.4428 5.05333 32.9628 6.96 33.4961 8.88C33.9494 10.5333 34.4428 12.32 34.9761 14.24C35.5094 16.16 36.0161 17.9733 36.4961 19.68C36.9494 17.9733 37.4428 16.16 37.9761 14.24C38.5094 12.32 39.0028 10.5333 39.4561 8.88C39.9628 6.96 40.4828 5.05333 41.0161 3.16C41.1494 2.65333 41.4428 2.28 41.8961 2.04C42.3761 1.77333 42.8694 1.70667 43.3761 1.84C43.9094 1.97333 44.2961 2.26666 44.5361 2.72C44.8028 3.17333 44.8694 3.66667 44.7361 4.2L38.3361 27.4C38.2028 27.8267 37.9628 28.16 37.6161 28.4C37.2961 28.6667 36.9228 28.8 36.4961 28.8C36.0428 28.8 35.6428 28.6667 35.2961 28.4C34.9761 28.16 34.7494 27.8267 34.6161 27.4L28.2161 4.2ZM47.5058 3.84C47.5058 3.30667 47.6924 2.85333 48.0658 2.48C48.4391 2.10667 48.8924 1.92 49.4258 1.92H57.4258C57.9591 1.92 58.4124 2.10667 58.7858 2.48C59.1591 2.85333 59.3458 3.30667 59.3458 3.84C59.3458 4.37333 59.1591 4.82666 58.7858 5.2C58.4124 5.57333 57.9591 5.76 57.4258 5.76H51.3458V12.96H56.6258C57.1591 12.96 57.6124 13.1467 57.9858 13.52C58.3591 13.8933 58.5458 14.3467 58.5458 14.88C58.5458 15.4133 58.3591 15.8667 57.9858 16.24C57.6124 16.6133 57.1591 16.8 56.6258 16.8H51.3458V24.8H57.4258C57.9591 24.8 58.4124 24.9867 58.7858 25.36C59.1591 25.7333 59.3458 26.1867 59.3458 26.72C59.3458 27.2533 59.1591 27.7067 58.7858 28.08C58.4124 28.4533 57.9591 28.64 57.4258 28.64H49.4258C48.8924 28.64 48.4391 28.4533 48.0658 28.08C47.6924 27.7067 47.5058 27.2533 47.5058 26.72V3.84ZM75.7923 28.76C75.339 28.8667 74.9123 28.8133 74.5123 28.6C74.1123 28.4133 73.819 28.12 73.6323 27.72C72.8323 26.0133 71.9923 24.2667 71.1123 22.48C70.3657 20.96 69.539 19.28 68.6323 17.44C67.7523 15.6 66.899 13.8133 66.0723 12.08V26.88C66.0723 27.4133 65.8857 27.8667 65.5123 28.24C65.139 28.6133 64.6857 28.8 64.1523 28.8C63.619 28.8 63.1657 28.6133 62.7923 28.24C62.419 27.8667 62.2323 27.4133 62.2323 26.88V3.68C62.2323 3.22667 62.3657 2.82667 62.6323 2.48C62.899 2.13333 63.259 1.90667 63.7123 1.8C64.1657 1.69333 64.579 1.74667 64.9523 1.96C65.3523 2.14666 65.659 2.44 65.8723 2.84C66.6723 4.54667 67.5123 6.29333 68.3923 8.08C69.139 9.6 69.9523 11.28 70.8323 13.12C71.7123 14.96 72.579 16.7467 73.4323 18.48V3.68C73.4323 3.14667 73.619 2.69333 73.9923 2.32C74.3657 1.94667 74.819 1.76 75.3523 1.76C75.8857 1.76 76.339 1.94667 76.7123 2.32C77.0857 2.69333 77.2723 3.14667 77.2723 3.68V26.88C77.2723 27.3333 77.1257 27.7333 76.8323 28.08C76.5657 28.4267 76.219 28.6533 75.7923 28.76ZM92.1711 1.92C92.7044 1.92 93.1578 2.10667 93.5311 2.48C93.9044 2.85333 94.0911 3.30667 94.0911 3.84C94.0911 4.37333 93.9044 4.82666 93.5311 5.2C93.1578 5.57333 92.7044 5.76 92.1711 5.76H88.8911V26.88C88.8911 27.4133 88.7044 27.8667 88.3311 28.24C87.9578 28.6133 87.5044 28.8 86.9711 28.8C86.4378 28.8 85.9844 28.6133 85.6111 28.24C85.2378 27.8667 85.0511 27.4133 85.0511 26.88V5.76H81.7711C81.2378 5.76 80.7844 5.57333 80.4111 5.2C80.0378 4.82666 79.8511 4.37333 79.8511 3.84C79.8511 3.30667 80.0378 2.85333 80.4111 2.48C80.7844 2.10667 81.2378 1.92 81.7711 1.92H92.1711ZM102.496 28.8C101.562 28.8 100.682 28.6267 99.8558 28.28C99.0558 27.9333 98.3491 27.4533 97.7358 26.84C97.1224 26.2267 96.6424 25.52 96.2958 24.72C95.9491 23.8933 95.7758 23.0133 95.7758 22.08V8.48C95.7758 7.54667 95.9491 6.68 96.2958 5.88C96.6424 5.05333 97.1224 4.33333 97.7358 3.72C98.3491 3.10666 99.0558 2.62667 99.8558 2.28C100.682 1.93333 101.562 1.76 102.496 1.76C103.429 1.76 104.296 1.93333 105.096 2.28C105.922 2.62667 106.642 3.10666 107.256 3.72C107.869 4.33333 108.349 5.05333 108.696 5.88C109.042 6.68 109.216 7.54667 109.216 8.48V22.08C109.216 23.0133 109.042 23.8933 108.696 24.72C108.349 25.52 107.869 26.2267 107.256 26.84C106.642 27.4533 105.922 27.9333 105.096 28.28C104.296 28.6267 103.429 28.8 102.496 28.8ZM102.496 5.6C101.696 5.6 101.016 5.88 100.456 6.44C99.8958 7 99.6158 7.68 99.6158 8.48V22.08C99.6158 22.88 99.8958 23.56 100.456 24.12C101.016 24.68 101.696 24.96 102.496 24.96C103.296 24.96 103.976 24.68 104.536 24.12C105.096 23.56 105.376 22.88 105.376 22.08V8.48C105.376 7.68 105.096 7 104.536 6.44C103.976 5.88 103.296 5.6 102.496 5.6ZM126.336 10.88C126.336 12.1867 126.003 13.3733 125.336 14.44C124.696 15.48 123.83 16.28 122.736 16.84L126.216 26.2C126.43 26.7067 126.416 27.2 126.176 27.68C125.963 28.16 125.603 28.4933 125.096 28.68C124.59 28.8667 124.096 28.8533 123.616 28.64C123.163 28.4267 122.83 28.0667 122.616 27.56L118.896 17.6H116.736V26.88C116.736 27.4133 116.55 27.8667 116.176 28.24C115.803 28.6133 115.35 28.8 114.816 28.8C114.283 28.8 113.83 28.6133 113.456 28.24C113.083 27.8667 112.896 27.4133 112.896 26.88V3.84C112.896 3.30667 113.083 2.85333 113.456 2.48C113.83 2.10667 114.283 1.92 114.816 1.92H119.616C120.55 1.92 121.416 2.09333 122.216 2.44C123.043 2.78666 123.763 3.26666 124.376 3.88C124.99 4.49333 125.47 5.21333 125.816 6.04C126.163 6.84 126.336 7.70666 126.336 8.64V10.88ZM116.736 13.76H119.616C120.416 13.76 121.096 13.48 121.656 12.92C122.216 12.36 122.496 11.68 122.496 10.88V8.64C122.496 7.84 122.216 7.16 121.656 6.6C121.096 6.04 120.416 5.76 119.616 5.76H116.736V13.76ZM136.697 24.32C137.07 24.0533 137.35 23.7333 137.537 23.36C137.724 22.9867 137.844 22.5733 137.897 22.12C137.977 21.2133 137.697 20.4133 137.057 19.72L130.657 13.16C129.964 12.4667 129.457 11.6667 129.137 10.76C128.817 9.85333 128.697 8.92 128.777 7.96C128.857 7 129.124 6.10667 129.577 5.28C130.03 4.42667 130.644 3.70667 131.417 3.12C132.19 2.53333 133.044 2.13333 133.977 1.92C134.937 1.70667 135.884 1.69333 136.817 1.88C137.75 2.09333 138.604 2.48 139.377 3.04C140.177 3.57333 140.817 4.26667 141.297 5.12C141.564 5.57333 141.617 6.05333 141.457 6.56C141.324 7.06667 141.03 7.46667 140.577 7.76C140.124 8.02667 139.644 8.09333 139.137 7.96C138.63 7.8 138.244 7.49333 137.977 7.04C137.524 6.32 136.884 5.85333 136.057 5.64C135.204 5.48 134.43 5.66667 133.737 6.2C133.044 6.70667 132.67 7.4 132.617 8.28C132.537 9.13333 132.804 9.86667 133.417 10.48L139.777 17.04C140.47 17.76 140.99 18.5867 141.337 19.52C141.684 20.4533 141.817 21.4133 141.737 22.4C141.657 23.4133 141.377 24.3467 140.897 25.2C140.417 26.0533 139.79 26.7867 139.017 27.4C138.217 28.0133 137.337 28.4267 136.377 28.64C135.417 28.8533 134.444 28.8667 133.457 28.68C132.47 28.4667 131.577 28.08 130.777 27.52C129.977 26.9333 129.337 26.2133 128.857 25.36C128.564 24.9067 128.484 24.4267 128.617 23.92C128.777 23.3867 129.084 22.9867 129.537 22.72C129.99 22.4533 130.47 22.4 130.977 22.56C131.484 22.6933 131.884 22.9867 132.177 23.44C132.63 24.2133 133.31 24.7067 134.217 24.92C135.15 25.08 135.977 24.88 136.697 24.32Z" fill="#1C1B1B"/>
</svg>
