<svg width="450" height="152" viewBox="0 0 450 152" fill="none" xmlns="http://www.w3.org/2000/svg">
<path d="M132.245 95.44C131.045 95.44 130.025 95.02 129.185 94.18C128.345 93.34 127.925 92.32 127.925 91.12V39.28C127.925 38.08 128.345 37.06 129.185 36.22C130.025 35.38 131.045 34.96 132.245 34.96C133.445 34.96 134.465 35.38 135.305 36.22C136.145 37.06 136.565 38.08 136.565 39.28V86.8H150.245C151.445 86.8 152.465 87.22 153.305 88.06C154.145 88.9 154.565 89.92 154.565 91.12C154.565 92.32 154.145 93.34 153.305 94.18C152.465 95.02 151.445 95.44 150.245 95.44H132.245ZM192.514 90.31C192.814 91.51 192.664 92.62 192.064 93.64C191.524 94.66 190.684 95.32 189.544 95.62C188.344 95.92 187.234 95.77 186.214 95.17C185.194 94.63 184.534 93.79 184.234 92.65C183.994 91.93 183.754 91.06 183.514 90.04C183.274 89.2 182.974 88.21 182.614 87.07C182.314 85.87 181.984 84.58 181.624 83.2H166.324C165.904 84.58 165.544 85.87 165.244 87.07C164.944 88.21 164.674 89.2 164.434 90.04C164.194 91.06 163.954 91.93 163.714 92.65C163.414 93.79 162.754 94.63 161.734 95.17C160.714 95.77 159.604 95.92 158.404 95.62C157.264 95.32 156.394 94.66 155.794 93.64C155.254 92.62 155.134 91.51 155.434 90.31L169.834 38.11C170.074 37.15 170.554 36.4 171.274 35.86C172.054 35.26 172.954 34.96 173.974 34.96C174.994 34.96 175.864 35.26 176.584 35.86C177.364 36.4 177.874 37.15 178.114 38.11L192.514 90.31ZM179.194 74.56C178.354 71.44 177.484 68.23 176.584 64.93C175.684 61.63 174.814 58.51 173.974 55.57C173.134 58.51 172.264 61.63 171.364 64.93C170.464 68.23 169.594 71.44 168.754 74.56H179.194ZM236.796 35.32C237.996 35.32 239.016 35.74 239.856 36.58C240.696 37.42 241.116 38.44 241.116 39.64C241.116 40.84 240.696 41.86 239.856 42.7C239.016 43.54 237.996 43.96 236.796 43.96H229.416V91.48C229.416 92.68 228.996 93.7 228.156 94.54C227.316 95.38 226.296 95.8 225.096 95.8C223.896 95.8 222.876 95.38 222.036 94.54C221.196 93.7 220.776 92.68 220.776 91.48V43.96H213.396C212.196 43.96 211.176 43.54 210.336 42.7C209.496 41.86 209.076 40.84 209.076 39.64C209.076 38.44 209.496 37.42 210.336 36.58C211.176 35.74 212.196 35.32 213.396 35.32H236.796ZM274.406 55.48C274.406 58.42 273.656 61.09 272.156 63.49C270.716 65.83 268.766 67.63 266.306 68.89L274.136 89.95C274.616 91.09 274.586 92.2 274.046 93.28C273.566 94.36 272.756 95.11 271.616 95.53C270.476 95.95 269.366 95.92 268.286 95.44C267.266 94.96 266.516 94.15 266.036 93.01L257.666 70.6H252.806V91.48C252.806 92.68 252.386 93.7 251.546 94.54C250.706 95.38 249.686 95.8 248.486 95.8C247.286 95.8 246.266 95.38 245.426 94.54C244.586 93.7 244.166 92.68 244.166 91.48V39.64C244.166 38.44 244.586 37.42 245.426 36.58C246.266 35.74 247.286 35.32 248.486 35.32H259.286C261.386 35.32 263.336 35.71 265.136 36.49C266.996 37.27 268.616 38.35 269.996 39.73C271.376 41.11 272.456 42.73 273.236 44.59C274.016 46.39 274.406 48.34 274.406 50.44V55.48ZM252.806 61.96H259.286C261.086 61.96 262.616 61.33 263.876 60.07C265.136 58.81 265.766 57.28 265.766 55.48V50.44C265.766 48.64 265.136 47.11 263.876 45.85C262.616 44.59 261.086 43.96 259.286 43.96H252.806V61.96ZM312.207 90.31C312.507 91.51 312.357 92.62 311.757 93.64C311.217 94.66 310.377 95.32 309.237 95.62C308.037 95.92 306.927 95.77 305.907 95.17C304.887 94.63 304.227 93.79 303.927 92.65C303.687 91.93 303.447 91.06 303.207 90.04C302.967 89.2 302.667 88.21 302.307 87.07C302.007 85.87 301.677 84.58 301.317 83.2H286.017C285.597 84.58 285.237 85.87 284.937 87.07C284.637 88.21 284.367 89.2 284.127 90.04C283.887 91.06 283.647 91.93 283.407 92.65C283.107 93.79 282.447 94.63 281.427 95.17C280.407 95.77 279.297 95.92 278.097 95.62C276.957 95.32 276.087 94.66 275.487 93.64C274.947 92.62 274.827 91.51 275.127 90.31L289.527 38.11C289.767 37.15 290.247 36.4 290.967 35.86C291.747 35.26 292.647 34.96 293.667 34.96C294.687 34.96 295.557 35.26 296.277 35.86C297.057 36.4 297.567 37.15 297.807 38.11L312.207 90.31ZM298.887 74.56C298.047 71.44 297.177 68.23 296.277 64.93C295.377 61.63 294.507 58.51 293.667 55.57C292.827 58.51 291.957 61.63 291.057 64.93C290.157 68.23 289.287 71.44 288.447 74.56H298.887ZM345.565 95.71C344.545 95.95 343.585 95.83 342.685 95.35C341.785 94.93 341.125 94.27 340.705 93.37C338.905 89.53 337.015 85.6 335.035 81.58C333.355 78.16 331.495 74.38 329.455 70.24C327.475 66.1 325.555 62.08 323.695 58.18V91.48C323.695 92.68 323.275 93.7 322.435 94.54C321.595 95.38 320.575 95.8 319.375 95.8C318.175 95.8 317.155 95.38 316.315 94.54C315.475 93.7 315.055 92.68 315.055 91.48V39.28C315.055 38.26 315.355 37.36 315.955 36.58C316.555 35.8 317.365 35.29 318.385 35.05C319.405 34.81 320.335 34.93 321.175 35.41C322.075 35.83 322.765 36.49 323.245 37.39C325.045 41.23 326.935 45.16 328.915 49.18C330.595 52.6 332.425 56.38 334.405 60.52C336.385 64.66 338.335 68.68 340.255 72.58V39.28C340.255 38.08 340.675 37.06 341.515 36.22C342.355 35.38 343.375 34.96 344.575 34.96C345.775 34.96 346.795 35.38 347.635 36.22C348.475 37.06 348.895 38.08 348.895 39.28V91.48C348.895 92.5 348.565 93.4 347.905 94.18C347.305 94.96 346.525 95.47 345.565 95.71ZM371.707 85.72C372.547 85.12 373.177 84.4 373.597 83.56C374.017 82.72 374.287 81.79 374.407 80.77C374.587 78.73 373.957 76.93 372.517 75.37L358.117 60.61C356.557 59.05 355.417 57.25 354.697 55.21C353.977 53.17 353.707 51.07 353.887 48.91C354.067 46.75 354.667 44.74 355.687 42.88C356.707 40.96 358.087 39.34 359.827 38.02C361.567 36.7 363.487 35.8 365.587 35.32C367.747 34.84 369.877 34.81 371.977 35.23C374.077 35.71 375.997 36.58 377.737 37.84C379.537 39.04 380.977 40.6 382.057 42.52C382.657 43.54 382.777 44.62 382.417 45.76C382.117 46.9 381.457 47.8 380.437 48.46C379.417 49.06 378.337 49.21 377.197 48.91C376.057 48.55 375.187 47.86 374.587 46.84C373.567 45.22 372.127 44.17 370.267 43.69C368.347 43.33 366.607 43.75 365.047 44.95C363.487 46.09 362.647 47.65 362.527 49.63C362.347 51.55 362.947 53.2 364.327 54.58L378.637 69.34C380.197 70.96 381.367 72.82 382.147 74.92C382.927 77.02 383.227 79.18 383.047 81.4C382.867 83.68 382.237 85.78 381.157 87.7C380.077 89.62 378.667 91.27 376.927 92.65C375.127 94.03 373.147 94.96 370.987 95.44C368.827 95.92 366.637 95.95 364.417 95.53C362.197 95.05 360.187 94.18 358.387 92.92C356.587 91.6 355.147 89.98 354.067 88.06C353.407 87.04 353.227 85.96 353.527 84.82C353.887 83.62 354.577 82.72 355.597 82.12C356.617 81.52 357.697 81.4 358.837 81.76C359.977 82.06 360.877 82.72 361.537 83.74C362.557 85.48 364.087 86.59 366.127 87.07C368.227 87.43 370.087 86.98 371.707 85.72ZM391.582 95.44C390.382 95.44 389.362 95.02 388.522 94.18C387.682 93.34 387.262 92.32 387.262 91.12V39.64C387.262 38.44 387.682 37.42 388.522 36.58C389.362 35.74 390.382 35.32 391.582 35.32H409.582C410.782 35.32 411.802 35.74 412.642 36.58C413.482 37.42 413.902 38.44 413.902 39.64C413.902 40.84 413.482 41.86 412.642 42.7C411.802 43.54 410.782 43.96 409.582 43.96H395.902V60.16H407.782C408.982 60.16 410.002 60.58 410.842 61.42C411.682 62.26 412.102 63.28 412.102 64.48C412.102 65.68 411.682 66.7 410.842 67.54C410.002 68.38 408.982 68.8 407.782 68.8H395.902V91.12C395.902 92.32 395.482 93.34 394.642 94.18C393.802 95.02 392.782 95.44 391.582 95.44ZM431.034 95.8C428.934 95.8 426.954 95.41 425.094 94.63C423.294 93.85 421.704 92.77 420.324 91.39C418.944 90.01 417.864 88.42 417.084 86.62C416.304 84.76 415.914 82.78 415.914 80.68V50.08C415.914 47.98 416.304 46.03 417.084 44.23C417.864 42.37 418.944 40.75 420.324 39.37C421.704 37.99 423.294 36.91 425.094 36.13C426.954 35.35 428.934 34.96 431.034 34.96C433.134 34.96 435.084 35.35 436.884 36.13C438.744 36.91 440.364 37.99 441.744 39.37C443.124 40.75 444.204 42.37 444.984 44.23C445.764 46.03 446.154 47.98 446.154 50.08V80.68C446.154 82.78 445.764 84.76 444.984 86.62C444.204 88.42 443.124 90.01 441.744 91.39C440.364 92.77 438.744 93.85 436.884 94.63C435.084 95.41 433.134 95.8 431.034 95.8ZM431.034 43.6C429.234 43.6 427.704 44.23 426.444 45.49C425.184 46.75 424.554 48.28 424.554 50.08V80.68C424.554 82.48 425.184 84.01 426.444 85.27C427.704 86.53 429.234 87.16 431.034 87.16C432.834 87.16 434.364 86.53 435.624 85.27C436.884 84.01 437.514 82.48 437.514 80.68V50.08C437.514 48.28 436.884 46.75 435.624 45.49C434.364 44.23 432.834 43.6 431.034 43.6Z" fill="#1C1B1B"/>
<circle cx="140" cy="119" r="10" fill="#1C1B1B"/>
<path d="M161.56 132.56C160.84 132.373 160.173 132.08 159.56 131.68C158.947 131.253 158.413 130.76 157.96 130.2C157.533 129.613 157.2 128.973 156.96 128.28C156.72 127.587 156.6 126.853 156.6 126.08V112.48C156.6 111.733 156.72 111.013 156.96 110.32C157.2 109.6 157.533 108.96 157.96 108.4C158.413 107.813 158.947 107.32 159.56 106.92C160.173 106.493 160.84 106.187 161.56 106C163.053 105.6 164.493 105.693 165.88 106.28C167.267 106.84 168.347 107.787 169.12 109.12C169.413 109.573 169.48 110.053 169.32 110.56C169.187 111.067 168.893 111.467 168.44 111.76C167.987 112.027 167.507 112.093 167 111.96C166.493 111.8 166.093 111.493 165.8 111.04C165.48 110.48 165.013 110.08 164.4 109.84C163.813 109.573 163.2 109.533 162.56 109.72C161.947 109.88 161.44 110.227 161.04 110.76C160.64 111.267 160.44 111.84 160.44 112.48V126.08C160.44 126.747 160.64 127.333 161.04 127.84C161.44 128.347 161.947 128.693 162.56 128.88C163.2 129.04 163.813 129 164.4 128.76C165.013 128.493 165.48 128.08 165.8 127.52C166.093 127.067 166.493 126.773 167 126.64C167.507 126.48 167.987 126.533 168.44 126.8C168.893 127.093 169.187 127.493 169.32 128C169.48 128.507 169.413 128.987 169.12 129.44C168.347 130.773 167.267 131.72 165.88 132.28C164.493 132.867 163.053 132.96 161.56 132.56ZM177.511 132.8C176.577 132.8 175.697 132.627 174.871 132.28C174.071 131.933 173.364 131.453 172.751 130.84C172.137 130.227 171.657 129.52 171.311 128.72C170.964 127.893 170.791 127.013 170.791 126.08V112.48C170.791 111.547 170.964 110.68 171.311 109.88C171.657 109.053 172.137 108.333 172.751 107.72C173.364 107.107 174.071 106.627 174.871 106.28C175.697 105.933 176.577 105.76 177.511 105.76C178.444 105.76 179.311 105.933 180.111 106.28C180.937 106.627 181.657 107.107 182.271 107.72C182.884 108.333 183.364 109.053 183.711 109.88C184.057 110.68 184.231 111.547 184.231 112.48V126.08C184.231 127.013 184.057 127.893 183.711 128.72C183.364 129.52 182.884 130.227 182.271 130.84C181.657 131.453 180.937 131.933 180.111 132.28C179.311 132.627 178.444 132.8 177.511 132.8ZM177.511 109.6C176.711 109.6 176.031 109.88 175.471 110.44C174.911 111 174.631 111.68 174.631 112.48V126.08C174.631 126.88 174.911 127.56 175.471 128.12C176.031 128.68 176.711 128.96 177.511 128.96C178.311 128.96 178.991 128.68 179.551 128.12C180.111 127.56 180.391 126.88 180.391 126.08V112.48C180.391 111.68 180.111 111 179.551 110.44C178.991 109.88 178.311 109.6 177.511 109.6ZM190.231 126.08C190.231 126.88 190.511 127.56 191.071 128.12C191.631 128.68 192.311 128.96 193.111 128.96C193.885 128.96 194.551 128.68 195.111 128.12C195.698 127.56 195.991 126.88 195.991 126.08V107.68C195.991 107.147 196.178 106.693 196.551 106.32C196.925 105.947 197.378 105.76 197.911 105.76C198.445 105.76 198.898 105.947 199.271 106.32C199.645 106.693 199.831 107.147 199.831 107.68V126.08C199.831 127.013 199.645 127.893 199.271 128.72C198.925 129.52 198.445 130.227 197.831 130.84C197.245 131.453 196.538 131.933 195.711 132.28C194.885 132.627 194.018 132.8 193.111 132.8C192.178 132.8 191.298 132.627 190.471 132.28C189.671 131.933 188.965 131.453 188.351 130.84C187.738 130.227 187.258 129.52 186.911 128.72C186.565 127.893 186.391 127.013 186.391 126.08V107.68C186.391 107.147 186.578 106.693 186.951 106.32C187.325 105.947 187.778 105.76 188.311 105.76C188.845 105.76 189.298 105.947 189.671 106.32C190.045 106.693 190.231 107.147 190.231 107.68V126.08ZM209.624 128.32C209.998 128.053 210.278 127.733 210.464 127.36C210.651 126.987 210.771 126.573 210.824 126.12C210.904 125.213 210.624 124.413 209.984 123.72L203.584 117.16C202.891 116.467 202.384 115.667 202.064 114.76C201.744 113.853 201.624 112.92 201.704 111.96C201.784 111 202.051 110.107 202.504 109.28C202.958 108.427 203.571 107.707 204.344 107.12C205.118 106.533 205.971 106.133 206.904 105.92C207.864 105.707 208.811 105.693 209.744 105.88C210.678 106.093 211.531 106.48 212.304 107.04C213.104 107.573 213.744 108.267 214.224 109.12C214.491 109.573 214.544 110.053 214.384 110.56C214.251 111.067 213.958 111.467 213.504 111.76C213.051 112.027 212.571 112.093 212.064 111.96C211.558 111.8 211.171 111.493 210.904 111.04C210.451 110.32 209.811 109.853 208.984 109.64C208.131 109.48 207.358 109.667 206.664 110.2C205.971 110.707 205.598 111.4 205.544 112.28C205.464 113.133 205.731 113.867 206.344 114.48L212.704 121.04C213.398 121.76 213.918 122.587 214.264 123.52C214.611 124.453 214.744 125.413 214.664 126.4C214.584 127.413 214.304 128.347 213.824 129.2C213.344 130.053 212.718 130.787 211.944 131.4C211.144 132.013 210.264 132.427 209.304 132.64C208.344 132.853 207.371 132.867 206.384 132.68C205.398 132.467 204.504 132.08 203.704 131.52C202.904 130.933 202.264 130.213 201.784 129.36C201.491 128.907 201.411 128.427 201.544 127.92C201.704 127.387 202.011 126.987 202.464 126.72C202.918 126.453 203.398 126.4 203.904 126.56C204.411 126.693 204.811 126.987 205.104 127.44C205.558 128.213 206.238 128.707 207.144 128.92C208.078 129.08 208.904 128.88 209.624 128.32ZM218.458 132.8C217.924 132.8 217.471 132.613 217.098 132.24C216.724 131.867 216.538 131.413 216.538 130.88V107.68C216.538 107.147 216.724 106.693 217.098 106.32C217.471 105.947 217.924 105.76 218.458 105.76C218.991 105.76 219.444 105.947 219.818 106.32C220.191 106.693 220.378 107.147 220.378 107.68V130.88C220.378 131.413 220.191 131.867 219.818 132.24C219.444 132.613 218.991 132.8 218.458 132.8ZM236.906 132.76C236.452 132.867 236.026 132.813 235.626 132.6C235.226 132.413 234.932 132.12 234.746 131.72C233.946 130.013 233.106 128.267 232.226 126.48C231.479 124.96 230.652 123.28 229.746 121.44C228.866 119.6 228.012 117.813 227.186 116.08V130.88C227.186 131.413 226.999 131.867 226.626 132.24C226.252 132.613 225.799 132.8 225.266 132.8C224.732 132.8 224.279 132.613 223.906 132.24C223.532 131.867 223.346 131.413 223.346 130.88V107.68C223.346 107.227 223.479 106.827 223.746 106.48C224.012 106.133 224.372 105.907 224.826 105.8C225.279 105.693 225.692 105.747 226.066 105.96C226.466 106.147 226.772 106.44 226.986 106.84C227.786 108.547 228.626 110.293 229.506 112.08C230.252 113.6 231.066 115.28 231.946 117.12C232.826 118.96 233.692 120.747 234.546 122.48V107.68C234.546 107.147 234.732 106.693 235.106 106.32C235.479 105.947 235.932 105.76 236.466 105.76C236.999 105.76 237.452 105.947 237.826 106.32C238.199 106.693 238.386 107.147 238.386 107.68V130.88C238.386 131.333 238.239 131.733 237.946 132.08C237.679 132.427 237.332 132.653 236.906 132.76ZM248.524 128.32C248.898 128.053 249.178 127.733 249.364 127.36C249.551 126.987 249.671 126.573 249.724 126.12C249.804 125.213 249.524 124.413 248.884 123.72L242.484 117.16C241.791 116.467 241.284 115.667 240.964 114.76C240.644 113.853 240.524 112.92 240.604 111.96C240.684 111 240.951 110.107 241.404 109.28C241.858 108.427 242.471 107.707 243.244 107.12C244.018 106.533 244.871 106.133 245.804 105.92C246.764 105.707 247.711 105.693 248.644 105.88C249.578 106.093 250.431 106.48 251.204 107.04C252.004 107.573 252.644 108.267 253.124 109.12C253.391 109.573 253.444 110.053 253.284 110.56C253.151 111.067 252.858 111.467 252.404 111.76C251.951 112.027 251.471 112.093 250.964 111.96C250.458 111.8 250.071 111.493 249.804 111.04C249.351 110.32 248.711 109.853 247.884 109.64C247.031 109.48 246.258 109.667 245.564 110.2C244.871 110.707 244.498 111.4 244.444 112.28C244.364 113.133 244.631 113.867 245.244 114.48L251.604 121.04C252.298 121.76 252.818 122.587 253.164 123.52C253.511 124.453 253.644 125.413 253.564 126.4C253.484 127.413 253.204 128.347 252.724 129.2C252.244 130.053 251.618 130.787 250.844 131.4C250.044 132.013 249.164 132.427 248.204 132.64C247.244 132.853 246.271 132.867 245.284 132.68C244.298 132.467 243.404 132.08 242.604 131.52C241.804 130.933 241.164 130.213 240.684 129.36C240.391 128.907 240.311 128.427 240.444 127.92C240.604 127.387 240.911 126.987 241.364 126.72C241.818 126.453 242.298 126.4 242.804 126.56C243.311 126.693 243.711 126.987 244.004 127.44C244.458 128.213 245.138 128.707 246.044 128.92C246.978 129.08 247.804 128.88 248.524 128.32Z" fill="#1C1B1B"/>
<path d="M39.503 34.9996L60.5012 34.9996L39.503 51.4996L39.503 67.9996L80.0013 34.9996L100.503 34.9995L39.503 84.4998L39.503 100.5L101.502 50.4998L101.502 66.9998L45.002 111.792L54.002 120L101.502 82.9998L101.502 98.9998L67.002 127L80.0013 132L101.502 115" stroke="#1C1B1B" stroke-width="7" stroke-linecap="round" stroke-linejoin="round"/>
</svg>
