<svg width="416" height="152" viewBox="0 0 416 152" fill="none" xmlns="http://www.w3.org/2000/svg">
<path d="M98.2458 95.4402C97.0458 95.4402 96.0258 95.0202 95.1858 94.1802C94.3458 93.3402 93.9258 92.3202 93.9258 91.1202V39.2802C93.9258 38.0802 94.3458 37.0602 95.1858 36.2202C96.0258 35.3802 97.0458 34.9602 98.2458 34.9602C99.4458 34.9602 100.466 35.3802 101.306 36.2202C102.146 37.0602 102.566 38.0802 102.566 39.2802V86.8002H116.246C117.446 86.8002 118.466 87.2202 119.306 88.0602C120.146 88.9002 120.566 89.9202 120.566 91.1202C120.566 92.3202 120.146 93.3402 119.306 94.1802C118.466 95.0202 117.446 95.4402 116.246 95.4402H98.2458ZM158.515 90.3102C158.815 91.5102 158.665 92.6202 158.065 93.6402C157.525 94.6602 156.685 95.3202 155.545 95.6202C154.345 95.9202 153.235 95.7702 152.215 95.1702C151.195 94.6302 150.535 93.7902 150.235 92.6502C149.995 91.9302 149.755 91.0602 149.515 90.0402C149.275 89.2002 148.975 88.2102 148.615 87.0702C148.315 85.8702 147.985 84.5802 147.625 83.2002H132.325C131.905 84.5802 131.545 85.8702 131.245 87.0702C130.945 88.2102 130.675 89.2002 130.435 90.0402C130.195 91.0602 129.955 91.9302 129.715 92.6502C129.415 93.7902 128.755 94.6302 127.735 95.1702C126.715 95.7702 125.605 95.9202 124.405 95.6202C123.265 95.3202 122.395 94.6602 121.795 93.6402C121.255 92.6202 121.135 91.5102 121.435 90.3102L135.835 38.1102C136.075 37.1502 136.555 36.4002 137.275 35.8602C138.055 35.2602 138.955 34.9602 139.975 34.9602C140.995 34.9602 141.865 35.2602 142.585 35.8602C143.365 36.4002 143.875 37.1502 144.115 38.1102L158.515 90.3102ZM145.195 74.5602C144.355 71.4402 143.485 68.2302 142.585 64.9302C141.685 61.6302 140.815 58.5102 139.975 55.5702C139.135 58.5102 138.265 61.6302 137.365 64.9302C136.465 68.2302 135.595 71.4402 134.755 74.5602H145.195ZM202.797 35.3202C203.997 35.3202 205.017 35.7402 205.857 36.5802C206.697 37.4202 207.117 38.4402 207.117 39.6402C207.117 40.8402 206.697 41.8602 205.857 42.7002C205.017 43.5402 203.997 43.9602 202.797 43.9602H195.417V91.4802C195.417 92.6802 194.997 93.7002 194.157 94.5402C193.317 95.3802 192.297 95.8002 191.097 95.8002C189.897 95.8002 188.877 95.3802 188.037 94.5402C187.197 93.7002 186.777 92.6802 186.777 91.4802V43.9602H179.397C178.197 43.9602 177.177 43.5402 176.337 42.7002C175.497 41.8602 175.077 40.8402 175.077 39.6402C175.077 38.4402 175.497 37.4202 176.337 36.5802C177.177 35.7402 178.197 35.3202 179.397 35.3202H202.797ZM240.407 55.4802C240.407 58.4202 239.657 61.0902 238.157 63.4902C236.717 65.8302 234.767 67.6302 232.307 68.8902L240.137 89.9502C240.617 91.0902 240.587 92.2002 240.047 93.2802C239.567 94.3602 238.757 95.1102 237.617 95.5302C236.477 95.9502 235.367 95.9202 234.287 95.4402C233.267 94.9602 232.517 94.1502 232.037 93.0102L223.667 70.6002H218.807V91.4802C218.807 92.6802 218.387 93.7002 217.547 94.5402C216.707 95.3802 215.687 95.8002 214.487 95.8002C213.287 95.8002 212.267 95.3802 211.427 94.5402C210.587 93.7002 210.167 92.6802 210.167 91.4802V39.6402C210.167 38.4402 210.587 37.4202 211.427 36.5802C212.267 35.7402 213.287 35.3202 214.487 35.3202H225.287C227.387 35.3202 229.337 35.7102 231.137 36.4902C232.997 37.2702 234.617 38.3502 235.997 39.7302C237.377 41.1102 238.457 42.7302 239.237 44.5902C240.017 46.3902 240.407 48.3402 240.407 50.4402V55.4802ZM218.807 61.9602H225.287C227.087 61.9602 228.617 61.3302 229.877 60.0702C231.137 58.8102 231.767 57.2802 231.767 55.4802V50.4402C231.767 48.6402 231.137 47.1102 229.877 45.8502C228.617 44.5902 227.087 43.9602 225.287 43.9602H218.807V61.9602ZM278.208 90.3102C278.508 91.5102 278.358 92.6202 277.758 93.6402C277.218 94.6602 276.378 95.3202 275.238 95.6202C274.038 95.9202 272.928 95.7702 271.908 95.1702C270.888 94.6302 270.228 93.7902 269.928 92.6502C269.688 91.9302 269.448 91.0602 269.208 90.0402C268.968 89.2002 268.668 88.2102 268.308 87.0702C268.008 85.8702 267.678 84.5802 267.318 83.2002H252.018C251.598 84.5802 251.238 85.8702 250.938 87.0702C250.638 88.2102 250.368 89.2002 250.128 90.0402C249.888 91.0602 249.648 91.9302 249.408 92.6502C249.108 93.7902 248.448 94.6302 247.428 95.1702C246.408 95.7702 245.298 95.9202 244.098 95.6202C242.958 95.3202 242.088 94.6602 241.488 93.6402C240.948 92.6202 240.828 91.5102 241.128 90.3102L255.528 38.1102C255.768 37.1502 256.248 36.4002 256.968 35.8602C257.748 35.2602 258.648 34.9602 259.668 34.9602C260.688 34.9602 261.558 35.2602 262.278 35.8602C263.058 36.4002 263.568 37.1502 263.808 38.1102L278.208 90.3102ZM264.888 74.5602C264.048 71.4402 263.178 68.2302 262.278 64.9302C261.378 61.6302 260.508 58.5102 259.668 55.5702C258.828 58.5102 257.958 61.6302 257.058 64.9302C256.158 68.2302 255.288 71.4402 254.448 74.5602H264.888ZM311.566 95.7102C310.546 95.9502 309.586 95.8302 308.686 95.3502C307.786 94.9302 307.126 94.2702 306.706 93.3702C304.906 89.5302 303.016 85.6002 301.036 81.5802C299.356 78.1602 297.496 74.3802 295.456 70.2402C293.476 66.1002 291.556 62.0802 289.696 58.1802V91.4802C289.696 92.6802 289.276 93.7002 288.436 94.5402C287.596 95.3802 286.576 95.8002 285.376 95.8002C284.176 95.8002 283.156 95.3802 282.316 94.5402C281.476 93.7002 281.056 92.6802 281.056 91.4802V39.2802C281.056 38.2602 281.356 37.3602 281.956 36.5802C282.556 35.8002 283.366 35.2902 284.386 35.0502C285.406 34.8102 286.336 34.9302 287.176 35.4102C288.076 35.8302 288.766 36.4902 289.246 37.3902C291.046 41.2302 292.936 45.1602 294.916 49.1802C296.596 52.6002 298.426 56.3802 300.406 60.5202C302.386 64.6602 304.336 68.6802 306.256 72.5802V39.2802C306.256 38.0802 306.676 37.0602 307.516 36.2202C308.356 35.3802 309.376 34.9602 310.576 34.9602C311.776 34.9602 312.796 35.3802 313.636 36.2202C314.476 37.0602 314.896 38.0802 314.896 39.2802V91.4802C314.896 92.5002 314.566 93.4002 313.906 94.1802C313.306 94.9602 312.526 95.4702 311.566 95.7102ZM337.708 85.7202C338.548 85.1202 339.178 84.4002 339.598 83.5602C340.018 82.7202 340.288 81.7902 340.408 80.7702C340.588 78.7302 339.958 76.9302 338.518 75.3702L324.118 60.6102C322.558 59.0502 321.418 57.2502 320.698 55.2102C319.978 53.1702 319.708 51.0702 319.888 48.9102C320.068 46.7502 320.668 44.7402 321.688 42.8802C322.708 40.9602 324.088 39.3402 325.828 38.0202C327.568 36.7002 329.488 35.8002 331.588 35.3202C333.748 34.8402 335.878 34.8102 337.978 35.2302C340.078 35.7102 341.998 36.5802 343.738 37.8402C345.538 39.0402 346.978 40.6002 348.058 42.5202C348.658 43.5402 348.778 44.6202 348.418 45.7602C348.118 46.9002 347.458 47.8002 346.438 48.4602C345.418 49.0602 344.338 49.2102 343.198 48.9102C342.058 48.5502 341.188 47.8602 340.588 46.8402C339.568 45.2202 338.128 44.1702 336.268 43.6902C334.348 43.3302 332.608 43.7502 331.048 44.9502C329.488 46.0902 328.648 47.6502 328.528 49.6302C328.348 51.5502 328.948 53.2002 330.328 54.5802L344.638 69.3402C346.198 70.9602 347.368 72.8202 348.148 74.9202C348.928 77.0202 349.228 79.1802 349.048 81.4002C348.868 83.6802 348.238 85.7802 347.158 87.7002C346.078 89.6202 344.668 91.2702 342.928 92.6502C341.128 94.0302 339.148 94.9602 336.988 95.4402C334.828 95.9202 332.638 95.9502 330.418 95.5302C328.198 95.0502 326.188 94.1802 324.388 92.9202C322.588 91.6002 321.148 89.9802 320.068 88.0602C319.408 87.0402 319.228 85.9602 319.528 84.8202C319.888 83.6202 320.578 82.7202 321.598 82.1202C322.618 81.5202 323.698 81.4002 324.838 81.7602C325.978 82.0602 326.878 82.7202 327.538 83.7402C328.558 85.4802 330.088 86.5902 332.128 87.0702C334.228 87.4302 336.088 86.9802 337.708 85.7202ZM357.583 95.4402C356.383 95.4402 355.363 95.0202 354.523 94.1802C353.683 93.3402 353.263 92.3202 353.263 91.1202V39.6402C353.263 38.4402 353.683 37.4202 354.523 36.5802C355.363 35.7402 356.383 35.3202 357.583 35.3202H375.583C376.783 35.3202 377.803 35.7402 378.643 36.5802C379.483 37.4202 379.903 38.4402 379.903 39.6402C379.903 40.8402 379.483 41.8602 378.643 42.7002C377.803 43.5402 376.783 43.9602 375.583 43.9602H361.903V60.1602H373.783C374.983 60.1602 376.003 60.5802 376.843 61.4202C377.683 62.2602 378.103 63.2802 378.103 64.4802C378.103 65.6802 377.683 66.7002 376.843 67.5402C376.003 68.3802 374.983 68.8002 373.783 68.8002H361.903V91.1202C361.903 92.3202 361.483 93.3402 360.643 94.1802C359.803 95.0202 358.783 95.4402 357.583 95.4402ZM397.035 95.8002C394.935 95.8002 392.955 95.4102 391.095 94.6302C389.295 93.8502 387.705 92.7702 386.325 91.3902C384.945 90.0102 383.865 88.4202 383.085 86.6202C382.305 84.7602 381.915 82.7802 381.915 80.6802V50.0802C381.915 47.9802 382.305 46.0302 383.085 44.2302C383.865 42.3702 384.945 40.7502 386.325 39.3702C387.705 37.9902 389.295 36.9102 391.095 36.1302C392.955 35.3502 394.935 34.9602 397.035 34.9602C399.135 34.9602 401.085 35.3502 402.885 36.1302C404.745 36.9102 406.365 37.9902 407.745 39.3702C409.125 40.7502 410.205 42.3702 410.985 44.2302C411.765 46.0302 412.155 47.9802 412.155 50.0802V80.6802C412.155 82.7802 411.765 84.7602 410.985 86.6202C410.205 88.4202 409.125 90.0102 407.745 91.3902C406.365 92.7702 404.745 93.8502 402.885 94.6302C401.085 95.4102 399.135 95.8002 397.035 95.8002ZM397.035 43.6002C395.235 43.6002 393.705 44.2302 392.445 45.4902C391.185 46.7502 390.555 48.2802 390.555 50.0802V80.6802C390.555 82.4802 391.185 84.0102 392.445 85.2702C393.705 86.5302 395.235 87.1602 397.035 87.1602C398.835 87.1602 400.365 86.5302 401.625 85.2702C402.885 84.0102 403.515 82.4802 403.515 80.6802V50.0802C403.515 48.2802 402.885 46.7502 401.625 45.4902C400.365 44.2302 398.835 43.6002 397.035 43.6002Z" fill="#1C1B1B"/>
<path d="M106 129C111.523 129 116 124.523 116 119C116 113.477 111.523 109 106 109C100.477 109 96 113.477 96 119C96 124.523 100.477 129 106 129Z" fill="#1C1B1B"/>
<path d="M127.56 132.56C126.84 132.373 126.173 132.08 125.56 131.68C124.947 131.253 124.413 130.76 123.96 130.2C123.533 129.613 123.2 128.973 122.96 128.28C122.72 127.587 122.6 126.853 122.6 126.08V112.48C122.6 111.733 122.72 111.013 122.96 110.32C123.2 109.6 123.533 108.96 123.96 108.4C124.413 107.813 124.947 107.32 125.56 106.92C126.173 106.493 126.84 106.187 127.56 106C129.053 105.6 130.493 105.693 131.88 106.28C133.267 106.84 134.347 107.787 135.12 109.12C135.413 109.573 135.48 110.053 135.32 110.56C135.187 111.067 134.893 111.467 134.44 111.76C133.987 112.027 133.507 112.093 133 111.96C132.493 111.8 132.093 111.493 131.8 111.04C131.48 110.48 131.013 110.08 130.4 109.84C129.813 109.573 129.2 109.533 128.56 109.72C127.947 109.88 127.44 110.227 127.04 110.76C126.64 111.267 126.44 111.84 126.44 112.48V126.08C126.44 126.747 126.64 127.333 127.04 127.84C127.44 128.347 127.947 128.693 128.56 128.88C129.2 129.04 129.813 129 130.4 128.76C131.013 128.493 131.48 128.08 131.8 127.52C132.093 127.067 132.493 126.773 133 126.64C133.507 126.48 133.987 126.533 134.44 126.8C134.893 127.093 135.187 127.493 135.32 128C135.48 128.507 135.413 128.987 135.12 129.44C134.347 130.773 133.267 131.72 131.88 132.28C130.493 132.867 129.053 132.96 127.56 132.56ZM143.511 132.8C142.577 132.8 141.697 132.627 140.871 132.28C140.071 131.933 139.364 131.453 138.751 130.84C138.137 130.227 137.657 129.52 137.311 128.72C136.964 127.893 136.791 127.013 136.791 126.08V112.48C136.791 111.547 136.964 110.68 137.311 109.88C137.657 109.053 138.137 108.333 138.751 107.72C139.364 107.107 140.071 106.627 140.871 106.28C141.697 105.933 142.577 105.76 143.511 105.76C144.444 105.76 145.311 105.933 146.111 106.28C146.937 106.627 147.657 107.107 148.271 107.72C148.884 108.333 149.364 109.053 149.711 109.88C150.057 110.68 150.231 111.547 150.231 112.48V126.08C150.231 127.013 150.057 127.893 149.711 128.72C149.364 129.52 148.884 130.227 148.271 130.84C147.657 131.453 146.937 131.933 146.111 132.28C145.311 132.627 144.444 132.8 143.511 132.8ZM143.511 109.6C142.711 109.6 142.031 109.88 141.471 110.44C140.911 111 140.631 111.68 140.631 112.48V126.08C140.631 126.88 140.911 127.56 141.471 128.12C142.031 128.68 142.711 128.96 143.511 128.96C144.311 128.96 144.991 128.68 145.551 128.12C146.111 127.56 146.391 126.88 146.391 126.08V112.48C146.391 111.68 146.111 111 145.551 110.44C144.991 109.88 144.311 109.6 143.511 109.6ZM159.431 105.92C160.365 105.92 161.231 106.093 162.031 106.44C162.858 106.787 163.578 107.267 164.191 107.88C164.805 108.493 165.285 109.213 165.631 110.04C165.978 110.84 166.151 111.707 166.151 112.64V125.92C166.151 126.853 165.978 127.733 165.631 128.56C165.285 129.36 164.805 130.067 164.191 130.68C163.578 131.293 162.858 131.773 162.031 132.12C161.231 132.467 160.365 132.64 159.431 132.64H154.631C154.098 132.64 153.645 132.453 153.271 132.08C152.898 131.707 152.711 131.253 152.711 130.72V107.84C152.711 107.307 152.898 106.853 153.271 106.48C153.645 106.107 154.098 105.92 154.631 105.92H159.431ZM162.311 112.64C162.311 111.84 162.031 111.16 161.471 110.6C160.911 110.04 160.231 109.76 159.431 109.76H156.551V128.8H159.431C160.231 128.8 160.911 128.52 161.471 127.96C162.031 127.4 162.311 126.72 162.311 125.92V112.64ZM168.621 107.84C168.621 107.307 168.807 106.853 169.181 106.48C169.554 106.107 170.007 105.92 170.541 105.92H178.541C179.074 105.92 179.527 106.107 179.901 106.48C180.274 106.853 180.461 107.307 180.461 107.84C180.461 108.373 180.274 108.827 179.901 109.2C179.527 109.573 179.074 109.76 178.541 109.76H172.461V116.96H177.741C178.274 116.96 178.727 117.147 179.101 117.52C179.474 117.893 179.661 118.347 179.661 118.88C179.661 119.413 179.474 119.867 179.101 120.24C178.727 120.613 178.274 120.8 177.741 120.8H172.461V128.8H178.541C179.074 128.8 179.527 128.987 179.901 129.36C180.274 129.733 180.461 130.187 180.461 130.72C180.461 131.253 180.274 131.707 179.901 132.08C179.527 132.453 179.074 132.64 178.541 132.64H170.541C170.007 132.64 169.554 132.453 169.181 132.08C168.807 131.707 168.621 131.253 168.621 130.72V107.84ZM195.803 128.32C196.176 128.053 196.456 127.733 196.643 127.36C196.829 126.987 196.949 126.573 197.003 126.12C197.083 125.213 196.803 124.413 196.163 123.72L189.763 117.16C189.069 116.467 188.563 115.667 188.243 114.76C187.923 113.853 187.803 112.92 187.882 111.96C187.963 111 188.229 110.107 188.683 109.28C189.136 108.427 189.749 107.707 190.523 107.12C191.296 106.533 192.149 106.133 193.083 105.92C194.043 105.707 194.989 105.693 195.923 105.88C196.856 106.093 197.709 106.48 198.483 107.04C199.283 107.573 199.923 108.267 200.403 109.12C200.669 109.573 200.723 110.053 200.563 110.56C200.429 111.067 200.136 111.467 199.683 111.76C199.229 112.027 198.749 112.093 198.243 111.96C197.736 111.8 197.349 111.493 197.083 111.04C196.629 110.32 195.989 109.853 195.163 109.64C194.309 109.48 193.536 109.667 192.843 110.2C192.149 110.707 191.776 111.4 191.723 112.28C191.643 113.133 191.909 113.867 192.523 114.48L198.883 121.04C199.576 121.76 200.096 122.587 200.443 123.52C200.789 124.453 200.923 125.413 200.843 126.4C200.763 127.413 200.483 128.347 200.003 129.2C199.523 130.053 198.896 130.787 198.123 131.4C197.323 132.013 196.443 132.427 195.483 132.64C194.523 132.853 193.549 132.867 192.563 132.68C191.576 132.467 190.683 132.08 189.883 131.52C189.083 130.933 188.443 130.213 187.963 129.36C187.669 128.907 187.589 128.427 187.723 127.92C187.883 127.387 188.189 126.987 188.643 126.72C189.096 126.453 189.576 126.4 190.083 126.56C190.589 126.693 190.989 126.987 191.283 127.44C191.736 128.213 192.416 128.707 193.323 128.92C194.256 129.08 195.083 128.88 195.803 128.32ZM208.956 132.8C208.023 132.8 207.143 132.627 206.316 132.28C205.516 131.933 204.809 131.453 204.196 130.84C203.583 130.227 203.103 129.52 202.756 128.72C202.409 127.893 202.236 127.013 202.236 126.08V112.48C202.236 111.547 202.409 110.68 202.756 109.88C203.103 109.053 203.583 108.333 204.196 107.72C204.809 107.107 205.516 106.627 206.316 106.28C207.143 105.933 208.023 105.76 208.956 105.76C209.889 105.76 210.756 105.933 211.556 106.28C212.383 106.627 213.103 107.107 213.716 107.72C214.329 108.333 214.809 109.053 215.156 109.88C215.503 110.68 215.676 111.547 215.676 112.48V126.08C215.676 127.013 215.503 127.893 215.156 128.72C214.809 129.52 214.329 130.227 213.716 130.84C213.103 131.453 212.383 131.933 211.556 132.28C210.756 132.627 209.889 132.8 208.956 132.8ZM208.956 109.6C208.156 109.6 207.476 109.88 206.916 110.44C206.356 111 206.076 111.68 206.076 112.48V126.08C206.076 126.88 206.356 127.56 206.916 128.12C207.476 128.68 208.156 128.96 208.956 128.96C209.756 128.96 210.436 128.68 210.996 128.12C211.556 127.56 211.836 126.88 211.836 126.08V112.48C211.836 111.68 211.556 111 210.996 110.44C210.436 109.88 209.756 109.6 208.956 109.6ZM221.677 126.08C221.677 126.88 221.957 127.56 222.517 128.12C223.077 128.68 223.757 128.96 224.557 128.96C225.33 128.96 225.997 128.68 226.557 128.12C227.143 127.56 227.437 126.88 227.437 126.08V107.68C227.437 107.147 227.623 106.693 227.997 106.32C228.37 105.947 228.823 105.76 229.357 105.76C229.89 105.76 230.343 105.947 230.717 106.32C231.09 106.693 231.277 107.147 231.277 107.68V126.08C231.277 127.013 231.09 127.893 230.717 128.72C230.37 129.52 229.89 130.227 229.277 130.84C228.69 131.453 227.983 131.933 227.157 132.28C226.33 132.627 225.463 132.8 224.557 132.8C223.623 132.8 222.743 132.627 221.917 132.28C221.117 131.933 220.41 131.453 219.797 130.84C219.183 130.227 218.703 129.52 218.357 128.72C218.01 127.893 217.837 127.013 217.837 126.08V107.68C217.837 107.147 218.023 106.693 218.397 106.32C218.77 105.947 219.223 105.76 219.757 105.76C220.29 105.76 220.743 105.947 221.117 106.32C221.49 106.693 221.677 107.147 221.677 107.68V126.08ZM247.35 114.88C247.35 116.187 247.016 117.373 246.35 118.44C245.71 119.48 244.843 120.28 243.75 120.84L247.23 130.2C247.443 130.707 247.43 131.2 247.19 131.68C246.976 132.16 246.616 132.493 246.11 132.68C245.603 132.867 245.11 132.853 244.63 132.64C244.176 132.427 243.843 132.067 243.63 131.56L239.91 121.6H237.75V130.88C237.75 131.413 237.563 131.867 237.19 132.24C236.816 132.613 236.363 132.8 235.83 132.8C235.296 132.8 234.843 132.613 234.47 132.24C234.096 131.867 233.91 131.413 233.91 130.88V107.84C233.91 107.307 234.096 106.853 234.47 106.48C234.843 106.107 235.296 105.92 235.83 105.92H240.63C241.563 105.92 242.43 106.093 243.23 106.44C244.056 106.787 244.776 107.267 245.39 107.88C246.003 108.493 246.483 109.213 246.83 110.04C247.176 110.84 247.35 111.707 247.35 112.64V114.88ZM237.75 117.76H240.63C241.43 117.76 242.11 117.48 242.67 116.92C243.23 116.36 243.51 115.68 243.51 114.88V112.64C243.51 111.84 243.23 111.16 242.67 110.6C242.11 110.04 241.43 109.76 240.63 109.76H237.75V117.76ZM253.83 132.56C253.11 132.373 252.444 132.08 251.83 131.68C251.217 131.253 250.684 130.76 250.23 130.2C249.804 129.613 249.47 128.973 249.23 128.28C248.99 127.587 248.87 126.853 248.87 126.08V112.48C248.87 111.733 248.99 111.013 249.23 110.32C249.47 109.6 249.804 108.96 250.23 108.4C250.684 107.813 251.217 107.32 251.83 106.92C252.444 106.493 253.11 106.187 253.83 106C255.324 105.6 256.764 105.693 258.15 106.28C259.537 106.84 260.617 107.787 261.39 109.12C261.684 109.573 261.75 110.053 261.59 110.56C261.457 111.067 261.164 111.467 260.71 111.76C260.257 112.027 259.777 112.093 259.27 111.96C258.764 111.8 258.364 111.493 258.07 111.04C257.75 110.48 257.284 110.08 256.67 109.84C256.084 109.573 255.47 109.533 254.83 109.72C254.217 109.88 253.71 110.227 253.31 110.76C252.91 111.267 252.71 111.84 252.71 112.48V126.08C252.71 126.747 252.91 127.333 253.31 127.84C253.71 128.347 254.217 128.693 254.83 128.88C255.47 129.04 256.084 129 256.67 128.76C257.284 128.493 257.75 128.08 258.07 127.52C258.364 127.067 258.764 126.773 259.27 126.64C259.777 126.48 260.257 126.533 260.71 126.8C261.164 127.093 261.457 127.493 261.59 128C261.75 128.507 261.684 128.987 261.39 129.44C260.617 130.773 259.537 131.72 258.15 132.28C256.764 132.867 255.324 132.96 253.83 132.56ZM263.541 107.84C263.541 107.307 263.728 106.853 264.101 106.48C264.474 106.107 264.928 105.92 265.461 105.92H273.461C273.994 105.92 274.448 106.107 274.821 106.48C275.194 106.853 275.381 107.307 275.381 107.84C275.381 108.373 275.194 108.827 274.821 109.2C274.448 109.573 273.994 109.76 273.461 109.76H267.381V116.96H272.661C273.194 116.96 273.648 117.147 274.021 117.52C274.394 117.893 274.581 118.347 274.581 118.88C274.581 119.413 274.394 119.867 274.021 120.24C273.648 120.613 273.194 120.8 272.661 120.8H267.381V128.8H273.461C273.994 128.8 274.448 128.987 274.821 129.36C275.194 129.733 275.381 130.187 275.381 130.72C275.381 131.253 275.194 131.707 274.821 132.08C274.448 132.453 273.994 132.64 273.461 132.64H265.461C264.928 132.64 264.474 132.453 264.101 132.08C263.728 131.707 263.541 131.253 263.541 130.72V107.84Z" fill="#1C1B1B"/>
<path d="M5.50391 34.9996H26.5021L5.50391 51.4996V67.9996L46.0022 34.9996L66.5039 34.9995L5.50391 84.4998V100.5L67.5029 50.4998V66.9998L11.0029 111.792L20.0029 120L67.5029 82.9998V98.9998L33.0029 127L46.0022 132L67.5029 115" stroke="#1C1B1B" stroke-width="7" stroke-linecap="round" stroke-linejoin="round"/>
</svg>
