<svg width="450" height="152" viewBox="0 0 450 152" fill="none" xmlns="http://www.w3.org/2000/svg">
<path d="M132.245 95.44C131.045 95.44 130.025 95.02 129.185 94.18C128.345 93.34 127.925 92.32 127.925 91.12V39.28C127.925 38.08 128.345 37.06 129.185 36.22C130.025 35.38 131.045 34.96 132.245 34.96C133.445 34.96 134.465 35.38 135.305 36.22C136.145 37.06 136.565 38.08 136.565 39.28V86.8H150.245C151.445 86.8 152.465 87.22 153.305 88.06C154.145 88.9 154.565 89.92 154.565 91.12C154.565 92.32 154.145 93.34 153.305 94.18C152.465 95.02 151.445 95.44 150.245 95.44H132.245ZM192.514 90.31C192.814 91.51 192.664 92.62 192.064 93.64C191.524 94.66 190.684 95.32 189.544 95.62C188.344 95.92 187.234 95.77 186.214 95.17C185.194 94.63 184.534 93.79 184.234 92.65C183.994 91.93 183.754 91.06 183.514 90.04C183.274 89.2 182.974 88.21 182.614 87.07C182.314 85.87 181.984 84.58 181.624 83.2H166.324C165.904 84.58 165.544 85.87 165.244 87.07C164.944 88.21 164.674 89.2 164.434 90.04C164.194 91.06 163.954 91.93 163.714 92.65C163.414 93.79 162.754 94.63 161.734 95.17C160.714 95.77 159.604 95.92 158.404 95.62C157.264 95.32 156.394 94.66 155.794 93.64C155.254 92.62 155.134 91.51 155.434 90.31L169.834 38.11C170.074 37.15 170.554 36.4 171.274 35.86C172.054 35.26 172.954 34.96 173.974 34.96C174.994 34.96 175.864 35.26 176.584 35.86C177.364 36.4 177.874 37.15 178.114 38.11L192.514 90.31ZM179.194 74.56C178.354 71.44 177.484 68.23 176.584 64.93C175.684 61.63 174.814 58.51 173.974 55.57C173.134 58.51 172.264 61.63 171.364 64.93C170.464 68.23 169.594 71.44 168.754 74.56H179.194ZM236.796 35.32C237.996 35.32 239.016 35.74 239.856 36.58C240.696 37.42 241.116 38.44 241.116 39.64C241.116 40.84 240.696 41.86 239.856 42.7C239.016 43.54 237.996 43.96 236.796 43.96H229.416V91.48C229.416 92.68 228.996 93.7 228.156 94.54C227.316 95.38 226.296 95.8 225.096 95.8C223.896 95.8 222.876 95.38 222.036 94.54C221.196 93.7 220.776 92.68 220.776 91.48V43.96H213.396C212.196 43.96 211.176 43.54 210.336 42.7C209.496 41.86 209.076 40.84 209.076 39.64C209.076 38.44 209.496 37.42 210.336 36.58C211.176 35.74 212.196 35.32 213.396 35.32H236.796ZM274.406 55.48C274.406 58.42 273.656 61.09 272.156 63.49C270.716 65.83 268.766 67.63 266.306 68.89L274.136 89.95C274.616 91.09 274.586 92.2 274.046 93.28C273.566 94.36 272.756 95.11 271.616 95.53C270.476 95.95 269.366 95.92 268.286 95.44C267.266 94.96 266.516 94.15 266.036 93.01L257.666 70.6H252.806V91.48C252.806 92.68 252.386 93.7 251.546 94.54C250.706 95.38 249.686 95.8 248.486 95.8C247.286 95.8 246.266 95.38 245.426 94.54C244.586 93.7 244.166 92.68 244.166 91.48V39.64C244.166 38.44 244.586 37.42 245.426 36.58C246.266 35.74 247.286 35.32 248.486 35.32H259.286C261.386 35.32 263.336 35.71 265.136 36.49C266.996 37.27 268.616 38.35 269.996 39.73C271.376 41.11 272.456 42.73 273.236 44.59C274.016 46.39 274.406 48.34 274.406 50.44V55.48ZM252.806 61.96H259.286C261.086 61.96 262.616 61.33 263.876 60.07C265.136 58.81 265.766 57.28 265.766 55.48V50.44C265.766 48.64 265.136 47.11 263.876 45.85C262.616 44.59 261.086 43.96 259.286 43.96H252.806V61.96ZM312.207 90.31C312.507 91.51 312.357 92.62 311.757 93.64C311.217 94.66 310.377 95.32 309.237 95.62C308.037 95.92 306.927 95.77 305.907 95.17C304.887 94.63 304.227 93.79 303.927 92.65C303.687 91.93 303.447 91.06 303.207 90.04C302.967 89.2 302.667 88.21 302.307 87.07C302.007 85.87 301.677 84.58 301.317 83.2H286.017C285.597 84.58 285.237 85.87 284.937 87.07C284.637 88.21 284.367 89.2 284.127 90.04C283.887 91.06 283.647 91.93 283.407 92.65C283.107 93.79 282.447 94.63 281.427 95.17C280.407 95.77 279.297 95.92 278.097 95.62C276.957 95.32 276.087 94.66 275.487 93.64C274.947 92.62 274.827 91.51 275.127 90.31L289.527 38.11C289.767 37.15 290.247 36.4 290.967 35.86C291.747 35.26 292.647 34.96 293.667 34.96C294.687 34.96 295.557 35.26 296.277 35.86C297.057 36.4 297.567 37.15 297.807 38.11L312.207 90.31ZM298.887 74.56C298.047 71.44 297.177 68.23 296.277 64.93C295.377 61.63 294.507 58.51 293.667 55.57C292.827 58.51 291.957 61.63 291.057 64.93C290.157 68.23 289.287 71.44 288.447 74.56H298.887ZM345.565 95.71C344.545 95.95 343.585 95.83 342.685 95.35C341.785 94.93 341.125 94.27 340.705 93.37C338.905 89.53 337.015 85.6 335.035 81.58C333.355 78.16 331.495 74.38 329.455 70.24C327.475 66.1 325.555 62.08 323.695 58.18V91.48C323.695 92.68 323.275 93.7 322.435 94.54C321.595 95.38 320.575 95.8 319.375 95.8C318.175 95.8 317.155 95.38 316.315 94.54C315.475 93.7 315.055 92.68 315.055 91.48V39.28C315.055 38.26 315.355 37.36 315.955 36.58C316.555 35.8 317.365 35.29 318.385 35.05C319.405 34.81 320.335 34.93 321.175 35.41C322.075 35.83 322.765 36.49 323.245 37.39C325.045 41.23 326.935 45.16 328.915 49.18C330.595 52.6 332.425 56.38 334.405 60.52C336.385 64.66 338.335 68.68 340.255 72.58V39.28C340.255 38.08 340.675 37.06 341.515 36.22C342.355 35.38 343.375 34.96 344.575 34.96C345.775 34.96 346.795 35.38 347.635 36.22C348.475 37.06 348.895 38.08 348.895 39.28V91.48C348.895 92.5 348.565 93.4 347.905 94.18C347.305 94.96 346.525 95.47 345.565 95.71ZM371.707 85.72C372.547 85.12 373.177 84.4 373.597 83.56C374.017 82.72 374.287 81.79 374.407 80.77C374.587 78.73 373.957 76.93 372.517 75.37L358.117 60.61C356.557 59.05 355.417 57.25 354.697 55.21C353.977 53.17 353.707 51.07 353.887 48.91C354.067 46.75 354.667 44.74 355.687 42.88C356.707 40.96 358.087 39.34 359.827 38.02C361.567 36.7 363.487 35.8 365.587 35.32C367.747 34.84 369.877 34.81 371.977 35.23C374.077 35.71 375.997 36.58 377.737 37.84C379.537 39.04 380.977 40.6 382.057 42.52C382.657 43.54 382.777 44.62 382.417 45.76C382.117 46.9 381.457 47.8 380.437 48.46C379.417 49.06 378.337 49.21 377.197 48.91C376.057 48.55 375.187 47.86 374.587 46.84C373.567 45.22 372.127 44.17 370.267 43.69C368.347 43.33 366.607 43.75 365.047 44.95C363.487 46.09 362.647 47.65 362.527 49.63C362.347 51.55 362.947 53.2 364.327 54.58L378.637 69.34C380.197 70.96 381.367 72.82 382.147 74.92C382.927 77.02 383.227 79.18 383.047 81.4C382.867 83.68 382.237 85.78 381.157 87.7C380.077 89.62 378.667 91.27 376.927 92.65C375.127 94.03 373.147 94.96 370.987 95.44C368.827 95.92 366.637 95.95 364.417 95.53C362.197 95.05 360.187 94.18 358.387 92.92C356.587 91.6 355.147 89.98 354.067 88.06C353.407 87.04 353.227 85.96 353.527 84.82C353.887 83.62 354.577 82.72 355.597 82.12C356.617 81.52 357.697 81.4 358.837 81.76C359.977 82.06 360.877 82.72 361.537 83.74C362.557 85.48 364.087 86.59 366.127 87.07C368.227 87.43 370.087 86.98 371.707 85.72ZM391.582 95.44C390.382 95.44 389.362 95.02 388.522 94.18C387.682 93.34 387.262 92.32 387.262 91.12V39.64C387.262 38.44 387.682 37.42 388.522 36.58C389.362 35.74 390.382 35.32 391.582 35.32H409.582C410.782 35.32 411.802 35.74 412.642 36.58C413.482 37.42 413.902 38.44 413.902 39.64C413.902 40.84 413.482 41.86 412.642 42.7C411.802 43.54 410.782 43.96 409.582 43.96H395.902V60.16H407.782C408.982 60.16 410.002 60.58 410.842 61.42C411.682 62.26 412.102 63.28 412.102 64.48C412.102 65.68 411.682 66.7 410.842 67.54C410.002 68.38 408.982 68.8 407.782 68.8H395.902V91.12C395.902 92.32 395.482 93.34 394.642 94.18C393.802 95.02 392.782 95.44 391.582 95.44ZM431.034 95.8C428.934 95.8 426.954 95.41 425.094 94.63C423.294 93.85 421.704 92.77 420.324 91.39C418.944 90.01 417.864 88.42 417.084 86.62C416.304 84.76 415.914 82.78 415.914 80.68V50.08C415.914 47.98 416.304 46.03 417.084 44.23C417.864 42.37 418.944 40.75 420.324 39.37C421.704 37.99 423.294 36.91 425.094 36.13C426.954 35.35 428.934 34.96 431.034 34.96C433.134 34.96 435.084 35.35 436.884 36.13C438.744 36.91 440.364 37.99 441.744 39.37C443.124 40.75 444.204 42.37 444.984 44.23C445.764 46.03 446.154 47.98 446.154 50.08V80.68C446.154 82.78 445.764 84.76 444.984 86.62C444.204 88.42 443.124 90.01 441.744 91.39C440.364 92.77 438.744 93.85 436.884 94.63C435.084 95.41 433.134 95.8 431.034 95.8ZM431.034 43.6C429.234 43.6 427.704 44.23 426.444 45.49C425.184 46.75 424.554 48.28 424.554 50.08V80.68C424.554 82.48 425.184 84.01 426.444 85.27C427.704 86.53 429.234 87.16 431.034 87.16C432.834 87.16 434.364 86.53 435.624 85.27C436.884 84.01 437.514 82.48 437.514 80.68V50.08C437.514 48.28 436.884 46.75 435.624 45.49C434.364 44.23 432.834 43.6 431.034 43.6Z" fill="#1C1B1B"/>
<circle cx="140" cy="119" r="10" fill="#1C1B1B"/>
<path d="M161.56 132.56C160.84 132.373 160.173 132.08 159.56 131.68C158.947 131.253 158.413 130.76 157.96 130.2C157.533 129.613 157.2 128.973 156.96 128.28C156.72 127.587 156.6 126.853 156.6 126.08V112.48C156.6 111.733 156.72 111.013 156.96 110.32C157.2 109.6 157.533 108.96 157.96 108.4C158.413 107.813 158.947 107.32 159.56 106.92C160.173 106.493 160.84 106.187 161.56 106C163.053 105.6 164.493 105.693 165.88 106.28C167.267 106.84 168.347 107.787 169.12 109.12C169.413 109.573 169.48 110.053 169.32 110.56C169.187 111.067 168.893 111.467 168.44 111.76C167.987 112.027 167.507 112.093 167 111.96C166.493 111.8 166.093 111.493 165.8 111.04C165.48 110.48 165.013 110.08 164.4 109.84C163.813 109.573 163.2 109.533 162.56 109.72C161.947 109.88 161.44 110.227 161.04 110.76C160.64 111.267 160.44 111.84 160.44 112.48V126.08C160.44 126.747 160.64 127.333 161.04 127.84C161.44 128.347 161.947 128.693 162.56 128.88C163.2 129.04 163.813 129 164.4 128.76C165.013 128.493 165.48 128.08 165.8 127.52C166.093 127.067 166.493 126.773 167 126.64C167.507 126.48 167.987 126.533 168.44 126.8C168.893 127.093 169.187 127.493 169.32 128C169.48 128.507 169.413 128.987 169.12 129.44C168.347 130.773 167.267 131.72 165.88 132.28C164.493 132.867 163.053 132.96 161.56 132.56ZM177.511 132.8C176.577 132.8 175.697 132.627 174.871 132.28C174.071 131.933 173.364 131.453 172.751 130.84C172.137 130.227 171.657 129.52 171.311 128.72C170.964 127.893 170.791 127.013 170.791 126.08V112.48C170.791 111.547 170.964 110.68 171.311 109.88C171.657 109.053 172.137 108.333 172.751 107.72C173.364 107.107 174.071 106.627 174.871 106.28C175.697 105.933 176.577 105.76 177.511 105.76C178.444 105.76 179.311 105.933 180.111 106.28C180.937 106.627 181.657 107.107 182.271 107.72C182.884 108.333 183.364 109.053 183.711 109.88C184.057 110.68 184.231 111.547 184.231 112.48V126.08C184.231 127.013 184.057 127.893 183.711 128.72C183.364 129.52 182.884 130.227 182.271 130.84C181.657 131.453 180.937 131.933 180.111 132.28C179.311 132.627 178.444 132.8 177.511 132.8ZM177.511 109.6C176.711 109.6 176.031 109.88 175.471 110.44C174.911 111 174.631 111.68 174.631 112.48V126.08C174.631 126.88 174.911 127.56 175.471 128.12C176.031 128.68 176.711 128.96 177.511 128.96C178.311 128.96 178.991 128.68 179.551 128.12C180.111 127.56 180.391 126.88 180.391 126.08V112.48C180.391 111.68 180.111 111 179.551 110.44C178.991 109.88 178.311 109.6 177.511 109.6ZM193.431 105.92C194.365 105.92 195.231 106.093 196.031 106.44C196.858 106.787 197.578 107.267 198.191 107.88C198.805 108.493 199.285 109.213 199.631 110.04C199.978 110.84 200.151 111.707 200.151 112.64V125.92C200.151 126.853 199.978 127.733 199.631 128.56C199.285 129.36 198.805 130.067 198.191 130.68C197.578 131.293 196.858 131.773 196.031 132.12C195.231 132.467 194.365 132.64 193.431 132.64H188.631C188.098 132.64 187.645 132.453 187.271 132.08C186.898 131.707 186.711 131.253 186.711 130.72V107.84C186.711 107.307 186.898 106.853 187.271 106.48C187.645 106.107 188.098 105.92 188.631 105.92H193.431ZM196.311 112.64C196.311 111.84 196.031 111.16 195.471 110.6C194.911 110.04 194.231 109.76 193.431 109.76H190.551V128.8H193.431C194.231 128.8 194.911 128.52 195.471 127.96C196.031 127.4 196.311 126.72 196.311 125.92V112.64ZM202.621 107.84C202.621 107.307 202.807 106.853 203.181 106.48C203.554 106.107 204.007 105.92 204.541 105.92H212.541C213.074 105.92 213.527 106.107 213.901 106.48C214.274 106.853 214.461 107.307 214.461 107.84C214.461 108.373 214.274 108.827 213.901 109.2C213.527 109.573 213.074 109.76 212.541 109.76H206.461V116.96H211.741C212.274 116.96 212.727 117.147 213.101 117.52C213.474 117.893 213.661 118.347 213.661 118.88C213.661 119.413 213.474 119.867 213.101 120.24C212.727 120.613 212.274 120.8 211.741 120.8H206.461V128.8H212.541C213.074 128.8 213.527 128.987 213.901 129.36C214.274 129.733 214.461 130.187 214.461 130.72C214.461 131.253 214.274 131.707 213.901 132.08C213.527 132.453 213.074 132.64 212.541 132.64H204.541C204.007 132.64 203.554 132.453 203.181 132.08C202.807 131.707 202.621 131.253 202.621 130.72V107.84ZM229.803 128.32C230.176 128.053 230.456 127.733 230.643 127.36C230.829 126.987 230.949 126.573 231.003 126.12C231.083 125.213 230.803 124.413 230.163 123.72L223.763 117.16C223.069 116.467 222.563 115.667 222.243 114.76C221.923 113.853 221.803 112.92 221.882 111.96C221.963 111 222.229 110.107 222.683 109.28C223.136 108.427 223.749 107.707 224.523 107.12C225.296 106.533 226.149 106.133 227.083 105.92C228.043 105.707 228.989 105.693 229.923 105.88C230.856 106.093 231.709 106.48 232.483 107.04C233.283 107.573 233.923 108.267 234.403 109.12C234.669 109.573 234.723 110.053 234.563 110.56C234.429 111.067 234.136 111.467 233.683 111.76C233.229 112.027 232.749 112.093 232.243 111.96C231.736 111.8 231.349 111.493 231.083 111.04C230.629 110.32 229.989 109.853 229.163 109.64C228.309 109.48 227.536 109.667 226.843 110.2C226.149 110.707 225.776 111.4 225.723 112.28C225.643 113.133 225.909 113.867 226.523 114.48L232.883 121.04C233.576 121.76 234.096 122.587 234.443 123.52C234.789 124.453 234.923 125.413 234.843 126.4C234.763 127.413 234.483 128.347 234.003 129.2C233.523 130.053 232.896 130.787 232.123 131.4C231.323 132.013 230.443 132.427 229.483 132.64C228.523 132.853 227.549 132.867 226.563 132.68C225.576 132.467 224.683 132.08 223.883 131.52C223.083 130.933 222.443 130.213 221.963 129.36C221.669 128.907 221.589 128.427 221.723 127.92C221.883 127.387 222.189 126.987 222.643 126.72C223.096 126.453 223.576 126.4 224.083 126.56C224.589 126.693 224.989 126.987 225.283 127.44C225.736 128.213 226.416 128.707 227.323 128.92C228.256 129.08 229.083 128.88 229.803 128.32ZM242.956 132.8C242.023 132.8 241.143 132.627 240.316 132.28C239.516 131.933 238.809 131.453 238.196 130.84C237.583 130.227 237.103 129.52 236.756 128.72C236.409 127.893 236.236 127.013 236.236 126.08V112.48C236.236 111.547 236.409 110.68 236.756 109.88C237.103 109.053 237.583 108.333 238.196 107.72C238.809 107.107 239.516 106.627 240.316 106.28C241.143 105.933 242.023 105.76 242.956 105.76C243.889 105.76 244.756 105.933 245.556 106.28C246.383 106.627 247.103 107.107 247.716 107.72C248.329 108.333 248.809 109.053 249.156 109.88C249.503 110.68 249.676 111.547 249.676 112.48V126.08C249.676 127.013 249.503 127.893 249.156 128.72C248.809 129.52 248.329 130.227 247.716 130.84C247.103 131.453 246.383 131.933 245.556 132.28C244.756 132.627 243.889 132.8 242.956 132.8ZM242.956 109.6C242.156 109.6 241.476 109.88 240.916 110.44C240.356 111 240.076 111.68 240.076 112.48V126.08C240.076 126.88 240.356 127.56 240.916 128.12C241.476 128.68 242.156 128.96 242.956 128.96C243.756 128.96 244.436 128.68 244.996 128.12C245.556 127.56 245.836 126.88 245.836 126.08V112.48C245.836 111.68 245.556 111 244.996 110.44C244.436 109.88 243.756 109.6 242.956 109.6ZM255.677 126.08C255.677 126.88 255.957 127.56 256.517 128.12C257.077 128.68 257.757 128.96 258.557 128.96C259.33 128.96 259.997 128.68 260.557 128.12C261.143 127.56 261.437 126.88 261.437 126.08V107.68C261.437 107.147 261.623 106.693 261.997 106.32C262.37 105.947 262.823 105.76 263.357 105.76C263.89 105.76 264.343 105.947 264.717 106.32C265.09 106.693 265.277 107.147 265.277 107.68V126.08C265.277 127.013 265.09 127.893 264.717 128.72C264.37 129.52 263.89 130.227 263.277 130.84C262.69 131.453 261.983 131.933 261.157 132.28C260.33 132.627 259.463 132.8 258.557 132.8C257.623 132.8 256.743 132.627 255.917 132.28C255.117 131.933 254.41 131.453 253.797 130.84C253.183 130.227 252.703 129.52 252.357 128.72C252.01 127.893 251.837 127.013 251.837 126.08V107.68C251.837 107.147 252.023 106.693 252.397 106.32C252.77 105.947 253.223 105.76 253.757 105.76C254.29 105.76 254.743 105.947 255.117 106.32C255.49 106.693 255.677 107.147 255.677 107.68V126.08ZM281.35 114.88C281.35 116.187 281.016 117.373 280.35 118.44C279.71 119.48 278.843 120.28 277.75 120.84L281.23 130.2C281.443 130.707 281.43 131.2 281.19 131.68C280.976 132.16 280.616 132.493 280.11 132.68C279.603 132.867 279.11 132.853 278.63 132.64C278.176 132.427 277.843 132.067 277.63 131.56L273.91 121.6H271.75V130.88C271.75 131.413 271.563 131.867 271.19 132.24C270.816 132.613 270.363 132.8 269.83 132.8C269.296 132.8 268.843 132.613 268.47 132.24C268.096 131.867 267.91 131.413 267.91 130.88V107.84C267.91 107.307 268.096 106.853 268.47 106.48C268.843 106.107 269.296 105.92 269.83 105.92H274.63C275.563 105.92 276.43 106.093 277.23 106.44C278.056 106.787 278.776 107.267 279.39 107.88C280.003 108.493 280.483 109.213 280.83 110.04C281.176 110.84 281.35 111.707 281.35 112.64V114.88ZM271.75 117.76H274.63C275.43 117.76 276.11 117.48 276.67 116.92C277.23 116.36 277.51 115.68 277.51 114.88V112.64C277.51 111.84 277.23 111.16 276.67 110.6C276.11 110.04 275.43 109.76 274.63 109.76H271.75V117.76ZM287.83 132.56C287.11 132.373 286.444 132.08 285.83 131.68C285.217 131.253 284.684 130.76 284.23 130.2C283.804 129.613 283.47 128.973 283.23 128.28C282.99 127.587 282.87 126.853 282.87 126.08V112.48C282.87 111.733 282.99 111.013 283.23 110.32C283.47 109.6 283.804 108.96 284.23 108.4C284.684 107.813 285.217 107.32 285.83 106.92C286.444 106.493 287.11 106.187 287.83 106C289.324 105.6 290.764 105.693 292.15 106.28C293.537 106.84 294.617 107.787 295.39 109.12C295.684 109.573 295.75 110.053 295.59 110.56C295.457 111.067 295.164 111.467 294.71 111.76C294.257 112.027 293.777 112.093 293.27 111.96C292.764 111.8 292.364 111.493 292.07 111.04C291.75 110.48 291.284 110.08 290.67 109.84C290.084 109.573 289.47 109.533 288.83 109.72C288.217 109.88 287.71 110.227 287.31 110.76C286.91 111.267 286.71 111.84 286.71 112.48V126.08C286.71 126.747 286.91 127.333 287.31 127.84C287.71 128.347 288.217 128.693 288.83 128.88C289.47 129.04 290.084 129 290.67 128.76C291.284 128.493 291.75 128.08 292.07 127.52C292.364 127.067 292.764 126.773 293.27 126.64C293.777 126.48 294.257 126.533 294.71 126.8C295.164 127.093 295.457 127.493 295.59 128C295.75 128.507 295.684 128.987 295.39 129.44C294.617 130.773 293.537 131.72 292.15 132.28C290.764 132.867 289.324 132.96 287.83 132.56ZM297.541 107.84C297.541 107.307 297.728 106.853 298.101 106.48C298.474 106.107 298.928 105.92 299.461 105.92H307.461C307.994 105.92 308.448 106.107 308.821 106.48C309.194 106.853 309.381 107.307 309.381 107.84C309.381 108.373 309.194 108.827 308.821 109.2C308.448 109.573 307.994 109.76 307.461 109.76H301.381V116.96H306.661C307.194 116.96 307.648 117.147 308.021 117.52C308.394 117.893 308.581 118.347 308.581 118.88C308.581 119.413 308.394 119.867 308.021 120.24C307.648 120.613 307.194 120.8 306.661 120.8H301.381V128.8H307.461C307.994 128.8 308.448 128.987 308.821 129.36C309.194 129.733 309.381 130.187 309.381 130.72C309.381 131.253 309.194 131.707 308.821 132.08C308.448 132.453 307.994 132.64 307.461 132.64H299.461C298.928 132.64 298.474 132.453 298.101 132.08C297.728 131.707 297.541 131.253 297.541 130.72V107.84Z" fill="#1C1B1B"/>
<path d="M39.503 34.9996L60.5012 34.9996L39.503 51.4996L39.503 67.9996L80.0013 34.9996L100.503 34.9995L39.503 84.4998L39.503 100.5L101.502 50.4998L101.502 66.9998L45.002 111.792L54.002 120L101.502 82.9998L101.502 98.9998L67.002 127L80.0013 132L101.502 115" stroke="#1C1B1B" stroke-width="7" stroke-linecap="round" stroke-linejoin="round"/>
</svg>
