<svg width="416" height="152" viewBox="0 0 416 152" fill="none" xmlns="http://www.w3.org/2000/svg">
<path d="M98.2458 95.4402C97.0458 95.4402 96.0258 95.0202 95.1858 94.1802C94.3458 93.3402 93.9258 92.3202 93.9258 91.1202V39.2802C93.9258 38.0802 94.3458 37.0602 95.1858 36.2202C96.0258 35.3802 97.0458 34.9602 98.2458 34.9602C99.4458 34.9602 100.466 35.3802 101.306 36.2202C102.146 37.0602 102.566 38.0802 102.566 39.2802V86.8002H116.246C117.446 86.8002 118.466 87.2202 119.306 88.0602C120.146 88.9002 120.566 89.9202 120.566 91.1202C120.566 92.3202 120.146 93.3402 119.306 94.1802C118.466 95.0202 117.446 95.4402 116.246 95.4402H98.2458ZM158.515 90.3102C158.815 91.5102 158.665 92.6202 158.065 93.6402C157.525 94.6602 156.685 95.3202 155.545 95.6202C154.345 95.9202 153.235 95.7702 152.215 95.1702C151.195 94.6302 150.535 93.7902 150.235 92.6502C149.995 91.9302 149.755 91.0602 149.515 90.0402C149.275 89.2002 148.975 88.2102 148.615 87.0702C148.315 85.8702 147.985 84.5802 147.625 83.2002H132.325C131.905 84.5802 131.545 85.8702 131.245 87.0702C130.945 88.2102 130.675 89.2002 130.435 90.0402C130.195 91.0602 129.955 91.9302 129.715 92.6502C129.415 93.7902 128.755 94.6302 127.735 95.1702C126.715 95.7702 125.605 95.9202 124.405 95.6202C123.265 95.3202 122.395 94.6602 121.795 93.6402C121.255 92.6202 121.135 91.5102 121.435 90.3102L135.835 38.1102C136.075 37.1502 136.555 36.4002 137.275 35.8602C138.055 35.2602 138.955 34.9602 139.975 34.9602C140.995 34.9602 141.865 35.2602 142.585 35.8602C143.365 36.4002 143.875 37.1502 144.115 38.1102L158.515 90.3102ZM145.195 74.5602C144.355 71.4402 143.485 68.2302 142.585 64.9302C141.685 61.6302 140.815 58.5102 139.975 55.5702C139.135 58.5102 138.265 61.6302 137.365 64.9302C136.465 68.2302 135.595 71.4402 134.755 74.5602H145.195ZM202.797 35.3202C203.997 35.3202 205.017 35.7402 205.857 36.5802C206.697 37.4202 207.117 38.4402 207.117 39.6402C207.117 40.8402 206.697 41.8602 205.857 42.7002C205.017 43.5402 203.997 43.9602 202.797 43.9602H195.417V91.4802C195.417 92.6802 194.997 93.7002 194.157 94.5402C193.317 95.3802 192.297 95.8002 191.097 95.8002C189.897 95.8002 188.877 95.3802 188.037 94.5402C187.197 93.7002 186.777 92.6802 186.777 91.4802V43.9602H179.397C178.197 43.9602 177.177 43.5402 176.337 42.7002C175.497 41.8602 175.077 40.8402 175.077 39.6402C175.077 38.4402 175.497 37.4202 176.337 36.5802C177.177 35.7402 178.197 35.3202 179.397 35.3202H202.797ZM240.407 55.4802C240.407 58.4202 239.657 61.0902 238.157 63.4902C236.717 65.8302 234.767 67.6302 232.307 68.8902L240.137 89.9502C240.617 91.0902 240.587 92.2002 240.047 93.2802C239.567 94.3602 238.757 95.1102 237.617 95.5302C236.477 95.9502 235.367 95.9202 234.287 95.4402C233.267 94.9602 232.517 94.1502 232.037 93.0102L223.667 70.6002H218.807V91.4802C218.807 92.6802 218.387 93.7002 217.547 94.5402C216.707 95.3802 215.687 95.8002 214.487 95.8002C213.287 95.8002 212.267 95.3802 211.427 94.5402C210.587 93.7002 210.167 92.6802 210.167 91.4802V39.6402C210.167 38.4402 210.587 37.4202 211.427 36.5802C212.267 35.7402 213.287 35.3202 214.487 35.3202H225.287C227.387 35.3202 229.337 35.7102 231.137 36.4902C232.997 37.2702 234.617 38.3502 235.997 39.7302C237.377 41.1102 238.457 42.7302 239.237 44.5902C240.017 46.3902 240.407 48.3402 240.407 50.4402V55.4802ZM218.807 61.9602H225.287C227.087 61.9602 228.617 61.3302 229.877 60.0702C231.137 58.8102 231.767 57.2802 231.767 55.4802V50.4402C231.767 48.6402 231.137 47.1102 229.877 45.8502C228.617 44.5902 227.087 43.9602 225.287 43.9602H218.807V61.9602ZM278.208 90.3102C278.508 91.5102 278.358 92.6202 277.758 93.6402C277.218 94.6602 276.378 95.3202 275.238 95.6202C274.038 95.9202 272.928 95.7702 271.908 95.1702C270.888 94.6302 270.228 93.7902 269.928 92.6502C269.688 91.9302 269.448 91.0602 269.208 90.0402C268.968 89.2002 268.668 88.2102 268.308 87.0702C268.008 85.8702 267.678 84.5802 267.318 83.2002H252.018C251.598 84.5802 251.238 85.8702 250.938 87.0702C250.638 88.2102 250.368 89.2002 250.128 90.0402C249.888 91.0602 249.648 91.9302 249.408 92.6502C249.108 93.7902 248.448 94.6302 247.428 95.1702C246.408 95.7702 245.298 95.9202 244.098 95.6202C242.958 95.3202 242.088 94.6602 241.488 93.6402C240.948 92.6202 240.828 91.5102 241.128 90.3102L255.528 38.1102C255.768 37.1502 256.248 36.4002 256.968 35.8602C257.748 35.2602 258.648 34.9602 259.668 34.9602C260.688 34.9602 261.558 35.2602 262.278 35.8602C263.058 36.4002 263.568 37.1502 263.808 38.1102L278.208 90.3102ZM264.888 74.5602C264.048 71.4402 263.178 68.2302 262.278 64.9302C261.378 61.6302 260.508 58.5102 259.668 55.5702C258.828 58.5102 257.958 61.6302 257.058 64.9302C256.158 68.2302 255.288 71.4402 254.448 74.5602H264.888ZM311.566 95.7102C310.546 95.9502 309.586 95.8302 308.686 95.3502C307.786 94.9302 307.126 94.2702 306.706 93.3702C304.906 89.5302 303.016 85.6002 301.036 81.5802C299.356 78.1602 297.496 74.3802 295.456 70.2402C293.476 66.1002 291.556 62.0802 289.696 58.1802V91.4802C289.696 92.6802 289.276 93.7002 288.436 94.5402C287.596 95.3802 286.576 95.8002 285.376 95.8002C284.176 95.8002 283.156 95.3802 282.316 94.5402C281.476 93.7002 281.056 92.6802 281.056 91.4802V39.2802C281.056 38.2602 281.356 37.3602 281.956 36.5802C282.556 35.8002 283.366 35.2902 284.386 35.0502C285.406 34.8102 286.336 34.9302 287.176 35.4102C288.076 35.8302 288.766 36.4902 289.246 37.3902C291.046 41.2302 292.936 45.1602 294.916 49.1802C296.596 52.6002 298.426 56.3802 300.406 60.5202C302.386 64.6602 304.336 68.6802 306.256 72.5802V39.2802C306.256 38.0802 306.676 37.0602 307.516 36.2202C308.356 35.3802 309.376 34.9602 310.576 34.9602C311.776 34.9602 312.796 35.3802 313.636 36.2202C314.476 37.0602 314.896 38.0802 314.896 39.2802V91.4802C314.896 92.5002 314.566 93.4002 313.906 94.1802C313.306 94.9602 312.526 95.4702 311.566 95.7102ZM337.708 85.7202C338.548 85.1202 339.178 84.4002 339.598 83.5602C340.018 82.7202 340.288 81.7902 340.408 80.7702C340.588 78.7302 339.958 76.9302 338.518 75.3702L324.118 60.6102C322.558 59.0502 321.418 57.2502 320.698 55.2102C319.978 53.1702 319.708 51.0702 319.888 48.9102C320.068 46.7502 320.668 44.7402 321.688 42.8802C322.708 40.9602 324.088 39.3402 325.828 38.0202C327.568 36.7002 329.488 35.8002 331.588 35.3202C333.748 34.8402 335.878 34.8102 337.978 35.2302C340.078 35.7102 341.998 36.5802 343.738 37.8402C345.538 39.0402 346.978 40.6002 348.058 42.5202C348.658 43.5402 348.778 44.6202 348.418 45.7602C348.118 46.9002 347.458 47.8002 346.438 48.4602C345.418 49.0602 344.338 49.2102 343.198 48.9102C342.058 48.5502 341.188 47.8602 340.588 46.8402C339.568 45.2202 338.128 44.1702 336.268 43.6902C334.348 43.3302 332.608 43.7502 331.048 44.9502C329.488 46.0902 328.648 47.6502 328.528 49.6302C328.348 51.5502 328.948 53.2002 330.328 54.5802L344.638 69.3402C346.198 70.9602 347.368 72.8202 348.148 74.9202C348.928 77.0202 349.228 79.1802 349.048 81.4002C348.868 83.6802 348.238 85.7802 347.158 87.7002C346.078 89.6202 344.668 91.2702 342.928 92.6502C341.128 94.0302 339.148 94.9602 336.988 95.4402C334.828 95.9202 332.638 95.9502 330.418 95.5302C328.198 95.0502 326.188 94.1802 324.388 92.9202C322.588 91.6002 321.148 89.9802 320.068 88.0602C319.408 87.0402 319.228 85.9602 319.528 84.8202C319.888 83.6202 320.578 82.7202 321.598 82.1202C322.618 81.5202 323.698 81.4002 324.838 81.7602C325.978 82.0602 326.878 82.7202 327.538 83.7402C328.558 85.4802 330.088 86.5902 332.128 87.0702C334.228 87.4302 336.088 86.9802 337.708 85.7202ZM357.583 95.4402C356.383 95.4402 355.363 95.0202 354.523 94.1802C353.683 93.3402 353.263 92.3202 353.263 91.1202V39.6402C353.263 38.4402 353.683 37.4202 354.523 36.5802C355.363 35.7402 356.383 35.3202 357.583 35.3202H375.583C376.783 35.3202 377.803 35.7402 378.643 36.5802C379.483 37.4202 379.903 38.4402 379.903 39.6402C379.903 40.8402 379.483 41.8602 378.643 42.7002C377.803 43.5402 376.783 43.9602 375.583 43.9602H361.903V60.1602H373.783C374.983 60.1602 376.003 60.5802 376.843 61.4202C377.683 62.2602 378.103 63.2802 378.103 64.4802C378.103 65.6802 377.683 66.7002 376.843 67.5402C376.003 68.3802 374.983 68.8002 373.783 68.8002H361.903V91.1202C361.903 92.3202 361.483 93.3402 360.643 94.1802C359.803 95.0202 358.783 95.4402 357.583 95.4402ZM397.035 95.8002C394.935 95.8002 392.955 95.4102 391.095 94.6302C389.295 93.8502 387.705 92.7702 386.325 91.3902C384.945 90.0102 383.865 88.4202 383.085 86.6202C382.305 84.7602 381.915 82.7802 381.915 80.6802V50.0802C381.915 47.9802 382.305 46.0302 383.085 44.2302C383.865 42.3702 384.945 40.7502 386.325 39.3702C387.705 37.9902 389.295 36.9102 391.095 36.1302C392.955 35.3502 394.935 34.9602 397.035 34.9602C399.135 34.9602 401.085 35.3502 402.885 36.1302C404.745 36.9102 406.365 37.9902 407.745 39.3702C409.125 40.7502 410.205 42.3702 410.985 44.2302C411.765 46.0302 412.155 47.9802 412.155 50.0802V80.6802C412.155 82.7802 411.765 84.7602 410.985 86.6202C410.205 88.4202 409.125 90.0102 407.745 91.3902C406.365 92.7702 404.745 93.8502 402.885 94.6302C401.085 95.4102 399.135 95.8002 397.035 95.8002ZM397.035 43.6002C395.235 43.6002 393.705 44.2302 392.445 45.4902C391.185 46.7502 390.555 48.2802 390.555 50.0802V80.6802C390.555 82.4802 391.185 84.0102 392.445 85.2702C393.705 86.5302 395.235 87.1602 397.035 87.1602C398.835 87.1602 400.365 86.5302 401.625 85.2702C402.885 84.0102 403.515 82.4802 403.515 80.6802V50.0802C403.515 48.2802 402.885 46.7502 401.625 45.4902C400.365 44.2302 398.835 43.6002 397.035 43.6002Z" fill="#1C1B1B"/>
<path d="M106 129C111.523 129 116 124.523 116 119C116 113.477 111.523 109 106 109C100.477 109 96 113.477 96 119C96 124.523 100.477 129 106 129Z" fill="#1C1B1B"/>
<path d="M127.56 132.56C126.84 132.373 126.173 132.08 125.56 131.68C124.947 131.253 124.413 130.76 123.96 130.2C123.533 129.613 123.2 128.973 122.96 128.28C122.72 127.587 122.6 126.853 122.6 126.08V112.48C122.6 111.733 122.72 111.013 122.96 110.32C123.2 109.6 123.533 108.96 123.96 108.4C124.413 107.813 124.947 107.32 125.56 106.92C126.173 106.493 126.84 106.187 127.56 106C129.053 105.6 130.493 105.693 131.88 106.28C133.267 106.84 134.347 107.787 135.12 109.12C135.413 109.573 135.48 110.053 135.32 110.56C135.187 111.067 134.893 111.467 134.44 111.76C133.987 112.027 133.507 112.093 133 111.96C132.493 111.8 132.093 111.493 131.8 111.04C131.48 110.48 131.013 110.08 130.4 109.84C129.813 109.573 129.2 109.533 128.56 109.72C127.947 109.88 127.44 110.227 127.04 110.76C126.64 111.267 126.44 111.84 126.44 112.48V126.08C126.44 126.747 126.64 127.333 127.04 127.84C127.44 128.347 127.947 128.693 128.56 128.88C129.2 129.04 129.813 129 130.4 128.76C131.013 128.493 131.48 128.08 131.8 127.52C132.093 127.067 132.493 126.773 133 126.64C133.507 126.48 133.987 126.533 134.44 126.8C134.893 127.093 135.187 127.493 135.32 128C135.48 128.507 135.413 128.987 135.12 129.44C134.347 130.773 133.267 131.72 131.88 132.28C130.493 132.867 129.053 132.96 127.56 132.56ZM143.511 132.8C142.577 132.8 141.697 132.627 140.871 132.28C140.071 131.933 139.364 131.453 138.751 130.84C138.137 130.227 137.657 129.52 137.311 128.72C136.964 127.893 136.791 127.013 136.791 126.08V112.48C136.791 111.547 136.964 110.68 137.311 109.88C137.657 109.053 138.137 108.333 138.751 107.72C139.364 107.107 140.071 106.627 140.871 106.28C141.697 105.933 142.577 105.76 143.511 105.76C144.444 105.76 145.311 105.933 146.111 106.28C146.937 106.627 147.657 107.107 148.271 107.72C148.884 108.333 149.364 109.053 149.711 109.88C150.057 110.68 150.231 111.547 150.231 112.48V126.08C150.231 127.013 150.057 127.893 149.711 128.72C149.364 129.52 148.884 130.227 148.271 130.84C147.657 131.453 146.937 131.933 146.111 132.28C145.311 132.627 144.444 132.8 143.511 132.8ZM143.511 109.6C142.711 109.6 142.031 109.88 141.471 110.44C140.911 111 140.631 111.68 140.631 112.48V126.08C140.631 126.88 140.911 127.56 141.471 128.12C142.031 128.68 142.711 128.96 143.511 128.96C144.311 128.96 144.991 128.68 145.551 128.12C146.111 127.56 146.391 126.88 146.391 126.08V112.48C146.391 111.68 146.111 111 145.551 110.44C144.991 109.88 144.311 109.6 143.511 109.6ZM156.231 126.08C156.231 126.88 156.511 127.56 157.071 128.12C157.631 128.68 158.311 128.96 159.111 128.96C159.885 128.96 160.551 128.68 161.111 128.12C161.698 127.56 161.991 126.88 161.991 126.08V107.68C161.991 107.147 162.178 106.693 162.551 106.32C162.925 105.947 163.378 105.76 163.911 105.76C164.445 105.76 164.898 105.947 165.271 106.32C165.645 106.693 165.831 107.147 165.831 107.68V126.08C165.831 127.013 165.645 127.893 165.271 128.72C164.925 129.52 164.445 130.227 163.831 130.84C163.245 131.453 162.538 131.933 161.711 132.28C160.885 132.627 160.018 132.8 159.111 132.8C158.178 132.8 157.298 132.627 156.471 132.28C155.671 131.933 154.965 131.453 154.351 130.84C153.738 130.227 153.258 129.52 152.911 128.72C152.565 127.893 152.391 127.013 152.391 126.08V107.68C152.391 107.147 152.578 106.693 152.951 106.32C153.325 105.947 153.778 105.76 154.311 105.76C154.845 105.76 155.298 105.947 155.671 106.32C156.045 106.693 156.231 107.147 156.231 107.68V126.08ZM175.624 128.32C175.998 128.053 176.278 127.733 176.464 127.36C176.651 126.987 176.771 126.573 176.824 126.12C176.904 125.213 176.624 124.413 175.984 123.72L169.584 117.16C168.891 116.467 168.384 115.667 168.064 114.76C167.744 113.853 167.624 112.92 167.704 111.96C167.784 111 168.051 110.107 168.504 109.28C168.958 108.427 169.571 107.707 170.344 107.12C171.118 106.533 171.971 106.133 172.904 105.92C173.864 105.707 174.811 105.693 175.744 105.88C176.678 106.093 177.531 106.48 178.304 107.04C179.104 107.573 179.744 108.267 180.224 109.12C180.491 109.573 180.544 110.053 180.384 110.56C180.251 111.067 179.958 111.467 179.504 111.76C179.051 112.027 178.571 112.093 178.064 111.96C177.558 111.8 177.171 111.493 176.904 111.04C176.451 110.32 175.811 109.853 174.984 109.64C174.131 109.48 173.358 109.667 172.664 110.2C171.971 110.707 171.598 111.4 171.544 112.28C171.464 113.133 171.731 113.867 172.344 114.48L178.704 121.04C179.398 121.76 179.918 122.587 180.264 123.52C180.611 124.453 180.744 125.413 180.664 126.4C180.584 127.413 180.304 128.347 179.824 129.2C179.344 130.053 178.718 130.787 177.944 131.4C177.144 132.013 176.264 132.427 175.304 132.64C174.344 132.853 173.371 132.867 172.384 132.68C171.398 132.467 170.504 132.08 169.704 131.52C168.904 130.933 168.264 130.213 167.784 129.36C167.491 128.907 167.411 128.427 167.544 127.92C167.704 127.387 168.011 126.987 168.464 126.72C168.918 126.453 169.398 126.4 169.904 126.56C170.411 126.693 170.811 126.987 171.104 127.44C171.558 128.213 172.238 128.707 173.144 128.92C174.078 129.08 174.904 128.88 175.624 128.32ZM184.458 132.8C183.924 132.8 183.471 132.613 183.098 132.24C182.724 131.867 182.538 131.413 182.538 130.88V107.68C182.538 107.147 182.724 106.693 183.098 106.32C183.471 105.947 183.924 105.76 184.458 105.76C184.991 105.76 185.444 105.947 185.818 106.32C186.191 106.693 186.378 107.147 186.378 107.68V130.88C186.378 131.413 186.191 131.867 185.818 132.24C185.444 132.613 184.991 132.8 184.458 132.8ZM202.906 132.76C202.452 132.867 202.026 132.813 201.626 132.6C201.226 132.413 200.932 132.12 200.746 131.72C199.946 130.013 199.106 128.267 198.226 126.48C197.479 124.96 196.652 123.28 195.746 121.44C194.866 119.6 194.012 117.813 193.186 116.08V130.88C193.186 131.413 192.999 131.867 192.626 132.24C192.252 132.613 191.799 132.8 191.266 132.8C190.732 132.8 190.279 132.613 189.906 132.24C189.532 131.867 189.346 131.413 189.346 130.88V107.68C189.346 107.227 189.479 106.827 189.746 106.48C190.012 106.133 190.372 105.907 190.826 105.8C191.279 105.693 191.692 105.747 192.066 105.96C192.466 106.147 192.772 106.44 192.986 106.84C193.786 108.547 194.626 110.293 195.506 112.08C196.252 113.6 197.066 115.28 197.946 117.12C198.826 118.96 199.692 120.747 200.546 122.48V107.68C200.546 107.147 200.732 106.693 201.106 106.32C201.479 105.947 201.932 105.76 202.466 105.76C202.999 105.76 203.452 105.947 203.826 106.32C204.199 106.693 204.386 107.147 204.386 107.68V130.88C204.386 131.333 204.239 131.733 203.946 132.08C203.679 132.427 203.332 132.653 202.906 132.76ZM214.524 128.32C214.898 128.053 215.178 127.733 215.364 127.36C215.551 126.987 215.671 126.573 215.724 126.12C215.804 125.213 215.524 124.413 214.884 123.72L208.484 117.16C207.791 116.467 207.284 115.667 206.964 114.76C206.644 113.853 206.524 112.92 206.604 111.96C206.684 111 206.951 110.107 207.404 109.28C207.858 108.427 208.471 107.707 209.244 107.12C210.018 106.533 210.871 106.133 211.804 105.92C212.764 105.707 213.711 105.693 214.644 105.88C215.578 106.093 216.431 106.48 217.204 107.04C218.004 107.573 218.644 108.267 219.124 109.12C219.391 109.573 219.444 110.053 219.284 110.56C219.151 111.067 218.858 111.467 218.404 111.76C217.951 112.027 217.471 112.093 216.964 111.96C216.458 111.8 216.071 111.493 215.804 111.04C215.351 110.32 214.711 109.853 213.884 109.64C213.031 109.48 212.258 109.667 211.564 110.2C210.871 110.707 210.498 111.4 210.444 112.28C210.364 113.133 210.631 113.867 211.244 114.48L217.604 121.04C218.298 121.76 218.818 122.587 219.164 123.52C219.511 124.453 219.644 125.413 219.564 126.4C219.484 127.413 219.204 128.347 218.724 129.2C218.244 130.053 217.618 130.787 216.844 131.4C216.044 132.013 215.164 132.427 214.204 132.64C213.244 132.853 212.271 132.867 211.284 132.68C210.298 132.467 209.404 132.08 208.604 131.52C207.804 130.933 207.164 130.213 206.684 129.36C206.391 128.907 206.311 128.427 206.444 127.92C206.604 127.387 206.911 126.987 207.364 126.72C207.818 126.453 208.298 126.4 208.804 126.56C209.311 126.693 209.711 126.987 210.004 127.44C210.458 128.213 211.138 128.707 212.044 128.92C212.978 129.08 213.804 128.88 214.524 128.32Z" fill="#1C1B1B"/>
<path d="M5.50391 34.9996H26.5021L5.50391 51.4996V67.9996L46.0022 34.9996L66.5039 34.9995L5.50391 84.4998V100.5L67.5029 50.4998V66.9998L11.0029 111.792L20.0029 120L67.5029 82.9998V98.9998L33.0029 127L46.0022 132L67.5029 115" stroke="#1C1B1B" stroke-width="7" stroke-linecap="round" stroke-linejoin="round"/>
</svg>
