<svg width="416" height="152" viewBox="0 0 416 152" fill="none" xmlns="http://www.w3.org/2000/svg">
<path d="M98.2458 95.4402C97.0458 95.4402 96.0258 95.0202 95.1858 94.1802C94.3458 93.3402 93.9258 92.3202 93.9258 91.1202V39.2802C93.9258 38.0802 94.3458 37.0602 95.1858 36.2202C96.0258 35.3802 97.0458 34.9602 98.2458 34.9602C99.4458 34.9602 100.466 35.3802 101.306 36.2202C102.146 37.0602 102.566 38.0802 102.566 39.2802V86.8002H116.246C117.446 86.8002 118.466 87.2202 119.306 88.0602C120.146 88.9002 120.566 89.9202 120.566 91.1202C120.566 92.3202 120.146 93.3402 119.306 94.1802C118.466 95.0202 117.446 95.4402 116.246 95.4402H98.2458ZM158.515 90.3102C158.815 91.5102 158.665 92.6202 158.065 93.6402C157.525 94.6602 156.685 95.3202 155.545 95.6202C154.345 95.9202 153.235 95.7702 152.215 95.1702C151.195 94.6302 150.535 93.7902 150.235 92.6502C149.995 91.9302 149.755 91.0602 149.515 90.0402C149.275 89.2002 148.975 88.2102 148.615 87.0702C148.315 85.8702 147.985 84.5802 147.625 83.2002H132.325C131.905 84.5802 131.545 85.8702 131.245 87.0702C130.945 88.2102 130.675 89.2002 130.435 90.0402C130.195 91.0602 129.955 91.9302 129.715 92.6502C129.415 93.7902 128.755 94.6302 127.735 95.1702C126.715 95.7702 125.605 95.9202 124.405 95.6202C123.265 95.3202 122.395 94.6602 121.795 93.6402C121.255 92.6202 121.135 91.5102 121.435 90.3102L135.835 38.1102C136.075 37.1502 136.555 36.4002 137.275 35.8602C138.055 35.2602 138.955 34.9602 139.975 34.9602C140.995 34.9602 141.865 35.2602 142.585 35.8602C143.365 36.4002 143.875 37.1502 144.115 38.1102L158.515 90.3102ZM145.195 74.5602C144.355 71.4402 143.485 68.2302 142.585 64.9302C141.685 61.6302 140.815 58.5102 139.975 55.5702C139.135 58.5102 138.265 61.6302 137.365 64.9302C136.465 68.2302 135.595 71.4402 134.755 74.5602H145.195ZM202.797 35.3202C203.997 35.3202 205.017 35.7402 205.857 36.5802C206.697 37.4202 207.117 38.4402 207.117 39.6402C207.117 40.8402 206.697 41.8602 205.857 42.7002C205.017 43.5402 203.997 43.9602 202.797 43.9602H195.417V91.4802C195.417 92.6802 194.997 93.7002 194.157 94.5402C193.317 95.3802 192.297 95.8002 191.097 95.8002C189.897 95.8002 188.877 95.3802 188.037 94.5402C187.197 93.7002 186.777 92.6802 186.777 91.4802V43.9602H179.397C178.197 43.9602 177.177 43.5402 176.337 42.7002C175.497 41.8602 175.077 40.8402 175.077 39.6402C175.077 38.4402 175.497 37.4202 176.337 36.5802C177.177 35.7402 178.197 35.3202 179.397 35.3202H202.797ZM240.407 55.4802C240.407 58.4202 239.657 61.0902 238.157 63.4902C236.717 65.8302 234.767 67.6302 232.307 68.8902L240.137 89.9502C240.617 91.0902 240.587 92.2002 240.047 93.2802C239.567 94.3602 238.757 95.1102 237.617 95.5302C236.477 95.9502 235.367 95.9202 234.287 95.4402C233.267 94.9602 232.517 94.1502 232.037 93.0102L223.667 70.6002H218.807V91.4802C218.807 92.6802 218.387 93.7002 217.547 94.5402C216.707 95.3802 215.687 95.8002 214.487 95.8002C213.287 95.8002 212.267 95.3802 211.427 94.5402C210.587 93.7002 210.167 92.6802 210.167 91.4802V39.6402C210.167 38.4402 210.587 37.4202 211.427 36.5802C212.267 35.7402 213.287 35.3202 214.487 35.3202H225.287C227.387 35.3202 229.337 35.7102 231.137 36.4902C232.997 37.2702 234.617 38.3502 235.997 39.7302C237.377 41.1102 238.457 42.7302 239.237 44.5902C240.017 46.3902 240.407 48.3402 240.407 50.4402V55.4802ZM218.807 61.9602H225.287C227.087 61.9602 228.617 61.3302 229.877 60.0702C231.137 58.8102 231.767 57.2802 231.767 55.4802V50.4402C231.767 48.6402 231.137 47.1102 229.877 45.8502C228.617 44.5902 227.087 43.9602 225.287 43.9602H218.807V61.9602ZM278.208 90.3102C278.508 91.5102 278.358 92.6202 277.758 93.6402C277.218 94.6602 276.378 95.3202 275.238 95.6202C274.038 95.9202 272.928 95.7702 271.908 95.1702C270.888 94.6302 270.228 93.7902 269.928 92.6502C269.688 91.9302 269.448 91.0602 269.208 90.0402C268.968 89.2002 268.668 88.2102 268.308 87.0702C268.008 85.8702 267.678 84.5802 267.318 83.2002H252.018C251.598 84.5802 251.238 85.8702 250.938 87.0702C250.638 88.2102 250.368 89.2002 250.128 90.0402C249.888 91.0602 249.648 91.9302 249.408 92.6502C249.108 93.7902 248.448 94.6302 247.428 95.1702C246.408 95.7702 245.298 95.9202 244.098 95.6202C242.958 95.3202 242.088 94.6602 241.488 93.6402C240.948 92.6202 240.828 91.5102 241.128 90.3102L255.528 38.1102C255.768 37.1502 256.248 36.4002 256.968 35.8602C257.748 35.2602 258.648 34.9602 259.668 34.9602C260.688 34.9602 261.558 35.2602 262.278 35.8602C263.058 36.4002 263.568 37.1502 263.808 38.1102L278.208 90.3102ZM264.888 74.5602C264.048 71.4402 263.178 68.2302 262.278 64.9302C261.378 61.6302 260.508 58.5102 259.668 55.5702C258.828 58.5102 257.958 61.6302 257.058 64.9302C256.158 68.2302 255.288 71.4402 254.448 74.5602H264.888ZM311.566 95.7102C310.546 95.9502 309.586 95.8302 308.686 95.3502C307.786 94.9302 307.126 94.2702 306.706 93.3702C304.906 89.5302 303.016 85.6002 301.036 81.5802C299.356 78.1602 297.496 74.3802 295.456 70.2402C293.476 66.1002 291.556 62.0802 289.696 58.1802V91.4802C289.696 92.6802 289.276 93.7002 288.436 94.5402C287.596 95.3802 286.576 95.8002 285.376 95.8002C284.176 95.8002 283.156 95.3802 282.316 94.5402C281.476 93.7002 281.056 92.6802 281.056 91.4802V39.2802C281.056 38.2602 281.356 37.3602 281.956 36.5802C282.556 35.8002 283.366 35.2902 284.386 35.0502C285.406 34.8102 286.336 34.9302 287.176 35.4102C288.076 35.8302 288.766 36.4902 289.246 37.3902C291.046 41.2302 292.936 45.1602 294.916 49.1802C296.596 52.6002 298.426 56.3802 300.406 60.5202C302.386 64.6602 304.336 68.6802 306.256 72.5802V39.2802C306.256 38.0802 306.676 37.0602 307.516 36.2202C308.356 35.3802 309.376 34.9602 310.576 34.9602C311.776 34.9602 312.796 35.3802 313.636 36.2202C314.476 37.0602 314.896 38.0802 314.896 39.2802V91.4802C314.896 92.5002 314.566 93.4002 313.906 94.1802C313.306 94.9602 312.526 95.4702 311.566 95.7102ZM337.708 85.7202C338.548 85.1202 339.178 84.4002 339.598 83.5602C340.018 82.7202 340.288 81.7902 340.408 80.7702C340.588 78.7302 339.958 76.9302 338.518 75.3702L324.118 60.6102C322.558 59.0502 321.418 57.2502 320.698 55.2102C319.978 53.1702 319.708 51.0702 319.888 48.9102C320.068 46.7502 320.668 44.7402 321.688 42.8802C322.708 40.9602 324.088 39.3402 325.828 38.0202C327.568 36.7002 329.488 35.8002 331.588 35.3202C333.748 34.8402 335.878 34.8102 337.978 35.2302C340.078 35.7102 341.998 36.5802 343.738 37.8402C345.538 39.0402 346.978 40.6002 348.058 42.5202C348.658 43.5402 348.778 44.6202 348.418 45.7602C348.118 46.9002 347.458 47.8002 346.438 48.4602C345.418 49.0602 344.338 49.2102 343.198 48.9102C342.058 48.5502 341.188 47.8602 340.588 46.8402C339.568 45.2202 338.128 44.1702 336.268 43.6902C334.348 43.3302 332.608 43.7502 331.048 44.9502C329.488 46.0902 328.648 47.6502 328.528 49.6302C328.348 51.5502 328.948 53.2002 330.328 54.5802L344.638 69.3402C346.198 70.9602 347.368 72.8202 348.148 74.9202C348.928 77.0202 349.228 79.1802 349.048 81.4002C348.868 83.6802 348.238 85.7802 347.158 87.7002C346.078 89.6202 344.668 91.2702 342.928 92.6502C341.128 94.0302 339.148 94.9602 336.988 95.4402C334.828 95.9202 332.638 95.9502 330.418 95.5302C328.198 95.0502 326.188 94.1802 324.388 92.9202C322.588 91.6002 321.148 89.9802 320.068 88.0602C319.408 87.0402 319.228 85.9602 319.528 84.8202C319.888 83.6202 320.578 82.7202 321.598 82.1202C322.618 81.5202 323.698 81.4002 324.838 81.7602C325.978 82.0602 326.878 82.7202 327.538 83.7402C328.558 85.4802 330.088 86.5902 332.128 87.0702C334.228 87.4302 336.088 86.9802 337.708 85.7202ZM357.583 95.4402C356.383 95.4402 355.363 95.0202 354.523 94.1802C353.683 93.3402 353.263 92.3202 353.263 91.1202V39.6402C353.263 38.4402 353.683 37.4202 354.523 36.5802C355.363 35.7402 356.383 35.3202 357.583 35.3202H375.583C376.783 35.3202 377.803 35.7402 378.643 36.5802C379.483 37.4202 379.903 38.4402 379.903 39.6402C379.903 40.8402 379.483 41.8602 378.643 42.7002C377.803 43.5402 376.783 43.9602 375.583 43.9602H361.903V60.1602H373.783C374.983 60.1602 376.003 60.5802 376.843 61.4202C377.683 62.2602 378.103 63.2802 378.103 64.4802C378.103 65.6802 377.683 66.7002 376.843 67.5402C376.003 68.3802 374.983 68.8002 373.783 68.8002H361.903V91.1202C361.903 92.3202 361.483 93.3402 360.643 94.1802C359.803 95.0202 358.783 95.4402 357.583 95.4402ZM397.035 95.8002C394.935 95.8002 392.955 95.4102 391.095 94.6302C389.295 93.8502 387.705 92.7702 386.325 91.3902C384.945 90.0102 383.865 88.4202 383.085 86.6202C382.305 84.7602 381.915 82.7802 381.915 80.6802V50.0802C381.915 47.9802 382.305 46.0302 383.085 44.2302C383.865 42.3702 384.945 40.7502 386.325 39.3702C387.705 37.9902 389.295 36.9102 391.095 36.1302C392.955 35.3502 394.935 34.9602 397.035 34.9602C399.135 34.9602 401.085 35.3502 402.885 36.1302C404.745 36.9102 406.365 37.9902 407.745 39.3702C409.125 40.7502 410.205 42.3702 410.985 44.2302C411.765 46.0302 412.155 47.9802 412.155 50.0802V80.6802C412.155 82.7802 411.765 84.7602 410.985 86.6202C410.205 88.4202 409.125 90.0102 407.745 91.3902C406.365 92.7702 404.745 93.8502 402.885 94.6302C401.085 95.4102 399.135 95.8002 397.035 95.8002ZM397.035 43.6002C395.235 43.6002 393.705 44.2302 392.445 45.4902C391.185 46.7502 390.555 48.2802 390.555 50.0802V80.6802C390.555 82.4802 391.185 84.0102 392.445 85.2702C393.705 86.5302 395.235 87.1602 397.035 87.1602C398.835 87.1602 400.365 86.5302 401.625 85.2702C402.885 84.0102 403.515 82.4802 403.515 80.6802V50.0802C403.515 48.2802 402.885 46.7502 401.625 45.4902C400.365 44.2302 398.835 43.6002 397.035 43.6002Z" fill="#1C1B1B"/>
<path d="M106 129C111.523 129 116 124.523 116 119C116 113.477 111.523 109 106 109C100.477 109 96 113.477 96 119C96 124.523 100.477 129 106 129Z" fill="#1C1B1B"/>
<path d="M127.56 132.56C126.84 132.373 126.173 132.08 125.56 131.68C124.947 131.253 124.413 130.76 123.96 130.2C123.533 129.613 123.2 128.973 122.96 128.28C122.72 127.587 122.6 126.853 122.6 126.08V112.48C122.6 111.733 122.72 111.013 122.96 110.32C123.2 109.6 123.533 108.96 123.96 108.4C124.413 107.813 124.947 107.32 125.56 106.92C126.173 106.493 126.84 106.187 127.56 106C129.053 105.6 130.493 105.693 131.88 106.28C133.267 106.84 134.347 107.787 135.12 109.12C135.413 109.573 135.48 110.053 135.32 110.56C135.187 111.067 134.893 111.467 134.44 111.76C133.987 112.027 133.507 112.093 133 111.96C132.493 111.8 132.093 111.493 131.8 111.04C131.48 110.48 131.013 110.08 130.4 109.84C129.813 109.573 129.2 109.533 128.56 109.72C127.947 109.88 127.44 110.227 127.04 110.76C126.64 111.267 126.44 111.84 126.44 112.48V126.08C126.44 126.747 126.64 127.333 127.04 127.84C127.44 128.347 127.947 128.693 128.56 128.88C129.2 129.04 129.813 129 130.4 128.76C131.013 128.493 131.48 128.08 131.8 127.52C132.093 127.067 132.493 126.773 133 126.64C133.507 126.48 133.987 126.533 134.44 126.8C134.893 127.093 135.187 127.493 135.32 128C135.48 128.507 135.413 128.987 135.12 129.44C134.347 130.773 133.267 131.72 131.88 132.28C130.493 132.867 129.053 132.96 127.56 132.56ZM143.511 132.8C142.577 132.8 141.697 132.627 140.871 132.28C140.071 131.933 139.364 131.453 138.751 130.84C138.137 130.227 137.657 129.52 137.311 128.72C136.964 127.893 136.791 127.013 136.791 126.08V112.48C136.791 111.547 136.964 110.68 137.311 109.88C137.657 109.053 138.137 108.333 138.751 107.72C139.364 107.107 140.071 106.627 140.871 106.28C141.697 105.933 142.577 105.76 143.511 105.76C144.444 105.76 145.311 105.933 146.111 106.28C146.937 106.627 147.657 107.107 148.271 107.72C148.884 108.333 149.364 109.053 149.711 109.88C150.057 110.68 150.231 111.547 150.231 112.48V126.08C150.231 127.013 150.057 127.893 149.711 128.72C149.364 129.52 148.884 130.227 148.271 130.84C147.657 131.453 146.937 131.933 146.111 132.28C145.311 132.627 144.444 132.8 143.511 132.8ZM143.511 109.6C142.711 109.6 142.031 109.88 141.471 110.44C140.911 111 140.631 111.68 140.631 112.48V126.08C140.631 126.88 140.911 127.56 141.471 128.12C142.031 128.68 142.711 128.96 143.511 128.96C144.311 128.96 144.991 128.68 145.551 128.12C146.111 127.56 146.391 126.88 146.391 126.08V112.48C146.391 111.68 146.111 111 145.551 110.44C144.991 109.88 144.311 109.6 143.511 109.6ZM166.271 132.76C165.818 132.867 165.391 132.813 164.991 132.6C164.591 132.413 164.298 132.12 164.111 131.72C163.311 130.013 162.471 128.267 161.591 126.48C160.845 124.96 160.018 123.28 159.111 121.44C158.231 119.6 157.378 117.813 156.551 116.08V130.88C156.551 131.413 156.365 131.867 155.991 132.24C155.618 132.613 155.165 132.8 154.631 132.8C154.098 132.8 153.645 132.613 153.271 132.24C152.898 131.867 152.711 131.413 152.711 130.88V107.68C152.711 107.227 152.845 106.827 153.111 106.48C153.378 106.133 153.738 105.907 154.191 105.8C154.645 105.693 155.058 105.747 155.431 105.96C155.831 106.147 156.138 106.44 156.351 106.84C157.151 108.547 157.991 110.293 158.871 112.08C159.618 113.6 160.431 115.28 161.311 117.12C162.191 118.96 163.058 120.747 163.911 122.48V107.68C163.911 107.147 164.098 106.693 164.471 106.32C164.845 105.947 165.298 105.76 165.831 105.76C166.365 105.76 166.818 105.947 167.191 106.32C167.565 106.693 167.751 107.147 167.751 107.68V130.88C167.751 131.333 167.605 131.733 167.311 132.08C167.045 132.427 166.698 132.653 166.271 132.76ZM181.45 105.92C181.983 105.92 182.437 106.107 182.81 106.48C183.183 106.853 183.37 107.307 183.37 107.84C183.37 108.373 183.183 108.827 182.81 109.2C182.437 109.573 181.983 109.76 181.45 109.76H178.17V130.88C178.17 131.413 177.983 131.867 177.61 132.24C177.237 132.613 176.783 132.8 176.25 132.8C175.717 132.8 175.263 132.613 174.89 132.24C174.517 131.867 174.33 131.413 174.33 130.88V109.76H171.05C170.517 109.76 170.063 109.573 169.69 109.2C169.317 108.827 169.13 108.373 169.13 107.84C169.13 107.307 169.317 106.853 169.69 106.48C170.063 106.107 170.517 105.92 171.05 105.92H181.45ZM197.533 130.36C197.666 130.893 197.6 131.387 197.333 131.84C197.093 132.293 196.72 132.587 196.213 132.72C195.68 132.853 195.186 132.787 194.733 132.52C194.28 132.28 193.986 131.907 193.853 131.4C193.746 131.08 193.64 130.693 193.533 130.24C193.426 129.867 193.293 129.427 193.133 128.92C193 128.387 192.853 127.813 192.693 127.2H185.893C185.706 127.813 185.546 128.387 185.413 128.92C185.28 129.427 185.16 129.867 185.053 130.24C184.946 130.693 184.84 131.08 184.733 131.4C184.6 131.907 184.306 132.28 183.853 132.52C183.4 132.787 182.906 132.853 182.373 132.72C181.866 132.587 181.48 132.293 181.213 131.84C180.973 131.387 180.92 130.893 181.053 130.36L187.453 107.16C187.56 106.733 187.773 106.4 188.093 106.16C188.44 105.893 188.84 105.76 189.293 105.76C189.746 105.76 190.133 105.893 190.453 106.16C190.8 106.4 191.026 106.733 191.133 107.16L197.533 130.36ZM191.613 123.36C191.24 121.973 190.853 120.547 190.453 119.08C190.053 117.613 189.666 116.227 189.293 114.92C188.92 116.227 188.533 117.613 188.133 119.08C187.733 120.547 187.346 121.973 186.973 123.36H191.613ZM203.279 132.56C202.559 132.373 201.892 132.08 201.279 131.68C200.665 131.253 200.132 130.76 199.679 130.2C199.252 129.613 198.919 128.973 198.679 128.28C198.439 127.587 198.319 126.853 198.319 126.08V112.48C198.319 111.733 198.439 111.013 198.679 110.32C198.919 109.6 199.252 108.96 199.679 108.4C200.132 107.813 200.665 107.32 201.279 106.92C201.892 106.493 202.559 106.187 203.279 106C204.772 105.6 206.212 105.693 207.599 106.28C208.985 106.84 210.065 107.787 210.839 109.12C211.132 109.573 211.199 110.053 211.039 110.56C210.905 111.067 210.612 111.467 210.159 111.76C209.705 112.027 209.225 112.093 208.719 111.96C208.212 111.8 207.812 111.493 207.519 111.04C207.199 110.48 206.732 110.08 206.119 109.84C205.532 109.573 204.919 109.533 204.279 109.72C203.665 109.88 203.159 110.227 202.759 110.76C202.359 111.267 202.159 111.84 202.159 112.48V126.08C202.159 126.747 202.359 127.333 202.759 127.84C203.159 128.347 203.665 128.693 204.279 128.88C204.919 129.04 205.532 129 206.119 128.76C206.732 128.493 207.199 128.08 207.519 127.52C207.812 127.067 208.212 126.773 208.719 126.64C209.225 126.48 209.705 126.533 210.159 126.8C210.612 127.093 210.905 127.493 211.039 128C211.199 128.507 211.132 128.987 210.839 129.44C210.065 130.773 208.985 131.72 207.599 132.28C206.212 132.867 204.772 132.96 203.279 132.56ZM223.709 105.92C224.243 105.92 224.696 106.107 225.069 106.48C225.443 106.853 225.629 107.307 225.629 107.84C225.629 108.373 225.443 108.827 225.069 109.2C224.696 109.573 224.243 109.76 223.709 109.76H220.429V130.88C220.429 131.413 220.243 131.867 219.869 132.24C219.496 132.613 219.043 132.8 218.509 132.8C217.976 132.8 217.523 132.613 217.149 132.24C216.776 131.867 216.589 131.413 216.589 130.88V109.76H213.309C212.776 109.76 212.323 109.573 211.949 109.2C211.576 108.827 211.389 108.373 211.389 107.84C211.389 107.307 211.576 106.853 211.949 106.48C212.323 106.107 212.776 105.92 213.309 105.92H223.709Z" fill="#1C1B1B"/>
<path d="M5.50391 34.9996H26.5021L5.50391 51.4996V67.9996L46.0022 34.9996L66.5039 34.9995L5.50391 84.4998V100.5L67.5029 50.4998V66.9998L11.0029 111.792L20.0029 120L67.5029 82.9998V98.9998L33.0029 127L46.0022 132L67.5029 115" stroke="#1C1B1B" stroke-width="7" stroke-linecap="round" stroke-linejoin="round"/>
</svg>
