<svg width="450" height="152" viewBox="0 0 450 152" fill="none" xmlns="http://www.w3.org/2000/svg">
<path d="M132.245 95.44C131.045 95.44 130.025 95.02 129.185 94.18C128.345 93.34 127.925 92.32 127.925 91.12V39.28C127.925 38.08 128.345 37.06 129.185 36.22C130.025 35.38 131.045 34.96 132.245 34.96C133.445 34.96 134.465 35.38 135.305 36.22C136.145 37.06 136.565 38.08 136.565 39.28V86.8H150.245C151.445 86.8 152.465 87.22 153.305 88.06C154.145 88.9 154.565 89.92 154.565 91.12C154.565 92.32 154.145 93.34 153.305 94.18C152.465 95.02 151.445 95.44 150.245 95.44H132.245ZM192.514 90.31C192.814 91.51 192.664 92.62 192.064 93.64C191.524 94.66 190.684 95.32 189.544 95.62C188.344 95.92 187.234 95.77 186.214 95.17C185.194 94.63 184.534 93.79 184.234 92.65C183.994 91.93 183.754 91.06 183.514 90.04C183.274 89.2 182.974 88.21 182.614 87.07C182.314 85.87 181.984 84.58 181.624 83.2H166.324C165.904 84.58 165.544 85.87 165.244 87.07C164.944 88.21 164.674 89.2 164.434 90.04C164.194 91.06 163.954 91.93 163.714 92.65C163.414 93.79 162.754 94.63 161.734 95.17C160.714 95.77 159.604 95.92 158.404 95.62C157.264 95.32 156.394 94.66 155.794 93.64C155.254 92.62 155.134 91.51 155.434 90.31L169.834 38.11C170.074 37.15 170.554 36.4 171.274 35.86C172.054 35.26 172.954 34.96 173.974 34.96C174.994 34.96 175.864 35.26 176.584 35.86C177.364 36.4 177.874 37.15 178.114 38.11L192.514 90.31ZM179.194 74.56C178.354 71.44 177.484 68.23 176.584 64.93C175.684 61.63 174.814 58.51 173.974 55.57C173.134 58.51 172.264 61.63 171.364 64.93C170.464 68.23 169.594 71.44 168.754 74.56H179.194ZM236.796 35.32C237.996 35.32 239.016 35.74 239.856 36.58C240.696 37.42 241.116 38.44 241.116 39.64C241.116 40.84 240.696 41.86 239.856 42.7C239.016 43.54 237.996 43.96 236.796 43.96H229.416V91.48C229.416 92.68 228.996 93.7 228.156 94.54C227.316 95.38 226.296 95.8 225.096 95.8C223.896 95.8 222.876 95.38 222.036 94.54C221.196 93.7 220.776 92.68 220.776 91.48V43.96H213.396C212.196 43.96 211.176 43.54 210.336 42.7C209.496 41.86 209.076 40.84 209.076 39.64C209.076 38.44 209.496 37.42 210.336 36.58C211.176 35.74 212.196 35.32 213.396 35.32H236.796ZM274.406 55.48C274.406 58.42 273.656 61.09 272.156 63.49C270.716 65.83 268.766 67.63 266.306 68.89L274.136 89.95C274.616 91.09 274.586 92.2 274.046 93.28C273.566 94.36 272.756 95.11 271.616 95.53C270.476 95.95 269.366 95.92 268.286 95.44C267.266 94.96 266.516 94.15 266.036 93.01L257.666 70.6H252.806V91.48C252.806 92.68 252.386 93.7 251.546 94.54C250.706 95.38 249.686 95.8 248.486 95.8C247.286 95.8 246.266 95.38 245.426 94.54C244.586 93.7 244.166 92.68 244.166 91.48V39.64C244.166 38.44 244.586 37.42 245.426 36.58C246.266 35.74 247.286 35.32 248.486 35.32H259.286C261.386 35.32 263.336 35.71 265.136 36.49C266.996 37.27 268.616 38.35 269.996 39.73C271.376 41.11 272.456 42.73 273.236 44.59C274.016 46.39 274.406 48.34 274.406 50.44V55.48ZM252.806 61.96H259.286C261.086 61.96 262.616 61.33 263.876 60.07C265.136 58.81 265.766 57.28 265.766 55.48V50.44C265.766 48.64 265.136 47.11 263.876 45.85C262.616 44.59 261.086 43.96 259.286 43.96H252.806V61.96ZM312.207 90.31C312.507 91.51 312.357 92.62 311.757 93.64C311.217 94.66 310.377 95.32 309.237 95.62C308.037 95.92 306.927 95.77 305.907 95.17C304.887 94.63 304.227 93.79 303.927 92.65C303.687 91.93 303.447 91.06 303.207 90.04C302.967 89.2 302.667 88.21 302.307 87.07C302.007 85.87 301.677 84.58 301.317 83.2H286.017C285.597 84.58 285.237 85.87 284.937 87.07C284.637 88.21 284.367 89.2 284.127 90.04C283.887 91.06 283.647 91.93 283.407 92.65C283.107 93.79 282.447 94.63 281.427 95.17C280.407 95.77 279.297 95.92 278.097 95.62C276.957 95.32 276.087 94.66 275.487 93.64C274.947 92.62 274.827 91.51 275.127 90.31L289.527 38.11C289.767 37.15 290.247 36.4 290.967 35.86C291.747 35.26 292.647 34.96 293.667 34.96C294.687 34.96 295.557 35.26 296.277 35.86C297.057 36.4 297.567 37.15 297.807 38.11L312.207 90.31ZM298.887 74.56C298.047 71.44 297.177 68.23 296.277 64.93C295.377 61.63 294.507 58.51 293.667 55.57C292.827 58.51 291.957 61.63 291.057 64.93C290.157 68.23 289.287 71.44 288.447 74.56H298.887ZM345.565 95.71C344.545 95.95 343.585 95.83 342.685 95.35C341.785 94.93 341.125 94.27 340.705 93.37C338.905 89.53 337.015 85.6 335.035 81.58C333.355 78.16 331.495 74.38 329.455 70.24C327.475 66.1 325.555 62.08 323.695 58.18V91.48C323.695 92.68 323.275 93.7 322.435 94.54C321.595 95.38 320.575 95.8 319.375 95.8C318.175 95.8 317.155 95.38 316.315 94.54C315.475 93.7 315.055 92.68 315.055 91.48V39.28C315.055 38.26 315.355 37.36 315.955 36.58C316.555 35.8 317.365 35.29 318.385 35.05C319.405 34.81 320.335 34.93 321.175 35.41C322.075 35.83 322.765 36.49 323.245 37.39C325.045 41.23 326.935 45.16 328.915 49.18C330.595 52.6 332.425 56.38 334.405 60.52C336.385 64.66 338.335 68.68 340.255 72.58V39.28C340.255 38.08 340.675 37.06 341.515 36.22C342.355 35.38 343.375 34.96 344.575 34.96C345.775 34.96 346.795 35.38 347.635 36.22C348.475 37.06 348.895 38.08 348.895 39.28V91.48C348.895 92.5 348.565 93.4 347.905 94.18C347.305 94.96 346.525 95.47 345.565 95.71ZM371.707 85.72C372.547 85.12 373.177 84.4 373.597 83.56C374.017 82.72 374.287 81.79 374.407 80.77C374.587 78.73 373.957 76.93 372.517 75.37L358.117 60.61C356.557 59.05 355.417 57.25 354.697 55.21C353.977 53.17 353.707 51.07 353.887 48.91C354.067 46.75 354.667 44.74 355.687 42.88C356.707 40.96 358.087 39.34 359.827 38.02C361.567 36.7 363.487 35.8 365.587 35.32C367.747 34.84 369.877 34.81 371.977 35.23C374.077 35.71 375.997 36.58 377.737 37.84C379.537 39.04 380.977 40.6 382.057 42.52C382.657 43.54 382.777 44.62 382.417 45.76C382.117 46.9 381.457 47.8 380.437 48.46C379.417 49.06 378.337 49.21 377.197 48.91C376.057 48.55 375.187 47.86 374.587 46.84C373.567 45.22 372.127 44.17 370.267 43.69C368.347 43.33 366.607 43.75 365.047 44.95C363.487 46.09 362.647 47.65 362.527 49.63C362.347 51.55 362.947 53.2 364.327 54.58L378.637 69.34C380.197 70.96 381.367 72.82 382.147 74.92C382.927 77.02 383.227 79.18 383.047 81.4C382.867 83.68 382.237 85.78 381.157 87.7C380.077 89.62 378.667 91.27 376.927 92.65C375.127 94.03 373.147 94.96 370.987 95.44C368.827 95.92 366.637 95.95 364.417 95.53C362.197 95.05 360.187 94.18 358.387 92.92C356.587 91.6 355.147 89.98 354.067 88.06C353.407 87.04 353.227 85.96 353.527 84.82C353.887 83.62 354.577 82.72 355.597 82.12C356.617 81.52 357.697 81.4 358.837 81.76C359.977 82.06 360.877 82.72 361.537 83.74C362.557 85.48 364.087 86.59 366.127 87.07C368.227 87.43 370.087 86.98 371.707 85.72ZM391.582 95.44C390.382 95.44 389.362 95.02 388.522 94.18C387.682 93.34 387.262 92.32 387.262 91.12V39.64C387.262 38.44 387.682 37.42 388.522 36.58C389.362 35.74 390.382 35.32 391.582 35.32H409.582C410.782 35.32 411.802 35.74 412.642 36.58C413.482 37.42 413.902 38.44 413.902 39.64C413.902 40.84 413.482 41.86 412.642 42.7C411.802 43.54 410.782 43.96 409.582 43.96H395.902V60.16H407.782C408.982 60.16 410.002 60.58 410.842 61.42C411.682 62.26 412.102 63.28 412.102 64.48C412.102 65.68 411.682 66.7 410.842 67.54C410.002 68.38 408.982 68.8 407.782 68.8H395.902V91.12C395.902 92.32 395.482 93.34 394.642 94.18C393.802 95.02 392.782 95.44 391.582 95.44ZM431.034 95.8C428.934 95.8 426.954 95.41 425.094 94.63C423.294 93.85 421.704 92.77 420.324 91.39C418.944 90.01 417.864 88.42 417.084 86.62C416.304 84.76 415.914 82.78 415.914 80.68V50.08C415.914 47.98 416.304 46.03 417.084 44.23C417.864 42.37 418.944 40.75 420.324 39.37C421.704 37.99 423.294 36.91 425.094 36.13C426.954 35.35 428.934 34.96 431.034 34.96C433.134 34.96 435.084 35.35 436.884 36.13C438.744 36.91 440.364 37.99 441.744 39.37C443.124 40.75 444.204 42.37 444.984 44.23C445.764 46.03 446.154 47.98 446.154 50.08V80.68C446.154 82.78 445.764 84.76 444.984 86.62C444.204 88.42 443.124 90.01 441.744 91.39C440.364 92.77 438.744 93.85 436.884 94.63C435.084 95.41 433.134 95.8 431.034 95.8ZM431.034 43.6C429.234 43.6 427.704 44.23 426.444 45.49C425.184 46.75 424.554 48.28 424.554 50.08V80.68C424.554 82.48 425.184 84.01 426.444 85.27C427.704 86.53 429.234 87.16 431.034 87.16C432.834 87.16 434.364 86.53 435.624 85.27C436.884 84.01 437.514 82.48 437.514 80.68V50.08C437.514 48.28 436.884 46.75 435.624 45.49C434.364 44.23 432.834 43.6 431.034 43.6Z" fill="#1C1B1B"/>
<circle cx="140" cy="119" r="10" fill="#1C1B1B"/>
<path d="M161.56 132.56C160.84 132.373 160.173 132.08 159.56 131.68C158.947 131.253 158.413 130.76 157.96 130.2C157.533 129.613 157.2 128.973 156.96 128.28C156.72 127.587 156.6 126.853 156.6 126.08V112.48C156.6 111.733 156.72 111.013 156.96 110.32C157.2 109.6 157.533 108.96 157.96 108.4C158.413 107.813 158.947 107.32 159.56 106.92C160.173 106.493 160.84 106.187 161.56 106C163.053 105.6 164.493 105.693 165.88 106.28C167.267 106.84 168.347 107.787 169.12 109.12C169.413 109.573 169.48 110.053 169.32 110.56C169.187 111.067 168.893 111.467 168.44 111.76C167.987 112.027 167.507 112.093 167 111.96C166.493 111.8 166.093 111.493 165.8 111.04C165.48 110.48 165.013 110.08 164.4 109.84C163.813 109.573 163.2 109.533 162.56 109.72C161.947 109.88 161.44 110.227 161.04 110.76C160.64 111.267 160.44 111.84 160.44 112.48V126.08C160.44 126.747 160.64 127.333 161.04 127.84C161.44 128.347 161.947 128.693 162.56 128.88C163.2 129.04 163.813 129 164.4 128.76C165.013 128.493 165.48 128.08 165.8 127.52C166.093 127.067 166.493 126.773 167 126.64C167.507 126.48 167.987 126.533 168.44 126.8C168.893 127.093 169.187 127.493 169.32 128C169.48 128.507 169.413 128.987 169.12 129.44C168.347 130.773 167.267 131.72 165.88 132.28C164.493 132.867 163.053 132.96 161.56 132.56ZM177.511 132.8C176.577 132.8 175.697 132.627 174.871 132.28C174.071 131.933 173.364 131.453 172.751 130.84C172.137 130.227 171.657 129.52 171.311 128.72C170.964 127.893 170.791 127.013 170.791 126.08V112.48C170.791 111.547 170.964 110.68 171.311 109.88C171.657 109.053 172.137 108.333 172.751 107.72C173.364 107.107 174.071 106.627 174.871 106.28C175.697 105.933 176.577 105.76 177.511 105.76C178.444 105.76 179.311 105.933 180.111 106.28C180.937 106.627 181.657 107.107 182.271 107.72C182.884 108.333 183.364 109.053 183.711 109.88C184.057 110.68 184.231 111.547 184.231 112.48V126.08C184.231 127.013 184.057 127.893 183.711 128.72C183.364 129.52 182.884 130.227 182.271 130.84C181.657 131.453 180.937 131.933 180.111 132.28C179.311 132.627 178.444 132.8 177.511 132.8ZM177.511 109.6C176.711 109.6 176.031 109.88 175.471 110.44C174.911 111 174.631 111.68 174.631 112.48V126.08C174.631 126.88 174.911 127.56 175.471 128.12C176.031 128.68 176.711 128.96 177.511 128.96C178.311 128.96 178.991 128.68 179.551 128.12C180.111 127.56 180.391 126.88 180.391 126.08V112.48C180.391 111.68 180.111 111 179.551 110.44C178.991 109.88 178.311 109.6 177.511 109.6ZM200.271 132.76C199.818 132.867 199.391 132.813 198.991 132.6C198.591 132.413 198.298 132.12 198.111 131.72C197.311 130.013 196.471 128.267 195.591 126.48C194.845 124.96 194.018 123.28 193.111 121.44C192.231 119.6 191.378 117.813 190.551 116.08V130.88C190.551 131.413 190.365 131.867 189.991 132.24C189.618 132.613 189.165 132.8 188.631 132.8C188.098 132.8 187.645 132.613 187.271 132.24C186.898 131.867 186.711 131.413 186.711 130.88V107.68C186.711 107.227 186.845 106.827 187.111 106.48C187.378 106.133 187.738 105.907 188.191 105.8C188.645 105.693 189.058 105.747 189.431 105.96C189.831 106.147 190.138 106.44 190.351 106.84C191.151 108.547 191.991 110.293 192.871 112.08C193.618 113.6 194.431 115.28 195.311 117.12C196.191 118.96 197.058 120.747 197.911 122.48V107.68C197.911 107.147 198.098 106.693 198.471 106.32C198.845 105.947 199.298 105.76 199.831 105.76C200.365 105.76 200.818 105.947 201.191 106.32C201.565 106.693 201.751 107.147 201.751 107.68V130.88C201.751 131.333 201.605 131.733 201.311 132.08C201.045 132.427 200.698 132.653 200.271 132.76ZM215.45 105.92C215.983 105.92 216.437 106.107 216.81 106.48C217.183 106.853 217.37 107.307 217.37 107.84C217.37 108.373 217.183 108.827 216.81 109.2C216.437 109.573 215.983 109.76 215.45 109.76H212.17V130.88C212.17 131.413 211.983 131.867 211.61 132.24C211.237 132.613 210.783 132.8 210.25 132.8C209.717 132.8 209.263 132.613 208.89 132.24C208.517 131.867 208.33 131.413 208.33 130.88V109.76H205.05C204.517 109.76 204.063 109.573 203.69 109.2C203.317 108.827 203.13 108.373 203.13 107.84C203.13 107.307 203.317 106.853 203.69 106.48C204.063 106.107 204.517 105.92 205.05 105.92H215.45ZM231.533 130.36C231.666 130.893 231.6 131.387 231.333 131.84C231.093 132.293 230.72 132.587 230.213 132.72C229.68 132.853 229.186 132.787 228.733 132.52C228.28 132.28 227.986 131.907 227.853 131.4C227.746 131.08 227.64 130.693 227.533 130.24C227.426 129.867 227.293 129.427 227.133 128.92C227 128.387 226.853 127.813 226.693 127.2H219.893C219.706 127.813 219.546 128.387 219.413 128.92C219.28 129.427 219.16 129.867 219.053 130.24C218.946 130.693 218.84 131.08 218.733 131.4C218.6 131.907 218.306 132.28 217.853 132.52C217.4 132.787 216.906 132.853 216.373 132.72C215.866 132.587 215.48 132.293 215.213 131.84C214.973 131.387 214.92 130.893 215.053 130.36L221.453 107.16C221.56 106.733 221.773 106.4 222.093 106.16C222.44 105.893 222.84 105.76 223.293 105.76C223.746 105.76 224.133 105.893 224.453 106.16C224.8 106.4 225.026 106.733 225.133 107.16L231.533 130.36ZM225.613 123.36C225.24 121.973 224.853 120.547 224.453 119.08C224.053 117.613 223.666 116.227 223.293 114.92C222.92 116.227 222.533 117.613 222.133 119.08C221.733 120.547 221.346 121.973 220.973 123.36H225.613ZM237.279 132.56C236.559 132.373 235.892 132.08 235.279 131.68C234.665 131.253 234.132 130.76 233.679 130.2C233.252 129.613 232.919 128.973 232.679 128.28C232.439 127.587 232.319 126.853 232.319 126.08V112.48C232.319 111.733 232.439 111.013 232.679 110.32C232.919 109.6 233.252 108.96 233.679 108.4C234.132 107.813 234.665 107.32 235.279 106.92C235.892 106.493 236.559 106.187 237.279 106C238.772 105.6 240.212 105.693 241.599 106.28C242.985 106.84 244.065 107.787 244.839 109.12C245.132 109.573 245.199 110.053 245.039 110.56C244.905 111.067 244.612 111.467 244.159 111.76C243.705 112.027 243.225 112.093 242.719 111.96C242.212 111.8 241.812 111.493 241.519 111.04C241.199 110.48 240.732 110.08 240.119 109.84C239.532 109.573 238.919 109.533 238.279 109.72C237.665 109.88 237.159 110.227 236.759 110.76C236.359 111.267 236.159 111.84 236.159 112.48V126.08C236.159 126.747 236.359 127.333 236.759 127.84C237.159 128.347 237.665 128.693 238.279 128.88C238.919 129.04 239.532 129 240.119 128.76C240.732 128.493 241.199 128.08 241.519 127.52C241.812 127.067 242.212 126.773 242.719 126.64C243.225 126.48 243.705 126.533 244.159 126.8C244.612 127.093 244.905 127.493 245.039 128C245.199 128.507 245.132 128.987 244.839 129.44C244.065 130.773 242.985 131.72 241.599 132.28C240.212 132.867 238.772 132.96 237.279 132.56ZM257.709 105.92C258.243 105.92 258.696 106.107 259.069 106.48C259.443 106.853 259.629 107.307 259.629 107.84C259.629 108.373 259.443 108.827 259.069 109.2C258.696 109.573 258.243 109.76 257.709 109.76H254.429V130.88C254.429 131.413 254.243 131.867 253.869 132.24C253.496 132.613 253.043 132.8 252.509 132.8C251.976 132.8 251.523 132.613 251.149 132.24C250.776 131.867 250.589 131.413 250.589 130.88V109.76H247.309C246.776 109.76 246.323 109.573 245.949 109.2C245.576 108.827 245.389 108.373 245.389 107.84C245.389 107.307 245.576 106.853 245.949 106.48C246.323 106.107 246.776 105.92 247.309 105.92H257.709Z" fill="#1C1B1B"/>
<path d="M39.503 34.9996L60.5012 34.9996L39.503 51.4996L39.503 67.9996L80.0013 34.9996L100.503 34.9995L39.503 84.4998L39.503 100.5L101.502 50.4998L101.502 66.9998L45.002 111.792L54.002 120L101.502 82.9998L101.502 98.9998L67.002 127L80.0013 132L101.502 115" stroke="#1C1B1B" stroke-width="7" stroke-linecap="round" stroke-linejoin="round"/>
</svg>
