<svg width="840" height="530" viewBox="0 0 840 530" fill="none" xmlns="http://www.w3.org/2000/svg">
<g clip-path="url(#clip0)">
<path fill-rule="evenodd" clip-rule="evenodd" d="M96.8955 322.582C103.128 305.728 109.091 293.788 117.849 285.022C126.53 276.332 137.864 270.849 154.651 266.663L154.465 265.09L168.121 265.822L155.014 269.726L154.889 268.665C138.429 272.796 127.549 278.141 119.264 286.435C110.825 294.883 104.983 306.479 98.7714 323.275L96.8955 322.582Z" fill="#1C1B1B"/>
<path fill-rule="evenodd" clip-rule="evenodd" d="M171.896 367.582C178.128 350.728 184.091 338.788 192.849 330.022C201.53 321.332 212.864 315.849 229.651 311.663L229.465 310.09L243.121 310.822L230.014 314.726L229.889 313.665C213.429 317.796 202.549 323.141 194.264 331.435C185.825 339.883 179.983 351.479 173.771 368.275L171.896 367.582Z" fill="#1C1B1B"/>
<path fill-rule="evenodd" clip-rule="evenodd" d="M12.8955 261.582C19.1281 244.728 25.0914 232.788 33.849 224.022C42.5299 215.332 53.8641 209.849 70.6515 205.663L70.4651 204.09L84.1215 204.822L71.0145 208.726L70.8888 207.665C54.4286 211.796 43.5495 217.141 35.264 225.435C26.8253 233.883 20.9827 245.479 14.7714 262.275L12.8955 261.582Z" fill="#1C1B1B"/>
<path fill-rule="evenodd" clip-rule="evenodd" d="M561.368 105C544.462 110.883 532.454 116.593 523.554 125.148C514.73 133.628 509.051 144.813 504.558 161.454L503 161.239L503.466 174.854L507.606 161.875L506.556 161.73C510.986 145.415 516.52 134.682 524.939 126.59C533.515 118.348 545.177 112.752 562.025 106.889L561.368 105Z" fill="#1C1B1B"/>
<path fill-rule="evenodd" clip-rule="evenodd" d="M478.368 54C461.462 59.8835 449.454 65.5934 440.554 74.1479C431.73 82.6279 426.051 93.8126 421.558 110.454L420 110.239L420.466 123.854L424.606 110.875L423.556 110.73C427.986 94.4146 433.52 83.6822 441.939 75.5899C450.515 67.3481 462.177 61.7522 479.025 55.8889L478.368 54Z" fill="#1C1B1B"/>
<path fill-rule="evenodd" clip-rule="evenodd" d="M396.368 9C379.462 14.8835 367.454 20.5934 358.554 29.1479C349.73 37.6279 344.051 48.8126 339.558 65.4539L338 65.2385L338.466 78.8544L342.606 65.8749L341.556 65.7298C345.986 49.4146 351.52 38.6822 359.939 30.5899C368.515 22.3481 380.177 16.7522 397.025 10.8889L396.368 9Z" fill="#1C1B1B"/>
<path d="M97.32 342.469C97.32 340.279 95.94 338.749 93.96 338.749C92.43 338.749 91.35 339.439 89.82 341.479L92.52 331.639C90.42 332.029 88.95 332.239 86.28 332.539V333.349H86.82C87.72 333.349 88.17 333.649 88.17 334.249C88.17 334.639 87.81 336.139 87 338.959L84.18 348.769C83.88 349.849 83.58 351.019 83.58 351.199C83.58 352.039 85.74 352.999 87.72 352.999C92.61 352.999 97.32 347.839 97.32 342.469ZM93.57 342.859C93.57 344.629 92.76 347.419 91.68 349.279C90.66 351.109 89.49 352.009 88.2 352.009C87.66 352.009 87.27 351.679 87.27 351.199C87.27 350.839 87.78 348.499 88.11 347.329C88.5 345.979 89.1 344.329 89.58 343.309C90.33 341.659 91.26 340.789 92.25 340.789C93.12 340.789 93.57 341.479 93.57 342.859ZM108.48 348.919L107.64 348.379C106.2 350.389 105.27 351.079 103.98 351.079C102.66 351.079 101.79 349.999 101.79 348.409C101.79 346.519 102.57 343.819 103.65 341.869C104.46 340.459 105.3 339.739 106.23 339.739C106.59 339.739 106.89 339.949 106.89 340.249C106.89 340.369 106.83 340.549 106.65 340.819C106.38 341.299 106.26 341.629 106.26 341.989C106.26 342.889 106.98 343.549 108 343.549C109.11 343.549 109.86 342.709 109.86 341.449C109.86 339.859 108.51 338.749 106.5 338.749C102.27 338.749 97.95 343.669 97.95 348.469C97.95 351.139 99.81 352.999 102.54 352.999C103.86 352.999 105.15 352.519 106.17 351.649C106.95 350.989 107.43 350.419 108.48 348.919Z" fill="#1C1B1B"/>
<path d="M180.66 393.949L180 393.559C179.88 393.709 179.76 393.889 179.64 394.099C178.95 395.209 178.32 395.839 177.93 395.839C177.66 395.839 177.45 395.659 177.45 395.419C177.45 395.089 177.45 395.089 178.08 393.079L179.43 389.089C179.88 387.799 180.12 386.659 180.12 385.879C180.12 384.649 179.13 383.749 177.81 383.749C175.77 383.749 174.36 384.949 171.87 388.909C172.47 387.349 172.65 386.629 172.65 385.789C172.65 384.529 171.9 383.749 170.64 383.749C169.8 383.749 168.9 384.079 168.06 384.769C166.95 385.609 166.05 386.719 164.1 389.749L166.02 383.779C164.13 384.229 163.41 384.319 160.02 384.589V385.399C160.8 385.399 161.64 385.459 161.64 386.149C161.64 386.599 161.4 387.559 160.59 390.469L158.58 397.609H162.21C163.8 391.939 164.91 389.389 166.62 387.349C167.28 386.569 168.12 385.939 168.57 385.939C168.87 385.939 169.11 386.239 169.11 386.599C169.11 387.109 168.75 388.369 167.76 391.399L165.81 397.609H169.41C171.15 391.849 171.36 391.309 172.44 389.419C173.7 387.169 174.9 385.939 175.8 385.939C176.16 385.939 176.49 386.239 176.49 386.569C176.49 386.749 176.4 387.079 176.28 387.469L174.93 391.399C174.27 393.319 173.85 395.119 173.85 395.989C173.85 397.219 174.57 397.879 175.86 397.879C177.72 397.879 178.92 396.889 180.66 393.949Z" fill="#1C1B1B"/>
<path d="M587.32 100.86C587.32 98.67 585.94 97.14 583.96 97.14C582.43 97.14 581.35 97.83 579.82 99.87L582.52 90.03C580.42 90.42 578.95 90.63 576.28 90.93V91.74H576.82C577.72 91.74 578.17 92.04 578.17 92.64C578.17 93.03 577.81 94.53 577 97.35L574.18 107.16C573.88 108.24 573.58 109.41 573.58 109.59C573.58 110.43 575.74 111.39 577.72 111.39C582.61 111.39 587.32 106.23 587.32 100.86ZM583.57 101.25C583.57 103.02 582.76 105.81 581.68 107.67C580.66 109.5 579.49 110.4 578.2 110.4C577.66 110.4 577.27 110.07 577.27 109.59C577.27 109.23 577.78 106.89 578.11 105.72C578.5 104.37 579.1 102.72 579.58 101.7C580.33 100.05 581.26 99.18 582.25 99.18C583.12 99.18 583.57 99.87 583.57 101.25ZM601.48 92.46C601.48 90.99 600.34 90.06 598.51 90.06C596.95 90.06 595.51 90.69 594.43 91.89C593.17 93.27 592.6 94.5 591.73 97.53H589.54L589.27 98.79H591.46L588.82 110.55C587.89 114.99 587.32 116.22 586.12 116.22C585.82 116.22 585.58 116.07 585.58 115.89C585.58 115.89 585.64 115.74 585.7 115.62C585.94 115.26 586.06 114.93 586.06 114.6C586.06 113.88 585.34 113.16 584.56 113.16C583.75 113.16 583.03 113.91 583.03 114.78C583.03 116.22 584.2 117.15 586 117.15C587.32 117.15 588.46 116.7 589.42 115.77C590.5 114.72 591.19 113.37 592.12 110.61C592.93 108.18 593.29 106.74 594.97 98.79H597.67L597.94 97.53H595.18L595.72 95.4C596.47 92.43 597.37 90.93 598.45 90.93C598.75 90.93 598.96 91.08 598.96 91.32C598.96 91.32 598.93 91.47 598.81 91.65C598.57 92.01 598.48 92.28 598.48 92.58C598.48 93.42 599.11 94.05 599.95 94.05C600.85 94.05 601.48 93.39 601.48 92.46Z" fill="#1C1B1B"/>
<path d="M498.14 56.19L497.48 55.77L497.06 56.37C496.28 57.54 495.59 58.17 495.14 58.17C494.9 58.17 494.69 57.96 494.69 57.72C494.69 57.45 494.84 56.67 494.96 56.16L497.69 46.14C496.07 46.5 493.97 46.8 491.63 46.98V47.79H492.02C492.92 47.79 493.4 48.09 493.4 48.66C493.4 48.9 493.31 49.35 493.19 49.86L491.45 56.31C491.21 57.18 491.06 57.96 491.06 58.38C491.06 59.52 491.9 60.27 493.13 60.27C494.93 60.27 496.04 59.37 498.14 56.19ZM498.98 42.3C498.98 41.19 498.05 40.26 496.91 40.26C495.86 40.26 494.93 41.19 494.93 42.24C494.93 43.41 495.8 44.31 496.91 44.31C498.05 44.31 498.98 43.41 498.98 42.3ZM506.82 56.43C506.82 55.08 506.07 53.61 504.39 51.66C503.22 50.31 502.71 49.41 502.71 48.72C502.71 47.76 503.34 47.13 504.3 47.13C505.68 47.13 506.46 48.21 506.94 50.7L507.75 50.76L508.44 46.17H507.57C507.24 46.74 507.15 46.8 506.7 46.8C506.4 46.8 506.16 46.74 505.62 46.53C504.87 46.23 504.48 46.14 503.88 46.14C501.45 46.14 499.86 47.61 499.86 49.92C499.86 51.54 500.28 52.38 502.26 54.75C503.4 56.1 503.94 57.12 503.94 57.87C503.94 58.77 503.19 59.49 502.23 59.49C500.7 59.49 499.74 58.17 499.35 55.5L498.54 55.41L497.88 60.39H498.69C498.81 60.03 499.17 59.79 499.56 59.79C499.77 59.79 500.1 59.88 500.49 60.03C501.21 60.27 501.75 60.39 502.38 60.39C504.93 60.39 506.82 58.68 506.82 56.43Z" fill="#1C1B1B"/>
<path d="M422.38 4.77C422.38 2.55 421.12 1.14 419.14 1.14C417.43 1.14 416.11 2.1 414.34 4.59L415.48 1.14L409.69 1.98V2.79C411.04 2.85 411.31 2.97 411.31 3.54C411.31 3.84 411.07 4.92 410.65 6.48L407.65 18.12C407.08 20.1 406.84 20.37 405.4 20.34V21.15H412.87V20.34C411.37 20.31 410.92 20.1 410.92 19.38C410.92 18.96 411.13 18.06 411.7 15.96C411.91 15.24 411.91 15.18 412.03 14.73C413.08 15.27 413.44 15.39 414.07 15.39C418.15 15.39 422.38 9.96 422.38 4.77ZM418.63 4.98C418.51 6.96 417.55 9.93 416.47 11.88C415.54 13.5 414.58 14.34 413.56 14.34C412.9 14.34 412.39 13.86 412.39 13.26C412.39 12.75 412.72 11.52 413.53 8.79C414.19 6.6 414.46 5.85 414.91 5.16C415.66 3.99 416.68 3.21 417.46 3.27C418.24 3.33 418.69 4.02 418.63 4.98ZM436.75 11.64L436.12 11.19C434.89 12.84 434.44 13.29 433.96 13.29C433.72 13.29 433.6 13.11 433.6 12.84C433.6 12.09 433.87 10.86 434.62 8.4L436.75 1.32L433.42 1.53L432.88 3.3C432.61 1.77 431.95 1.14 430.66 1.14C426.97 1.14 422.47 6.9 422.47 11.58C422.47 13.86 423.76 15.39 425.71 15.39C427.54 15.39 428.92 14.31 430.63 11.43C430.27 12.66 430.21 13.02 430.21 13.44C430.21 14.55 431.11 15.42 432.22 15.42C433.63 15.42 435.01 14.25 436.75 11.64ZM432.19 3.81C432.19 5.61 431.2 8.94 430.03 11.01C429.22 12.48 428.32 13.26 427.51 13.26C426.73 13.26 426.16 12.57 426.16 11.64C426.16 10.08 427.15 7.08 428.38 4.86C429.28 3.27 430.27 2.34 431.08 2.4C431.74 2.46 432.19 3 432.19 3.81Z" fill="#1C1B1B"/>
<path d="M13.32 281.469C13.32 279.279 11.94 277.749 9.96 277.749C8.43 277.749 7.35 278.439 5.82 280.479L8.52 270.639C6.42 271.029 4.95 271.239 2.28 271.539V272.349H2.82C3.72 272.349 4.17 272.649 4.17 273.249C4.17 273.639 3.81 275.139 3 277.959L0.18 287.769C-0.12 288.849 -0.42 290.019 -0.42 290.199C-0.42 291.039 1.74 291.999 3.72 291.999C8.61 291.999 13.32 286.839 13.32 281.469ZM9.57 281.859C9.57 283.629 8.76 286.419 7.68 288.279C6.66 290.109 5.49 291.009 4.2 291.009C3.66 291.009 3.27 290.679 3.27 290.199C3.27 289.839 3.78 287.499 4.11 286.329C4.5 284.979 5.1 283.329 5.58 282.309C6.33 280.659 7.26 279.789 8.25 279.789C9.12 279.789 9.57 280.479 9.57 281.859ZM25.837 279.759C25.837 278.709 24.967 277.749 24.007 277.749C23.107 277.749 22.327 278.559 22.327 279.489C22.327 279.999 22.507 280.419 23.047 281.019C23.497 281.529 23.647 281.799 23.647 282.129C23.647 283.179 22.837 284.379 19.867 287.769C19.747 281.889 19.567 280.149 18.937 277.749C17.467 278.109 16.777 278.229 14.287 278.589V279.399C15.217 279.399 15.487 279.489 15.697 279.879C16.177 280.839 16.507 283.449 16.507 286.689C16.507 286.809 16.507 287.319 16.477 287.919L16.357 291.999H17.137C20.947 288.369 22.357 286.779 24.007 284.379C25.207 282.639 25.837 281.019 25.837 279.759Z" fill="#1C1B1B"/>
<path d="M67.5 31.72C66.9 31.72 66.39 31.51 65.97 31.09C65.55 30.67 65.34 30.16 65.34 29.56V3.82C65.34 3.22 65.55 2.71 65.97 2.29C66.39 1.87 66.9 1.66 67.5 1.66H76.5C77.1 1.66 77.61 1.87 78.03 2.29C78.45 2.71 78.66 3.22 78.66 3.82C78.66 4.42 78.45 4.93 78.03 5.35C77.61 5.77 77.1 5.98 76.5 5.98H69.66V14.08H75.6C76.2 14.08 76.71 14.29 77.13 14.71C77.55 15.13 77.76 15.64 77.76 16.24C77.76 16.84 77.55 17.35 77.13 17.77C76.71 18.19 76.2 18.4 75.6 18.4H69.66V29.56C69.66 30.16 69.45 30.67 69.03 31.09C68.61 31.51 68.1 31.72 67.5 31.72ZM83.7158 31.9C83.1158 31.9 82.6058 31.69 82.1858 31.27C81.7658 30.85 81.5558 30.34 81.5558 29.74V3.64C81.5558 3.04 81.7658 2.53 82.1858 2.11C82.6058 1.69 83.1158 1.48 83.7158 1.48C84.3158 1.48 84.8258 1.69 85.2458 2.11C85.6658 2.53 85.8758 3.04 85.8758 3.64V29.74C85.8758 30.34 85.6658 30.85 85.2458 31.27C84.8258 31.69 84.3158 31.9 83.7158 31.9ZM102.985 14.98C103.585 14.98 104.095 15.19 104.515 15.61C104.935 16.03 105.145 16.54 105.145 17.14V24.34C105.145 25.39 104.95 26.38 104.56 27.31C104.17 28.21 103.63 29.005 102.94 29.695C102.25 30.385 101.44 30.925 100.51 31.315C99.6096 31.705 98.6346 31.9 97.5846 31.9C96.5346 31.9 95.5446 31.705 94.6146 31.315C93.7146 30.925 92.9196 30.385 92.2296 29.695C91.5696 29.005 91.0296 28.21 90.6096 27.31C90.2196 26.38 90.0246 25.39 90.0246 24.34V9.04C90.0246 8.2 90.1596 7.39 90.4296 6.61C90.6996 5.8 91.0746 5.08 91.5546 4.45C92.0646 3.79 92.6646 3.235 93.3546 2.785C94.0446 2.305 94.8096 1.96 95.6496 1.75C96.4596 1.54 97.2846 1.465 98.1246 1.525C98.9646 1.555 99.7596 1.735 100.51 2.065C101.26 2.365 101.95 2.785 102.58 3.325C103.21 3.865 103.735 4.51 104.155 5.26C104.455 5.77 104.515 6.31 104.335 6.88C104.185 7.45 103.855 7.9 103.345 8.23C102.835 8.53 102.295 8.605 101.725 8.455C101.155 8.275 100.72 7.93 100.42 7.42C100.03 6.79 99.4896 6.34 98.7996 6.07C98.1396 5.77 97.4646 5.725 96.7746 5.935C96.0546 6.115 95.4696 6.505 95.0196 7.105C94.5696 7.675 94.3446 8.32 94.3446 9.04V24.34C94.3446 25.24 94.6596 26.005 95.2896 26.635C95.9496 27.265 96.7146 27.58 97.5846 27.58C98.4846 27.58 99.2496 27.265 99.8796 26.635C100.51 26.005 100.825 25.24 100.825 24.34V19.3H98.4846C97.8846 19.3 97.3746 19.09 96.9546 18.67C96.5346 18.25 96.3246 17.74 96.3246 17.14C96.3246 16.54 96.5346 16.03 96.9546 15.61C97.3746 15.19 97.8846 14.98 98.4846 14.98H102.985ZM108.48 29.29C108.48 28.57 108.735 27.955 109.245 27.445C109.755 26.935 110.37 26.68 111.09 26.68C111.81 26.68 112.425 26.935 112.935 27.445C113.445 27.955 113.7 28.57 113.7 29.29C113.7 30.01 113.445 30.625 112.935 31.135C112.425 31.645 111.81 31.9 111.09 31.9C110.37 31.9 109.755 31.645 109.245 31.135C108.735 30.625 108.48 30.01 108.48 29.29ZM122.807 31.63C121.997 31.42 121.247 31.09 120.557 30.64C119.867 30.16 119.267 29.605 118.757 28.975C118.277 28.315 117.902 27.595 117.632 26.815C117.362 26.035 117.227 25.21 117.227 24.34V9.04C117.227 8.2 117.362 7.39 117.632 6.61C117.902 5.8 118.277 5.08 118.757 4.45C119.267 3.79 119.867 3.235 120.557 2.785C121.247 2.305 121.997 1.96 122.807 1.75C124.487 1.3 126.107 1.405 127.667 2.065C129.227 2.695 130.442 3.76 131.312 5.26C131.642 5.77 131.717 6.31 131.537 6.88C131.387 7.45 131.057 7.9 130.547 8.23C130.037 8.53 129.497 8.605 128.927 8.455C128.357 8.275 127.907 7.93 127.577 7.42C127.217 6.79 126.692 6.34 126.002 6.07C125.342 5.77 124.652 5.725 123.932 5.935C123.242 6.115 122.672 6.505 122.222 7.105C121.772 7.675 121.547 8.32 121.547 9.04V24.34C121.547 25.09 121.772 25.75 122.222 26.32C122.672 26.89 123.242 27.28 123.932 27.49C124.652 27.67 125.342 27.625 126.002 27.355C126.692 27.055 127.217 26.59 127.577 25.96C127.907 25.45 128.357 25.12 128.927 24.97C129.497 24.79 130.037 24.85 130.547 25.15C131.057 25.48 131.387 25.93 131.537 26.5C131.717 27.07 131.642 27.61 131.312 28.12C130.442 29.62 129.227 30.685 127.667 31.315C126.107 31.975 124.487 32.08 122.807 31.63ZM140.121 31.63C139.311 31.42 138.561 31.09 137.871 30.64C137.181 30.16 136.581 29.605 136.071 28.975C135.591 28.315 135.216 27.595 134.946 26.815C134.676 26.035 134.541 25.21 134.541 24.34V9.04C134.541 8.2 134.676 7.39 134.946 6.61C135.216 5.8 135.591 5.08 136.071 4.45C136.581 3.79 137.181 3.235 137.871 2.785C138.561 2.305 139.311 1.96 140.121 1.75C141.801 1.3 143.421 1.405 144.981 2.065C146.541 2.695 147.756 3.76 148.626 5.26C148.956 5.77 149.031 6.31 148.851 6.88C148.701 7.45 148.371 7.9 147.861 8.23C147.351 8.53 146.811 8.605 146.241 8.455C145.671 8.275 145.221 7.93 144.891 7.42C144.531 6.79 144.006 6.34 143.316 6.07C142.656 5.77 141.966 5.725 141.246 5.935C140.556 6.115 139.986 6.505 139.536 7.105C139.086 7.675 138.861 8.32 138.861 9.04V24.34C138.861 25.09 139.086 25.75 139.536 26.32C139.986 26.89 140.556 27.28 141.246 27.49C141.966 27.67 142.656 27.625 143.316 27.355C144.006 27.055 144.531 26.59 144.891 25.96C145.221 25.45 145.671 25.12 146.241 24.97C146.811 24.79 147.351 24.85 147.861 25.15C148.371 25.48 148.701 25.93 148.851 26.5C149.031 27.07 148.956 27.61 148.626 28.12C147.756 29.62 146.541 30.685 144.981 31.315C143.421 31.975 141.801 32.08 140.121 31.63Z" fill="#1C1B1B"/>
</g>
<defs>
<clipPath id="clip0">
<rect width="840" height="530" fill="white"/>
</clipPath>
</defs>
</svg>
