<svg width="840" height="485" viewBox="0 0 840 485" fill="none" xmlns="http://www.w3.org/2000/svg">
<g clip-path="url(#clip0)">
<path fill-rule="evenodd" clip-rule="evenodd" d="M112.896 316.582C119.128 299.728 125.091 287.788 133.849 279.022C142.53 270.332 153.864 264.849 170.651 260.663L170.465 259.09L184.121 259.822L171.014 263.726L170.889 262.665C154.429 266.796 143.549 272.141 135.264 280.435C126.825 288.883 120.983 300.479 114.771 317.275L112.896 316.582Z" fill="#1C1B1B"/>
<path fill-rule="evenodd" clip-rule="evenodd" d="M187.896 361.582C194.128 344.728 200.091 332.788 208.849 324.022C217.53 315.332 228.864 309.849 245.651 305.663L245.465 304.09L259.121 304.822L246.014 308.726L245.889 307.665C229.429 311.796 218.549 317.141 210.264 325.435C201.825 333.883 195.983 345.479 189.771 362.275L187.896 361.582Z" fill="#1C1B1B"/>
<path fill-rule="evenodd" clip-rule="evenodd" d="M22.8955 260.582C29.1281 243.728 35.0914 231.788 43.849 223.022C52.5299 214.332 63.8641 208.849 80.6515 204.663L80.4651 203.09L94.1215 203.822L81.0145 207.726L80.8888 206.665C64.4286 210.796 53.5495 216.141 45.264 224.435C36.8253 232.883 30.9827 244.479 24.7714 261.275L22.8955 260.582Z" fill="#1C1B1B"/>
<path fill-rule="evenodd" clip-rule="evenodd" d="M571.368 104C554.462 109.883 542.454 115.593 533.554 124.148C524.73 132.628 519.051 143.813 514.558 160.454L513 160.239L513.466 173.854L517.606 160.875L516.556 160.73C520.986 144.415 526.52 133.682 534.939 125.59C543.515 117.348 555.177 111.752 572.025 105.889L571.368 104Z" fill="#1C1B1B"/>
<path fill-rule="evenodd" clip-rule="evenodd" d="M488.368 53C471.462 58.8835 459.454 64.5934 450.554 73.1479C441.73 81.6279 436.051 92.8126 431.558 109.454L430 109.239L430.466 122.854L434.606 109.875L433.556 109.73C437.986 93.4146 443.52 82.6822 451.939 74.5899C460.515 66.3481 472.177 60.7522 489.025 54.8889L488.368 53Z" fill="#1C1B1B"/>
<path fill-rule="evenodd" clip-rule="evenodd" d="M406.368 8C389.462 13.8835 377.454 19.5934 368.554 28.1479C359.73 36.6279 354.051 47.8126 349.558 64.4539L348 64.2385L348.466 77.8544L352.606 64.8749L351.556 64.7298C355.986 48.4146 361.52 37.6822 369.939 29.5899C378.515 21.3481 390.177 15.7522 407.025 9.88889L406.368 8Z" fill="#1C1B1B"/>
<path d="M113.32 336.469C113.32 334.279 111.94 332.749 109.96 332.749C108.43 332.749 107.35 333.439 105.82 335.479L108.52 325.639C106.42 326.029 104.95 326.239 102.28 326.539V327.349H102.82C103.72 327.349 104.17 327.649 104.17 328.249C104.17 328.639 103.81 330.139 103 332.959L100.18 342.769C99.88 343.849 99.58 345.019 99.58 345.199C99.58 346.039 101.74 346.999 103.72 346.999C108.61 346.999 113.32 341.839 113.32 336.469ZM109.57 336.859C109.57 338.629 108.76 341.419 107.68 343.279C106.66 345.109 105.49 346.009 104.2 346.009C103.66 346.009 103.27 345.679 103.27 345.199C103.27 344.839 103.78 342.499 104.11 341.329C104.5 339.979 105.1 338.329 105.58 337.309C106.33 335.659 107.26 334.789 108.25 334.789C109.12 334.789 109.57 335.479 109.57 336.859ZM124.48 342.919L123.64 342.379C122.2 344.389 121.27 345.079 119.98 345.079C118.66 345.079 117.79 343.999 117.79 342.409C117.79 340.519 118.57 337.819 119.65 335.869C120.46 334.459 121.3 333.739 122.23 333.739C122.59 333.739 122.89 333.949 122.89 334.249C122.89 334.369 122.83 334.549 122.65 334.819C122.38 335.299 122.26 335.629 122.26 335.989C122.26 336.889 122.98 337.549 124 337.549C125.11 337.549 125.86 336.709 125.86 335.449C125.86 333.859 124.51 332.749 122.5 332.749C118.27 332.749 113.95 337.669 113.95 342.469C113.95 345.139 115.81 346.999 118.54 346.999C119.86 346.999 121.15 346.519 122.17 345.649C122.95 344.989 123.43 344.419 124.48 342.919Z" fill="#1C1B1B"/>
<path d="M196.66 387.949L196 387.559C195.88 387.709 195.76 387.889 195.64 388.099C194.95 389.209 194.32 389.839 193.93 389.839C193.66 389.839 193.45 389.659 193.45 389.419C193.45 389.089 193.45 389.089 194.08 387.079L195.43 383.089C195.88 381.799 196.12 380.659 196.12 379.879C196.12 378.649 195.13 377.749 193.81 377.749C191.77 377.749 190.36 378.949 187.87 382.909C188.47 381.349 188.65 380.629 188.65 379.789C188.65 378.529 187.9 377.749 186.64 377.749C185.8 377.749 184.9 378.079 184.06 378.769C182.95 379.609 182.05 380.719 180.1 383.749L182.02 377.779C180.13 378.229 179.41 378.319 176.02 378.589V379.399C176.8 379.399 177.64 379.459 177.64 380.149C177.64 380.599 177.4 381.559 176.59 384.469L174.58 391.609H178.21C179.8 385.939 180.91 383.389 182.62 381.349C183.28 380.569 184.12 379.939 184.57 379.939C184.87 379.939 185.11 380.239 185.11 380.599C185.11 381.109 184.75 382.369 183.76 385.399L181.81 391.609H185.41C187.15 385.849 187.36 385.309 188.44 383.419C189.7 381.169 190.9 379.939 191.8 379.939C192.16 379.939 192.49 380.239 192.49 380.569C192.49 380.749 192.4 381.079 192.28 381.469L190.93 385.399C190.27 387.319 189.85 389.119 189.85 389.989C189.85 391.219 190.57 391.879 191.86 391.879C193.72 391.879 194.92 390.889 196.66 387.949Z" fill="#1C1B1B"/>
<path d="M597.32 99.86C597.32 97.67 595.94 96.14 593.96 96.14C592.43 96.14 591.35 96.83 589.82 98.87L592.52 89.03C590.42 89.42 588.95 89.63 586.28 89.93V90.74H586.82C587.72 90.74 588.17 91.04 588.17 91.64C588.17 92.03 587.81 93.53 587 96.35L584.18 106.16C583.88 107.24 583.58 108.41 583.58 108.59C583.58 109.43 585.74 110.39 587.72 110.39C592.61 110.39 597.32 105.23 597.32 99.86ZM593.57 100.25C593.57 102.02 592.76 104.81 591.68 106.67C590.66 108.5 589.49 109.4 588.2 109.4C587.66 109.4 587.27 109.07 587.27 108.59C587.27 108.23 587.78 105.89 588.11 104.72C588.5 103.37 589.1 101.72 589.58 100.7C590.33 99.05 591.26 98.18 592.25 98.18C593.12 98.18 593.57 98.87 593.57 100.25ZM611.48 91.46C611.48 89.99 610.34 89.06 608.51 89.06C606.95 89.06 605.51 89.69 604.43 90.89C603.17 92.27 602.6 93.5 601.73 96.53H599.54L599.27 97.79H601.46L598.82 109.55C597.89 113.99 597.32 115.22 596.12 115.22C595.82 115.22 595.58 115.07 595.58 114.89C595.58 114.89 595.64 114.74 595.7 114.62C595.94 114.26 596.06 113.93 596.06 113.6C596.06 112.88 595.34 112.16 594.56 112.16C593.75 112.16 593.03 112.91 593.03 113.78C593.03 115.22 594.2 116.15 596 116.15C597.32 116.15 598.46 115.7 599.42 114.77C600.5 113.72 601.19 112.37 602.12 109.61C602.93 107.18 603.29 105.74 604.97 97.79H607.67L607.94 96.53H605.18L605.72 94.4C606.47 91.43 607.37 89.93 608.45 89.93C608.75 89.93 608.96 90.08 608.96 90.32C608.96 90.32 608.93 90.47 608.81 90.65C608.57 91.01 608.48 91.28 608.48 91.58C608.48 92.42 609.11 93.05 609.95 93.05C610.85 93.05 611.48 92.39 611.48 91.46Z" fill="#1C1B1B"/>
<path d="M508.14 55.19L507.48 54.77L507.06 55.37C506.28 56.54 505.59 57.17 505.14 57.17C504.9 57.17 504.69 56.96 504.69 56.72C504.69 56.45 504.84 55.67 504.96 55.16L507.69 45.14C506.07 45.5 503.97 45.8 501.63 45.98V46.79H502.02C502.92 46.79 503.4 47.09 503.4 47.66C503.4 47.9 503.31 48.35 503.19 48.86L501.45 55.31C501.21 56.18 501.06 56.96 501.06 57.38C501.06 58.52 501.9 59.27 503.13 59.27C504.93 59.27 506.04 58.37 508.14 55.19ZM508.98 41.3C508.98 40.19 508.05 39.26 506.91 39.26C505.86 39.26 504.93 40.19 504.93 41.24C504.93 42.41 505.8 43.31 506.91 43.31C508.05 43.31 508.98 42.41 508.98 41.3ZM516.82 55.43C516.82 54.08 516.07 52.61 514.39 50.66C513.22 49.31 512.71 48.41 512.71 47.72C512.71 46.76 513.34 46.13 514.3 46.13C515.68 46.13 516.46 47.21 516.94 49.7L517.75 49.76L518.44 45.17H517.57C517.24 45.74 517.15 45.8 516.7 45.8C516.4 45.8 516.16 45.74 515.62 45.53C514.87 45.23 514.48 45.14 513.88 45.14C511.45 45.14 509.86 46.61 509.86 48.92C509.86 50.54 510.28 51.38 512.26 53.75C513.4 55.1 513.94 56.12 513.94 56.87C513.94 57.77 513.19 58.49 512.23 58.49C510.7 58.49 509.74 57.17 509.35 54.5L508.54 54.41L507.88 59.39H508.69C508.81 59.03 509.17 58.79 509.56 58.79C509.77 58.79 510.1 58.88 510.49 59.03C511.21 59.27 511.75 59.39 512.38 59.39C514.93 59.39 516.82 57.68 516.82 55.43Z" fill="#1C1B1B"/>
<path d="M432.38 3.77C432.38 1.55 431.12 0.14 429.14 0.14C427.43 0.14 426.11 1.1 424.34 3.59L425.48 0.14L419.69 0.98V1.79C421.04 1.85 421.31 1.97 421.31 2.54C421.31 2.84 421.07 3.92 420.65 5.48L417.65 17.12C417.08 19.1 416.84 19.37 415.4 19.34V20.15H422.87V19.34C421.37 19.31 420.92 19.1 420.92 18.38C420.92 17.96 421.13 17.06 421.7 14.96C421.91 14.24 421.91 14.18 422.03 13.73C423.08 14.27 423.44 14.39 424.07 14.39C428.15 14.39 432.38 8.96 432.38 3.77ZM428.63 3.98C428.51 5.96 427.55 8.93 426.47 10.88C425.54 12.5 424.58 13.34 423.56 13.34C422.9 13.34 422.39 12.86 422.39 12.26C422.39 11.75 422.72 10.52 423.53 7.79C424.19 5.6 424.46 4.85 424.91 4.16C425.66 2.99 426.68 2.21 427.46 2.27C428.24 2.33 428.69 3.02 428.63 3.98ZM446.75 10.64L446.12 10.19C444.89 11.84 444.44 12.29 443.96 12.29C443.72 12.29 443.6 12.11 443.6 11.84C443.6 11.09 443.87 9.86 444.62 7.4L446.75 0.319999L443.42 0.529999L442.88 2.3C442.61 0.77 441.95 0.14 440.66 0.14C436.97 0.14 432.47 5.9 432.47 10.58C432.47 12.86 433.76 14.39 435.71 14.39C437.54 14.39 438.92 13.31 440.63 10.43C440.27 11.66 440.21 12.02 440.21 12.44C440.21 13.55 441.11 14.42 442.22 14.42C443.63 14.42 445.01 13.25 446.75 10.64ZM442.19 2.81C442.19 4.61 441.2 7.94 440.03 10.01C439.22 11.48 438.32 12.26 437.51 12.26C436.73 12.26 436.16 11.57 436.16 10.64C436.16 9.08 437.15 6.08 438.38 3.86C439.28 2.27 440.27 1.34 441.08 1.4C441.74 1.46 442.19 2 442.19 2.81Z" fill="#1C1B1B"/>
<path d="M23.32 280.469C23.32 278.279 21.94 276.749 19.96 276.749C18.43 276.749 17.35 277.439 15.82 279.479L18.52 269.639C16.42 270.029 14.95 270.239 12.28 270.539V271.349H12.82C13.72 271.349 14.17 271.649 14.17 272.249C14.17 272.639 13.81 274.139 13 276.959L10.18 286.769C9.88 287.849 9.58 289.019 9.58 289.199C9.58 290.039 11.74 290.999 13.72 290.999C18.61 290.999 23.32 285.839 23.32 280.469ZM19.57 280.859C19.57 282.629 18.76 285.419 17.68 287.279C16.66 289.109 15.49 290.009 14.2 290.009C13.66 290.009 13.27 289.679 13.27 289.199C13.27 288.839 13.78 286.499 14.11 285.329C14.5 283.979 15.1 282.329 15.58 281.309C16.33 279.659 17.26 278.789 18.25 278.789C19.12 278.789 19.57 279.479 19.57 280.859ZM35.837 278.759C35.837 277.709 34.967 276.749 34.007 276.749C33.107 276.749 32.327 277.559 32.327 278.489C32.327 278.999 32.507 279.419 33.047 280.019C33.497 280.529 33.647 280.799 33.647 281.129C33.647 282.179 32.837 283.379 29.867 286.769C29.747 280.889 29.567 279.149 28.937 276.749C27.467 277.109 26.777 277.229 24.287 277.589V278.399C25.217 278.399 25.487 278.489 25.697 278.879C26.177 279.839 26.507 282.449 26.507 285.689C26.507 285.809 26.507 286.319 26.477 286.919L26.357 290.999H27.137C30.947 287.369 32.357 285.779 34.007 283.379C35.207 281.639 35.837 280.019 35.837 278.759Z" fill="#1C1B1B"/>
<path d="M67.5 40.72C66.9 40.72 66.39 40.51 65.97 40.09C65.55 39.67 65.34 39.16 65.34 38.56V12.82C65.34 12.22 65.55 11.71 65.97 11.29C66.39 10.87 66.9 10.66 67.5 10.66H76.5C77.1 10.66 77.61 10.87 78.03 11.29C78.45 11.71 78.66 12.22 78.66 12.82C78.66 13.42 78.45 13.93 78.03 14.35C77.61 14.77 77.1 14.98 76.5 14.98H69.66V23.08H75.6C76.2 23.08 76.71 23.29 77.13 23.71C77.55 24.13 77.76 24.64 77.76 25.24C77.76 25.84 77.55 26.35 77.13 26.77C76.71 27.19 76.2 27.4 75.6 27.4H69.66V38.56C69.66 39.16 69.45 39.67 69.03 40.09C68.61 40.51 68.1 40.72 67.5 40.72ZM83.7158 40.9C83.1158 40.9 82.6058 40.69 82.1858 40.27C81.7658 39.85 81.5558 39.34 81.5558 38.74V12.64C81.5558 12.04 81.7658 11.53 82.1858 11.11C82.6058 10.69 83.1158 10.48 83.7158 10.48C84.3158 10.48 84.8258 10.69 85.2458 11.11C85.6658 11.53 85.8758 12.04 85.8758 12.64V38.74C85.8758 39.34 85.6658 39.85 85.2458 40.27C84.8258 40.69 84.3158 40.9 83.7158 40.9ZM102.985 23.98C103.585 23.98 104.095 24.19 104.515 24.61C104.935 25.03 105.145 25.54 105.145 26.14V33.34C105.145 34.39 104.95 35.38 104.56 36.31C104.17 37.21 103.63 38.005 102.94 38.695C102.25 39.385 101.44 39.925 100.51 40.315C99.6096 40.705 98.6346 40.9 97.5846 40.9C96.5346 40.9 95.5446 40.705 94.6146 40.315C93.7146 39.925 92.9196 39.385 92.2296 38.695C91.5696 38.005 91.0296 37.21 90.6096 36.31C90.2196 35.38 90.0246 34.39 90.0246 33.34V18.04C90.0246 17.2 90.1596 16.39 90.4296 15.61C90.6996 14.8 91.0746 14.08 91.5546 13.45C92.0646 12.79 92.6646 12.235 93.3546 11.785C94.0446 11.305 94.8096 10.96 95.6496 10.75C96.4596 10.54 97.2846 10.465 98.1246 10.525C98.9646 10.555 99.7596 10.735 100.51 11.065C101.26 11.365 101.95 11.785 102.58 12.325C103.21 12.865 103.735 13.51 104.155 14.26C104.455 14.77 104.515 15.31 104.335 15.88C104.185 16.45 103.855 16.9 103.345 17.23C102.835 17.53 102.295 17.605 101.725 17.455C101.155 17.275 100.72 16.93 100.42 16.42C100.03 15.79 99.4896 15.34 98.7996 15.07C98.1396 14.77 97.4646 14.725 96.7746 14.935C96.0546 15.115 95.4696 15.505 95.0196 16.105C94.5696 16.675 94.3446 17.32 94.3446 18.04V33.34C94.3446 34.24 94.6596 35.005 95.2896 35.635C95.9496 36.265 96.7146 36.58 97.5846 36.58C98.4846 36.58 99.2496 36.265 99.8796 35.635C100.51 35.005 100.825 34.24 100.825 33.34V28.3H98.4846C97.8846 28.3 97.3746 28.09 96.9546 27.67C96.5346 27.25 96.3246 26.74 96.3246 26.14C96.3246 25.54 96.5346 25.03 96.9546 24.61C97.3746 24.19 97.8846 23.98 98.4846 23.98H102.985ZM108.48 38.29C108.48 37.57 108.735 36.955 109.245 36.445C109.755 35.935 110.37 35.68 111.09 35.68C111.81 35.68 112.425 35.935 112.935 36.445C113.445 36.955 113.7 37.57 113.7 38.29C113.7 39.01 113.445 39.625 112.935 40.135C112.425 40.645 111.81 40.9 111.09 40.9C110.37 40.9 109.755 40.645 109.245 40.135C108.735 39.625 108.48 39.01 108.48 38.29ZM122.807 40.63C121.997 40.42 121.247 40.09 120.557 39.64C119.867 39.16 119.267 38.605 118.757 37.975C118.277 37.315 117.902 36.595 117.632 35.815C117.362 35.035 117.227 34.21 117.227 33.34V18.04C117.227 17.2 117.362 16.39 117.632 15.61C117.902 14.8 118.277 14.08 118.757 13.45C119.267 12.79 119.867 12.235 120.557 11.785C121.247 11.305 121.997 10.96 122.807 10.75C124.487 10.3 126.107 10.405 127.667 11.065C129.227 11.695 130.442 12.76 131.312 14.26C131.642 14.77 131.717 15.31 131.537 15.88C131.387 16.45 131.057 16.9 130.547 17.23C130.037 17.53 129.497 17.605 128.927 17.455C128.357 17.275 127.907 16.93 127.577 16.42C127.217 15.79 126.692 15.34 126.002 15.07C125.342 14.77 124.652 14.725 123.932 14.935C123.242 15.115 122.672 15.505 122.222 16.105C121.772 16.675 121.547 17.32 121.547 18.04V33.34C121.547 34.09 121.772 34.75 122.222 35.32C122.672 35.89 123.242 36.28 123.932 36.49C124.652 36.67 125.342 36.625 126.002 36.355C126.692 36.055 127.217 35.59 127.577 34.96C127.907 34.45 128.357 34.12 128.927 33.97C129.497 33.79 130.037 33.85 130.547 34.15C131.057 34.48 131.387 34.93 131.537 35.5C131.717 36.07 131.642 36.61 131.312 37.12C130.442 38.62 129.227 39.685 127.667 40.315C126.107 40.975 124.487 41.08 122.807 40.63ZM140.121 40.63C139.311 40.42 138.561 40.09 137.871 39.64C137.181 39.16 136.581 38.605 136.071 37.975C135.591 37.315 135.216 36.595 134.946 35.815C134.676 35.035 134.541 34.21 134.541 33.34V18.04C134.541 17.2 134.676 16.39 134.946 15.61C135.216 14.8 135.591 14.08 136.071 13.45C136.581 12.79 137.181 12.235 137.871 11.785C138.561 11.305 139.311 10.96 140.121 10.75C141.801 10.3 143.421 10.405 144.981 11.065C146.541 11.695 147.756 12.76 148.626 14.26C148.956 14.77 149.031 15.31 148.851 15.88C148.701 16.45 148.371 16.9 147.861 17.23C147.351 17.53 146.811 17.605 146.241 17.455C145.671 17.275 145.221 16.93 144.891 16.42C144.531 15.79 144.006 15.34 143.316 15.07C142.656 14.77 141.966 14.725 141.246 14.935C140.556 15.115 139.986 15.505 139.536 16.105C139.086 16.675 138.861 17.32 138.861 18.04V33.34C138.861 34.09 139.086 34.75 139.536 35.32C139.986 35.89 140.556 36.28 141.246 36.49C141.966 36.67 142.656 36.625 143.316 36.355C144.006 36.055 144.531 35.59 144.891 34.96C145.221 34.45 145.671 34.12 146.241 33.97C146.811 33.79 147.351 33.85 147.861 34.15C148.371 34.48 148.701 34.93 148.851 35.5C149.031 36.07 148.956 36.61 148.626 37.12C147.756 38.62 146.541 39.685 144.981 40.315C143.421 40.975 141.801 41.08 140.121 40.63Z" fill="#1C1B1B"/>
</g>
<defs>
<clipPath id="clip0">
<rect width="840" height="485" fill="white"/>
</clipPath>
</defs>
</svg>
