<svg width="840" height="530" viewBox="0 0 840 530" fill="none" xmlns="http://www.w3.org/2000/svg">
<path fill-rule="evenodd" clip-rule="evenodd" d="M143.459 186.329C136.203 184.989 131.075 181.935 127.087 177.874C122.571 173.275 119.556 167.41 116.54 161.544C116.253 160.987 115.966 160.429 115.678 159.873C112.333 153.408 108.785 147.019 103.032 141.948C97.3056 136.902 89.319 133.1 77 131.992L77.1792 130C89.859 131.14 98.2646 135.081 104.354 140.448C110.416 145.79 114.108 152.486 117.455 158.954C117.737 159.5 118.017 160.045 118.296 160.586L118.298 160.59C121.345 166.511 124.223 172.103 128.514 176.473C132.181 180.207 136.909 183.068 143.733 184.346L143.932 182.906L157.009 187.077L143.291 187.547L143.459 186.329Z" fill="#1C1B1B"/>
<path d="M353 52L382.041 52L382.041 110.108" stroke="#1C1B1B" stroke-width="2"/>
<path d="M382.043 122L379.482 105.784L384.604 105.784L382.043 122Z" fill="#1C1B1B"/>
<line x1="703.072" y1="276.25" x2="631.872" y2="276.25" stroke="#1C1B1B" stroke-width="2"/>
<path d="M623.072 276.25L635.072 273.652L635.072 278.849L623.072 276.25Z" fill="#1C1B1B"/>
<path d="M731.65 275.64L731.02 275.19C729.79 276.84 729.34 277.29 728.86 277.29C728.62 277.29 728.5 277.11 728.5 276.84C728.5 276.09 728.77 274.86 729.52 272.4L731.65 265.32L728.32 265.53L727.78 267.3C727.51 265.77 726.85 265.14 725.56 265.14C721.87 265.14 717.37 270.9 717.37 275.58C717.37 277.86 718.66 279.39 720.61 279.39C722.44 279.39 723.82 278.31 725.53 275.43C725.17 276.66 725.11 277.02 725.11 277.44C725.11 278.55 726.01 279.42 727.12 279.42C728.53 279.42 729.91 278.25 731.65 275.64ZM727.09 267.81C727.09 269.61 726.1 272.94 724.93 275.01C724.12 276.48 723.22 277.26 722.41 277.26C721.63 277.26 721.06 276.57 721.06 275.64C721.06 274.08 722.05 271.08 723.28 268.86C724.18 267.27 725.17 266.34 725.98 266.4C726.64 266.46 727.09 267 727.09 267.81Z" fill="#1C1B1B"/>
<path d="M332.38 55.31L331.54 54.77C330.1 56.78 329.17 57.47 327.88 57.47C326.56 57.47 325.69 56.39 325.69 54.8C325.69 52.91 326.47 50.21 327.55 48.26C328.36 46.85 329.2 46.13 330.13 46.13C330.49 46.13 330.79 46.34 330.79 46.64C330.79 46.76 330.73 46.94 330.55 47.21C330.28 47.69 330.16 48.02 330.16 48.38C330.16 49.28 330.88 49.94 331.9 49.94C333.01 49.94 333.76 49.1 333.76 47.84C333.76 46.25 332.41 45.14 330.4 45.14C326.17 45.14 321.85 50.06 321.85 54.86C321.85 57.53 323.71 59.39 326.44 59.39C327.76 59.39 329.05 58.91 330.07 58.04C330.85 57.38 331.33 56.81 332.38 55.31ZM346.1 47.12C346.1 45.92 345.41 45.14 344.39 45.14C342.86 45.14 341.63 46.64 339.26 51.41L341.24 45.14C339.44 45.59 338.87 45.68 335.24 45.98V46.79C336.59 46.85 336.86 46.97 336.86 47.54C336.86 48.29 335.93 51.8 333.8 59H337.43L338.42 55.88C339.32 52.97 339.77 51.83 340.58 50.45C341.39 49.01 342.11 48.17 342.53 48.17C342.65 48.17 342.83 48.29 343.01 48.56C343.46 49.07 343.85 49.31 344.36 49.31C345.35 49.31 346.1 48.38 346.1 47.12Z" fill="#1C1B1B"/>
<path d="M47.37 132.43C47.37 131.08 46.62 129.61 44.94 127.66C43.77 126.31 43.26 125.41 43.26 124.72C43.26 123.76 43.89 123.13 44.85 123.13C46.23 123.13 47.01 124.21 47.49 126.7L48.3 126.76L48.99 122.17H48.12C47.79 122.74 47.7 122.8 47.25 122.8C46.95 122.8 46.71 122.74 46.17 122.53C45.42 122.23 45.03 122.14 44.43 122.14C42 122.14 40.41 123.61 40.41 125.92C40.41 127.54 40.83 128.38 42.81 130.75C43.95 132.1 44.49 133.12 44.49 133.87C44.49 134.77 43.74 135.49 42.78 135.49C41.25 135.49 40.29 134.17 39.9 131.5L39.09 131.41L38.43 136.39H39.24C39.36 136.03 39.72 135.79 40.11 135.79C40.32 135.79 40.65 135.88 41.04 136.03C41.76 136.27 42.3 136.39 42.93 136.39C45.48 136.39 47.37 134.68 47.37 132.43ZM63.4102 132.64L62.7802 132.19C61.5502 133.84 61.1002 134.29 60.6202 134.29C60.3802 134.29 60.2602 134.11 60.2602 133.84C60.2602 133.09 60.5302 131.86 61.2802 129.4L63.4102 122.32L60.0802 122.53L59.5402 124.3C59.2702 122.77 58.6102 122.14 57.3202 122.14C53.6302 122.14 49.1302 127.9 49.1302 132.58C49.1302 134.86 50.4202 136.39 52.3702 136.39C54.2002 136.39 55.5802 135.31 57.2902 132.43C56.9302 133.66 56.8702 134.02 56.8702 134.44C56.8702 135.55 57.7702 136.42 58.8802 136.42C60.2902 136.42 61.6702 135.25 63.4102 132.64ZM58.8502 124.81C58.8502 126.61 57.8602 129.94 56.6902 132.01C55.8802 133.48 54.9802 134.26 54.1702 134.26C53.3902 134.26 52.8202 133.57 52.8202 132.64C52.8202 131.08 53.8102 128.08 55.0402 125.86C55.9402 124.27 56.9302 123.34 57.7402 123.4C58.4002 123.46 58.8502 124 58.8502 124.81Z" fill="#1C1B1B"/>
</svg>
