<svg width="430" height="368" viewBox="0 0 430 368" fill="none" xmlns="http://www.w3.org/2000/svg">
<path d="M155.435 136.128L167.047 133.061L165.339 129.335L155.435 136.128Z" fill="black"/>
<path d="M161.469 133.336C195.513 121.197 167.493 85.3595 208.25 68.9796" stroke="black" stroke-width="2"/>
<line x1="203.086" y1="286.085" x2="162.108" y2="293.078" stroke="#1C1B1B" stroke-width="2"/>
<path d="M154.505 294.474L163.903 290.235L164.777 295.357L154.505 294.474Z" fill="#1C1B1B"/>
<line x1="237.377" y1="298.984" x2="263.905" y2="330.956" stroke="#1C1B1B" stroke-width="2"/>
<path d="M268.851 336.723L260.485 330.708L264.484 327.39L268.851 336.723Z" fill="#1C1B1B"/>
<path d="M237.38 48.46C237.38 46.99 236.24 46.06 234.41 46.06C232.85 46.06 231.41 46.69 230.33 47.89C229.07 49.27 228.5 50.5 227.63 53.53H225.44L225.17 54.79H227.36L224.72 66.55C223.79 70.99 223.22 72.22 222.02 72.22C221.72 72.22 221.48 72.07 221.48 71.89C221.48 71.89 221.54 71.74 221.6 71.62C221.84 71.26 221.96 70.93 221.96 70.6C221.96 69.88 221.24 69.16 220.46 69.16C219.65 69.16 218.93 69.91 218.93 70.78C218.93 72.22 220.1 73.15 221.9 73.15C223.22 73.15 224.36 72.7 225.32 71.77C226.4 70.72 227.09 69.37 228.02 66.61C228.83 64.18 229.19 62.74 230.87 54.79H233.57L233.84 53.53H231.08L231.62 51.4C232.37 48.43 233.27 46.93 234.35 46.93C234.65 46.93 234.86 47.08 234.86 47.32C234.86 47.32 234.83 47.47 234.71 47.65C234.47 48.01 234.38 48.28 234.38 48.58C234.38 49.42 235.01 50.05 235.85 50.05C236.75 50.05 237.38 49.39 237.38 48.46Z" fill="#1C1B1B"/>
<path d="M227.349 273.46C227.349 271.99 226.209 271.06 224.379 271.06C222.819 271.06 221.379 271.69 220.299 272.89C219.039 274.27 218.469 275.5 217.599 278.53H215.409L215.139 279.79H217.329L214.689 291.55C213.759 295.99 213.189 297.22 211.989 297.22C211.689 297.22 211.449 297.07 211.449 296.89C211.449 296.89 211.509 296.74 211.569 296.62C211.809 296.26 211.929 295.93 211.929 295.6C211.929 294.88 211.209 294.16 210.429 294.16C209.619 294.16 208.899 294.91 208.899 295.78C208.899 297.22 210.069 298.15 211.869 298.15C213.189 298.15 214.329 297.7 215.289 296.77C216.369 295.72 217.059 294.37 217.989 291.61C218.799 289.18 219.159 287.74 220.839 279.79H223.539L223.809 278.53H221.049L221.589 276.4C222.339 273.43 223.239 271.93 224.319 271.93C224.619 271.93 224.829 272.08 224.829 272.32C224.829 272.32 224.799 272.47 224.679 272.65C224.439 273.01 224.349 273.28 224.349 273.58C224.349 274.42 224.979 275.05 225.819 275.05C226.719 275.05 227.349 274.39 227.349 273.46ZM229.809 288.19L229.149 287.77C228.129 289.36 227.349 290.17 226.869 290.17C226.629 290.17 226.389 289.96 226.389 289.72C226.389 289.15 226.929 287.08 228.009 283.36L228.999 279.79H231.489V278.53H229.329L230.499 274.18H229.449C227.829 276.58 226.329 277.84 223.959 278.74V279.79H225.489L223.449 286.93C222.999 288.49 222.729 289.78 222.729 290.32C222.729 291.49 223.569 292.27 224.829 292.27C226.629 292.27 227.829 291.28 229.809 288.19Z" fill="#1C1B1B"/>
<path d="M62.5 50.72C61.9 50.72 61.39 50.51 60.97 50.09C60.55 49.67 60.34 49.16 60.34 48.56V22.82C60.34 22.22 60.55 21.71 60.97 21.29C61.39 20.87 61.9 20.66 62.5 20.66H71.5C72.1 20.66 72.61 20.87 73.03 21.29C73.45 21.71 73.66 22.22 73.66 22.82C73.66 23.42 73.45 23.93 73.03 24.35C72.61 24.77 72.1 24.98 71.5 24.98H64.66V33.08H70.6C71.2 33.08 71.71 33.29 72.13 33.71C72.55 34.13 72.76 34.64 72.76 35.24C72.76 35.84 72.55 36.35 72.13 36.77C71.71 37.19 71.2 37.4 70.6 37.4H64.66V48.56C64.66 49.16 64.45 49.67 64.03 50.09C63.61 50.51 63.1 50.72 62.5 50.72ZM78.7158 50.9C78.1158 50.9 77.6058 50.69 77.1858 50.27C76.7658 49.85 76.5558 49.34 76.5558 48.74V22.64C76.5558 22.04 76.7658 21.53 77.1858 21.11C77.6058 20.69 78.1158 20.48 78.7158 20.48C79.3158 20.48 79.8258 20.69 80.2458 21.11C80.6658 21.53 80.8758 22.04 80.8758 22.64V48.74C80.8758 49.34 80.6658 49.85 80.2458 50.27C79.8258 50.69 79.3158 50.9 78.7158 50.9ZM97.9846 33.98C98.5846 33.98 99.0946 34.19 99.5146 34.61C99.9346 35.03 100.145 35.54 100.145 36.14V43.34C100.145 44.39 99.9496 45.38 99.5596 46.31C99.1696 47.21 98.6296 48.005 97.9396 48.695C97.2496 49.385 96.4396 49.925 95.5096 50.315C94.6096 50.705 93.6346 50.9 92.5846 50.9C91.5346 50.9 90.5446 50.705 89.6146 50.315C88.7146 49.925 87.9196 49.385 87.2296 48.695C86.5696 48.005 86.0296 47.21 85.6096 46.31C85.2196 45.38 85.0246 44.39 85.0246 43.34V28.04C85.0246 27.2 85.1596 26.39 85.4296 25.61C85.6996 24.8 86.0746 24.08 86.5546 23.45C87.0646 22.79 87.6646 22.235 88.3546 21.785C89.0446 21.305 89.8096 20.96 90.6496 20.75C91.4596 20.54 92.2846 20.465 93.1246 20.525C93.9646 20.555 94.7596 20.735 95.5096 21.065C96.2596 21.365 96.9496 21.785 97.5796 22.325C98.2096 22.865 98.7346 23.51 99.1546 24.26C99.4546 24.77 99.5146 25.31 99.3346 25.88C99.1846 26.45 98.8546 26.9 98.3446 27.23C97.8346 27.53 97.2946 27.605 96.7246 27.455C96.1546 27.275 95.7196 26.93 95.4196 26.42C95.0296 25.79 94.4896 25.34 93.7996 25.07C93.1396 24.77 92.4646 24.725 91.7746 24.935C91.0546 25.115 90.4696 25.505 90.0196 26.105C89.5696 26.675 89.3446 27.32 89.3446 28.04V43.34C89.3446 44.24 89.6596 45.005 90.2896 45.635C90.9496 46.265 91.7146 46.58 92.5846 46.58C93.4846 46.58 94.2496 46.265 94.8796 45.635C95.5096 45.005 95.8246 44.24 95.8246 43.34V38.3H93.4846C92.8846 38.3 92.3746 38.09 91.9546 37.67C91.5346 37.25 91.3246 36.74 91.3246 36.14C91.3246 35.54 91.5346 35.03 91.9546 34.61C92.3746 34.19 92.8846 33.98 93.4846 33.98H97.9846ZM103.48 48.29C103.48 47.57 103.735 46.955 104.245 46.445C104.755 45.935 105.37 45.68 106.09 45.68C106.81 45.68 107.425 45.935 107.935 46.445C108.445 46.955 108.7 47.57 108.7 48.29C108.7 49.01 108.445 49.625 107.935 50.135C107.425 50.645 106.81 50.9 106.09 50.9C105.37 50.9 104.755 50.645 104.245 50.135C103.735 49.625 103.48 49.01 103.48 48.29ZM129.417 48.155C129.567 48.755 129.492 49.31 129.192 49.82C128.922 50.33 128.502 50.66 127.932 50.81C127.332 50.96 126.777 50.885 126.267 50.585C125.757 50.315 125.427 49.895 125.277 49.325C125.157 48.965 125.037 48.53 124.917 48.02C124.797 47.6 124.647 47.105 124.467 46.535C124.317 45.935 124.152 45.29 123.972 44.6H116.322C116.112 45.29 115.932 45.935 115.782 46.535C115.632 47.105 115.497 47.6 115.377 48.02C115.257 48.53 115.137 48.965 115.017 49.325C114.867 49.895 114.537 50.315 114.027 50.585C113.517 50.885 112.962 50.96 112.362 50.81C111.792 50.66 111.357 50.33 111.057 49.82C110.787 49.31 110.727 48.755 110.877 48.155L118.077 22.055C118.197 21.575 118.437 21.2 118.797 20.93C119.187 20.63 119.637 20.48 120.147 20.48C120.657 20.48 121.092 20.63 121.452 20.93C121.842 21.2 122.097 21.575 122.217 22.055L129.417 48.155ZM122.757 40.28C122.337 38.72 121.902 37.115 121.452 35.465C121.002 33.815 120.567 32.255 120.147 30.785C119.727 32.255 119.292 33.815 118.842 35.465C118.392 37.115 117.957 38.72 117.537 40.28H122.757Z" fill="#1C1B1B"/>
</svg>
