<svg width="840" height="752" viewBox="0 0 840 752" fill="none" xmlns="http://www.w3.org/2000/svg">
<g clip-path="url(#clip0)">
<path fill-rule="evenodd" clip-rule="evenodd" d="M540.803 90.0625C546.071 88.1964 549.554 85.2969 552.061 81.7714C554.886 77.7991 556.438 73.0622 557.977 68.3679C558.124 67.9193 558.271 67.4712 558.418 67.0241C560.132 61.8405 561.993 56.73 565.623 52.334C569.23 47.9662 574.647 44.2321 583.597 41.9671L583.106 40.0282C573.805 42.3821 567.996 46.3193 564.081 51.0606C560.19 55.7736 558.235 61.2099 556.519 66.3961C556.375 66.8331 556.232 67.2678 556.09 67.6999L556.09 67.7019C554.529 72.4557 553.07 76.9012 550.431 80.6124C548.189 83.7651 545.071 86.4112 540.22 88.1473L539.975 87.3439L536.081 89.3074C536.061 89.3116 536.041 89.3157 536.022 89.3199L536.025 89.3355L530.782 91.9785L536.435 91.2742L536.435 91.2767C536.445 91.2746 536.454 91.2726 536.464 91.2706L540.998 90.7056L540.803 90.0625Z" fill="#1C1B1B"/>
<path fill-rule="evenodd" clip-rule="evenodd" d="M403.058 54.9415C397.564 53.9291 393.668 51.6155 390.639 48.5303C387.225 45.0542 384.947 40.6231 382.69 36.232C382.474 35.8124 382.259 35.3931 382.042 34.9751C379.534 30.1288 376.893 25.3777 372.618 21.6102C368.371 17.867 362.436 15.0343 353.246 14.2078L353.425 12.2158C362.976 13.0748 369.33 16.0463 373.941 20.1098C378.524 24.149 381.309 29.207 383.819 34.0559C384.03 34.4651 384.24 34.8723 384.448 35.2771C386.737 39.7235 388.877 43.8815 392.066 47.1289C394.775 49.8879 398.269 52.0088 403.332 52.9585L403.446 52.1266L407.601 53.4517C407.62 53.4527 407.639 53.4537 407.659 53.4547L407.658 53.4701L413.25 55.2537L407.559 55.4485L407.559 55.4522C407.544 55.4515 407.53 55.4507 407.516 55.45L402.966 55.6057L403.058 54.9415Z" fill="#1C1B1B"/>
<path fill-rule="evenodd" clip-rule="evenodd" d="M486.933 230.418C474.441 232.878 464.974 233.696 456.38 231.627C447.846 229.573 440.297 224.705 431.538 216.074L430.887 216.586L426.286 208.066L433.485 214.542L433.122 214.827C441.663 223.208 448.858 227.759 456.848 229.683C465.004 231.646 474.115 230.904 486.546 228.455L486.933 230.418Z" fill="#1C1B1B"/>
<path d="M254.998 71L279.891 71L279.891 120.807" stroke="#1C1B1B" stroke-width="2"/>
<path d="M279.895 131L277.7 117.1L282.09 117.1L279.895 131Z" fill="#1C1B1B"/>
<line y1="-1" x2="62.3002" y2="-1" transform="matrix(0.787499 -0.616316 -0.616316 -0.787499 220.232 269.718)" stroke="#1C1B1B" stroke-width="2"/>
<path d="M275.973 227.362L266.103 231.788L269.306 235.88L275.973 227.362Z" fill="#1C1B1B"/>
<path d="M512.38 224.77C512.38 222.55 511.12 221.14 509.14 221.14C507.43 221.14 506.11 222.1 504.34 224.59L505.48 221.14L499.69 221.98V222.79C501.04 222.85 501.31 222.97 501.31 223.54C501.31 223.84 501.07 224.92 500.65 226.48L497.65 238.12C497.08 240.1 496.84 240.37 495.4 240.34V241.15H502.87V240.34C501.37 240.31 500.92 240.1 500.92 239.38C500.92 238.96 501.13 238.06 501.7 235.96C501.91 235.24 501.91 235.18 502.03 234.73C503.08 235.27 503.44 235.39 504.07 235.39C508.15 235.39 512.38 229.96 512.38 224.77ZM508.63 224.98C508.51 226.96 507.55 229.93 506.47 231.88C505.54 233.5 504.58 234.34 503.56 234.34C502.9 234.34 502.39 233.86 502.39 233.26C502.39 232.75 502.72 231.52 503.53 228.79C504.19 226.6 504.46 225.85 504.91 225.16C505.66 223.99 506.68 223.21 507.46 223.27C508.24 223.33 508.69 224.02 508.63 224.98ZM527.86 231.4L527.23 231.01C526.18 232.63 525.58 233.23 525.07 233.23C524.83 233.23 524.65 233.02 524.65 232.72C524.65 232.36 524.98 230.92 525.4 229.57L527.74 221.53H524.2C522.52 227.32 521.68 229.3 519.94 231.46C519.01 232.6 518.35 233.11 517.75 233.11C517.33 233.11 517.12 232.87 517.12 232.36C517.12 231.91 517.15 231.73 517.57 230.38L520.39 221.14C520.21 221.17 520 221.2 519.55 221.29C517.33 221.68 515.56 221.92 514.12 221.98V222.79C515.5 222.88 515.8 223.03 515.8 223.63C515.8 224.11 515.65 224.95 515.38 225.82L514.18 229.81C513.76 231.31 513.55 232.3 513.55 233.05C513.55 234.52 514.3 235.27 515.8 235.27C517.81 235.27 518.71 234.49 521.8 230.17C521.26 231.82 521.08 232.6 521.08 233.47C521.08 234.7 521.71 235.27 523.03 235.27C524.83 235.27 526.3 234.07 527.86 231.4Z" fill="#1C1B1B"/>
<path d="M211.37 279.43C211.37 278.08 210.62 276.61 208.94 274.66C207.77 273.31 207.26 272.41 207.26 271.72C207.26 270.76 207.89 270.13 208.85 270.13C210.23 270.13 211.01 271.21 211.49 273.7L212.3 273.76L212.99 269.17H212.12C211.79 269.74 211.7 269.8 211.25 269.8C210.95 269.8 210.71 269.74 210.17 269.53C209.42 269.23 209.03 269.14 208.43 269.14C206 269.14 204.41 270.61 204.41 272.92C204.41 274.54 204.83 275.38 206.81 277.75C207.95 279.1 208.49 280.12 208.49 280.87C208.49 281.77 207.74 282.49 206.78 282.49C205.25 282.49 204.29 281.17 203.9 278.5L203.09 278.41L202.43 283.39H203.24C203.36 283.03 203.72 282.79 204.11 282.79C204.32 282.79 204.65 282.88 205.04 283.03C205.76 283.27 206.3 283.39 206.93 283.39C209.48 283.39 211.37 281.68 211.37 279.43Z" fill="#1C1B1B"/>
<path d="M243.47 73.55L242.81 73.07C241.97 74.42 241.25 75.23 240.8 75.23C240.62 75.23 240.47 75.05 240.47 74.87C240.47 74.6 241.16 71.9 242.18 68.18L245.51 56.03C243.71 56.45 242.24 56.66 239.24 56.9V57.71H239.87C240.65 57.71 241.1 58.01 241.1 58.55C241.1 58.82 240.95 59.45 240.23 62.09L239.69 64.13C238.97 63.41 238.4 63.14 237.53 63.14C233.87 63.14 229.37 68.93 229.37 73.64C229.37 75.83 230.72 77.39 232.55 77.39C234.47 77.39 235.82 76.31 237.53 73.46C237.26 74.63 237.2 75.02 237.2 75.5C237.2 76.64 237.86 77.33 239 77.33C240.47 77.33 241.82 76.19 243.47 73.55ZM239.24 65.87C239.24 67.19 237.95 71.09 236.9 73.01C236.06 74.48 235.19 75.23 234.32 75.23C233.57 75.23 233.03 74.39 233.09 73.34C233.18 71.72 234.11 68.96 235.19 67.01C236.15 65.3 237.23 64.34 238.13 64.4C238.79 64.43 239.24 65.03 239.24 65.87Z" fill="#1C1B1B"/>
<path d="M329.38 11.25L328.51 10.74C327.13 12.81 326.26 13.47 324.97 13.47C323.71 13.47 323.05 12.63 323.05 11.01C323.05 10.53 323.11 10.14 323.23 9.54C326.35 8.94 327.82 8.28 329.32 6.9C330.37 5.94 330.94 4.83 330.94 3.75C330.94 2.22 329.62 1.14 327.79 1.14C323.44 1.14 319.15 6.03 319.15 10.98C319.15 13.53 321.07 15.39 323.68 15.39C325.99 15.39 327.58 14.22 329.38 11.25ZM328.18 3.15C328.18 4.47 327.67 5.76 326.71 6.75C325.9 7.62 325.15 8.04 323.44 8.58C324.52 4.41 325.9 2.13 327.34 2.13C327.91 2.13 328.18 2.46 328.18 3.15ZM344.81 4.77C344.81 2.55 343.55 1.14 341.57 1.14C339.86 1.14 338.54 2.1 336.77 4.59L337.91 1.14L332.12 1.98V2.79C333.47 2.85 333.74 2.97 333.74 3.54C333.74 3.84 333.5 4.92 333.08 6.48L330.08 18.12C329.51 20.1 329.27 20.37 327.83 20.34V21.15H335.3V20.34C333.8 20.31 333.35 20.1 333.35 19.38C333.35 18.96 333.56 18.06 334.13 15.96C334.34 15.24 334.34 15.18 334.46 14.73C335.51 15.27 335.87 15.39 336.5 15.39C340.58 15.39 344.81 9.96 344.81 4.77ZM341.06 4.98C340.94 6.96 339.98 9.93 338.9 11.88C337.97 13.5 337.01 14.34 335.99 14.34C335.33 14.34 334.82 13.86 334.82 13.26C334.82 12.75 335.15 11.52 335.96 8.79C336.62 6.6 336.89 5.85 337.34 5.16C338.09 3.99 339.11 3.21 339.89 3.27C340.67 3.33 341.12 4.02 341.06 4.98Z" fill="#1C1B1B"/>
<path d="M604.38 38.31L603.54 37.77C602.1 39.78 601.17 40.47 599.88 40.47C598.56 40.47 597.69 39.39 597.69 37.8C597.69 35.91 598.47 33.21 599.55 31.26C600.36 29.85 601.2 29.13 602.13 29.13C602.49 29.13 602.79 29.34 602.79 29.64C602.79 29.76 602.73 29.94 602.55 30.21C602.28 30.69 602.16 31.02 602.16 31.38C602.16 32.28 602.88 32.94 603.9 32.94C605.01 32.94 605.76 32.1 605.76 30.84C605.76 29.25 604.41 28.14 602.4 28.14C598.17 28.14 593.85 33.06 593.85 37.86C593.85 40.53 595.71 42.39 598.44 42.39C599.76 42.39 601.05 41.91 602.07 41.04C602.85 40.38 603.33 39.81 604.38 38.31Z" fill="#1C1B1B"/>
<path d="M310.5 355.72C309.9 355.72 309.39 355.51 308.97 355.09C308.55 354.67 308.34 354.16 308.34 353.56V327.82C308.34 327.22 308.55 326.71 308.97 326.29C309.39 325.87 309.9 325.66 310.5 325.66H319.5C320.1 325.66 320.61 325.87 321.03 326.29C321.45 326.71 321.66 327.22 321.66 327.82C321.66 328.42 321.45 328.93 321.03 329.35C320.61 329.77 320.1 329.98 319.5 329.98H312.66V338.08H318.6C319.2 338.08 319.71 338.29 320.13 338.71C320.55 339.13 320.76 339.64 320.76 340.24C320.76 340.84 320.55 341.35 320.13 341.77C319.71 342.19 319.2 342.4 318.6 342.4H312.66V353.56C312.66 354.16 312.45 354.67 312.03 355.09C311.61 355.51 311.1 355.72 310.5 355.72ZM326.716 355.9C326.116 355.9 325.606 355.69 325.186 355.27C324.766 354.85 324.556 354.34 324.556 353.74V327.64C324.556 327.04 324.766 326.53 325.186 326.11C325.606 325.69 326.116 325.48 326.716 325.48C327.316 325.48 327.826 325.69 328.246 326.11C328.666 326.53 328.876 327.04 328.876 327.64V353.74C328.876 354.34 328.666 354.85 328.246 355.27C327.826 355.69 327.316 355.9 326.716 355.9ZM345.985 338.98C346.585 338.98 347.095 339.19 347.515 339.61C347.935 340.03 348.145 340.54 348.145 341.14V348.34C348.145 349.39 347.95 350.38 347.56 351.31C347.17 352.21 346.63 353.005 345.94 353.695C345.25 354.385 344.44 354.925 343.51 355.315C342.61 355.705 341.635 355.9 340.585 355.9C339.535 355.9 338.545 355.705 337.615 355.315C336.715 354.925 335.92 354.385 335.23 353.695C334.57 353.005 334.03 352.21 333.61 351.31C333.22 350.38 333.025 349.39 333.025 348.34V333.04C333.025 332.2 333.16 331.39 333.43 330.61C333.7 329.8 334.075 329.08 334.555 328.45C335.065 327.79 335.665 327.235 336.355 326.785C337.045 326.305 337.81 325.96 338.65 325.75C339.46 325.54 340.285 325.465 341.125 325.525C341.965 325.555 342.76 325.735 343.51 326.065C344.26 326.365 344.95 326.785 345.58 327.325C346.21 327.865 346.735 328.51 347.155 329.26C347.455 329.77 347.515 330.31 347.335 330.88C347.185 331.45 346.855 331.9 346.345 332.23C345.835 332.53 345.295 332.605 344.725 332.455C344.155 332.275 343.72 331.93 343.42 331.42C343.03 330.79 342.49 330.34 341.8 330.07C341.14 329.77 340.465 329.725 339.775 329.935C339.055 330.115 338.47 330.505 338.02 331.105C337.57 331.675 337.345 332.32 337.345 333.04V348.34C337.345 349.24 337.66 350.005 338.29 350.635C338.95 351.265 339.715 351.58 340.585 351.58C341.485 351.58 342.25 351.265 342.88 350.635C343.51 350.005 343.825 349.24 343.825 348.34V343.3H341.485C340.885 343.3 340.375 343.09 339.955 342.67C339.535 342.25 339.325 341.74 339.325 341.14C339.325 340.54 339.535 340.03 339.955 339.61C340.375 339.19 340.885 338.98 341.485 338.98H345.985ZM351.48 353.29C351.48 352.57 351.735 351.955 352.245 351.445C352.755 350.935 353.37 350.68 354.09 350.68C354.81 350.68 355.425 350.935 355.935 351.445C356.445 351.955 356.7 352.57 356.7 353.29C356.7 354.01 356.445 354.625 355.935 355.135C355.425 355.645 354.81 355.9 354.09 355.9C353.37 355.9 352.755 355.645 352.245 355.135C351.735 354.625 351.48 354.01 351.48 353.29ZM362.927 355.9C362.327 355.9 361.817 355.69 361.397 355.27C360.977 354.85 360.767 354.34 360.767 353.74V327.64C360.767 327.13 360.917 326.68 361.217 326.29C361.517 325.9 361.922 325.645 362.432 325.525C362.942 325.405 363.422 325.465 363.872 325.705C364.322 325.915 364.652 326.26 364.862 326.74C365.462 328.06 366.077 329.365 366.707 330.655C367.217 331.795 367.787 333.01 368.417 334.3C369.047 335.56 369.617 336.745 370.127 337.855C370.637 336.745 371.192 335.56 371.792 334.3C372.422 333.01 372.992 331.795 373.502 330.655C374.102 329.365 374.717 328.06 375.347 326.74C375.587 326.26 375.917 325.915 376.337 325.705C376.787 325.465 377.267 325.405 377.777 325.525C378.287 325.645 378.692 325.9 378.992 326.29C379.322 326.68 379.487 327.13 379.487 327.64V353.74C379.487 354.34 379.277 354.85 378.857 355.27C378.437 355.69 377.927 355.9 377.327 355.9C376.727 355.9 376.217 355.69 375.797 355.27C375.377 354.85 375.167 354.34 375.167 353.74V337.315C374.777 338.125 374.402 338.92 374.042 339.7C373.682 340.48 373.352 341.17 373.052 341.77C372.722 342.49 372.392 343.18 372.062 343.84C371.882 344.23 371.612 344.545 371.252 344.785C370.922 344.995 370.547 345.1 370.127 345.1C369.197 345.1 368.537 344.68 368.147 343.84C367.817 343.18 367.487 342.49 367.157 341.77C366.857 341.17 366.527 340.48 366.167 339.7C365.807 338.92 365.447 338.125 365.087 337.315V353.74C365.087 354.34 364.877 354.85 364.457 355.27C364.037 355.69 363.527 355.9 362.927 355.9ZM384.146 327.82C384.146 327.22 384.356 326.71 384.776 326.29C385.196 325.87 385.706 325.66 386.306 325.66H391.706C392.756 325.66 393.731 325.855 394.631 326.245C395.561 326.635 396.371 327.175 397.061 327.865C397.751 328.555 398.291 329.365 398.681 330.295C399.071 331.195 399.266 332.17 399.266 333.22V335.74C399.266 336.79 399.071 337.78 398.681 338.71C398.291 339.61 397.751 340.405 397.061 341.095C396.371 341.785 395.561 342.325 394.631 342.715C393.731 343.105 392.756 343.3 391.706 343.3H388.466V353.74C388.466 354.34 388.256 354.85 387.836 355.27C387.416 355.69 386.906 355.9 386.306 355.9C385.706 355.9 385.196 355.69 384.776 355.27C384.356 354.85 384.146 354.34 384.146 353.74V327.82ZM394.946 333.22C394.946 332.32 394.631 331.555 394.001 330.925C393.371 330.295 392.606 329.98 391.706 329.98H388.466V338.98H391.706C392.606 338.98 393.371 338.665 394.001 338.035C394.631 337.405 394.946 336.64 394.946 335.74V333.22Z" fill="#1C1B1B"/>
<path fill-rule="evenodd" clip-rule="evenodd" d="M112.087 252.158C117.058 249.604 120.123 246.264 122.135 242.434C124.403 238.12 125.307 233.218 126.203 228.36C126.289 227.896 126.374 227.432 126.461 226.969C127.466 221.603 128.626 216.289 131.635 211.447C134.624 206.636 139.493 202.21 148.059 198.767L147.313 196.912C138.411 200.489 133.181 205.169 129.936 210.391C126.71 215.583 125.501 221.232 124.495 226.601C124.411 227.053 124.327 227.503 124.245 227.95L124.244 227.952C123.334 232.872 122.483 237.473 120.365 241.504C118.565 244.929 115.829 247.968 111.253 250.338L110.902 249.574L107.303 252.043C107.285 252.049 107.268 252.056 107.251 252.062L107.256 252.075L102.413 255.397L107.921 253.942L107.922 253.946C107.935 253.941 107.947 253.937 107.96 253.932L112.366 252.768L112.087 252.158Z" fill="#1C1B1B"/>
<line x1="150.086" y1="381.085" x2="109.108" y2="388.078" stroke="#1C1B1B" stroke-width="2"/>
<path d="M101.505 389.474L110.903 385.235L111.777 390.357L101.505 389.474Z" fill="#1C1B1B"/>
<line x1="184.377" y1="393.984" x2="210.905" y2="425.955" stroke="#1C1B1B" stroke-width="2"/>
<path d="M215.851 431.722L207.485 425.708L211.484 422.39L215.851 431.722Z" fill="#1C1B1B"/>
<path d="M176.845 177.46C176.845 175.99 175.705 175.06 173.875 175.06C172.315 175.06 170.875 175.69 169.795 176.89C168.535 178.27 167.965 179.5 167.095 182.53H164.905L164.635 183.79H166.825L164.185 195.55C163.255 199.99 162.685 201.22 161.485 201.22C161.185 201.22 160.945 201.07 160.945 200.89C160.945 200.89 161.005 200.74 161.065 200.62C161.305 200.26 161.425 199.93 161.425 199.6C161.425 198.88 160.705 198.16 159.925 198.16C159.115 198.16 158.395 198.91 158.395 199.78C158.395 201.22 159.565 202.15 161.365 202.15C162.685 202.15 163.825 201.7 164.785 200.77C165.865 199.72 166.555 198.37 167.485 195.61C168.295 193.18 168.655 191.74 170.335 183.79H173.035L173.305 182.53H170.545L171.085 180.4C171.835 177.43 172.735 175.93 173.815 175.93C174.115 175.93 174.325 176.08 174.325 176.32C174.325 176.32 174.295 176.47 174.175 176.65C173.935 177.01 173.845 177.28 173.845 177.58C173.845 178.42 174.475 179.05 175.315 179.05C176.215 179.05 176.845 178.39 176.845 177.46Z" fill="#1C1B1B"/>
<path d="M174.349 368.46C174.349 366.99 173.209 366.06 171.379 366.06C169.819 366.06 168.379 366.69 167.299 367.89C166.039 369.27 165.469 370.5 164.599 373.53H162.409L162.139 374.79H164.329L161.689 386.55C160.759 390.99 160.189 392.22 158.989 392.22C158.689 392.22 158.449 392.07 158.449 391.89C158.449 391.89 158.509 391.74 158.569 391.62C158.809 391.26 158.929 390.93 158.929 390.6C158.929 389.88 158.209 389.16 157.429 389.16C156.619 389.16 155.899 389.91 155.899 390.78C155.899 392.22 157.069 393.15 158.869 393.15C160.189 393.15 161.329 392.7 162.289 391.77C163.369 390.72 164.059 389.37 164.989 386.61C165.799 384.18 166.159 382.74 167.839 374.79H170.539L170.809 373.53H168.049L168.589 371.4C169.339 368.43 170.239 366.93 171.319 366.93C171.619 366.93 171.829 367.08 171.829 367.32C171.829 367.32 171.799 367.47 171.679 367.65C171.439 368.01 171.349 368.28 171.349 368.58C171.349 369.42 171.979 370.05 172.819 370.05C173.719 370.05 174.349 369.39 174.349 368.46ZM176.809 383.19L176.149 382.77C175.129 384.36 174.349 385.17 173.869 385.17C173.629 385.17 173.389 384.96 173.389 384.72C173.389 384.15 173.929 382.08 175.009 378.36L175.999 374.79H178.489V373.53H176.329L177.499 369.18H176.449C174.829 371.58 173.329 372.84 170.959 373.74V374.79H172.489L170.449 381.93C169.999 383.49 169.729 384.78 169.729 385.32C169.729 386.49 170.569 387.27 171.829 387.27C173.629 387.27 174.829 386.28 176.809 383.19Z" fill="#1C1B1B"/>
<path d="M42.5 140.72C41.9 140.72 41.39 140.51 40.97 140.09C40.55 139.67 40.34 139.16 40.34 138.56V112.82C40.34 112.22 40.55 111.71 40.97 111.29C41.39 110.87 41.9 110.66 42.5 110.66H51.5C52.1 110.66 52.61 110.87 53.03 111.29C53.45 111.71 53.66 112.22 53.66 112.82C53.66 113.42 53.45 113.93 53.03 114.35C52.61 114.77 52.1 114.98 51.5 114.98H44.66V123.08H50.6C51.2 123.08 51.71 123.29 52.13 123.71C52.55 124.13 52.76 124.64 52.76 125.24C52.76 125.84 52.55 126.35 52.13 126.77C51.71 127.19 51.2 127.4 50.6 127.4H44.66V138.56C44.66 139.16 44.45 139.67 44.03 140.09C43.61 140.51 43.1 140.72 42.5 140.72ZM58.7158 140.9C58.1158 140.9 57.6058 140.69 57.1858 140.27C56.7658 139.85 56.5558 139.34 56.5558 138.74V112.64C56.5558 112.04 56.7658 111.53 57.1858 111.11C57.6058 110.69 58.1158 110.48 58.7158 110.48C59.3158 110.48 59.8258 110.69 60.2458 111.11C60.6658 111.53 60.8758 112.04 60.8758 112.64V138.74C60.8758 139.34 60.6658 139.85 60.2458 140.27C59.8258 140.69 59.3158 140.9 58.7158 140.9ZM77.9846 123.98C78.5846 123.98 79.0946 124.19 79.5146 124.61C79.9346 125.03 80.1446 125.54 80.1446 126.14V133.34C80.1446 134.39 79.9496 135.38 79.5596 136.31C79.1696 137.21 78.6296 138.005 77.9396 138.695C77.2496 139.385 76.4396 139.925 75.5096 140.315C74.6096 140.705 73.6346 140.9 72.5846 140.9C71.5346 140.9 70.5446 140.705 69.6146 140.315C68.7146 139.925 67.9196 139.385 67.2296 138.695C66.5696 138.005 66.0296 137.21 65.6096 136.31C65.2196 135.38 65.0246 134.39 65.0246 133.34V118.04C65.0246 117.2 65.1596 116.39 65.4296 115.61C65.6996 114.8 66.0746 114.08 66.5546 113.45C67.0646 112.79 67.6646 112.235 68.3546 111.785C69.0446 111.305 69.8096 110.96 70.6496 110.75C71.4596 110.54 72.2846 110.465 73.1246 110.525C73.9646 110.555 74.7596 110.735 75.5096 111.065C76.2596 111.365 76.9496 111.785 77.5796 112.325C78.2096 112.865 78.7346 113.51 79.1546 114.26C79.4546 114.77 79.5146 115.31 79.3346 115.88C79.1846 116.45 78.8546 116.9 78.3446 117.23C77.8346 117.53 77.2946 117.605 76.7246 117.455C76.1546 117.275 75.7196 116.93 75.4196 116.42C75.0296 115.79 74.4896 115.34 73.7996 115.07C73.1396 114.77 72.4646 114.725 71.7746 114.935C71.0546 115.115 70.4696 115.505 70.0196 116.105C69.5696 116.675 69.3446 117.32 69.3446 118.04V133.34C69.3446 134.24 69.6596 135.005 70.2896 135.635C70.9496 136.265 71.7146 136.58 72.5846 136.58C73.4846 136.58 74.2496 136.265 74.8796 135.635C75.5096 135.005 75.8246 134.24 75.8246 133.34V128.3H73.4846C72.8846 128.3 72.3746 128.09 71.9546 127.67C71.5346 127.25 71.3246 126.74 71.3246 126.14C71.3246 125.54 71.5346 125.03 71.9546 124.61C72.3746 124.19 72.8846 123.98 73.4846 123.98H77.9846ZM83.4795 138.29C83.4795 137.57 83.7345 136.955 84.2445 136.445C84.7545 135.935 85.3695 135.68 86.0895 135.68C86.8095 135.68 87.4245 135.935 87.9345 136.445C88.4445 136.955 88.6995 137.57 88.6995 138.29C88.6995 139.01 88.4445 139.625 87.9345 140.135C87.4245 140.645 86.8095 140.9 86.0895 140.9C85.3695 140.9 84.7545 140.645 84.2445 140.135C83.7345 139.625 83.4795 139.01 83.4795 138.29ZM109.417 138.155C109.567 138.755 109.492 139.31 109.192 139.82C108.922 140.33 108.502 140.66 107.932 140.81C107.332 140.96 106.777 140.885 106.267 140.585C105.757 140.315 105.427 139.895 105.277 139.325C105.157 138.965 105.037 138.53 104.917 138.02C104.797 137.6 104.647 137.105 104.467 136.535C104.317 135.935 104.152 135.29 103.972 134.6H96.3218C96.1118 135.29 95.9318 135.935 95.7818 136.535C95.6318 137.105 95.4968 137.6 95.3768 138.02C95.2568 138.53 95.1368 138.965 95.0168 139.325C94.8668 139.895 94.5368 140.315 94.0268 140.585C93.5168 140.885 92.9618 140.96 92.3618 140.81C91.7918 140.66 91.3568 140.33 91.0568 139.82C90.7868 139.31 90.7268 138.755 90.8768 138.155L98.0768 112.055C98.1968 111.575 98.4368 111.2 98.7968 110.93C99.1868 110.63 99.6368 110.48 100.147 110.48C100.657 110.48 101.092 110.63 101.452 110.93C101.842 111.2 102.097 111.575 102.217 112.055L109.417 138.155ZM102.757 130.28C102.337 128.72 101.902 127.115 101.452 125.465C101.002 123.815 100.567 122.255 100.147 120.785C99.7268 122.255 99.2918 123.815 98.8418 125.465C98.3918 127.115 97.9568 128.72 97.5368 130.28H102.757Z" fill="#1C1B1B"/>
<path fill-rule="evenodd" clip-rule="evenodd" d="M409.389 515.584C404.334 513.203 399.82 512.812 395.559 513.552C390.758 514.387 386.324 516.659 381.929 518.911C381.509 519.126 381.089 519.341 380.67 519.555C375.806 522.031 370.89 524.351 365.219 524.92C359.585 525.485 353.111 524.327 345.161 519.64L344.146 521.363C352.407 526.234 359.303 527.524 365.419 526.91C371.498 526.3 376.711 523.814 381.577 521.337C381.988 521.128 382.395 520.919 382.801 520.712C387.253 518.433 391.416 516.302 395.901 515.523C399.712 514.86 403.788 515.175 408.456 517.355L408.064 518.098L412.212 519.443C412.228 519.454 412.244 519.464 412.261 519.474L412.269 519.462L417.853 521.273L413.342 517.796L413.344 517.793C413.333 517.786 413.322 517.779 413.311 517.772L409.702 514.991L409.389 515.584Z" fill="#1C1B1B"/>
<line x1="534" y1="608" x2="471.7" y2="608" stroke="#1C1B1B" stroke-width="2"/>
<path d="M464 608L474.5 605.402L474.5 610.598L464 608Z" fill="#1C1B1B"/>
<path d="M552.38 608.25L551.51 607.74C550.13 609.81 549.26 610.47 547.97 610.47C546.71 610.47 546.05 609.63 546.05 608.01C546.05 607.53 546.11 607.14 546.23 606.54C549.35 605.94 550.82 605.28 552.32 603.9C553.37 602.94 553.94 601.83 553.94 600.75C553.94 599.22 552.62 598.14 550.79 598.14C546.44 598.14 542.15 603.03 542.15 607.98C542.15 610.53 544.07 612.39 546.68 612.39C548.99 612.39 550.58 611.22 552.38 608.25ZM551.18 600.15C551.18 601.47 550.67 602.76 549.71 603.75C548.9 604.62 548.15 605.04 546.44 605.58C547.52 601.41 548.9 599.13 550.34 599.13C550.91 599.13 551.18 599.46 551.18 600.15ZM561.57 608.19L560.91 607.77L560.49 608.37C559.71 609.54 559.02 610.17 558.57 610.17C558.33 610.17 558.12 609.96 558.12 609.72C558.12 609.45 558.27 608.67 558.39 608.16L561.12 598.14C559.5 598.5 557.4 598.8 555.06 598.98V599.79H555.45C556.35 599.79 556.83 600.09 556.83 600.66C556.83 600.9 556.74 601.35 556.62 601.86L554.88 608.31C554.64 609.18 554.49 609.96 554.49 610.38C554.49 611.52 555.33 612.27 556.56 612.27C558.36 612.27 559.47 611.37 561.57 608.19ZM562.41 594.3C562.41 593.19 561.48 592.26 560.34 592.26C559.29 592.26 558.36 593.19 558.36 594.24C558.36 595.41 559.23 596.31 560.34 596.31C561.48 596.31 562.41 595.41 562.41 594.3Z" fill="#1C1B1B"/>
<path d="M321.65 523.64L321.02 523.19C319.79 524.84 319.34 525.29 318.86 525.29C318.62 525.29 318.5 525.11 318.5 524.84C318.5 524.09 318.77 522.86 319.52 520.4L321.65 513.32L318.32 513.53L317.78 515.3C317.51 513.77 316.85 513.14 315.56 513.14C311.87 513.14 307.37 518.9 307.37 523.58C307.37 525.86 308.66 527.39 310.61 527.39C312.44 527.39 313.82 526.31 315.53 523.43C315.17 524.66 315.11 525.02 315.11 525.44C315.11 526.55 316.01 527.42 317.12 527.42C318.53 527.42 319.91 526.25 321.65 523.64ZM317.09 515.81C317.09 517.61 316.1 520.94 314.93 523.01C314.12 524.48 313.22 525.26 312.41 525.26C311.63 525.26 311.06 524.57 311.06 523.64C311.06 522.08 312.05 519.08 313.28 516.86C314.18 515.27 315.17 514.34 315.98 514.4C316.64 514.46 317.09 515 317.09 515.81ZM328.85 523.19L328.19 522.77C327.17 524.36 326.39 525.17 325.91 525.17C325.67 525.17 325.43 524.96 325.43 524.72C325.43 524.15 325.97 522.08 327.05 518.36L328.04 514.79H330.53V513.53H328.37L329.54 509.18H328.49C326.87 511.58 325.37 512.84 323 513.74V514.79H324.53L322.49 521.93C322.04 523.49 321.77 524.78 321.77 525.32C321.77 526.49 322.61 527.27 323.87 527.27C325.67 527.27 326.87 526.28 328.85 523.19Z" fill="#1C1B1B"/>
<path d="M421.5 441.72C420.9 441.72 420.39 441.51 419.97 441.09C419.55 440.67 419.34 440.16 419.34 439.56V413.82C419.34 413.22 419.55 412.71 419.97 412.29C420.39 411.87 420.9 411.66 421.5 411.66H430.5C431.1 411.66 431.61 411.87 432.03 412.29C432.45 412.71 432.66 413.22 432.66 413.82C432.66 414.42 432.45 414.93 432.03 415.35C431.61 415.77 431.1 415.98 430.5 415.98H423.66V424.08H429.6C430.2 424.08 430.71 424.29 431.13 424.71C431.55 425.13 431.76 425.64 431.76 426.24C431.76 426.84 431.55 427.35 431.13 427.77C430.71 428.19 430.2 428.4 429.6 428.4H423.66V439.56C423.66 440.16 423.45 440.67 423.03 441.09C422.61 441.51 422.1 441.72 421.5 441.72ZM437.716 441.9C437.116 441.9 436.606 441.69 436.186 441.27C435.766 440.85 435.556 440.34 435.556 439.74V413.64C435.556 413.04 435.766 412.53 436.186 412.11C436.606 411.69 437.116 411.48 437.716 411.48C438.316 411.48 438.826 411.69 439.246 412.11C439.666 412.53 439.876 413.04 439.876 413.64V439.74C439.876 440.34 439.666 440.85 439.246 441.27C438.826 441.69 438.316 441.9 437.716 441.9ZM456.985 424.98C457.585 424.98 458.095 425.19 458.515 425.61C458.935 426.03 459.145 426.54 459.145 427.14V434.34C459.145 435.39 458.95 436.38 458.56 437.31C458.17 438.21 457.63 439.005 456.94 439.695C456.25 440.385 455.44 440.925 454.51 441.315C453.61 441.705 452.635 441.9 451.585 441.9C450.535 441.9 449.545 441.705 448.615 441.315C447.715 440.925 446.92 440.385 446.23 439.695C445.57 439.005 445.03 438.21 444.61 437.31C444.22 436.38 444.025 435.39 444.025 434.34V419.04C444.025 418.2 444.16 417.39 444.43 416.61C444.7 415.8 445.075 415.08 445.555 414.45C446.065 413.79 446.665 413.235 447.355 412.785C448.045 412.305 448.81 411.96 449.65 411.75C450.46 411.54 451.285 411.465 452.125 411.525C452.965 411.555 453.76 411.735 454.51 412.065C455.26 412.365 455.95 412.785 456.58 413.325C457.21 413.865 457.735 414.51 458.155 415.26C458.455 415.77 458.515 416.31 458.335 416.88C458.185 417.45 457.855 417.9 457.345 418.23C456.835 418.53 456.295 418.605 455.725 418.455C455.155 418.275 454.72 417.93 454.42 417.42C454.03 416.79 453.49 416.34 452.8 416.07C452.14 415.77 451.465 415.725 450.775 415.935C450.055 416.115 449.47 416.505 449.02 417.105C448.57 417.675 448.345 418.32 448.345 419.04V434.34C448.345 435.24 448.66 436.005 449.29 436.635C449.95 437.265 450.715 437.58 451.585 437.58C452.485 437.58 453.25 437.265 453.88 436.635C454.51 436.005 454.825 435.24 454.825 434.34V429.3H452.485C451.885 429.3 451.375 429.09 450.955 428.67C450.535 428.25 450.325 427.74 450.325 427.14C450.325 426.54 450.535 426.03 450.955 425.61C451.375 425.19 451.885 424.98 452.485 424.98H456.985ZM462.48 439.29C462.48 438.57 462.735 437.955 463.245 437.445C463.755 436.935 464.37 436.68 465.09 436.68C465.81 436.68 466.425 436.935 466.935 437.445C467.445 437.955 467.7 438.57 467.7 439.29C467.7 440.01 467.445 440.625 466.935 441.135C466.425 441.645 465.81 441.9 465.09 441.9C464.37 441.9 463.755 441.645 463.245 441.135C462.735 440.625 462.48 440.01 462.48 439.29ZM471.767 413.82C471.767 413.22 471.977 412.71 472.397 412.29C472.817 411.87 473.327 411.66 473.927 411.66H482.927C483.527 411.66 484.037 411.87 484.457 412.29C484.877 412.71 485.087 413.22 485.087 413.82C485.087 414.42 484.877 414.93 484.457 415.35C484.037 415.77 483.527 415.98 482.927 415.98H476.087V424.08H482.027C482.627 424.08 483.137 424.29 483.557 424.71C483.977 425.13 484.187 425.64 484.187 426.24C484.187 426.84 483.977 427.35 483.557 427.77C483.137 428.19 482.627 428.4 482.027 428.4H476.087V437.4H482.927C483.527 437.4 484.037 437.61 484.457 438.03C484.877 438.45 485.087 438.96 485.087 439.56C485.087 440.16 484.877 440.67 484.457 441.09C484.037 441.51 483.527 441.72 482.927 441.72H473.927C473.327 441.72 472.817 441.51 472.397 441.09C471.977 440.67 471.767 440.16 471.767 439.56V413.82Z" fill="#1C1B1B"/>
</g>
<defs>
<clipPath id="clip0">
<rect width="840" height="752" fill="white"/>
</clipPath>
</defs>
</svg>
