<svg width="840" height="1125" viewBox="0 0 840 1125" fill="none" xmlns="http://www.w3.org/2000/svg">
<path fill-rule="evenodd" clip-rule="evenodd" d="M131.812 611.479C126.316 610.466 122.419 608.152 119.388 605.065C115.973 601.587 113.694 597.154 111.435 592.761C111.219 592.341 111.004 591.922 110.787 591.503C108.278 586.655 105.636 581.901 101.359 578.132C97.1092 574.386 91.1713 571.552 81.9766 570.725L82.1557 568.733C91.7113 569.593 98.0682 572.566 102.681 576.631C107.266 580.672 110.053 585.733 112.564 590.584C112.776 590.993 112.985 591.401 113.194 591.806C115.483 596.254 117.624 600.415 120.815 603.664C123.526 606.424 127.022 608.546 132.086 609.496L132.201 608.664L136.357 609.99C136.376 609.991 136.396 609.992 136.416 609.993L136.415 610.009L142.009 611.793L136.316 611.988L136.316 611.99C136.306 611.99 136.296 611.989 136.285 611.989L131.72 612.145L131.812 611.479Z" fill="#1C1B1B"/>
<path d="M300.998 501L325.891 501L325.891 550.807" stroke="#1C1B1B" stroke-width="2"/>
<path d="M325.893 561L323.698 547.1L328.088 547.1L325.893 561Z" fill="#1C1B1B"/>
<line x1="579.121" y1="625.598" x2="525.167" y2="656.748" stroke="#1C1B1B" stroke-width="2"/>
<path d="M518.5 660.598L526.294 653.098L528.892 657.598L518.5 660.598Z" fill="#1C1B1B"/>
<path d="M604.65 623.64L604.02 623.19C602.79 624.84 602.34 625.29 601.86 625.29C601.62 625.29 601.5 625.11 601.5 624.84C601.5 624.09 601.77 622.86 602.52 620.4L604.65 613.32L601.32 613.53L600.78 615.3C600.51 613.77 599.85 613.14 598.56 613.14C594.87 613.14 590.37 618.9 590.37 623.58C590.37 625.86 591.66 627.39 593.61 627.39C595.44 627.39 596.82 626.31 598.53 623.43C598.17 624.66 598.11 625.02 598.11 625.44C598.11 626.55 599.01 627.42 600.12 627.42C601.53 627.42 602.91 626.25 604.65 623.64ZM600.09 615.81C600.09 617.61 599.1 620.94 597.93 623.01C597.12 624.48 596.22 625.26 595.41 625.26C594.63 625.26 594.06 624.57 594.06 623.64C594.06 622.08 595.05 619.08 596.28 616.86C597.18 615.27 598.17 614.34 598.98 614.4C599.64 614.46 600.09 615 600.09 615.81Z" fill="#1C1B1B"/>
<path d="M276.38 499.31L275.54 498.77C274.1 500.78 273.17 501.47 271.88 501.47C270.56 501.47 269.69 500.39 269.69 498.8C269.69 496.91 270.47 494.21 271.55 492.26C272.36 490.85 273.2 490.13 274.13 490.13C274.49 490.13 274.79 490.34 274.79 490.64C274.79 490.76 274.73 490.94 274.55 491.21C274.28 491.69 274.16 492.02 274.16 492.38C274.16 493.28 274.88 493.94 275.9 493.94C277.01 493.94 277.76 493.1 277.76 491.84C277.76 490.25 276.41 489.14 274.4 489.14C270.17 489.14 265.85 494.06 265.85 498.86C265.85 501.53 267.71 503.39 270.44 503.39C271.76 503.39 273.05 502.91 274.07 502.04C274.85 501.38 275.33 500.81 276.38 499.31ZM290.1 491.12C290.1 489.92 289.41 489.14 288.39 489.14C286.86 489.14 285.63 490.64 283.26 495.41L285.24 489.14C283.44 489.59 282.87 489.68 279.24 489.98V490.79C280.59 490.85 280.86 490.97 280.86 491.54C280.86 492.29 279.93 495.8 277.8 503H281.43L282.42 499.88C283.32 496.97 283.77 495.83 284.58 494.45C285.39 493.01 286.11 492.17 286.53 492.17C286.65 492.17 286.83 492.29 287.01 492.56C287.46 493.07 287.85 493.31 288.36 493.31C289.35 493.31 290.1 492.38 290.1 491.12Z" fill="#1C1B1B"/>
<path d="M52.37 571.43C52.37 570.08 51.62 568.61 49.94 566.66C48.77 565.31 48.26 564.41 48.26 563.72C48.26 562.76 48.89 562.13 49.85 562.13C51.23 562.13 52.01 563.21 52.49 565.7L53.3 565.76L53.99 561.17H53.12C52.79 561.74 52.7 561.8 52.25 561.8C51.95 561.8 51.71 561.74 51.17 561.53C50.42 561.23 50.03 561.14 49.43 561.14C47 561.14 45.41 562.61 45.41 564.92C45.41 566.54 45.83 567.38 47.81 569.75C48.95 571.1 49.49 572.12 49.49 572.87C49.49 573.77 48.74 574.49 47.78 574.49C46.25 574.49 45.29 573.17 44.9 570.5L44.09 570.41L43.43 575.39H44.24C44.36 575.03 44.72 574.79 45.11 574.79C45.32 574.79 45.65 574.88 46.04 575.03C46.76 575.27 47.3 575.39 47.93 575.39C50.48 575.39 52.37 573.68 52.37 571.43ZM68.4102 571.64L67.7802 571.19C66.5502 572.84 66.1002 573.29 65.6202 573.29C65.3802 573.29 65.2602 573.11 65.2602 572.84C65.2602 572.09 65.5302 570.86 66.2802 568.4L68.4102 561.32L65.0802 561.53L64.5402 563.3C64.2702 561.77 63.6102 561.14 62.3202 561.14C58.6302 561.14 54.1302 566.9 54.1302 571.58C54.1302 573.86 55.4202 575.39 57.3702 575.39C59.2002 575.39 60.5802 574.31 62.2902 571.43C61.9302 572.66 61.8702 573.02 61.8702 573.44C61.8702 574.55 62.7702 575.42 63.8802 575.42C65.2902 575.42 66.6702 574.25 68.4102 571.64ZM63.8502 563.81C63.8502 565.61 62.8602 568.94 61.6902 571.01C60.8802 572.48 59.9802 573.26 59.1702 573.26C58.3902 573.26 57.8202 572.57 57.8202 571.64C57.8202 570.08 58.8102 567.08 60.0402 564.86C60.9402 563.27 61.9302 562.34 62.7402 562.4C63.4002 562.46 63.8502 563 63.8502 563.81Z" fill="#1C1B1B"/>
<path d="M41.5 501.72C40.9 501.72 40.39 501.51 39.97 501.09C39.55 500.67 39.34 500.16 39.34 499.56V473.82C39.34 473.22 39.55 472.71 39.97 472.29C40.39 471.87 40.9 471.66 41.5 471.66H50.5C51.1 471.66 51.61 471.87 52.03 472.29C52.45 472.71 52.66 473.22 52.66 473.82C52.66 474.42 52.45 474.93 52.03 475.35C51.61 475.77 51.1 475.98 50.5 475.98H43.66V484.08H49.6C50.2 484.08 50.71 484.29 51.13 484.71C51.55 485.13 51.76 485.64 51.76 486.24C51.76 486.84 51.55 487.35 51.13 487.77C50.71 488.19 50.2 488.4 49.6 488.4H43.66V499.56C43.66 500.16 43.45 500.67 43.03 501.09C42.61 501.51 42.1 501.72 41.5 501.72ZM57.7158 501.9C57.1158 501.9 56.6058 501.69 56.1858 501.27C55.7658 500.85 55.5558 500.34 55.5558 499.74V473.64C55.5558 473.04 55.7658 472.53 56.1858 472.11C56.6058 471.69 57.1158 471.48 57.7158 471.48C58.3158 471.48 58.8258 471.69 59.2458 472.11C59.6658 472.53 59.8758 473.04 59.8758 473.64V499.74C59.8758 500.34 59.6658 500.85 59.2458 501.27C58.8258 501.69 58.3158 501.9 57.7158 501.9ZM76.9846 484.98C77.5846 484.98 78.0946 485.19 78.5146 485.61C78.9346 486.03 79.1446 486.54 79.1446 487.14V494.34C79.1446 495.39 78.9496 496.38 78.5596 497.31C78.1696 498.21 77.6296 499.005 76.9396 499.695C76.2496 500.385 75.4396 500.925 74.5096 501.315C73.6096 501.705 72.6346 501.9 71.5846 501.9C70.5346 501.9 69.5446 501.705 68.6146 501.315C67.7146 500.925 66.9196 500.385 66.2296 499.695C65.5696 499.005 65.0296 498.21 64.6096 497.31C64.2196 496.38 64.0246 495.39 64.0246 494.34V479.04C64.0246 478.2 64.1596 477.39 64.4296 476.61C64.6996 475.8 65.0746 475.08 65.5546 474.45C66.0646 473.79 66.6646 473.235 67.3546 472.785C68.0446 472.305 68.8096 471.96 69.6496 471.75C70.4596 471.54 71.2846 471.465 72.1246 471.525C72.9646 471.555 73.7596 471.735 74.5096 472.065C75.2596 472.365 75.9496 472.785 76.5796 473.325C77.2096 473.865 77.7346 474.51 78.1546 475.26C78.4546 475.77 78.5146 476.31 78.3346 476.88C78.1846 477.45 77.8546 477.9 77.3446 478.23C76.8346 478.53 76.2946 478.605 75.7246 478.455C75.1546 478.275 74.7196 477.93 74.4196 477.42C74.0296 476.79 73.4896 476.34 72.7996 476.07C72.1396 475.77 71.4646 475.725 70.7746 475.935C70.0546 476.115 69.4696 476.505 69.0196 477.105C68.5696 477.675 68.3446 478.32 68.3446 479.04V494.34C68.3446 495.24 68.6596 496.005 69.2896 496.635C69.9496 497.265 70.7146 497.58 71.5846 497.58C72.4846 497.58 73.2496 497.265 73.8796 496.635C74.5096 496.005 74.8246 495.24 74.8246 494.34V489.3H72.4846C71.8846 489.3 71.3746 489.09 70.9546 488.67C70.5346 488.25 70.3246 487.74 70.3246 487.14C70.3246 486.54 70.5346 486.03 70.9546 485.61C71.3746 485.19 71.8846 484.98 72.4846 484.98H76.9846ZM82.4795 499.29C82.4795 498.57 82.7345 497.955 83.2445 497.445C83.7545 496.935 84.3695 496.68 85.0895 496.68C85.8095 496.68 86.4245 496.935 86.9345 497.445C87.4445 497.955 87.6995 498.57 87.6995 499.29C87.6995 500.01 87.4445 500.625 86.9345 501.135C86.4245 501.645 85.8095 501.9 85.0895 501.9C84.3695 501.9 83.7545 501.645 83.2445 501.135C82.7345 500.625 82.4795 500.01 82.4795 499.29ZM96.8068 501.63C95.9968 501.42 95.2468 501.09 94.5568 500.64C93.8668 500.16 93.2668 499.605 92.7568 498.975C92.2768 498.315 91.9018 497.595 91.6318 496.815C91.3618 496.035 91.2268 495.21 91.2268 494.34V479.04C91.2268 478.2 91.3618 477.39 91.6318 476.61C91.9018 475.8 92.2768 475.08 92.7568 474.45C93.2668 473.79 93.8668 473.235 94.5568 472.785C95.2468 472.305 95.9968 471.96 96.8068 471.75C98.4868 471.3 100.107 471.405 101.667 472.065C103.227 472.695 104.442 473.76 105.312 475.26C105.642 475.77 105.717 476.31 105.537 476.88C105.387 477.45 105.057 477.9 104.547 478.23C104.037 478.53 103.497 478.605 102.927 478.455C102.357 478.275 101.907 477.93 101.577 477.42C101.217 476.79 100.692 476.34 100.002 476.07C99.3418 475.77 98.6518 475.725 97.9318 475.935C97.2418 476.115 96.6718 476.505 96.2218 477.105C95.7718 477.675 95.5468 478.32 95.5468 479.04V494.34C95.5468 495.09 95.7718 495.75 96.2218 496.32C96.6718 496.89 97.2418 497.28 97.9318 497.49C98.6518 497.67 99.3418 497.625 100.002 497.355C100.692 497.055 101.217 496.59 101.577 495.96C101.907 495.45 102.357 495.12 102.927 494.97C103.497 494.79 104.037 494.85 104.547 495.15C105.057 495.48 105.387 495.93 105.537 496.5C105.717 497.07 105.642 497.61 105.312 498.12C104.442 499.62 103.227 500.685 101.667 501.315C100.107 501.975 98.4868 502.08 96.8068 501.63ZM109.081 473.82C109.081 473.22 109.291 472.71 109.711 472.29C110.131 471.87 110.641 471.66 111.241 471.66H120.241C120.841 471.66 121.351 471.87 121.771 472.29C122.191 472.71 122.401 473.22 122.401 473.82C122.401 474.42 122.191 474.93 121.771 475.35C121.351 475.77 120.841 475.98 120.241 475.98H113.401V484.08H119.341C119.941 484.08 120.451 484.29 120.871 484.71C121.291 485.13 121.501 485.64 121.501 486.24C121.501 486.84 121.291 487.35 120.871 487.77C120.451 488.19 119.941 488.4 119.341 488.4H113.401V497.4H120.241C120.841 497.4 121.351 497.61 121.771 498.03C122.191 498.45 122.401 498.96 122.401 499.56C122.401 500.16 122.191 500.67 121.771 501.09C121.351 501.51 120.841 501.72 120.241 501.72H111.241C110.641 501.72 110.131 501.51 109.711 501.09C109.291 500.67 109.081 500.16 109.081 499.56V473.82Z" fill="#1C1B1B"/>
<path fill-rule="evenodd" clip-rule="evenodd" d="M208.407 1007.29C209.818 1012.7 212.411 1016.41 215.71 1019.21C219.428 1022.36 224.015 1024.31 228.562 1026.25C228.996 1026.43 229.43 1026.61 229.863 1026.8C234.882 1028.95 239.816 1031.24 243.887 1035.23C247.932 1039.19 251.192 1044.91 252.687 1054.02L254.661 1053.69C253.107 1044.23 249.678 1038.1 245.287 1033.8C240.922 1029.52 235.672 1027.11 230.65 1024.96C230.227 1024.78 229.806 1024.6 229.388 1024.42L229.386 1024.42C224.782 1022.46 220.477 1020.63 217.004 1017.69C214.053 1015.18 211.682 1011.85 210.364 1006.87L211.187 1006.69L209.56 1002.64C209.558 1002.63 209.556 1002.61 209.553 1002.59L209.539 1002.59L207.351 997.141L207.572 1002.83L207.569 1002.83C207.57 1002.85 207.572 1002.86 207.573 1002.87L207.75 1007.43L208.407 1007.29Z" fill="#1C1B1B"/>
<path fill-rule="evenodd" clip-rule="evenodd" d="M336.178 911.337C341.516 909.681 345.112 906.922 347.757 903.499C350.737 899.642 352.476 894.97 354.199 890.341C354.364 889.899 354.529 889.457 354.694 889.016C356.613 883.904 358.675 878.872 362.476 874.623C366.253 870.402 371.814 866.886 380.847 864.978L380.433 863.021C371.047 865.004 365.086 868.708 360.986 873.29C356.91 877.845 354.741 883.199 352.822 888.313C352.66 888.744 352.5 889.172 352.341 889.599L352.341 889.601C350.593 894.289 348.958 898.673 346.174 902.276C343.809 905.338 340.588 907.858 335.671 909.4L335.458 908.587L331.486 910.396C331.468 910.399 331.449 910.402 331.431 910.405L331.433 910.42L326.089 912.853L331.766 912.373L331.766 912.377C331.779 912.374 331.792 912.372 331.804 912.37L336.347 911.986L336.178 911.337Z" fill="#1C1B1B"/>
<path fill-rule="evenodd" clip-rule="evenodd" d="M78.9373 1025.27C90.1416 1019.13 97.9591 1013.68 103.248 1006.56C108.501 999.486 111.185 990.882 112.382 978.601L113.216 978.577L111.281 969.055L109.901 978.673L110.367 978.659C109.177 990.608 106.562 998.742 101.643 1005.36C96.6229 1012.12 89.1271 1017.41 77.9765 1023.52L78.9373 1025.27Z" fill="#1C1B1B"/>
<path fill-rule="evenodd" clip-rule="evenodd" d="M388.988 1070.31C392.336 1057.89 395.822 1048.95 401.532 1042.09C407.203 1035.28 414.983 1030.61 426.715 1026.53L426.539 1025.7L436.314 1025.33L427.231 1028.96L427.133 1028.5C415.722 1032.5 408.382 1036.99 403.07 1043.37C397.648 1049.89 394.252 1058.47 390.919 1070.83L388.988 1070.31Z" fill="#1C1B1B"/>
<path d="M154.998 784L179.5 784L179.5 833.025" stroke="#1C1B1B" stroke-width="2"/>
<path d="M179.505 843.059L177.344 829.377L181.666 829.377L179.505 843.059Z" fill="#1C1B1B"/>
<line x1="548.121" y1="964.598" x2="494.167" y2="995.748" stroke="#1C1B1B" stroke-width="2"/>
<path d="M487.5 999.598L495.294 992.098L497.892 996.598L487.5 999.598Z" fill="#1C1B1B"/>
<line x1="112" y1="861" x2="112" y2="923.3" stroke="#1C1B1B" stroke-width="2"/>
<path d="M112 930.999L109.402 920.499L114.598 920.499L112 930.999Z" fill="#1C1B1B"/>
<path d="M254.38 1064.77C254.38 1062.55 253.12 1061.14 251.14 1061.14C249.43 1061.14 248.11 1062.1 246.34 1064.59L247.48 1061.14L241.69 1061.98V1062.79C243.04 1062.85 243.31 1062.97 243.31 1063.54C243.31 1063.84 243.07 1064.92 242.65 1066.48L239.65 1078.12C239.08 1080.1 238.84 1080.37 237.4 1080.34V1081.15H244.87V1080.34C243.37 1080.31 242.92 1080.1 242.92 1079.38C242.92 1078.96 243.13 1078.06 243.7 1075.96C243.91 1075.24 243.91 1075.18 244.03 1074.73C245.08 1075.27 245.44 1075.39 246.07 1075.39C250.15 1075.39 254.38 1069.96 254.38 1064.77ZM250.63 1064.98C250.51 1066.96 249.55 1069.93 248.47 1071.88C247.54 1073.5 246.58 1074.34 245.56 1074.34C244.9 1074.34 244.39 1073.86 244.39 1073.26C244.39 1072.75 244.72 1071.52 245.53 1068.79C246.19 1066.6 246.46 1065.85 246.91 1065.16C247.66 1063.99 248.68 1063.21 249.46 1063.27C250.24 1063.33 250.69 1064.02 250.63 1064.98ZM265.48 1071.25L264.61 1070.74C263.23 1072.81 262.36 1073.47 261.07 1073.47C259.81 1073.47 259.15 1072.63 259.15 1071.01C259.15 1070.53 259.21 1070.14 259.33 1069.54C262.45 1068.94 263.92 1068.28 265.42 1066.9C266.47 1065.94 267.04 1064.83 267.04 1063.75C267.04 1062.22 265.72 1061.14 263.89 1061.14C259.54 1061.14 255.25 1066.03 255.25 1070.98C255.25 1073.53 257.17 1075.39 259.78 1075.39C262.09 1075.39 263.68 1074.22 265.48 1071.25ZM264.28 1063.15C264.28 1064.47 263.77 1065.76 262.81 1066.75C262 1067.62 261.25 1068.04 259.54 1068.58C260.62 1064.41 262 1062.13 263.44 1062.13C264.01 1062.13 264.28 1062.46 264.28 1063.15Z" fill="#1C1B1B"/>
<path d="M407.66 863.34L407 862.95C406.88 863.1 406.76 863.28 406.64 863.49C405.95 864.6 405.32 865.23 404.93 865.23C404.66 865.23 404.45 865.05 404.45 864.81C404.45 864.48 404.45 864.48 405.08 862.47L406.43 858.48C406.88 857.19 407.12 856.05 407.12 855.27C407.12 854.04 406.13 853.14 404.81 853.14C402.77 853.14 401.36 854.34 398.87 858.3C399.47 856.74 399.65 856.02 399.65 855.18C399.65 853.92 398.9 853.14 397.64 853.14C396.8 853.14 395.9 853.47 395.06 854.16C393.95 855 393.05 856.11 391.1 859.14L393.02 853.17C391.13 853.62 390.41 853.71 387.02 853.98V854.79C387.8 854.79 388.64 854.85 388.64 855.54C388.64 855.99 388.4 856.95 387.59 859.86L385.58 867H389.21C390.8 861.33 391.91 858.78 393.62 856.74C394.28 855.96 395.12 855.33 395.57 855.33C395.87 855.33 396.11 855.63 396.11 855.99C396.11 856.5 395.75 857.76 394.76 860.79L392.81 867H396.41C398.15 861.24 398.36 860.7 399.44 858.81C400.7 856.56 401.9 855.33 402.8 855.33C403.16 855.33 403.49 855.63 403.49 855.96C403.49 856.14 403.4 856.47 403.28 856.86L401.93 860.79C401.27 862.71 400.85 864.51 400.85 865.38C400.85 866.61 401.57 867.27 402.86 867.27C404.72 867.27 405.92 866.28 407.66 863.34Z" fill="#1C1B1B"/>
<path d="M566.48 962.19L565.82 961.77L565.4 962.37C564.62 963.54 563.93 964.17 563.48 964.17C563.24 964.17 563.03 963.96 563.03 963.72C563.03 963.45 563.18 962.67 563.3 962.16L566.03 952.14C564.41 952.5 562.31 952.8 559.97 952.98V953.79H560.36C561.26 953.79 561.74 954.09 561.74 954.66C561.74 954.9 561.65 955.35 561.53 955.86L559.79 962.31C559.55 963.18 559.4 963.96 559.4 964.38C559.4 965.52 560.24 966.27 561.47 966.27C563.27 966.27 564.38 965.37 566.48 962.19ZM567.32 948.3C567.32 947.19 566.39 946.26 565.25 946.26C564.2 946.26 563.27 947.19 563.27 948.24C563.27 949.41 564.14 950.31 565.25 950.31C566.39 950.31 567.32 949.41 567.32 948.3Z" fill="#1C1B1B"/>
<path d="M147.65 782.64L147.02 782.19C145.79 783.84 145.34 784.29 144.86 784.29C144.62 784.29 144.5 784.11 144.5 783.84C144.5 783.09 144.77 781.86 145.52 779.4L147.65 772.32L144.32 772.53L143.78 774.3C143.51 772.77 142.85 772.14 141.56 772.14C137.87 772.14 133.37 777.9 133.37 782.58C133.37 784.86 134.66 786.39 136.61 786.39C138.44 786.39 139.82 785.31 141.53 782.43C141.17 783.66 141.11 784.02 141.11 784.44C141.11 785.55 142.01 786.42 143.12 786.42C144.53 786.42 145.91 785.25 147.65 782.64ZM143.09 774.81C143.09 776.61 142.1 779.94 140.93 782.01C140.12 783.48 139.22 784.26 138.41 784.26C137.63 784.26 137.06 783.57 137.06 782.64C137.06 781.08 138.05 778.08 139.28 775.86C140.18 774.27 141.17 773.34 141.98 773.4C142.64 773.46 143.09 774 143.09 774.81Z" fill="#1C1B1B"/>
<path d="M110.75 850.19L110.09 849.77C109.07 851.36 108.29 852.17 107.81 852.17C107.57 852.17 107.33 851.96 107.33 851.72C107.33 851.15 107.87 849.08 108.95 845.36L109.94 841.79H112.43V840.53H110.27L111.44 836.18H110.39C108.77 838.58 107.27 839.84 104.9 840.74V841.79H106.43L104.39 848.93C103.94 850.49 103.67 851.78 103.67 852.32C103.67 853.49 104.51 854.27 105.77 854.27C107.57 854.27 108.77 853.28 110.75 850.19ZM121.83 850.31L120.99 849.77C119.55 851.78 118.62 852.47 117.33 852.47C116.01 852.47 115.14 851.39 115.14 849.8C115.14 847.91 115.92 845.21 117 843.26C117.81 841.85 118.65 841.13 119.58 841.13C119.94 841.13 120.24 841.34 120.24 841.64C120.24 841.76 120.18 841.94 120 842.21C119.73 842.69 119.61 843.02 119.61 843.38C119.61 844.28 120.33 844.94 121.35 844.94C122.46 844.94 123.21 844.1 123.21 842.84C123.21 841.25 121.86 840.14 119.85 840.14C115.62 840.14 111.3 845.06 111.3 849.86C111.3 852.53 113.16 854.39 115.89 854.39C117.21 854.39 118.5 853.91 119.52 853.04C120.3 852.38 120.78 851.81 121.83 850.31Z" fill="#1C1B1B"/>
<path d="M58.38 1018.77C58.38 1016.55 57.12 1015.14 55.14 1015.14C53.43 1015.14 52.11 1016.1 50.34 1018.59L51.48 1015.14L45.69 1015.98V1016.79C47.04 1016.85 47.31 1016.97 47.31 1017.54C47.31 1017.84 47.07 1018.92 46.65 1020.48L43.65 1032.12C43.08 1034.1 42.84 1034.37 41.4 1034.34V1035.15H48.87V1034.34C47.37 1034.31 46.92 1034.1 46.92 1033.38C46.92 1032.96 47.13 1032.06 47.7 1029.96C47.91 1029.24 47.91 1029.18 48.03 1028.73C49.08 1029.27 49.44 1029.39 50.07 1029.39C54.15 1029.39 58.38 1023.96 58.38 1018.77ZM54.63 1018.98C54.51 1020.96 53.55 1023.93 52.47 1025.88C51.54 1027.5 50.58 1028.34 49.56 1028.34C48.9 1028.34 48.39 1027.86 48.39 1027.26C48.39 1026.75 48.72 1025.52 49.53 1022.79C50.19 1020.6 50.46 1019.85 50.91 1019.16C51.66 1017.99 52.68 1017.21 53.46 1017.27C54.24 1017.33 54.69 1018.02 54.63 1018.98ZM72.48 1018.77C72.48 1016.55 71.22 1015.14 69.24 1015.14C67.53 1015.14 66.21 1016.1 64.44 1018.59L65.58 1015.14L59.79 1015.98V1016.79C61.14 1016.85 61.41 1016.97 61.41 1017.54C61.41 1017.84 61.17 1018.92 60.75 1020.48L57.75 1032.12C57.18 1034.1 56.94 1034.37 55.5 1034.34V1035.15H62.97V1034.34C61.47 1034.31 61.02 1034.1 61.02 1033.38C61.02 1032.96 61.23 1032.06 61.8 1029.96C62.01 1029.24 62.01 1029.18 62.13 1028.73C63.18 1029.27 63.54 1029.39 64.17 1029.39C68.25 1029.39 72.48 1023.96 72.48 1018.77ZM68.73 1018.98C68.61 1020.96 67.65 1023.93 66.57 1025.88C65.64 1027.5 64.68 1028.34 63.66 1028.34C63 1028.34 62.49 1027.86 62.49 1027.26C62.49 1026.75 62.82 1025.52 63.63 1022.79C64.29 1020.6 64.56 1019.85 65.01 1019.16C65.76 1017.99 66.78 1017.21 67.56 1017.27C68.34 1017.33 68.79 1018.02 68.73 1018.98Z" fill="#1C1B1B"/>
<path d="M393.33 1093.22L392.73 1092.89C391.68 1094.48 390.99 1095.14 390.45 1095.14C390.18 1095.14 389.94 1094.9 389.94 1094.63C389.94 1094.51 389.94 1094.48 390.06 1094.03L394.59 1075.97L391.62 1076.33L391.23 1076.24C389.43 1075.91 389.28 1075.88 388.59 1075.88C386.73 1075.88 384.96 1076.6 383.91 1077.77C382.71 1079.06 382.14 1080.26 381.12 1083.53H378.9L378.6 1084.79H380.82L378.06 1096.85C377.07 1101.17 376.62 1102.1 375.57 1102.1C375.18 1102.1 374.91 1101.95 374.91 1101.74C374.91 1101.65 374.94 1101.53 375.09 1101.35C375.3 1101.05 375.39 1100.81 375.39 1100.51C375.39 1099.67 374.82 1099.13 373.98 1099.13C372.99 1099.13 372.42 1099.73 372.42 1100.72C372.42 1102.16 373.59 1103.15 375.33 1103.15C378.42 1103.15 380.64 1100.3 382.02 1094.57L384.39 1084.79H388.8L386.43 1094.42C386.34 1094.81 386.28 1095.2 386.28 1095.53C386.28 1096.55 387.15 1097.27 388.44 1097.27C390.21 1097.27 391.29 1096.37 393.33 1093.22ZM389.16 1083.53H384.63C385.26 1080.89 385.68 1079.63 386.31 1078.61C387.03 1077.41 387.96 1076.75 388.98 1076.75C389.52 1076.75 390.06 1077.02 390.06 1077.32C390.06 1077.32 390.03 1077.41 389.88 1077.65C389.52 1078.16 389.43 1078.4 389.43 1078.79C389.43 1079.27 389.61 1079.63 390.06 1079.96L389.16 1083.53Z" fill="#1C1B1B"/>
<path d="M469.5 854.72C468.9 854.72 468.39 854.51 467.97 854.09C467.55 853.67 467.34 853.16 467.34 852.56V826.82C467.34 826.22 467.55 825.71 467.97 825.29C468.39 824.87 468.9 824.66 469.5 824.66H478.5C479.1 824.66 479.61 824.87 480.03 825.29C480.45 825.71 480.66 826.22 480.66 826.82C480.66 827.42 480.45 827.93 480.03 828.35C479.61 828.77 479.1 828.98 478.5 828.98H471.66V837.08H477.6C478.2 837.08 478.71 837.29 479.13 837.71C479.55 838.13 479.76 838.64 479.76 839.24C479.76 839.84 479.55 840.35 479.13 840.77C478.71 841.19 478.2 841.4 477.6 841.4H471.66V852.56C471.66 853.16 471.45 853.67 471.03 854.09C470.61 854.51 470.1 854.72 469.5 854.72ZM485.716 854.9C485.116 854.9 484.606 854.69 484.186 854.27C483.766 853.85 483.556 853.34 483.556 852.74V826.64C483.556 826.04 483.766 825.53 484.186 825.11C484.606 824.69 485.116 824.48 485.716 824.48C486.316 824.48 486.826 824.69 487.246 825.11C487.666 825.53 487.876 826.04 487.876 826.64V852.74C487.876 853.34 487.666 853.85 487.246 854.27C486.826 854.69 486.316 854.9 485.716 854.9ZM504.985 837.98C505.585 837.98 506.095 838.19 506.515 838.61C506.935 839.03 507.145 839.54 507.145 840.14V847.34C507.145 848.39 506.95 849.38 506.56 850.31C506.17 851.21 505.63 852.005 504.94 852.695C504.25 853.385 503.44 853.925 502.51 854.315C501.61 854.705 500.635 854.9 499.585 854.9C498.535 854.9 497.545 854.705 496.615 854.315C495.715 853.925 494.92 853.385 494.23 852.695C493.57 852.005 493.03 851.21 492.61 850.31C492.22 849.38 492.025 848.39 492.025 847.34V832.04C492.025 831.2 492.16 830.39 492.43 829.61C492.7 828.8 493.075 828.08 493.555 827.45C494.065 826.79 494.665 826.235 495.355 825.785C496.045 825.305 496.81 824.96 497.65 824.75C498.46 824.54 499.285 824.465 500.125 824.525C500.965 824.555 501.76 824.735 502.51 825.065C503.26 825.365 503.95 825.785 504.58 826.325C505.21 826.865 505.735 827.51 506.155 828.26C506.455 828.77 506.515 829.31 506.335 829.88C506.185 830.45 505.855 830.9 505.345 831.23C504.835 831.53 504.295 831.605 503.725 831.455C503.155 831.275 502.72 830.93 502.42 830.42C502.03 829.79 501.49 829.34 500.8 829.07C500.14 828.77 499.465 828.725 498.775 828.935C498.055 829.115 497.47 829.505 497.02 830.105C496.57 830.675 496.345 831.32 496.345 832.04V847.34C496.345 848.24 496.66 849.005 497.29 849.635C497.95 850.265 498.715 850.58 499.585 850.58C500.485 850.58 501.25 850.265 501.88 849.635C502.51 849.005 502.825 848.24 502.825 847.34V842.3H500.485C499.885 842.3 499.375 842.09 498.955 841.67C498.535 841.25 498.325 840.74 498.325 840.14C498.325 839.54 498.535 839.03 498.955 838.61C499.375 838.19 499.885 837.98 500.485 837.98H504.985ZM510.48 852.29C510.48 851.57 510.735 850.955 511.245 850.445C511.755 849.935 512.37 849.68 513.09 849.68C513.81 849.68 514.425 849.935 514.935 850.445C515.445 850.955 515.7 851.57 515.7 852.29C515.7 853.01 515.445 853.625 514.935 854.135C514.425 854.645 513.81 854.9 513.09 854.9C512.37 854.9 511.755 854.645 511.245 854.135C510.735 853.625 510.48 853.01 510.48 852.29ZM524.807 854.63C523.997 854.42 523.247 854.09 522.557 853.64C521.867 853.16 521.267 852.605 520.757 851.975C520.277 851.315 519.902 850.595 519.632 849.815C519.362 849.035 519.227 848.21 519.227 847.34V832.04C519.227 831.2 519.362 830.39 519.632 829.61C519.902 828.8 520.277 828.08 520.757 827.45C521.267 826.79 521.867 826.235 522.557 825.785C523.247 825.305 523.997 824.96 524.807 824.75C526.487 824.3 528.107 824.405 529.667 825.065C531.227 825.695 532.442 826.76 533.312 828.26C533.642 828.77 533.717 829.31 533.537 829.88C533.387 830.45 533.057 830.9 532.547 831.23C532.037 831.53 531.497 831.605 530.927 831.455C530.357 831.275 529.907 830.93 529.577 830.42C529.217 829.79 528.692 829.34 528.002 829.07C527.342 828.77 526.652 828.725 525.932 828.935C525.242 829.115 524.672 829.505 524.222 830.105C523.772 830.675 523.547 831.32 523.547 832.04V847.34C523.547 848.09 523.772 848.75 524.222 849.32C524.672 849.89 525.242 850.28 525.932 850.49C526.652 850.67 527.342 850.625 528.002 850.355C528.692 850.055 529.217 849.59 529.577 848.96C529.907 848.45 530.357 848.12 530.927 847.97C531.497 847.79 532.037 847.85 532.547 848.15C533.057 848.48 533.387 848.93 533.537 849.5C533.717 850.07 533.642 850.61 533.312 851.12C532.442 852.62 531.227 853.685 529.667 854.315C528.107 854.975 526.487 855.08 524.807 854.63ZM542.121 854.63C541.311 854.42 540.561 854.09 539.871 853.64C539.181 853.16 538.581 852.605 538.071 851.975C537.591 851.315 537.216 850.595 536.946 849.815C536.676 849.035 536.541 848.21 536.541 847.34V832.04C536.541 831.2 536.676 830.39 536.946 829.61C537.216 828.8 537.591 828.08 538.071 827.45C538.581 826.79 539.181 826.235 539.871 825.785C540.561 825.305 541.311 824.96 542.121 824.75C543.801 824.3 545.421 824.405 546.981 825.065C548.541 825.695 549.756 826.76 550.626 828.26C550.956 828.77 551.031 829.31 550.851 829.88C550.701 830.45 550.371 830.9 549.861 831.23C549.351 831.53 548.811 831.605 548.241 831.455C547.671 831.275 547.221 830.93 546.891 830.42C546.531 829.79 546.006 829.34 545.316 829.07C544.656 828.77 543.966 828.725 543.246 828.935C542.556 829.115 541.986 829.505 541.536 830.105C541.086 830.675 540.861 831.32 540.861 832.04V847.34C540.861 848.09 541.086 848.75 541.536 849.32C541.986 849.89 542.556 850.28 543.246 850.49C543.966 850.67 544.656 850.625 545.316 850.355C546.006 850.055 546.531 849.59 546.891 848.96C547.221 848.45 547.671 848.12 548.241 847.97C548.811 847.79 549.351 847.85 549.861 848.15C550.371 848.48 550.701 848.93 550.851 849.5C551.031 850.07 550.956 850.61 550.626 851.12C549.756 852.62 548.541 853.685 546.981 854.315C545.421 854.975 543.801 855.08 542.121 854.63Z" fill="#1C1B1B"/>
<path d="M203.5 371.72C202.9 371.72 202.39 371.51 201.97 371.09C201.55 370.67 201.34 370.16 201.34 369.56V343.82C201.34 343.22 201.55 342.71 201.97 342.29C202.39 341.87 202.9 341.66 203.5 341.66H212.5C213.1 341.66 213.61 341.87 214.03 342.29C214.45 342.71 214.66 343.22 214.66 343.82C214.66 344.42 214.45 344.93 214.03 345.35C213.61 345.77 213.1 345.98 212.5 345.98H205.66V354.08H211.6C212.2 354.08 212.71 354.29 213.13 354.71C213.55 355.13 213.76 355.64 213.76 356.24C213.76 356.84 213.55 357.35 213.13 357.77C212.71 358.19 212.2 358.4 211.6 358.4H205.66V369.56C205.66 370.16 205.45 370.67 205.03 371.09C204.61 371.51 204.1 371.72 203.5 371.72ZM219.716 371.9C219.116 371.9 218.606 371.69 218.186 371.27C217.766 370.85 217.556 370.34 217.556 369.74V343.64C217.556 343.04 217.766 342.53 218.186 342.11C218.606 341.69 219.116 341.48 219.716 341.48C220.316 341.48 220.826 341.69 221.246 342.11C221.666 342.53 221.876 343.04 221.876 343.64V369.74C221.876 370.34 221.666 370.85 221.246 371.27C220.826 371.69 220.316 371.9 219.716 371.9ZM238.985 354.98C239.585 354.98 240.095 355.19 240.515 355.61C240.935 356.03 241.145 356.54 241.145 357.14V364.34C241.145 365.39 240.95 366.38 240.56 367.31C240.17 368.21 239.63 369.005 238.94 369.695C238.25 370.385 237.44 370.925 236.51 371.315C235.61 371.705 234.635 371.9 233.585 371.9C232.535 371.9 231.545 371.705 230.615 371.315C229.715 370.925 228.92 370.385 228.23 369.695C227.57 369.005 227.03 368.21 226.61 367.31C226.22 366.38 226.025 365.39 226.025 364.34V349.04C226.025 348.2 226.16 347.39 226.43 346.61C226.7 345.8 227.075 345.08 227.555 344.45C228.065 343.79 228.665 343.235 229.355 342.785C230.045 342.305 230.81 341.96 231.65 341.75C232.46 341.54 233.285 341.465 234.125 341.525C234.965 341.555 235.76 341.735 236.51 342.065C237.26 342.365 237.95 342.785 238.58 343.325C239.21 343.865 239.735 344.51 240.155 345.26C240.455 345.77 240.515 346.31 240.335 346.88C240.185 347.45 239.855 347.9 239.345 348.23C238.835 348.53 238.295 348.605 237.725 348.455C237.155 348.275 236.72 347.93 236.42 347.42C236.03 346.79 235.49 346.34 234.8 346.07C234.14 345.77 233.465 345.725 232.775 345.935C232.055 346.115 231.47 346.505 231.02 347.105C230.57 347.675 230.345 348.32 230.345 349.04V364.34C230.345 365.24 230.66 366.005 231.29 366.635C231.95 367.265 232.715 367.58 233.585 367.58C234.485 367.58 235.25 367.265 235.88 366.635C236.51 366.005 236.825 365.24 236.825 364.34V359.3H234.485C233.885 359.3 233.375 359.09 232.955 358.67C232.535 358.25 232.325 357.74 232.325 357.14C232.325 356.54 232.535 356.03 232.955 355.61C233.375 355.19 233.885 354.98 234.485 354.98H238.985ZM244.48 369.29C244.48 368.57 244.735 367.955 245.245 367.445C245.755 366.935 246.37 366.68 247.09 366.68C247.81 366.68 248.425 366.935 248.935 367.445C249.445 367.955 249.7 368.57 249.7 369.29C249.7 370.01 249.445 370.625 248.935 371.135C248.425 371.645 247.81 371.9 247.09 371.9C246.37 371.9 245.755 371.645 245.245 371.135C244.735 370.625 244.48 370.01 244.48 369.29ZM253.767 343.82C253.767 343.22 253.977 342.71 254.397 342.29C254.817 341.87 255.327 341.66 255.927 341.66H264.927C265.527 341.66 266.037 341.87 266.457 342.29C266.877 342.71 267.087 343.22 267.087 343.82C267.087 344.42 266.877 344.93 266.457 345.35C266.037 345.77 265.527 345.98 264.927 345.98H258.087V354.08H264.027C264.627 354.08 265.137 354.29 265.557 354.71C265.977 355.13 266.187 355.64 266.187 356.24C266.187 356.84 265.977 357.35 265.557 357.77C265.137 358.19 264.627 358.4 264.027 358.4H258.087V367.4H264.927C265.527 367.4 266.037 367.61 266.457 368.03C266.877 368.45 267.087 368.96 267.087 369.56C267.087 370.16 266.877 370.67 266.457 371.09C266.037 371.51 265.527 371.72 264.927 371.72H255.927C255.327 371.72 254.817 371.51 254.397 371.09C253.977 370.67 253.767 370.16 253.767 369.56V343.82Z" fill="#1C1B1B"/>
<line y1="-1" x2="40.6038" y2="-1" transform="matrix(-0.859693 -0.510811 -0.510811 0.859693 133.346 130.038)" stroke="#1C1B1B" stroke-width="2"/>
<path d="M92.4974 104.519L99.5788 111.679L102.171 107.315L92.4974 104.519Z" fill="#1C1B1B"/>
<line y1="-1" x2="40.6038" y2="-1" transform="matrix(-0.977982 0.208687 0.208687 0.977982 315.438 207.2)" stroke="#1C1B1B" stroke-width="2"/>
<path d="M268.119 216.201L278.179 216.649L277.12 211.685L268.119 216.201Z" fill="#1C1B1B"/>
<line y1="-1" x2="40.5771" y2="-1" transform="matrix(0.258819 -0.965926 -0.965926 -0.258819 158.77 118.836)" stroke="#1C1B1B" stroke-width="2"/>
<path d="M172.252 72.7585L167.28 81.5084L172.182 82.822L172.252 72.7585Z" fill="#1C1B1B"/>
<line y1="-1" x2="40.5771" y2="-1" transform="matrix(-0.46582 -0.884879 -0.884879 0.46582 326.496 181.715)" stroke="#1C1B1B" stroke-width="2"/>
<path d="M305.11 138.731L307.401 148.531L311.892 146.167L305.11 138.731Z" fill="#1C1B1B"/>
<path d="M155.65 139.64L155.02 139.19C153.79 140.84 153.34 141.29 152.86 141.29C152.62 141.29 152.5 141.11 152.5 140.84C152.5 140.09 152.77 138.86 153.52 136.4L155.65 129.32L152.32 129.53L151.78 131.3C151.51 129.77 150.85 129.14 149.56 129.14C145.87 129.14 141.37 134.9 141.37 139.58C141.37 141.86 142.66 143.39 144.61 143.39C146.44 143.39 147.82 142.31 149.53 139.43C149.17 140.66 149.11 141.02 149.11 141.44C149.11 142.55 150.01 143.42 151.12 143.42C152.53 143.42 153.91 142.25 155.65 139.64ZM151.09 131.81C151.09 133.61 150.1 136.94 148.93 139.01C148.12 140.48 147.22 141.26 146.41 141.26C145.63 141.26 145.06 140.57 145.06 139.64C145.06 138.08 146.05 135.08 147.28 132.86C148.18 131.27 149.17 130.34 149.98 130.4C150.64 130.46 151.09 131 151.09 131.81ZM166.48 139.25L165.61 138.74C164.23 140.81 163.36 141.47 162.07 141.47C160.81 141.47 160.15 140.63 160.15 139.01C160.15 138.53 160.21 138.14 160.33 137.54C163.45 136.94 164.92 136.28 166.42 134.9C167.47 133.94 168.04 132.83 168.04 131.75C168.04 130.22 166.72 129.14 164.89 129.14C160.54 129.14 156.25 134.03 156.25 138.98C156.25 141.53 158.17 143.39 160.78 143.39C163.09 143.39 164.68 142.22 166.48 139.25ZM165.28 131.15C165.28 132.47 164.77 133.76 163.81 134.75C163 135.62 162.25 136.04 160.54 136.58C161.62 132.41 163 130.13 164.44 130.13C165.01 130.13 165.28 130.46 165.28 131.15Z" fill="#1C1B1B"/>
<path d="M336.47 205.55L335.81 205.07C334.97 206.42 334.25 207.23 333.8 207.23C333.62 207.23 333.47 207.05 333.47 206.87C333.47 206.6 334.16 203.9 335.18 200.18L338.51 188.03C336.71 188.45 335.24 188.66 332.24 188.9L332.24 189.71L332.87 189.71C333.65 189.71 334.1 190.01 334.1 190.55C334.1 190.82 333.95 191.45 333.23 194.09L332.69 196.13C331.97 195.41 331.4 195.14 330.53 195.14C326.87 195.14 322.37 200.93 322.37 205.64C322.37 207.83 323.72 209.39 325.55 209.39C327.47 209.39 328.82 208.31 330.53 205.46C330.26 206.63 330.2 207.02 330.2 207.5C330.2 208.64 330.86 209.33 332 209.33C333.47 209.33 334.82 208.19 336.47 205.55ZM332.24 197.87C332.24 199.19 330.95 203.09 329.9 205.01C329.06 206.48 328.19 207.23 327.32 207.23C326.57 207.23 326.03 206.39 326.09 205.34C326.18 203.72 327.11 200.96 328.19 199.01C329.15 197.3 330.23 196.34 331.13 196.4C331.79 196.43 332.24 197.03 332.24 197.87ZM344.24 205.19L343.58 204.77L343.16 205.37C342.38 206.54 341.69 207.17 341.24 207.17C341 207.17 340.79 206.96 340.79 206.72C340.79 206.45 340.94 205.67 341.06 205.16L343.79 195.14C342.17 195.5 340.07 195.8 337.73 195.98L337.73 196.79L338.12 196.79C339.02 196.79 339.5 197.09 339.5 197.66C339.5 197.9 339.41 198.35 339.29 198.86L337.55 205.31C337.31 206.18 337.16 206.96 337.16 207.38C337.16 208.52 338 209.27 339.23 209.27C341.03 209.27 342.14 208.37 344.24 205.19ZM345.08 191.3C345.08 190.19 344.15 189.26 343.01 189.26C341.96 189.26 341.03 190.19 341.03 191.24C341.03 192.41 341.9 193.31 343.01 193.31C344.15 193.31 345.08 192.41 345.08 191.3Z" fill="#1C1B1B"/>
<path fill-rule="evenodd" clip-rule="evenodd" d="M775.583 277.708C763.503 281.911 754.88 286.005 748.478 292.157C742.121 298.268 738.045 306.319 734.828 318.247L734 318.133L734.333 327.855L737.289 318.587L736.826 318.523C739.98 306.921 743.91 299.322 749.864 293.599C755.941 287.759 764.218 283.78 776.24 279.596L775.583 277.708Z" fill="#1C1B1B"/>
<path fill-rule="evenodd" clip-rule="evenodd" d="M721.583 245.708C709.503 249.911 700.88 254.005 694.478 260.157C688.121 266.268 684.045 274.319 680.828 286.247L680 286.133L680.333 295.855L683.289 286.587L682.826 286.523C685.98 274.921 689.91 267.322 695.864 261.599C701.941 255.759 710.218 251.78 722.24 247.596L721.583 245.708Z" fill="#1C1B1B"/>
<path fill-rule="evenodd" clip-rule="evenodd" d="M662.583 213.708C650.503 217.911 641.88 222.005 635.478 228.157C629.121 234.268 625.045 242.319 621.828 254.247L621 254.133L621.333 263.855L624.289 254.587L623.826 254.523C626.98 242.921 630.91 235.322 636.864 229.599C642.941 223.759 651.218 219.78 663.24 215.596L662.583 213.708Z" fill="#1C1B1B"/>
<path d="M797.493 273.77C797.493 271.55 796.233 270.14 794.253 270.14C792.543 270.14 791.223 271.1 789.453 273.59L790.593 270.14L784.803 270.98V271.79C786.153 271.85 786.423 271.97 786.423 272.54C786.423 272.84 786.183 273.92 785.763 275.48L782.763 287.12C782.193 289.1 781.953 289.37 780.513 289.34V290.15H787.983V289.34C786.483 289.31 786.033 289.1 786.033 288.38C786.033 287.96 786.243 287.06 786.813 284.96C787.023 284.24 787.023 284.18 787.143 283.73C788.193 284.27 788.553 284.39 789.183 284.39C793.263 284.39 797.493 278.96 797.493 273.77ZM793.743 273.98C793.623 275.96 792.663 278.93 791.583 280.88C790.653 282.5 789.693 283.34 788.673 283.34C788.013 283.34 787.503 282.86 787.503 282.26C787.503 281.75 787.833 280.52 788.643 277.79C789.303 275.6 789.573 274.85 790.023 274.16C790.773 272.99 791.793 272.21 792.573 272.27C793.353 272.33 793.803 273.02 793.743 273.98ZM811.863 280.64L811.233 280.19C810.003 281.84 809.553 282.29 809.073 282.29C808.833 282.29 808.713 282.11 808.713 281.84C808.713 281.09 808.983 279.86 809.733 277.4L811.863 270.32L808.533 270.53L807.993 272.3C807.723 270.77 807.063 270.14 805.773 270.14C802.083 270.14 797.583 275.9 797.583 280.58C797.583 282.86 798.873 284.39 800.823 284.39C802.653 284.39 804.033 283.31 805.743 280.43C805.383 281.66 805.323 282.02 805.323 282.44C805.323 283.55 806.223 284.42 807.333 284.42C808.743 284.42 810.123 283.25 811.863 280.64ZM807.303 272.81C807.303 274.61 806.313 277.94 805.143 280.01C804.333 281.48 803.433 282.26 802.623 282.26C801.843 282.26 801.273 281.57 801.273 280.64C801.273 279.08 802.263 276.08 803.493 273.86C804.393 272.27 805.383 271.34 806.193 271.4C806.853 271.46 807.303 272 807.303 272.81ZM827.703 266.39C827.703 264.62 826.683 263.45 825.153 263.45C823.923 263.45 823.023 264.38 823.023 265.64C823.023 266.45 823.323 266.93 824.223 267.53C824.913 267.98 825.123 268.28 825.123 268.73C825.123 269.78 823.953 270.95 821.583 272.21L821.973 272.93C825.453 271.43 827.703 268.82 827.703 266.39ZM820.023 266.39C820.023 264.62 819.003 263.45 817.473 263.45C816.243 263.45 815.343 264.38 815.343 265.64C815.343 266.45 815.643 266.93 816.543 267.53C817.233 267.98 817.443 268.28 817.443 268.73C817.443 269.78 816.273 270.95 813.903 272.21L814.293 272.93C817.773 271.43 820.023 268.82 820.023 266.39Z" fill="#1C1B1B"/>
<path d="M743.493 241.77C743.493 239.55 742.233 238.14 740.253 238.14C738.543 238.14 737.223 239.1 735.453 241.59L736.593 238.14L730.803 238.98V239.79C732.153 239.85 732.423 239.97 732.423 240.54C732.423 240.84 732.183 241.92 731.763 243.48L728.763 255.12C728.193 257.1 727.953 257.37 726.513 257.34V258.15H733.983V257.34C732.483 257.31 732.033 257.1 732.033 256.38C732.033 255.96 732.243 255.06 732.813 252.96C733.023 252.24 733.023 252.18 733.143 251.73C734.193 252.27 734.553 252.39 735.183 252.39C739.263 252.39 743.493 246.96 743.493 241.77ZM739.743 241.98C739.623 243.96 738.663 246.93 737.583 248.88C736.653 250.5 735.693 251.34 734.673 251.34C734.013 251.34 733.503 250.86 733.503 250.26C733.503 249.75 733.833 248.52 734.643 245.79C735.303 243.6 735.573 242.85 736.023 242.16C736.773 240.99 737.793 240.21 738.573 240.27C739.353 240.33 739.803 241.02 739.743 241.98ZM757.863 248.64L757.233 248.19C756.003 249.84 755.553 250.29 755.073 250.29C754.833 250.29 754.713 250.11 754.713 249.84C754.713 249.09 754.983 247.86 755.733 245.4L757.863 238.32L754.533 238.53L753.993 240.3C753.723 238.77 753.063 238.14 751.773 238.14C748.083 238.14 743.583 243.9 743.583 248.58C743.583 250.86 744.873 252.39 746.823 252.39C748.653 252.39 750.033 251.31 751.743 248.43C751.383 249.66 751.323 250.02 751.323 250.44C751.323 251.55 752.223 252.42 753.333 252.42C754.743 252.42 756.123 251.25 757.863 248.64ZM753.303 240.81C753.303 242.61 752.313 245.94 751.143 248.01C750.333 249.48 749.433 250.26 748.623 250.26C747.843 250.26 747.273 249.57 747.273 248.64C747.273 247.08 748.263 244.08 749.493 241.86C750.393 240.27 751.383 239.34 752.193 239.4C752.853 239.46 753.303 240 753.303 240.81ZM766.787 234.39C766.787 232.62 765.767 231.45 764.237 231.45C763.007 231.45 762.107 232.38 762.107 233.64C762.107 234.45 762.407 234.93 763.307 235.53C763.997 235.98 764.207 236.28 764.207 236.73C764.207 237.78 763.037 238.95 760.667 240.21L761.057 240.93C764.537 239.43 766.787 236.82 766.787 234.39Z" fill="#1C1B1B"/>
<path d="M684.493 209.77C684.493 207.55 683.233 206.14 681.253 206.14C679.543 206.14 678.223 207.1 676.453 209.59L677.593 206.14L671.803 206.98V207.79C673.153 207.85 673.423 207.97 673.423 208.54C673.423 208.84 673.183 209.92 672.763 211.48L669.763 223.12C669.193 225.1 668.953 225.37 667.513 225.34V226.15H674.983V225.34C673.483 225.31 673.033 225.1 673.033 224.38C673.033 223.96 673.243 223.06 673.813 220.96C674.023 220.24 674.023 220.18 674.143 219.73C675.193 220.27 675.553 220.39 676.183 220.39C680.263 220.39 684.493 214.96 684.493 209.77ZM680.743 209.98C680.623 211.96 679.663 214.93 678.583 216.88C677.653 218.5 676.693 219.34 675.673 219.34C675.013 219.34 674.503 218.86 674.503 218.26C674.503 217.75 674.833 216.52 675.643 213.79C676.303 211.6 676.573 210.85 677.023 210.16C677.773 208.99 678.793 208.21 679.573 208.27C680.353 208.33 680.803 209.02 680.743 209.98ZM698.863 216.64L698.233 216.19C697.003 217.84 696.553 218.29 696.073 218.29C695.833 218.29 695.713 218.11 695.713 217.84C695.713 217.09 695.983 215.86 696.733 213.4L698.863 206.32L695.533 206.53L694.993 208.3C694.723 206.77 694.063 206.14 692.773 206.14C689.083 206.14 684.583 211.9 684.583 216.58C684.583 218.86 685.873 220.39 687.823 220.39C689.653 220.39 691.033 219.31 692.743 216.43C692.383 217.66 692.323 218.02 692.323 218.44C692.323 219.55 693.223 220.42 694.333 220.42C695.743 220.42 697.123 219.25 698.863 216.64ZM694.303 208.81C694.303 210.61 693.313 213.94 692.143 216.01C691.333 217.48 690.433 218.26 689.623 218.26C688.843 218.26 688.273 217.57 688.273 216.64C688.273 215.08 689.263 212.08 690.493 209.86C691.393 208.27 692.383 207.34 693.193 207.4C693.853 207.46 694.303 208 694.303 208.81Z" fill="#1C1B1B"/>
<path d="M715.5 565.72C714.9 565.72 714.39 565.51 713.97 565.09C713.55 564.67 713.34 564.16 713.34 563.56V537.82C713.34 537.22 713.55 536.71 713.97 536.29C714.39 535.87 714.9 535.66 715.5 535.66H724.5C725.1 535.66 725.61 535.87 726.03 536.29C726.45 536.71 726.66 537.22 726.66 537.82C726.66 538.42 726.45 538.93 726.03 539.35C725.61 539.77 725.1 539.98 724.5 539.98H717.66V548.08H723.6C724.2 548.08 724.71 548.29 725.13 548.71C725.55 549.13 725.76 549.64 725.76 550.24C725.76 550.84 725.55 551.35 725.13 551.77C724.71 552.19 724.2 552.4 723.6 552.4H717.66V563.56C717.66 564.16 717.45 564.67 717.03 565.09C716.61 565.51 716.1 565.72 715.5 565.72ZM731.716 565.9C731.116 565.9 730.606 565.69 730.186 565.27C729.766 564.85 729.556 564.34 729.556 563.74V537.64C729.556 537.04 729.766 536.53 730.186 536.11C730.606 535.69 731.116 535.48 731.716 535.48C732.316 535.48 732.826 535.69 733.246 536.11C733.666 536.53 733.876 537.04 733.876 537.64V563.74C733.876 564.34 733.666 564.85 733.246 565.27C732.826 565.69 732.316 565.9 731.716 565.9ZM750.985 548.98C751.585 548.98 752.095 549.19 752.515 549.61C752.935 550.03 753.145 550.54 753.145 551.14V558.34C753.145 559.39 752.95 560.38 752.56 561.31C752.17 562.21 751.63 563.005 750.94 563.695C750.25 564.385 749.44 564.925 748.51 565.315C747.61 565.705 746.635 565.9 745.585 565.9C744.535 565.9 743.545 565.705 742.615 565.315C741.715 564.925 740.92 564.385 740.23 563.695C739.57 563.005 739.03 562.21 738.61 561.31C738.22 560.38 738.025 559.39 738.025 558.34V543.04C738.025 542.2 738.16 541.39 738.43 540.61C738.7 539.8 739.075 539.08 739.555 538.45C740.065 537.79 740.665 537.235 741.355 536.785C742.045 536.305 742.81 535.96 743.65 535.75C744.46 535.54 745.285 535.465 746.125 535.525C746.965 535.555 747.76 535.735 748.51 536.065C749.26 536.365 749.95 536.785 750.58 537.325C751.21 537.865 751.735 538.51 752.155 539.26C752.455 539.77 752.515 540.31 752.335 540.88C752.185 541.45 751.855 541.9 751.345 542.23C750.835 542.53 750.295 542.605 749.725 542.455C749.155 542.275 748.72 541.93 748.42 541.42C748.03 540.79 747.49 540.34 746.8 540.07C746.14 539.77 745.465 539.725 744.775 539.935C744.055 540.115 743.47 540.505 743.02 541.105C742.57 541.675 742.345 542.32 742.345 543.04V558.34C742.345 559.24 742.66 560.005 743.29 560.635C743.95 561.265 744.715 561.58 745.585 561.58C746.485 561.58 747.25 561.265 747.88 560.635C748.51 560.005 748.825 559.24 748.825 558.34V553.3H746.485C745.885 553.3 745.375 553.09 744.955 552.67C744.535 552.25 744.325 551.74 744.325 551.14C744.325 550.54 744.535 550.03 744.955 549.61C745.375 549.19 745.885 548.98 746.485 548.98H750.985ZM756.48 563.29C756.48 562.57 756.735 561.955 757.245 561.445C757.755 560.935 758.37 560.68 759.09 560.68C759.81 560.68 760.425 560.935 760.935 561.445C761.445 561.955 761.7 562.57 761.7 563.29C761.7 564.01 761.445 564.625 760.935 565.135C760.425 565.645 759.81 565.9 759.09 565.9C758.37 565.9 757.755 565.645 757.245 565.135C756.735 564.625 756.48 564.01 756.48 563.29ZM765.767 537.82C765.767 537.22 765.977 536.71 766.397 536.29C766.817 535.87 767.327 535.66 767.927 535.66H773.327C774.377 535.66 775.352 535.855 776.252 536.245C777.182 536.635 777.992 537.175 778.682 537.865C779.372 538.555 779.912 539.365 780.302 540.295C780.692 541.195 780.887 542.17 780.887 543.22V545.74C780.887 546.79 780.692 547.78 780.302 548.71C779.912 549.61 779.372 550.405 778.682 551.095C777.992 551.785 777.182 552.325 776.252 552.715C775.352 553.105 774.377 553.3 773.327 553.3H770.087V563.74C770.087 564.34 769.877 564.85 769.457 565.27C769.037 565.69 768.527 565.9 767.927 565.9C767.327 565.9 766.817 565.69 766.397 565.27C765.977 564.85 765.767 564.34 765.767 563.74V537.82ZM776.567 543.22C776.567 542.32 776.252 541.555 775.622 540.925C774.992 540.295 774.227 539.98 773.327 539.98H770.087V548.98H773.327C774.227 548.98 774.992 548.665 775.622 548.035C776.252 547.405 776.567 546.64 776.567 545.74V543.22Z" fill="#1C1B1B"/>
<line x1="452.179" y1="515.426" x2="493.503" y2="519.955" stroke="#1C1B1B" stroke-width="2"/>
<path d="M501.177 520.884L491.024 521.945L491.495 517.65L501.177 520.884Z" fill="#1C1B1B"/>
<line x1="429.044" y1="499.571" x2="412.59" y2="462.17" stroke="#1C1B1B" stroke-width="2"/>
<path d="M408.682 453.501L414.574 461.622L410.687 463.332L408.682 453.501Z" fill="#1C1B1B"/>
<path d="M442.65 516.64L442.02 516.19C440.79 517.84 440.34 518.29 439.86 518.29C439.62 518.29 439.5 518.11 439.5 517.84C439.5 517.09 439.77 515.86 440.52 513.4L442.65 506.32L439.32 506.53L438.78 508.3C438.51 506.77 437.85 506.14 436.56 506.14C432.87 506.14 428.37 511.9 428.37 516.58C428.37 518.86 429.66 520.39 431.61 520.39C433.44 520.39 434.82 519.31 436.53 516.43C436.17 517.66 436.11 518.02 436.11 518.44C436.11 519.55 437.01 520.42 438.12 520.42C439.53 520.42 440.91 519.25 442.65 516.64ZM438.09 508.81C438.09 510.61 437.1 513.94 435.93 516.01C435.12 517.48 434.22 518.26 433.41 518.26C432.63 518.26 432.06 517.57 432.06 516.64C432.06 515.08 433.05 512.08 434.28 509.86C435.18 508.27 436.17 507.34 436.98 507.4C437.64 507.46 438.09 508 438.09 508.81Z" fill="#1C1B1B"/>
</svg>
