<svg width="840" height="1125" viewBox="0 0 840 1125" fill="none" xmlns="http://www.w3.org/2000/svg">
<g clip-path="url(#clip0)">
<path d="M632.978 1069.46L632.56 1068.74C630.09 1073.95 629.672 1074.18 623.136 1074.14H615.954L616.98 1073.15C618.994 1071.29 619.26 1070.79 620.21 1066.84C621.312 1062.13 621.844 1060.04 622.338 1058.56C622.908 1056.96 623.896 1056.24 625.492 1056.24C625.986 1056.24 626.328 1056.24 627.734 1056.32L629.216 1054.19C628.456 1054.11 628.076 1054.07 627.544 1054.07C626.822 1054.07 626.176 1054.15 625.53 1054.3C624.504 1054.57 622.68 1055.86 621.16 1057.38C619.298 1059.28 618.652 1061.03 617.17 1068.1C616.144 1072.96 615.156 1074.37 612.762 1074.37C612.458 1074.37 612.002 1074.37 611.584 1074.33C611.052 1074.86 610.824 1075.13 610.254 1075.85L613.978 1075.73L619.792 1075.92L627.278 1076.23C629.254 1076.23 630.09 1075.81 630.774 1074.4C631.23 1073.53 632.408 1070.91 632.978 1069.46ZM649.701 1072.24V1071.14C648.979 1071.59 646.471 1073.38 645.863 1073.38C645.483 1073.38 645.407 1072.88 645.407 1072.54C645.407 1071.14 647.117 1064.18 647.573 1062.32C647.725 1062.09 648.485 1061.14 648.675 1060.95C647.383 1060.61 645.711 1060.38 644.191 1060.38C641.645 1060.38 641.379 1060.65 639.631 1061.86C638.605 1062.59 637.655 1063 636.933 1064.14C635.033 1067.11 634.311 1070.95 634.311 1073.34C634.311 1074.48 634.615 1076.53 635.945 1076.53C637.351 1076.53 640.771 1073.68 642.747 1072.31L642.481 1074.02C642.253 1075.32 642.025 1076.49 642.937 1076.49C643.887 1076.49 648.599 1073.04 649.701 1072.24ZM642.975 1070.83C641.835 1071.67 639.327 1073.72 638.339 1073.72C637.351 1073.72 637.161 1072.69 637.161 1071.78C637.161 1069.35 637.921 1066.58 638.909 1064.64C639.555 1063.31 640.163 1062.21 641.873 1062.21C642.823 1062.21 644.001 1062.47 644.951 1062.66L642.975 1070.83ZM673.172 1070.91L672.868 1070.03C670.436 1073.11 670.17 1073.38 669.144 1073.38C668.954 1073.38 668.688 1073.34 668.346 1073.26L661.544 1072.16L666.218 1067.83L669.6 1064.68L671.5 1062.89C672.602 1061.22 673.058 1059.93 673.058 1058.25C673.058 1055.82 671.5 1054.26 669.144 1054.26C667.206 1054.26 665.192 1054.99 663.634 1056.28C662.266 1057.34 661.544 1058.71 661.544 1060.27C661.544 1060.57 661.582 1060.76 661.658 1061.18L664.356 1061.48C664.014 1060.46 663.9 1059.93 663.9 1059.24C663.9 1057.15 665.154 1055.78 667.054 1055.78C668.84 1055.78 670.132 1057.34 670.132 1059.51C670.132 1060.69 669.752 1062.02 669.144 1062.97C668.346 1064.26 667.396 1065.28 664.47 1068.02C659.568 1072.62 658.998 1073.19 657.136 1075.54L657.288 1076.65C658.922 1074.86 659.378 1074.56 660.328 1074.56C660.708 1074.56 661.202 1074.63 661.81 1074.78C664.622 1075.43 668.346 1076.11 668.954 1076.11C669.258 1076.11 669.448 1076.08 669.828 1075.92L673.172 1070.91ZM692.644 1054.83C690.706 1054.99 688.578 1055.02 685.956 1055.02C681.814 1055.02 681.776 1055.02 681.586 1052.78H681.016L680.636 1053.77C679.914 1055.75 679.876 1055.78 679.382 1057.3L679.496 1057.53C680.788 1057.61 681.396 1057.65 682.384 1057.65C684.284 1057.65 686.716 1057.53 689.832 1057.3C682.46 1066.39 680.902 1068.51 678.622 1072.62C678.394 1073.42 678.356 1073.83 678.356 1074.56C678.356 1075.13 678.394 1075.62 678.508 1076.68L681.928 1075.62C681.738 1074.4 681.662 1073.83 681.662 1073.11C681.662 1070 682.688 1068.21 689.642 1059.09C691.276 1056.92 691.466 1056.62 692.644 1054.83ZM703.338 1071.97V1070.87C701.932 1072.01 699.234 1074.33 697.296 1074.33C695.168 1074.33 694.978 1072.05 695.016 1070.57C695.89 1070.15 699.614 1067.34 700.374 1066.77C701.78 1065.63 702.806 1064.41 702.806 1062.62C702.806 1061.37 702.046 1060.42 700.64 1060.42C699.272 1060.42 698.094 1061.1 696.726 1062.17C693.382 1064.75 692.204 1069.01 692.204 1072.58C692.204 1074.9 693.154 1076.53 695.472 1076.53C698.398 1076.53 701.78 1073.53 703.338 1071.97ZM699.994 1063.69C699.994 1066.42 696.878 1067.98 695.054 1069.39C695.206 1067.49 696.65 1062.09 698.816 1062.09C699.652 1062.09 699.994 1062.85 699.994 1063.69ZM702.426 1058.22C701.97 1056.51 701.438 1054.11 701.514 1051.03L698.626 1051.87C700.07 1054.83 700.412 1055.67 701.4 1058.44L702.426 1058.22ZM728.07 1072.24V1071.36C727.69 1071.55 727.272 1071.82 726.778 1072.16C725.41 1073.04 724.764 1073.34 724.308 1073.34C723.89 1073.34 723.624 1072.96 723.624 1072.31C723.624 1071.48 724.118 1069.31 724.878 1066.65C726.018 1062.74 726.322 1061.52 726.322 1060.95C726.322 1060.57 726.094 1060.38 725.714 1060.38C725.03 1060.38 722.674 1061.6 718.038 1064.33C718.152 1063.92 718.19 1063.61 718.228 1063.46C718.684 1061.56 718.798 1061.03 718.798 1060.8C718.798 1060.53 718.608 1060.38 718.304 1060.38C717.734 1060.38 715.758 1061.45 711.958 1063.88L710.742 1064.64C711.426 1061.86 711.578 1061.18 711.578 1060.91C711.578 1060.61 711.35 1060.38 711.008 1060.38C710.552 1060.38 707.55 1062.02 705.08 1063.57L704.814 1064.64C706.904 1063.61 707.208 1063.5 707.626 1063.5C707.968 1063.5 708.196 1063.8 708.196 1064.22C708.196 1064.83 706.828 1070.45 705.232 1076.38L707.93 1075.35L710.362 1066.12C712.908 1064.41 714.466 1063.5 714.96 1063.5C715.264 1063.5 715.454 1063.84 715.454 1064.33C715.454 1065.47 714.01 1071.25 712.414 1076.38L715.302 1075.35L717.658 1065.85C719.862 1064.45 721.914 1063.31 722.37 1063.31C722.674 1063.31 722.864 1063.57 722.864 1064.03C722.864 1064.87 722.522 1066.42 721.496 1070.49C720.888 1072.85 720.698 1073.8 720.698 1074.67C720.698 1075.47 720.926 1075.89 721.61 1076.38C723.852 1075.28 725.752 1074.06 728.07 1072.24ZM739.817 1071.97V1070.87C738.411 1072.01 735.713 1074.33 733.775 1074.33C731.647 1074.33 731.457 1072.05 731.495 1070.57C732.369 1070.15 736.093 1067.34 736.853 1066.77C738.259 1065.63 739.285 1064.41 739.285 1062.62C739.285 1061.37 738.525 1060.42 737.119 1060.42C735.751 1060.42 734.573 1061.1 733.205 1062.17C729.861 1064.75 728.683 1069.01 728.683 1072.58C728.683 1074.9 729.633 1076.53 731.951 1076.53C734.877 1076.53 738.259 1073.53 739.817 1071.97ZM736.473 1063.69C736.473 1066.42 733.357 1067.98 731.533 1069.39C731.685 1067.49 733.129 1062.09 735.295 1062.09C736.131 1062.09 736.473 1062.85 736.473 1063.69ZM777.952 1079.91L776.09 1077.6C774.874 1079.84 773.81 1080.71 772.328 1080.71C770.542 1080.71 768.832 1078.81 767.274 1075.05C766.286 1072.69 765.108 1069.16 763.55 1064.22C765.716 1063.54 766.59 1063.12 767.768 1062.36C769.554 1061.14 770.58 1059.39 770.58 1057.57C770.58 1055.21 768.68 1053.92 765.222 1053.92L763.018 1054L763.322 1052.78L759.864 1054.42C753.632 1055.48 750.326 1058.37 750.326 1062.81C750.326 1063.8 750.44 1064.45 750.858 1065.85L754.05 1064.22C753.746 1062.93 753.632 1062.28 753.632 1061.41C753.632 1059.58 754.202 1058.14 755.38 1057.04C756.444 1056.09 757.508 1055.67 759.94 1055.37L759.598 1056.73L758.952 1059.39L757.052 1066.92C755.456 1073.34 754.43 1074.33 749.49 1074.29L748.008 1075.96L750.25 1076C752.226 1076 755.646 1075.92 756.786 1075.85L759.598 1074.4L754.582 1074.29C758.876 1070 759.104 1069.65 760.32 1064.83L760.396 1064.79C760.814 1064.75 761.042 1065.09 761.27 1066.04C762.714 1072.39 763.968 1076 765.526 1078.32C767.16 1080.75 769.402 1081.93 772.404 1081.93C774.532 1081.93 775.824 1081.47 777.952 1079.91ZM767.274 1058.03C767.274 1059.93 766.248 1061.75 764.652 1062.74C763.512 1063.42 762.6 1063.69 760.548 1063.95L762.752 1055.06H763.93C766.286 1055.06 767.274 1055.94 767.274 1058.03ZM783.866 1071.97V1070.87C782.46 1072.01 779.762 1074.33 777.824 1074.33C775.696 1074.33 775.506 1072.05 775.544 1070.57C776.418 1070.15 780.142 1067.34 780.902 1066.77C782.308 1065.63 783.334 1064.41 783.334 1062.62C783.334 1061.37 782.574 1060.42 781.168 1060.42C779.8 1060.42 778.622 1061.1 777.254 1062.17C773.91 1064.75 772.732 1069.01 772.732 1072.58C772.732 1074.9 773.682 1076.53 776 1076.53C778.926 1076.53 782.308 1073.53 783.866 1071.97ZM780.522 1063.69C780.522 1066.42 777.406 1067.98 775.582 1069.39C775.734 1067.49 777.178 1062.09 779.344 1062.09C780.18 1062.09 780.522 1062.85 780.522 1063.69ZM800.542 1060.42L796.134 1060.5C793.816 1060.53 793.17 1060.65 792.03 1061.33C790.206 1062.47 788.914 1063.54 788.116 1064.56C786.976 1066.04 785.608 1070.64 785.608 1072.96C785.608 1073.91 785.836 1074.59 786.444 1075.43L782.074 1079.19C780.174 1080.86 779.3 1082.12 779.3 1083.18C779.3 1084.59 780.972 1085.39 783.86 1085.39C787.356 1085.39 790.092 1084.4 792.638 1082.19C794.272 1080.79 794.652 1079.99 795.45 1076.23L797.35 1067.68C797.502 1066.84 797.692 1066.12 797.844 1065.51L798.414 1063.38C798.49 1063.04 798.566 1062.78 798.604 1062.55C799.288 1062.36 799.326 1062.36 800.542 1060.42ZM792.372 1078.09C791.878 1080.37 791.536 1081.24 790.852 1081.97C790.016 1082.92 788.458 1083.41 786.216 1083.41C783.746 1083.41 782.416 1082.73 782.416 1081.51C782.416 1079.95 783.442 1079 794.006 1070.91L792.372 1078.09ZM798.034 1062.51C797.844 1062.66 797.616 1062.85 797.426 1062.97C796.21 1063.84 795.944 1064.18 795.602 1065.09L794.348 1069.54C793.588 1070.03 792.676 1070.72 789.484 1073.11C788.8 1072.43 788.534 1071.82 788.534 1070.91C788.534 1069.62 789.446 1066.31 790.244 1064.49C791.004 1062.93 791.802 1062.55 794.576 1062.55C794.842 1062.55 795.298 1062.55 795.792 1062.51H796.818C797.236 1062.51 797.616 1062.51 798.034 1062.51ZM809.183 1072.58L809.335 1071.44C807.473 1072.58 805.611 1073.53 805.269 1073.53C804.851 1073.53 804.547 1073.07 804.547 1072.47C804.547 1071.1 805.003 1069.65 805.345 1068.21L806.523 1063.38C806.713 1062.59 807.017 1061.37 807.017 1060.91C807.017 1060.61 806.903 1060.42 806.561 1060.42C805.687 1060.42 801.735 1063 800.595 1063.76L800.557 1064.87C801.431 1064.37 802.799 1063.46 803.331 1063.46C803.749 1063.46 803.787 1063.88 803.787 1064.22C803.787 1065.06 802.951 1067.87 802.533 1069.62C802.115 1071.36 801.431 1073.15 801.431 1074.86C801.431 1075.85 801.811 1076.46 802.419 1076.46C803.065 1076.46 803.749 1076.11 805.953 1074.67C806.561 1074.25 806.865 1074.02 809.183 1072.58ZM809.449 1054.95C808.765 1053.85 808.727 1053.73 808.347 1052.86C808.309 1052.71 808.233 1052.52 808.157 1052.36C807.929 1052.55 807.777 1052.67 807.625 1052.78C806.599 1053.66 806.523 1053.69 805.535 1054.38C805.839 1055.29 806.105 1055.75 806.979 1057.04L808.233 1055.9C808.461 1055.75 808.575 1055.63 809.449 1054.95ZM823.669 1063.88C823.669 1061.83 822.263 1060.38 820.249 1060.38C818.729 1060.38 816.297 1061.48 814.055 1063.16C811.623 1064.98 809.913 1068.93 809.913 1072.69C809.913 1075.01 811.205 1076.49 813.219 1076.49C814.283 1076.49 815.347 1076.11 817.095 1075.2C818.995 1074.14 820.249 1073.19 820.933 1072.28C822.453 1070.22 823.669 1066.5 823.669 1063.88ZM820.743 1065.93C820.743 1067.53 820.211 1069.5 819.261 1071.36C818.197 1073.53 816.829 1074.71 815.385 1074.71C813.827 1074.71 812.839 1073.3 812.839 1071.14C812.839 1066.73 815.613 1062.17 818.273 1062.17C819.793 1062.17 820.743 1063.65 820.743 1065.93ZM841.582 1071.14C837.782 1073.3 837.63 1073.38 837.25 1073.38C836.87 1073.38 836.642 1072.96 836.642 1072.35C836.642 1071.55 836.908 1070.3 837.63 1067.68C839.416 1061.29 839.416 1061.29 839.416 1061.03C839.416 1060.61 839.15 1060.38 838.656 1060.38C838.086 1060.38 837.25 1060.72 835.882 1061.6L830.676 1064.83C831.018 1063.57 831.588 1061.18 831.588 1060.88C831.588 1060.61 831.36 1060.38 831.094 1060.38C830.676 1060.38 827.94 1061.79 825.128 1063.46L824.9 1064.45C827.332 1063.35 827.484 1063.31 827.826 1063.31C828.092 1063.31 828.282 1063.54 828.282 1063.84C828.282 1064.64 827.56 1067.79 826.61 1071.25L825.736 1074.33L825.204 1076.38L828.054 1075.28L830.296 1066.35C835.046 1063.35 835.16 1063.31 835.692 1063.31C835.958 1063.31 836.11 1063.5 836.11 1063.8C836.11 1064.37 835.806 1065.82 834.704 1070.15C833.868 1073.53 833.716 1074.18 833.716 1074.9C833.716 1075.43 833.868 1075.92 834.286 1076.61C836.034 1075.81 838.656 1074.18 841.316 1072.2L841.582 1071.14Z" fill="#1C1B1B"/>
<path d="M635.39 1052.35C635.097 1052.35 634.848 1052.25 634.642 1052.04C634.437 1051.84 634.334 1051.59 634.334 1051.3V1038.62C634.334 1038.33 634.437 1038.08 634.642 1037.88C634.848 1037.67 635.097 1037.57 635.39 1037.57C635.684 1037.57 635.933 1037.67 636.138 1037.88C636.344 1038.08 636.446 1038.33 636.446 1038.62V1050.24H639.79C640.084 1050.24 640.333 1050.34 640.538 1050.55C640.744 1050.75 640.846 1051 640.846 1051.3C640.846 1051.59 640.744 1051.84 640.538 1052.04C640.333 1052.25 640.084 1052.35 639.79 1052.35H635.39ZM650.123 1051.1C650.196 1051.39 650.16 1051.66 650.013 1051.91C649.881 1052.16 649.676 1052.32 649.397 1052.4C649.104 1052.47 648.832 1052.43 648.583 1052.29C648.334 1052.15 648.172 1051.95 648.099 1051.67C648.04 1051.49 647.982 1051.28 647.923 1051.03C647.864 1050.83 647.791 1050.58 647.703 1050.31C647.63 1050.01 647.549 1049.7 647.461 1049.36H643.721C643.618 1049.7 643.53 1050.01 643.457 1050.31C643.384 1050.58 643.318 1050.83 643.259 1051.03C643.2 1051.28 643.142 1051.49 643.083 1051.67C643.01 1051.95 642.848 1052.15 642.599 1052.29C642.35 1052.43 642.078 1052.47 641.785 1052.4C641.506 1052.32 641.294 1052.16 641.147 1051.91C641.015 1051.66 640.986 1051.39 641.059 1051.1L644.579 1038.34C644.638 1038.1 644.755 1037.92 644.931 1037.79C645.122 1037.64 645.342 1037.57 645.591 1037.57C645.84 1037.57 646.053 1037.64 646.229 1037.79C646.42 1037.92 646.544 1038.1 646.603 1038.34L650.123 1051.1ZM646.867 1047.25C646.662 1046.49 646.449 1045.7 646.229 1044.89C646.009 1044.09 645.796 1043.32 645.591 1042.61C645.386 1043.32 645.173 1044.09 644.953 1044.89C644.733 1045.7 644.52 1046.49 644.315 1047.25H646.867ZM661.607 1037.66C661.901 1037.66 662.15 1037.76 662.355 1037.96C662.561 1038.17 662.663 1038.42 662.663 1038.71C662.663 1039.01 662.561 1039.25 662.355 1039.46C662.15 1039.67 661.901 1039.77 661.607 1039.77H659.803V1051.38C659.803 1051.68 659.701 1051.93 659.495 1052.13C659.29 1052.34 659.041 1052.44 658.747 1052.44C658.454 1052.44 658.205 1052.34 657.999 1052.13C657.794 1051.93 657.691 1051.68 657.691 1051.38V1039.77H655.887C655.594 1039.77 655.345 1039.67 655.139 1039.46C654.934 1039.25 654.831 1039.01 654.831 1038.71C654.831 1038.42 654.934 1038.17 655.139 1037.96C655.345 1037.76 655.594 1037.66 655.887 1037.66H661.607ZM671.461 1042.58C671.461 1043.3 671.277 1043.96 670.911 1044.54C670.559 1045.11 670.082 1045.55 669.481 1045.86L671.395 1051.01C671.512 1051.29 671.505 1051.56 671.373 1051.82C671.255 1052.09 671.057 1052.27 670.779 1052.37C670.5 1052.48 670.229 1052.47 669.965 1052.35C669.715 1052.23 669.532 1052.04 669.415 1051.76L667.369 1046.28H666.181V1051.38C666.181 1051.68 666.078 1051.93 665.873 1052.13C665.667 1052.34 665.418 1052.44 665.125 1052.44C664.831 1052.44 664.582 1052.34 664.377 1052.13C664.171 1051.93 664.069 1051.68 664.069 1051.38V1038.71C664.069 1038.42 664.171 1038.17 664.377 1037.96C664.582 1037.76 664.831 1037.66 665.125 1037.66H667.765C668.278 1037.66 668.755 1037.75 669.195 1037.94C669.649 1038.13 670.045 1038.4 670.383 1038.73C670.72 1039.07 670.984 1039.47 671.175 1039.92C671.365 1040.36 671.461 1040.84 671.461 1041.35V1042.58ZM666.181 1044.17H667.765C668.205 1044.17 668.579 1044.01 668.887 1043.71C669.195 1043.4 669.349 1043.02 669.349 1042.58V1041.35C669.349 1040.91 669.195 1040.54 668.887 1040.23C668.579 1039.92 668.205 1039.77 667.765 1039.77H666.181V1044.17ZM681.361 1051.1C681.434 1051.39 681.398 1051.66 681.251 1051.91C681.119 1052.16 680.914 1052.32 680.635 1052.4C680.342 1052.47 680.07 1052.43 679.821 1052.29C679.572 1052.15 679.41 1051.95 679.337 1051.67C679.278 1051.49 679.22 1051.28 679.161 1051.03C679.102 1050.83 679.029 1050.58 678.941 1050.31C678.868 1050.01 678.787 1049.7 678.699 1049.36H674.959C674.856 1049.7 674.768 1050.01 674.695 1050.31C674.622 1050.58 674.556 1050.83 674.497 1051.03C674.438 1051.28 674.38 1051.49 674.321 1051.67C674.248 1051.95 674.086 1052.15 673.837 1052.29C673.588 1052.43 673.316 1052.47 673.023 1052.4C672.744 1052.32 672.532 1052.16 672.385 1051.91C672.253 1051.66 672.224 1051.39 672.297 1051.1L675.817 1038.34C675.876 1038.1 675.993 1037.92 676.169 1037.79C676.36 1037.64 676.58 1037.57 676.829 1037.57C677.078 1037.57 677.291 1037.64 677.467 1037.79C677.658 1037.92 677.782 1038.1 677.841 1038.34L681.361 1051.1ZM678.105 1047.25C677.9 1046.49 677.687 1045.7 677.467 1044.89C677.247 1044.09 677.034 1043.32 676.829 1042.61C676.624 1043.32 676.411 1044.09 676.191 1044.89C675.971 1045.7 675.758 1046.49 675.553 1047.25H678.105ZM690.175 1052.42C689.926 1052.48 689.691 1052.45 689.471 1052.33C689.251 1052.23 689.09 1052.07 688.987 1051.85C688.547 1050.91 688.085 1049.95 687.601 1048.96C687.191 1048.13 686.736 1047.2 686.237 1046.19C685.753 1045.18 685.284 1044.2 684.829 1043.24V1051.38C684.829 1051.68 684.727 1051.93 684.521 1052.13C684.316 1052.34 684.067 1052.44 683.773 1052.44C683.48 1052.44 683.231 1052.34 683.025 1052.13C682.82 1051.93 682.717 1051.68 682.717 1051.38V1038.62C682.717 1038.37 682.791 1038.15 682.937 1037.96C683.084 1037.77 683.282 1037.65 683.531 1037.59C683.781 1037.53 684.008 1037.56 684.213 1037.68C684.433 1037.78 684.602 1037.94 684.719 1038.16C685.159 1039.1 685.621 1040.06 686.105 1041.04C686.516 1041.88 686.963 1042.8 687.447 1043.82C687.931 1044.83 688.408 1045.81 688.877 1046.76V1038.62C688.877 1038.33 688.98 1038.08 689.185 1037.88C689.391 1037.67 689.64 1037.57 689.933 1037.57C690.227 1037.57 690.476 1037.67 690.681 1037.88C690.887 1038.08 690.989 1038.33 690.989 1038.62V1051.38C690.989 1051.63 690.909 1051.85 690.747 1052.04C690.601 1052.23 690.41 1052.36 690.175 1052.42ZM697.226 1049.98C697.431 1049.83 697.585 1049.65 697.688 1049.45C697.79 1049.24 697.856 1049.02 697.886 1048.77C697.93 1048.27 697.776 1047.83 697.424 1047.45L693.904 1043.84C693.522 1043.46 693.244 1043.02 693.068 1042.52C692.892 1042.02 692.826 1041.51 692.87 1040.98C692.914 1040.45 693.06 1039.96 693.31 1039.5C693.559 1039.03 693.896 1038.64 694.322 1038.32C694.747 1037.99 695.216 1037.77 695.73 1037.66C696.258 1037.54 696.778 1037.53 697.292 1037.63C697.805 1037.75 698.274 1037.96 698.7 1038.27C699.14 1038.57 699.492 1038.95 699.756 1039.42C699.902 1039.67 699.932 1039.93 699.844 1040.21C699.77 1040.49 699.609 1040.71 699.36 1040.87C699.11 1041.01 698.846 1041.05 698.568 1040.98C698.289 1040.89 698.076 1040.72 697.93 1040.47C697.68 1040.08 697.328 1039.82 696.874 1039.7C696.404 1039.61 695.979 1039.72 695.598 1040.01C695.216 1040.29 695.011 1040.67 694.982 1041.15C694.938 1041.62 695.084 1042.03 695.422 1042.36L698.92 1045.97C699.301 1046.37 699.587 1046.82 699.778 1047.34C699.968 1047.85 700.042 1048.38 699.998 1048.92C699.954 1049.48 699.8 1049.99 699.536 1050.46C699.272 1050.93 698.927 1051.33 698.502 1051.67C698.062 1052.01 697.578 1052.23 697.05 1052.35C696.522 1052.47 695.986 1052.48 695.444 1052.37C694.901 1052.26 694.41 1052.04 693.97 1051.74C693.53 1051.41 693.178 1051.02 692.914 1050.55C692.752 1050.3 692.708 1050.03 692.782 1049.76C692.87 1049.46 693.038 1049.24 693.288 1049.1C693.537 1048.95 693.801 1048.92 694.08 1049.01C694.358 1049.08 694.578 1049.24 694.74 1049.49C694.989 1049.92 695.363 1050.19 695.862 1050.31C696.375 1050.39 696.83 1050.28 697.226 1049.98ZM702.744 1052.35C702.451 1052.35 702.201 1052.25 701.996 1052.04C701.791 1051.84 701.688 1051.59 701.688 1051.3V1038.71C701.688 1038.42 701.791 1038.17 701.996 1037.96C702.201 1037.76 702.451 1037.66 702.744 1037.66H707.144C707.437 1037.66 707.687 1037.76 707.892 1037.96C708.097 1038.17 708.2 1038.42 708.2 1038.71C708.2 1039.01 708.097 1039.25 707.892 1039.46C707.687 1039.67 707.437 1039.77 707.144 1039.77H703.8V1043.73H706.704C706.997 1043.73 707.247 1043.83 707.452 1044.04C707.657 1044.24 707.76 1044.49 707.76 1044.78C707.76 1045.08 707.657 1045.33 707.452 1045.53C707.247 1045.74 706.997 1045.84 706.704 1045.84H703.8V1051.3C703.8 1051.59 703.697 1051.84 703.492 1052.04C703.287 1052.25 703.037 1052.35 702.744 1052.35ZM713.048 1052.44C712.534 1052.44 712.05 1052.34 711.596 1052.15C711.156 1051.96 710.767 1051.7 710.43 1051.36C710.092 1051.02 709.828 1050.64 709.638 1050.2C709.447 1049.74 709.352 1049.26 709.352 1048.74V1041.26C709.352 1040.75 709.447 1040.27 709.638 1039.83C709.828 1039.38 710.092 1038.98 710.43 1038.65C710.767 1038.31 711.156 1038.04 711.596 1037.85C712.05 1037.66 712.534 1037.57 713.048 1037.57C713.561 1037.57 714.038 1037.66 714.478 1037.85C714.932 1038.04 715.328 1038.31 715.666 1038.65C716.003 1038.98 716.267 1039.38 716.458 1039.83C716.648 1040.27 716.744 1040.75 716.744 1041.26V1048.74C716.744 1049.26 716.648 1049.74 716.458 1050.2C716.267 1050.64 716.003 1051.02 715.666 1051.36C715.328 1051.7 714.932 1051.96 714.478 1052.15C714.038 1052.34 713.561 1052.44 713.048 1052.44ZM713.048 1039.68C712.608 1039.68 712.234 1039.83 711.926 1040.14C711.618 1040.45 711.464 1040.82 711.464 1041.26V1048.74C711.464 1049.18 711.618 1049.56 711.926 1049.87C712.234 1050.17 712.608 1050.33 713.048 1050.33C713.488 1050.33 713.862 1050.17 714.17 1049.87C714.478 1049.56 714.632 1049.18 714.632 1048.74V1041.26C714.632 1040.82 714.478 1040.45 714.17 1040.14C713.862 1039.83 713.488 1039.68 713.048 1039.68ZM725.464 1052.31C725.068 1052.21 724.702 1052.04 724.364 1051.82C724.027 1051.59 723.734 1051.32 723.484 1051.01C723.25 1050.69 723.066 1050.34 722.934 1049.95C722.802 1049.57 722.736 1049.17 722.736 1048.74V1041.26C722.736 1040.85 722.802 1040.46 722.934 1040.08C723.066 1039.68 723.25 1039.33 723.484 1039.02C723.734 1038.7 724.027 1038.43 724.364 1038.21C724.702 1037.97 725.068 1037.8 725.464 1037.7C726.286 1037.48 727.078 1037.53 727.84 1037.85C728.603 1038.16 729.197 1038.68 729.622 1039.42C729.784 1039.67 729.82 1039.93 729.732 1040.21C729.659 1040.49 729.498 1040.71 729.248 1040.87C728.999 1041.01 728.735 1041.05 728.456 1040.98C728.178 1040.89 727.958 1040.72 727.796 1040.47C727.62 1040.16 727.364 1039.94 727.026 1039.81C726.704 1039.67 726.366 1039.64 726.014 1039.75C725.677 1039.83 725.398 1040.02 725.178 1040.32C724.958 1040.6 724.848 1040.91 724.848 1041.26V1048.74C724.848 1049.11 724.958 1049.43 725.178 1049.71C725.398 1049.99 725.677 1050.18 726.014 1050.28C726.366 1050.37 726.704 1050.35 727.026 1050.22C727.364 1050.07 727.62 1049.84 727.796 1049.54C727.958 1049.29 728.178 1049.13 728.456 1049.05C728.735 1048.96 728.999 1048.99 729.248 1049.14C729.498 1049.3 729.659 1049.52 729.732 1049.8C729.82 1050.08 729.784 1050.34 729.622 1050.59C729.197 1051.33 728.603 1051.85 727.84 1052.15C727.078 1052.48 726.286 1052.53 725.464 1052.31ZM734.897 1052.44C734.384 1052.44 733.9 1052.34 733.445 1052.15C733.005 1051.96 732.617 1051.7 732.279 1051.36C731.942 1051.02 731.678 1050.64 731.487 1050.2C731.297 1049.74 731.201 1049.26 731.201 1048.74V1041.26C731.201 1040.75 731.297 1040.27 731.487 1039.83C731.678 1039.38 731.942 1038.98 732.279 1038.65C732.617 1038.31 733.005 1038.04 733.445 1037.85C733.9 1037.66 734.384 1037.57 734.897 1037.57C735.411 1037.57 735.887 1037.66 736.327 1037.85C736.782 1038.04 737.178 1038.31 737.515 1038.65C737.853 1038.98 738.117 1039.38 738.307 1039.83C738.498 1040.27 738.593 1040.75 738.593 1041.26V1048.74C738.593 1049.26 738.498 1049.74 738.307 1050.2C738.117 1050.64 737.853 1051.02 737.515 1051.36C737.178 1051.7 736.782 1051.96 736.327 1052.15C735.887 1052.34 735.411 1052.44 734.897 1052.44ZM734.897 1039.68C734.457 1039.68 734.083 1039.83 733.775 1040.14C733.467 1040.45 733.313 1040.82 733.313 1041.26V1048.74C733.313 1049.18 733.467 1049.56 733.775 1049.87C734.083 1050.17 734.457 1050.33 734.897 1050.33C735.337 1050.33 735.711 1050.17 736.019 1049.87C736.327 1049.56 736.481 1049.18 736.481 1048.74V1041.26C736.481 1040.82 736.327 1040.45 736.019 1040.14C735.711 1039.83 735.337 1039.68 734.897 1039.68ZM744.314 1037.66C744.827 1037.66 745.304 1037.75 745.744 1037.94C746.198 1038.13 746.594 1038.4 746.932 1038.73C747.269 1039.07 747.533 1039.47 747.724 1039.92C747.914 1040.36 748.01 1040.84 748.01 1041.35V1048.66C748.01 1049.17 747.914 1049.65 747.724 1050.11C747.533 1050.55 747.269 1050.94 746.932 1051.27C746.594 1051.61 746.198 1051.88 745.744 1052.07C745.304 1052.26 744.827 1052.35 744.314 1052.35H741.674C741.38 1052.35 741.131 1052.25 740.926 1052.04C740.72 1051.84 740.618 1051.59 740.618 1051.3V1038.71C740.618 1038.42 740.72 1038.17 740.926 1037.96C741.131 1037.76 741.38 1037.66 741.674 1037.66H744.314ZM745.898 1041.35C745.898 1040.91 745.744 1040.54 745.436 1040.23C745.128 1039.92 744.754 1039.77 744.314 1039.77H742.73V1050.24H744.314C744.754 1050.24 745.128 1050.09 745.436 1049.78C745.744 1049.47 745.898 1049.1 745.898 1048.66V1041.35ZM750.028 1038.71C750.028 1038.42 750.13 1038.17 750.336 1037.96C750.541 1037.76 750.79 1037.66 751.084 1037.66H755.484C755.777 1037.66 756.026 1037.76 756.232 1037.96C756.437 1038.17 756.54 1038.42 756.54 1038.71C756.54 1039.01 756.437 1039.25 756.232 1039.46C756.026 1039.67 755.777 1039.77 755.484 1039.77H752.14V1043.73H755.044C755.337 1043.73 755.586 1043.83 755.792 1044.04C755.997 1044.24 756.1 1044.49 756.1 1044.78C756.1 1045.08 755.997 1045.33 755.792 1045.53C755.586 1045.74 755.337 1045.84 755.044 1045.84H752.14V1050.24H755.484C755.777 1050.24 756.026 1050.34 756.232 1050.55C756.437 1050.75 756.54 1051 756.54 1051.3C756.54 1051.59 756.437 1051.84 756.232 1052.04C756.026 1052.25 755.777 1052.35 755.484 1052.35H751.084C750.79 1052.35 750.541 1052.25 750.336 1052.04C750.13 1051.84 750.028 1051.59 750.028 1051.3V1038.71ZM766.298 1049.98C766.503 1049.83 766.657 1049.65 766.76 1049.45C766.862 1049.24 766.928 1049.02 766.958 1048.77C767.002 1048.27 766.848 1047.83 766.496 1047.45L762.976 1043.84C762.594 1043.46 762.316 1043.02 762.14 1042.52C761.964 1042.02 761.898 1041.51 761.942 1040.98C761.986 1040.45 762.132 1039.96 762.382 1039.5C762.631 1039.03 762.968 1038.64 763.394 1038.32C763.819 1037.99 764.288 1037.77 764.802 1037.66C765.33 1037.54 765.85 1037.53 766.364 1037.63C766.877 1037.75 767.346 1037.96 767.772 1038.27C768.212 1038.57 768.564 1038.95 768.828 1039.42C768.974 1039.67 769.004 1039.93 768.916 1040.21C768.842 1040.49 768.681 1040.71 768.432 1040.87C768.182 1041.01 767.918 1041.05 767.64 1040.98C767.361 1040.89 767.148 1040.72 767.002 1040.47C766.752 1040.08 766.4 1039.82 765.946 1039.7C765.476 1039.61 765.051 1039.72 764.67 1040.01C764.288 1040.29 764.083 1040.67 764.054 1041.15C764.01 1041.62 764.156 1042.03 764.494 1042.36L767.992 1045.97C768.373 1046.37 768.659 1046.82 768.85 1047.34C769.04 1047.85 769.114 1048.38 769.07 1048.92C769.026 1049.48 768.872 1049.99 768.608 1050.46C768.344 1050.93 767.999 1051.33 767.574 1051.67C767.134 1052.01 766.65 1052.23 766.122 1052.35C765.594 1052.47 765.058 1052.48 764.516 1052.37C763.973 1052.26 763.482 1052.04 763.042 1051.74C762.602 1051.41 762.25 1051.02 761.986 1050.55C761.824 1050.3 761.78 1050.03 761.854 1049.76C761.942 1049.46 762.11 1049.24 762.36 1049.1C762.609 1048.95 762.873 1048.92 763.152 1049.01C763.43 1049.08 763.65 1049.24 763.812 1049.49C764.061 1049.92 764.435 1050.19 764.934 1050.31C765.447 1050.39 765.902 1050.28 766.298 1049.98ZM774.192 1052.44C773.679 1052.44 773.195 1052.34 772.74 1052.15C772.3 1051.96 771.912 1051.7 771.574 1051.36C771.237 1051.02 770.973 1050.64 770.782 1050.2C770.592 1049.74 770.496 1049.26 770.496 1048.74V1041.26C770.496 1040.75 770.592 1040.27 770.782 1039.83C770.973 1039.38 771.237 1038.98 771.574 1038.65C771.912 1038.31 772.3 1038.04 772.74 1037.85C773.195 1037.66 773.679 1037.57 774.192 1037.57C774.706 1037.57 775.182 1037.66 775.622 1037.85C776.077 1038.04 776.473 1038.31 776.81 1038.65C777.148 1038.98 777.412 1039.38 777.602 1039.83C777.793 1040.27 777.888 1040.75 777.888 1041.26V1048.74C777.888 1049.26 777.793 1049.74 777.602 1050.2C777.412 1050.64 777.148 1051.02 776.81 1051.36C776.473 1051.7 776.077 1051.96 775.622 1052.15C775.182 1052.34 774.706 1052.44 774.192 1052.44ZM774.192 1039.68C773.752 1039.68 773.378 1039.83 773.07 1040.14C772.762 1040.45 772.608 1040.82 772.608 1041.26V1048.74C772.608 1049.18 772.762 1049.56 773.07 1049.87C773.378 1050.17 773.752 1050.33 774.192 1050.33C774.632 1050.33 775.006 1050.17 775.314 1049.87C775.622 1049.56 775.776 1049.18 775.776 1048.74V1041.26C775.776 1040.82 775.622 1040.45 775.314 1040.14C775.006 1039.83 774.632 1039.68 774.192 1039.68ZM781.849 1048.74C781.849 1049.18 782.003 1049.56 782.311 1049.87C782.619 1050.17 782.993 1050.33 783.433 1050.33C783.858 1050.33 784.225 1050.17 784.533 1049.87C784.855 1049.56 785.017 1049.18 785.017 1048.74V1038.62C785.017 1038.33 785.119 1038.08 785.325 1037.88C785.53 1037.67 785.779 1037.57 786.073 1037.57C786.366 1037.57 786.615 1037.67 786.821 1037.88C787.026 1038.08 787.129 1038.33 787.129 1038.62V1048.74C787.129 1049.26 787.026 1049.74 786.821 1050.2C786.63 1050.64 786.366 1051.02 786.029 1051.36C785.706 1051.7 785.317 1051.96 784.863 1052.15C784.408 1052.34 783.931 1052.44 783.433 1052.44C782.919 1052.44 782.435 1052.34 781.981 1052.15C781.541 1051.96 781.152 1051.7 780.815 1051.36C780.477 1051.02 780.213 1050.64 780.023 1050.2C779.832 1049.74 779.737 1049.26 779.737 1048.74V1038.62C779.737 1038.33 779.839 1038.08 780.045 1037.88C780.25 1037.67 780.499 1037.57 780.793 1037.57C781.086 1037.57 781.335 1037.67 781.541 1037.88C781.746 1038.08 781.849 1038.33 781.849 1038.62V1048.74ZM796.629 1042.58C796.629 1043.3 796.445 1043.96 796.079 1044.54C795.727 1045.11 795.25 1045.55 794.649 1045.86L796.563 1051.01C796.68 1051.29 796.673 1051.56 796.541 1051.82C796.423 1052.09 796.225 1052.27 795.947 1052.37C795.668 1052.48 795.397 1052.47 795.133 1052.35C794.883 1052.23 794.7 1052.04 794.583 1051.76L792.537 1046.28H791.349V1051.38C791.349 1051.68 791.246 1051.93 791.041 1052.13C790.835 1052.34 790.586 1052.44 790.293 1052.44C789.999 1052.44 789.75 1052.34 789.545 1052.13C789.339 1051.93 789.237 1051.68 789.237 1051.38V1038.71C789.237 1038.42 789.339 1038.17 789.545 1037.96C789.75 1037.76 789.999 1037.66 790.293 1037.66H792.933C793.446 1037.66 793.923 1037.75 794.363 1037.94C794.817 1038.13 795.213 1038.4 795.551 1038.73C795.888 1039.07 796.152 1039.47 796.343 1039.92C796.533 1040.36 796.629 1040.84 796.629 1041.35V1042.58ZM791.349 1044.17H792.933C793.373 1044.17 793.747 1044.01 794.055 1043.71C794.363 1043.4 794.517 1043.02 794.517 1042.58V1041.35C794.517 1040.91 794.363 1040.54 794.055 1040.23C793.747 1039.92 793.373 1039.77 792.933 1039.77H791.349V1044.17ZM800.853 1052.31C800.457 1052.21 800.09 1052.04 799.753 1051.82C799.416 1051.59 799.122 1051.32 798.873 1051.01C798.638 1050.69 798.455 1050.34 798.323 1049.95C798.191 1049.57 798.125 1049.17 798.125 1048.74V1041.26C798.125 1040.85 798.191 1040.46 798.323 1040.08C798.455 1039.68 798.638 1039.33 798.873 1039.02C799.122 1038.7 799.416 1038.43 799.753 1038.21C800.09 1037.97 800.457 1037.8 800.853 1037.7C801.674 1037.48 802.466 1037.53 803.229 1037.85C803.992 1038.16 804.586 1038.68 805.011 1039.42C805.172 1039.67 805.209 1039.93 805.121 1040.21C805.048 1040.49 804.886 1040.71 804.637 1040.87C804.388 1041.01 804.124 1041.05 803.845 1040.98C803.566 1040.89 803.346 1040.72 803.185 1040.47C803.009 1040.16 802.752 1039.94 802.415 1039.81C802.092 1039.67 801.755 1039.64 801.403 1039.75C801.066 1039.83 800.787 1040.02 800.567 1040.32C800.347 1040.6 800.237 1040.91 800.237 1041.26V1048.74C800.237 1049.11 800.347 1049.43 800.567 1049.71C800.787 1049.99 801.066 1050.18 801.403 1050.28C801.755 1050.37 802.092 1050.35 802.415 1050.22C802.752 1050.07 803.009 1049.84 803.185 1049.54C803.346 1049.29 803.566 1049.13 803.845 1049.05C804.124 1048.96 804.388 1048.99 804.637 1049.14C804.886 1049.3 805.048 1049.52 805.121 1049.8C805.209 1050.08 805.172 1050.34 805.011 1050.59C804.586 1051.33 803.992 1051.85 803.229 1052.15C802.466 1052.48 801.674 1052.53 800.853 1052.31ZM806.854 1038.71C806.854 1038.42 806.957 1038.17 807.162 1037.96C807.367 1037.76 807.617 1037.66 807.91 1037.66H812.31C812.603 1037.66 812.853 1037.76 813.058 1037.96C813.263 1038.17 813.366 1038.42 813.366 1038.71C813.366 1039.01 813.263 1039.25 813.058 1039.46C812.853 1039.67 812.603 1039.77 812.31 1039.77H808.966V1043.73H811.87C812.163 1043.73 812.413 1043.83 812.618 1044.04C812.823 1044.24 812.926 1044.49 812.926 1044.78C812.926 1045.08 812.823 1045.33 812.618 1045.53C812.413 1045.74 812.163 1045.84 811.87 1045.84H808.966V1050.24H812.31C812.603 1050.24 812.853 1050.34 813.058 1050.55C813.263 1050.75 813.366 1051 813.366 1051.3C813.366 1051.59 813.263 1051.84 813.058 1052.04C812.853 1052.25 812.603 1052.35 812.31 1052.35H807.91C807.617 1052.35 807.367 1052.25 807.162 1052.04C806.957 1051.84 806.854 1051.59 806.854 1051.3V1038.71Z" fill="#1C1B1B"/>
<path d="M611.523 1011.44C611.23 1011.44 610.981 1011.34 610.775 1011.13C610.57 1010.93 610.467 1010.68 610.467 1010.38V997.624C610.467 997.331 610.57 997.081 610.775 996.876C610.981 996.671 611.23 996.568 611.523 996.568C611.817 996.568 612.066 996.671 612.271 996.876C612.477 997.081 612.579 997.331 612.579 997.624V1010.38C612.579 1010.68 612.477 1010.93 612.271 1011.13C612.066 1011.34 611.817 1011.44 611.523 1011.44ZM622.33 1011.42C622.08 1011.48 621.846 1011.45 621.626 1011.33C621.406 1011.23 621.244 1011.07 621.142 1010.85C620.702 1009.91 620.24 1008.95 619.756 1007.96C619.345 1007.13 618.89 1006.2 618.392 1005.19C617.908 1004.18 617.438 1003.2 616.984 1002.24V1010.38C616.984 1010.68 616.881 1010.93 616.676 1011.13C616.47 1011.34 616.221 1011.44 615.928 1011.44C615.634 1011.44 615.385 1011.34 615.18 1011.13C614.974 1010.93 614.872 1010.68 614.872 1010.38V997.624C614.872 997.375 614.945 997.155 615.092 996.964C615.238 996.773 615.436 996.649 615.686 996.59C615.935 996.531 616.162 996.561 616.368 996.678C616.588 996.781 616.756 996.942 616.874 997.162C617.314 998.101 617.776 999.061 618.26 1000.04C618.67 1000.88 619.118 1001.8 619.602 1002.82C620.086 1003.83 620.562 1004.81 621.032 1005.76V997.624C621.032 997.331 621.134 997.081 621.34 996.876C621.545 996.671 621.794 996.568 622.088 996.568C622.381 996.568 622.63 996.671 622.836 996.876C623.041 997.081 623.144 997.331 623.144 997.624V1010.38C623.144 1010.63 623.063 1010.85 622.902 1011.04C622.755 1011.23 622.564 1011.36 622.33 1011.42ZM624.694 997.91C624.621 997.617 624.65 997.345 624.782 997.096C624.929 996.847 625.149 996.685 625.442 996.612C625.721 996.539 625.985 996.575 626.234 996.722C626.498 996.854 626.667 997.059 626.74 997.338C627.019 998.379 627.305 999.428 627.598 1000.48C627.847 1001.39 628.119 1002.38 628.412 1003.43C628.705 1004.49 628.984 1005.49 629.248 1006.42C629.497 1005.49 629.769 1004.49 630.062 1003.43C630.355 1002.38 630.627 1001.39 630.876 1000.48C631.155 999.428 631.441 998.379 631.734 997.338C631.807 997.059 631.969 996.854 632.218 996.722C632.482 996.575 632.753 996.539 633.032 996.612C633.325 996.685 633.538 996.847 633.67 997.096C633.817 997.345 633.853 997.617 633.78 997.91L630.26 1010.67C630.187 1010.9 630.055 1011.09 629.864 1011.22C629.688 1011.37 629.483 1011.44 629.248 1011.44C628.999 1011.44 628.779 1011.37 628.588 1011.22C628.412 1011.09 628.287 1010.9 628.214 1010.67L624.694 997.91ZM635.303 997.712C635.303 997.419 635.406 997.169 635.611 996.964C635.817 996.759 636.066 996.656 636.359 996.656H640.759C641.053 996.656 641.302 996.759 641.507 996.964C641.713 997.169 641.815 997.419 641.815 997.712C641.815 998.005 641.713 998.255 641.507 998.46C641.302 998.665 641.053 998.768 640.759 998.768H637.415V1002.73H640.319C640.613 1002.73 640.862 1002.83 641.067 1003.04C641.273 1003.24 641.375 1003.49 641.375 1003.78C641.375 1004.08 641.273 1004.33 641.067 1004.53C640.862 1004.74 640.613 1004.84 640.319 1004.84H637.415V1009.24H640.759C641.053 1009.24 641.302 1009.34 641.507 1009.55C641.713 1009.75 641.815 1010 641.815 1010.3C641.815 1010.59 641.713 1010.84 641.507 1011.04C641.302 1011.25 641.053 1011.35 640.759 1011.35H636.359C636.066 1011.35 635.817 1011.25 635.611 1011.04C635.406 1010.84 635.303 1010.59 635.303 1010.3V997.712ZM650.861 1011.42C650.611 1011.48 650.377 1011.45 650.157 1011.33C649.937 1011.23 649.775 1011.07 649.673 1010.85C649.233 1009.91 648.771 1008.95 648.287 1007.96C647.876 1007.13 647.421 1006.2 646.923 1005.19C646.439 1004.18 645.969 1003.2 645.515 1002.24V1010.38C645.515 1010.68 645.412 1010.93 645.207 1011.13C645.001 1011.34 644.752 1011.44 644.459 1011.44C644.165 1011.44 643.916 1011.34 643.711 1011.13C643.505 1010.93 643.403 1010.68 643.403 1010.38V997.624C643.403 997.375 643.476 997.155 643.623 996.964C643.769 996.773 643.967 996.649 644.217 996.59C644.466 996.531 644.693 996.561 644.899 996.678C645.119 996.781 645.287 996.942 645.405 997.162C645.845 998.101 646.307 999.061 646.791 1000.04C647.201 1000.88 647.649 1001.8 648.133 1002.82C648.617 1003.83 649.093 1004.81 649.563 1005.76V997.624C649.563 997.331 649.665 997.081 649.871 996.876C650.076 996.671 650.325 996.568 650.619 996.568C650.912 996.568 651.161 996.671 651.367 996.876C651.572 997.081 651.675 997.331 651.675 997.624V1010.38C651.675 1010.63 651.594 1010.85 651.433 1011.04C651.286 1011.23 651.095 1011.36 650.861 1011.42ZM659.869 996.656C660.162 996.656 660.412 996.759 660.617 996.964C660.822 997.169 660.925 997.419 660.925 997.712C660.925 998.005 660.822 998.255 660.617 998.46C660.412 998.665 660.162 998.768 659.869 998.768H658.065V1010.38C658.065 1010.68 657.962 1010.93 657.757 1011.13C657.552 1011.34 657.302 1011.44 657.009 1011.44C656.716 1011.44 656.466 1011.34 656.261 1011.13C656.056 1010.93 655.953 1010.68 655.953 1010.38V998.768H654.149C653.856 998.768 653.606 998.665 653.401 998.46C653.196 998.255 653.093 998.005 653.093 997.712C653.093 997.419 653.196 997.169 653.401 996.964C653.606 996.759 653.856 996.656 654.149 996.656H659.869ZM665.548 1011.44C665.034 1011.44 664.55 1011.34 664.096 1011.15C663.656 1010.96 663.267 1010.7 662.93 1010.36C662.592 1010.02 662.328 1009.64 662.138 1009.2C661.947 1008.74 661.852 1008.26 661.852 1007.74V1000.26C661.852 999.751 661.947 999.274 662.138 998.834C662.328 998.379 662.592 997.983 662.93 997.646C663.267 997.309 663.656 997.045 664.096 996.854C664.55 996.663 665.034 996.568 665.548 996.568C666.061 996.568 666.538 996.663 666.978 996.854C667.432 997.045 667.828 997.309 668.166 997.646C668.503 997.983 668.767 998.379 668.958 998.834C669.148 999.274 669.244 999.751 669.244 1000.26V1007.74C669.244 1008.26 669.148 1008.74 668.958 1009.2C668.767 1009.64 668.503 1010.02 668.166 1010.36C667.828 1010.7 667.432 1010.96 666.978 1011.15C666.538 1011.34 666.061 1011.44 665.548 1011.44ZM665.548 998.68C665.108 998.68 664.734 998.834 664.426 999.142C664.118 999.45 663.964 999.824 663.964 1000.26V1007.74C663.964 1008.18 664.118 1008.56 664.426 1008.87C664.734 1009.17 665.108 1009.33 665.548 1009.33C665.988 1009.33 666.362 1009.17 666.67 1008.87C666.978 1008.56 667.132 1008.18 667.132 1007.74V1000.26C667.132 999.824 666.978 999.45 666.67 999.142C666.362 998.834 665.988 998.68 665.548 998.68ZM678.66 1001.58C678.66 1002.3 678.477 1002.96 678.11 1003.54C677.758 1004.11 677.281 1004.55 676.68 1004.86L678.594 1010.01C678.711 1010.29 678.704 1010.56 678.572 1010.82C678.455 1011.09 678.257 1011.27 677.978 1011.37C677.699 1011.48 677.428 1011.47 677.164 1011.35C676.915 1011.23 676.731 1011.04 676.614 1010.76L674.568 1005.28H673.38V1010.38C673.38 1010.68 673.277 1010.93 673.072 1011.13C672.867 1011.34 672.617 1011.44 672.324 1011.44C672.031 1011.44 671.781 1011.34 671.576 1011.13C671.371 1010.93 671.268 1010.68 671.268 1010.38V997.712C671.268 997.419 671.371 997.169 671.576 996.964C671.781 996.759 672.031 996.656 672.324 996.656H674.964C675.477 996.656 675.954 996.751 676.394 996.942C676.849 997.133 677.245 997.397 677.582 997.734C677.919 998.071 678.183 998.467 678.374 998.922C678.565 999.362 678.66 999.839 678.66 1000.35V1001.58ZM673.38 1003.17H674.964C675.404 1003.17 675.778 1003.01 676.086 1002.71C676.394 1002.4 676.548 1002.02 676.548 1001.58V1000.35C676.548 999.912 676.394 999.538 676.086 999.23C675.778 998.922 675.404 998.768 674.964 998.768H673.38V1003.17ZM684.358 1008.98C684.564 1008.83 684.718 1008.65 684.82 1008.45C684.923 1008.24 684.989 1008.02 685.018 1007.77C685.062 1007.27 684.908 1006.83 684.556 1006.45L681.036 1002.84C680.655 1002.46 680.376 1002.02 680.2 1001.52C680.024 1001.02 679.958 1000.51 680.002 999.978C680.046 999.45 680.193 998.959 680.442 998.504C680.692 998.035 681.029 997.639 681.454 997.316C681.88 996.993 682.349 996.773 682.862 996.656C683.39 996.539 683.911 996.531 684.424 996.634C684.938 996.751 685.407 996.964 685.832 997.272C686.272 997.565 686.624 997.947 686.888 998.416C687.035 998.665 687.064 998.929 686.976 999.208C686.903 999.487 686.742 999.707 686.492 999.868C686.243 1000.01 685.979 1000.05 685.7 999.978C685.422 999.89 685.209 999.721 685.062 999.472C684.813 999.076 684.461 998.819 684.006 998.702C683.537 998.614 683.112 998.717 682.73 999.01C682.349 999.289 682.144 999.67 682.114 1000.15C682.07 1000.62 682.217 1001.03 682.554 1001.36L686.052 1004.97C686.434 1005.37 686.72 1005.82 686.91 1006.34C687.101 1006.85 687.174 1007.38 687.13 1007.92C687.086 1008.48 686.932 1008.99 686.668 1009.46C686.404 1009.93 686.06 1010.33 685.634 1010.67C685.194 1011.01 684.71 1011.23 684.182 1011.35C683.654 1011.47 683.119 1011.48 682.576 1011.37C682.034 1011.26 681.542 1011.04 681.102 1010.74C680.662 1010.41 680.31 1010.02 680.046 1009.55C679.885 1009.3 679.841 1009.03 679.914 1008.76C680.002 1008.46 680.171 1008.24 680.42 1008.1C680.67 1007.95 680.934 1007.92 681.212 1008.01C681.491 1008.08 681.711 1008.24 681.872 1008.49C682.122 1008.92 682.496 1009.19 682.994 1009.31C683.508 1009.39 683.962 1009.28 684.358 1008.98Z" fill="#1C1B1B"/>
<path fill-rule="evenodd" clip-rule="evenodd" d="M131.812 631.479C126.316 630.466 122.419 628.152 119.388 625.065C115.973 621.587 113.694 617.154 111.435 612.761C111.219 612.341 111.004 611.921 110.787 611.503C108.278 606.654 105.636 601.901 101.359 598.131C97.1092 594.386 91.1713 591.552 81.9766 590.725L82.1557 588.733C91.7113 589.593 98.0682 592.566 102.681 596.631C107.266 600.672 110.053 605.733 112.564 610.584C112.776 610.993 112.985 611.401 113.194 611.806C115.483 616.254 117.624 620.414 120.815 623.664C123.526 626.424 127.022 628.546 132.086 629.496L132.201 628.664L136.357 629.99C136.376 629.991 136.396 629.992 136.416 629.993L136.415 630.008L142.009 631.793L136.316 631.988L136.316 631.99C136.306 631.99 136.296 631.989 136.285 631.989L131.72 632.145L131.812 631.479Z" fill="#1C1B1B"/>
<line x1="290.993" y1="806.012" x2="349.777" y2="785.38" stroke="#1C1B1B" stroke-width="2"/>
<path d="M357.042 782.831L347.995 788.759L346.274 783.857L357.042 782.831Z" fill="#1C1B1B"/>
<path fill-rule="evenodd" clip-rule="evenodd" d="M141.854 728.796C146.314 716.736 150.596 708.15 156.903 701.836C163.167 695.566 171.337 691.625 183.387 688.624L183.287 687.785L193.053 688.308L183.68 691.1L183.624 690.627C171.901 693.572 164.187 697.375 158.318 703.249C152.329 709.244 148.169 717.488 143.73 729.49L141.854 728.796Z" fill="#1C1B1B"/>
<path d="M376 576L376 600.892L326.193 600.892" stroke="#1C1B1B" stroke-width="2"/>
<path d="M316 600.894L329.9 598.699L329.9 603.089L316 600.894Z" fill="#1C1B1B"/>
<line x1="554.121" y1="625.598" x2="500.167" y2="656.748" stroke="#1C1B1B" stroke-width="2"/>
<path d="M493.5 660.598L501.294 653.098L503.892 657.598L493.5 660.598Z" fill="#1C1B1B"/>
<path d="M281.38 811.31L280.54 810.77C279.1 812.78 278.17 813.47 276.88 813.47C275.56 813.47 274.69 812.39 274.69 810.8C274.69 808.91 275.47 806.21 276.55 804.26C277.36 802.85 278.2 802.13 279.13 802.13C279.49 802.13 279.79 802.34 279.79 802.64C279.79 802.76 279.73 802.94 279.55 803.21C279.28 803.69 279.16 804.02 279.16 804.38C279.16 805.28 279.88 805.94 280.9 805.94C282.01 805.94 282.76 805.1 282.76 803.84C282.76 802.25 281.41 801.14 279.4 801.14C275.17 801.14 270.85 806.06 270.85 810.86C270.85 813.53 272.71 815.39 275.44 815.39C276.76 815.39 278.05 814.91 279.07 814.04C279.85 813.38 280.33 812.81 281.38 811.31Z" fill="#1C1B1B"/>
<path d="M579.65 623.64L579.02 623.19C577.79 624.84 577.34 625.29 576.86 625.29C576.62 625.29 576.5 625.11 576.5 624.84C576.5 624.09 576.77 622.86 577.52 620.4L579.65 613.32L576.32 613.53L575.78 615.3C575.51 613.77 574.85 613.14 573.56 613.14C569.87 613.14 565.37 618.9 565.37 623.58C565.37 625.86 566.66 627.39 568.61 627.39C570.44 627.39 571.82 626.31 573.53 623.43C573.17 624.66 573.11 625.02 573.11 625.44C573.11 626.55 574.01 627.42 575.12 627.42C576.53 627.42 577.91 626.25 579.65 623.64ZM575.09 615.81C575.09 617.61 574.1 620.94 572.93 623.01C572.12 624.48 571.22 625.26 570.41 625.26C569.63 625.26 569.06 624.57 569.06 623.64C569.06 622.08 570.05 619.08 571.28 616.86C572.18 615.27 573.17 614.34 573.98 614.4C574.64 614.46 575.09 615 575.09 615.81Z" fill="#1C1B1B"/>
<path d="M375.14 562.19L374.48 561.77L374.06 562.37C373.28 563.54 372.59 564.17 372.14 564.17C371.9 564.17 371.69 563.96 371.69 563.72C371.69 563.45 371.84 562.67 371.96 562.16L374.69 552.14C373.07 552.5 370.97 552.8 368.63 552.98V553.79H369.02C369.92 553.79 370.4 554.09 370.4 554.66C370.4 554.9 370.31 555.35 370.19 555.86L368.45 562.31C368.21 563.18 368.06 563.96 368.06 564.38C368.06 565.52 368.9 566.27 370.13 566.27C371.93 566.27 373.04 565.37 375.14 562.19ZM375.98 548.3C375.98 547.19 375.05 546.26 373.91 546.26C372.86 546.26 371.93 547.19 371.93 548.24C371.93 549.41 372.8 550.31 373.91 550.31C375.05 550.31 375.98 549.41 375.98 548.3ZM385.83 562.31L384.99 561.77C383.55 563.78 382.62 564.47 381.33 564.47C380.01 564.47 379.14 563.39 379.14 561.8C379.14 559.91 379.92 557.21 381 555.26C381.81 553.85 382.65 553.13 383.58 553.13C383.94 553.13 384.24 553.34 384.24 553.64C384.24 553.76 384.18 553.94 384 554.21C383.73 554.69 383.61 555.02 383.61 555.38C383.61 556.28 384.33 556.94 385.35 556.94C386.46 556.94 387.21 556.1 387.21 554.84C387.21 553.25 385.86 552.14 383.85 552.14C379.62 552.14 375.3 557.06 375.3 561.86C375.3 564.53 377.16 566.39 379.89 566.39C381.21 566.39 382.5 565.91 383.52 565.04C384.3 564.38 384.78 563.81 385.83 562.31Z" fill="#1C1B1B"/>
<path d="M54.38 591.31L53.54 590.77C52.1 592.78 51.17 593.47 49.88 593.47C48.56 593.47 47.69 592.39 47.69 590.8C47.69 588.91 48.47 586.21 49.55 584.26C50.36 582.85 51.2 582.13 52.13 582.13C52.49 582.13 52.79 582.34 52.79 582.64C52.79 582.76 52.73 582.94 52.55 583.21C52.28 583.69 52.16 584.02 52.16 584.38C52.16 585.28 52.88 585.94 53.9 585.94C55.01 585.94 55.76 585.1 55.76 583.84C55.76 582.25 54.41 581.14 52.4 581.14C48.17 581.14 43.85 586.06 43.85 590.86C43.85 593.53 45.71 595.39 48.44 595.39C49.76 595.39 51.05 594.91 52.07 594.04C52.85 593.38 53.33 592.81 54.38 591.31ZM69.6601 585.67C69.6601 583.03 67.7101 581.14 64.9501 581.14C60.5101 581.14 56.3401 585.91 56.3401 590.95C56.3401 593.5 58.3501 595.39 61.1101 595.39C65.5801 595.39 69.6601 590.74 69.6601 585.67ZM64.2301 591.7C63.3601 593.62 62.4601 594.52 61.3801 594.52C60.4801 594.52 59.9101 593.83 59.9101 592.66C59.9101 590.38 60.9601 586.15 61.9801 584.26C62.7901 582.76 63.6901 582.01 64.6801 582.01C65.5501 582.01 66.0901 582.67 66.0901 583.75C66.0901 585.76 65.2201 589.54 64.2301 591.7Z" fill="#1C1B1B"/>
<path d="M140.38 748.872L139.54 748.332C138.1 750.342 137.17 751.032 135.88 751.032C134.56 751.032 133.69 749.952 133.69 748.362C133.69 746.472 134.47 743.772 135.55 741.822C136.36 740.412 137.2 739.692 138.13 739.692C138.49 739.692 138.79 739.902 138.79 740.202C138.79 740.322 138.73 740.502 138.55 740.772C138.28 741.252 138.16 741.582 138.16 741.942C138.16 742.842 138.88 743.502 139.9 743.502C141.01 743.502 141.76 742.662 141.76 741.402C141.76 739.812 140.41 738.702 138.4 738.702C134.17 738.702 129.85 743.622 129.85 748.422C129.85 751.092 131.71 752.952 134.44 752.952C135.76 752.952 137.05 752.472 138.07 751.602C138.85 750.942 139.33 750.372 140.38 748.872ZM155.81 734.022C155.81 732.552 154.67 731.622 152.84 731.622C151.28 731.622 149.84 732.252 148.76 733.452C147.5 734.832 146.93 736.062 146.06 739.092H143.87L143.6 740.352H145.79L143.15 752.112C142.22 756.552 141.65 757.782 140.45 757.782C140.15 757.782 139.91 757.632 139.91 757.452C139.91 757.452 139.97 757.302 140.03 757.182C140.27 756.822 140.39 756.492 140.39 756.162C140.39 755.442 139.67 754.722 138.89 754.722C138.08 754.722 137.36 755.472 137.36 756.342C137.36 757.782 138.53 758.712 140.33 758.712C141.65 758.712 142.79 758.262 143.75 757.332C144.83 756.282 145.52 754.932 146.45 752.172C147.26 749.742 147.62 748.302 149.3 740.352H152L152.27 739.092H149.51L150.05 736.962C150.8 733.992 151.7 732.492 152.78 732.492C153.08 732.492 153.29 732.642 153.29 732.882C153.29 732.882 153.26 733.032 153.14 733.212C152.9 733.572 152.81 733.842 152.81 734.142C152.81 734.982 153.44 735.612 154.28 735.612C155.18 735.612 155.81 734.952 155.81 734.022Z" fill="#1C1B1B"/>
<path d="M471.5 853.72C470.9 853.72 470.39 853.51 469.97 853.09C469.55 852.67 469.34 852.16 469.34 851.56V825.82C469.34 825.22 469.55 824.71 469.97 824.29C470.39 823.87 470.9 823.66 471.5 823.66H480.5C481.1 823.66 481.61 823.87 482.03 824.29C482.45 824.71 482.66 825.22 482.66 825.82C482.66 826.42 482.45 826.93 482.03 827.35C481.61 827.77 481.1 827.98 480.5 827.98H473.66V836.08H479.6C480.2 836.08 480.71 836.29 481.13 836.71C481.55 837.13 481.76 837.64 481.76 838.24C481.76 838.84 481.55 839.35 481.13 839.77C480.71 840.19 480.2 840.4 479.6 840.4H473.66V851.56C473.66 852.16 473.45 852.67 473.03 853.09C472.61 853.51 472.1 853.72 471.5 853.72ZM487.716 853.9C487.116 853.9 486.606 853.69 486.186 853.27C485.766 852.85 485.556 852.34 485.556 851.74V825.64C485.556 825.04 485.766 824.53 486.186 824.11C486.606 823.69 487.116 823.48 487.716 823.48C488.316 823.48 488.826 823.69 489.246 824.11C489.666 824.53 489.876 825.04 489.876 825.64V851.74C489.876 852.34 489.666 852.85 489.246 853.27C488.826 853.69 488.316 853.9 487.716 853.9ZM506.985 836.98C507.585 836.98 508.095 837.19 508.515 837.61C508.935 838.03 509.145 838.54 509.145 839.14V846.34C509.145 847.39 508.95 848.38 508.56 849.31C508.17 850.21 507.63 851.005 506.94 851.695C506.25 852.385 505.44 852.925 504.51 853.315C503.61 853.705 502.635 853.9 501.585 853.9C500.535 853.9 499.545 853.705 498.615 853.315C497.715 852.925 496.92 852.385 496.23 851.695C495.57 851.005 495.03 850.21 494.61 849.31C494.22 848.38 494.025 847.39 494.025 846.34V831.04C494.025 830.2 494.16 829.39 494.43 828.61C494.7 827.8 495.075 827.08 495.555 826.45C496.065 825.79 496.665 825.235 497.355 824.785C498.045 824.305 498.81 823.96 499.65 823.75C500.46 823.54 501.285 823.465 502.125 823.525C502.965 823.555 503.76 823.735 504.51 824.065C505.26 824.365 505.95 824.785 506.58 825.325C507.21 825.865 507.735 826.51 508.155 827.26C508.455 827.77 508.515 828.31 508.335 828.88C508.185 829.45 507.855 829.9 507.345 830.23C506.835 830.53 506.295 830.605 505.725 830.455C505.155 830.275 504.72 829.93 504.42 829.42C504.03 828.79 503.49 828.34 502.8 828.07C502.14 827.77 501.465 827.725 500.775 827.935C500.055 828.115 499.47 828.505 499.02 829.105C498.57 829.675 498.345 830.32 498.345 831.04V846.34C498.345 847.24 498.66 848.005 499.29 848.635C499.95 849.265 500.715 849.58 501.585 849.58C502.485 849.58 503.25 849.265 503.88 848.635C504.51 848.005 504.825 847.24 504.825 846.34V841.3H502.485C501.885 841.3 501.375 841.09 500.955 840.67C500.535 840.25 500.325 839.74 500.325 839.14C500.325 838.54 500.535 838.03 500.955 837.61C501.375 837.19 501.885 836.98 502.485 836.98H506.985ZM512.48 851.29C512.48 850.57 512.735 849.955 513.245 849.445C513.755 848.935 514.37 848.68 515.09 848.68C515.81 848.68 516.425 848.935 516.935 849.445C517.445 849.955 517.7 850.57 517.7 851.29C517.7 852.01 517.445 852.625 516.935 853.135C516.425 853.645 515.81 853.9 515.09 853.9C514.37 853.9 513.755 853.645 513.245 853.135C512.735 852.625 512.48 852.01 512.48 851.29ZM526.807 853.63C525.997 853.42 525.247 853.09 524.557 852.64C523.867 852.16 523.267 851.605 522.757 850.975C522.277 850.315 521.902 849.595 521.632 848.815C521.362 848.035 521.227 847.21 521.227 846.34V831.04C521.227 830.2 521.362 829.39 521.632 828.61C521.902 827.8 522.277 827.08 522.757 826.45C523.267 825.79 523.867 825.235 524.557 824.785C525.247 824.305 525.997 823.96 526.807 823.75C528.487 823.3 530.107 823.405 531.667 824.065C533.227 824.695 534.442 825.76 535.312 827.26C535.642 827.77 535.717 828.31 535.537 828.88C535.387 829.45 535.057 829.9 534.547 830.23C534.037 830.53 533.497 830.605 532.927 830.455C532.357 830.275 531.907 829.93 531.577 829.42C531.217 828.79 530.692 828.34 530.002 828.07C529.342 827.77 528.652 827.725 527.932 827.935C527.242 828.115 526.672 828.505 526.222 829.105C525.772 829.675 525.547 830.32 525.547 831.04V846.34C525.547 847.09 525.772 847.75 526.222 848.32C526.672 848.89 527.242 849.28 527.932 849.49C528.652 849.67 529.342 849.625 530.002 849.355C530.692 849.055 531.217 848.59 531.577 847.96C531.907 847.45 532.357 847.12 532.927 846.97C533.497 846.79 534.037 846.85 534.547 847.15C535.057 847.48 535.387 847.93 535.537 848.5C535.717 849.07 535.642 849.61 535.312 850.12C534.442 851.62 533.227 852.685 531.667 853.315C530.107 853.975 528.487 854.08 526.807 853.63ZM539.081 825.82C539.081 825.22 539.291 824.71 539.711 824.29C540.131 823.87 540.641 823.66 541.241 823.66H550.241C550.841 823.66 551.351 823.87 551.771 824.29C552.191 824.71 552.401 825.22 552.401 825.82C552.401 826.42 552.191 826.93 551.771 827.35C551.351 827.77 550.841 827.98 550.241 827.98H543.401V836.08H549.341C549.941 836.08 550.451 836.29 550.871 836.71C551.291 837.13 551.501 837.64 551.501 838.24C551.501 838.84 551.291 839.35 550.871 839.77C550.451 840.19 549.941 840.4 549.341 840.4H543.401V849.4H550.241C550.841 849.4 551.351 849.61 551.771 850.03C552.191 850.45 552.401 850.96 552.401 851.56C552.401 852.16 552.191 852.67 551.771 853.09C551.351 853.51 550.841 853.72 550.241 853.72H541.241C540.641 853.72 540.131 853.51 539.711 853.09C539.291 852.67 539.081 852.16 539.081 851.56V825.82Z" fill="#1C1B1B"/>
<path fill-rule="evenodd" clip-rule="evenodd" d="M214.281 1027.91C216.682 1032.96 219.926 1036.12 223.693 1038.25C227.936 1040.65 232.808 1041.71 237.636 1042.75C238.097 1042.85 238.558 1042.95 239.018 1043.05C244.351 1044.22 249.627 1045.54 254.374 1048.7C259.092 1051.83 263.366 1056.84 266.545 1065.5L268.422 1064.81C265.119 1055.81 260.602 1050.44 255.481 1047.03C250.391 1043.65 244.782 1042.27 239.446 1041.1C238.997 1041 238.55 1040.9 238.105 1040.81L238.103 1040.81C233.213 1039.75 228.641 1038.75 224.677 1036.51C221.309 1034.61 218.354 1031.78 216.126 1027.13L216.9 1026.81L214.543 1023.13C214.537 1023.12 214.531 1023.1 214.526 1023.08L214.511 1023.09L211.34 1018.14L212.625 1023.69L212.622 1023.7C212.626 1023.71 212.63 1023.72 212.634 1023.73L213.663 1028.17L214.281 1027.91Z" fill="#1C1B1B"/>
<path fill-rule="evenodd" clip-rule="evenodd" d="M72.6026 1040.09C84.6682 1035.89 93.2809 1031.8 99.6754 1025.65C106.026 1019.55 110.097 1011.51 113.309 999.596L114.136 999.711L113.803 990L110.85 999.257L111.312 999.32C108.162 1010.91 104.236 1018.5 98.2895 1024.21C92.2205 1030.05 83.953 1034.02 71.9453 1038.2L72.6026 1040.09Z" fill="#1C1B1B"/>
<path d="M205.431 804L180.539 804L180.539 853.807" stroke="#1C1B1B" stroke-width="2"/>
<path d="M180.535 864L182.73 850.1H178.34L180.535 864Z" fill="#1C1B1B"/>
<line x1="529.121" y1="959.598" x2="475.167" y2="990.748" stroke="#1C1B1B" stroke-width="2"/>
<path d="M468.5 994.598L476.294 987.098L478.892 991.598L468.5 994.598Z" fill="#1C1B1B"/>
<path d="M265.62 1083.35L264.78 1082.81C263.34 1084.82 262.41 1085.51 261.12 1085.51C259.8 1085.51 258.93 1084.43 258.93 1082.84C258.93 1080.95 259.71 1078.25 260.79 1076.3C261.6 1074.89 262.44 1074.17 263.37 1074.17C263.73 1074.17 264.03 1074.38 264.03 1074.68C264.03 1074.8 263.97 1074.98 263.79 1075.25C263.52 1075.73 263.4 1076.06 263.4 1076.42C263.4 1077.32 264.12 1077.98 265.14 1077.98C266.25 1077.98 267 1077.14 267 1075.88C267 1074.29 265.65 1073.18 263.64 1073.18C259.41 1073.18 255.09 1078.1 255.09 1082.9C255.09 1085.57 256.95 1087.43 259.68 1087.43C261 1087.43 262.29 1086.95 263.31 1086.08C264.09 1085.42 264.57 1084.85 265.62 1083.35ZM278.05 1083.35L277.21 1082.81C275.77 1084.82 274.84 1085.51 273.55 1085.51C272.23 1085.51 271.36 1084.43 271.36 1082.84C271.36 1080.95 272.14 1078.25 273.22 1076.3C274.03 1074.89 274.87 1074.17 275.8 1074.17C276.16 1074.17 276.46 1074.38 276.46 1074.68C276.46 1074.8 276.4 1074.98 276.22 1075.25C275.95 1075.73 275.83 1076.06 275.83 1076.42C275.83 1077.32 276.55 1077.98 277.57 1077.98C278.68 1077.98 279.43 1077.14 279.43 1075.88C279.43 1074.29 278.08 1073.18 276.07 1073.18C271.84 1073.18 267.52 1078.1 267.52 1082.9C267.52 1085.57 269.38 1087.43 272.11 1087.43C273.43 1087.43 274.72 1086.95 275.74 1086.08C276.52 1085.42 277 1084.85 278.05 1083.35Z" fill="#1C1B1B"/>
<path d="M553.72 950.77C553.72 948.55 552.46 947.14 550.48 947.14C548.77 947.14 547.45 948.1 545.68 950.59L546.82 947.14L541.03 947.98V948.79C542.38 948.85 542.65 948.97 542.65 949.54C542.65 949.84 542.41 950.92 541.99 952.48L538.99 964.12C538.42 966.1 538.18 966.37 536.74 966.34V967.15H544.21V966.34C542.71 966.31 542.26 966.1 542.26 965.38C542.26 964.96 542.47 964.06 543.04 961.96C543.25 961.24 543.25 961.18 543.37 960.73C544.42 961.27 544.78 961.39 545.41 961.39C549.49 961.39 553.72 955.96 553.72 950.77ZM549.97 950.98C549.85 952.96 548.89 955.93 547.81 957.88C546.88 959.5 545.92 960.34 544.9 960.34C544.24 960.34 543.73 959.86 543.73 959.26C543.73 958.75 544.06 957.52 544.87 954.79C545.53 952.6 545.8 951.85 546.25 951.16C547 949.99 548.02 949.21 548.8 949.27C549.58 949.33 550.03 950.02 549.97 950.98Z" fill="#1C1B1B"/>
<path d="M224.03 797.15C224.03 796.1 223.16 795.14 222.2 795.14C221.3 795.14 220.52 795.95 220.52 796.88C220.52 797.39 220.7 797.81 221.24 798.41C221.69 798.92 221.84 799.19 221.84 799.52C221.84 800.57 221.03 801.77 218.06 805.16C217.94 799.28 217.76 797.54 217.13 795.14C215.66 795.5 214.97 795.62 212.48 795.98V796.79C213.41 796.79 213.68 796.88 213.89 797.27C214.37 798.23 214.7 800.84 214.7 804.08C214.7 804.2 214.7 804.71 214.67 805.31L214.55 809.39H215.33C219.14 805.76 220.55 804.17 222.2 801.77C223.4 800.03 224.03 798.41 224.03 797.15Z" fill="#1C1B1B"/>
<path d="M61.75 1043.19L61.09 1042.77C60.07 1044.36 59.29 1045.17 58.81 1045.17C58.57 1045.17 58.33 1044.96 58.33 1044.72C58.33 1044.15 58.87 1042.08 59.95 1038.36L60.94 1034.79H63.43V1033.53H61.27L62.44 1029.18H61.39C59.77 1031.58 58.27 1032.84 55.9 1033.74V1034.79H57.43L55.39 1041.93C54.94 1043.49 54.67 1044.78 54.67 1045.32C54.67 1046.49 55.51 1047.27 56.77 1047.27C58.57 1047.27 59.77 1046.28 61.75 1043.19Z" fill="#1C1B1B"/>
<path d="M26.5 895.72C25.9 895.72 25.39 895.51 24.97 895.09C24.55 894.67 24.34 894.16 24.34 893.56V867.82C24.34 867.22 24.55 866.71 24.97 866.29C25.39 865.87 25.9 865.66 26.5 865.66H35.5C36.1 865.66 36.61 865.87 37.03 866.29C37.45 866.71 37.66 867.22 37.66 867.82C37.66 868.42 37.45 868.93 37.03 869.35C36.61 869.77 36.1 869.98 35.5 869.98H28.66V878.08H34.6C35.2 878.08 35.71 878.29 36.13 878.71C36.55 879.13 36.76 879.64 36.76 880.24C36.76 880.84 36.55 881.35 36.13 881.77C35.71 882.19 35.2 882.4 34.6 882.4H28.66V893.56C28.66 894.16 28.45 894.67 28.03 895.09C27.61 895.51 27.1 895.72 26.5 895.72ZM42.7158 895.9C42.1158 895.9 41.6058 895.69 41.1858 895.27C40.7658 894.85 40.5558 894.34 40.5558 893.74V867.64C40.5558 867.04 40.7658 866.53 41.1858 866.11C41.6058 865.69 42.1158 865.48 42.7158 865.48C43.3158 865.48 43.8258 865.69 44.2458 866.11C44.6658 866.53 44.8758 867.04 44.8758 867.64V893.74C44.8758 894.34 44.6658 894.85 44.2458 895.27C43.8258 895.69 43.3158 895.9 42.7158 895.9ZM61.9846 878.98C62.5846 878.98 63.0946 879.19 63.5146 879.61C63.9346 880.03 64.1446 880.54 64.1446 881.14V888.34C64.1446 889.39 63.9496 890.38 63.5596 891.31C63.1696 892.21 62.6296 893.005 61.9396 893.695C61.2496 894.385 60.4396 894.925 59.5096 895.315C58.6096 895.705 57.6346 895.9 56.5846 895.9C55.5346 895.9 54.5446 895.705 53.6146 895.315C52.7146 894.925 51.9196 894.385 51.2296 893.695C50.5696 893.005 50.0296 892.21 49.6096 891.31C49.2196 890.38 49.0246 889.39 49.0246 888.34V873.04C49.0246 872.2 49.1596 871.39 49.4296 870.61C49.6996 869.8 50.0746 869.08 50.5546 868.45C51.0646 867.79 51.6646 867.235 52.3546 866.785C53.0446 866.305 53.8096 865.96 54.6496 865.75C55.4596 865.54 56.2846 865.465 57.1246 865.525C57.9646 865.555 58.7596 865.735 59.5096 866.065C60.2596 866.365 60.9496 866.785 61.5796 867.325C62.2096 867.865 62.7346 868.51 63.1546 869.26C63.4546 869.77 63.5146 870.31 63.3346 870.88C63.1846 871.45 62.8546 871.9 62.3446 872.23C61.8346 872.53 61.2946 872.605 60.7246 872.455C60.1546 872.275 59.7196 871.93 59.4196 871.42C59.0296 870.79 58.4896 870.34 57.7996 870.07C57.1396 869.77 56.4646 869.725 55.7746 869.935C55.0546 870.115 54.4696 870.505 54.0196 871.105C53.5696 871.675 53.3446 872.32 53.3446 873.04V888.34C53.3446 889.24 53.6596 890.005 54.2896 890.635C54.9496 891.265 55.7146 891.58 56.5846 891.58C57.4846 891.58 58.2496 891.265 58.8796 890.635C59.5096 890.005 59.8246 889.24 59.8246 888.34V883.3H57.4846C56.8846 883.3 56.3746 883.09 55.9546 882.67C55.5346 882.25 55.3246 881.74 55.3246 881.14C55.3246 880.54 55.5346 880.03 55.9546 879.61C56.3746 879.19 56.8846 878.98 57.4846 878.98H61.9846ZM67.4795 893.29C67.4795 892.57 67.7345 891.955 68.2445 891.445C68.7545 890.935 69.3695 890.68 70.0895 890.68C70.8095 890.68 71.4245 890.935 71.9345 891.445C72.4445 891.955 72.6995 892.57 72.6995 893.29C72.6995 894.01 72.4445 894.625 71.9345 895.135C71.4245 895.645 70.8095 895.9 70.0895 895.9C69.3695 895.9 68.7545 895.645 68.2445 895.135C67.7345 894.625 67.4795 894.01 67.4795 893.29ZM76.7668 867.82C76.7668 867.22 76.9768 866.71 77.3968 866.29C77.8168 865.87 78.3268 865.66 78.9268 865.66H84.3268C85.3768 865.66 86.3518 865.855 87.2518 866.245C88.1818 866.635 88.9918 867.175 89.6818 867.865C90.3718 868.555 90.9118 869.365 91.3018 870.295C91.6918 871.195 91.8868 872.17 91.8868 873.22V875.74C91.8868 876.79 91.6918 877.78 91.3018 878.71C90.9118 879.61 90.3718 880.405 89.6818 881.095C88.9918 881.785 88.1818 882.325 87.2518 882.715C86.3518 883.105 85.3768 883.3 84.3268 883.3H81.0868V893.74C81.0868 894.34 80.8768 894.85 80.4568 895.27C80.0368 895.69 79.5268 895.9 78.9268 895.9C78.3268 895.9 77.8168 895.69 77.3968 895.27C76.9768 894.85 76.7668 894.34 76.7668 893.74V867.82ZM87.5668 873.22C87.5668 872.32 87.2518 871.555 86.6218 870.925C85.9918 870.295 85.2268 869.98 84.3268 869.98H81.0868V878.98H84.3268C85.2268 878.98 85.9918 878.665 86.6218 878.035C87.2518 877.405 87.5668 876.64 87.5668 875.74V873.22Z" fill="#1C1B1B"/>
<path fill-rule="evenodd" clip-rule="evenodd" d="M332.078 160.793C319.377 159.546 310.054 157.596 302.403 153.128C294.805 148.69 288.965 141.836 283.051 131.021L282.278 131.325L280.323 121.817L285.361 130.114L284.928 130.284C290.705 140.797 296.296 147.245 303.411 151.4C310.673 155.641 319.633 157.562 332.273 158.803L332.078 160.793Z" fill="#1C1B1B"/>
<path d="M350.831 160.544L349.961 160.034C348.581 162.104 347.711 162.764 346.421 162.764C345.161 162.764 344.501 161.924 344.501 160.304C344.501 159.824 344.561 159.434 344.681 158.834C347.801 158.234 349.271 157.574 350.771 156.194C351.821 155.234 352.391 154.124 352.391 153.044C352.391 151.514 351.071 150.434 349.241 150.434C344.891 150.434 340.601 155.324 340.601 160.274C340.601 162.824 342.521 164.684 345.131 164.684C347.441 164.684 349.031 163.514 350.831 160.544ZM349.631 152.444C349.631 153.764 349.121 155.054 348.161 156.044C347.351 156.914 346.601 157.334 344.891 157.874C345.971 153.704 347.351 151.424 348.791 151.424C349.361 151.424 349.631 151.754 349.631 152.444Z" fill="#1C1B1B"/>
<path d="M210.14 295.19L209.48 294.77L209.06 295.37C208.28 296.54 207.59 297.17 207.14 297.17C206.9 297.17 206.69 296.96 206.69 296.72C206.69 296.45 206.84 295.67 206.96 295.16L209.69 285.14C208.07 285.5 205.97 285.8 203.63 285.98V286.79H204.02C204.92 286.79 205.4 287.09 205.4 287.66C205.4 287.9 205.31 288.35 205.19 288.86L203.45 295.31C203.21 296.18 203.06 296.96 203.06 297.38C203.06 298.52 203.9 299.27 205.13 299.27C206.93 299.27 208.04 298.37 210.14 295.19ZM210.98 281.3C210.98 280.19 210.05 279.26 208.91 279.26C207.86 279.26 206.93 280.19 206.93 281.24C206.93 282.41 207.8 283.31 208.91 283.31C210.05 283.31 210.98 282.41 210.98 281.3Z" fill="#1C1B1B"/>
<path d="M44.5 427.72C43.9 427.72 43.39 427.51 42.97 427.09C42.55 426.67 42.34 426.16 42.34 425.56V399.82C42.34 399.22 42.55 398.71 42.97 398.29C43.39 397.87 43.9 397.66 44.5 397.66H53.5C54.1 397.66 54.61 397.87 55.03 398.29C55.45 398.71 55.66 399.22 55.66 399.82C55.66 400.42 55.45 400.93 55.03 401.35C54.61 401.77 54.1 401.98 53.5 401.98H46.66V410.08H52.6C53.2 410.08 53.71 410.29 54.13 410.71C54.55 411.13 54.76 411.64 54.76 412.24C54.76 412.84 54.55 413.35 54.13 413.77C53.71 414.19 53.2 414.4 52.6 414.4H46.66V425.56C46.66 426.16 46.45 426.67 46.03 427.09C45.61 427.51 45.1 427.72 44.5 427.72ZM60.7158 427.9C60.1158 427.9 59.6058 427.69 59.1858 427.27C58.7658 426.85 58.5558 426.34 58.5558 425.74V399.64C58.5558 399.04 58.7658 398.53 59.1858 398.11C59.6058 397.69 60.1158 397.48 60.7158 397.48C61.3158 397.48 61.8258 397.69 62.2458 398.11C62.6658 398.53 62.8758 399.04 62.8758 399.64V425.74C62.8758 426.34 62.6658 426.85 62.2458 427.27C61.8258 427.69 61.3158 427.9 60.7158 427.9ZM79.9846 410.98C80.5846 410.98 81.0946 411.19 81.5146 411.61C81.9346 412.03 82.1446 412.54 82.1446 413.14V420.34C82.1446 421.39 81.9496 422.38 81.5596 423.31C81.1696 424.21 80.6296 425.005 79.9396 425.695C79.2496 426.385 78.4396 426.925 77.5096 427.315C76.6096 427.705 75.6346 427.9 74.5846 427.9C73.5346 427.9 72.5446 427.705 71.6146 427.315C70.7146 426.925 69.9196 426.385 69.2296 425.695C68.5696 425.005 68.0296 424.21 67.6096 423.31C67.2196 422.38 67.0246 421.39 67.0246 420.34V405.04C67.0246 404.2 67.1596 403.39 67.4296 402.61C67.6996 401.8 68.0746 401.08 68.5546 400.45C69.0646 399.79 69.6646 399.235 70.3546 398.785C71.0446 398.305 71.8096 397.96 72.6496 397.75C73.4596 397.54 74.2846 397.465 75.1246 397.525C75.9646 397.555 76.7596 397.735 77.5096 398.065C78.2596 398.365 78.9496 398.785 79.5796 399.325C80.2096 399.865 80.7346 400.51 81.1546 401.26C81.4546 401.77 81.5146 402.31 81.3346 402.88C81.1846 403.45 80.8546 403.9 80.3446 404.23C79.8346 404.53 79.2946 404.605 78.7246 404.455C78.1546 404.275 77.7196 403.93 77.4196 403.42C77.0296 402.79 76.4896 402.34 75.7996 402.07C75.1396 401.77 74.4646 401.725 73.7746 401.935C73.0546 402.115 72.4696 402.505 72.0196 403.105C71.5696 403.675 71.3446 404.32 71.3446 405.04V420.34C71.3446 421.24 71.6596 422.005 72.2896 422.635C72.9496 423.265 73.7146 423.58 74.5846 423.58C75.4846 423.58 76.2496 423.265 76.8796 422.635C77.5096 422.005 77.8246 421.24 77.8246 420.34V415.3H75.4846C74.8846 415.3 74.3746 415.09 73.9546 414.67C73.5346 414.25 73.3246 413.74 73.3246 413.14C73.3246 412.54 73.5346 412.03 73.9546 411.61C74.3746 411.19 74.8846 410.98 75.4846 410.98H79.9846ZM85.4795 425.29C85.4795 424.57 85.7345 423.955 86.2445 423.445C86.7545 422.935 87.3695 422.68 88.0895 422.68C88.8095 422.68 89.4245 422.935 89.9345 423.445C90.4445 423.955 90.6995 424.57 90.6995 425.29C90.6995 426.01 90.4445 426.625 89.9345 427.135C89.4245 427.645 88.8095 427.9 88.0895 427.9C87.3695 427.9 86.7545 427.645 86.2445 427.135C85.7345 426.625 85.4795 426.01 85.4795 425.29ZM96.9268 427.72C96.3268 427.72 95.8168 427.51 95.3968 427.09C94.9768 426.67 94.7668 426.16 94.7668 425.56V399.82C94.7668 399.22 94.9768 398.71 95.3968 398.29C95.8168 397.87 96.3268 397.66 96.9268 397.66H105.927C106.527 397.66 107.037 397.87 107.457 398.29C107.877 398.71 108.087 399.22 108.087 399.82C108.087 400.42 107.877 400.93 107.457 401.35C107.037 401.77 106.527 401.98 105.927 401.98H99.0868V410.08H105.027C105.627 410.08 106.137 410.29 106.557 410.71C106.977 411.13 107.187 411.64 107.187 412.24C107.187 412.84 106.977 413.35 106.557 413.77C106.137 414.19 105.627 414.4 105.027 414.4H99.0868V425.56C99.0868 426.16 98.8768 426.67 98.4568 427.09C98.0368 427.51 97.5268 427.72 96.9268 427.72ZM113.143 427.72C112.543 427.72 112.033 427.51 111.613 427.09C111.193 426.67 110.983 426.16 110.983 425.56V399.64C110.983 399.04 111.193 398.53 111.613 398.11C112.033 397.69 112.543 397.48 113.143 397.48C113.743 397.48 114.253 397.69 114.673 398.11C115.093 398.53 115.303 399.04 115.303 399.64V423.4H122.143C122.743 423.4 123.253 423.61 123.673 424.03C124.093 424.45 124.303 424.96 124.303 425.56C124.303 426.16 124.093 426.67 123.673 427.09C123.253 427.51 122.743 427.72 122.143 427.72H113.143Z" fill="#1C1B1B"/>
<line x1="195" y1="290" x2="132.7" y2="290" stroke="#1C1B1B" stroke-width="2"/>
<path d="M125 290L135.5 287.402L135.5 292.598L125 290Z" fill="#1C1B1B"/>
<line y1="-1" x2="40.6038" y2="-1" transform="matrix(-0.859693 -0.510811 -0.510811 0.859693 133.346 130.038)" stroke="#1C1B1B" stroke-width="2"/>
<path d="M92.4974 104.519L99.5788 111.679L102.171 107.315L92.4974 104.519Z" fill="#1C1B1B"/>
<line y1="-1" x2="40.5771" y2="-1" transform="matrix(0.258819 -0.965926 -0.965926 -0.258819 158.77 118.836)" stroke="#1C1B1B" stroke-width="2"/>
<path d="M172.252 72.7584L167.28 81.5084L172.182 82.8219L172.252 72.7584Z" fill="#1C1B1B"/>
<path d="M149.14 139.19L148.48 138.77L148.06 139.37C147.28 140.54 146.59 141.17 146.14 141.17C145.9 141.17 145.69 140.96 145.69 140.72C145.69 140.45 145.84 139.67 145.96 139.16L148.69 129.14C147.07 129.5 144.97 129.8 142.63 129.98L142.63 130.79L143.02 130.79C143.92 130.79 144.4 131.09 144.4 131.66C144.4 131.9 144.31 132.35 144.19 132.86L142.45 139.31C142.21 140.18 142.06 140.96 142.06 141.38C142.06 142.52 142.9 143.27 144.13 143.27C145.93 143.27 147.04 142.37 149.14 139.19ZM149.98 125.3C149.98 124.19 149.05 123.26 147.91 123.26C146.86 123.26 145.93 124.19 145.93 125.24C145.93 126.41 146.8 127.31 147.91 127.31C149.05 127.31 149.98 126.41 149.98 125.3ZM156.2 139.19L155.54 138.77C154.52 140.36 153.74 141.17 153.26 141.17C153.02 141.17 152.78 140.96 152.78 140.72C152.78 140.15 153.32 138.08 154.4 134.36L155.39 130.79L157.88 130.79L157.88 129.53L155.72 129.53L156.89 125.18L155.84 125.18C154.22 127.58 152.72 128.84 150.35 129.74L150.35 130.79L151.88 130.79L149.84 137.93C149.39 139.49 149.12 140.78 149.12 141.32C149.12 142.49 149.96 143.27 151.22 143.27C153.02 143.27 154.22 142.28 156.2 139.19Z" fill="#1C1B1B"/>
<path fill-rule="evenodd" clip-rule="evenodd" d="M290.603 413.796C295.062 401.736 299.344 393.15 305.651 386.836C311.915 380.565 320.085 376.625 332.135 373.624L332.035 372.785L341.801 373.308L332.428 376.1L332.372 375.627C320.649 378.572 312.935 382.375 307.066 388.249C301.078 394.244 296.917 402.488 292.478 414.49L290.603 413.796Z" fill="#1C1B1B"/>
<path fill-rule="evenodd" clip-rule="evenodd" d="M344.603 447.796C349.062 435.736 353.344 427.15 359.651 420.836C365.915 414.565 374.085 410.625 386.135 407.624L386.035 406.785L395.801 407.308L386.428 410.1L386.372 409.627C374.649 412.572 366.935 416.375 361.066 422.249C355.078 428.244 350.917 436.488 346.478 448.49L344.603 447.796Z" fill="#1C1B1B"/>
<path fill-rule="evenodd" clip-rule="evenodd" d="M233.603 378.796C238.062 366.736 242.344 358.15 248.651 351.836C254.915 345.565 263.085 341.625 275.135 338.624L275.035 337.785L284.801 338.308L275.428 341.1L275.372 340.627C263.649 343.572 255.935 347.375 250.066 353.249C244.078 359.244 239.917 367.488 235.478 379.49L233.603 378.796Z" fill="#1C1B1B"/>
<path fill-rule="evenodd" clip-rule="evenodd" d="M595.583 277.707C583.503 281.911 574.88 286.004 568.478 292.157C562.121 298.268 558.045 306.319 554.828 318.247L554 318.133L554.333 327.855L557.289 318.587L556.826 318.523C559.98 306.921 563.91 299.322 569.864 293.599C575.941 287.759 584.218 283.78 596.24 279.596L595.583 277.707Z" fill="#1C1B1B"/>
<path fill-rule="evenodd" clip-rule="evenodd" d="M541.583 245.707C529.503 249.911 520.88 254.004 514.478 260.157C508.121 266.268 504.045 274.319 500.828 286.247L500 286.133L500.333 295.855L503.289 286.587L502.826 286.523C505.98 274.921 509.91 267.322 515.864 261.599C521.941 255.759 530.218 251.78 542.24 247.596L541.583 245.707Z" fill="#1C1B1B"/>
<path fill-rule="evenodd" clip-rule="evenodd" d="M482.583 213.707C470.503 217.911 461.88 222.004 455.478 228.157C449.121 234.268 445.045 242.319 441.828 254.247L441 254.133L441.333 263.855L444.289 254.587L443.826 254.523C446.98 242.921 450.91 235.322 456.864 229.599C462.941 223.759 471.218 219.78 483.24 215.596L482.583 213.707Z" fill="#1C1B1B"/>
<path d="M291.32 433.588C291.32 431.398 289.94 429.868 287.96 429.868C286.43 429.868 285.35 430.558 283.82 432.598L286.52 422.758C284.42 423.148 282.95 423.358 280.28 423.658V424.468H280.82C281.72 424.468 282.17 424.768 282.17 425.368C282.17 425.758 281.81 427.258 281 430.078L278.18 439.888C277.88 440.968 277.58 442.138 277.58 442.318C277.58 443.158 279.74 444.118 281.72 444.118C286.61 444.118 291.32 438.958 291.32 433.588ZM287.57 433.978C287.57 435.748 286.76 438.538 285.68 440.398C284.66 442.228 283.49 443.128 282.2 443.128C281.66 443.128 281.27 442.798 281.27 442.318C281.27 441.958 281.78 439.618 282.11 438.448C282.5 437.098 283.1 435.448 283.58 434.428C284.33 432.778 285.26 431.908 286.25 431.908C287.12 431.908 287.57 432.598 287.57 433.978ZM302.48 440.038L301.64 439.498C300.2 441.508 299.27 442.198 297.98 442.198C296.66 442.198 295.79 441.118 295.79 439.528C295.79 437.638 296.57 434.938 297.65 432.988C298.46 431.578 299.3 430.858 300.23 430.858C300.59 430.858 300.89 431.068 300.89 431.368C300.89 431.488 300.83 431.668 300.65 431.938C300.38 432.418 300.26 432.748 300.26 433.108C300.26 434.008 300.98 434.668 302 434.668C303.11 434.668 303.86 433.828 303.86 432.568C303.86 430.978 302.51 429.868 300.5 429.868C296.27 429.868 291.95 434.788 291.95 439.588C291.95 442.258 293.81 444.118 296.54 444.118C297.86 444.118 299.15 443.638 300.17 442.768C300.95 442.108 301.43 441.538 302.48 440.038Z" fill="#1C1B1B"/>
<path d="M353.66 474.068L353 473.678C352.88 473.828 352.76 474.008 352.64 474.218C351.95 475.328 351.32 475.958 350.93 475.958C350.66 475.958 350.45 475.778 350.45 475.538C350.45 475.208 350.45 475.208 351.08 473.198L352.43 469.208C352.88 467.918 353.12 466.778 353.12 465.998C353.12 464.768 352.13 463.868 350.81 463.868C348.77 463.868 347.36 465.068 344.87 469.028C345.47 467.468 345.65 466.748 345.65 465.908C345.65 464.648 344.9 463.868 343.64 463.868C342.8 463.868 341.9 464.198 341.06 464.888C339.95 465.728 339.05 466.838 337.1 469.868L339.02 463.898C337.13 464.348 336.41 464.438 333.02 464.708V465.518C333.8 465.518 334.64 465.578 334.64 466.268C334.64 466.718 334.4 467.678 333.59 470.588L331.58 477.728H335.21C336.8 472.058 337.91 469.508 339.62 467.468C340.28 466.688 341.12 466.058 341.57 466.058C341.87 466.058 342.11 466.358 342.11 466.718C342.11 467.228 341.75 468.488 340.76 471.518L338.81 477.728H342.41C344.15 471.968 344.36 471.428 345.44 469.538C346.7 467.288 347.9 466.058 348.8 466.058C349.16 466.058 349.49 466.358 349.49 466.688C349.49 466.868 349.4 467.198 349.28 467.588L347.93 471.518C347.27 473.438 346.85 475.238 346.85 476.108C346.85 477.338 347.57 477.998 348.86 477.998C350.72 477.998 351.92 477.008 353.66 474.068Z" fill="#1C1B1B"/>
<path d="M617.433 273.86C617.433 271.67 616.053 270.14 614.073 270.14C612.543 270.14 611.463 270.83 609.933 272.87L612.633 263.03C610.533 263.42 609.063 263.63 606.393 263.93V264.74H606.933C607.833 264.74 608.283 265.04 608.283 265.64C608.283 266.03 607.923 267.53 607.113 270.35L604.293 280.16C603.993 281.24 603.693 282.41 603.693 282.59C603.693 283.43 605.853 284.39 607.833 284.39C612.723 284.39 617.433 279.23 617.433 273.86ZM613.683 274.25C613.683 276.02 612.873 278.81 611.793 280.67C610.773 282.5 609.603 283.4 608.313 283.4C607.773 283.4 607.383 283.07 607.383 282.59C607.383 282.23 607.893 279.89 608.223 278.72C608.613 277.37 609.213 275.72 609.693 274.7C610.443 273.05 611.373 272.18 612.363 272.18C613.233 272.18 613.683 272.87 613.683 274.25ZM631.593 265.46C631.593 263.99 630.453 263.06 628.623 263.06C627.063 263.06 625.623 263.69 624.543 264.89C623.283 266.27 622.713 267.5 621.843 270.53H619.653L619.383 271.79H621.573L618.933 283.55C618.003 287.99 617.433 289.22 616.233 289.22C615.933 289.22 615.693 289.07 615.693 288.89C615.693 288.89 615.753 288.74 615.813 288.62C616.053 288.26 616.173 287.93 616.173 287.6C616.173 286.88 615.453 286.16 614.673 286.16C613.863 286.16 613.143 286.91 613.143 287.78C613.143 289.22 614.313 290.15 616.113 290.15C617.433 290.15 618.573 289.7 619.533 288.77C620.613 287.72 621.303 286.37 622.233 283.61C623.043 281.18 623.403 279.74 625.083 271.79H627.783L628.053 270.53H625.293L625.833 268.4C626.583 265.43 627.483 263.93 628.563 263.93C628.863 263.93 629.073 264.08 629.073 264.32C629.073 264.32 629.043 264.47 628.923 264.65C628.683 265.01 628.593 265.28 628.593 265.58C628.593 266.42 629.223 267.05 630.063 267.05C630.963 267.05 631.593 266.39 631.593 265.46Z" fill="#1C1B1B"/>
<path d="M557.253 248.19L556.593 247.77L556.173 248.37C555.393 249.54 554.703 250.17 554.253 250.17C554.013 250.17 553.803 249.96 553.803 249.72C553.803 249.45 553.953 248.67 554.073 248.16L556.803 238.14C555.183 238.5 553.083 238.8 550.743 238.98V239.79H551.133C552.033 239.79 552.513 240.09 552.513 240.66C552.513 240.9 552.423 241.35 552.303 241.86L550.563 248.31C550.323 249.18 550.173 249.96 550.173 250.38C550.173 251.52 551.013 252.27 552.243 252.27C554.043 252.27 555.153 251.37 557.253 248.19ZM558.093 234.3C558.093 233.19 557.163 232.26 556.023 232.26C554.973 232.26 554.043 233.19 554.043 234.24C554.043 235.41 554.913 236.31 556.023 236.31C557.163 236.31 558.093 235.41 558.093 234.3ZM565.933 248.43C565.933 247.08 565.183 245.61 563.503 243.66C562.333 242.31 561.823 241.41 561.823 240.72C561.823 239.76 562.453 239.13 563.413 239.13C564.793 239.13 565.573 240.21 566.053 242.7L566.863 242.76L567.553 238.17H566.683C566.353 238.74 566.263 238.8 565.813 238.8C565.513 238.8 565.273 238.74 564.733 238.53C563.983 238.23 563.593 238.14 562.993 238.14C560.563 238.14 558.973 239.61 558.973 241.92C558.973 243.54 559.393 244.38 561.373 246.75C562.513 248.1 563.053 249.12 563.053 249.87C563.053 250.77 562.303 251.49 561.343 251.49C559.813 251.49 558.853 250.17 558.463 247.5L557.653 247.41L556.993 252.39H557.803C557.923 252.03 558.283 251.79 558.673 251.79C558.883 251.79 559.213 251.88 559.603 252.03C560.323 252.27 560.863 252.39 561.493 252.39C564.043 252.39 565.933 250.68 565.933 248.43Z" fill="#1C1B1B"/>
<path d="M504.493 209.77C504.493 207.55 503.233 206.14 501.253 206.14C499.543 206.14 498.223 207.1 496.453 209.59L497.593 206.14L491.803 206.98V207.79C493.153 207.85 493.423 207.97 493.423 208.54C493.423 208.84 493.183 209.92 492.763 211.48L489.763 223.12C489.193 225.1 488.953 225.37 487.513 225.34V226.15H494.983V225.34C493.483 225.31 493.033 225.1 493.033 224.38C493.033 223.96 493.243 223.06 493.813 220.96C494.023 220.24 494.023 220.18 494.143 219.73C495.193 220.27 495.553 220.39 496.183 220.39C500.263 220.39 504.493 214.96 504.493 209.77ZM500.743 209.98C500.623 211.96 499.663 214.93 498.583 216.88C497.653 218.5 496.693 219.34 495.673 219.34C495.013 219.34 494.503 218.86 494.503 218.26C494.503 217.75 494.833 216.52 495.643 213.79C496.303 211.6 496.573 210.85 497.023 210.16C497.773 208.99 498.793 208.21 499.573 208.27C500.353 208.33 500.803 209.02 500.743 209.98ZM518.863 216.64L518.233 216.19C517.003 217.84 516.553 218.29 516.073 218.29C515.833 218.29 515.713 218.11 515.713 217.84C515.713 217.09 515.983 215.86 516.733 213.4L518.863 206.32L515.533 206.53L514.993 208.3C514.723 206.77 514.063 206.14 512.773 206.14C509.083 206.14 504.583 211.9 504.583 216.58C504.583 218.86 505.873 220.39 507.823 220.39C509.653 220.39 511.033 219.31 512.743 216.43C512.383 217.66 512.323 218.02 512.323 218.44C512.323 219.55 513.223 220.42 514.333 220.42C515.743 220.42 517.123 219.25 518.863 216.64ZM514.303 208.81C514.303 210.61 513.313 213.94 512.143 216.01C511.333 217.48 510.433 218.26 509.623 218.26C508.843 218.26 508.273 217.57 508.273 216.64C508.273 215.08 509.263 212.08 510.493 209.86C511.393 208.27 512.383 207.34 513.193 207.4C513.853 207.46 514.303 208 514.303 208.81Z" fill="#1C1B1B"/>
<path d="M234.32 398.588C234.32 396.398 232.94 394.868 230.96 394.868C229.43 394.868 228.35 395.558 226.82 397.598L229.52 387.758C227.42 388.148 225.95 388.358 223.28 388.658V389.468H223.82C224.72 389.468 225.17 389.768 225.17 390.368C225.17 390.758 224.81 392.258 224 395.078L221.18 404.888C220.88 405.968 220.58 407.138 220.58 407.318C220.58 408.158 222.74 409.118 224.72 409.118C229.61 409.118 234.32 403.958 234.32 398.588ZM230.57 398.978C230.57 400.748 229.76 403.538 228.68 405.398C227.66 407.228 226.49 408.128 225.2 408.128C224.66 408.128 224.27 407.798 224.27 407.318C224.27 406.958 224.78 404.618 225.11 403.448C225.5 402.098 226.1 400.448 226.58 399.428C227.33 397.778 228.26 396.908 229.25 396.908C230.12 396.908 230.57 397.598 230.57 398.978ZM246.837 396.878C246.837 395.828 245.967 394.868 245.007 394.868C244.107 394.868 243.327 395.678 243.327 396.608C243.327 397.118 243.507 397.538 244.047 398.138C244.497 398.648 244.647 398.918 244.647 399.248C244.647 400.298 243.837 401.498 240.867 404.888C240.747 399.008 240.567 397.268 239.937 394.868C238.467 395.228 237.777 395.348 235.287 395.708V396.518C236.217 396.518 236.487 396.608 236.697 396.998C237.177 397.958 237.507 400.568 237.507 403.808C237.507 403.928 237.507 404.438 237.477 405.038L237.357 409.118H238.137C241.947 405.488 243.357 403.898 245.007 401.498C246.207 399.758 246.837 398.138 246.837 396.878Z" fill="#1C1B1B"/>
<path d="M445.5 565.72C444.9 565.72 444.39 565.51 443.97 565.09C443.55 564.67 443.34 564.16 443.34 563.56V537.82C443.34 537.22 443.55 536.71 443.97 536.29C444.39 535.87 444.9 535.66 445.5 535.66H454.5C455.1 535.66 455.61 535.87 456.03 536.29C456.45 536.71 456.66 537.22 456.66 537.82C456.66 538.42 456.45 538.93 456.03 539.35C455.61 539.77 455.1 539.98 454.5 539.98H447.66V548.08H453.6C454.2 548.08 454.71 548.29 455.13 548.71C455.55 549.13 455.76 549.64 455.76 550.24C455.76 550.84 455.55 551.35 455.13 551.77C454.71 552.19 454.2 552.4 453.6 552.4H447.66V563.56C447.66 564.16 447.45 564.67 447.03 565.09C446.61 565.51 446.1 565.72 445.5 565.72ZM461.716 565.9C461.116 565.9 460.606 565.69 460.186 565.27C459.766 564.85 459.556 564.34 459.556 563.74V537.64C459.556 537.04 459.766 536.53 460.186 536.11C460.606 535.69 461.116 535.48 461.716 535.48C462.316 535.48 462.826 535.69 463.246 536.11C463.666 536.53 463.876 537.04 463.876 537.64V563.74C463.876 564.34 463.666 564.85 463.246 565.27C462.826 565.69 462.316 565.9 461.716 565.9ZM480.985 548.98C481.585 548.98 482.095 549.19 482.515 549.61C482.935 550.03 483.145 550.54 483.145 551.14V558.34C483.145 559.39 482.95 560.38 482.56 561.31C482.17 562.21 481.63 563.005 480.94 563.695C480.25 564.385 479.44 564.925 478.51 565.315C477.61 565.705 476.635 565.9 475.585 565.9C474.535 565.9 473.545 565.705 472.615 565.315C471.715 564.925 470.92 564.385 470.23 563.695C469.57 563.005 469.03 562.21 468.61 561.31C468.22 560.38 468.025 559.39 468.025 558.34V543.04C468.025 542.2 468.16 541.39 468.43 540.61C468.7 539.8 469.075 539.08 469.555 538.45C470.065 537.79 470.665 537.235 471.355 536.785C472.045 536.305 472.81 535.96 473.65 535.75C474.46 535.54 475.285 535.465 476.125 535.525C476.965 535.555 477.76 535.735 478.51 536.065C479.26 536.365 479.95 536.785 480.58 537.325C481.21 537.865 481.735 538.51 482.155 539.26C482.455 539.77 482.515 540.31 482.335 540.88C482.185 541.45 481.855 541.9 481.345 542.23C480.835 542.53 480.295 542.605 479.725 542.455C479.155 542.275 478.72 541.93 478.42 541.42C478.03 540.79 477.49 540.34 476.8 540.07C476.14 539.77 475.465 539.725 474.775 539.935C474.055 540.115 473.47 540.505 473.02 541.105C472.57 541.675 472.345 542.32 472.345 543.04V558.34C472.345 559.24 472.66 560.005 473.29 560.635C473.95 561.265 474.715 561.58 475.585 561.58C476.485 561.58 477.25 561.265 477.88 560.635C478.51 560.005 478.825 559.24 478.825 558.34V553.3H476.485C475.885 553.3 475.375 553.09 474.955 552.67C474.535 552.25 474.325 551.74 474.325 551.14C474.325 550.54 474.535 550.03 474.955 549.61C475.375 549.19 475.885 548.98 476.485 548.98H480.985ZM486.48 563.29C486.48 562.57 486.735 561.955 487.245 561.445C487.755 560.935 488.37 560.68 489.09 560.68C489.81 560.68 490.425 560.935 490.935 561.445C491.445 561.955 491.7 562.57 491.7 563.29C491.7 564.01 491.445 564.625 490.935 565.135C490.425 565.645 489.81 565.9 489.09 565.9C488.37 565.9 487.755 565.645 487.245 565.135C486.735 564.625 486.48 564.01 486.48 563.29ZM500.807 565.63C499.997 565.42 499.247 565.09 498.557 564.64C497.867 564.16 497.267 563.605 496.757 562.975C496.277 562.315 495.902 561.595 495.632 560.815C495.362 560.035 495.227 559.21 495.227 558.34V543.04C495.227 542.2 495.362 541.39 495.632 540.61C495.902 539.8 496.277 539.08 496.757 538.45C497.267 537.79 497.867 537.235 498.557 536.785C499.247 536.305 499.997 535.96 500.807 535.75C502.487 535.3 504.107 535.405 505.667 536.065C507.227 536.695 508.442 537.76 509.312 539.26C509.642 539.77 509.717 540.31 509.537 540.88C509.387 541.45 509.057 541.9 508.547 542.23C508.037 542.53 507.497 542.605 506.927 542.455C506.357 542.275 505.907 541.93 505.577 541.42C505.217 540.79 504.692 540.34 504.002 540.07C503.342 539.77 502.652 539.725 501.932 539.935C501.242 540.115 500.672 540.505 500.222 541.105C499.772 541.675 499.547 542.32 499.547 543.04V558.34C499.547 559.09 499.772 559.75 500.222 560.32C500.672 560.89 501.242 561.28 501.932 561.49C502.652 561.67 503.342 561.625 504.002 561.355C504.692 561.055 505.217 560.59 505.577 559.96C505.907 559.45 506.357 559.12 506.927 558.97C507.497 558.79 508.037 558.85 508.547 559.15C509.057 559.48 509.387 559.93 509.537 560.5C509.717 561.07 509.642 561.61 509.312 562.12C508.442 563.62 507.227 564.685 505.667 565.315C504.107 565.975 502.487 566.08 500.807 565.63ZM518.121 565.63C517.311 565.42 516.561 565.09 515.871 564.64C515.181 564.16 514.581 563.605 514.071 562.975C513.591 562.315 513.216 561.595 512.946 560.815C512.676 560.035 512.541 559.21 512.541 558.34V543.04C512.541 542.2 512.676 541.39 512.946 540.61C513.216 539.8 513.591 539.08 514.071 538.45C514.581 537.79 515.181 537.235 515.871 536.785C516.561 536.305 517.311 535.96 518.121 535.75C519.801 535.3 521.421 535.405 522.981 536.065C524.541 536.695 525.756 537.76 526.626 539.26C526.956 539.77 527.031 540.31 526.851 540.88C526.701 541.45 526.371 541.9 525.861 542.23C525.351 542.53 524.811 542.605 524.241 542.455C523.671 542.275 523.221 541.93 522.891 541.42C522.531 540.79 522.006 540.34 521.316 540.07C520.656 539.77 519.966 539.725 519.246 539.935C518.556 540.115 517.986 540.505 517.536 541.105C517.086 541.675 516.861 542.32 516.861 543.04V558.34C516.861 559.09 517.086 559.75 517.536 560.32C517.986 560.89 518.556 561.28 519.246 561.49C519.966 561.67 520.656 561.625 521.316 561.355C522.006 561.055 522.531 560.59 522.891 559.96C523.221 559.45 523.671 559.12 524.241 558.97C524.811 558.79 525.351 558.85 525.861 559.15C526.371 559.48 526.701 559.93 526.851 560.5C527.031 561.07 526.956 561.61 526.626 562.12C525.756 563.62 524.541 564.685 522.981 565.315C521.421 565.975 519.801 566.08 518.121 565.63Z" fill="#1C1B1B"/>
</g>
<defs>
<clipPath id="clip0">
<rect width="840" height="1125" fill="white"/>
</clipPath>
</defs>
</svg>
