<svg width="840" height="752" viewBox="0 0 840 752" fill="none" xmlns="http://www.w3.org/2000/svg">
<g clip-path="url(#clip0)">
<path fill-rule="evenodd" clip-rule="evenodd" d="M261.381 165.837C256.507 163.394 253.432 160.159 251.359 156.43C248.967 152.126 247.937 147.196 246.917 142.309C246.819 141.842 246.722 141.375 246.624 140.91C245.481 135.512 244.183 130.169 241.028 125.346C237.892 120.554 232.866 116.196 224.129 112.92L224.831 111.048C233.908 114.451 239.301 119.054 242.701 124.251C246.082 129.418 247.437 135.095 248.58 140.496C248.677 140.952 248.772 141.405 248.866 141.856C249.902 146.804 250.871 151.434 253.107 155.458C254.959 158.791 257.702 161.732 262.173 163.997L262.814 162.507L271.187 168.984L260.726 167.359L261.381 165.837Z" fill="#1C1B1B"/>
<path fill-rule="evenodd" clip-rule="evenodd" d="M486.501 244.594C484.149 231.797 481.373 222.495 476.182 215.107C471.187 207.997 464.028 202.757 453.131 197.812L453.729 196.448L443.088 194.569L451.676 201.127L452.327 199.644C463.028 204.502 469.834 209.549 474.546 216.257C479.477 223.276 482.193 232.219 484.534 244.955L486.501 244.594Z" fill="#1C1B1B"/>
<path d="M352.998 13L377.891 13L377.891 62.807" stroke="#1C1B1B" stroke-width="2"/>
<path d="M377.895 71L375.699 60.8525L380.09 60.8525L377.895 71Z" fill="#1C1B1B"/>
<path d="M44.5 361L26 361L26 410.5" stroke="#1C1B1B" stroke-width="2"/>
<path d="M54.5293 361.035L44.3818 363.663L44.3818 358.407L54.5293 361.035Z" fill="#1C1B1B"/>
<path d="M374.5 612.5L374.5 594L325 594" stroke="#1C1B1B" stroke-width="2"/>
<path d="M374.465 622.53L371.837 612.383L377.093 612.383L374.465 622.53Z" fill="#1C1B1B"/>
<path d="M490.38 259.77C490.38 257.55 489.12 256.14 487.14 256.14C485.43 256.14 484.11 257.1 482.34 259.59L483.48 256.14L477.69 256.98V257.79C479.04 257.85 479.31 257.97 479.31 258.54C479.31 258.84 479.07 259.92 478.65 261.48L475.65 273.12C475.08 275.1 474.84 275.37 473.4 275.34V276.15H480.87V275.34C479.37 275.31 478.92 275.1 478.92 274.38C478.92 273.96 479.13 273.06 479.7 270.96C479.91 270.24 479.91 270.18 480.03 269.73C481.08 270.27 481.44 270.39 482.07 270.39C486.15 270.39 490.38 264.96 490.38 259.77ZM486.63 259.98C486.51 261.96 485.55 264.93 484.47 266.88C483.54 268.5 482.58 269.34 481.56 269.34C480.9 269.34 480.39 268.86 480.39 268.26C480.39 267.75 480.72 266.52 481.53 263.79C482.19 261.6 482.46 260.85 482.91 260.16C483.66 258.99 484.68 258.21 485.46 258.27C486.24 258.33 486.69 259.02 486.63 259.98ZM504.75 266.64L504.12 266.19C502.89 267.84 502.44 268.29 501.96 268.29C501.72 268.29 501.6 268.11 501.6 267.84C501.6 267.09 501.87 265.86 502.62 263.4L504.75 256.32L501.42 256.53L500.88 258.3C500.61 256.77 499.95 256.14 498.66 256.14C494.97 256.14 490.47 261.9 490.47 266.58C490.47 268.86 491.76 270.39 493.71 270.39C495.54 270.39 496.92 269.31 498.63 266.43C498.27 267.66 498.21 268.02 498.21 268.44C498.21 269.55 499.11 270.42 500.22 270.42C501.63 270.42 503.01 269.25 504.75 266.64ZM500.19 258.81C500.19 260.61 499.2 263.94 498.03 266.01C497.22 267.48 496.32 268.26 495.51 268.26C494.73 268.26 494.16 267.57 494.16 266.64C494.16 265.08 495.15 262.08 496.38 259.86C497.28 258.27 498.27 257.34 499.08 257.4C499.74 257.46 500.19 258 500.19 258.81Z" fill="#1C1B1B"/>
<path d="M338.38 15.31L337.54 14.77C336.1 16.78 335.17 17.47 333.88 17.47C332.56 17.47 331.69 16.39 331.69 14.8C331.69 12.91 332.47 10.21 333.55 8.26C334.36 6.85 335.2 6.13 336.13 6.13C336.49 6.13 336.79 6.34 336.79 6.64C336.79 6.76 336.73 6.94 336.55 7.21C336.28 7.69 336.16 8.02 336.16 8.38C336.16 9.28 336.88 9.94 337.9 9.94C339.01 9.94 339.76 9.1 339.76 7.84C339.76 6.25 338.41 5.14 336.4 5.14C332.17 5.14 327.85 10.06 327.85 14.86C327.85 17.53 329.71 19.39 332.44 19.39C333.76 19.39 335.05 18.91 336.07 18.04C336.85 17.38 337.33 16.81 338.38 15.31Z" fill="#1C1B1B"/>
<path d="M203.37 110.43C203.37 109.08 202.62 107.61 200.94 105.66C199.77 104.31 199.26 103.41 199.26 102.72C199.26 101.76 199.89 101.13 200.85 101.13C202.23 101.13 203.01 102.21 203.49 104.7L204.3 104.76L204.99 100.17H204.12C203.79 100.74 203.7 100.8 203.25 100.8C202.95 100.8 202.71 100.74 202.17 100.53C201.42 100.23 201.03 100.14 200.43 100.14C198 100.14 196.41 101.61 196.41 103.92C196.41 105.54 196.83 106.38 198.81 108.75C199.95 110.1 200.49 111.12 200.49 111.87C200.49 112.77 199.74 113.49 198.78 113.49C197.25 113.49 196.29 112.17 195.9 109.5L195.09 109.41L194.43 114.39H195.24C195.36 114.03 195.72 113.79 196.11 113.79C196.32 113.79 196.65 113.88 197.04 114.03C197.76 114.27 198.3 114.39 198.93 114.39C201.48 114.39 203.37 112.68 203.37 110.43ZM214.13 110.43C214.13 109.08 213.38 107.61 211.7 105.66C210.53 104.31 210.02 103.41 210.02 102.72C210.02 101.76 210.65 101.13 211.61 101.13C212.99 101.13 213.77 102.21 214.25 104.7L215.06 104.76L215.75 100.17H214.88C214.55 100.74 214.46 100.8 214.01 100.8C213.71 100.8 213.47 100.74 212.93 100.53C212.18 100.23 211.79 100.14 211.19 100.14C208.76 100.14 207.17 101.61 207.17 103.92C207.17 105.54 207.59 106.38 209.57 108.75C210.71 110.1 211.25 111.12 211.25 111.87C211.25 112.77 210.5 113.49 209.54 113.49C208.01 113.49 207.05 112.17 206.66 109.5L205.85 109.41L205.19 114.39H206C206.12 114.03 206.48 113.79 206.87 113.79C207.08 113.79 207.41 113.88 207.8 114.03C208.52 114.27 209.06 114.39 209.69 114.39C212.24 114.39 214.13 112.68 214.13 110.43Z" fill="#1C1B1B"/>
<path d="M312.5 355.72C311.9 355.72 311.39 355.51 310.97 355.09C310.55 354.67 310.34 354.16 310.34 353.56V327.82C310.34 327.22 310.55 326.71 310.97 326.29C311.39 325.87 311.9 325.66 312.5 325.66H321.5C322.1 325.66 322.61 325.87 323.03 326.29C323.45 326.71 323.66 327.22 323.66 327.82C323.66 328.42 323.45 328.93 323.03 329.35C322.61 329.77 322.1 329.98 321.5 329.98H314.66V338.08H320.6C321.2 338.08 321.71 338.29 322.13 338.71C322.55 339.13 322.76 339.64 322.76 340.24C322.76 340.84 322.55 341.35 322.13 341.77C321.71 342.19 321.2 342.4 320.6 342.4H314.66V353.56C314.66 354.16 314.45 354.67 314.03 355.09C313.61 355.51 313.1 355.72 312.5 355.72ZM328.716 355.9C328.116 355.9 327.606 355.69 327.186 355.27C326.766 354.85 326.556 354.34 326.556 353.74V327.64C326.556 327.04 326.766 326.53 327.186 326.11C327.606 325.69 328.116 325.48 328.716 325.48C329.316 325.48 329.826 325.69 330.246 326.11C330.666 326.53 330.876 327.04 330.876 327.64V353.74C330.876 354.34 330.666 354.85 330.246 355.27C329.826 355.69 329.316 355.9 328.716 355.9ZM347.985 338.98C348.585 338.98 349.095 339.19 349.515 339.61C349.935 340.03 350.145 340.54 350.145 341.14V348.34C350.145 349.39 349.95 350.38 349.56 351.31C349.17 352.21 348.63 353.005 347.94 353.695C347.25 354.385 346.44 354.925 345.51 355.315C344.61 355.705 343.635 355.9 342.585 355.9C341.535 355.9 340.545 355.705 339.615 355.315C338.715 354.925 337.92 354.385 337.23 353.695C336.57 353.005 336.03 352.21 335.61 351.31C335.22 350.38 335.025 349.39 335.025 348.34V333.04C335.025 332.2 335.16 331.39 335.43 330.61C335.7 329.8 336.075 329.08 336.555 328.45C337.065 327.79 337.665 327.235 338.355 326.785C339.045 326.305 339.81 325.96 340.65 325.75C341.46 325.54 342.285 325.465 343.125 325.525C343.965 325.555 344.76 325.735 345.51 326.065C346.26 326.365 346.95 326.785 347.58 327.325C348.21 327.865 348.735 328.51 349.155 329.26C349.455 329.77 349.515 330.31 349.335 330.88C349.185 331.45 348.855 331.9 348.345 332.23C347.835 332.53 347.295 332.605 346.725 332.455C346.155 332.275 345.72 331.93 345.42 331.42C345.03 330.79 344.49 330.34 343.8 330.07C343.14 329.77 342.465 329.725 341.775 329.935C341.055 330.115 340.47 330.505 340.02 331.105C339.57 331.675 339.345 332.32 339.345 333.04V348.34C339.345 349.24 339.66 350.005 340.29 350.635C340.95 351.265 341.715 351.58 342.585 351.58C343.485 351.58 344.25 351.265 344.88 350.635C345.51 350.005 345.825 349.24 345.825 348.34V343.3H343.485C342.885 343.3 342.375 343.09 341.955 342.67C341.535 342.25 341.325 341.74 341.325 341.14C341.325 340.54 341.535 340.03 341.955 339.61C342.375 339.19 342.885 338.98 343.485 338.98H347.985ZM353.48 353.29C353.48 352.57 353.735 351.955 354.245 351.445C354.755 350.935 355.37 350.68 356.09 350.68C356.81 350.68 357.425 350.935 357.935 351.445C358.445 351.955 358.7 352.57 358.7 353.29C358.7 354.01 358.445 354.625 357.935 355.135C357.425 355.645 356.81 355.9 356.09 355.9C355.37 355.9 354.755 355.645 354.245 355.135C353.735 354.625 353.48 354.01 353.48 353.29ZM364.927 355.9C364.327 355.9 363.817 355.69 363.397 355.27C362.977 354.85 362.767 354.34 362.767 353.74V327.64C362.767 327.13 362.917 326.68 363.217 326.29C363.517 325.9 363.922 325.645 364.432 325.525C364.942 325.405 365.422 325.465 365.872 325.705C366.322 325.915 366.652 326.26 366.862 326.74C367.462 328.06 368.077 329.365 368.707 330.655C369.217 331.795 369.787 333.01 370.417 334.3C371.047 335.56 371.617 336.745 372.127 337.855C372.637 336.745 373.192 335.56 373.792 334.3C374.422 333.01 374.992 331.795 375.502 330.655C376.102 329.365 376.717 328.06 377.347 326.74C377.587 326.26 377.917 325.915 378.337 325.705C378.787 325.465 379.267 325.405 379.777 325.525C380.287 325.645 380.692 325.9 380.992 326.29C381.322 326.68 381.487 327.13 381.487 327.64V353.74C381.487 354.34 381.277 354.85 380.857 355.27C380.437 355.69 379.927 355.9 379.327 355.9C378.727 355.9 378.217 355.69 377.797 355.27C377.377 354.85 377.167 354.34 377.167 353.74V337.315C376.777 338.125 376.402 338.92 376.042 339.7C375.682 340.48 375.352 341.17 375.052 341.77C374.722 342.49 374.392 343.18 374.062 343.84C373.882 344.23 373.612 344.545 373.252 344.785C372.922 344.995 372.547 345.1 372.127 345.1C371.197 345.1 370.537 344.68 370.147 343.84C369.817 343.18 369.487 342.49 369.157 341.77C368.857 341.17 368.527 340.48 368.167 339.7C367.807 338.92 367.447 338.125 367.087 337.315V353.74C367.087 354.34 366.877 354.85 366.457 355.27C366.037 355.69 365.527 355.9 364.927 355.9ZM386.146 327.82C386.146 327.22 386.356 326.71 386.776 326.29C387.196 325.87 387.706 325.66 388.306 325.66H393.706C394.756 325.66 395.731 325.855 396.631 326.245C397.561 326.635 398.371 327.175 399.061 327.865C399.751 328.555 400.291 329.365 400.681 330.295C401.071 331.195 401.266 332.17 401.266 333.22V335.74C401.266 336.79 401.071 337.78 400.681 338.71C400.291 339.61 399.751 340.405 399.061 341.095C398.371 341.785 397.561 342.325 396.631 342.715C395.731 343.105 394.756 343.3 393.706 343.3H390.466V353.74C390.466 354.34 390.256 354.85 389.836 355.27C389.416 355.69 388.906 355.9 388.306 355.9C387.706 355.9 387.196 355.69 386.776 355.27C386.356 354.85 386.146 354.34 386.146 353.74V327.82ZM396.946 333.22C396.946 332.32 396.631 331.555 396.001 330.925C395.371 330.295 394.606 329.98 393.706 329.98H390.466V338.98H393.706C394.606 338.98 395.371 338.665 396.001 338.035C396.631 337.405 396.946 336.64 396.946 335.74V333.22Z" fill="#1C1B1B"/>
<path fill-rule="evenodd" clip-rule="evenodd" d="M118.439 245.202C123.973 246.073 127.951 248.287 131.089 251.297C134.647 254.711 137.085 259.126 139.503 263.502L139.503 263.503L139.503 263.504C139.734 263.922 139.965 264.339 140.196 264.755C142.88 269.585 145.698 274.316 150.14 278.002C154.554 281.665 160.649 284.354 169.978 284.913L169.858 286.91C160.167 286.328 153.649 283.513 148.863 279.541C144.104 275.592 141.133 270.559 138.448 265.727C138.221 265.319 137.997 264.913 137.773 264.509L137.773 264.509L137.773 264.509C135.323 260.078 133.031 255.932 129.704 252.74C126.896 250.046 123.323 248.013 118.225 247.193L118.04 248.901L108.117 245.168L118.608 243.64L118.439 245.202Z" fill="#1C1B1B"/>
<line x1="170.086" y1="381.085" x2="129.108" y2="388.078" stroke="#1C1B1B" stroke-width="2"/>
<path d="M121.505 389.474L130.903 385.235L131.777 390.357L121.505 389.474Z" fill="#1C1B1B"/>
<line x1="204.377" y1="393.984" x2="230.905" y2="425.955" stroke="#1C1B1B" stroke-width="2"/>
<path d="M235.851 431.722L227.485 425.708L231.484 422.39L235.851 431.722Z" fill="#1C1B1B"/>
<path d="M189.14 290.19L188.48 289.77L188.06 290.37C187.28 291.54 186.59 292.17 186.14 292.17C185.9 292.17 185.69 291.96 185.69 291.72C185.69 291.45 185.84 290.67 185.96 290.16L188.69 280.14C187.07 280.5 184.97 280.8 182.63 280.98V281.79H183.02C183.92 281.79 184.4 282.09 184.4 282.66C184.4 282.9 184.31 283.35 184.19 283.86L182.45 290.31C182.21 291.18 182.06 291.96 182.06 292.38C182.06 293.52 182.9 294.27 184.13 294.27C185.93 294.27 187.04 293.37 189.14 290.19ZM189.98 276.3C189.98 275.19 189.05 274.26 187.91 274.26C186.86 274.26 185.93 275.19 185.93 276.24C185.93 277.41 186.8 278.31 187.91 278.31C189.05 278.31 189.98 277.41 189.98 276.3ZM199.83 290.31L198.99 289.77C197.55 291.78 196.62 292.47 195.33 292.47C194.01 292.47 193.14 291.39 193.14 289.8C193.14 287.91 193.92 285.21 195 283.26C195.81 281.85 196.65 281.13 197.58 281.13C197.94 281.13 198.24 281.34 198.24 281.64C198.24 281.76 198.18 281.94 198 282.21C197.73 282.69 197.61 283.02 197.61 283.38C197.61 284.28 198.33 284.94 199.35 284.94C200.46 284.94 201.21 284.1 201.21 282.84C201.21 281.25 199.86 280.14 197.85 280.14C193.62 280.14 189.3 285.06 189.3 289.86C189.3 292.53 191.16 294.39 193.89 294.39C195.21 294.39 196.5 293.91 197.52 293.04C198.3 292.38 198.78 291.81 199.83 290.31Z" fill="#1C1B1B"/>
<path d="M193.65 383.64L193.02 383.19C191.79 384.84 191.34 385.29 190.86 385.29C190.62 385.29 190.5 385.11 190.5 384.84C190.5 384.09 190.77 382.86 191.52 380.4L193.65 373.32L190.32 373.53L189.78 375.3C189.51 373.77 188.85 373.14 187.56 373.14C183.87 373.14 179.37 378.9 179.37 383.58C179.37 385.86 180.66 387.39 182.61 387.39C184.44 387.39 185.82 386.31 187.53 383.43C187.17 384.66 187.11 385.02 187.11 385.44C187.11 386.55 188.01 387.42 189.12 387.42C190.53 387.42 191.91 386.25 193.65 383.64ZM189.09 375.81C189.09 377.61 188.1 380.94 186.93 383.01C186.12 384.48 185.22 385.26 184.41 385.26C183.63 385.26 183.06 384.57 183.06 383.64C183.06 382.08 184.05 379.08 185.28 376.86C186.18 375.27 187.17 374.34 187.98 374.4C188.64 374.46 189.09 375 189.09 375.81ZM207.75 383.64L207.12 383.19C205.89 384.84 205.44 385.29 204.96 385.29C204.72 385.29 204.6 385.11 204.6 384.84C204.6 384.09 204.87 382.86 205.62 380.4L207.75 373.32L204.42 373.53L203.88 375.3C203.61 373.77 202.95 373.14 201.66 373.14C197.97 373.14 193.47 378.9 193.47 383.58C193.47 385.86 194.76 387.39 196.71 387.39C198.54 387.39 199.92 386.31 201.63 383.43C201.27 384.66 201.21 385.02 201.21 385.44C201.21 386.55 202.11 387.42 203.22 387.42C204.63 387.42 206.01 386.25 207.75 383.64ZM203.19 375.81C203.19 377.61 202.2 380.94 201.03 383.01C200.22 384.48 199.32 385.26 198.51 385.26C197.73 385.26 197.16 384.57 197.16 383.64C197.16 382.08 198.15 379.08 199.38 376.86C200.28 375.27 201.27 374.34 202.08 374.4C202.74 374.46 203.19 375 203.19 375.81Z" fill="#1C1B1B"/>
<path d="M28.38 420.46C28.38 418.99 27.24 418.06 25.41 418.06C23.85 418.06 22.41 418.69 21.33 419.89C20.07 421.27 19.5 422.5 18.63 425.53H16.44L16.17 426.79H18.36L15.72 438.55C14.79 442.99 14.22 444.22 13.02 444.22C12.72 444.22 12.48 444.07 12.48 443.89C12.48 443.89 12.54 443.74 12.6 443.62C12.84 443.26 12.96 442.93 12.96 442.6C12.96 441.88 12.24 441.16 11.46 441.16C10.65 441.16 9.93 441.91 9.93 442.78C9.93 444.22 11.1 445.15 12.9 445.15C14.22 445.15 15.36 444.7 16.32 443.77C17.4 442.72 18.09 441.37 19.02 438.61C19.83 436.18 20.19 434.74 21.87 426.79H24.57L24.84 425.53H22.08L22.62 423.4C23.37 420.43 24.27 418.93 25.35 418.93C25.65 418.93 25.86 419.08 25.86 419.32C25.86 419.32 25.83 419.47 25.71 419.65C25.47 420.01 25.38 420.28 25.38 420.58C25.38 421.42 26.01 422.05 26.85 422.05C27.75 422.05 28.38 421.39 28.38 420.46ZM36.9785 435.64L36.3485 435.19C35.1185 436.84 34.6685 437.29 34.1885 437.29C33.9485 437.29 33.8285 437.11 33.8285 436.84C33.8285 436.09 34.0985 434.86 34.8485 432.4L36.9785 425.32L33.6485 425.53L33.1085 427.3C32.8385 425.77 32.1785 425.14 30.8885 425.14C27.1985 425.14 22.6985 430.9 22.6985 435.58C22.6985 437.86 23.9885 439.39 25.9385 439.39C27.7685 439.39 29.1485 438.31 30.8585 435.43C30.4985 436.66 30.4385 437.02 30.4385 437.44C30.4385 438.55 31.3385 439.42 32.4485 439.42C33.8585 439.42 35.2385 438.25 36.9785 435.64ZM32.4185 427.81C32.4185 429.61 31.4285 432.94 30.2585 435.01C29.4485 436.48 28.5485 437.26 27.7385 437.26C26.9585 437.26 26.3885 436.57 26.3885 435.64C26.3885 434.08 27.3785 431.08 28.6085 428.86C29.5085 427.27 30.4985 426.34 31.3085 426.4C31.9685 426.46 32.4185 427 32.4185 427.81Z" fill="#1C1B1B"/>
<path d="M42.5 140.72C41.9 140.72 41.39 140.51 40.97 140.09C40.55 139.67 40.34 139.16 40.34 138.56V112.82C40.34 112.22 40.55 111.71 40.97 111.29C41.39 110.87 41.9 110.66 42.5 110.66H51.5C52.1 110.66 52.61 110.87 53.03 111.29C53.45 111.71 53.66 112.22 53.66 112.82C53.66 113.42 53.45 113.93 53.03 114.35C52.61 114.77 52.1 114.98 51.5 114.98H44.66V123.08H50.6C51.2 123.08 51.71 123.29 52.13 123.71C52.55 124.13 52.76 124.64 52.76 125.24C52.76 125.84 52.55 126.35 52.13 126.77C51.71 127.19 51.2 127.4 50.6 127.4H44.66V138.56C44.66 139.16 44.45 139.67 44.03 140.09C43.61 140.51 43.1 140.72 42.5 140.72ZM58.7158 140.9C58.1158 140.9 57.6058 140.69 57.1858 140.27C56.7658 139.85 56.5558 139.34 56.5558 138.74V112.64C56.5558 112.04 56.7658 111.53 57.1858 111.11C57.6058 110.69 58.1158 110.48 58.7158 110.48C59.3158 110.48 59.8258 110.69 60.2458 111.11C60.6658 111.53 60.8758 112.04 60.8758 112.64V138.74C60.8758 139.34 60.6658 139.85 60.2458 140.27C59.8258 140.69 59.3158 140.9 58.7158 140.9ZM77.9846 123.98C78.5846 123.98 79.0946 124.19 79.5146 124.61C79.9346 125.03 80.1446 125.54 80.1446 126.14V133.34C80.1446 134.39 79.9496 135.38 79.5596 136.31C79.1696 137.21 78.6296 138.005 77.9396 138.695C77.2496 139.385 76.4396 139.925 75.5096 140.315C74.6096 140.705 73.6346 140.9 72.5846 140.9C71.5346 140.9 70.5446 140.705 69.6146 140.315C68.7146 139.925 67.9196 139.385 67.2296 138.695C66.5696 138.005 66.0296 137.21 65.6096 136.31C65.2196 135.38 65.0246 134.39 65.0246 133.34V118.04C65.0246 117.2 65.1596 116.39 65.4296 115.61C65.6996 114.8 66.0746 114.08 66.5546 113.45C67.0646 112.79 67.6646 112.235 68.3546 111.785C69.0446 111.305 69.8096 110.96 70.6496 110.75C71.4596 110.54 72.2846 110.465 73.1246 110.525C73.9646 110.555 74.7596 110.735 75.5096 111.065C76.2596 111.365 76.9496 111.785 77.5796 112.325C78.2096 112.865 78.7346 113.51 79.1546 114.26C79.4546 114.77 79.5146 115.31 79.3346 115.88C79.1846 116.45 78.8546 116.9 78.3446 117.23C77.8346 117.53 77.2946 117.605 76.7246 117.455C76.1546 117.275 75.7196 116.93 75.4196 116.42C75.0296 115.79 74.4896 115.34 73.7996 115.07C73.1396 114.77 72.4646 114.725 71.7746 114.935C71.0546 115.115 70.4696 115.505 70.0196 116.105C69.5696 116.675 69.3446 117.32 69.3446 118.04V133.34C69.3446 134.24 69.6596 135.005 70.2896 135.635C70.9496 136.265 71.7146 136.58 72.5846 136.58C73.4846 136.58 74.2496 136.265 74.8796 135.635C75.5096 135.005 75.8246 134.24 75.8246 133.34V128.3H73.4846C72.8846 128.3 72.3746 128.09 71.9546 127.67C71.5346 127.25 71.3246 126.74 71.3246 126.14C71.3246 125.54 71.5346 125.03 71.9546 124.61C72.3746 124.19 72.8846 123.98 73.4846 123.98H77.9846ZM83.4795 138.29C83.4795 137.57 83.7345 136.955 84.2445 136.445C84.7545 135.935 85.3695 135.68 86.0895 135.68C86.8095 135.68 87.4245 135.935 87.9345 136.445C88.4445 136.955 88.6995 137.57 88.6995 138.29C88.6995 139.01 88.4445 139.625 87.9345 140.135C87.4245 140.645 86.8095 140.9 86.0895 140.9C85.3695 140.9 84.7545 140.645 84.2445 140.135C83.7345 139.625 83.4795 139.01 83.4795 138.29ZM109.417 138.155C109.567 138.755 109.492 139.31 109.192 139.82C108.922 140.33 108.502 140.66 107.932 140.81C107.332 140.96 106.777 140.885 106.267 140.585C105.757 140.315 105.427 139.895 105.277 139.325C105.157 138.965 105.037 138.53 104.917 138.02C104.797 137.6 104.647 137.105 104.467 136.535C104.317 135.935 104.152 135.29 103.972 134.6H96.3218C96.1118 135.29 95.9318 135.935 95.7818 136.535C95.6318 137.105 95.4968 137.6 95.3768 138.02C95.2568 138.53 95.1368 138.965 95.0168 139.325C94.8668 139.895 94.5368 140.315 94.0268 140.585C93.5168 140.885 92.9618 140.96 92.3618 140.81C91.7918 140.66 91.3568 140.33 91.0568 139.82C90.7868 139.31 90.7268 138.755 90.8768 138.155L98.0768 112.055C98.1968 111.575 98.4368 111.2 98.7968 110.93C99.1868 110.63 99.6368 110.48 100.147 110.48C100.657 110.48 101.092 110.63 101.452 110.93C101.842 111.2 102.097 111.575 102.217 112.055L109.417 138.155ZM102.757 130.28C102.337 128.72 101.902 127.115 101.452 125.465C101.002 123.815 100.567 122.255 100.147 120.785C99.7268 122.255 99.2918 123.815 98.8418 125.465C98.3918 127.115 97.9568 128.72 97.5368 130.28H102.757Z" fill="#1C1B1B"/>
<path fill-rule="evenodd" clip-rule="evenodd" d="M418.59 548.728C416.029 542.737 412.438 539.178 408.232 536.898C403.948 534.577 399.059 533.61 394.215 532.652C393.752 532.561 393.29 532.47 392.828 532.377C387.477 531.304 382.18 530.077 377.379 527.008C372.608 523.958 368.246 519.035 364.915 510.429L363.049 511.151C366.512 520.095 371.123 525.383 376.302 528.693C381.45 531.983 387.081 533.265 392.435 534.338C392.887 534.429 393.336 534.518 393.783 534.606C398.689 535.578 403.276 536.488 407.279 538.657C411.069 540.711 414.367 543.923 416.761 549.538L415.349 550.164L421.854 558.372L420.147 548.038L418.59 548.728Z" fill="#1C1B1B"/>
<line x1="527.508" y1="667.918" x2="472.216" y2="639.21" stroke="#1C1B1B" stroke-width="2"/>
<path d="M465.382 635.663L475.898 638.195L473.504 642.807L465.382 635.663Z" fill="#1C1B1B"/>
<path d="M541.75 673.19L541.09 672.77C540.07 674.36 539.29 675.17 538.81 675.17C538.57 675.17 538.33 674.96 538.33 674.72C538.33 674.15 538.87 672.08 539.95 668.36L540.94 664.79H543.43V663.53H541.27L542.44 659.18H541.39C539.77 661.58 538.27 662.84 535.9 663.74V664.79H537.43L535.39 671.93C534.94 673.49 534.67 674.78 534.67 675.32C534.67 676.49 535.51 677.27 536.77 677.27C538.57 677.27 539.77 676.28 541.75 673.19ZM555.83 658.46C555.83 656.99 554.69 656.06 552.86 656.06C551.3 656.06 549.86 656.69 548.78 657.89C547.52 659.27 546.95 660.5 546.08 663.53H543.89L543.62 664.79H545.81L543.17 676.55C542.24 680.99 541.67 682.22 540.47 682.22C540.17 682.22 539.93 682.07 539.93 681.89C539.93 681.89 539.99 681.74 540.05 681.62C540.29 681.26 540.41 680.93 540.41 680.6C540.41 679.88 539.69 679.16 538.91 679.16C538.1 679.16 537.38 679.91 537.38 680.78C537.38 682.22 538.55 683.15 540.35 683.15C541.67 683.15 542.81 682.7 543.77 681.77C544.85 680.72 545.54 679.37 546.47 676.61C547.28 674.18 547.64 672.74 549.32 664.79H552.02L552.29 663.53H549.53L550.07 661.4C550.82 658.43 551.72 656.93 552.8 656.93C553.1 656.93 553.31 657.08 553.31 657.32C553.31 657.32 553.28 657.47 553.16 657.65C552.92 658.01 552.83 658.28 552.83 658.58C552.83 659.42 553.46 660.05 554.3 660.05C555.2 660.05 555.83 659.39 555.83 658.46Z" fill="#1C1B1B"/>
<path d="M357.75 497.19L357.09 496.77C356.07 498.36 355.29 499.17 354.81 499.17C354.57 499.17 354.33 498.96 354.33 498.72C354.33 498.15 354.87 496.08 355.95 492.36L356.94 488.79H359.43V487.53H357.27L358.44 483.18H357.39C355.77 485.58 354.27 486.84 351.9 487.74V488.79H353.43L351.39 495.93C350.94 497.49 350.67 498.78 350.67 499.32C350.67 500.49 351.51 501.27 352.77 501.27C354.57 501.27 355.77 500.28 357.75 497.19ZM371.92 497.55L371.26 497.07C370.42 498.42 369.7 499.23 369.25 499.23C369.07 499.23 368.92 499.05 368.92 498.87C368.92 498.6 369.61 495.9 370.63 492.18L373.96 480.03C372.16 480.45 370.69 480.66 367.69 480.9V481.71H368.32C369.1 481.71 369.55 482.01 369.55 482.55C369.55 482.82 369.4 483.45 368.68 486.09L368.14 488.13C367.42 487.41 366.85 487.14 365.98 487.14C362.32 487.14 357.82 492.93 357.82 497.64C357.82 499.83 359.17 501.39 361 501.39C362.92 501.39 364.27 500.31 365.98 497.46C365.71 498.63 365.65 499.02 365.65 499.5C365.65 500.64 366.31 501.33 367.45 501.33C368.92 501.33 370.27 500.19 371.92 497.55ZM367.69 489.87C367.69 491.19 366.4 495.09 365.35 497.01C364.51 498.48 363.64 499.23 362.77 499.23C362.02 499.23 361.48 498.39 361.54 497.34C361.63 495.72 362.56 492.96 363.64 491.01C364.6 489.3 365.68 488.34 366.58 488.4C367.24 488.43 367.69 489.03 367.69 489.87Z" fill="#1C1B1B"/>
<path d="M305.38 593.31L304.54 592.77C303.1 594.78 302.17 595.47 300.88 595.47C299.56 595.47 298.69 594.39 298.69 592.8C298.69 590.91 299.47 588.21 300.55 586.26C301.36 584.85 302.2 584.13 303.13 584.13C303.49 584.13 303.79 584.34 303.79 584.64C303.79 584.76 303.73 584.94 303.55 585.21C303.28 585.69 303.16 586.02 303.16 586.38C303.16 587.28 303.88 587.94 304.9 587.94C306.01 587.94 306.76 587.1 306.76 585.84C306.76 584.25 305.41 583.14 303.4 583.14C299.17 583.14 294.85 588.06 294.85 592.86C294.85 595.53 296.71 597.39 299.44 597.39C300.76 597.39 302.05 596.91 303.07 596.04C303.85 595.38 304.33 594.81 305.38 593.31ZM315.8 593.43C315.8 592.08 315.05 590.61 313.37 588.66C312.2 587.31 311.69 586.41 311.69 585.72C311.69 584.76 312.32 584.13 313.28 584.13C314.66 584.13 315.44 585.21 315.92 587.7L316.73 587.76L317.42 583.17H316.55C316.22 583.74 316.13 583.8 315.68 583.8C315.38 583.8 315.14 583.74 314.6 583.53C313.85 583.23 313.46 583.14 312.86 583.14C310.43 583.14 308.84 584.61 308.84 586.92C308.84 588.54 309.26 589.38 311.24 591.75C312.38 593.1 312.92 594.12 312.92 594.87C312.92 595.77 312.17 596.49 311.21 596.49C309.68 596.49 308.72 595.17 308.33 592.5L307.52 592.41L306.86 597.39H307.67C307.79 597.03 308.15 596.79 308.54 596.79C308.75 596.79 309.08 596.88 309.47 597.03C310.19 597.27 310.73 597.39 311.36 597.39C313.91 597.39 315.8 595.68 315.8 593.43Z" fill="#1C1B1B"/>
<path d="M405.5 441.72C404.9 441.72 404.39 441.51 403.97 441.09C403.55 440.67 403.34 440.16 403.34 439.56V413.82C403.34 413.22 403.55 412.71 403.97 412.29C404.39 411.87 404.9 411.66 405.5 411.66H414.5C415.1 411.66 415.61 411.87 416.03 412.29C416.45 412.71 416.66 413.22 416.66 413.82C416.66 414.42 416.45 414.93 416.03 415.35C415.61 415.77 415.1 415.98 414.5 415.98H407.66V424.08H413.6C414.2 424.08 414.71 424.29 415.13 424.71C415.55 425.13 415.76 425.64 415.76 426.24C415.76 426.84 415.55 427.35 415.13 427.77C414.71 428.19 414.2 428.4 413.6 428.4H407.66V439.56C407.66 440.16 407.45 440.67 407.03 441.09C406.61 441.51 406.1 441.72 405.5 441.72ZM421.716 441.9C421.116 441.9 420.606 441.69 420.186 441.27C419.766 440.85 419.556 440.34 419.556 439.74V413.64C419.556 413.04 419.766 412.53 420.186 412.11C420.606 411.69 421.116 411.48 421.716 411.48C422.316 411.48 422.826 411.69 423.246 412.11C423.666 412.53 423.876 413.04 423.876 413.64V439.74C423.876 440.34 423.666 440.85 423.246 441.27C422.826 441.69 422.316 441.9 421.716 441.9ZM440.985 424.98C441.585 424.98 442.095 425.19 442.515 425.61C442.935 426.03 443.145 426.54 443.145 427.14V434.34C443.145 435.39 442.95 436.38 442.56 437.31C442.17 438.21 441.63 439.005 440.94 439.695C440.25 440.385 439.44 440.925 438.51 441.315C437.61 441.705 436.635 441.9 435.585 441.9C434.535 441.9 433.545 441.705 432.615 441.315C431.715 440.925 430.92 440.385 430.23 439.695C429.57 439.005 429.03 438.21 428.61 437.31C428.22 436.38 428.025 435.39 428.025 434.34V419.04C428.025 418.2 428.16 417.39 428.43 416.61C428.7 415.8 429.075 415.08 429.555 414.45C430.065 413.79 430.665 413.235 431.355 412.785C432.045 412.305 432.81 411.96 433.65 411.75C434.46 411.54 435.285 411.465 436.125 411.525C436.965 411.555 437.76 411.735 438.51 412.065C439.26 412.365 439.95 412.785 440.58 413.325C441.21 413.865 441.735 414.51 442.155 415.26C442.455 415.77 442.515 416.31 442.335 416.88C442.185 417.45 441.855 417.9 441.345 418.23C440.835 418.53 440.295 418.605 439.725 418.455C439.155 418.275 438.72 417.93 438.42 417.42C438.03 416.79 437.49 416.34 436.8 416.07C436.14 415.77 435.465 415.725 434.775 415.935C434.055 416.115 433.47 416.505 433.02 417.105C432.57 417.675 432.345 418.32 432.345 419.04V434.34C432.345 435.24 432.66 436.005 433.29 436.635C433.95 437.265 434.715 437.58 435.585 437.58C436.485 437.58 437.25 437.265 437.88 436.635C438.51 436.005 438.825 435.24 438.825 434.34V429.3H436.485C435.885 429.3 435.375 429.09 434.955 428.67C434.535 428.25 434.325 427.74 434.325 427.14C434.325 426.54 434.535 426.03 434.955 425.61C435.375 425.19 435.885 424.98 436.485 424.98H440.985ZM446.48 439.29C446.48 438.57 446.735 437.955 447.245 437.445C447.755 436.935 448.37 436.68 449.09 436.68C449.81 436.68 450.425 436.935 450.935 437.445C451.445 437.955 451.7 438.57 451.7 439.29C451.7 440.01 451.445 440.625 450.935 441.135C450.425 441.645 449.81 441.9 449.09 441.9C448.37 441.9 447.755 441.645 447.245 441.135C446.735 440.625 446.48 440.01 446.48 439.29ZM457.927 441.72C457.327 441.72 456.817 441.51 456.397 441.09C455.977 440.67 455.767 440.16 455.767 439.56V413.82C455.767 413.22 455.977 412.71 456.397 412.29C456.817 411.87 457.327 411.66 457.927 411.66H466.927C467.527 411.66 468.037 411.87 468.457 412.29C468.877 412.71 469.087 413.22 469.087 413.82C469.087 414.42 468.877 414.93 468.457 415.35C468.037 415.77 467.527 415.98 466.927 415.98H460.087V424.08H466.027C466.627 424.08 467.137 424.29 467.557 424.71C467.977 425.13 468.187 425.64 468.187 426.24C468.187 426.84 467.977 427.35 467.557 427.77C467.137 428.19 466.627 428.4 466.027 428.4H460.087V439.56C460.087 440.16 459.877 440.67 459.457 441.09C459.037 441.51 458.527 441.72 457.927 441.72ZM474.143 441.72C473.543 441.72 473.033 441.51 472.613 441.09C472.193 440.67 471.983 440.16 471.983 439.56V413.64C471.983 413.04 472.193 412.53 472.613 412.11C473.033 411.69 473.543 411.48 474.143 411.48C474.743 411.48 475.253 411.69 475.673 412.11C476.093 412.53 476.303 413.04 476.303 413.64V437.4H483.143C483.743 437.4 484.253 437.61 484.673 438.03C485.093 438.45 485.303 438.96 485.303 439.56C485.303 440.16 485.093 440.67 484.673 441.09C484.253 441.51 483.743 441.72 483.143 441.72H474.143Z" fill="#1C1B1B"/>
</g>
<defs>
<clipPath id="clip0">
<rect width="840" height="752" fill="white"/>
</clipPath>
</defs>
</svg>
