<svg width="450" height="421" viewBox="0 0 450 421" fill="none" xmlns="http://www.w3.org/2000/svg">
<path d="M83.6992 273.53C94.3691 244.677 103.945 233.169 133.102 226" stroke="black" stroke-width="2"/>
<path d="M143.966 224.565L132.257 223.937L132.728 227.912L143.966 224.565Z" fill="black"/>
<path d="M137.699 307.53C148.369 278.677 157.945 267.169 187.102 260" stroke="black" stroke-width="2"/>
<path d="M197.966 258.565L186.257 257.937L186.728 261.912L197.966 258.565Z" fill="black"/>
<path d="M26.6992 238.53C37.3691 209.677 46.9447 198.169 76.1021 191" stroke="black" stroke-width="2"/>
<path d="M86.9663 189.565L75.2569 188.937L75.7279 192.912L86.9663 189.565Z" fill="black"/>
<path d="M403.291 119.809C374.37 129.874 362.732 139.182 355.037 168.064" stroke="black" stroke-width="2"/>
<path d="M353.399 178.85L353 167.184L356.946 167.729L353.399 178.85Z" fill="black"/>
<path d="M349.291 87.8092C320.37 97.8736 308.732 107.182 301.037 136.064" stroke="black" stroke-width="2"/>
<path d="M299.399 146.85L299 135.184L302.946 135.729L299.399 146.85Z" fill="black"/>
<path d="M290.291 55.8092C261.37 65.8736 249.732 75.1825 242.037 104.064" stroke="black" stroke-width="2"/>
<path d="M240.399 114.85L240 103.184L243.946 103.729L240.399 114.85Z" fill="black"/>
<path d="M83.32 293.027C83.32 290.837 81.94 289.307 79.96 289.307C78.43 289.307 77.35 289.997 75.82 292.037L78.52 282.197C76.42 282.587 74.95 282.797 72.28 283.097V283.907H72.82C73.72 283.907 74.17 284.207 74.17 284.807C74.17 285.197 73.81 286.697 73 289.517L70.18 299.327C69.88 300.407 69.58 301.577 69.58 301.757C69.58 302.597 71.74 303.557 73.72 303.557C78.61 303.557 83.32 298.397 83.32 293.027ZM79.57 293.417C79.57 295.187 78.76 297.977 77.68 299.837C76.66 301.667 75.49 302.567 74.2 302.567C73.66 302.567 73.27 302.237 73.27 301.757C73.27 301.397 73.78 299.057 74.11 297.887C74.5 296.537 75.1 294.887 75.58 293.867C76.33 292.217 77.26 291.347 78.25 291.347C79.12 291.347 79.57 292.037 79.57 293.417ZM94.48 299.477L93.64 298.937C92.2 300.947 91.27 301.637 89.98 301.637C88.66 301.637 87.79 300.557 87.79 298.967C87.79 297.077 88.57 294.377 89.65 292.427C90.46 291.017 91.3 290.297 92.23 290.297C92.59 290.297 92.89 290.507 92.89 290.807C92.89 290.927 92.83 291.107 92.65 291.377C92.38 291.857 92.26 292.187 92.26 292.547C92.26 293.447 92.98 294.107 94 294.107C95.11 294.107 95.86 293.267 95.86 292.007C95.86 290.417 94.51 289.307 92.5 289.307C88.27 289.307 83.95 294.227 83.95 299.027C83.95 301.697 85.81 303.557 88.54 303.557C89.86 303.557 91.15 303.077 92.17 302.207C92.95 301.547 93.43 300.977 94.48 299.477Z" fill="#1C1B1B"/>
<path d="M145.66 333.507L145 333.117C144.88 333.267 144.76 333.447 144.64 333.657C143.95 334.767 143.32 335.397 142.93 335.397C142.66 335.397 142.45 335.217 142.45 334.977C142.45 334.647 142.45 334.647 143.08 332.637L144.43 328.647C144.88 327.357 145.12 326.217 145.12 325.437C145.12 324.207 144.13 323.307 142.81 323.307C140.77 323.307 139.36 324.507 136.87 328.467C137.47 326.907 137.65 326.187 137.65 325.347C137.65 324.087 136.9 323.307 135.64 323.307C134.8 323.307 133.9 323.637 133.06 324.327C131.95 325.167 131.05 326.277 129.1 329.307L131.02 323.337C129.13 323.787 128.41 323.877 125.02 324.147V324.957C125.8 324.957 126.64 325.017 126.64 325.707C126.64 326.157 126.4 327.117 125.59 330.027L123.58 337.167H127.21C128.8 331.497 129.91 328.947 131.62 326.907C132.28 326.127 133.12 325.497 133.57 325.497C133.87 325.497 134.11 325.797 134.11 326.157C134.11 326.667 133.75 327.927 132.76 330.957L130.81 337.167H134.41C136.15 331.407 136.36 330.867 137.44 328.977C138.7 326.727 139.9 325.497 140.8 325.497C141.16 325.497 141.49 325.797 141.49 326.127C141.49 326.307 141.4 326.637 141.28 327.027L139.93 330.957C139.27 332.877 138.85 334.677 138.85 335.547C138.85 336.777 139.57 337.437 140.86 337.437C142.72 337.437 143.92 336.447 145.66 333.507Z" fill="#1C1B1B"/>
<path d="M424.867 114.86C424.867 112.67 423.487 111.14 421.507 111.14C419.977 111.14 418.897 111.83 417.367 113.87L420.067 104.03C417.967 104.42 416.497 104.63 413.827 104.93V105.74H414.367C415.267 105.74 415.717 106.04 415.717 106.64C415.717 107.03 415.357 108.53 414.547 111.35L411.727 121.16C411.427 122.24 411.127 123.41 411.127 123.59C411.127 124.43 413.287 125.39 415.267 125.39C420.157 125.39 424.867 120.23 424.867 114.86ZM421.117 115.25C421.117 117.02 420.307 119.81 419.227 121.67C418.207 123.5 417.037 124.4 415.747 124.4C415.207 124.4 414.817 124.07 414.817 123.59C414.817 123.23 415.327 120.89 415.657 119.72C416.047 118.37 416.647 116.72 417.127 115.7C417.877 114.05 418.807 113.18 419.797 113.18C420.667 113.18 421.117 113.87 421.117 115.25ZM439.027 106.46C439.027 104.99 437.887 104.06 436.057 104.06C434.497 104.06 433.057 104.69 431.977 105.89C430.717 107.27 430.147 108.5 429.277 111.53H427.087L426.817 112.79H429.007L426.367 124.55C425.437 128.99 424.867 130.22 423.667 130.22C423.367 130.22 423.127 130.07 423.127 129.89C423.127 129.89 423.187 129.74 423.247 129.62C423.487 129.26 423.607 128.93 423.607 128.6C423.607 127.88 422.887 127.16 422.107 127.16C421.297 127.16 420.577 127.91 420.577 128.78C420.577 130.22 421.747 131.15 423.547 131.15C424.867 131.15 426.007 130.7 426.967 129.77C428.047 128.72 428.737 127.37 429.667 124.61C430.477 122.18 430.837 120.74 432.517 112.79H435.217L435.487 111.53H432.727L433.267 109.4C434.017 106.43 434.917 104.93 435.997 104.93C436.297 104.93 436.507 105.08 436.507 105.32C436.507 105.32 436.477 105.47 436.357 105.65C436.117 106.01 436.027 106.28 436.027 106.58C436.027 107.42 436.657 108.05 437.497 108.05C438.397 108.05 439.027 107.39 439.027 106.46Z" fill="#1C1B1B"/>
<path d="M364.687 89.19L364.027 88.77L363.607 89.37C362.827 90.54 362.137 91.17 361.687 91.17C361.447 91.17 361.237 90.96 361.237 90.72C361.237 90.45 361.387 89.67 361.507 89.16L364.237 79.14C362.617 79.5 360.517 79.8 358.177 79.98V80.79H358.567C359.467 80.79 359.947 81.09 359.947 81.66C359.947 81.9 359.857 82.35 359.737 82.86L357.997 89.31C357.757 90.18 357.607 90.96 357.607 91.38C357.607 92.52 358.447 93.27 359.677 93.27C361.477 93.27 362.587 92.37 364.687 89.19ZM365.527 75.3C365.527 74.19 364.597 73.26 363.457 73.26C362.407 73.26 361.477 74.19 361.477 75.24C361.477 76.41 362.347 77.31 363.457 77.31C364.597 77.31 365.527 76.41 365.527 75.3ZM373.366 89.43C373.366 88.08 372.616 86.61 370.936 84.66C369.766 83.31 369.256 82.41 369.256 81.72C369.256 80.76 369.886 80.13 370.846 80.13C372.226 80.13 373.006 81.21 373.486 83.7L374.296 83.76L374.986 79.17H374.116C373.786 79.74 373.696 79.8 373.246 79.8C372.946 79.8 372.706 79.74 372.166 79.53C371.416 79.23 371.026 79.14 370.426 79.14C367.996 79.14 366.406 80.61 366.406 82.92C366.406 84.54 366.826 85.38 368.806 87.75C369.946 89.1 370.486 90.12 370.486 90.87C370.486 91.77 369.736 92.49 368.776 92.49C367.246 92.49 366.286 91.17 365.896 88.5L365.086 88.41L364.426 93.39H365.236C365.356 93.03 365.716 92.79 366.106 92.79C366.316 92.79 366.646 92.88 367.036 93.03C367.756 93.27 368.296 93.39 368.926 93.39C371.476 93.39 373.366 91.68 373.366 89.43Z" fill="#1C1B1B"/>
<path d="M311.927 50.77C311.927 48.55 310.667 47.14 308.687 47.14C306.977 47.14 305.657 48.1 303.887 50.59L305.027 47.14L299.237 47.98V48.79C300.587 48.85 300.857 48.97 300.857 49.54C300.857 49.84 300.617 50.92 300.197 52.48L297.197 64.12C296.627 66.1 296.387 66.37 294.947 66.34V67.15H302.417V66.34C300.917 66.31 300.467 66.1 300.467 65.38C300.467 64.96 300.677 64.06 301.247 61.96C301.457 61.24 301.457 61.18 301.577 60.73C302.627 61.27 302.987 61.39 303.617 61.39C307.697 61.39 311.927 55.96 311.927 50.77ZM308.177 50.98C308.057 52.96 307.097 55.93 306.017 57.88C305.087 59.5 304.127 60.34 303.107 60.34C302.447 60.34 301.937 59.86 301.937 59.26C301.937 58.75 302.267 57.52 303.077 54.79C303.737 52.6 304.007 51.85 304.457 51.16C305.207 49.99 306.227 49.21 307.007 49.27C307.787 49.33 308.237 50.02 308.177 50.98ZM326.297 57.64L325.667 57.19C324.437 58.84 323.987 59.29 323.507 59.29C323.267 59.29 323.147 59.11 323.147 58.84C323.147 58.09 323.417 56.86 324.167 54.4L326.297 47.32L322.967 47.53L322.427 49.3C322.157 47.77 321.497 47.14 320.207 47.14C316.517 47.14 312.017 52.9 312.017 57.58C312.017 59.86 313.307 61.39 315.257 61.39C317.087 61.39 318.467 60.31 320.177 57.43C319.817 58.66 319.757 59.02 319.757 59.44C319.757 60.55 320.657 61.42 321.767 61.42C323.177 61.42 324.557 60.25 326.297 57.64ZM321.737 49.81C321.737 51.61 320.747 54.94 319.577 57.01C318.767 58.48 317.867 59.26 317.057 59.26C316.277 59.26 315.707 58.57 315.707 57.64C315.707 56.08 316.697 53.08 317.927 50.86C318.827 49.27 319.817 48.34 320.627 48.4C321.287 48.46 321.737 49 321.737 49.81Z" fill="#1C1B1B"/>
<path d="M26.32 258.027C26.32 255.837 24.94 254.307 22.96 254.307C21.43 254.307 20.35 254.997 18.82 257.037L21.52 247.197C19.42 247.587 17.95 247.797 15.28 248.097V248.907H15.82C16.72 248.907 17.17 249.207 17.17 249.807C17.17 250.197 16.81 251.697 16 254.517L13.18 264.327C12.88 265.407 12.58 266.577 12.58 266.757C12.58 267.597 14.74 268.557 16.72 268.557C21.61 268.557 26.32 263.397 26.32 258.027ZM22.57 258.417C22.57 260.187 21.76 262.977 20.68 264.837C19.66 266.667 18.49 267.567 17.2 267.567C16.66 267.567 16.27 267.237 16.27 266.757C16.27 266.397 16.78 264.057 17.11 262.887C17.5 261.537 18.1 259.887 18.58 258.867C19.33 257.217 20.26 256.347 21.25 256.347C22.12 256.347 22.57 257.037 22.57 258.417ZM38.837 256.317C38.837 255.267 37.967 254.307 37.007 254.307C36.107 254.307 35.327 255.117 35.327 256.047C35.327 256.557 35.507 256.977 36.047 257.577C36.497 258.087 36.647 258.357 36.647 258.687C36.647 259.737 35.837 260.937 32.867 264.327C32.747 258.447 32.567 256.707 31.937 254.307C30.467 254.667 29.777 254.787 27.287 255.147V255.957C28.217 255.957 28.487 256.047 28.697 256.437C29.177 257.397 29.507 260.007 29.507 263.247C29.507 263.367 29.507 263.877 29.477 264.477L29.357 268.557H30.137C33.947 264.927 35.357 263.337 37.007 260.937C38.207 259.197 38.837 257.577 38.837 256.317Z" fill="#1C1B1B"/>
<path d="M286.5 380.72C285.9 380.72 285.39 380.51 284.97 380.09C284.55 379.67 284.34 379.16 284.34 378.56V352.82C284.34 352.22 284.55 351.71 284.97 351.29C285.39 350.87 285.9 350.66 286.5 350.66H295.5C296.1 350.66 296.61 350.87 297.03 351.29C297.45 351.71 297.66 352.22 297.66 352.82C297.66 353.42 297.45 353.93 297.03 354.35C296.61 354.77 296.1 354.98 295.5 354.98H288.66V363.08H294.6C295.2 363.08 295.71 363.29 296.13 363.71C296.55 364.13 296.76 364.64 296.76 365.24C296.76 365.84 296.55 366.35 296.13 366.77C295.71 367.19 295.2 367.4 294.6 367.4H288.66V378.56C288.66 379.16 288.45 379.67 288.03 380.09C287.61 380.51 287.1 380.72 286.5 380.72ZM302.716 380.9C302.116 380.9 301.606 380.69 301.186 380.27C300.766 379.85 300.556 379.34 300.556 378.74V352.64C300.556 352.04 300.766 351.53 301.186 351.11C301.606 350.69 302.116 350.48 302.716 350.48C303.316 350.48 303.826 350.69 304.246 351.11C304.666 351.53 304.876 352.04 304.876 352.64V378.74C304.876 379.34 304.666 379.85 304.246 380.27C303.826 380.69 303.316 380.9 302.716 380.9ZM321.985 363.98C322.585 363.98 323.095 364.19 323.515 364.61C323.935 365.03 324.145 365.54 324.145 366.14V373.34C324.145 374.39 323.95 375.38 323.56 376.31C323.17 377.21 322.63 378.005 321.94 378.695C321.25 379.385 320.44 379.925 319.51 380.315C318.61 380.705 317.635 380.9 316.585 380.9C315.535 380.9 314.545 380.705 313.615 380.315C312.715 379.925 311.92 379.385 311.23 378.695C310.57 378.005 310.03 377.21 309.61 376.31C309.22 375.38 309.025 374.39 309.025 373.34V358.04C309.025 357.2 309.16 356.39 309.43 355.61C309.7 354.8 310.075 354.08 310.555 353.45C311.065 352.79 311.665 352.235 312.355 351.785C313.045 351.305 313.81 350.96 314.65 350.75C315.46 350.54 316.285 350.465 317.125 350.525C317.965 350.555 318.76 350.735 319.51 351.065C320.26 351.365 320.95 351.785 321.58 352.325C322.21 352.865 322.735 353.51 323.155 354.26C323.455 354.77 323.515 355.31 323.335 355.88C323.185 356.45 322.855 356.9 322.345 357.23C321.835 357.53 321.295 357.605 320.725 357.455C320.155 357.275 319.72 356.93 319.42 356.42C319.03 355.79 318.49 355.34 317.8 355.07C317.14 354.77 316.465 354.725 315.775 354.935C315.055 355.115 314.47 355.505 314.02 356.105C313.57 356.675 313.345 357.32 313.345 358.04V373.34C313.345 374.24 313.66 375.005 314.29 375.635C314.95 376.265 315.715 376.58 316.585 376.58C317.485 376.58 318.25 376.265 318.88 375.635C319.51 375.005 319.825 374.24 319.825 373.34V368.3H317.485C316.885 368.3 316.375 368.09 315.955 367.67C315.535 367.25 315.325 366.74 315.325 366.14C315.325 365.54 315.535 365.03 315.955 364.61C316.375 364.19 316.885 363.98 317.485 363.98H321.985ZM327.48 378.29C327.48 377.57 327.735 376.955 328.245 376.445C328.755 375.935 329.37 375.68 330.09 375.68C330.81 375.68 331.425 375.935 331.935 376.445C332.445 376.955 332.7 377.57 332.7 378.29C332.7 379.01 332.445 379.625 331.935 380.135C331.425 380.645 330.81 380.9 330.09 380.9C329.37 380.9 328.755 380.645 328.245 380.135C327.735 379.625 327.48 379.01 327.48 378.29ZM341.807 380.63C340.997 380.42 340.247 380.09 339.557 379.64C338.867 379.16 338.267 378.605 337.757 377.975C337.277 377.315 336.902 376.595 336.632 375.815C336.362 375.035 336.227 374.21 336.227 373.34V358.04C336.227 357.2 336.362 356.39 336.632 355.61C336.902 354.8 337.277 354.08 337.757 353.45C338.267 352.79 338.867 352.235 339.557 351.785C340.247 351.305 340.997 350.96 341.807 350.75C343.487 350.3 345.107 350.405 346.667 351.065C348.227 351.695 349.442 352.76 350.312 354.26C350.642 354.77 350.717 355.31 350.537 355.88C350.387 356.45 350.057 356.9 349.547 357.23C349.037 357.53 348.497 357.605 347.927 357.455C347.357 357.275 346.907 356.93 346.577 356.42C346.217 355.79 345.692 355.34 345.002 355.07C344.342 354.77 343.652 354.725 342.932 354.935C342.242 355.115 341.672 355.505 341.222 356.105C340.772 356.675 340.547 357.32 340.547 358.04V373.34C340.547 374.09 340.772 374.75 341.222 375.32C341.672 375.89 342.242 376.28 342.932 376.49C343.652 376.67 344.342 376.625 345.002 376.355C345.692 376.055 346.217 375.59 346.577 374.96C346.907 374.45 347.357 374.12 347.927 373.97C348.497 373.79 349.037 373.85 349.547 374.15C350.057 374.48 350.387 374.93 350.537 375.5C350.717 376.07 350.642 376.61 350.312 377.12C349.442 378.62 348.227 379.685 346.667 380.315C345.107 380.975 343.487 381.08 341.807 380.63ZM359.121 380.63C358.311 380.42 357.561 380.09 356.871 379.64C356.181 379.16 355.581 378.605 355.071 377.975C354.591 377.315 354.216 376.595 353.946 375.815C353.676 375.035 353.541 374.21 353.541 373.34V358.04C353.541 357.2 353.676 356.39 353.946 355.61C354.216 354.8 354.591 354.08 355.071 353.45C355.581 352.79 356.181 352.235 356.871 351.785C357.561 351.305 358.311 350.96 359.121 350.75C360.801 350.3 362.421 350.405 363.981 351.065C365.541 351.695 366.756 352.76 367.626 354.26C367.956 354.77 368.031 355.31 367.851 355.88C367.701 356.45 367.371 356.9 366.861 357.23C366.351 357.53 365.811 357.605 365.241 357.455C364.671 357.275 364.221 356.93 363.891 356.42C363.531 355.79 363.006 355.34 362.316 355.07C361.656 354.77 360.966 354.725 360.246 354.935C359.556 355.115 358.986 355.505 358.536 356.105C358.086 356.675 357.861 357.32 357.861 358.04V373.34C357.861 374.09 358.086 374.75 358.536 375.32C358.986 375.89 359.556 376.28 360.246 376.49C360.966 376.67 361.656 376.625 362.316 376.355C363.006 376.055 363.531 375.59 363.891 374.96C364.221 374.45 364.671 374.12 365.241 373.97C365.811 373.79 366.351 373.85 366.861 374.15C367.371 374.48 367.701 374.93 367.851 375.5C368.031 376.07 367.956 376.61 367.626 377.12C366.756 378.62 365.541 379.685 363.981 380.315C362.421 380.975 360.801 381.08 359.121 380.63Z" fill="#1C1B1B"/>
</svg>
