<svg width="600" height="417" viewBox="0 0 600 417" fill="none" xmlns="http://www.w3.org/2000/svg">
<path d="M136.01 160.944L124.007 161.355L124.568 157.294L136.01 160.944Z" fill="black"/>
<path d="M129.427 160.009C93.3289 158.2 109.828 115.806 66.0787 111.871" stroke="black" stroke-width="2"/>
<line x1="276" y1="314" x2="338.3" y2="314" stroke="#1C1B1B" stroke-width="2"/>
<path d="M346 314L335.5 316.598L335.5 311.402L346 314Z" fill="#1C1B1B"/>
<path d="M120.951 268.53C131.621 239.677 141.197 228.169 170.354 221" stroke="black" stroke-width="2"/>
<path d="M181.218 219.565L169.509 218.937L169.98 222.912L181.218 219.565Z" fill="black"/>
<path d="M386 101L386 125.892L336.193 125.892" stroke="#1C1B1B" stroke-width="2"/>
<path d="M326 125.894L339.9 123.699L339.9 128.089L326 125.894Z" fill="#1C1B1B"/>
<line x1="564.121" y1="158.598" x2="510.167" y2="189.748" stroke="#1C1B1B" stroke-width="2"/>
<path d="M503.5 193.598L511.294 186.098L513.892 190.598L503.5 193.598Z" fill="#1C1B1B"/>
<path d="M267.38 316.31L266.54 315.77C265.1 317.78 264.17 318.47 262.88 318.47C261.56 318.47 260.69 317.39 260.69 315.8C260.69 313.91 261.47 311.21 262.55 309.26C263.36 307.85 264.2 307.13 265.13 307.13C265.49 307.13 265.79 307.34 265.79 307.64C265.79 307.76 265.73 307.94 265.55 308.21C265.28 308.69 265.16 309.02 265.16 309.38C265.16 310.28 265.88 310.94 266.9 310.94C268.01 310.94 268.76 310.1 268.76 308.84C268.76 307.25 267.41 306.14 265.4 306.14C261.17 306.14 256.85 311.06 256.85 315.86C256.85 318.53 258.71 320.39 261.44 320.39C262.76 320.39 264.05 319.91 265.07 319.04C265.85 318.38 266.33 317.81 267.38 316.31Z" fill="#1C1B1B"/>
<path d="M589.65 156.64L589.02 156.19C587.79 157.84 587.34 158.29 586.86 158.29C586.62 158.29 586.5 158.11 586.5 157.84C586.5 157.09 586.77 155.86 587.52 153.4L589.65 146.32L586.32 146.53L585.78 148.3C585.51 146.77 584.85 146.14 583.56 146.14C579.87 146.14 575.37 151.9 575.37 156.58C575.37 158.86 576.66 160.39 578.61 160.39C580.44 160.39 581.82 159.31 583.53 156.43C583.17 157.66 583.11 158.02 583.11 158.44C583.11 159.55 584.01 160.42 585.12 160.42C586.53 160.42 587.91 159.25 589.65 156.64ZM585.09 148.81C585.09 150.61 584.1 153.94 582.93 156.01C582.12 157.48 581.22 158.26 580.41 158.26C579.63 158.26 579.06 157.57 579.06 156.64C579.06 155.08 580.05 152.08 581.28 149.86C582.18 148.27 583.17 147.34 583.98 147.4C584.64 147.46 585.09 148 585.09 148.81Z" fill="#1C1B1B"/>
<path d="M385.14 87.19L384.48 86.77L384.06 87.37C383.28 88.54 382.59 89.17 382.14 89.17C381.9 89.17 381.69 88.96 381.69 88.72C381.69 88.45 381.84 87.67 381.96 87.16L384.69 77.14C383.07 77.5 380.97 77.8 378.63 77.98V78.79H379.02C379.92 78.79 380.4 79.09 380.4 79.66C380.4 79.9 380.31 80.35 380.19 80.86L378.45 87.31C378.21 88.18 378.06 88.96 378.06 89.38C378.06 90.52 378.9 91.27 380.13 91.27C381.93 91.27 383.04 90.37 385.14 87.19ZM385.98 73.3C385.98 72.19 385.05 71.26 383.91 71.26C382.86 71.26 381.93 72.19 381.93 73.24C381.93 74.41 382.8 75.31 383.91 75.31C385.05 75.31 385.98 74.41 385.98 73.3ZM395.83 87.31L394.99 86.77C393.55 88.78 392.62 89.47 391.33 89.47C390.01 89.47 389.14 88.39 389.14 86.8C389.14 84.91 389.92 82.21 391 80.26C391.81 78.85 392.65 78.13 393.58 78.13C393.94 78.13 394.24 78.34 394.24 78.64C394.24 78.76 394.18 78.94 394 79.21C393.73 79.69 393.61 80.02 393.61 80.38C393.61 81.28 394.33 81.94 395.35 81.94C396.46 81.94 397.21 81.1 397.21 79.84C397.21 78.25 395.86 77.14 393.85 77.14C389.62 77.14 385.3 82.06 385.3 86.86C385.3 89.53 387.16 91.39 389.89 91.39C391.21 91.39 392.5 90.91 393.52 90.04C394.3 89.38 394.78 88.81 395.83 87.31Z" fill="#1C1B1B"/>
<path d="M38.38 113.31L37.54 112.77C36.1 114.78 35.17 115.47 33.88 115.47C32.56 115.47 31.69 114.39 31.69 112.8C31.69 110.91 32.47 108.21 33.55 106.26C34.36 104.85 35.2 104.13 36.13 104.13C36.49 104.13 36.79 104.34 36.79 104.64C36.79 104.76 36.73 104.94 36.55 105.21C36.28 105.69 36.16 106.02 36.16 106.38C36.16 107.28 36.88 107.94 37.9 107.94C39.01 107.94 39.76 107.1 39.76 105.84C39.76 104.25 38.41 103.14 36.4 103.14C32.17 103.14 27.85 108.06 27.85 112.86C27.85 115.53 29.71 117.39 32.44 117.39C33.76 117.39 35.05 116.91 36.07 116.04C36.85 115.38 37.33 114.81 38.38 113.31ZM53.6601 107.67C53.6601 105.03 51.7101 103.14 48.9501 103.14C44.5101 103.14 40.3401 107.91 40.3401 112.95C40.3401 115.5 42.3501 117.39 45.1101 117.39C49.5801 117.39 53.6601 112.74 53.6601 107.67ZM48.2301 113.7C47.3601 115.62 46.4601 116.52 45.3801 116.52C44.4801 116.52 43.9101 115.83 43.9101 114.66C43.9101 112.38 44.9601 108.15 45.9801 106.26C46.7901 104.76 47.6901 104.01 48.6801 104.01C49.5501 104.01 50.0901 104.67 50.0901 105.75C50.0901 107.76 49.2201 111.54 48.2301 113.7Z" fill="#1C1B1B"/>
<path d="M118.38 288.31L117.54 287.77C116.1 289.78 115.17 290.47 113.88 290.47C112.56 290.47 111.69 289.39 111.69 287.8C111.69 285.91 112.47 283.21 113.55 281.26C114.36 279.85 115.2 279.13 116.13 279.13C116.49 279.13 116.79 279.34 116.79 279.64C116.79 279.76 116.73 279.94 116.55 280.21C116.28 280.69 116.16 281.02 116.16 281.38C116.16 282.28 116.88 282.94 117.9 282.94C119.01 282.94 119.76 282.1 119.76 280.84C119.76 279.25 118.41 278.14 116.4 278.14C112.17 278.14 107.85 283.06 107.85 287.86C107.85 290.53 109.71 292.39 112.44 292.39C113.76 292.39 115.05 291.91 116.07 291.04C116.85 290.38 117.33 289.81 118.38 288.31ZM133.81 273.46C133.81 271.99 132.67 271.06 130.84 271.06C129.28 271.06 127.84 271.69 126.76 272.89C125.5 274.27 124.93 275.5 124.06 278.53H121.87L121.6 279.79H123.79L121.15 291.55C120.22 295.99 119.65 297.22 118.45 297.22C118.15 297.22 117.91 297.07 117.91 296.89C117.91 296.89 117.97 296.74 118.03 296.62C118.27 296.26 118.39 295.93 118.39 295.6C118.39 294.88 117.67 294.16 116.89 294.16C116.08 294.16 115.36 294.91 115.36 295.78C115.36 297.22 116.53 298.15 118.33 298.15C119.65 298.15 120.79 297.7 121.75 296.77C122.83 295.72 123.52 294.37 124.45 291.61C125.26 289.18 125.62 287.74 127.3 279.79H130L130.27 278.53H127.51L128.05 276.4C128.8 273.43 129.7 271.93 130.78 271.93C131.08 271.93 131.29 272.08 131.29 272.32C131.29 272.32 131.26 272.47 131.14 272.65C130.9 273.01 130.81 273.28 130.81 273.58C130.81 274.42 131.44 275.05 132.28 275.05C133.18 275.05 133.81 274.39 133.81 273.46Z" fill="#1C1B1B"/>
<path d="M482.5 366.72C481.9 366.72 481.39 366.51 480.97 366.09C480.55 365.67 480.34 365.16 480.34 364.56V338.82C480.34 338.22 480.55 337.71 480.97 337.29C481.39 336.87 481.9 336.66 482.5 336.66H491.5C492.1 336.66 492.61 336.87 493.03 337.29C493.45 337.71 493.66 338.22 493.66 338.82C493.66 339.42 493.45 339.93 493.03 340.35C492.61 340.77 492.1 340.98 491.5 340.98H484.66V349.08H490.6C491.2 349.08 491.71 349.29 492.13 349.71C492.55 350.13 492.76 350.64 492.76 351.24C492.76 351.84 492.55 352.35 492.13 352.77C491.71 353.19 491.2 353.4 490.6 353.4H484.66V364.56C484.66 365.16 484.45 365.67 484.03 366.09C483.61 366.51 483.1 366.72 482.5 366.72ZM498.716 366.9C498.116 366.9 497.606 366.69 497.186 366.27C496.766 365.85 496.556 365.34 496.556 364.74V338.64C496.556 338.04 496.766 337.53 497.186 337.11C497.606 336.69 498.116 336.48 498.716 336.48C499.316 336.48 499.826 336.69 500.246 337.11C500.666 337.53 500.876 338.04 500.876 338.64V364.74C500.876 365.34 500.666 365.85 500.246 366.27C499.826 366.69 499.316 366.9 498.716 366.9ZM517.985 349.98C518.585 349.98 519.095 350.19 519.515 350.61C519.935 351.03 520.145 351.54 520.145 352.14V359.34C520.145 360.39 519.95 361.38 519.56 362.31C519.17 363.21 518.63 364.005 517.94 364.695C517.25 365.385 516.44 365.925 515.51 366.315C514.61 366.705 513.635 366.9 512.585 366.9C511.535 366.9 510.545 366.705 509.615 366.315C508.715 365.925 507.92 365.385 507.23 364.695C506.57 364.005 506.03 363.21 505.61 362.31C505.22 361.38 505.025 360.39 505.025 359.34V344.04C505.025 343.2 505.16 342.39 505.43 341.61C505.7 340.8 506.075 340.08 506.555 339.45C507.065 338.79 507.665 338.235 508.355 337.785C509.045 337.305 509.81 336.96 510.65 336.75C511.46 336.54 512.285 336.465 513.125 336.525C513.965 336.555 514.76 336.735 515.51 337.065C516.26 337.365 516.95 337.785 517.58 338.325C518.21 338.865 518.735 339.51 519.155 340.26C519.455 340.77 519.515 341.31 519.335 341.88C519.185 342.45 518.855 342.9 518.345 343.23C517.835 343.53 517.295 343.605 516.725 343.455C516.155 343.275 515.72 342.93 515.42 342.42C515.03 341.79 514.49 341.34 513.8 341.07C513.14 340.77 512.465 340.725 511.775 340.935C511.055 341.115 510.47 341.505 510.02 342.105C509.57 342.675 509.345 343.32 509.345 344.04V359.34C509.345 360.24 509.66 361.005 510.29 361.635C510.95 362.265 511.715 362.58 512.585 362.58C513.485 362.58 514.25 362.265 514.88 361.635C515.51 361.005 515.825 360.24 515.825 359.34V354.3H513.485C512.885 354.3 512.375 354.09 511.955 353.67C511.535 353.25 511.325 352.74 511.325 352.14C511.325 351.54 511.535 351.03 511.955 350.61C512.375 350.19 512.885 349.98 513.485 349.98H517.985ZM523.48 364.29C523.48 363.57 523.735 362.955 524.245 362.445C524.755 361.935 525.37 361.68 526.09 361.68C526.81 361.68 527.425 361.935 527.935 362.445C528.445 362.955 528.7 363.57 528.7 364.29C528.7 365.01 528.445 365.625 527.935 366.135C527.425 366.645 526.81 366.9 526.09 366.9C525.37 366.9 524.755 366.645 524.245 366.135C523.735 365.625 523.48 365.01 523.48 364.29ZM537.807 366.63C536.997 366.42 536.247 366.09 535.557 365.64C534.867 365.16 534.267 364.605 533.757 363.975C533.277 363.315 532.902 362.595 532.632 361.815C532.362 361.035 532.227 360.21 532.227 359.34V344.04C532.227 343.2 532.362 342.39 532.632 341.61C532.902 340.8 533.277 340.08 533.757 339.45C534.267 338.79 534.867 338.235 535.557 337.785C536.247 337.305 536.997 336.96 537.807 336.75C539.487 336.3 541.107 336.405 542.667 337.065C544.227 337.695 545.442 338.76 546.312 340.26C546.642 340.77 546.717 341.31 546.537 341.88C546.387 342.45 546.057 342.9 545.547 343.23C545.037 343.53 544.497 343.605 543.927 343.455C543.357 343.275 542.907 342.93 542.577 342.42C542.217 341.79 541.692 341.34 541.002 341.07C540.342 340.77 539.652 340.725 538.932 340.935C538.242 341.115 537.672 341.505 537.222 342.105C536.772 342.675 536.547 343.32 536.547 344.04V359.34C536.547 360.09 536.772 360.75 537.222 361.32C537.672 361.89 538.242 362.28 538.932 362.49C539.652 362.67 540.342 362.625 541.002 362.355C541.692 362.055 542.217 361.59 542.577 360.96C542.907 360.45 543.357 360.12 543.927 359.97C544.497 359.79 545.037 359.85 545.547 360.15C546.057 360.48 546.387 360.93 546.537 361.5C546.717 362.07 546.642 362.61 546.312 363.12C545.442 364.62 544.227 365.685 542.667 366.315C541.107 366.975 539.487 367.08 537.807 366.63ZM550.081 338.82C550.081 338.22 550.291 337.71 550.711 337.29C551.131 336.87 551.641 336.66 552.241 336.66H561.241C561.841 336.66 562.351 336.87 562.771 337.29C563.191 337.71 563.401 338.22 563.401 338.82C563.401 339.42 563.191 339.93 562.771 340.35C562.351 340.77 561.841 340.98 561.241 340.98H554.401V349.08H560.341C560.941 349.08 561.451 349.29 561.871 349.71C562.291 350.13 562.501 350.64 562.501 351.24C562.501 351.84 562.291 352.35 561.871 352.77C561.451 353.19 560.941 353.4 560.341 353.4H554.401V362.4H561.241C561.841 362.4 562.351 362.61 562.771 363.03C563.191 363.45 563.401 363.96 563.401 364.56C563.401 365.16 563.191 365.67 562.771 366.09C562.351 366.51 561.841 366.72 561.241 366.72H552.241C551.641 366.72 551.131 366.51 550.711 366.09C550.291 365.67 550.081 365.16 550.081 364.56V338.82Z" fill="#1C1B1B"/>
</svg>
