<svg width="840" height="760" viewBox="0 0 840 760" fill="none" xmlns="http://www.w3.org/2000/svg">
<path d="M504.289 190.714L512.495 181.951L514.964 185.221L504.289 190.714Z" fill="#FF6E29"/>
<path d="M509.608 186.729C536.435 162.53 554.68 204.182 588.423 176.087" stroke="#FF6E29" stroke-width="2"/>
<path d="M151 46L151 70.8923L101.193 70.8923" stroke="#FF6E29" stroke-width="2"/>
<path d="M91 70.8957L104.9 68.7005L104.9 73.0908L91 70.8957Z" fill="#FF6E29"/>
<path d="M767.998 298L792.891 298L792.891 347.807" stroke="#FF6E29" stroke-width="2"/>
<path d="M792.895 358L790.7 344.1L795.09 344.1L792.895 358Z" fill="#FF6E29"/>
<path d="M127.431 497L102.539 497L102.539 447.193" stroke="#FF6E29" stroke-width="2"/>
<path d="M102.535 437L104.73 450.9L100.34 450.9L102.535 437Z" fill="#FF6E29"/>
<path d="M156.33 28.22L155.73 27.89C154.68 29.48 153.99 30.14 153.45 30.14C153.18 30.14 152.94 29.9 152.94 29.63C152.94 29.51 152.94 29.48 153.06 29.03L157.59 10.97L154.62 11.33L154.23 11.24C152.43 10.91 152.28 10.88 151.59 10.88C149.73 10.88 147.96 11.6 146.91 12.77C145.71 14.06 145.14 15.26 144.12 18.53H141.9L141.6 19.79H143.82L141.06 31.85C140.07 36.17 139.62 37.1 138.57 37.1C138.18 37.1 137.91 36.95 137.91 36.74C137.91 36.65 137.94 36.53 138.09 36.35C138.3 36.05 138.39 35.81 138.39 35.51C138.39 34.67 137.82 34.13 136.98 34.13C135.99 34.13 135.42 34.73 135.42 35.72C135.42 37.16 136.59 38.15 138.33 38.15C141.42 38.15 143.64 35.3 145.02 29.57L147.39 19.79H151.8L149.43 29.42C149.34 29.81 149.28 30.2 149.28 30.53C149.28 31.55 150.15 32.27 151.44 32.27C153.21 32.27 154.29 31.37 156.33 28.22ZM152.16 18.53H147.63C148.26 15.89 148.68 14.63 149.31 13.61C150.03 12.41 150.96 11.75 151.98 11.75C152.52 11.75 153.06 12.02 153.06 12.32C153.06 12.32 153.03 12.41 152.88 12.65C152.52 13.16 152.43 13.4 152.43 13.79C152.43 14.27 152.61 14.63 153.06 14.96L152.16 18.53Z" fill="#FF6E29"/>
<path d="M260.38 69.31L259.54 68.77C258.1 70.78 257.17 71.47 255.88 71.47C254.56 71.47 253.69 70.39 253.69 68.8C253.69 66.91 254.47 64.21 255.55 62.26C256.36 60.85 257.2 60.13 258.13 60.13C258.49 60.13 258.79 60.34 258.79 60.64C258.79 60.76 258.73 60.94 258.55 61.21C258.28 61.69 258.16 62.02 258.16 62.38C258.16 63.28 258.88 63.94 259.9 63.94C261.01 63.94 261.76 63.1 261.76 61.84C261.76 60.25 260.41 59.14 258.4 59.14C254.17 59.14 249.85 64.06 249.85 68.86C249.85 71.53 251.71 73.39 254.44 73.39C255.76 73.39 257.05 72.91 258.07 72.04C258.85 71.38 259.33 70.81 260.38 69.31ZM272.81 69.31L271.97 68.77C270.53 70.78 269.6 71.47 268.31 71.47C266.99 71.47 266.12 70.39 266.12 68.8C266.12 66.91 266.9 64.21 267.98 62.26C268.79 60.85 269.63 60.13 270.56 60.13C270.92 60.13 271.22 60.34 271.22 60.64C271.22 60.76 271.16 60.94 270.98 61.21C270.71 61.69 270.59 62.02 270.59 62.38C270.59 63.28 271.31 63.94 272.33 63.94C273.44 63.94 274.19 63.1 274.19 61.84C274.19 60.25 272.84 59.14 270.83 59.14C266.6 59.14 262.28 64.06 262.28 68.86C262.28 71.53 264.14 73.39 266.87 73.39C268.19 73.39 269.48 72.91 270.5 72.04C271.28 71.38 271.76 70.81 272.81 69.31Z" fill="#FF6E29"/>
<path d="M437.38 130.25L436.51 129.74C435.13 131.81 434.26 132.47 432.97 132.47C431.71 132.47 431.05 131.63 431.05 130.01C431.05 129.53 431.11 129.14 431.23 128.54C434.35 127.94 435.82 127.28 437.32 125.9C438.37 124.94 438.94 123.83 438.94 122.75C438.94 121.22 437.62 120.14 435.79 120.14C431.44 120.14 427.15 125.03 427.15 129.98C427.15 132.53 429.07 134.39 431.68 134.39C433.99 134.39 435.58 133.22 437.38 130.25ZM436.18 122.15C436.18 123.47 435.67 124.76 434.71 125.75C433.9 126.62 433.15 127.04 431.44 127.58C432.52 123.41 433.9 121.13 435.34 121.13C435.91 121.13 436.18 121.46 436.18 122.15Z" fill="#FF6E29"/>
<path d="M150.38 494.77C150.38 492.55 149.12 491.14 147.14 491.14C145.43 491.14 144.11 492.1 142.34 494.59L143.48 491.14L137.69 491.98V492.79C139.04 492.85 139.31 492.97 139.31 493.54C139.31 493.84 139.07 494.92 138.65 496.48L135.65 508.12C135.08 510.1 134.84 510.37 133.4 510.34V511.15H140.87V510.34C139.37 510.31 138.92 510.1 138.92 509.38C138.92 508.96 139.13 508.06 139.7 505.96C139.91 505.24 139.91 505.18 140.03 504.73C141.08 505.27 141.44 505.39 142.07 505.39C146.15 505.39 150.38 499.96 150.38 494.77ZM146.63 494.98C146.51 496.96 145.55 499.93 144.47 501.88C143.54 503.5 142.58 504.34 141.56 504.34C140.9 504.34 140.39 503.86 140.39 503.26C140.39 502.75 140.72 501.52 141.53 498.79C142.19 496.6 142.46 495.85 142.91 495.16C143.66 493.99 144.68 493.21 145.46 493.27C146.24 493.33 146.69 494.02 146.63 494.98Z" fill="#FF6E29"/>
<path d="M299.38 528.31L298.54 527.77C297.1 529.78 296.17 530.47 294.88 530.47C293.56 530.47 292.69 529.39 292.69 527.8C292.69 525.91 293.47 523.21 294.55 521.26C295.36 519.85 296.2 519.13 297.13 519.13C297.49 519.13 297.79 519.34 297.79 519.64C297.79 519.76 297.73 519.94 297.55 520.21C297.28 520.69 297.16 521.02 297.16 521.38C297.16 522.28 297.88 522.94 298.9 522.94C300.01 522.94 300.76 522.1 300.76 520.84C300.76 519.25 299.41 518.14 297.4 518.14C293.17 518.14 288.85 523.06 288.85 527.86C288.85 530.53 290.71 532.39 293.44 532.39C294.76 532.39 296.05 531.91 297.07 531.04C297.85 530.38 298.33 529.81 299.38 528.31ZM311.81 528.25L310.94 527.74C309.56 529.81 308.69 530.47 307.4 530.47C306.14 530.47 305.48 529.63 305.48 528.01C305.48 527.53 305.54 527.14 305.66 526.54C308.78 525.94 310.25 525.28 311.75 523.9C312.8 522.94 313.37 521.83 313.37 520.75C313.37 519.22 312.05 518.14 310.22 518.14C305.87 518.14 301.58 523.03 301.58 527.98C301.58 530.53 303.5 532.39 306.11 532.39C308.42 532.39 310.01 531.22 311.81 528.25ZM310.61 520.15C310.61 521.47 310.1 522.76 309.14 523.75C308.33 524.62 307.58 525.04 305.87 525.58C306.95 521.41 308.33 519.13 309.77 519.13C310.34 519.13 310.61 519.46 310.61 520.15Z" fill="#FF6E29"/>
<path d="M613.65 166.64L613.02 166.19C611.79 167.84 611.34 168.29 610.86 168.29C610.62 168.29 610.5 168.11 610.5 167.84C610.5 167.09 610.77 165.86 611.52 163.4L613.65 156.32L610.32 156.53L609.78 158.3C609.51 156.77 608.85 156.14 607.56 156.14C603.87 156.14 599.37 161.9 599.37 166.58C599.37 168.86 600.66 170.39 602.61 170.39C604.44 170.39 605.82 169.31 607.53 166.43C607.17 167.66 607.11 168.02 607.11 168.44C607.11 169.55 608.01 170.42 609.12 170.42C610.53 170.42 611.91 169.25 613.65 166.64ZM609.09 158.81C609.09 160.61 608.1 163.94 606.93 166.01C606.12 167.48 605.22 168.26 604.41 168.26C603.63 168.26 603.06 167.57 603.06 166.64C603.06 165.08 604.05 162.08 605.28 159.86C606.18 158.27 607.17 157.34 607.98 157.4C608.64 157.46 609.09 158 609.09 158.81Z" fill="#FF6E29"/>
<path d="M743.66 297.34L743 296.95C742.88 297.1 742.76 297.28 742.64 297.49C741.95 298.6 741.32 299.23 740.93 299.23C740.66 299.23 740.45 299.05 740.45 298.81C740.45 298.48 740.45 298.48 741.08 296.47L742.43 292.48C742.88 291.19 743.12 290.05 743.12 289.27C743.12 288.04 742.13 287.14 740.81 287.14C738.77 287.14 737.36 288.34 734.87 292.3C735.47 290.74 735.65 290.02 735.65 289.18C735.65 287.92 734.9 287.14 733.64 287.14C732.8 287.14 731.9 287.47 731.06 288.16C729.95 289 729.05 290.11 727.1 293.14L729.02 287.17C727.13 287.62 726.41 287.71 723.02 287.98V288.79C723.8 288.79 724.64 288.85 724.64 289.54C724.64 289.99 724.4 290.95 723.59 293.86L721.58 301H725.21C726.8 295.33 727.91 292.78 729.62 290.74C730.28 289.96 731.12 289.33 731.57 289.33C731.87 289.33 732.11 289.63 732.11 289.99C732.11 290.5 731.75 291.76 730.76 294.79L728.81 301H732.41C734.15 295.24 734.36 294.7 735.44 292.81C736.7 290.56 737.9 289.33 738.8 289.33C739.16 289.33 739.49 289.63 739.49 289.96C739.49 290.14 739.4 290.47 739.28 290.86L737.93 294.79C737.27 296.71 736.85 298.51 736.85 299.38C736.85 300.61 737.57 301.27 738.86 301.27C740.72 301.27 741.92 300.28 743.66 297.34ZM757.83 290.77C757.83 288.55 756.57 287.14 754.59 287.14C752.88 287.14 751.56 288.1 749.79 290.59L750.93 287.14L745.14 287.98V288.79C746.49 288.85 746.76 288.97 746.76 289.54C746.76 289.84 746.52 290.92 746.1 292.48L743.1 304.12C742.53 306.1 742.29 306.37 740.85 306.34V307.15H748.32V306.34C746.82 306.31 746.37 306.1 746.37 305.38C746.37 304.96 746.58 304.06 747.15 301.96C747.36 301.24 747.36 301.18 747.48 300.73C748.53 301.27 748.89 301.39 749.52 301.39C753.6 301.39 757.83 295.96 757.83 290.77ZM754.08 290.98C753.96 292.96 753 295.93 751.92 297.88C750.99 299.5 750.03 300.34 749.01 300.34C748.35 300.34 747.84 299.86 747.84 299.26C747.84 298.75 748.17 297.52 748.98 294.79C749.64 292.6 749.91 291.85 750.36 291.16C751.11 289.99 752.13 289.21 752.91 289.27C753.69 289.33 754.14 290.02 754.08 290.98Z" fill="#FF6E29"/>
<line x1="260.195" y1="83.418" x2="260.195" y2="154.618" stroke="#FF6E29" stroke-width="2"/>
<path d="M260.195 163.418L257.597 151.418L262.793 151.418L260.195 163.418Z" fill="#FF6E29"/>
<path d="M281.387 518.327C255.431 501.815 246.2 490.028 245.338 460.015" stroke="#FF6E29" stroke-width="2"/>
<path d="M246.227 449.092L243.145 460.406L247.13 460.784L246.227 449.092Z" fill="#FF6E29"/>
<path d="M419.619 131.989C393.02 147.161 383.276 158.437 380.98 188.238" stroke="#FF6E29" stroke-width="2"/>
<path d="M381.337 199.142L378.816 187.744L382.796 187.56L381.337 199.142Z" fill="#FF6E29"/>
<path d="M757.5 749.72C756.9 749.72 756.39 749.51 755.97 749.09C755.55 748.67 755.34 748.16 755.34 747.56V721.82C755.34 721.22 755.55 720.71 755.97 720.29C756.39 719.87 756.9 719.66 757.5 719.66H766.5C767.1 719.66 767.61 719.87 768.03 720.29C768.45 720.71 768.66 721.22 768.66 721.82C768.66 722.42 768.45 722.93 768.03 723.35C767.61 723.77 767.1 723.98 766.5 723.98H759.66V732.08H765.6C766.2 732.08 766.71 732.29 767.13 732.71C767.55 733.13 767.76 733.64 767.76 734.24C767.76 734.84 767.55 735.35 767.13 735.77C766.71 736.19 766.2 736.4 765.6 736.4H759.66V747.56C759.66 748.16 759.45 748.67 759.03 749.09C758.61 749.51 758.1 749.72 757.5 749.72ZM773.716 749.9C773.116 749.9 772.606 749.69 772.186 749.27C771.766 748.85 771.556 748.34 771.556 747.74V721.64C771.556 721.04 771.766 720.53 772.186 720.11C772.606 719.69 773.116 719.48 773.716 719.48C774.316 719.48 774.826 719.69 775.246 720.11C775.666 720.53 775.876 721.04 775.876 721.64V747.74C775.876 748.34 775.666 748.85 775.246 749.27C774.826 749.69 774.316 749.9 773.716 749.9ZM792.985 732.98C793.585 732.98 794.095 733.19 794.515 733.61C794.935 734.03 795.145 734.54 795.145 735.14V742.34C795.145 743.39 794.95 744.38 794.56 745.31C794.17 746.21 793.63 747.005 792.94 747.695C792.25 748.385 791.44 748.925 790.51 749.315C789.61 749.705 788.635 749.9 787.585 749.9C786.535 749.9 785.545 749.705 784.615 749.315C783.715 748.925 782.92 748.385 782.23 747.695C781.57 747.005 781.03 746.21 780.61 745.31C780.22 744.38 780.025 743.39 780.025 742.34V727.04C780.025 726.2 780.16 725.39 780.43 724.61C780.7 723.8 781.075 723.08 781.555 722.45C782.065 721.79 782.665 721.235 783.355 720.785C784.045 720.305 784.81 719.96 785.65 719.75C786.46 719.54 787.285 719.465 788.125 719.525C788.965 719.555 789.76 719.735 790.51 720.065C791.26 720.365 791.95 720.785 792.58 721.325C793.21 721.865 793.735 722.51 794.155 723.26C794.455 723.77 794.515 724.31 794.335 724.88C794.185 725.45 793.855 725.9 793.345 726.23C792.835 726.53 792.295 726.605 791.725 726.455C791.155 726.275 790.72 725.93 790.42 725.42C790.03 724.79 789.49 724.34 788.8 724.07C788.14 723.77 787.465 723.725 786.775 723.935C786.055 724.115 785.47 724.505 785.02 725.105C784.57 725.675 784.345 726.32 784.345 727.04V742.34C784.345 743.24 784.66 744.005 785.29 744.635C785.95 745.265 786.715 745.58 787.585 745.58C788.485 745.58 789.25 745.265 789.88 744.635C790.51 744.005 790.825 743.24 790.825 742.34V737.3H788.485C787.885 737.3 787.375 737.09 786.955 736.67C786.535 736.25 786.325 735.74 786.325 735.14C786.325 734.54 786.535 734.03 786.955 733.61C787.375 733.19 787.885 732.98 788.485 732.98H792.985ZM798.48 747.29C798.48 746.57 798.735 745.955 799.245 745.445C799.755 744.935 800.37 744.68 801.09 744.68C801.81 744.68 802.425 744.935 802.935 745.445C803.445 745.955 803.7 746.57 803.7 747.29C803.7 748.01 803.445 748.625 802.935 749.135C802.425 749.645 801.81 749.9 801.09 749.9C800.37 749.9 799.755 749.645 799.245 749.135C798.735 748.625 798.48 748.01 798.48 747.29ZM812.807 749.63C811.997 749.42 811.247 749.09 810.557 748.64C809.867 748.16 809.267 747.605 808.757 746.975C808.277 746.315 807.902 745.595 807.632 744.815C807.362 744.035 807.227 743.21 807.227 742.34V727.04C807.227 726.2 807.362 725.39 807.632 724.61C807.902 723.8 808.277 723.08 808.757 722.45C809.267 721.79 809.867 721.235 810.557 720.785C811.247 720.305 811.997 719.96 812.807 719.75C814.487 719.3 816.107 719.405 817.667 720.065C819.227 720.695 820.442 721.76 821.312 723.26C821.642 723.77 821.717 724.31 821.537 724.88C821.387 725.45 821.057 725.9 820.547 726.23C820.037 726.53 819.497 726.605 818.927 726.455C818.357 726.275 817.907 725.93 817.577 725.42C817.217 724.79 816.692 724.34 816.002 724.07C815.342 723.77 814.652 723.725 813.932 723.935C813.242 724.115 812.672 724.505 812.222 725.105C811.772 725.675 811.547 726.32 811.547 727.04V742.34C811.547 743.09 811.772 743.75 812.222 744.32C812.672 744.89 813.242 745.28 813.932 745.49C814.652 745.67 815.342 745.625 816.002 745.355C816.692 745.055 817.217 744.59 817.577 743.96C817.907 743.45 818.357 743.12 818.927 742.97C819.497 742.79 820.037 742.85 820.547 743.15C821.057 743.48 821.387 743.93 821.537 744.5C821.717 745.07 821.642 745.61 821.312 746.12C820.442 747.62 819.227 748.685 817.667 749.315C816.107 749.975 814.487 750.08 812.807 749.63ZM833.136 744.86C833.556 744.56 833.871 744.2 834.081 743.78C834.291 743.36 834.426 742.895 834.486 742.385C834.576 741.365 834.261 740.465 833.541 739.685L826.341 732.305C825.561 731.525 824.991 730.625 824.631 729.605C824.271 728.585 824.136 727.535 824.226 726.455C824.316 725.375 824.616 724.37 825.126 723.44C825.636 722.48 826.326 721.67 827.196 721.01C828.066 720.35 829.026 719.9 830.076 719.66C831.156 719.42 832.221 719.405 833.271 719.615C834.321 719.855 835.281 720.29 836.151 720.92C837.051 721.52 837.771 722.3 838.311 723.26C838.611 723.77 838.671 724.31 838.491 724.88C838.341 725.45 838.011 725.9 837.501 726.23C836.991 726.53 836.451 726.605 835.881 726.455C835.311 726.275 834.876 725.93 834.576 725.42C834.066 724.61 833.346 724.085 832.416 723.845C831.456 723.665 830.586 723.875 829.806 724.475C829.026 725.045 828.606 725.825 828.546 726.815C828.456 727.775 828.756 728.6 829.446 729.29L836.601 736.67C837.381 737.48 837.966 738.41 838.356 739.46C838.746 740.51 838.896 741.59 838.806 742.7C838.716 743.84 838.401 744.89 837.861 745.85C837.321 746.81 836.616 747.635 835.746 748.325C834.846 749.015 833.856 749.48 832.776 749.72C831.696 749.96 830.601 749.975 829.491 749.765C828.381 749.525 827.376 749.09 826.476 748.46C825.576 747.8 824.856 746.99 824.316 746.03C823.986 745.52 823.896 744.98 824.046 744.41C824.226 743.81 824.571 743.36 825.081 743.06C825.591 742.76 826.131 742.7 826.701 742.88C827.271 743.03 827.721 743.36 828.051 743.87C828.561 744.74 829.326 745.295 830.346 745.535C831.396 745.715 832.326 745.49 833.136 744.86Z" fill="#FF6E29"/>
</svg>
