<svg width="331" height="239" viewBox="0 0 331 239" fill="none" xmlns="http://www.w3.org/2000/svg">
<path d="M176.573 96.9563L173.776 85.2809L170.012 86.9018L176.573 96.9563Z" fill="black"/>
<path d="M173.921 90.8597C162.575 56.5578 126.115 83.7339 110.685 42.625" stroke="black" stroke-width="2"/>
<line x1="291" y1="177" x2="219.799" y2="177" stroke="#1C1B1B" stroke-width="2"/>
<path d="M211 177L223 174.402L223 179.598L211 177Z" fill="#1C1B1B"/>
<path d="M309.38 177.25L308.51 176.74C307.13 178.81 306.26 179.47 304.97 179.47C303.71 179.47 303.05 178.63 303.05 177.01C303.05 176.53 303.11 176.14 303.23 175.54C306.35 174.94 307.82 174.28 309.32 172.9C310.37 171.94 310.94 170.83 310.94 169.75C310.94 168.22 309.62 167.14 307.79 167.14C303.44 167.14 299.15 172.03 299.15 176.98C299.15 179.53 301.07 181.39 303.68 181.39C305.99 181.39 307.58 180.22 309.38 177.25ZM308.18 169.15C308.18 170.47 307.67 171.76 306.71 172.75C305.9 173.62 305.15 174.04 303.44 174.58C304.52 170.41 305.9 168.13 307.34 168.13C307.91 168.13 308.18 168.46 308.18 169.15ZM318.57 177.19L317.91 176.77L317.49 177.37C316.71 178.54 316.02 179.17 315.57 179.17C315.33 179.17 315.12 178.96 315.12 178.72C315.12 178.45 315.27 177.67 315.39 177.16L318.12 167.14C316.5 167.5 314.4 167.8 312.06 167.98V168.79H312.45C313.35 168.79 313.83 169.09 313.83 169.66C313.83 169.9 313.74 170.35 313.62 170.86L311.88 177.31C311.64 178.18 311.49 178.96 311.49 179.38C311.49 180.52 312.33 181.27 313.56 181.27C315.36 181.27 316.47 180.37 318.57 177.19ZM319.41 163.3C319.41 162.19 318.48 161.26 317.34 161.26C316.29 161.26 315.36 162.19 315.36 163.24C315.36 164.41 316.23 165.31 317.34 165.31C318.48 165.31 319.41 164.41 319.41 163.3Z" fill="#1C1B1B"/>
<path d="M113.65 28.64L113.02 28.19C111.79 29.84 111.34 30.29 110.86 30.29C110.62 30.29 110.5 30.11 110.5 29.84C110.5 29.09 110.77 27.86 111.52 25.4L113.65 18.32L110.32 18.53L109.78 20.3C109.51 18.77 108.85 18.14 107.56 18.14C103.87 18.14 99.37 23.9 99.37 28.58C99.37 30.86 100.66 32.39 102.61 32.39C104.44 32.39 105.82 31.31 107.53 28.43C107.17 29.66 107.11 30.02 107.11 30.44C107.11 31.55 108.01 32.42 109.12 32.42C110.53 32.42 111.91 31.25 113.65 28.64ZM109.09 20.81C109.09 22.61 108.1 25.94 106.93 28.01C106.12 29.48 105.22 30.26 104.41 30.26C103.63 30.26 103.06 29.57 103.06 28.64C103.06 27.08 104.05 24.08 105.28 21.86C106.18 20.27 107.17 19.34 107.98 19.4C108.64 19.46 109.09 20 109.09 20.81ZM120.85 28.19L120.19 27.77C119.17 29.36 118.39 30.17 117.91 30.17C117.67 30.17 117.43 29.96 117.43 29.72C117.43 29.15 117.97 27.08 119.05 23.36L120.04 19.79H122.53V18.53H120.37L121.54 14.18H120.49C118.87 16.58 117.37 17.84 115 18.74V19.79H116.53L114.49 26.93C114.04 28.49 113.77 29.78 113.77 30.32C113.77 31.49 114.61 32.27 115.87 32.27C117.67 32.27 118.87 31.28 120.85 28.19Z" fill="#1C1B1B"/>
<path d="M14.5 149.72C13.9 149.72 13.39 149.51 12.97 149.09C12.55 148.67 12.34 148.16 12.34 147.56V121.82C12.34 121.22 12.55 120.71 12.97 120.29C13.39 119.87 13.9 119.66 14.5 119.66H23.5C24.1 119.66 24.61 119.87 25.03 120.29C25.45 120.71 25.66 121.22 25.66 121.82C25.66 122.42 25.45 122.93 25.03 123.35C24.61 123.77 24.1 123.98 23.5 123.98H16.66V132.08H22.6C23.2 132.08 23.71 132.29 24.13 132.71C24.55 133.13 24.76 133.64 24.76 134.24C24.76 134.84 24.55 135.35 24.13 135.77C23.71 136.19 23.2 136.4 22.6 136.4H16.66V147.56C16.66 148.16 16.45 148.67 16.03 149.09C15.61 149.51 15.1 149.72 14.5 149.72ZM30.7158 149.9C30.1158 149.9 29.6058 149.69 29.1858 149.27C28.7658 148.85 28.5558 148.34 28.5558 147.74V121.64C28.5558 121.04 28.7658 120.53 29.1858 120.11C29.6058 119.69 30.1158 119.48 30.7158 119.48C31.3158 119.48 31.8258 119.69 32.2458 120.11C32.6658 120.53 32.8758 121.04 32.8758 121.64V147.74C32.8758 148.34 32.6658 148.85 32.2458 149.27C31.8258 149.69 31.3158 149.9 30.7158 149.9ZM49.9846 132.98C50.5846 132.98 51.0946 133.19 51.5146 133.61C51.9346 134.03 52.1446 134.54 52.1446 135.14V142.34C52.1446 143.39 51.9496 144.38 51.5596 145.31C51.1696 146.21 50.6296 147.005 49.9396 147.695C49.2496 148.385 48.4396 148.925 47.5096 149.315C46.6096 149.705 45.6346 149.9 44.5846 149.9C43.5346 149.9 42.5446 149.705 41.6146 149.315C40.7146 148.925 39.9196 148.385 39.2296 147.695C38.5696 147.005 38.0296 146.21 37.6096 145.31C37.2196 144.38 37.0246 143.39 37.0246 142.34V127.04C37.0246 126.2 37.1596 125.39 37.4296 124.61C37.6996 123.8 38.0746 123.08 38.5546 122.45C39.0646 121.79 39.6646 121.235 40.3546 120.785C41.0446 120.305 41.8096 119.96 42.6496 119.75C43.4596 119.54 44.2846 119.465 45.1246 119.525C45.9646 119.555 46.7596 119.735 47.5096 120.065C48.2596 120.365 48.9496 120.785 49.5796 121.325C50.2096 121.865 50.7346 122.51 51.1546 123.26C51.4546 123.77 51.5146 124.31 51.3346 124.88C51.1846 125.45 50.8546 125.9 50.3446 126.23C49.8346 126.53 49.2946 126.605 48.7246 126.455C48.1546 126.275 47.7196 125.93 47.4196 125.42C47.0296 124.79 46.4896 124.34 45.7996 124.07C45.1396 123.77 44.4646 123.725 43.7746 123.935C43.0546 124.115 42.4696 124.505 42.0196 125.105C41.5696 125.675 41.3446 126.32 41.3446 127.04V142.34C41.3446 143.24 41.6596 144.005 42.2896 144.635C42.9496 145.265 43.7146 145.58 44.5846 145.58C45.4846 145.58 46.2496 145.265 46.8796 144.635C47.5096 144.005 47.8246 143.24 47.8246 142.34V137.3H45.4846C44.8846 137.3 44.3746 137.09 43.9546 136.67C43.5346 136.25 43.3246 135.74 43.3246 135.14C43.3246 134.54 43.5346 134.03 43.9546 133.61C44.3746 133.19 44.8846 132.98 45.4846 132.98H49.9846ZM55.4795 147.29C55.4795 146.57 55.7345 145.955 56.2445 145.445C56.7545 144.935 57.3695 144.68 58.0895 144.68C58.8095 144.68 59.4245 144.935 59.9345 145.445C60.4445 145.955 60.6995 146.57 60.6995 147.29C60.6995 148.01 60.4445 148.625 59.9345 149.135C59.4245 149.645 58.8095 149.9 58.0895 149.9C57.3695 149.9 56.7545 149.645 56.2445 149.135C55.7345 148.625 55.4795 148.01 55.4795 147.29ZM64.7668 121.82C64.7668 121.22 64.9768 120.71 65.3968 120.29C65.8168 119.87 66.3268 119.66 66.9268 119.66H75.9268C76.5268 119.66 77.0368 119.87 77.4568 120.29C77.8768 120.71 78.0868 121.22 78.0868 121.82C78.0868 122.42 77.8768 122.93 77.4568 123.35C77.0368 123.77 76.5268 123.98 75.9268 123.98H69.0868V132.08H75.0268C75.6268 132.08 76.1368 132.29 76.5568 132.71C76.9768 133.13 77.1868 133.64 77.1868 134.24C77.1868 134.84 76.9768 135.35 76.5568 135.77C76.1368 136.19 75.6268 136.4 75.0268 136.4H69.0868V145.4H75.9268C76.5268 145.4 77.0368 145.61 77.4568 146.03C77.8768 146.45 78.0868 146.96 78.0868 147.56C78.0868 148.16 77.8768 148.67 77.4568 149.09C77.0368 149.51 76.5268 149.72 75.9268 149.72H66.9268C66.3268 149.72 65.8168 149.51 65.3968 149.09C64.9768 148.67 64.7668 148.16 64.7668 147.56V121.82Z" fill="#1C1B1B"/>
</svg>
