<svg width="650" height="427" viewBox="0 0 650 427" fill="none" xmlns="http://www.w3.org/2000/svg">
<path d="M397.635 167.731C367.213 164.444 353.739 157.507 339.503 128.656" stroke="black" stroke-width="2"/>
<path d="M335.388 117.565L337.735 130.123L341.437 128.523L335.388 117.565Z" fill="black"/>
<path d="M416.38 165.872L415.51 165.362C414.13 167.432 413.26 168.092 411.97 168.092C410.71 168.092 410.05 167.252 410.05 165.632C410.05 165.152 410.11 164.762 410.23 164.162C413.35 163.562 414.82 162.902 416.32 161.522C417.37 160.562 417.94 159.452 417.94 158.372C417.94 156.842 416.62 155.762 414.79 155.762C410.44 155.762 406.15 160.652 406.15 165.602C406.15 168.152 408.07 170.012 410.68 170.012C412.99 170.012 414.58 168.842 416.38 165.872ZM415.18 157.772C415.18 159.092 414.67 160.382 413.71 161.372C412.9 162.242 412.15 162.662 410.44 163.202C411.52 159.032 412.9 156.752 414.34 156.752C414.91 156.752 415.18 157.082 415.18 157.772Z" fill="#1C1B1B"/>
<path d="M269.14 281.344L268.48 280.924L268.06 281.524C267.28 282.694 266.59 283.324 266.14 283.324C265.9 283.324 265.69 283.114 265.69 282.874C265.69 282.604 265.84 281.824 265.96 281.314L268.69 271.294C267.07 271.654 264.97 271.954 262.63 272.134V272.944H263.02C263.92 272.944 264.4 273.244 264.4 273.814C264.4 274.054 264.31 274.504 264.19 275.014L262.45 281.464C262.21 282.334 262.06 283.114 262.06 283.534C262.06 284.674 262.9 285.424 264.13 285.424C265.93 285.424 267.04 284.524 269.14 281.344ZM269.98 267.454C269.98 266.344 269.05 265.414 267.91 265.414C266.86 265.414 265.93 266.344 265.93 267.394C265.93 268.564 266.8 269.464 267.91 269.464C269.05 269.464 269.98 268.564 269.98 267.454Z" fill="#1C1B1B"/>
<path d="M101.5 412.507C100.9 412.507 100.39 412.297 99.97 411.877C99.55 411.457 99.34 410.947 99.34 410.347V384.607C99.34 384.007 99.55 383.497 99.97 383.077C100.39 382.657 100.9 382.447 101.5 382.447H110.5C111.1 382.447 111.61 382.657 112.03 383.077C112.45 383.497 112.66 384.007 112.66 384.607C112.66 385.207 112.45 385.717 112.03 386.137C111.61 386.557 111.1 386.767 110.5 386.767H103.66V394.867H109.6C110.2 394.867 110.71 395.077 111.13 395.497C111.55 395.917 111.76 396.427 111.76 397.027C111.76 397.627 111.55 398.137 111.13 398.557C110.71 398.977 110.2 399.187 109.6 399.187H103.66V410.347C103.66 410.947 103.45 411.457 103.03 411.877C102.61 412.297 102.1 412.507 101.5 412.507ZM117.716 412.687C117.116 412.687 116.606 412.477 116.186 412.057C115.766 411.637 115.556 411.127 115.556 410.527V384.427C115.556 383.827 115.766 383.317 116.186 382.897C116.606 382.477 117.116 382.267 117.716 382.267C118.316 382.267 118.826 382.477 119.246 382.897C119.666 383.317 119.876 383.827 119.876 384.427V410.527C119.876 411.127 119.666 411.637 119.246 412.057C118.826 412.477 118.316 412.687 117.716 412.687ZM136.985 395.767C137.585 395.767 138.095 395.977 138.515 396.397C138.935 396.817 139.145 397.327 139.145 397.927V405.127C139.145 406.177 138.95 407.167 138.56 408.097C138.17 408.997 137.63 409.792 136.94 410.482C136.25 411.172 135.44 411.712 134.51 412.102C133.61 412.492 132.635 412.687 131.585 412.687C130.535 412.687 129.545 412.492 128.615 412.102C127.715 411.712 126.92 411.172 126.23 410.482C125.57 409.792 125.03 408.997 124.61 408.097C124.22 407.167 124.025 406.177 124.025 405.127V389.827C124.025 388.987 124.16 388.177 124.43 387.397C124.7 386.587 125.075 385.867 125.555 385.237C126.065 384.577 126.665 384.022 127.355 383.572C128.045 383.092 128.81 382.747 129.65 382.537C130.46 382.327 131.285 382.252 132.125 382.312C132.965 382.342 133.76 382.522 134.51 382.852C135.26 383.152 135.95 383.572 136.58 384.112C137.21 384.652 137.735 385.297 138.155 386.047C138.455 386.557 138.515 387.097 138.335 387.667C138.185 388.237 137.855 388.687 137.345 389.017C136.835 389.317 136.295 389.392 135.725 389.242C135.155 389.062 134.72 388.717 134.42 388.207C134.03 387.577 133.49 387.127 132.8 386.857C132.14 386.557 131.465 386.512 130.775 386.722C130.055 386.902 129.47 387.292 129.02 387.892C128.57 388.462 128.345 389.107 128.345 389.827V405.127C128.345 406.027 128.66 406.792 129.29 407.422C129.95 408.052 130.715 408.367 131.585 408.367C132.485 408.367 133.25 408.052 133.88 407.422C134.51 406.792 134.825 406.027 134.825 405.127V400.087H132.485C131.885 400.087 131.375 399.877 130.955 399.457C130.535 399.037 130.325 398.527 130.325 397.927C130.325 397.327 130.535 396.817 130.955 396.397C131.375 395.977 131.885 395.767 132.485 395.767H136.985ZM142.48 410.077C142.48 409.357 142.735 408.742 143.245 408.232C143.755 407.722 144.37 407.467 145.09 407.467C145.81 407.467 146.425 407.722 146.935 408.232C147.445 408.742 147.7 409.357 147.7 410.077C147.7 410.797 147.445 411.412 146.935 411.922C146.425 412.432 145.81 412.687 145.09 412.687C144.37 412.687 143.755 412.432 143.245 411.922C142.735 411.412 142.48 410.797 142.48 410.077ZM153.927 412.507C153.327 412.507 152.817 412.297 152.397 411.877C151.977 411.457 151.767 410.947 151.767 410.347V384.607C151.767 384.007 151.977 383.497 152.397 383.077C152.817 382.657 153.327 382.447 153.927 382.447H162.927C163.527 382.447 164.037 382.657 164.457 383.077C164.877 383.497 165.087 384.007 165.087 384.607C165.087 385.207 164.877 385.717 164.457 386.137C164.037 386.557 163.527 386.767 162.927 386.767H156.087V394.867H162.027C162.627 394.867 163.137 395.077 163.557 395.497C163.977 395.917 164.187 396.427 164.187 397.027C164.187 397.627 163.977 398.137 163.557 398.557C163.137 398.977 162.627 399.187 162.027 399.187H156.087V410.347C156.087 410.947 155.877 411.457 155.457 411.877C155.037 412.297 154.527 412.507 153.927 412.507ZM170.143 412.507C169.543 412.507 169.033 412.297 168.613 411.877C168.193 411.457 167.983 410.947 167.983 410.347V384.427C167.983 383.827 168.193 383.317 168.613 382.897C169.033 382.477 169.543 382.267 170.143 382.267C170.743 382.267 171.253 382.477 171.673 382.897C172.093 383.317 172.303 383.827 172.303 384.427V408.187H179.143C179.743 408.187 180.253 408.397 180.673 408.817C181.093 409.237 181.303 409.747 181.303 410.347C181.303 410.947 181.093 411.457 180.673 411.877C180.253 412.297 179.743 412.507 179.143 412.507H170.143Z" fill="#1C1B1B"/>
<line x1="254" y1="278.36" x2="191.7" y2="278.36" stroke="#1C1B1B" stroke-width="2"/>
<path d="M184 278.46L194.5 275.601L194.5 281.318L184 278.46Z" fill="#1C1B1B"/>
<line y1="-1" x2="41.7047" y2="-1" transform="matrix(-0.836998 -0.547206 -0.475161 0.879899 193.346 117.859)" stroke="#1C1B1B" stroke-width="2"/>
<path d="M152.497 89.7809L159.579 97.6584L162.171 92.8576L152.497 89.7809Z" fill="#1C1B1B"/>
<line y1="-1" x2="44.3858" y2="-1" transform="matrix(0.23661 -0.971605 -0.959182 -0.282789 218.77 105.534)" stroke="#1C1B1B" stroke-width="2"/>
<path d="M232.252 54.8339L227.28 64.4614L232.182 65.9067L232.252 54.8339Z" fill="#1C1B1B"/>
<path d="M209.14 125.102L208.48 124.682L208.06 125.282C207.28 126.452 206.59 127.082 206.14 127.082C205.9 127.082 205.69 126.872 205.69 126.632C205.69 126.362 205.84 125.582 205.96 125.072L208.69 115.052C207.07 115.412 204.97 115.712 202.63 115.892L202.63 116.702L203.02 116.702C203.92 116.702 204.4 117.002 204.4 117.572C204.4 117.812 204.31 118.262 204.19 118.772L202.45 125.222C202.21 126.092 202.06 126.872 202.06 127.292C202.06 128.432 202.9 129.182 204.13 129.182C205.93 129.182 207.04 128.282 209.14 125.102ZM209.98 111.212C209.98 110.102 209.05 109.172 207.91 109.172C206.86 109.172 205.93 110.102 205.93 111.152C205.93 112.322 206.8 113.222 207.91 113.222C209.05 113.222 209.98 112.322 209.98 111.212ZM216.2 125.102L215.54 124.682C214.52 126.272 213.74 127.082 213.26 127.082C213.02 127.082 212.78 126.872 212.78 126.632C212.78 126.062 213.32 123.992 214.4 120.272L215.39 116.702L217.88 116.702L217.88 115.442L215.72 115.442L216.89 111.092L215.84 111.092C214.22 113.492 212.72 114.752 210.35 115.652L210.35 116.702L211.88 116.702L209.84 123.842C209.39 125.402 209.12 126.692 209.12 127.232C209.12 128.402 209.96 129.182 211.22 129.182C213.02 129.182 214.22 128.192 216.2 125.102Z" fill="#1C1B1B"/>
</svg>
