<svg width="1050" height="750" viewBox="0 0 1050 750" fill="none" xmlns="http://www.w3.org/2000/svg">
<g clip-path="url(#clip0)">
<path fill-rule="evenodd" clip-rule="evenodd" d="M623.552 185.518C628.644 184.646 632.884 185.343 636.67 186.969C641.234 188.928 645.095 192.228 648.925 195.499L648.925 195.5C649.291 195.812 649.656 196.124 650.022 196.435C654.263 200.039 658.597 203.504 664.092 205.408C669.554 207.3 676.255 207.678 685.252 204.902L685.842 206.813C676.499 209.696 669.357 209.348 663.438 207.298C657.554 205.259 652.971 201.565 648.727 197.959C648.369 197.655 648.013 197.351 647.66 197.05C643.781 193.738 640.15 190.64 635.881 188.807C632.508 187.358 628.707 186.694 624.052 187.462L624.123 187.737L621.843 187.92C620.836 188.169 619.79 188.483 618.702 188.867L618.464 188.191L612.156 188.697L623.102 183.768L623.552 185.518Z" fill="#FF6E29"/>
<path d="M885.998 307L910.891 307L910.891 356.807" stroke="#FF6E29" stroke-width="2"/>
<path d="M910.895 367L908.7 353.1L913.09 353.1L910.895 367Z" fill="#FF6E29"/>
<path d="M232.431 497L207.539 497L207.539 447.193" stroke="#FF6E29" stroke-width="2"/>
<path d="M207.535 437L209.73 450.9L205.34 450.9L207.535 437Z" fill="#FF6E29"/>
<path d="M257.33 66.22L256.73 65.89C255.68 67.48 254.99 68.14 254.45 68.14C254.18 68.14 253.94 67.9 253.94 67.63C253.94 67.51 253.94 67.48 254.06 67.03L258.59 48.97L255.62 49.33L255.23 49.24C253.43 48.91 253.28 48.88 252.59 48.88C250.73 48.88 248.96 49.6 247.91 50.77C246.71 52.06 246.14 53.26 245.12 56.53H242.9L242.6 57.79H244.82L242.06 69.85C241.07 74.17 240.62 75.1 239.57 75.1C239.18 75.1 238.91 74.95 238.91 74.74C238.91 74.65 238.94 74.53 239.09 74.35C239.3 74.05 239.39 73.81 239.39 73.51C239.39 72.67 238.82 72.13 237.98 72.13C236.99 72.13 236.42 72.73 236.42 73.72C236.42 75.16 237.59 76.15 239.33 76.15C242.42 76.15 244.64 73.3 246.02 67.57L248.39 57.79H252.8L250.43 67.42C250.34 67.81 250.28 68.2 250.28 68.53C250.28 69.55 251.15 70.27 252.44 70.27C254.21 70.27 255.29 69.37 257.33 66.22ZM253.16 56.53H248.63C249.26 53.89 249.68 52.63 250.31 51.61C251.03 50.41 251.96 49.75 252.98 49.75C253.52 49.75 254.06 50.02 254.06 50.32C254.06 50.32 254.03 50.41 253.88 50.65C253.52 51.16 253.43 51.4 253.43 51.79C253.43 52.27 253.61 52.63 254.06 52.96L253.16 56.53Z" fill="#FF6E29"/>
<path d="M365.38 69.31L364.54 68.77C363.1 70.78 362.17 71.47 360.88 71.47C359.56 71.47 358.69 70.39 358.69 68.8C358.69 66.91 359.47 64.21 360.55 62.26C361.36 60.85 362.2 60.13 363.13 60.13C363.49 60.13 363.79 60.34 363.79 60.64C363.79 60.76 363.73 60.94 363.55 61.21C363.28 61.69 363.16 62.02 363.16 62.38C363.16 63.28 363.88 63.94 364.9 63.94C366.01 63.94 366.76 63.1 366.76 61.84C366.76 60.25 365.41 59.14 363.4 59.14C359.17 59.14 354.85 64.06 354.85 68.86C354.85 71.53 356.71 73.39 359.44 73.39C360.76 73.39 362.05 72.91 363.07 72.04C363.85 71.38 364.33 70.81 365.38 69.31ZM377.81 69.31L376.97 68.77C375.53 70.78 374.6 71.47 373.31 71.47C371.99 71.47 371.12 70.39 371.12 68.8C371.12 66.91 371.9 64.21 372.98 62.26C373.79 60.85 374.63 60.13 375.56 60.13C375.92 60.13 376.22 60.34 376.22 60.64C376.22 60.76 376.16 60.94 375.98 61.21C375.71 61.69 375.59 62.02 375.59 62.38C375.59 63.28 376.31 63.94 377.33 63.94C378.44 63.94 379.19 63.1 379.19 61.84C379.19 60.25 377.84 59.14 375.83 59.14C371.6 59.14 367.28 64.06 367.28 68.86C367.28 71.53 369.14 73.39 371.87 73.39C373.19 73.39 374.48 72.91 375.5 72.04C376.28 71.38 376.76 70.81 377.81 69.31Z" fill="#FF6E29"/>
<path d="M542.38 130.25L541.51 129.74C540.13 131.81 539.26 132.47 537.97 132.47C536.71 132.47 536.05 131.63 536.05 130.01C536.05 129.53 536.11 129.14 536.23 128.54C539.35 127.94 540.82 127.28 542.32 125.9C543.37 124.94 543.94 123.83 543.94 122.75C543.94 121.22 542.62 120.14 540.79 120.14C536.44 120.14 532.15 125.03 532.15 129.98C532.15 132.53 534.07 134.39 536.68 134.39C538.99 134.39 540.58 133.22 542.38 130.25ZM541.18 122.15C541.18 123.47 540.67 124.76 539.71 125.75C538.9 126.62 538.15 127.04 536.44 127.58C537.52 123.41 538.9 121.13 540.34 121.13C540.91 121.13 541.18 121.46 541.18 122.15Z" fill="#FF6E29"/>
<path d="M255.38 494.77C255.38 492.55 254.12 491.14 252.14 491.14C250.43 491.14 249.11 492.1 247.34 494.59L248.48 491.14L242.69 491.98V492.79C244.04 492.85 244.31 492.97 244.31 493.54C244.31 493.84 244.07 494.92 243.65 496.48L240.65 508.12C240.08 510.1 239.84 510.37 238.4 510.34V511.15H245.87V510.34C244.37 510.31 243.92 510.1 243.92 509.38C243.92 508.96 244.13 508.06 244.7 505.96C244.91 505.24 244.91 505.18 245.03 504.73C246.08 505.27 246.44 505.39 247.07 505.39C251.15 505.39 255.38 499.96 255.38 494.77ZM251.63 494.98C251.51 496.96 250.55 499.93 249.47 501.88C248.54 503.5 247.58 504.34 246.56 504.34C245.9 504.34 245.39 503.86 245.39 503.26C245.39 502.75 245.72 501.52 246.53 498.79C247.19 496.6 247.46 495.85 247.91 495.16C248.66 493.99 249.68 493.21 250.46 493.27C251.24 493.33 251.69 494.02 251.63 494.98Z" fill="#FF6E29"/>
<path d="M401.38 522.31L400.54 521.77C399.1 523.78 398.17 524.47 396.88 524.47C395.56 524.47 394.69 523.39 394.69 521.8C394.69 519.91 395.47 517.21 396.55 515.26C397.36 513.85 398.2 513.13 399.13 513.13C399.49 513.13 399.79 513.34 399.79 513.64C399.79 513.76 399.73 513.94 399.55 514.21C399.28 514.69 399.16 515.02 399.16 515.38C399.16 516.28 399.88 516.94 400.9 516.94C402.01 516.94 402.76 516.1 402.76 514.84C402.76 513.25 401.41 512.14 399.4 512.14C395.17 512.14 390.85 517.06 390.85 521.86C390.85 524.53 392.71 526.39 395.44 526.39C396.76 526.39 398.05 525.91 399.07 525.04C399.85 524.38 400.33 523.81 401.38 522.31ZM413.81 522.25L412.94 521.74C411.56 523.81 410.69 524.47 409.4 524.47C408.14 524.47 407.48 523.63 407.48 522.01C407.48 521.53 407.54 521.14 407.66 520.54C410.78 519.94 412.25 519.28 413.75 517.9C414.8 516.94 415.37 515.83 415.37 514.75C415.37 513.22 414.05 512.14 412.22 512.14C407.87 512.14 403.58 517.03 403.58 521.98C403.58 524.53 405.5 526.39 408.11 526.39C410.42 526.39 412.01 525.22 413.81 522.25ZM412.61 514.15C412.61 515.47 412.1 516.76 411.14 517.75C410.33 518.62 409.58 519.04 407.87 519.58C408.95 515.41 410.33 513.13 411.77 513.13C412.34 513.13 412.61 513.46 412.61 514.15Z" fill="#FF6E29"/>
<path d="M707.65 205.64L707.02 205.19C705.79 206.84 705.34 207.29 704.86 207.29C704.62 207.29 704.5 207.11 704.5 206.84C704.5 206.09 704.77 204.86 705.52 202.4L707.65 195.32L704.32 195.53L703.78 197.3C703.51 195.77 702.85 195.14 701.56 195.14C697.87 195.14 693.37 200.9 693.37 205.58C693.37 207.86 694.66 209.39 696.61 209.39C698.44 209.39 699.82 208.31 701.53 205.43C701.17 206.66 701.11 207.02 701.11 207.44C701.11 208.55 702.01 209.42 703.12 209.42C704.53 209.42 705.91 208.25 707.65 205.64ZM703.09 197.81C703.09 199.61 702.1 202.94 700.93 205.01C700.12 206.48 699.22 207.26 698.41 207.26C697.63 207.26 697.06 206.57 697.06 205.64C697.06 204.08 698.05 201.08 699.28 198.86C700.18 197.27 701.17 196.34 701.98 196.4C702.64 196.46 703.09 197 703.09 197.81Z" fill="#FF6E29"/>
<path d="M861.66 306.34L861 305.95C860.88 306.1 860.76 306.28 860.64 306.49C859.95 307.6 859.32 308.23 858.93 308.23C858.66 308.23 858.45 308.05 858.45 307.81C858.45 307.48 858.45 307.48 859.08 305.47L860.43 301.48C860.88 300.19 861.12 299.05 861.12 298.27C861.12 297.04 860.13 296.14 858.81 296.14C856.77 296.14 855.36 297.34 852.87 301.3C853.47 299.74 853.65 299.02 853.65 298.18C853.65 296.92 852.9 296.14 851.64 296.14C850.8 296.14 849.9 296.47 849.06 297.16C847.95 298 847.05 299.11 845.1 302.14L847.02 296.17C845.13 296.62 844.41 296.71 841.02 296.98V297.79C841.8 297.79 842.64 297.85 842.64 298.54C842.64 298.99 842.4 299.95 841.59 302.86L839.58 310H843.21C844.8 304.33 845.91 301.78 847.62 299.74C848.28 298.96 849.12 298.33 849.57 298.33C849.87 298.33 850.11 298.63 850.11 298.99C850.11 299.5 849.75 300.76 848.76 303.79L846.81 310H850.41C852.15 304.24 852.36 303.7 853.44 301.81C854.7 299.56 855.9 298.33 856.8 298.33C857.16 298.33 857.49 298.63 857.49 298.96C857.49 299.14 857.4 299.47 857.28 299.86L855.93 303.79C855.27 305.71 854.85 307.51 854.85 308.38C854.85 309.61 855.57 310.27 856.86 310.27C858.72 310.27 859.92 309.28 861.66 306.34ZM875.83 299.77C875.83 297.55 874.57 296.14 872.59 296.14C870.88 296.14 869.56 297.1 867.79 299.59L868.93 296.14L863.14 296.98V297.79C864.49 297.85 864.76 297.97 864.76 298.54C864.76 298.84 864.52 299.92 864.1 301.48L861.1 313.12C860.53 315.1 860.29 315.37 858.85 315.34V316.15H866.32V315.34C864.82 315.31 864.37 315.1 864.37 314.38C864.37 313.96 864.58 313.06 865.15 310.96C865.36 310.24 865.36 310.18 865.48 309.73C866.53 310.27 866.89 310.39 867.52 310.39C871.6 310.39 875.83 304.96 875.83 299.77ZM872.08 299.98C871.96 301.96 871 304.93 869.92 306.88C868.99 308.5 868.03 309.34 867.01 309.34C866.35 309.34 865.84 308.86 865.84 308.26C865.84 307.75 866.17 306.52 866.98 303.79C867.64 301.6 867.91 300.85 868.36 300.16C869.11 298.99 870.13 298.21 870.91 298.27C871.69 298.33 872.14 299.02 872.08 299.98Z" fill="#FF6E29"/>
<line x1="365.195" y1="83.418" x2="365.195" y2="145.718" stroke="#FF6E29" stroke-width="2"/>
<path d="M365.195 153.418L362.597 142.918L367.793 142.918L365.195 153.418Z" fill="#FF6E29"/>
<line x1="232" y1="58.9998" x2="169.7" y2="58.9998" stroke="#FF6E29" stroke-width="2"/>
<path d="M162 59L172.5 56.4019L172.5 61.5981L162 59Z" fill="#FF6E29"/>
<path fill-rule="evenodd" clip-rule="evenodd" d="M383.571 512.627C373.996 504.046 367.585 496.908 364.032 488.72C360.504 480.59 359.844 471.543 361.483 459.234L360.667 459.018L364.744 450.129L363.894 459.871L363.433 459.749C361.861 471.734 362.561 480.307 365.867 487.924C369.24 495.697 375.376 502.597 384.906 511.138L383.571 512.627Z" fill="#FF6E29"/>
<path fill-rule="evenodd" clip-rule="evenodd" d="M524.149 130.955C513.039 137.292 505.307 142.89 500.136 150.108C495 157.276 492.461 165.936 491.475 178.251L490.64 178.289L492.741 187.787L493.956 178.136L493.489 178.158C494.474 166.174 496.951 157.986 501.762 151.273C506.67 144.422 514.083 138.999 525.14 132.692L524.149 130.955Z" fill="#FF6E29"/>
<path d="M862.5 749.72C861.9 749.72 861.39 749.51 860.97 749.09C860.55 748.67 860.34 748.16 860.34 747.56V721.82C860.34 721.22 860.55 720.71 860.97 720.29C861.39 719.87 861.9 719.66 862.5 719.66H871.5C872.1 719.66 872.61 719.87 873.03 720.29C873.45 720.71 873.66 721.22 873.66 721.82C873.66 722.42 873.45 722.93 873.03 723.35C872.61 723.77 872.1 723.98 871.5 723.98H864.66V732.08H870.6C871.2 732.08 871.71 732.29 872.13 732.71C872.55 733.13 872.76 733.64 872.76 734.24C872.76 734.84 872.55 735.35 872.13 735.77C871.71 736.19 871.2 736.4 870.6 736.4H864.66V747.56C864.66 748.16 864.45 748.67 864.03 749.09C863.61 749.51 863.1 749.72 862.5 749.72ZM878.716 749.9C878.116 749.9 877.606 749.69 877.186 749.27C876.766 748.85 876.556 748.34 876.556 747.74V721.64C876.556 721.04 876.766 720.53 877.186 720.11C877.606 719.69 878.116 719.48 878.716 719.48C879.316 719.48 879.826 719.69 880.246 720.11C880.666 720.53 880.876 721.04 880.876 721.64V747.74C880.876 748.34 880.666 748.85 880.246 749.27C879.826 749.69 879.316 749.9 878.716 749.9ZM897.985 732.98C898.585 732.98 899.095 733.19 899.515 733.61C899.935 734.03 900.145 734.54 900.145 735.14V742.34C900.145 743.39 899.95 744.38 899.56 745.31C899.17 746.21 898.63 747.005 897.94 747.695C897.25 748.385 896.44 748.925 895.51 749.315C894.61 749.705 893.635 749.9 892.585 749.9C891.535 749.9 890.545 749.705 889.615 749.315C888.715 748.925 887.92 748.385 887.23 747.695C886.57 747.005 886.03 746.21 885.61 745.31C885.22 744.38 885.025 743.39 885.025 742.34V727.04C885.025 726.2 885.16 725.39 885.43 724.61C885.7 723.8 886.075 723.08 886.555 722.45C887.065 721.79 887.665 721.235 888.355 720.785C889.045 720.305 889.81 719.96 890.65 719.75C891.46 719.54 892.285 719.465 893.125 719.525C893.965 719.555 894.76 719.735 895.51 720.065C896.26 720.365 896.95 720.785 897.58 721.325C898.21 721.865 898.735 722.51 899.155 723.26C899.455 723.77 899.515 724.31 899.335 724.88C899.185 725.45 898.855 725.9 898.345 726.23C897.835 726.53 897.295 726.605 896.725 726.455C896.155 726.275 895.72 725.93 895.42 725.42C895.03 724.79 894.49 724.34 893.8 724.07C893.14 723.77 892.465 723.725 891.775 723.935C891.055 724.115 890.47 724.505 890.02 725.105C889.57 725.675 889.345 726.32 889.345 727.04V742.34C889.345 743.24 889.66 744.005 890.29 744.635C890.95 745.265 891.715 745.58 892.585 745.58C893.485 745.58 894.25 745.265 894.88 744.635C895.51 744.005 895.825 743.24 895.825 742.34V737.3H893.485C892.885 737.3 892.375 737.09 891.955 736.67C891.535 736.25 891.325 735.74 891.325 735.14C891.325 734.54 891.535 734.03 891.955 733.61C892.375 733.19 892.885 732.98 893.485 732.98H897.985ZM903.48 747.29C903.48 746.57 903.735 745.955 904.245 745.445C904.755 744.935 905.37 744.68 906.09 744.68C906.81 744.68 907.425 744.935 907.935 745.445C908.445 745.955 908.7 746.57 908.7 747.29C908.7 748.01 908.445 748.625 907.935 749.135C907.425 749.645 906.81 749.9 906.09 749.9C905.37 749.9 904.755 749.645 904.245 749.135C903.735 748.625 903.48 748.01 903.48 747.29ZM917.807 749.63C916.997 749.42 916.247 749.09 915.557 748.64C914.867 748.16 914.267 747.605 913.757 746.975C913.277 746.315 912.902 745.595 912.632 744.815C912.362 744.035 912.227 743.21 912.227 742.34V727.04C912.227 726.2 912.362 725.39 912.632 724.61C912.902 723.8 913.277 723.08 913.757 722.45C914.267 721.79 914.867 721.235 915.557 720.785C916.247 720.305 916.997 719.96 917.807 719.75C919.487 719.3 921.107 719.405 922.667 720.065C924.227 720.695 925.442 721.76 926.312 723.26C926.642 723.77 926.717 724.31 926.537 724.88C926.387 725.45 926.057 725.9 925.547 726.23C925.037 726.53 924.497 726.605 923.927 726.455C923.357 726.275 922.907 725.93 922.577 725.42C922.217 724.79 921.692 724.34 921.002 724.07C920.342 723.77 919.652 723.725 918.932 723.935C918.242 724.115 917.672 724.505 917.222 725.105C916.772 725.675 916.547 726.32 916.547 727.04V742.34C916.547 743.09 916.772 743.75 917.222 744.32C917.672 744.89 918.242 745.28 918.932 745.49C919.652 745.67 920.342 745.625 921.002 745.355C921.692 745.055 922.217 744.59 922.577 743.96C922.907 743.45 923.357 743.12 923.927 742.97C924.497 742.79 925.037 742.85 925.547 743.15C926.057 743.48 926.387 743.93 926.537 744.5C926.717 745.07 926.642 745.61 926.312 746.12C925.442 747.62 924.227 748.685 922.667 749.315C921.107 749.975 919.487 750.08 917.807 749.63ZM938.136 744.86C938.556 744.56 938.871 744.2 939.081 743.78C939.291 743.36 939.426 742.895 939.486 742.385C939.576 741.365 939.261 740.465 938.541 739.685L931.341 732.305C930.561 731.525 929.991 730.625 929.631 729.605C929.271 728.585 929.136 727.535 929.226 726.455C929.316 725.375 929.616 724.37 930.126 723.44C930.636 722.48 931.326 721.67 932.196 721.01C933.066 720.35 934.026 719.9 935.076 719.66C936.156 719.42 937.221 719.405 938.271 719.615C939.321 719.855 940.281 720.29 941.151 720.92C942.051 721.52 942.771 722.3 943.311 723.26C943.611 723.77 943.671 724.31 943.491 724.88C943.341 725.45 943.011 725.9 942.501 726.23C941.991 726.53 941.451 726.605 940.881 726.455C940.311 726.275 939.876 725.93 939.576 725.42C939.066 724.61 938.346 724.085 937.416 723.845C936.456 723.665 935.586 723.875 934.806 724.475C934.026 725.045 933.606 725.825 933.546 726.815C933.456 727.775 933.756 728.6 934.446 729.29L941.601 736.67C942.381 737.48 942.966 738.41 943.356 739.46C943.746 740.51 943.896 741.59 943.806 742.7C943.716 743.84 943.401 744.89 942.861 745.85C942.321 746.81 941.616 747.635 940.746 748.325C939.846 749.015 938.856 749.48 937.776 749.72C936.696 749.96 935.601 749.975 934.491 749.765C933.381 749.525 932.376 749.09 931.476 748.46C930.576 747.8 929.856 746.99 929.316 746.03C928.986 745.52 928.896 744.98 929.046 744.41C929.226 743.81 929.571 743.36 930.081 743.06C930.591 742.76 931.131 742.7 931.701 742.88C932.271 743.03 932.721 743.36 933.051 743.87C933.561 744.74 934.326 745.295 935.346 745.535C936.396 745.715 937.326 745.49 938.136 744.86Z" fill="#FF6E29"/>
</g>
<defs>
<clipPath id="clip0">
<rect width="1050" height="750" fill="white" transform="translate(1050 750) rotate(180)"/>
</clipPath>
</defs>
</svg>
