<svg width="1050" height="770" viewBox="0 0 1050 770" fill="none" xmlns="http://www.w3.org/2000/svg">
<g clip-path="url(#clip0)">
<path fill-rule="evenodd" clip-rule="evenodd" d="M623.552 205.518C628.644 204.646 632.884 205.343 636.67 206.969C641.234 208.928 645.095 212.228 648.925 215.499L648.925 215.5C649.291 215.812 649.656 216.124 650.022 216.435C654.263 220.039 658.597 223.504 664.092 225.408C669.554 227.3 676.255 227.678 685.252 224.902L685.842 226.813C676.499 229.696 669.357 229.348 663.438 227.298C657.554 225.259 652.971 221.565 648.727 217.959C648.369 217.655 648.013 217.351 647.66 217.05C643.781 213.738 640.15 210.64 635.881 208.807C632.508 207.358 628.707 206.694 624.052 207.462L624.123 207.737L621.843 207.92C620.836 208.169 619.79 208.483 618.702 208.867L618.464 208.191L612.156 208.697L623.102 203.768L623.552 205.518Z" fill="#FF6E29"/>
<path d="M885.998 327L910.891 327L910.891 376.807" stroke="#FF6E29" stroke-width="2"/>
<path d="M910.895 387L908.7 373.1L913.09 373.1L910.895 387Z" fill="#FF6E29"/>
<path d="M232.431 517L207.539 517L207.539 467.193" stroke="#FF6E29" stroke-width="2"/>
<path d="M207.535 457L209.73 470.9L205.34 470.9L207.535 457Z" fill="#FF6E29"/>
<path d="M252.38 79.25L251.51 78.74C250.13 80.81 249.26 81.47 247.97 81.47C246.71 81.47 246.05 80.63 246.05 79.01C246.05 78.53 246.11 78.14 246.23 77.54C249.35 76.94 250.82 76.28 252.32 74.9C253.37 73.94 253.94 72.83 253.94 71.75C253.94 70.22 252.62 69.14 250.79 69.14C246.44 69.14 242.15 74.03 242.15 78.98C242.15 81.53 244.07 83.39 246.68 83.39C248.99 83.39 250.58 82.22 252.38 79.25ZM251.18 71.15C251.18 72.47 250.67 73.76 249.71 74.75C248.9 75.62 248.15 76.04 246.44 76.58C247.52 72.41 248.9 70.13 250.34 70.13C250.91 70.13 251.18 70.46 251.18 71.15Z" fill="#FF6E29"/>
<path d="M373.38 82.77C373.38 80.55 372.12 79.14 370.14 79.14C368.43 79.14 367.11 80.1 365.34 82.59L366.48 79.14L360.69 79.98V80.79C362.04 80.85 362.31 80.97 362.31 81.54C362.31 81.84 362.07 82.92 361.65 84.48L358.65 96.12C358.08 98.1 357.84 98.37 356.4 98.34V99.15H363.87V98.34C362.37 98.31 361.92 98.1 361.92 97.38C361.92 96.96 362.13 96.06 362.7 93.96C362.91 93.24 362.91 93.18 363.03 92.73C364.08 93.27 364.44 93.39 365.07 93.39C369.15 93.39 373.38 87.96 373.38 82.77ZM369.63 82.98C369.51 84.96 368.55 87.93 367.47 89.88C366.54 91.5 365.58 92.34 364.56 92.34C363.9 92.34 363.39 91.86 363.39 91.26C363.39 90.75 363.72 89.52 364.53 86.79C365.19 84.6 365.46 83.85 365.91 83.16C366.66 81.99 367.68 81.21 368.46 81.27C369.24 81.33 369.69 82.02 369.63 82.98Z" fill="#FF6E29"/>
<path d="M547.33 150.22L546.73 149.89C545.68 151.48 544.99 152.14 544.45 152.14C544.18 152.14 543.94 151.9 543.94 151.63C543.94 151.51 543.94 151.48 544.06 151.03L548.59 132.97L545.62 133.33L545.23 133.24C543.43 132.91 543.28 132.88 542.59 132.88C540.73 132.88 538.96 133.6 537.91 134.77C536.71 136.06 536.14 137.26 535.12 140.53H532.9L532.6 141.79H534.82L532.06 153.85C531.07 158.17 530.62 159.1 529.57 159.1C529.18 159.1 528.91 158.95 528.91 158.74C528.91 158.65 528.94 158.53 529.09 158.35C529.3 158.05 529.39 157.81 529.39 157.51C529.39 156.67 528.82 156.13 527.98 156.13C526.99 156.13 526.42 156.73 526.42 157.72C526.42 159.16 527.59 160.15 529.33 160.15C532.42 160.15 534.64 157.3 536.02 151.57L538.39 141.79H542.8L540.43 151.42C540.34 151.81 540.28 152.2 540.28 152.53C540.28 153.55 541.15 154.27 542.44 154.27C544.21 154.27 545.29 153.37 547.33 150.22ZM543.16 140.53H538.63C539.26 137.89 539.68 136.63 540.31 135.61C541.03 134.41 541.96 133.75 542.98 133.75C543.52 133.75 544.06 134.02 544.06 134.32C544.06 134.32 544.03 134.41 543.88 134.65C543.52 135.16 543.43 135.4 543.43 135.79C543.43 136.27 543.61 136.63 544.06 136.96L543.16 140.53Z" fill="#FF6E29"/>
<path d="M252.38 517.31L251.54 516.77C250.1 518.78 249.17 519.47 247.88 519.47C246.56 519.47 245.69 518.39 245.69 516.8C245.69 514.91 246.47 512.21 247.55 510.26C248.36 508.85 249.2 508.13 250.13 508.13C250.49 508.13 250.79 508.34 250.79 508.64C250.79 508.76 250.73 508.94 250.55 509.21C250.28 509.69 250.16 510.02 250.16 510.38C250.16 511.28 250.88 511.94 251.9 511.94C253.01 511.94 253.76 511.1 253.76 509.84C253.76 508.25 252.41 507.14 250.4 507.14C246.17 507.14 241.85 512.06 241.85 516.86C241.85 519.53 243.71 521.39 246.44 521.39C247.76 521.39 249.05 520.91 250.07 520.04C250.85 519.38 251.33 518.81 252.38 517.31ZM264.81 517.31L263.97 516.77C262.53 518.78 261.6 519.47 260.31 519.47C258.99 519.47 258.12 518.39 258.12 516.8C258.12 514.91 258.9 512.21 259.98 510.26C260.79 508.85 261.63 508.13 262.56 508.13C262.92 508.13 263.22 508.34 263.22 508.64C263.22 508.76 263.16 508.94 262.98 509.21C262.71 509.69 262.59 510.02 262.59 510.38C262.59 511.28 263.31 511.94 264.33 511.94C265.44 511.94 266.19 511.1 266.19 509.84C266.19 508.25 264.84 507.14 262.83 507.14C258.6 507.14 254.28 512.06 254.28 516.86C254.28 519.53 256.14 521.39 258.87 521.39C260.19 521.39 261.48 520.91 262.5 520.04C263.28 519.38 263.76 518.81 264.81 517.31Z" fill="#FF6E29"/>
<path d="M401.38 542.31L400.54 541.77C399.1 543.78 398.17 544.47 396.88 544.47C395.56 544.47 394.69 543.39 394.69 541.8C394.69 539.91 395.47 537.21 396.55 535.26C397.36 533.85 398.2 533.13 399.13 533.13C399.49 533.13 399.79 533.34 399.79 533.64C399.79 533.76 399.73 533.94 399.55 534.21C399.28 534.69 399.16 535.02 399.16 535.38C399.16 536.28 399.88 536.94 400.9 536.94C402.01 536.94 402.76 536.1 402.76 534.84C402.76 533.25 401.41 532.14 399.4 532.14C395.17 532.14 390.85 537.06 390.85 541.86C390.85 544.53 392.71 546.39 395.44 546.39C396.76 546.39 398.05 545.91 399.07 545.04C399.85 544.38 400.33 543.81 401.38 542.31ZM413.81 542.25L412.94 541.74C411.56 543.81 410.69 544.47 409.4 544.47C408.14 544.47 407.48 543.63 407.48 542.01C407.48 541.53 407.54 541.14 407.66 540.54C410.78 539.94 412.25 539.28 413.75 537.9C414.8 536.94 415.37 535.83 415.37 534.75C415.37 533.22 414.05 532.14 412.22 532.14C407.87 532.14 403.58 537.03 403.58 541.98C403.58 544.53 405.5 546.39 408.11 546.39C410.42 546.39 412.01 545.22 413.81 542.25ZM412.61 534.15C412.61 535.47 412.1 536.76 411.14 537.75C410.33 538.62 409.58 539.04 407.87 539.58C408.95 535.41 410.33 533.13 411.77 533.13C412.34 533.13 412.61 533.46 412.61 534.15Z" fill="#FF6E29"/>
<path d="M707.65 225.64L707.02 225.19C705.79 226.84 705.34 227.29 704.86 227.29C704.62 227.29 704.5 227.11 704.5 226.84C704.5 226.09 704.77 224.86 705.52 222.4L707.65 215.32L704.32 215.53L703.78 217.3C703.51 215.77 702.85 215.14 701.56 215.14C697.87 215.14 693.37 220.9 693.37 225.58C693.37 227.86 694.66 229.39 696.61 229.39C698.44 229.39 699.82 228.31 701.53 225.43C701.17 226.66 701.11 227.02 701.11 227.44C701.11 228.55 702.01 229.42 703.12 229.42C704.53 229.42 705.91 228.25 707.65 225.64ZM703.09 217.81C703.09 219.61 702.1 222.94 700.93 225.01C700.12 226.48 699.22 227.26 698.41 227.26C697.63 227.26 697.06 226.57 697.06 225.64C697.06 224.08 698.05 221.08 699.28 218.86C700.18 217.27 701.17 216.34 701.98 216.4C702.64 216.46 703.09 217 703.09 217.81Z" fill="#FF6E29"/>
<path d="M861.66 326.34L861 325.95C860.88 326.1 860.76 326.28 860.64 326.49C859.95 327.6 859.32 328.23 858.93 328.23C858.66 328.23 858.45 328.05 858.45 327.81C858.45 327.48 858.45 327.48 859.08 325.47L860.43 321.48C860.88 320.19 861.12 319.05 861.12 318.27C861.12 317.04 860.13 316.14 858.81 316.14C856.77 316.14 855.36 317.34 852.87 321.3C853.47 319.74 853.65 319.02 853.65 318.18C853.65 316.92 852.9 316.14 851.64 316.14C850.8 316.14 849.9 316.47 849.06 317.16C847.95 318 847.05 319.11 845.1 322.14L847.02 316.17C845.13 316.62 844.41 316.71 841.02 316.98V317.79C841.8 317.79 842.64 317.85 842.64 318.54C842.64 318.99 842.4 319.95 841.59 322.86L839.58 330H843.21C844.8 324.33 845.91 321.78 847.62 319.74C848.28 318.96 849.12 318.33 849.57 318.33C849.87 318.33 850.11 318.63 850.11 318.99C850.11 319.5 849.75 320.76 848.76 323.79L846.81 330H850.41C852.15 324.24 852.36 323.7 853.44 321.81C854.7 319.56 855.9 318.33 856.8 318.33C857.16 318.33 857.49 318.63 857.49 318.96C857.49 319.14 857.4 319.47 857.28 319.86L855.93 323.79C855.27 325.71 854.85 327.51 854.85 328.38C854.85 329.61 855.57 330.27 856.86 330.27C858.72 330.27 859.92 329.28 861.66 326.34ZM875.83 319.77C875.83 317.55 874.57 316.14 872.59 316.14C870.88 316.14 869.56 317.1 867.79 319.59L868.93 316.14L863.14 316.98V317.79C864.49 317.85 864.76 317.97 864.76 318.54C864.76 318.84 864.52 319.92 864.1 321.48L861.1 333.12C860.53 335.1 860.29 335.37 858.85 335.34V336.15H866.32V335.34C864.82 335.31 864.37 335.1 864.37 334.38C864.37 333.96 864.58 333.06 865.15 330.96C865.36 330.24 865.36 330.18 865.48 329.73C866.53 330.27 866.89 330.39 867.52 330.39C871.6 330.39 875.83 324.96 875.83 319.77ZM872.08 319.98C871.96 321.96 871 324.93 869.92 326.88C868.99 328.5 868.03 329.34 867.01 329.34C866.35 329.34 865.84 328.86 865.84 328.26C865.84 327.75 866.17 326.52 866.98 323.79C867.64 321.6 867.91 320.85 868.36 320.16C869.11 318.99 870.13 318.21 870.91 318.27C871.69 318.33 872.14 319.02 872.08 319.98Z" fill="#FF6E29"/>
<line x1="365.195" y1="103.418" x2="365.195" y2="165.718" stroke="#FF6E29" stroke-width="2"/>
<path d="M365.195 173.418L362.597 162.918L367.793 162.918L365.195 173.418Z" fill="#FF6E29"/>
<line x1="232" y1="78.9998" x2="169.7" y2="78.9997" stroke="#FF6E29" stroke-width="2"/>
<path d="M162 79L172.5 76.4019L172.5 81.5981L162 79Z" fill="#FF6E29"/>
<path fill-rule="evenodd" clip-rule="evenodd" d="M383.571 532.627C373.996 524.046 367.585 516.908 364.032 508.72C360.504 500.59 359.844 491.543 361.483 479.234L360.667 479.018L364.744 470.129L363.894 479.871L363.433 479.749C361.861 491.734 362.561 500.307 365.867 507.924C369.24 515.697 375.376 522.597 384.906 531.138L383.571 532.627Z" fill="#FF6E29"/>
<path fill-rule="evenodd" clip-rule="evenodd" d="M524.149 150.955C513.039 157.292 505.307 162.89 500.136 170.108C495 177.276 492.461 185.936 491.475 198.251L490.64 198.289L492.741 207.787L493.956 198.136L493.489 198.158C494.474 186.174 496.951 177.986 501.762 171.273C506.67 164.422 514.083 158.999 525.14 152.692L524.149 150.955Z" fill="#FF6E29"/>
<path d="M862.5 769.72C861.9 769.72 861.39 769.51 860.97 769.09C860.55 768.67 860.34 768.16 860.34 767.56V741.82C860.34 741.22 860.55 740.71 860.97 740.29C861.39 739.87 861.9 739.66 862.5 739.66H871.5C872.1 739.66 872.61 739.87 873.03 740.29C873.45 740.71 873.66 741.22 873.66 741.82C873.66 742.42 873.45 742.93 873.03 743.35C872.61 743.77 872.1 743.98 871.5 743.98H864.66V752.08H870.6C871.2 752.08 871.71 752.29 872.13 752.71C872.55 753.13 872.76 753.64 872.76 754.24C872.76 754.84 872.55 755.35 872.13 755.77C871.71 756.19 871.2 756.4 870.6 756.4H864.66V767.56C864.66 768.16 864.45 768.67 864.03 769.09C863.61 769.51 863.1 769.72 862.5 769.72ZM878.716 769.9C878.116 769.9 877.606 769.69 877.186 769.27C876.766 768.85 876.556 768.34 876.556 767.74V741.64C876.556 741.04 876.766 740.53 877.186 740.11C877.606 739.69 878.116 739.48 878.716 739.48C879.316 739.48 879.826 739.69 880.246 740.11C880.666 740.53 880.876 741.04 880.876 741.64V767.74C880.876 768.34 880.666 768.85 880.246 769.27C879.826 769.69 879.316 769.9 878.716 769.9ZM897.985 752.98C898.585 752.98 899.095 753.19 899.515 753.61C899.935 754.03 900.145 754.54 900.145 755.14V762.34C900.145 763.39 899.95 764.38 899.56 765.31C899.17 766.21 898.63 767.005 897.94 767.695C897.25 768.385 896.44 768.925 895.51 769.315C894.61 769.705 893.635 769.9 892.585 769.9C891.535 769.9 890.545 769.705 889.615 769.315C888.715 768.925 887.92 768.385 887.23 767.695C886.57 767.005 886.03 766.21 885.61 765.31C885.22 764.38 885.025 763.39 885.025 762.34V747.04C885.025 746.2 885.16 745.39 885.43 744.61C885.7 743.8 886.075 743.08 886.555 742.45C887.065 741.79 887.665 741.235 888.355 740.785C889.045 740.305 889.81 739.96 890.65 739.75C891.46 739.54 892.285 739.465 893.125 739.525C893.965 739.555 894.76 739.735 895.51 740.065C896.26 740.365 896.95 740.785 897.58 741.325C898.21 741.865 898.735 742.51 899.155 743.26C899.455 743.77 899.515 744.31 899.335 744.88C899.185 745.45 898.855 745.9 898.345 746.23C897.835 746.53 897.295 746.605 896.725 746.455C896.155 746.275 895.72 745.93 895.42 745.42C895.03 744.79 894.49 744.34 893.8 744.07C893.14 743.77 892.465 743.725 891.775 743.935C891.055 744.115 890.47 744.505 890.02 745.105C889.57 745.675 889.345 746.32 889.345 747.04V762.34C889.345 763.24 889.66 764.005 890.29 764.635C890.95 765.265 891.715 765.58 892.585 765.58C893.485 765.58 894.25 765.265 894.88 764.635C895.51 764.005 895.825 763.24 895.825 762.34V757.3H893.485C892.885 757.3 892.375 757.09 891.955 756.67C891.535 756.25 891.325 755.74 891.325 755.14C891.325 754.54 891.535 754.03 891.955 753.61C892.375 753.19 892.885 752.98 893.485 752.98H897.985ZM903.48 767.29C903.48 766.57 903.735 765.955 904.245 765.445C904.755 764.935 905.37 764.68 906.09 764.68C906.81 764.68 907.425 764.935 907.935 765.445C908.445 765.955 908.7 766.57 908.7 767.29C908.7 768.01 908.445 768.625 907.935 769.135C907.425 769.645 906.81 769.9 906.09 769.9C905.37 769.9 904.755 769.645 904.245 769.135C903.735 768.625 903.48 768.01 903.48 767.29ZM917.807 769.63C916.997 769.42 916.247 769.09 915.557 768.64C914.867 768.16 914.267 767.605 913.757 766.975C913.277 766.315 912.902 765.595 912.632 764.815C912.362 764.035 912.227 763.21 912.227 762.34V747.04C912.227 746.2 912.362 745.39 912.632 744.61C912.902 743.8 913.277 743.08 913.757 742.45C914.267 741.79 914.867 741.235 915.557 740.785C916.247 740.305 916.997 739.96 917.807 739.75C919.487 739.3 921.107 739.405 922.667 740.065C924.227 740.695 925.442 741.76 926.312 743.26C926.642 743.77 926.717 744.31 926.537 744.88C926.387 745.45 926.057 745.9 925.547 746.23C925.037 746.53 924.497 746.605 923.927 746.455C923.357 746.275 922.907 745.93 922.577 745.42C922.217 744.79 921.692 744.34 921.002 744.07C920.342 743.77 919.652 743.725 918.932 743.935C918.242 744.115 917.672 744.505 917.222 745.105C916.772 745.675 916.547 746.32 916.547 747.04V762.34C916.547 763.09 916.772 763.75 917.222 764.32C917.672 764.89 918.242 765.28 918.932 765.49C919.652 765.67 920.342 765.625 921.002 765.355C921.692 765.055 922.217 764.59 922.577 763.96C922.907 763.45 923.357 763.12 923.927 762.97C924.497 762.79 925.037 762.85 925.547 763.15C926.057 763.48 926.387 763.93 926.537 764.5C926.717 765.07 926.642 765.61 926.312 766.12C925.442 767.62 924.227 768.685 922.667 769.315C921.107 769.975 919.487 770.08 917.807 769.63ZM938.136 764.86C938.556 764.56 938.871 764.2 939.081 763.78C939.291 763.36 939.426 762.895 939.486 762.385C939.576 761.365 939.261 760.465 938.541 759.685L931.341 752.305C930.561 751.525 929.991 750.625 929.631 749.605C929.271 748.585 929.136 747.535 929.226 746.455C929.316 745.375 929.616 744.37 930.126 743.44C930.636 742.48 931.326 741.67 932.196 741.01C933.066 740.35 934.026 739.9 935.076 739.66C936.156 739.42 937.221 739.405 938.271 739.615C939.321 739.855 940.281 740.29 941.151 740.92C942.051 741.52 942.771 742.3 943.311 743.26C943.611 743.77 943.671 744.31 943.491 744.88C943.341 745.45 943.011 745.9 942.501 746.23C941.991 746.53 941.451 746.605 940.881 746.455C940.311 746.275 939.876 745.93 939.576 745.42C939.066 744.61 938.346 744.085 937.416 743.845C936.456 743.665 935.586 743.875 934.806 744.475C934.026 745.045 933.606 745.825 933.546 746.815C933.456 747.775 933.756 748.6 934.446 749.29L941.601 756.67C942.381 757.48 942.966 758.41 943.356 759.46C943.746 760.51 943.896 761.59 943.806 762.7C943.716 763.84 943.401 764.89 942.861 765.85C942.321 766.81 941.616 767.635 940.746 768.325C939.846 769.015 938.856 769.48 937.776 769.72C936.696 769.96 935.601 769.975 934.491 769.765C933.381 769.525 932.376 769.09 931.476 768.46C930.576 767.8 929.856 766.99 929.316 766.03C928.986 765.52 928.896 764.98 929.046 764.41C929.226 763.81 929.571 763.36 930.081 763.06C930.591 762.76 931.131 762.7 931.701 762.88C932.271 763.03 932.721 763.36 933.051 763.87C933.561 764.74 934.326 765.295 935.346 765.535C936.396 765.715 937.326 765.49 938.136 764.86Z" fill="#FF6E29"/>
</g>
<defs>
<clipPath id="clip0">
<rect width="1050" height="770" fill="white" transform="translate(1050 770) rotate(180)"/>
</clipPath>
</defs>
</svg>
