<svg width="500" height="350" viewBox="0 0 500 350" fill="none" xmlns="http://www.w3.org/2000/svg">
<g clip-path="url(#clip0)">
<path d="M352.726 108.16L364.498 110.544L364.614 106.446L352.726 108.16Z" fill="black"/>
<path d="M359.373 108.323C395.276 112.489 385.99 67.9547 429.791 71.285" stroke="black" stroke-width="2"/>
<path d="M258.252 66.4056L246.254 66.8163L246.815 62.7571L258.252 66.4056Z" fill="black"/>
<path d="M251.671 65.4719C215.588 63.6635 232.08 21.2873 188.349 17.3542" stroke="black" stroke-width="2"/>
<path d="M436.945 195.931C407.014 201.827 392.323 199.677 371.176 178.714" stroke="black" stroke-width="2"/>
<path d="M364.344 170.266L369.869 180.498L372.989 178.043L364.344 170.266Z" fill="black"/>
<path d="M92.9983 84L117.891 84L117.891 133.807" stroke="#1C1B1B" stroke-width="2"/>
<path d="M117.895 144L115.7 130.1L120.09 130.1L117.895 144Z" fill="#1C1B1B"/>
<line y1="-1" x2="62.2997" y2="-1" transform="matrix(0.787499 -0.616316 -0.616316 -0.787499 40.2324 294.718)" stroke="#1C1B1B" stroke-width="2"/>
<path d="M95.9733 252.362L86.1034 256.788L89.3059 260.88L95.9733 252.362Z" fill="#1C1B1B"/>
<path d="M459.38 190.77C459.38 188.55 458.12 187.14 456.14 187.14C454.43 187.14 453.11 188.1 451.34 190.59L452.48 187.14L446.69 187.98V188.79C448.04 188.85 448.31 188.97 448.31 189.54C448.31 189.84 448.07 190.92 447.65 192.48L444.65 204.12C444.08 206.1 443.84 206.37 442.4 206.34V207.15H449.87V206.34C448.37 206.31 447.92 206.1 447.92 205.38C447.92 204.96 448.13 204.06 448.7 201.96C448.91 201.24 448.91 201.18 449.03 200.73C450.08 201.27 450.44 201.39 451.07 201.39C455.15 201.39 459.38 195.96 459.38 190.77ZM455.63 190.98C455.51 192.96 454.55 195.93 453.47 197.88C452.54 199.5 451.58 200.34 450.56 200.34C449.9 200.34 449.39 199.86 449.39 199.26C449.39 198.75 449.72 197.52 450.53 194.79C451.19 192.6 451.46 191.85 451.91 191.16C452.66 189.99 453.68 189.21 454.46 189.27C455.24 189.33 455.69 190.02 455.63 190.98ZM474.86 197.4L474.23 197.01C473.18 198.63 472.58 199.23 472.07 199.23C471.83 199.23 471.65 199.02 471.65 198.72C471.65 198.36 471.98 196.92 472.4 195.57L474.74 187.53H471.2C469.52 193.32 468.68 195.3 466.94 197.46C466.01 198.6 465.35 199.11 464.75 199.11C464.33 199.11 464.12 198.87 464.12 198.36C464.12 197.91 464.15 197.73 464.57 196.38L467.39 187.14C467.21 187.17 467 187.2 466.55 187.29C464.33 187.68 462.56 187.92 461.12 187.98V188.79C462.5 188.88 462.8 189.03 462.8 189.63C462.8 190.11 462.65 190.95 462.38 191.82L461.18 195.81C460.76 197.31 460.55 198.3 460.55 199.05C460.55 200.52 461.3 201.27 462.8 201.27C464.81 201.27 465.71 200.49 468.8 196.17C468.26 197.82 468.08 198.6 468.08 199.47C468.08 200.7 468.71 201.27 470.03 201.27C471.83 201.27 473.3 200.07 474.86 197.4Z" fill="#1C1B1B"/>
<path d="M31.37 304.43C31.37 303.08 30.62 301.61 28.94 299.66C27.77 298.31 27.26 297.41 27.26 296.72C27.26 295.76 27.89 295.13 28.85 295.13C30.23 295.13 31.01 296.21 31.49 298.7L32.3 298.76L32.99 294.17H32.12C31.79 294.74 31.7 294.8 31.25 294.8C30.95 294.8 30.71 294.74 30.17 294.53C29.42 294.23 29.03 294.14 28.43 294.14C26 294.14 24.41 295.61 24.41 297.92C24.41 299.54 24.83 300.38 26.81 302.75C27.95 304.1 28.49 305.12 28.49 305.87C28.49 306.77 27.74 307.49 26.78 307.49C25.25 307.49 24.29 306.17 23.9 303.5L23.09 303.41L22.43 308.39H23.24C23.36 308.03 23.72 307.79 24.11 307.79C24.32 307.79 24.65 307.88 25.04 308.03C25.76 308.27 26.3 308.39 26.93 308.39C29.48 308.39 31.37 306.68 31.37 304.43Z" fill="#1C1B1B"/>
<path d="M81.47 86.55L80.81 86.07C79.97 87.42 79.25 88.23 78.8 88.23C78.62 88.23 78.47 88.05 78.47 87.87C78.47 87.6 79.16 84.9 80.18 81.18L83.51 69.03C81.71 69.45 80.24 69.66 77.24 69.9V70.71H77.87C78.65 70.71 79.1 71.01 79.1 71.55C79.1 71.82 78.95 72.45 78.23 75.09L77.69 77.13C76.97 76.41 76.4 76.14 75.53 76.14C71.87 76.14 67.37 81.93 67.37 86.64C67.37 88.83 68.72 90.39 70.55 90.39C72.47 90.39 73.82 89.31 75.53 86.46C75.26 87.63 75.2 88.02 75.2 88.5C75.2 89.64 75.86 90.33 77 90.33C78.47 90.33 79.82 89.19 81.47 86.55ZM77.24 78.87C77.24 80.19 75.95 84.09 74.9 86.01C74.06 87.48 73.19 88.23 72.32 88.23C71.57 88.23 71.03 87.39 71.09 86.34C71.18 84.72 72.11 81.96 73.19 80.01C74.15 78.3 75.23 77.34 76.13 77.4C76.79 77.43 77.24 78.03 77.24 78.87Z" fill="#1C1B1B"/>
<path d="M164.38 15.25L163.51 14.74C162.13 16.81 161.26 17.47 159.97 17.47C158.71 17.47 158.05 16.63 158.05 15.01C158.05 14.53 158.11 14.14 158.23 13.54C161.35 12.94 162.82 12.28 164.32 10.9C165.37 9.94 165.94 8.83 165.94 7.75C165.94 6.22 164.62 5.14 162.79 5.14C158.44 5.14 154.15 10.03 154.15 14.98C154.15 17.53 156.07 19.39 158.68 19.39C160.99 19.39 162.58 18.22 164.38 15.25ZM163.18 7.15C163.18 8.47 162.67 9.76 161.71 10.75C160.9 11.62 160.15 12.04 158.44 12.58C159.52 8.41 160.9 6.13 162.34 6.13C162.91 6.13 163.18 6.46 163.18 7.15ZM179.81 8.77C179.81 6.55 178.55 5.14 176.57 5.14C174.86 5.14 173.54 6.1 171.77 8.59L172.91 5.14L167.12 5.98V6.79C168.47 6.85 168.74 6.97 168.74 7.54C168.74 7.84 168.5 8.92 168.08 10.48L165.08 22.12C164.51 24.1 164.27 24.37 162.83 24.34V25.15H170.3V24.34C168.8 24.31 168.35 24.1 168.35 23.38C168.35 22.96 168.56 22.06 169.13 19.96C169.34 19.24 169.34 19.18 169.46 18.73C170.51 19.27 170.87 19.39 171.5 19.39C175.58 19.39 179.81 13.96 179.81 8.77ZM176.06 8.98C175.94 10.96 174.98 13.93 173.9 15.88C172.97 17.5 172.01 18.34 170.99 18.34C170.33 18.34 169.82 17.86 169.82 17.26C169.82 16.75 170.15 15.52 170.96 12.79C171.62 10.6 171.89 9.85 172.34 9.16C173.09 7.99 174.11 7.21 174.89 7.27C175.67 7.33 176.12 8.02 176.06 8.98Z" fill="#1C1B1B"/>
<path d="M450.38 72.31L449.54 71.77C448.1 73.78 447.17 74.47 445.88 74.47C444.56 74.47 443.69 73.39 443.69 71.8C443.69 69.91 444.47 67.21 445.55 65.26C446.36 63.85 447.2 63.13 448.13 63.13C448.49 63.13 448.79 63.34 448.79 63.64C448.79 63.76 448.73 63.94 448.55 64.21C448.28 64.69 448.16 65.02 448.16 65.38C448.16 66.28 448.88 66.94 449.9 66.94C451.01 66.94 451.76 66.1 451.76 64.84C451.76 63.25 450.41 62.14 448.4 62.14C444.17 62.14 439.85 67.06 439.85 71.86C439.85 74.53 441.71 76.39 444.44 76.39C445.76 76.39 447.05 75.91 448.07 75.04C448.85 74.38 449.33 73.81 450.38 72.31Z" fill="#1C1B1B"/>
<path d="M263.5 339.72C262.9 339.72 262.39 339.51 261.97 339.09C261.55 338.67 261.34 338.16 261.34 337.56V311.82C261.34 311.22 261.55 310.71 261.97 310.29C262.39 309.87 262.9 309.66 263.5 309.66H272.5C273.1 309.66 273.61 309.87 274.03 310.29C274.45 310.71 274.66 311.22 274.66 311.82C274.66 312.42 274.45 312.93 274.03 313.35C273.61 313.77 273.1 313.98 272.5 313.98H265.66V322.08H271.6C272.2 322.08 272.71 322.29 273.13 322.71C273.55 323.13 273.76 323.64 273.76 324.24C273.76 324.84 273.55 325.35 273.13 325.77C272.71 326.19 272.2 326.4 271.6 326.4H265.66V337.56C265.66 338.16 265.45 338.67 265.03 339.09C264.61 339.51 264.1 339.72 263.5 339.72ZM279.716 339.9C279.116 339.9 278.606 339.69 278.186 339.27C277.766 338.85 277.556 338.34 277.556 337.74V311.64C277.556 311.04 277.766 310.53 278.186 310.11C278.606 309.69 279.116 309.48 279.716 309.48C280.316 309.48 280.826 309.69 281.246 310.11C281.666 310.53 281.876 311.04 281.876 311.64V337.74C281.876 338.34 281.666 338.85 281.246 339.27C280.826 339.69 280.316 339.9 279.716 339.9ZM298.985 322.98C299.585 322.98 300.095 323.19 300.515 323.61C300.935 324.03 301.145 324.54 301.145 325.14V332.34C301.145 333.39 300.95 334.38 300.56 335.31C300.17 336.21 299.63 337.005 298.94 337.695C298.25 338.385 297.44 338.925 296.51 339.315C295.61 339.705 294.635 339.9 293.585 339.9C292.535 339.9 291.545 339.705 290.615 339.315C289.715 338.925 288.92 338.385 288.23 337.695C287.57 337.005 287.03 336.21 286.61 335.31C286.22 334.38 286.025 333.39 286.025 332.34V317.04C286.025 316.2 286.16 315.39 286.43 314.61C286.7 313.8 287.075 313.08 287.555 312.45C288.065 311.79 288.665 311.235 289.355 310.785C290.045 310.305 290.81 309.96 291.65 309.75C292.46 309.54 293.285 309.465 294.125 309.525C294.965 309.555 295.76 309.735 296.51 310.065C297.26 310.365 297.95 310.785 298.58 311.325C299.21 311.865 299.735 312.51 300.155 313.26C300.455 313.77 300.515 314.31 300.335 314.88C300.185 315.45 299.855 315.9 299.345 316.23C298.835 316.53 298.295 316.605 297.725 316.455C297.155 316.275 296.72 315.93 296.42 315.42C296.03 314.79 295.49 314.34 294.8 314.07C294.14 313.77 293.465 313.725 292.775 313.935C292.055 314.115 291.47 314.505 291.02 315.105C290.57 315.675 290.345 316.32 290.345 317.04V332.34C290.345 333.24 290.66 334.005 291.29 334.635C291.95 335.265 292.715 335.58 293.585 335.58C294.485 335.58 295.25 335.265 295.88 334.635C296.51 334.005 296.825 333.24 296.825 332.34V327.3H294.485C293.885 327.3 293.375 327.09 292.955 326.67C292.535 326.25 292.325 325.74 292.325 325.14C292.325 324.54 292.535 324.03 292.955 323.61C293.375 323.19 293.885 322.98 294.485 322.98H298.985ZM304.48 337.29C304.48 336.57 304.735 335.955 305.245 335.445C305.755 334.935 306.37 334.68 307.09 334.68C307.81 334.68 308.425 334.935 308.935 335.445C309.445 335.955 309.7 336.57 309.7 337.29C309.7 338.01 309.445 338.625 308.935 339.135C308.425 339.645 307.81 339.9 307.09 339.9C306.37 339.9 305.755 339.645 305.245 339.135C304.735 338.625 304.48 338.01 304.48 337.29ZM315.927 339.9C315.327 339.9 314.817 339.69 314.397 339.27C313.977 338.85 313.767 338.34 313.767 337.74V311.64C313.767 311.13 313.917 310.68 314.217 310.29C314.517 309.9 314.922 309.645 315.432 309.525C315.942 309.405 316.422 309.465 316.872 309.705C317.322 309.915 317.652 310.26 317.862 310.74C318.462 312.06 319.077 313.365 319.707 314.655C320.217 315.795 320.787 317.01 321.417 318.3C322.047 319.56 322.617 320.745 323.127 321.855C323.637 320.745 324.192 319.56 324.792 318.3C325.422 317.01 325.992 315.795 326.502 314.655C327.102 313.365 327.717 312.06 328.347 310.74C328.587 310.26 328.917 309.915 329.337 309.705C329.787 309.465 330.267 309.405 330.777 309.525C331.287 309.645 331.692 309.9 331.992 310.29C332.322 310.68 332.487 311.13 332.487 311.64V337.74C332.487 338.34 332.277 338.85 331.857 339.27C331.437 339.69 330.927 339.9 330.327 339.9C329.727 339.9 329.217 339.69 328.797 339.27C328.377 338.85 328.167 338.34 328.167 337.74V321.315C327.777 322.125 327.402 322.92 327.042 323.7C326.682 324.48 326.352 325.17 326.052 325.77C325.722 326.49 325.392 327.18 325.062 327.84C324.882 328.23 324.612 328.545 324.252 328.785C323.922 328.995 323.547 329.1 323.127 329.1C322.197 329.1 321.537 328.68 321.147 327.84C320.817 327.18 320.487 326.49 320.157 325.77C319.857 325.17 319.527 324.48 319.167 323.7C318.807 322.92 318.447 322.125 318.087 321.315V337.74C318.087 338.34 317.877 338.85 317.457 339.27C317.037 339.69 316.527 339.9 315.927 339.9ZM337.146 311.82C337.146 311.22 337.356 310.71 337.776 310.29C338.196 309.87 338.706 309.66 339.306 309.66H344.706C345.756 309.66 346.731 309.855 347.631 310.245C348.561 310.635 349.371 311.175 350.061 311.865C350.751 312.555 351.291 313.365 351.681 314.295C352.071 315.195 352.266 316.17 352.266 317.22V319.74C352.266 320.79 352.071 321.78 351.681 322.71C351.291 323.61 350.751 324.405 350.061 325.095C349.371 325.785 348.561 326.325 347.631 326.715C346.731 327.105 345.756 327.3 344.706 327.3H341.466V337.74C341.466 338.34 341.256 338.85 340.836 339.27C340.416 339.69 339.906 339.9 339.306 339.9C338.706 339.9 338.196 339.69 337.776 339.27C337.356 338.85 337.146 338.34 337.146 337.74V311.82ZM347.946 317.22C347.946 316.32 347.631 315.555 347.001 314.925C346.371 314.295 345.606 313.98 344.706 313.98H341.466V322.98H344.706C345.606 322.98 346.371 322.665 347.001 322.035C347.631 321.405 347.946 320.64 347.946 319.74V317.22Z" fill="#1C1B1B"/>
</g>
<defs>
<clipPath id="clip0">
<rect width="500" height="350" fill="white"/>
</clipPath>
</defs>
</svg>
