<svg width="500" height="350" viewBox="0 0 500 350" fill="none" xmlns="http://www.w3.org/2000/svg">
<g clip-path="url(#clip0)">
<path d="M180.604 241.29L183.314 252.991L187.091 251.398L180.604 241.29Z" fill="black"/>
<path d="M183.211 247.408C194.301 281.808 230.98 254.898 246.103 296.138" stroke="black" stroke-width="2"/>
<path d="M19.3281 263.986C48.2228 253.93 59.8505 244.63 67.5389 215.775" stroke="black" stroke-width="2"/>
<path d="M69.175 205L69.574 216.655L65.6308 216.111L69.175 205Z" fill="black"/>
<path d="M171.431 13L146.539 13L146.539 62.807" stroke="#1C1B1B" stroke-width="2"/>
<path d="M146.535 73L148.73 59.1004L144.34 59.1004L146.535 73Z" fill="#1C1B1B"/>
<path d="M244.38 314.31L243.54 313.77C242.1 315.78 241.17 316.47 239.88 316.47C238.56 316.47 237.69 315.39 237.69 313.8C237.69 311.91 238.47 309.21 239.55 307.26C240.36 305.85 241.2 305.13 242.13 305.13C242.49 305.13 242.79 305.34 242.79 305.64C242.79 305.76 242.73 305.94 242.55 306.21C242.28 306.69 242.16 307.02 242.16 307.38C242.16 308.28 242.88 308.94 243.9 308.94C245.01 308.94 245.76 308.1 245.76 306.84C245.76 305.25 244.41 304.14 242.4 304.14C238.17 304.14 233.85 309.06 233.85 313.86C233.85 316.53 235.71 318.39 238.44 318.39C239.76 318.39 241.05 317.91 242.07 317.04C242.85 316.38 243.33 315.81 244.38 314.31ZM256.81 314.31L255.97 313.77C254.53 315.78 253.6 316.47 252.31 316.47C250.99 316.47 250.12 315.39 250.12 313.8C250.12 311.91 250.9 309.21 251.98 307.26C252.79 305.85 253.63 305.13 254.56 305.13C254.92 305.13 255.22 305.34 255.22 305.64C255.22 305.76 255.16 305.94 254.98 306.21C254.71 306.69 254.59 307.02 254.59 307.38C254.59 308.28 255.31 308.94 256.33 308.94C257.44 308.94 258.19 308.1 258.19 306.84C258.19 305.25 256.84 304.14 254.83 304.14C250.6 304.14 246.28 309.06 246.28 313.86C246.28 316.53 248.14 318.39 250.87 318.39C252.19 318.39 253.48 317.91 254.5 317.04C255.28 316.38 255.76 315.81 256.81 314.31Z" fill="#1C1B1B"/>
<path d="M190.03 6.15C190.03 5.1 189.16 4.14 188.2 4.14C187.3 4.14 186.52 4.95 186.52 5.88C186.52 6.39 186.7 6.81 187.24 7.41C187.69 7.92 187.84 8.19 187.84 8.52C187.84 9.57 187.03 10.77 184.06 14.16C183.94 8.28 183.76 6.54 183.13 4.14C181.66 4.5 180.97 4.62 178.48 4.98V5.79C179.41 5.79 179.68 5.88 179.89 6.27C180.37 7.23 180.7 9.84 180.7 13.08C180.7 13.2 180.7 13.71 180.67 14.31L180.55 18.39H181.33C185.14 14.76 186.55 13.17 188.2 10.77C189.4 9.03 190.03 7.41 190.03 6.15Z" fill="#1C1B1B"/>
<path d="M8.75 268.19L8.09 267.77C7.07 269.36 6.29 270.17 5.81 270.17C5.57 270.17 5.33 269.96 5.33 269.72C5.33 269.15 5.87 267.08 6.95 263.36L7.94 259.79H10.43V258.53H8.27L9.44 254.18H8.39C6.77 256.58 5.27 257.84 2.9 258.74V259.79H4.43L2.39 266.93C1.94 268.49 1.67 269.78 1.67 270.32C1.67 271.49 2.51 272.27 3.77 272.27C5.57 272.27 6.77 271.28 8.75 268.19Z" fill="#1C1B1B"/>
<path d="M12.5 105.72C11.9 105.72 11.39 105.51 10.97 105.09C10.55 104.67 10.34 104.16 10.34 103.56V77.82C10.34 77.22 10.55 76.71 10.97 76.29C11.39 75.87 11.9 75.66 12.5 75.66H21.5C22.1 75.66 22.61 75.87 23.03 76.29C23.45 76.71 23.66 77.22 23.66 77.82C23.66 78.42 23.45 78.93 23.03 79.35C22.61 79.77 22.1 79.98 21.5 79.98H14.66V88.08H20.6C21.2 88.08 21.71 88.29 22.13 88.71C22.55 89.13 22.76 89.64 22.76 90.24C22.76 90.84 22.55 91.35 22.13 91.77C21.71 92.19 21.2 92.4 20.6 92.4H14.66V103.56C14.66 104.16 14.45 104.67 14.03 105.09C13.61 105.51 13.1 105.72 12.5 105.72ZM28.7158 105.9C28.1158 105.9 27.6058 105.69 27.1858 105.27C26.7658 104.85 26.5558 104.34 26.5558 103.74V77.64C26.5558 77.04 26.7658 76.53 27.1858 76.11C27.6058 75.69 28.1158 75.48 28.7158 75.48C29.3158 75.48 29.8258 75.69 30.2458 76.11C30.6658 76.53 30.8758 77.04 30.8758 77.64V103.74C30.8758 104.34 30.6658 104.85 30.2458 105.27C29.8258 105.69 29.3158 105.9 28.7158 105.9ZM47.9846 88.98C48.5846 88.98 49.0946 89.19 49.5146 89.61C49.9346 90.03 50.1446 90.54 50.1446 91.14V98.34C50.1446 99.39 49.9496 100.38 49.5596 101.31C49.1696 102.21 48.6296 103.005 47.9396 103.695C47.2496 104.385 46.4396 104.925 45.5096 105.315C44.6096 105.705 43.6346 105.9 42.5846 105.9C41.5346 105.9 40.5446 105.705 39.6146 105.315C38.7146 104.925 37.9196 104.385 37.2296 103.695C36.5696 103.005 36.0296 102.21 35.6096 101.31C35.2196 100.38 35.0246 99.39 35.0246 98.34V83.04C35.0246 82.2 35.1596 81.39 35.4296 80.61C35.6996 79.8 36.0746 79.08 36.5546 78.45C37.0646 77.79 37.6646 77.235 38.3546 76.785C39.0446 76.305 39.8096 75.96 40.6496 75.75C41.4596 75.54 42.2846 75.465 43.1246 75.525C43.9646 75.555 44.7596 75.735 45.5096 76.065C46.2596 76.365 46.9496 76.785 47.5796 77.325C48.2096 77.865 48.7346 78.51 49.1546 79.26C49.4546 79.77 49.5146 80.31 49.3346 80.88C49.1846 81.45 48.8546 81.9 48.3446 82.23C47.8346 82.53 47.2946 82.605 46.7246 82.455C46.1546 82.275 45.7196 81.93 45.4196 81.42C45.0296 80.79 44.4896 80.34 43.7996 80.07C43.1396 79.77 42.4646 79.725 41.7746 79.935C41.0546 80.115 40.4696 80.505 40.0196 81.105C39.5696 81.675 39.3446 82.32 39.3446 83.04V98.34C39.3446 99.24 39.6596 100.005 40.2896 100.635C40.9496 101.265 41.7146 101.58 42.5846 101.58C43.4846 101.58 44.2496 101.265 44.8796 100.635C45.5096 100.005 45.8246 99.24 45.8246 98.34V93.3H43.4846C42.8846 93.3 42.3746 93.09 41.9546 92.67C41.5346 92.25 41.3246 91.74 41.3246 91.14C41.3246 90.54 41.5346 90.03 41.9546 89.61C42.3746 89.19 42.8846 88.98 43.4846 88.98H47.9846ZM53.4795 103.29C53.4795 102.57 53.7345 101.955 54.2445 101.445C54.7545 100.935 55.3695 100.68 56.0895 100.68C56.8095 100.68 57.4245 100.935 57.9345 101.445C58.4445 101.955 58.6995 102.57 58.6995 103.29C58.6995 104.01 58.4445 104.625 57.9345 105.135C57.4245 105.645 56.8095 105.9 56.0895 105.9C55.3695 105.9 54.7545 105.645 54.2445 105.135C53.7345 104.625 53.4795 104.01 53.4795 103.29ZM62.7668 77.82C62.7668 77.22 62.9768 76.71 63.3968 76.29C63.8168 75.87 64.3268 75.66 64.9268 75.66H70.3268C71.3768 75.66 72.3518 75.855 73.2518 76.245C74.1818 76.635 74.9918 77.175 75.6818 77.865C76.3718 78.555 76.9118 79.365 77.3018 80.295C77.6918 81.195 77.8868 82.17 77.8868 83.22V85.74C77.8868 86.79 77.6918 87.78 77.3018 88.71C76.9118 89.61 76.3718 90.405 75.6818 91.095C74.9918 91.785 74.1818 92.325 73.2518 92.715C72.3518 93.105 71.3768 93.3 70.3268 93.3H67.0868V103.74C67.0868 104.34 66.8768 104.85 66.4568 105.27C66.0368 105.69 65.5268 105.9 64.9268 105.9C64.3268 105.9 63.8168 105.69 63.3968 105.27C62.9768 104.85 62.7668 104.34 62.7668 103.74V77.82ZM73.5668 83.22C73.5668 82.32 73.2518 81.555 72.6218 80.925C71.9918 80.295 71.2268 79.98 70.3268 79.98H67.0868V88.98H70.3268C71.2268 88.98 71.9918 88.665 72.6218 88.035C73.2518 87.405 73.5668 86.64 73.5668 85.74V83.22Z" fill="#1C1B1B"/>
<line x1="475.121" y1="177.598" x2="421.167" y2="208.748" stroke="#1C1B1B" stroke-width="2"/>
<path d="M414.5 212.598L422.294 205.098L424.892 209.598L414.5 212.598Z" fill="#1C1B1B"/>
<path d="M499.72 168.77C499.72 166.55 498.46 165.14 496.48 165.14C494.77 165.14 493.45 166.1 491.68 168.59L492.82 165.14L487.03 165.98V166.79C488.38 166.85 488.65 166.97 488.65 167.54C488.65 167.84 488.41 168.92 487.99 170.48L484.99 182.12C484.42 184.1 484.18 184.37 482.74 184.34V185.15H490.21V184.34C488.71 184.31 488.26 184.1 488.26 183.38C488.26 182.96 488.47 182.06 489.04 179.96C489.25 179.24 489.25 179.18 489.37 178.73C490.42 179.27 490.78 179.39 491.41 179.39C495.49 179.39 499.72 173.96 499.72 168.77ZM495.97 168.98C495.85 170.96 494.89 173.93 493.81 175.88C492.88 177.5 491.92 178.34 490.9 178.34C490.24 178.34 489.73 177.86 489.73 177.26C489.73 176.75 490.06 175.52 490.87 172.79C491.53 170.6 491.8 169.85 492.25 169.16C493 167.99 494.02 167.21 494.8 167.27C495.58 167.33 496.03 168.02 495.97 168.98Z" fill="#1C1B1B"/>
</g>
<defs>
<clipPath id="clip0">
<rect width="500" height="350" fill="white"/>
</clipPath>
</defs>
</svg>
