<svg width="217" height="320" viewBox="0 0 217 320" fill="none" xmlns="http://www.w3.org/2000/svg">
<path d="M100.435 117.128L112.047 114.061L110.339 110.335L100.435 117.128Z" fill="black"/>
<path d="M106.469 114.336C140.513 102.197 112.493 66.3597 153.25 49.9797" stroke="black" stroke-width="2"/>
<line x1="148.086" y1="267.085" x2="107.108" y2="274.078" stroke="#1C1B1B" stroke-width="2"/>
<path d="M99.5051 275.474L108.903 271.235L109.777 276.357L99.5051 275.474Z" fill="#1C1B1B"/>
<line x1="182.377" y1="279.984" x2="208.905" y2="311.956" stroke="#1C1B1B" stroke-width="2"/>
<path d="M213.851 317.723L205.485 311.708L209.484 308.39L213.851 317.723Z" fill="#1C1B1B"/>
<path d="M182.38 29.46C182.38 27.99 181.24 27.06 179.41 27.06C177.85 27.06 176.41 27.69 175.33 28.89C174.07 30.27 173.5 31.5 172.63 34.53H170.44L170.17 35.79H172.36L169.72 47.55C168.79 51.99 168.22 53.22 167.02 53.22C166.72 53.22 166.48 53.07 166.48 52.89C166.48 52.89 166.54 52.74 166.6 52.62C166.84 52.26 166.96 51.93 166.96 51.6C166.96 50.88 166.24 50.16 165.46 50.16C164.65 50.16 163.93 50.91 163.93 51.78C163.93 53.22 165.1 54.15 166.9 54.15C168.22 54.15 169.36 53.7 170.32 52.77C171.4 51.72 172.09 50.37 173.02 47.61C173.83 45.18 174.19 43.74 175.87 35.79H178.57L178.84 34.53H176.08L176.62 32.4C177.37 29.43 178.27 27.93 179.35 27.93C179.65 27.93 179.86 28.08 179.86 28.32C179.86 28.32 179.83 28.47 179.71 28.65C179.47 29.01 179.38 29.28 179.38 29.58C179.38 30.42 180.01 31.05 180.85 31.05C181.75 31.05 182.38 30.39 182.38 29.46Z" fill="#1C1B1B"/>
<path d="M172.349 254.46C172.349 252.99 171.209 252.06 169.379 252.06C167.819 252.06 166.379 252.69 165.299 253.89C164.039 255.27 163.469 256.5 162.599 259.53H160.409L160.139 260.79H162.329L159.689 272.55C158.759 276.99 158.189 278.22 156.989 278.22C156.689 278.22 156.449 278.07 156.449 277.89C156.449 277.89 156.509 277.74 156.569 277.62C156.809 277.26 156.929 276.93 156.929 276.6C156.929 275.88 156.209 275.16 155.429 275.16C154.619 275.16 153.899 275.91 153.899 276.78C153.899 278.22 155.069 279.15 156.869 279.15C158.189 279.15 159.329 278.7 160.289 277.77C161.369 276.72 162.059 275.37 162.989 272.61C163.799 270.18 164.159 268.74 165.839 260.79H168.539L168.809 259.53H166.049L166.589 257.4C167.339 254.43 168.239 252.93 169.319 252.93C169.619 252.93 169.829 253.08 169.829 253.32C169.829 253.32 169.799 253.47 169.679 253.65C169.439 254.01 169.349 254.28 169.349 254.58C169.349 255.42 169.979 256.05 170.819 256.05C171.719 256.05 172.349 255.39 172.349 254.46ZM174.809 269.19L174.149 268.77C173.129 270.36 172.349 271.17 171.869 271.17C171.629 271.17 171.389 270.96 171.389 270.72C171.389 270.15 171.929 268.08 173.009 264.36L173.999 260.79H176.489V259.53H174.329L175.499 255.18H174.449C172.829 257.58 171.329 258.84 168.959 259.74V260.79H170.489L168.449 267.93C167.999 269.49 167.729 270.78 167.729 271.32C167.729 272.49 168.569 273.27 169.829 273.27C171.629 273.27 172.829 272.28 174.809 269.19Z" fill="#1C1B1B"/>
<path d="M4.5 31.72C3.9 31.72 3.39 31.51 2.97 31.09C2.55 30.67 2.34 30.16 2.34 29.56V3.82C2.34 3.22 2.55 2.71 2.97 2.29C3.39 1.87 3.9 1.66 4.5 1.66H13.5C14.1 1.66 14.61 1.87 15.03 2.29C15.45 2.71 15.66 3.22 15.66 3.82C15.66 4.42 15.45 4.93 15.03 5.35C14.61 5.77 14.1 5.98 13.5 5.98H6.66V14.08H12.6C13.2 14.08 13.71 14.29 14.13 14.71C14.55 15.13 14.76 15.64 14.76 16.24C14.76 16.84 14.55 17.35 14.13 17.77C13.71 18.19 13.2 18.4 12.6 18.4H6.66V29.56C6.66 30.16 6.45 30.67 6.03 31.09C5.61 31.51 5.1 31.72 4.5 31.72ZM20.7158 31.9C20.1158 31.9 19.6058 31.69 19.1858 31.27C18.7658 30.85 18.5558 30.34 18.5558 29.74V3.64C18.5558 3.04 18.7658 2.53 19.1858 2.11C19.6058 1.69 20.1158 1.48 20.7158 1.48C21.3158 1.48 21.8258 1.69 22.2458 2.11C22.6658 2.53 22.8758 3.04 22.8758 3.64V29.74C22.8758 30.34 22.6658 30.85 22.2458 31.27C21.8258 31.69 21.3158 31.9 20.7158 31.9ZM39.9846 14.98C40.5846 14.98 41.0946 15.19 41.5146 15.61C41.9346 16.03 42.1446 16.54 42.1446 17.14V24.34C42.1446 25.39 41.9496 26.38 41.5596 27.31C41.1696 28.21 40.6296 29.005 39.9396 29.695C39.2496 30.385 38.4396 30.925 37.5096 31.315C36.6096 31.705 35.6346 31.9 34.5846 31.9C33.5346 31.9 32.5446 31.705 31.6146 31.315C30.7146 30.925 29.9196 30.385 29.2296 29.695C28.5696 29.005 28.0296 28.21 27.6096 27.31C27.2196 26.38 27.0246 25.39 27.0246 24.34V9.04C27.0246 8.2 27.1596 7.39 27.4296 6.61C27.6996 5.8 28.0746 5.08 28.5546 4.45C29.0646 3.79 29.6646 3.235 30.3546 2.785C31.0446 2.305 31.8096 1.96 32.6496 1.75C33.4596 1.54 34.2846 1.465 35.1246 1.525C35.9646 1.555 36.7596 1.735 37.5096 2.065C38.2596 2.365 38.9496 2.785 39.5796 3.325C40.2096 3.865 40.7346 4.51 41.1546 5.26C41.4546 5.77 41.5146 6.31 41.3346 6.88C41.1846 7.45 40.8546 7.9 40.3446 8.23C39.8346 8.53 39.2946 8.605 38.7246 8.455C38.1546 8.275 37.7196 7.93 37.4196 7.42C37.0296 6.79 36.4896 6.34 35.7996 6.07C35.1396 5.77 34.4646 5.725 33.7746 5.935C33.0546 6.115 32.4696 6.505 32.0196 7.105C31.5696 7.675 31.3446 8.32 31.3446 9.04V24.34C31.3446 25.24 31.6596 26.005 32.2896 26.635C32.9496 27.265 33.7146 27.58 34.5846 27.58C35.4846 27.58 36.2496 27.265 36.8796 26.635C37.5096 26.005 37.8246 25.24 37.8246 24.34V19.3H35.4846C34.8846 19.3 34.3746 19.09 33.9546 18.67C33.5346 18.25 33.3246 17.74 33.3246 17.14C33.3246 16.54 33.5346 16.03 33.9546 15.61C34.3746 15.19 34.8846 14.98 35.4846 14.98H39.9846ZM45.4795 29.29C45.4795 28.57 45.7345 27.955 46.2445 27.445C46.7545 26.935 47.3695 26.68 48.0895 26.68C48.8095 26.68 49.4245 26.935 49.9345 27.445C50.4445 27.955 50.6995 28.57 50.6995 29.29C50.6995 30.01 50.4445 30.625 49.9345 31.135C49.4245 31.645 48.8095 31.9 48.0895 31.9C47.3695 31.9 46.7545 31.645 46.2445 31.135C45.7345 30.625 45.4795 30.01 45.4795 29.29ZM71.4168 29.155C71.5668 29.755 71.4918 30.31 71.1918 30.82C70.9218 31.33 70.5018 31.66 69.9318 31.81C69.3318 31.96 68.7768 31.885 68.2668 31.585C67.7568 31.315 67.4268 30.895 67.2768 30.325C67.1568 29.965 67.0368 29.53 66.9168 29.02C66.7968 28.6 66.6468 28.105 66.4668 27.535C66.3168 26.935 66.1518 26.29 65.9718 25.6H58.3218C58.1118 26.29 57.9318 26.935 57.7818 27.535C57.6318 28.105 57.4968 28.6 57.3768 29.02C57.2568 29.53 57.1368 29.965 57.0168 30.325C56.8668 30.895 56.5368 31.315 56.0268 31.585C55.5168 31.885 54.9618 31.96 54.3618 31.81C53.7918 31.66 53.3568 31.33 53.0568 30.82C52.7868 30.31 52.7268 29.755 52.8768 29.155L60.0768 3.055C60.1968 2.575 60.4368 2.2 60.7968 1.93C61.1868 1.63 61.6368 1.48 62.1468 1.48C62.6568 1.48 63.0918 1.63 63.4518 1.93C63.8418 2.2 64.0968 2.575 64.2168 3.055L71.4168 29.155ZM64.7568 21.28C64.3368 19.72 63.9018 18.115 63.4518 16.465C63.0018 14.815 62.5668 13.255 62.1468 11.785C61.7268 13.255 61.2918 14.815 60.8418 16.465C60.3918 18.115 59.9568 19.72 59.5368 21.28H64.7568Z" fill="#1C1B1B"/>
</svg>
