<svg width="840" height="406" viewBox="0 0 840 406" fill="none" xmlns="http://www.w3.org/2000/svg">
<path fill-rule="evenodd" clip-rule="evenodd" d="M477.031 113.989C480.903 120.27 485.604 123.949 490.831 126.199C496.751 128.748 503.309 129.441 509.868 130.133L509.868 130.133C510.492 130.199 511.115 130.265 511.738 130.332C518.975 131.115 526.214 132.114 533.021 135.646C539.796 139.162 546.226 145.235 551.711 156.32L553.504 155.433C547.858 144.023 541.147 137.61 533.942 133.871C526.77 130.15 519.193 129.127 511.953 128.344C511.342 128.277 510.733 128.213 510.128 128.149L510.123 128.148C503.501 127.447 497.248 126.785 491.622 124.362C486.815 122.293 482.439 118.918 478.781 113.016L480.053 112.31L471.438 101.625L475.957 114.585L477.031 113.989Z" fill="#1C1B1B"/>
<line x1="189.803" y1="228.514" x2="146.501" y2="253.514" stroke="#1C1B1B" stroke-width="2"/>
<path d="M138.5 258.246L147.593 249.996L150.191 254.496L138.5 258.246Z" fill="#1C1B1B"/>
<line x1="226.438" y1="228.705" x2="269.739" y2="253.705" stroke="#1C1B1B" stroke-width="2"/>
<path d="M277.719 258.169L266.027 254.419L268.625 249.919L277.719 258.169Z" fill="#1C1B1B"/>
<path d="M576.38 151.46C576.38 149.99 575.24 149.06 573.41 149.06C571.85 149.06 570.41 149.69 569.33 150.89C568.07 152.27 567.5 153.5 566.63 156.53H564.44L564.17 157.79H566.36L563.72 169.55C562.79 173.99 562.22 175.22 561.02 175.22C560.72 175.22 560.48 175.07 560.48 174.89C560.48 174.89 560.54 174.74 560.6 174.62C560.84 174.26 560.96 173.93 560.96 173.6C560.96 172.88 560.24 172.16 559.46 172.16C558.65 172.16 557.93 172.91 557.93 173.78C557.93 175.22 559.1 176.15 560.9 176.15C562.22 176.15 563.36 175.7 564.32 174.77C565.4 173.72 566.09 172.37 567.02 169.61C567.83 167.18 568.19 165.74 569.87 157.79H572.57L572.84 156.53H570.08L570.62 154.4C571.37 151.43 572.27 149.93 573.35 149.93C573.65 149.93 573.86 150.08 573.86 150.32C573.86 150.32 573.83 150.47 573.71 150.65C573.47 151.01 573.38 151.28 573.38 151.58C573.38 152.42 574.01 153.05 574.85 153.05C575.75 153.05 576.38 152.39 576.38 151.46Z" fill="#1C1B1B"/>
<path d="M214.38 210.46C214.38 208.99 213.24 208.06 211.41 208.06C209.85 208.06 208.41 208.69 207.33 209.89C206.07 211.27 205.5 212.5 204.63 215.53H202.44L202.17 216.79H204.36L201.72 228.55C200.79 232.99 200.22 234.22 199.02 234.22C198.72 234.22 198.48 234.07 198.48 233.89C198.48 233.89 198.54 233.74 198.6 233.62C198.84 233.26 198.96 232.93 198.96 232.6C198.96 231.88 198.24 231.16 197.46 231.16C196.65 231.16 195.93 231.91 195.93 232.78C195.93 234.22 197.1 235.15 198.9 235.15C200.22 235.15 201.36 234.7 202.32 233.77C203.4 232.72 204.09 231.37 205.02 228.61C205.83 226.18 206.19 224.74 207.87 216.79H210.57L210.84 215.53H208.08L208.62 213.4C209.37 210.43 210.27 208.93 211.35 208.93C211.65 208.93 211.86 209.08 211.86 209.32C211.86 209.32 211.83 209.47 211.71 209.65C211.47 210.01 211.38 210.28 211.38 210.58C211.38 211.42 212.01 212.05 212.85 212.05C213.75 212.05 214.38 211.39 214.38 210.46ZM216.84 225.19L216.18 224.77C215.16 226.36 214.38 227.17 213.9 227.17C213.66 227.17 213.42 226.96 213.42 226.72C213.42 226.15 213.96 224.08 215.04 220.36L216.03 216.79H218.52V215.53H216.36L217.53 211.18H216.48C214.86 213.58 213.36 214.84 210.99 215.74V216.79H212.52L210.48 223.93C210.03 225.49 209.76 226.78 209.76 227.32C209.76 228.49 210.6 229.27 211.86 229.27C213.66 229.27 214.86 228.28 216.84 225.19Z" fill="#1C1B1B"/>
</svg>
