<svg width="840" height="406" viewBox="0 0 840 406" fill="none" xmlns="http://www.w3.org/2000/svg">
<path fill-rule="evenodd" clip-rule="evenodd" d="M477.031 113.989C480.903 120.27 485.604 123.949 490.831 126.199C496.751 128.748 503.309 129.441 509.868 130.133L509.868 130.133C510.492 130.199 511.115 130.265 511.738 130.332C518.975 131.115 526.214 132.114 533.021 135.646C539.796 139.162 546.226 145.235 551.711 156.32L553.504 155.433C547.858 144.023 541.147 137.61 533.942 133.871C526.77 130.15 519.193 129.127 511.953 128.344C511.342 128.277 510.733 128.213 510.128 128.149L510.123 128.148C503.501 127.447 497.248 126.785 491.622 124.362C486.815 122.293 482.439 118.918 478.781 113.016L480.053 112.31L471.438 101.625L475.957 114.585L477.031 113.989Z" fill="#1C1B1B"/>
<line x1="189.803" y1="228.514" x2="146.501" y2="253.514" stroke="#1C1B1B" stroke-width="2"/>
<path d="M138.5 258.246L147.593 249.996L150.191 254.496L138.5 258.246Z" fill="#1C1B1B"/>
<line x1="226.438" y1="228.705" x2="269.739" y2="253.705" stroke="#1C1B1B" stroke-width="2"/>
<path d="M277.719 258.169L266.027 254.419L268.625 249.919L277.719 258.169Z" fill="#1C1B1B"/>
<path d="M576.38 151.46C576.38 149.99 575.24 149.06 573.41 149.06C571.85 149.06 570.41 149.69 569.33 150.89C568.07 152.27 567.5 153.5 566.63 156.53H564.44L564.17 157.79H566.36L563.72 169.55C562.79 173.99 562.22 175.22 561.02 175.22C560.72 175.22 560.48 175.07 560.48 174.89C560.48 174.89 560.54 174.74 560.6 174.62C560.84 174.26 560.96 173.93 560.96 173.6C560.96 172.88 560.24 172.16 559.46 172.16C558.65 172.16 557.93 172.91 557.93 173.78C557.93 175.22 559.1 176.15 560.9 176.15C562.22 176.15 563.36 175.7 564.32 174.77C565.4 173.72 566.09 172.37 567.02 169.61C567.83 167.18 568.19 165.74 569.87 157.79H572.57L572.84 156.53H570.08L570.62 154.4C571.37 151.43 572.27 149.93 573.35 149.93C573.65 149.93 573.86 150.08 573.86 150.32C573.86 150.32 573.83 150.47 573.71 150.65C573.47 151.01 573.38 151.28 573.38 151.58C573.38 152.42 574.01 153.05 574.85 153.05C575.75 153.05 576.38 152.39 576.38 151.46Z" fill="#1C1B1B"/>
<path d="M214.38 210.46C214.38 208.99 213.24 208.06 211.41 208.06C209.85 208.06 208.41 208.69 207.33 209.89C206.07 211.27 205.5 212.5 204.63 215.53H202.44L202.17 216.79H204.36L201.72 228.55C200.79 232.99 200.22 234.22 199.02 234.22C198.72 234.22 198.48 234.07 198.48 233.89C198.48 233.89 198.54 233.74 198.6 233.62C198.84 233.26 198.96 232.93 198.96 232.6C198.96 231.88 198.24 231.16 197.46 231.16C196.65 231.16 195.93 231.91 195.93 232.78C195.93 234.22 197.1 235.15 198.9 235.15C200.22 235.15 201.36 234.7 202.32 233.77C203.4 232.72 204.09 231.37 205.02 228.61C205.83 226.18 206.19 224.74 207.87 216.79H210.57L210.84 215.53H208.08L208.62 213.4C209.37 210.43 210.27 208.93 211.35 208.93C211.65 208.93 211.86 209.08 211.86 209.32C211.86 209.32 211.83 209.47 211.71 209.65C211.47 210.01 211.38 210.28 211.38 210.58C211.38 211.42 212.01 212.05 212.85 212.05C213.75 212.05 214.38 211.39 214.38 210.46ZM216.84 225.19L216.18 224.77C215.16 226.36 214.38 227.17 213.9 227.17C213.66 227.17 213.42 226.96 213.42 226.72C213.42 226.15 213.96 224.08 215.04 220.36L216.03 216.79H218.52V215.53H216.36L217.53 211.18H216.48C214.86 213.58 213.36 214.84 210.99 215.74V216.79H212.52L210.48 223.93C210.03 225.49 209.76 226.78 209.76 227.32C209.76 228.49 210.6 229.27 211.86 229.27C213.66 229.27 214.86 228.28 216.84 225.19Z" fill="#1C1B1B"/>
<path d="M120.5 102.72C119.9 102.72 119.39 102.51 118.97 102.09C118.55 101.67 118.34 101.16 118.34 100.56V74.82C118.34 74.22 118.55 73.71 118.97 73.29C119.39 72.87 119.9 72.66 120.5 72.66H129.5C130.1 72.66 130.61 72.87 131.03 73.29C131.45 73.71 131.66 74.22 131.66 74.82C131.66 75.42 131.45 75.93 131.03 76.35C130.61 76.77 130.1 76.98 129.5 76.98H122.66V85.08H128.6C129.2 85.08 129.71 85.29 130.13 85.71C130.55 86.13 130.76 86.64 130.76 87.24C130.76 87.84 130.55 88.35 130.13 88.77C129.71 89.19 129.2 89.4 128.6 89.4H122.66V100.56C122.66 101.16 122.45 101.67 122.03 102.09C121.61 102.51 121.1 102.72 120.5 102.72ZM136.716 102.9C136.116 102.9 135.606 102.69 135.186 102.27C134.766 101.85 134.556 101.34 134.556 100.74V74.64C134.556 74.04 134.766 73.53 135.186 73.11C135.606 72.69 136.116 72.48 136.716 72.48C137.316 72.48 137.826 72.69 138.246 73.11C138.666 73.53 138.876 74.04 138.876 74.64V100.74C138.876 101.34 138.666 101.85 138.246 102.27C137.826 102.69 137.316 102.9 136.716 102.9ZM155.985 85.98C156.585 85.98 157.095 86.19 157.515 86.61C157.935 87.03 158.145 87.54 158.145 88.14V95.34C158.145 96.39 157.95 97.38 157.56 98.31C157.17 99.21 156.63 100.005 155.94 100.695C155.25 101.385 154.44 101.925 153.51 102.315C152.61 102.705 151.635 102.9 150.585 102.9C149.535 102.9 148.545 102.705 147.615 102.315C146.715 101.925 145.92 101.385 145.23 100.695C144.57 100.005 144.03 99.21 143.61 98.31C143.22 97.38 143.025 96.39 143.025 95.34V80.04C143.025 79.2 143.16 78.39 143.43 77.61C143.7 76.8 144.075 76.08 144.555 75.45C145.065 74.79 145.665 74.235 146.355 73.785C147.045 73.305 147.81 72.96 148.65 72.75C149.46 72.54 150.285 72.465 151.125 72.525C151.965 72.555 152.76 72.735 153.51 73.065C154.26 73.365 154.95 73.785 155.58 74.325C156.21 74.865 156.735 75.51 157.155 76.26C157.455 76.77 157.515 77.31 157.335 77.88C157.185 78.45 156.855 78.9 156.345 79.23C155.835 79.53 155.295 79.605 154.725 79.455C154.155 79.275 153.72 78.93 153.42 78.42C153.03 77.79 152.49 77.34 151.8 77.07C151.14 76.77 150.465 76.725 149.775 76.935C149.055 77.115 148.47 77.505 148.02 78.105C147.57 78.675 147.345 79.32 147.345 80.04V95.34C147.345 96.24 147.66 97.005 148.29 97.635C148.95 98.265 149.715 98.58 150.585 98.58C151.485 98.58 152.25 98.265 152.88 97.635C153.51 97.005 153.825 96.24 153.825 95.34V90.3H151.485C150.885 90.3 150.375 90.09 149.955 89.67C149.535 89.25 149.325 88.74 149.325 88.14C149.325 87.54 149.535 87.03 149.955 86.61C150.375 86.19 150.885 85.98 151.485 85.98H155.985ZM161.48 100.29C161.48 99.57 161.735 98.955 162.245 98.445C162.755 97.935 163.37 97.68 164.09 97.68C164.81 97.68 165.425 97.935 165.935 98.445C166.445 98.955 166.7 99.57 166.7 100.29C166.7 101.01 166.445 101.625 165.935 102.135C165.425 102.645 164.81 102.9 164.09 102.9C163.37 102.9 162.755 102.645 162.245 102.135C161.735 101.625 161.48 101.01 161.48 100.29ZM187.417 100.155C187.567 100.755 187.492 101.31 187.192 101.82C186.922 102.33 186.502 102.66 185.932 102.81C185.332 102.96 184.777 102.885 184.267 102.585C183.757 102.315 183.427 101.895 183.277 101.325C183.157 100.965 183.037 100.53 182.917 100.02C182.797 99.6 182.647 99.105 182.467 98.535C182.317 97.935 182.152 97.29 181.972 96.6H174.322C174.112 97.29 173.932 97.935 173.782 98.535C173.632 99.105 173.497 99.6 173.377 100.02C173.257 100.53 173.137 100.965 173.017 101.325C172.867 101.895 172.537 102.315 172.027 102.585C171.517 102.885 170.962 102.96 170.362 102.81C169.792 102.66 169.357 102.33 169.057 101.82C168.787 101.31 168.727 100.755 168.877 100.155L176.077 74.055C176.197 73.575 176.437 73.2 176.797 72.93C177.187 72.63 177.637 72.48 178.147 72.48C178.657 72.48 179.092 72.63 179.452 72.93C179.842 73.2 180.097 73.575 180.217 74.055L187.417 100.155ZM180.757 92.28C180.337 90.72 179.902 89.115 179.452 87.465C179.002 85.815 178.567 84.255 178.147 82.785C177.727 84.255 177.292 85.815 176.842 87.465C176.392 89.115 175.957 90.72 175.537 92.28H180.757Z" fill="#1C1B1B"/>
</svg>
