<svg width="840" height="461" viewBox="0 0 840 461" fill="none" xmlns="http://www.w3.org/2000/svg">
<path fill-rule="evenodd" clip-rule="evenodd" d="M477.031 168.989C480.903 175.27 485.604 178.949 490.831 181.199C496.751 183.748 503.309 184.441 509.868 185.133L509.868 185.133C510.492 185.199 511.115 185.265 511.738 185.332C518.975 186.115 526.214 187.114 533.021 190.646C539.796 194.162 546.226 200.235 551.711 211.32L553.504 210.433C547.858 199.023 541.147 192.61 533.942 188.871C526.77 185.15 519.193 184.127 511.953 183.344C511.342 183.277 510.733 183.213 510.128 183.149L510.123 183.148C503.501 182.447 497.248 181.785 491.622 179.362C486.815 177.293 482.439 173.918 478.781 168.016L480.053 167.31L471.438 156.625L475.957 169.585L477.031 168.989Z" fill="#1C1B1B"/>
<line x1="189.803" y1="283.514" x2="146.501" y2="308.514" stroke="#1C1B1B" stroke-width="2"/>
<path d="M138.5 313.246L147.593 304.996L150.191 309.496L138.5 313.246Z" fill="#1C1B1B"/>
<line x1="226.438" y1="283.705" x2="269.739" y2="308.705" stroke="#1C1B1B" stroke-width="2"/>
<path d="M277.719 313.169L266.027 309.419L268.625 304.919L277.719 313.169Z" fill="#1C1B1B"/>
<path d="M576.38 206.46C576.38 204.99 575.24 204.06 573.41 204.06C571.85 204.06 570.41 204.69 569.33 205.89C568.07 207.27 567.5 208.5 566.63 211.53H564.44L564.17 212.79H566.36L563.72 224.55C562.79 228.99 562.22 230.22 561.02 230.22C560.72 230.22 560.48 230.07 560.48 229.89C560.48 229.89 560.54 229.74 560.6 229.62C560.84 229.26 560.96 228.93 560.96 228.6C560.96 227.88 560.24 227.16 559.46 227.16C558.65 227.16 557.93 227.91 557.93 228.78C557.93 230.22 559.1 231.15 560.9 231.15C562.22 231.15 563.36 230.7 564.32 229.77C565.4 228.72 566.09 227.37 567.02 224.61C567.83 222.18 568.19 220.74 569.87 212.79H572.57L572.84 211.53H570.08L570.62 209.4C571.37 206.43 572.27 204.93 573.35 204.93C573.65 204.93 573.86 205.08 573.86 205.32C573.86 205.32 573.83 205.47 573.71 205.65C573.47 206.01 573.38 206.28 573.38 206.58C573.38 207.42 574.01 208.05 574.85 208.05C575.75 208.05 576.38 207.39 576.38 206.46Z" fill="#1C1B1B"/>
<path d="M214.38 265.46C214.38 263.99 213.24 263.06 211.41 263.06C209.85 263.06 208.41 263.69 207.33 264.89C206.07 266.27 205.5 267.5 204.63 270.53H202.44L202.17 271.79H204.36L201.72 283.55C200.79 287.99 200.22 289.22 199.02 289.22C198.72 289.22 198.48 289.07 198.48 288.89C198.48 288.89 198.54 288.74 198.6 288.62C198.84 288.26 198.96 287.93 198.96 287.6C198.96 286.88 198.24 286.16 197.46 286.16C196.65 286.16 195.93 286.91 195.93 287.78C195.93 289.22 197.1 290.15 198.9 290.15C200.22 290.15 201.36 289.7 202.32 288.77C203.4 287.72 204.09 286.37 205.02 283.61C205.83 281.18 206.19 279.74 207.87 271.79H210.57L210.84 270.53H208.08L208.62 268.4C209.37 265.43 210.27 263.93 211.35 263.93C211.65 263.93 211.86 264.08 211.86 264.32C211.86 264.32 211.83 264.47 211.71 264.65C211.47 265.01 211.38 265.28 211.38 265.58C211.38 266.42 212.01 267.05 212.85 267.05C213.75 267.05 214.38 266.39 214.38 265.46ZM216.84 280.19L216.18 279.77C215.16 281.36 214.38 282.17 213.9 282.17C213.66 282.17 213.42 281.96 213.42 281.72C213.42 281.15 213.96 279.08 215.04 275.36L216.03 271.79H218.52V270.53H216.36L217.53 266.18H216.48C214.86 268.58 213.36 269.84 210.99 270.74V271.79H212.52L210.48 278.93C210.03 280.49 209.76 281.78 209.76 282.32C209.76 283.49 210.6 284.27 211.86 284.27C213.66 284.27 214.86 283.28 216.84 280.19Z" fill="#1C1B1B"/>
<path d="M120.5 157.72C119.9 157.72 119.39 157.51 118.97 157.09C118.55 156.67 118.34 156.16 118.34 155.56V129.82C118.34 129.22 118.55 128.71 118.97 128.29C119.39 127.87 119.9 127.66 120.5 127.66H129.5C130.1 127.66 130.61 127.87 131.03 128.29C131.45 128.71 131.66 129.22 131.66 129.82C131.66 130.42 131.45 130.93 131.03 131.35C130.61 131.77 130.1 131.98 129.5 131.98H122.66V140.08H128.6C129.2 140.08 129.71 140.29 130.13 140.71C130.55 141.13 130.76 141.64 130.76 142.24C130.76 142.84 130.55 143.35 130.13 143.77C129.71 144.19 129.2 144.4 128.6 144.4H122.66V155.56C122.66 156.16 122.45 156.67 122.03 157.09C121.61 157.51 121.1 157.72 120.5 157.72ZM136.716 157.9C136.116 157.9 135.606 157.69 135.186 157.27C134.766 156.85 134.556 156.34 134.556 155.74V129.64C134.556 129.04 134.766 128.53 135.186 128.11C135.606 127.69 136.116 127.48 136.716 127.48C137.316 127.48 137.826 127.69 138.246 128.11C138.666 128.53 138.876 129.04 138.876 129.64V155.74C138.876 156.34 138.666 156.85 138.246 157.27C137.826 157.69 137.316 157.9 136.716 157.9ZM155.985 140.98C156.585 140.98 157.095 141.19 157.515 141.61C157.935 142.03 158.145 142.54 158.145 143.14V150.34C158.145 151.39 157.95 152.38 157.56 153.31C157.17 154.21 156.63 155.005 155.94 155.695C155.25 156.385 154.44 156.925 153.51 157.315C152.61 157.705 151.635 157.9 150.585 157.9C149.535 157.9 148.545 157.705 147.615 157.315C146.715 156.925 145.92 156.385 145.23 155.695C144.57 155.005 144.03 154.21 143.61 153.31C143.22 152.38 143.025 151.39 143.025 150.34V135.04C143.025 134.2 143.16 133.39 143.43 132.61C143.7 131.8 144.075 131.08 144.555 130.45C145.065 129.79 145.665 129.235 146.355 128.785C147.045 128.305 147.81 127.96 148.65 127.75C149.46 127.54 150.285 127.465 151.125 127.525C151.965 127.555 152.76 127.735 153.51 128.065C154.26 128.365 154.95 128.785 155.58 129.325C156.21 129.865 156.735 130.51 157.155 131.26C157.455 131.77 157.515 132.31 157.335 132.88C157.185 133.45 156.855 133.9 156.345 134.23C155.835 134.53 155.295 134.605 154.725 134.455C154.155 134.275 153.72 133.93 153.42 133.42C153.03 132.79 152.49 132.34 151.8 132.07C151.14 131.77 150.465 131.725 149.775 131.935C149.055 132.115 148.47 132.505 148.02 133.105C147.57 133.675 147.345 134.32 147.345 135.04V150.34C147.345 151.24 147.66 152.005 148.29 152.635C148.95 153.265 149.715 153.58 150.585 153.58C151.485 153.58 152.25 153.265 152.88 152.635C153.51 152.005 153.825 151.24 153.825 150.34V145.3H151.485C150.885 145.3 150.375 145.09 149.955 144.67C149.535 144.25 149.325 143.74 149.325 143.14C149.325 142.54 149.535 142.03 149.955 141.61C150.375 141.19 150.885 140.98 151.485 140.98H155.985ZM161.48 155.29C161.48 154.57 161.735 153.955 162.245 153.445C162.755 152.935 163.37 152.68 164.09 152.68C164.81 152.68 165.425 152.935 165.935 153.445C166.445 153.955 166.7 154.57 166.7 155.29C166.7 156.01 166.445 156.625 165.935 157.135C165.425 157.645 164.81 157.9 164.09 157.9C163.37 157.9 162.755 157.645 162.245 157.135C161.735 156.625 161.48 156.01 161.48 155.29ZM187.417 155.155C187.567 155.755 187.492 156.31 187.192 156.82C186.922 157.33 186.502 157.66 185.932 157.81C185.332 157.96 184.777 157.885 184.267 157.585C183.757 157.315 183.427 156.895 183.277 156.325C183.157 155.965 183.037 155.53 182.917 155.02C182.797 154.6 182.647 154.105 182.467 153.535C182.317 152.935 182.152 152.29 181.972 151.6H174.322C174.112 152.29 173.932 152.935 173.782 153.535C173.632 154.105 173.497 154.6 173.377 155.02C173.257 155.53 173.137 155.965 173.017 156.325C172.867 156.895 172.537 157.315 172.027 157.585C171.517 157.885 170.962 157.96 170.362 157.81C169.792 157.66 169.357 157.33 169.057 156.82C168.787 156.31 168.727 155.755 168.877 155.155L176.077 129.055C176.197 128.575 176.437 128.2 176.797 127.93C177.187 127.63 177.637 127.48 178.147 127.48C178.657 127.48 179.092 127.63 179.452 127.93C179.842 128.2 180.097 128.575 180.217 129.055L187.417 155.155ZM180.757 147.28C180.337 145.72 179.902 144.115 179.452 142.465C179.002 140.815 178.567 139.255 178.147 137.785C177.727 139.255 177.292 140.815 176.842 142.465C176.392 144.115 175.957 145.72 175.537 147.28H180.757Z" fill="#1C1B1B"/>
</svg>
