<svg width="840" height="530" viewBox="0 0 840 530" fill="none" xmlns="http://www.w3.org/2000/svg">
<path fill-rule="evenodd" clip-rule="evenodd" d="M477.031 171.989C480.903 178.27 485.604 181.949 490.831 184.199C496.751 186.748 503.309 187.441 509.868 188.133L509.868 188.133C510.492 188.199 511.115 188.265 511.738 188.332C518.975 189.115 526.214 190.114 533.021 193.646C539.796 197.162 546.226 203.235 551.711 214.32L553.504 213.433C547.858 202.023 541.147 195.61 533.942 191.871C526.77 188.15 519.193 187.127 511.953 186.344C511.342 186.277 510.733 186.213 510.128 186.149L510.123 186.148C503.501 185.447 497.248 184.785 491.622 182.362C486.815 180.293 482.439 176.918 478.781 171.016L480.053 170.31L471.438 159.625L475.957 172.585L477.031 171.989Z" fill="#1C1B1B"/>
<line x1="189.803" y1="286.514" x2="146.501" y2="311.514" stroke="#1C1B1B" stroke-width="2"/>
<path d="M138.5 316.246L147.593 307.996L150.191 312.496L138.5 316.246Z" fill="#1C1B1B"/>
<line x1="226.438" y1="286.705" x2="269.739" y2="311.705" stroke="#1C1B1B" stroke-width="2"/>
<path d="M277.719 316.169L266.027 312.419L268.625 307.919L277.719 316.169Z" fill="#1C1B1B"/>
<path d="M576.38 209.46C576.38 207.99 575.24 207.06 573.41 207.06C571.85 207.06 570.41 207.69 569.33 208.89C568.07 210.27 567.5 211.5 566.63 214.53H564.44L564.17 215.79H566.36L563.72 227.55C562.79 231.99 562.22 233.22 561.02 233.22C560.72 233.22 560.48 233.07 560.48 232.89C560.48 232.89 560.54 232.74 560.6 232.62C560.84 232.26 560.96 231.93 560.96 231.6C560.96 230.88 560.24 230.16 559.46 230.16C558.65 230.16 557.93 230.91 557.93 231.78C557.93 233.22 559.1 234.15 560.9 234.15C562.22 234.15 563.36 233.7 564.32 232.77C565.4 231.72 566.09 230.37 567.02 227.61C567.83 225.18 568.19 223.74 569.87 215.79H572.57L572.84 214.53H570.08L570.62 212.4C571.37 209.43 572.27 207.93 573.35 207.93C573.65 207.93 573.86 208.08 573.86 208.32C573.86 208.32 573.83 208.47 573.71 208.65C573.47 209.01 573.38 209.28 573.38 209.58C573.38 210.42 574.01 211.05 574.85 211.05C575.75 211.05 576.38 210.39 576.38 209.46Z" fill="#1C1B1B"/>
<path d="M214.38 268.46C214.38 266.99 213.24 266.06 211.41 266.06C209.85 266.06 208.41 266.69 207.33 267.89C206.07 269.27 205.5 270.5 204.63 273.53H202.44L202.17 274.79H204.36L201.72 286.55C200.79 290.99 200.22 292.22 199.02 292.22C198.72 292.22 198.48 292.07 198.48 291.89C198.48 291.89 198.54 291.74 198.6 291.62C198.84 291.26 198.96 290.93 198.96 290.6C198.96 289.88 198.24 289.16 197.46 289.16C196.65 289.16 195.93 289.91 195.93 290.78C195.93 292.22 197.1 293.15 198.9 293.15C200.22 293.15 201.36 292.7 202.32 291.77C203.4 290.72 204.09 289.37 205.02 286.61C205.83 284.18 206.19 282.74 207.87 274.79H210.57L210.84 273.53H208.08L208.62 271.4C209.37 268.43 210.27 266.93 211.35 266.93C211.65 266.93 211.86 267.08 211.86 267.32C211.86 267.32 211.83 267.47 211.71 267.65C211.47 268.01 211.38 268.28 211.38 268.58C211.38 269.42 212.01 270.05 212.85 270.05C213.75 270.05 214.38 269.39 214.38 268.46ZM216.84 283.19L216.18 282.77C215.16 284.36 214.38 285.17 213.9 285.17C213.66 285.17 213.42 284.96 213.42 284.72C213.42 284.15 213.96 282.08 215.04 278.36L216.03 274.79H218.52V273.53H216.36L217.53 269.18H216.48C214.86 271.58 213.36 272.84 210.99 273.74V274.79H212.52L210.48 281.93C210.03 283.49 209.76 284.78 209.76 285.32C209.76 286.49 210.6 287.27 211.86 287.27C213.66 287.27 214.86 286.28 216.84 283.19Z" fill="#1C1B1B"/>
<path d="M120.5 160.72C119.9 160.72 119.39 160.51 118.97 160.09C118.55 159.67 118.34 159.16 118.34 158.56V132.82C118.34 132.22 118.55 131.71 118.97 131.29C119.39 130.87 119.9 130.66 120.5 130.66H129.5C130.1 130.66 130.61 130.87 131.03 131.29C131.45 131.71 131.66 132.22 131.66 132.82C131.66 133.42 131.45 133.93 131.03 134.35C130.61 134.77 130.1 134.98 129.5 134.98H122.66V143.08H128.6C129.2 143.08 129.71 143.29 130.13 143.71C130.55 144.13 130.76 144.64 130.76 145.24C130.76 145.84 130.55 146.35 130.13 146.77C129.71 147.19 129.2 147.4 128.6 147.4H122.66V158.56C122.66 159.16 122.45 159.67 122.03 160.09C121.61 160.51 121.1 160.72 120.5 160.72ZM136.716 160.9C136.116 160.9 135.606 160.69 135.186 160.27C134.766 159.85 134.556 159.34 134.556 158.74V132.64C134.556 132.04 134.766 131.53 135.186 131.11C135.606 130.69 136.116 130.48 136.716 130.48C137.316 130.48 137.826 130.69 138.246 131.11C138.666 131.53 138.876 132.04 138.876 132.64V158.74C138.876 159.34 138.666 159.85 138.246 160.27C137.826 160.69 137.316 160.9 136.716 160.9ZM155.985 143.98C156.585 143.98 157.095 144.19 157.515 144.61C157.935 145.03 158.145 145.54 158.145 146.14V153.34C158.145 154.39 157.95 155.38 157.56 156.31C157.17 157.21 156.63 158.005 155.94 158.695C155.25 159.385 154.44 159.925 153.51 160.315C152.61 160.705 151.635 160.9 150.585 160.9C149.535 160.9 148.545 160.705 147.615 160.315C146.715 159.925 145.92 159.385 145.23 158.695C144.57 158.005 144.03 157.21 143.61 156.31C143.22 155.38 143.025 154.39 143.025 153.34V138.04C143.025 137.2 143.16 136.39 143.43 135.61C143.7 134.8 144.075 134.08 144.555 133.45C145.065 132.79 145.665 132.235 146.355 131.785C147.045 131.305 147.81 130.96 148.65 130.75C149.46 130.54 150.285 130.465 151.125 130.525C151.965 130.555 152.76 130.735 153.51 131.065C154.26 131.365 154.95 131.785 155.58 132.325C156.21 132.865 156.735 133.51 157.155 134.26C157.455 134.77 157.515 135.31 157.335 135.88C157.185 136.45 156.855 136.9 156.345 137.23C155.835 137.53 155.295 137.605 154.725 137.455C154.155 137.275 153.72 136.93 153.42 136.42C153.03 135.79 152.49 135.34 151.8 135.07C151.14 134.77 150.465 134.725 149.775 134.935C149.055 135.115 148.47 135.505 148.02 136.105C147.57 136.675 147.345 137.32 147.345 138.04V153.34C147.345 154.24 147.66 155.005 148.29 155.635C148.95 156.265 149.715 156.58 150.585 156.58C151.485 156.58 152.25 156.265 152.88 155.635C153.51 155.005 153.825 154.24 153.825 153.34V148.3H151.485C150.885 148.3 150.375 148.09 149.955 147.67C149.535 147.25 149.325 146.74 149.325 146.14C149.325 145.54 149.535 145.03 149.955 144.61C150.375 144.19 150.885 143.98 151.485 143.98H155.985ZM161.48 158.29C161.48 157.57 161.735 156.955 162.245 156.445C162.755 155.935 163.37 155.68 164.09 155.68C164.81 155.68 165.425 155.935 165.935 156.445C166.445 156.955 166.7 157.57 166.7 158.29C166.7 159.01 166.445 159.625 165.935 160.135C165.425 160.645 164.81 160.9 164.09 160.9C163.37 160.9 162.755 160.645 162.245 160.135C161.735 159.625 161.48 159.01 161.48 158.29ZM187.417 158.155C187.567 158.755 187.492 159.31 187.192 159.82C186.922 160.33 186.502 160.66 185.932 160.81C185.332 160.96 184.777 160.885 184.267 160.585C183.757 160.315 183.427 159.895 183.277 159.325C183.157 158.965 183.037 158.53 182.917 158.02C182.797 157.6 182.647 157.105 182.467 156.535C182.317 155.935 182.152 155.29 181.972 154.6H174.322C174.112 155.29 173.932 155.935 173.782 156.535C173.632 157.105 173.497 157.6 173.377 158.02C173.257 158.53 173.137 158.965 173.017 159.325C172.867 159.895 172.537 160.315 172.027 160.585C171.517 160.885 170.962 160.96 170.362 160.81C169.792 160.66 169.357 160.33 169.057 159.82C168.787 159.31 168.727 158.755 168.877 158.155L176.077 132.055C176.197 131.575 176.437 131.2 176.797 130.93C177.187 130.63 177.637 130.48 178.147 130.48C178.657 130.48 179.092 130.63 179.452 130.93C179.842 131.2 180.097 131.575 180.217 132.055L187.417 158.155ZM180.757 150.28C180.337 148.72 179.902 147.115 179.452 145.465C179.002 143.815 178.567 142.255 178.147 140.785C177.727 142.255 177.292 143.815 176.842 145.465C176.392 147.115 175.957 148.72 175.537 150.28H180.757Z" fill="#1C1B1B"/>
</svg>
