<svg width="840" height="490" viewBox="0 0 840 490" fill="none" xmlns="http://www.w3.org/2000/svg">
<path d="M514.47 365.55L513.81 365.07C512.97 366.42 512.25 367.23 511.8 367.23C511.62 367.23 511.47 367.05 511.47 366.87C511.47 366.6 512.16 363.9 513.18 360.18L516.51 348.03C514.71 348.45 513.24 348.66 510.24 348.9V349.71H510.87C511.65 349.71 512.1 350.01 512.1 350.55C512.1 350.82 511.95 351.45 511.23 354.09L510.69 356.13C509.97 355.41 509.4 355.14 508.53 355.14C504.87 355.14 500.37 360.93 500.37 365.64C500.37 367.83 501.72 369.39 503.55 369.39C505.47 369.39 506.82 368.31 508.53 365.46C508.26 366.63 508.2 367.02 508.2 367.5C508.2 368.64 508.86 369.33 510 369.33C511.47 369.33 512.82 368.19 514.47 365.55ZM510.24 357.87C510.24 359.19 508.95 363.09 507.9 365.01C507.06 366.48 506.19 367.23 505.32 367.23C504.57 367.23 504.03 366.39 504.09 365.34C504.18 363.72 505.11 360.96 506.19 359.01C507.15 357.3 508.23 356.34 509.13 356.4C509.79 356.43 510.24 357.03 510.24 357.87ZM522.24 365.19L521.58 364.77L521.16 365.37C520.38 366.54 519.69 367.17 519.24 367.17C519 367.17 518.79 366.96 518.79 366.72C518.79 366.45 518.94 365.67 519.06 365.16L521.79 355.14C520.17 355.5 518.07 355.8 515.73 355.98V356.79H516.12C517.02 356.79 517.5 357.09 517.5 357.66C517.5 357.9 517.41 358.35 517.29 358.86L515.55 365.31C515.31 366.18 515.16 366.96 515.16 367.38C515.16 368.52 516 369.27 517.23 369.27C519.03 369.27 520.14 368.37 522.24 365.19ZM523.08 351.3C523.08 350.19 522.15 349.26 521.01 349.26C519.96 349.26 519.03 350.19 519.03 351.24C519.03 352.41 519.9 353.31 521.01 353.31C522.15 353.31 523.08 352.41 523.08 351.3Z" fill="#1C1B1B"/>
<line x1="247.573" y1="184.733" x2="193.093" y2="163.554" stroke="#1C1B1B" stroke-width="2"/>
<path d="M183.087 159.796L197.104 162.458L195.221 167.301L183.087 159.796Z" fill="#1C1B1B"/>
<line x1="495.606" y1="378.549" x2="443.804" y2="405.626" stroke="#1C1B1B" stroke-width="2"/>
<path d="M434.39 410.686L445.619 401.885L448.026 406.49L434.39 410.686Z" fill="#1C1B1B"/>
<line x1="277.001" y1="172.273" x2="293.282" y2="116.135" stroke="#1C1B1B" stroke-width="2"/>
<path d="M296.139 105.836L294.727 120.033L289.736 118.585L296.139 105.836Z" fill="#1C1B1B"/>
<line x1="495.341" y1="350.268" x2="442.964" y2="324.322" stroke="#1C1B1B" stroke-width="2"/>
<path d="M433.332 319.688L447.056 323.587L444.749 328.244L433.332 319.688Z" fill="#1C1B1B"/>
<path d="M270.65 191.64L270.02 191.19C268.79 192.84 268.34 193.29 267.86 193.29C267.62 193.29 267.5 193.11 267.5 192.84C267.5 192.09 267.77 190.86 268.52 188.4L270.65 181.32L267.32 181.53L266.78 183.3C266.51 181.77 265.85 181.14 264.56 181.14C260.87 181.14 256.37 186.9 256.37 191.58C256.37 193.86 257.66 195.39 259.61 195.39C261.44 195.39 262.82 194.31 264.53 191.43C264.17 192.66 264.11 193.02 264.11 193.44C264.11 194.55 265.01 195.42 266.12 195.42C267.53 195.42 268.91 194.25 270.65 191.64ZM266.09 183.81C266.09 185.61 265.1 188.94 263.93 191.01C263.12 192.48 262.22 193.26 261.41 193.26C260.63 193.26 260.06 192.57 260.06 191.64C260.06 190.08 261.05 187.08 262.28 184.86C263.18 183.27 264.17 182.34 264.98 182.4C265.64 182.46 266.09 183 266.09 183.81ZM281.48 191.25L280.61 190.74C279.23 192.81 278.36 193.47 277.07 193.47C275.81 193.47 275.15 192.63 275.15 191.01C275.15 190.53 275.21 190.14 275.33 189.54C278.45 188.94 279.92 188.28 281.42 186.9C282.47 185.94 283.04 184.83 283.04 183.75C283.04 182.22 281.72 181.14 279.89 181.14C275.54 181.14 271.25 186.03 271.25 190.98C271.25 193.53 273.17 195.39 275.78 195.39C278.09 195.39 279.68 194.22 281.48 191.25ZM280.28 183.15C280.28 184.47 279.77 185.76 278.81 186.75C278 187.62 277.25 188.04 275.54 188.58C276.62 184.41 278 182.13 279.44 182.13C280.01 182.13 280.28 182.46 280.28 183.15Z" fill="#1C1B1B"/>
</svg>
