<svg width="840" height="406" viewBox="0 0 840 406" fill="none" xmlns="http://www.w3.org/2000/svg">
<path fill-rule="evenodd" clip-rule="evenodd" d="M362.425 41.9588C355.253 43.6951 350.3 47.0259 346.541 51.2994C342.284 56.1388 339.595 62.1602 336.906 68.1826L336.906 68.1827C336.65 68.7551 336.394 69.3275 336.138 69.8989C333.152 76.5376 329.961 83.1113 324.494 88.4901C319.054 93.8433 311.288 98.0775 299.049 99.8599L299.337 101.839C311.935 100.004 320.111 95.6086 325.897 89.9157C331.656 84.2486 334.975 77.3606 337.962 70.7192C338.214 70.1584 338.463 69.5998 338.712 69.044L338.714 69.0395C341.431 62.9603 343.998 57.2191 348.042 52.6203C351.499 48.6902 356.063 45.5738 362.807 43.9239L363.085 45.3514L375.912 40.4688L362.19 40.7528L362.425 41.9588Z" fill="#1C1B1B"/>
<line x1="189.803" y1="228.514" x2="146.501" y2="253.514" stroke="#1C1B1B" stroke-width="2"/>
<path d="M138.5 258.246L147.593 249.996L150.191 254.496L138.5 258.246Z" fill="#1C1B1B"/>
<line x1="236.438" y1="228.705" x2="279.739" y2="253.705" stroke="#1C1B1B" stroke-width="2"/>
<path d="M287.719 258.169L276.027 254.419L278.625 249.919L287.719 258.169Z" fill="#1C1B1B"/>
<path d="M277.14 101.19L276.48 100.77L276.06 101.37C275.28 102.54 274.59 103.17 274.14 103.17C273.9 103.17 273.69 102.96 273.69 102.72C273.69 102.45 273.84 101.67 273.96 101.16L276.69 91.14C275.07 91.5 272.97 91.8 270.63 91.98V92.79H271.02C271.92 92.79 272.4 93.09 272.4 93.66C272.4 93.9 272.31 94.35 272.19 94.86L270.45 101.31C270.21 102.18 270.06 102.96 270.06 103.38C270.06 104.52 270.9 105.27 272.13 105.27C273.93 105.27 275.04 104.37 277.14 101.19ZM277.98 87.3C277.98 86.19 277.05 85.26 275.91 85.26C274.86 85.26 273.93 86.19 273.93 87.24C273.93 88.41 274.8 89.31 275.91 89.31C277.05 89.31 277.98 88.41 277.98 87.3ZM287.83 101.31L286.99 100.77C285.55 102.78 284.62 103.47 283.33 103.47C282.01 103.47 281.14 102.39 281.14 100.8C281.14 98.91 281.92 96.21 283 94.26C283.81 92.85 284.65 92.13 285.58 92.13C285.94 92.13 286.24 92.34 286.24 92.64C286.24 92.76 286.18 92.94 286 93.21C285.73 93.69 285.61 94.02 285.61 94.38C285.61 95.28 286.33 95.94 287.35 95.94C288.46 95.94 289.21 95.1 289.21 93.84C289.21 92.25 287.86 91.14 285.85 91.14C281.62 91.14 277.3 96.06 277.3 100.86C277.3 103.53 279.16 105.39 281.89 105.39C283.21 105.39 284.5 104.91 285.52 104.04C286.3 103.38 286.78 102.81 287.83 101.31Z" fill="#1C1B1B"/>
<path d="M532.38 143.46C532.38 141.99 531.24 141.06 529.41 141.06C527.85 141.06 526.41 141.69 525.33 142.89C524.07 144.27 523.5 145.5 522.63 148.53H520.44L520.17 149.79H522.36L519.72 161.55C518.79 165.99 518.22 167.22 517.02 167.22C516.72 167.22 516.48 167.07 516.48 166.89C516.48 166.89 516.54 166.74 516.6 166.62C516.84 166.26 516.96 165.93 516.96 165.6C516.96 164.88 516.24 164.16 515.46 164.16C514.65 164.16 513.93 164.91 513.93 165.78C513.93 167.22 515.1 168.15 516.9 168.15C518.22 168.15 519.36 167.7 520.32 166.77C521.4 165.72 522.09 164.37 523.02 161.61C523.83 159.18 524.19 157.74 525.87 149.79H528.57L528.84 148.53H526.08L526.62 146.4C527.37 143.43 528.27 141.93 529.35 141.93C529.65 141.93 529.86 142.08 529.86 142.32C529.86 142.32 529.83 142.47 529.71 142.65C529.47 143.01 529.38 143.28 529.38 143.58C529.38 144.42 530.01 145.05 530.85 145.05C531.75 145.05 532.38 144.39 532.38 143.46ZM540.979 158.64L540.349 158.19C539.119 159.84 538.669 160.29 538.189 160.29C537.949 160.29 537.829 160.11 537.829 159.84C537.829 159.09 538.099 157.86 538.849 155.4L540.979 148.32L537.649 148.53L537.109 150.3C536.839 148.77 536.179 148.14 534.889 148.14C531.199 148.14 526.699 153.9 526.699 158.58C526.699 160.86 527.989 162.39 529.939 162.39C531.769 162.39 533.149 161.31 534.859 158.43C534.499 159.66 534.439 160.02 534.439 160.44C534.439 161.55 535.339 162.42 536.449 162.42C537.859 162.42 539.239 161.25 540.979 158.64ZM536.419 150.81C536.419 152.61 535.429 155.94 534.259 158.01C533.449 159.48 532.549 160.26 531.739 160.26C530.959 160.26 530.389 159.57 530.389 158.64C530.389 157.08 531.379 154.08 532.609 151.86C533.509 150.27 534.499 149.34 535.309 149.4C535.969 149.46 536.419 150 536.419 150.81Z" fill="#1C1B1B"/>
<path d="M214.65 222.64L214.02 222.19C212.79 223.84 212.34 224.29 211.86 224.29C211.62 224.29 211.5 224.11 211.5 223.84C211.5 223.09 211.77 221.86 212.52 219.4L214.65 212.32L211.32 212.53L210.78 214.3C210.51 212.77 209.85 212.14 208.56 212.14C204.87 212.14 200.37 217.9 200.37 222.58C200.37 224.86 201.66 226.39 203.61 226.39C205.44 226.39 206.82 225.31 208.53 222.43C208.17 223.66 208.11 224.02 208.11 224.44C208.11 225.55 209.01 226.42 210.12 226.42C211.53 226.42 212.91 225.25 214.65 222.64ZM210.09 214.81C210.09 216.61 209.1 219.94 207.93 222.01C207.12 223.48 206.22 224.26 205.41 224.26C204.63 224.26 204.06 223.57 204.06 222.64C204.06 221.08 205.05 218.08 206.28 215.86C207.18 214.27 208.17 213.34 208.98 213.4C209.64 213.46 210.09 214 210.09 214.81ZM228.75 222.64L228.12 222.19C226.89 223.84 226.44 224.29 225.96 224.29C225.72 224.29 225.6 224.11 225.6 223.84C225.6 223.09 225.87 221.86 226.62 219.4L228.75 212.32L225.42 212.53L224.88 214.3C224.61 212.77 223.95 212.14 222.66 212.14C218.97 212.14 214.47 217.9 214.47 222.58C214.47 224.86 215.76 226.39 217.71 226.39C219.54 226.39 220.92 225.31 222.63 222.43C222.27 223.66 222.21 224.02 222.21 224.44C222.21 225.55 223.11 226.42 224.22 226.42C225.63 226.42 227.01 225.25 228.75 222.64ZM224.19 214.81C224.19 216.61 223.2 219.94 222.03 222.01C221.22 223.48 220.32 224.26 219.51 224.26C218.73 224.26 218.16 223.57 218.16 222.64C218.16 221.08 219.15 218.08 220.38 215.86C221.28 214.27 222.27 213.34 223.08 213.4C223.74 213.46 224.19 214 224.19 214.81Z" fill="#1C1B1B"/>
<line x1="505" y1="159" x2="433.799" y2="159" stroke="#1C1B1B" stroke-width="2"/>
<path d="M425 159L437 156.402L437 161.598L425 159Z" fill="#1C1B1B"/>
</svg>
