<svg width="840" height="490" viewBox="0 0 840 490" fill="none" xmlns="http://www.w3.org/2000/svg">
<g clip-path="url(#clip0)">
<path fill-rule="evenodd" clip-rule="evenodd" d="M533.67 213.15C515.766 214.461 502.654 216.875 491.813 222.851C481.066 228.774 472.662 238.133 463.992 253.086L462.535 252.471L459.452 265.781L466.832 254.283L465.85 253.869C474.376 239.216 482.521 230.256 492.778 224.602C503.224 218.844 515.974 216.451 533.816 215.144L533.67 213.15Z" fill="#1C1B1B"/>
<path d="M554.38 216.25L553.51 215.74C552.13 217.81 551.26 218.47 549.97 218.47C548.71 218.47 548.05 217.63 548.05 216.01C548.05 215.53 548.11 215.14 548.23 214.54C551.35 213.94 552.82 213.28 554.32 211.9C555.37 210.94 555.94 209.83 555.94 208.75C555.94 207.22 554.62 206.14 552.79 206.14C548.44 206.14 544.15 211.03 544.15 215.98C544.15 218.53 546.07 220.39 548.68 220.39C550.99 220.39 552.58 219.22 554.38 216.25ZM553.18 208.15C553.18 209.47 552.67 210.76 551.71 211.75C550.9 212.62 550.15 213.04 548.44 213.58C549.52 209.41 550.9 207.13 552.34 207.13C552.91 207.13 553.18 207.46 553.18 208.15Z" fill="#1C1B1B"/>
<path d="M347.14 234.19L346.48 233.77L346.06 234.37C345.28 235.54 344.59 236.17 344.14 236.17C343.9 236.17 343.69 235.96 343.69 235.72C343.69 235.45 343.84 234.67 343.96 234.16L346.69 224.14C345.07 224.5 342.97 224.8 340.63 224.98V225.79H341.02C341.92 225.79 342.4 226.09 342.4 226.66C342.4 226.9 342.31 227.35 342.19 227.86L340.45 234.31C340.21 235.18 340.06 235.96 340.06 236.38C340.06 237.52 340.9 238.27 342.13 238.27C343.93 238.27 345.04 237.37 347.14 234.19ZM347.98 220.3C347.98 219.19 347.05 218.26 345.91 218.26C344.86 218.26 343.93 219.19 343.93 220.24C343.93 221.41 344.8 222.31 345.91 222.31C347.05 222.31 347.98 221.41 347.98 220.3Z" fill="#1C1B1B"/>
<path d="M519.5 386.72C518.9 386.72 518.39 386.51 517.97 386.09C517.55 385.67 517.34 385.16 517.34 384.56V358.82C517.34 358.22 517.55 357.71 517.97 357.29C518.39 356.87 518.9 356.66 519.5 356.66H528.5C529.1 356.66 529.61 356.87 530.03 357.29C530.45 357.71 530.66 358.22 530.66 358.82C530.66 359.42 530.45 359.93 530.03 360.35C529.61 360.77 529.1 360.98 528.5 360.98H521.66V369.08H527.6C528.2 369.08 528.71 369.29 529.13 369.71C529.55 370.13 529.76 370.64 529.76 371.24C529.76 371.84 529.55 372.35 529.13 372.77C528.71 373.19 528.2 373.4 527.6 373.4H521.66V384.56C521.66 385.16 521.45 385.67 521.03 386.09C520.61 386.51 520.1 386.72 519.5 386.72ZM535.716 386.9C535.116 386.9 534.606 386.69 534.186 386.27C533.766 385.85 533.556 385.34 533.556 384.74V358.64C533.556 358.04 533.766 357.53 534.186 357.11C534.606 356.69 535.116 356.48 535.716 356.48C536.316 356.48 536.826 356.69 537.246 357.11C537.666 357.53 537.876 358.04 537.876 358.64V384.74C537.876 385.34 537.666 385.85 537.246 386.27C536.826 386.69 536.316 386.9 535.716 386.9ZM554.985 369.98C555.585 369.98 556.095 370.19 556.515 370.61C556.935 371.03 557.145 371.54 557.145 372.14V379.34C557.145 380.39 556.95 381.38 556.56 382.31C556.17 383.21 555.63 384.005 554.94 384.695C554.25 385.385 553.44 385.925 552.51 386.315C551.61 386.705 550.635 386.9 549.585 386.9C548.535 386.9 547.545 386.705 546.615 386.315C545.715 385.925 544.92 385.385 544.23 384.695C543.57 384.005 543.03 383.21 542.61 382.31C542.22 381.38 542.025 380.39 542.025 379.34V364.04C542.025 363.2 542.16 362.39 542.43 361.61C542.7 360.8 543.075 360.08 543.555 359.45C544.065 358.79 544.665 358.235 545.355 357.785C546.045 357.305 546.81 356.96 547.65 356.75C548.46 356.54 549.285 356.465 550.125 356.525C550.965 356.555 551.76 356.735 552.51 357.065C553.26 357.365 553.95 357.785 554.58 358.325C555.21 358.865 555.735 359.51 556.155 360.26C556.455 360.77 556.515 361.31 556.335 361.88C556.185 362.45 555.855 362.9 555.345 363.23C554.835 363.53 554.295 363.605 553.725 363.455C553.155 363.275 552.72 362.93 552.42 362.42C552.03 361.79 551.49 361.34 550.8 361.07C550.14 360.77 549.465 360.725 548.775 360.935C548.055 361.115 547.47 361.505 547.02 362.105C546.57 362.675 546.345 363.32 546.345 364.04V379.34C546.345 380.24 546.66 381.005 547.29 381.635C547.95 382.265 548.715 382.58 549.585 382.58C550.485 382.58 551.25 382.265 551.88 381.635C552.51 381.005 552.825 380.24 552.825 379.34V374.3H550.485C549.885 374.3 549.375 374.09 548.955 373.67C548.535 373.25 548.325 372.74 548.325 372.14C548.325 371.54 548.535 371.03 548.955 370.61C549.375 370.19 549.885 369.98 550.485 369.98H554.985ZM560.48 384.29C560.48 383.57 560.735 382.955 561.245 382.445C561.755 381.935 562.37 381.68 563.09 381.68C563.81 381.68 564.425 381.935 564.935 382.445C565.445 382.955 565.7 383.57 565.7 384.29C565.7 385.01 565.445 385.625 564.935 386.135C564.425 386.645 563.81 386.9 563.09 386.9C562.37 386.9 561.755 386.645 561.245 386.135C560.735 385.625 560.48 385.01 560.48 384.29ZM571.927 386.72C571.327 386.72 570.817 386.51 570.397 386.09C569.977 385.67 569.767 385.16 569.767 384.56V358.82C569.767 358.22 569.977 357.71 570.397 357.29C570.817 356.87 571.327 356.66 571.927 356.66H580.927C581.527 356.66 582.037 356.87 582.457 357.29C582.877 357.71 583.087 358.22 583.087 358.82C583.087 359.42 582.877 359.93 582.457 360.35C582.037 360.77 581.527 360.98 580.927 360.98H574.087V369.08H580.027C580.627 369.08 581.137 369.29 581.557 369.71C581.977 370.13 582.187 370.64 582.187 371.24C582.187 371.84 581.977 372.35 581.557 372.77C581.137 373.19 580.627 373.4 580.027 373.4H574.087V384.56C574.087 385.16 573.877 385.67 573.457 386.09C573.037 386.51 572.527 386.72 571.927 386.72ZM588.143 386.72C587.543 386.72 587.033 386.51 586.613 386.09C586.193 385.67 585.983 385.16 585.983 384.56V358.64C585.983 358.04 586.193 357.53 586.613 357.11C587.033 356.69 587.543 356.48 588.143 356.48C588.743 356.48 589.253 356.69 589.673 357.11C590.093 357.53 590.303 358.04 590.303 358.64V382.4H597.143C597.743 382.4 598.253 382.61 598.673 383.03C599.093 383.45 599.303 383.96 599.303 384.56C599.303 385.16 599.093 385.67 598.673 386.09C598.253 386.51 597.743 386.72 597.143 386.72H588.143Z" fill="#1C1B1B"/>
<line x1="329" y1="229" x2="257.799" y2="229" stroke="#1C1B1B" stroke-width="2"/>
<path d="M249 229L261 226.402L261 231.598L249 229Z" fill="#1C1B1B"/>
<line x1="200.041" y1="21.515" x2="156.74" y2="46.5149" stroke="#1C1B1B" stroke-width="2"/>
<path d="M148.738 51.2472L157.832 42.9971L160.43 47.4971L148.738 51.2472Z" fill="#1C1B1B"/>
<line x1="242.674" y1="21.7053" x2="285.975" y2="46.7053" stroke="#1C1B1B" stroke-width="2"/>
<path d="M293.955 51.1695L282.264 47.4194L284.862 42.9194L293.955 51.1695Z" fill="#1C1B1B"/>
<path d="M221.376 22.19L220.716 21.77L220.296 22.37C219.516 23.54 218.826 24.17 218.376 24.17C218.136 24.17 217.926 23.96 217.926 23.72C217.926 23.45 218.076 22.67 218.196 22.16L220.926 12.14C219.306 12.5 217.206 12.8 214.866 12.98L214.866 13.79L215.256 13.79C216.156 13.79 216.636 14.09 216.636 14.66C216.636 14.9 216.546 15.35 216.426 15.86L214.686 22.31C214.446 23.18 214.296 23.96 214.296 24.38C214.296 25.52 215.136 26.27 216.366 26.27C218.166 26.27 219.276 25.37 221.376 22.19ZM222.216 8.3C222.216 7.19 221.286 6.26 220.146 6.26C219.096 6.26 218.166 7.19 218.166 8.24C218.166 9.41 219.036 10.31 220.146 10.31C221.286 10.31 222.216 9.41 222.216 8.3ZM228.436 22.19L227.776 21.77C226.756 23.36 225.976 24.17 225.496 24.17C225.256 24.17 225.016 23.96 225.016 23.72C225.016 23.15 225.556 21.08 226.636 17.36L227.626 13.79L230.116 13.79L230.116 12.53L227.956 12.53L229.126 8.18L228.076 8.18C226.456 10.58 224.956 11.84 222.586 12.74L222.586 13.79L224.116 13.79L222.076 20.93C221.626 22.49 221.356 23.78 221.356 24.32C221.356 25.49 222.196 26.27 223.456 26.27C225.256 26.27 226.456 25.28 228.436 22.19Z" fill="#1C1B1B"/>
</g>
<defs>
<clipPath id="clip0">
<rect width="840" height="490" fill="white"/>
</clipPath>
</defs>
</svg>
