<svg width="840" height="530" viewBox="0 0 840 530" fill="none" xmlns="http://www.w3.org/2000/svg">
<g clip-path="url(#clip0)">
<path fill-rule="evenodd" clip-rule="evenodd" d="M533.67 207.15C515.766 208.461 502.654 210.875 491.813 216.851C481.066 222.774 472.662 232.133 463.992 247.086L462.535 246.471L459.452 259.781L466.832 248.283L465.85 247.869C474.376 233.216 482.521 224.256 492.778 218.602C503.224 212.844 515.974 210.451 533.816 209.144L533.67 207.15Z" fill="#1C1B1B"/>
<path d="M554.38 210.25L553.51 209.74C552.13 211.81 551.26 212.47 549.97 212.47C548.71 212.47 548.05 211.63 548.05 210.01C548.05 209.53 548.11 209.14 548.23 208.54C551.35 207.94 552.82 207.28 554.32 205.9C555.37 204.94 555.94 203.83 555.94 202.75C555.94 201.22 554.62 200.14 552.79 200.14C548.44 200.14 544.15 205.03 544.15 209.98C544.15 212.53 546.07 214.39 548.68 214.39C550.99 214.39 552.58 213.22 554.38 210.25ZM553.18 202.15C553.18 203.47 552.67 204.76 551.71 205.75C550.9 206.62 550.15 207.04 548.44 207.58C549.52 203.41 550.9 201.13 552.34 201.13C552.91 201.13 553.18 201.46 553.18 202.15Z" fill="#1C1B1B"/>
<path d="M347.14 228.19L346.48 227.77L346.06 228.37C345.28 229.54 344.59 230.17 344.14 230.17C343.9 230.17 343.69 229.96 343.69 229.72C343.69 229.45 343.84 228.67 343.96 228.16L346.69 218.14C345.07 218.5 342.97 218.8 340.63 218.98V219.79H341.02C341.92 219.79 342.4 220.09 342.4 220.66C342.4 220.9 342.31 221.35 342.19 221.86L340.45 228.31C340.21 229.18 340.06 229.96 340.06 230.38C340.06 231.52 340.9 232.27 342.13 232.27C343.93 232.27 345.04 231.37 347.14 228.19ZM347.98 214.3C347.98 213.19 347.05 212.26 345.91 212.26C344.86 212.26 343.93 213.19 343.93 214.24C343.93 215.41 344.8 216.31 345.91 216.31C347.05 216.31 347.98 215.41 347.98 214.3Z" fill="#1C1B1B"/>
<path d="M519.5 380.72C518.9 380.72 518.39 380.51 517.97 380.09C517.55 379.67 517.34 379.16 517.34 378.56V352.82C517.34 352.22 517.55 351.71 517.97 351.29C518.39 350.87 518.9 350.66 519.5 350.66H528.5C529.1 350.66 529.61 350.87 530.03 351.29C530.45 351.71 530.66 352.22 530.66 352.82C530.66 353.42 530.45 353.93 530.03 354.35C529.61 354.77 529.1 354.98 528.5 354.98H521.66V363.08H527.6C528.2 363.08 528.71 363.29 529.13 363.71C529.55 364.13 529.76 364.64 529.76 365.24C529.76 365.84 529.55 366.35 529.13 366.77C528.71 367.19 528.2 367.4 527.6 367.4H521.66V378.56C521.66 379.16 521.45 379.67 521.03 380.09C520.61 380.51 520.1 380.72 519.5 380.72ZM535.716 380.9C535.116 380.9 534.606 380.69 534.186 380.27C533.766 379.85 533.556 379.34 533.556 378.74V352.64C533.556 352.04 533.766 351.53 534.186 351.11C534.606 350.69 535.116 350.48 535.716 350.48C536.316 350.48 536.826 350.69 537.246 351.11C537.666 351.53 537.876 352.04 537.876 352.64V378.74C537.876 379.34 537.666 379.85 537.246 380.27C536.826 380.69 536.316 380.9 535.716 380.9ZM554.985 363.98C555.585 363.98 556.095 364.19 556.515 364.61C556.935 365.03 557.145 365.54 557.145 366.14V373.34C557.145 374.39 556.95 375.38 556.56 376.31C556.17 377.21 555.63 378.005 554.94 378.695C554.25 379.385 553.44 379.925 552.51 380.315C551.61 380.705 550.635 380.9 549.585 380.9C548.535 380.9 547.545 380.705 546.615 380.315C545.715 379.925 544.92 379.385 544.23 378.695C543.57 378.005 543.03 377.21 542.61 376.31C542.22 375.38 542.025 374.39 542.025 373.34V358.04C542.025 357.2 542.16 356.39 542.43 355.61C542.7 354.8 543.075 354.08 543.555 353.45C544.065 352.79 544.665 352.235 545.355 351.785C546.045 351.305 546.81 350.96 547.65 350.75C548.46 350.54 549.285 350.465 550.125 350.525C550.965 350.555 551.76 350.735 552.51 351.065C553.26 351.365 553.95 351.785 554.58 352.325C555.21 352.865 555.735 353.51 556.155 354.26C556.455 354.77 556.515 355.31 556.335 355.88C556.185 356.45 555.855 356.9 555.345 357.23C554.835 357.53 554.295 357.605 553.725 357.455C553.155 357.275 552.72 356.93 552.42 356.42C552.03 355.79 551.49 355.34 550.8 355.07C550.14 354.77 549.465 354.725 548.775 354.935C548.055 355.115 547.47 355.505 547.02 356.105C546.57 356.675 546.345 357.32 546.345 358.04V373.34C546.345 374.24 546.66 375.005 547.29 375.635C547.95 376.265 548.715 376.58 549.585 376.58C550.485 376.58 551.25 376.265 551.88 375.635C552.51 375.005 552.825 374.24 552.825 373.34V368.3H550.485C549.885 368.3 549.375 368.09 548.955 367.67C548.535 367.25 548.325 366.74 548.325 366.14C548.325 365.54 548.535 365.03 548.955 364.61C549.375 364.19 549.885 363.98 550.485 363.98H554.985ZM560.48 378.29C560.48 377.57 560.735 376.955 561.245 376.445C561.755 375.935 562.37 375.68 563.09 375.68C563.81 375.68 564.425 375.935 564.935 376.445C565.445 376.955 565.7 377.57 565.7 378.29C565.7 379.01 565.445 379.625 564.935 380.135C564.425 380.645 563.81 380.9 563.09 380.9C562.37 380.9 561.755 380.645 561.245 380.135C560.735 379.625 560.48 379.01 560.48 378.29ZM571.927 380.72C571.327 380.72 570.817 380.51 570.397 380.09C569.977 379.67 569.767 379.16 569.767 378.56V352.82C569.767 352.22 569.977 351.71 570.397 351.29C570.817 350.87 571.327 350.66 571.927 350.66H580.927C581.527 350.66 582.037 350.87 582.457 351.29C582.877 351.71 583.087 352.22 583.087 352.82C583.087 353.42 582.877 353.93 582.457 354.35C582.037 354.77 581.527 354.98 580.927 354.98H574.087V363.08H580.027C580.627 363.08 581.137 363.29 581.557 363.71C581.977 364.13 582.187 364.64 582.187 365.24C582.187 365.84 581.977 366.35 581.557 366.77C581.137 367.19 580.627 367.4 580.027 367.4H574.087V378.56C574.087 379.16 573.877 379.67 573.457 380.09C573.037 380.51 572.527 380.72 571.927 380.72ZM588.143 380.72C587.543 380.72 587.033 380.51 586.613 380.09C586.193 379.67 585.983 379.16 585.983 378.56V352.64C585.983 352.04 586.193 351.53 586.613 351.11C587.033 350.69 587.543 350.48 588.143 350.48C588.743 350.48 589.253 350.69 589.673 351.11C590.093 351.53 590.303 352.04 590.303 352.64V376.4H597.143C597.743 376.4 598.253 376.61 598.673 377.03C599.093 377.45 599.303 377.96 599.303 378.56C599.303 379.16 599.093 379.67 598.673 380.09C598.253 380.51 597.743 380.72 597.143 380.72H588.143Z" fill="#1C1B1B"/>
<line x1="329" y1="223" x2="257.799" y2="223" stroke="#1C1B1B" stroke-width="2"/>
<path d="M249 223L261 220.402L261 225.598L249 223Z" fill="#1C1B1B"/>
<line x1="200.041" y1="15.515" x2="156.74" y2="40.5149" stroke="#1C1B1B" stroke-width="2"/>
<path d="M148.738 45.2472L157.832 36.9971L160.43 41.4971L148.738 45.2472Z" fill="#1C1B1B"/>
<line x1="242.674" y1="15.7053" x2="285.975" y2="40.7053" stroke="#1C1B1B" stroke-width="2"/>
<path d="M293.955 45.1695L282.264 41.4194L284.862 36.9194L293.955 45.1695Z" fill="#1C1B1B"/>
<path d="M221.376 16.19L220.716 15.77L220.296 16.37C219.516 17.54 218.826 18.17 218.376 18.17C218.136 18.17 217.926 17.96 217.926 17.72C217.926 17.45 218.076 16.67 218.196 16.16L220.926 6.14C219.306 6.5 217.206 6.8 214.866 6.98L214.866 7.79L215.256 7.79C216.156 7.79 216.636 8.09 216.636 8.66C216.636 8.9 216.546 9.35 216.426 9.86L214.686 16.31C214.446 17.18 214.296 17.96 214.296 18.38C214.296 19.52 215.136 20.27 216.366 20.27C218.166 20.27 219.276 19.37 221.376 16.19ZM222.216 2.3C222.216 1.19 221.286 0.259999 220.146 0.259999C219.096 0.259999 218.166 1.19 218.166 2.24C218.166 3.41 219.036 4.31 220.146 4.31C221.286 4.31 222.216 3.41 222.216 2.3ZM228.436 16.19L227.776 15.77C226.756 17.36 225.976 18.17 225.496 18.17C225.256 18.17 225.016 17.96 225.016 17.72C225.016 17.15 225.556 15.08 226.636 11.36L227.626 7.79L230.116 7.79L230.116 6.53L227.956 6.53L229.126 2.18L228.076 2.18C226.456 4.58 224.956 5.84 222.586 6.74L222.586 7.79L224.116 7.79L222.076 14.93C221.626 16.49 221.356 17.78 221.356 18.32C221.356 19.49 222.196 20.27 223.456 20.27C225.256 20.27 226.456 19.28 228.436 16.19Z" fill="#1C1B1B"/>
</g>
<defs>
<clipPath id="clip0">
<rect width="840" height="530" fill="white"/>
</clipPath>
</defs>
</svg>
