<svg width="840" height="392" viewBox="0 0 840 392" fill="none" xmlns="http://www.w3.org/2000/svg">
<g clip-path="url(#clip0)">
<path fill-rule="evenodd" clip-rule="evenodd" d="M533.67 208.15C515.766 209.461 502.654 211.875 491.813 217.851C481.066 223.774 472.662 233.133 463.992 248.086L462.535 247.471L459.452 260.781L466.832 249.283L465.85 248.869C474.376 234.216 482.521 225.256 492.778 219.602C503.224 213.844 515.974 211.451 533.816 210.144L533.67 208.15Z" fill="#1C1B1B"/>
<path d="M554.38 211.25L553.51 210.74C552.13 212.81 551.26 213.47 549.97 213.47C548.71 213.47 548.05 212.63 548.05 211.01C548.05 210.53 548.11 210.14 548.23 209.54C551.35 208.94 552.82 208.28 554.32 206.9C555.37 205.94 555.94 204.83 555.94 203.75C555.94 202.22 554.62 201.14 552.79 201.14C548.44 201.14 544.15 206.03 544.15 210.98C544.15 213.53 546.07 215.39 548.68 215.39C550.99 215.39 552.58 214.22 554.38 211.25ZM553.18 203.15C553.18 204.47 552.67 205.76 551.71 206.75C550.9 207.62 550.15 208.04 548.44 208.58C549.52 204.41 550.9 202.13 552.34 202.13C552.91 202.13 553.18 202.46 553.18 203.15Z" fill="#1C1B1B"/>
<path d="M347.14 229.19L346.48 228.77L346.06 229.37C345.28 230.54 344.59 231.17 344.14 231.17C343.9 231.17 343.69 230.96 343.69 230.72C343.69 230.45 343.84 229.67 343.96 229.16L346.69 219.14C345.07 219.5 342.97 219.8 340.63 219.98V220.79H341.02C341.92 220.79 342.4 221.09 342.4 221.66C342.4 221.9 342.31 222.35 342.19 222.86L340.45 229.31C340.21 230.18 340.06 230.96 340.06 231.38C340.06 232.52 340.9 233.27 342.13 233.27C343.93 233.27 345.04 232.37 347.14 229.19ZM347.98 215.3C347.98 214.19 347.05 213.26 345.91 213.26C344.86 213.26 343.93 214.19 343.93 215.24C343.93 216.41 344.8 217.31 345.91 217.31C347.05 217.31 347.98 216.41 347.98 215.3Z" fill="#1C1B1B"/>
<path d="M519.5 381.72C518.9 381.72 518.39 381.51 517.97 381.09C517.55 380.67 517.34 380.16 517.34 379.56V353.82C517.34 353.22 517.55 352.71 517.97 352.29C518.39 351.87 518.9 351.66 519.5 351.66H528.5C529.1 351.66 529.61 351.87 530.03 352.29C530.45 352.71 530.66 353.22 530.66 353.82C530.66 354.42 530.45 354.93 530.03 355.35C529.61 355.77 529.1 355.98 528.5 355.98H521.66V364.08H527.6C528.2 364.08 528.71 364.29 529.13 364.71C529.55 365.13 529.76 365.64 529.76 366.24C529.76 366.84 529.55 367.35 529.13 367.77C528.71 368.19 528.2 368.4 527.6 368.4H521.66V379.56C521.66 380.16 521.45 380.67 521.03 381.09C520.61 381.51 520.1 381.72 519.5 381.72ZM535.716 381.9C535.116 381.9 534.606 381.69 534.186 381.27C533.766 380.85 533.556 380.34 533.556 379.74V353.64C533.556 353.04 533.766 352.53 534.186 352.11C534.606 351.69 535.116 351.48 535.716 351.48C536.316 351.48 536.826 351.69 537.246 352.11C537.666 352.53 537.876 353.04 537.876 353.64V379.74C537.876 380.34 537.666 380.85 537.246 381.27C536.826 381.69 536.316 381.9 535.716 381.9ZM554.985 364.98C555.585 364.98 556.095 365.19 556.515 365.61C556.935 366.03 557.145 366.54 557.145 367.14V374.34C557.145 375.39 556.95 376.38 556.56 377.31C556.17 378.21 555.63 379.005 554.94 379.695C554.25 380.385 553.44 380.925 552.51 381.315C551.61 381.705 550.635 381.9 549.585 381.9C548.535 381.9 547.545 381.705 546.615 381.315C545.715 380.925 544.92 380.385 544.23 379.695C543.57 379.005 543.03 378.21 542.61 377.31C542.22 376.38 542.025 375.39 542.025 374.34V359.04C542.025 358.2 542.16 357.39 542.43 356.61C542.7 355.8 543.075 355.08 543.555 354.45C544.065 353.79 544.665 353.235 545.355 352.785C546.045 352.305 546.81 351.96 547.65 351.75C548.46 351.54 549.285 351.465 550.125 351.525C550.965 351.555 551.76 351.735 552.51 352.065C553.26 352.365 553.95 352.785 554.58 353.325C555.21 353.865 555.735 354.51 556.155 355.26C556.455 355.77 556.515 356.31 556.335 356.88C556.185 357.45 555.855 357.9 555.345 358.23C554.835 358.53 554.295 358.605 553.725 358.455C553.155 358.275 552.72 357.93 552.42 357.42C552.03 356.79 551.49 356.34 550.8 356.07C550.14 355.77 549.465 355.725 548.775 355.935C548.055 356.115 547.47 356.505 547.02 357.105C546.57 357.675 546.345 358.32 546.345 359.04V374.34C546.345 375.24 546.66 376.005 547.29 376.635C547.95 377.265 548.715 377.58 549.585 377.58C550.485 377.58 551.25 377.265 551.88 376.635C552.51 376.005 552.825 375.24 552.825 374.34V369.3H550.485C549.885 369.3 549.375 369.09 548.955 368.67C548.535 368.25 548.325 367.74 548.325 367.14C548.325 366.54 548.535 366.03 548.955 365.61C549.375 365.19 549.885 364.98 550.485 364.98H554.985ZM560.48 379.29C560.48 378.57 560.735 377.955 561.245 377.445C561.755 376.935 562.37 376.68 563.09 376.68C563.81 376.68 564.425 376.935 564.935 377.445C565.445 377.955 565.7 378.57 565.7 379.29C565.7 380.01 565.445 380.625 564.935 381.135C564.425 381.645 563.81 381.9 563.09 381.9C562.37 381.9 561.755 381.645 561.245 381.135C560.735 380.625 560.48 380.01 560.48 379.29ZM571.927 381.72C571.327 381.72 570.817 381.51 570.397 381.09C569.977 380.67 569.767 380.16 569.767 379.56V353.82C569.767 353.22 569.977 352.71 570.397 352.29C570.817 351.87 571.327 351.66 571.927 351.66H580.927C581.527 351.66 582.037 351.87 582.457 352.29C582.877 352.71 583.087 353.22 583.087 353.82C583.087 354.42 582.877 354.93 582.457 355.35C582.037 355.77 581.527 355.98 580.927 355.98H574.087V364.08H580.027C580.627 364.08 581.137 364.29 581.557 364.71C581.977 365.13 582.187 365.64 582.187 366.24C582.187 366.84 581.977 367.35 581.557 367.77C581.137 368.19 580.627 368.4 580.027 368.4H574.087V379.56C574.087 380.16 573.877 380.67 573.457 381.09C573.037 381.51 572.527 381.72 571.927 381.72ZM588.143 381.72C587.543 381.72 587.033 381.51 586.613 381.09C586.193 380.67 585.983 380.16 585.983 379.56V353.64C585.983 353.04 586.193 352.53 586.613 352.11C587.033 351.69 587.543 351.48 588.143 351.48C588.743 351.48 589.253 351.69 589.673 352.11C590.093 352.53 590.303 353.04 590.303 353.64V377.4H597.143C597.743 377.4 598.253 377.61 598.673 378.03C599.093 378.45 599.303 378.96 599.303 379.56C599.303 380.16 599.093 380.67 598.673 381.09C598.253 381.51 597.743 381.72 597.143 381.72H588.143Z" fill="#1C1B1B"/>
<line x1="329" y1="224" x2="257.799" y2="224" stroke="#1C1B1B" stroke-width="2"/>
<path d="M249 224L261 221.402L261 226.598L249 224Z" fill="#1C1B1B"/>
<line x1="200.041" y1="16.515" x2="156.74" y2="41.5149" stroke="#1C1B1B" stroke-width="2"/>
<path d="M148.738 46.2472L157.832 37.9971L160.43 42.4971L148.738 46.2472Z" fill="#1C1B1B"/>
<line x1="242.674" y1="16.7053" x2="285.975" y2="41.7053" stroke="#1C1B1B" stroke-width="2"/>
<path d="M293.955 46.1695L282.264 42.4194L284.862 37.9194L293.955 46.1695Z" fill="#1C1B1B"/>
<path d="M221.376 17.19L220.716 16.77L220.296 17.37C219.516 18.54 218.826 19.17 218.376 19.17C218.136 19.17 217.926 18.96 217.926 18.72C217.926 18.45 218.076 17.67 218.196 17.16L220.926 7.14C219.306 7.5 217.206 7.8 214.866 7.98L214.866 8.79L215.256 8.79C216.156 8.79 216.636 9.09 216.636 9.66C216.636 9.9 216.546 10.35 216.426 10.86L214.686 17.31C214.446 18.18 214.296 18.96 214.296 19.38C214.296 20.52 215.136 21.27 216.366 21.27C218.166 21.27 219.276 20.37 221.376 17.19ZM222.216 3.3C222.216 2.19 221.286 1.26 220.146 1.26C219.096 1.26 218.166 2.19 218.166 3.24C218.166 4.41 219.036 5.31 220.146 5.31C221.286 5.31 222.216 4.41 222.216 3.3ZM228.436 17.19L227.776 16.77C226.756 18.36 225.976 19.17 225.496 19.17C225.256 19.17 225.016 18.96 225.016 18.72C225.016 18.15 225.556 16.08 226.636 12.36L227.626 8.79L230.116 8.79L230.116 7.53L227.956 7.53L229.126 3.18L228.076 3.18C226.456 5.58 224.956 6.84 222.586 7.74L222.586 8.79L224.116 8.79L222.076 15.93C221.626 17.49 221.356 18.78 221.356 19.32C221.356 20.49 222.196 21.27 223.456 21.27C225.256 21.27 226.456 20.28 228.436 17.19Z" fill="#1C1B1B"/>
</g>
<defs>
<clipPath id="clip0">
<rect width="840" height="392" fill="white"/>
</clipPath>
</defs>
</svg>
