<svg width="840" height="507" viewBox="0 0 840 507" fill="none" xmlns="http://www.w3.org/2000/svg">
<path fill-rule="evenodd" clip-rule="evenodd" d="M223.864 320.998C226.378 327.936 230.233 332.493 234.894 335.759C240.172 339.458 246.452 341.469 252.734 343.48L252.734 343.48C253.331 343.671 253.928 343.862 254.524 344.055C261.451 346.293 268.336 348.742 274.283 353.584C280.202 358.403 285.264 365.656 288.381 377.625L290.316 377.121C287.108 364.801 281.84 357.158 275.546 352.033C269.28 346.931 262.069 344.39 255.139 342.152C254.554 341.963 253.971 341.776 253.392 341.59L253.387 341.589C247.046 339.556 241.057 337.636 236.042 334.121C231.756 331.118 228.156 326.924 225.775 320.402L227.163 319.969L220.9 307.756L222.691 321.364L223.864 320.998Z" fill="#1C1B1B"/>
<path fill-rule="evenodd" clip-rule="evenodd" d="M52.6729 350.391C50.5455 332.548 50.4165 319.203 54.2203 307.41C57.9908 295.72 65.5839 285.676 78.6227 274.304L77.7404 272.989L90.2314 267.42L80.3408 276.865L79.7459 275.979C66.9731 287.152 59.7225 296.866 56.1238 308.024C52.4585 319.387 52.5387 332.372 54.6588 350.155L52.6729 350.391Z" fill="#1C1B1B"/>
<path d="M330 98L300.961 98L300.961 156.105" stroke="#1C1B1B" stroke-width="2"/>
<path d="M300.957 167.996L303.518 151.78L298.396 151.78L300.957 167.996Z" fill="#1C1B1B"/>
<line x1="624.781" y1="237.598" x2="563.12" y2="273.198" stroke="#1C1B1B" stroke-width="2"/>
<path d="M555.5 277.598L564.593 269.348L567.191 273.848L555.5 277.598Z" fill="#1C1B1B"/>
<path d="M287.38 394.31L286.54 393.77C285.1 395.78 284.17 396.47 282.88 396.47C281.56 396.47 280.69 395.39 280.69 393.8C280.69 391.91 281.47 389.21 282.55 387.26C283.36 385.85 284.2 385.13 285.13 385.13C285.49 385.13 285.79 385.34 285.79 385.64C285.79 385.76 285.73 385.94 285.55 386.21C285.28 386.69 285.16 387.02 285.16 387.38C285.16 388.28 285.88 388.94 286.9 388.94C288.01 388.94 288.76 388.1 288.76 386.84C288.76 385.25 287.41 384.14 285.4 384.14C281.17 384.14 276.85 389.06 276.85 393.86C276.85 396.53 278.71 398.39 281.44 398.39C282.76 398.39 284.05 397.91 285.07 397.04C285.85 396.38 286.33 395.81 287.38 394.31ZM299.81 394.31L298.97 393.77C297.53 395.78 296.6 396.47 295.31 396.47C293.99 396.47 293.12 395.39 293.12 393.8C293.12 391.91 293.9 389.21 294.98 387.26C295.79 385.85 296.63 385.13 297.56 385.13C297.92 385.13 298.22 385.34 298.22 385.64C298.22 385.76 298.16 385.94 297.98 386.21C297.71 386.69 297.59 387.02 297.59 387.38C297.59 388.28 298.31 388.94 299.33 388.94C300.44 388.94 301.19 388.1 301.19 386.84C301.19 385.25 299.84 384.14 297.83 384.14C293.6 384.14 289.28 389.06 289.28 393.86C289.28 396.53 291.14 398.39 293.87 398.39C295.19 398.39 296.48 397.91 297.5 397.04C298.28 396.38 298.76 395.81 299.81 394.31Z" fill="#1C1B1B"/>
<path d="M649.38 228.77C649.38 226.55 648.12 225.14 646.14 225.14C644.43 225.14 643.11 226.1 641.34 228.59L642.48 225.14L636.69 225.98V226.79C638.04 226.85 638.31 226.97 638.31 227.54C638.31 227.84 638.07 228.92 637.65 230.48L634.65 242.12C634.08 244.1 633.84 244.37 632.4 244.34V245.15H639.87V244.34C638.37 244.31 637.92 244.1 637.92 243.38C637.92 242.96 638.13 242.06 638.7 239.96C638.91 239.24 638.91 239.18 639.03 238.73C640.08 239.27 640.44 239.39 641.07 239.39C645.15 239.39 649.38 233.96 649.38 228.77ZM645.63 228.98C645.51 230.96 644.55 233.93 643.47 235.88C642.54 237.5 641.58 238.34 640.56 238.34C639.9 238.34 639.39 237.86 639.39 237.26C639.39 236.75 639.72 235.52 640.53 232.79C641.19 230.6 641.46 229.85 641.91 229.16C642.66 227.99 643.68 227.21 644.46 227.27C645.24 227.33 645.69 228.02 645.63 228.98Z" fill="#1C1B1B"/>
<path d="M354.03 91.15C354.03 90.1 353.16 89.14 352.2 89.14C351.3 89.14 350.52 89.95 350.52 90.88C350.52 91.39 350.7 91.81 351.24 92.41C351.69 92.92 351.84 93.19 351.84 93.52C351.84 94.57 351.03 95.77 348.06 99.16C347.94 93.28 347.76 91.54 347.13 89.14C345.66 89.5 344.97 89.62 342.48 89.98V90.79C343.41 90.79 343.68 90.88 343.89 91.27C344.37 92.23 344.7 94.84 344.7 98.08C344.7 98.2 344.7 98.71 344.67 99.31L344.55 103.39H345.33C349.14 99.76 350.55 98.17 352.2 95.77C353.4 94.03 354.03 92.41 354.03 91.15Z" fill="#1C1B1B"/>
<path d="M63.75 371.19L63.09 370.77C62.07 372.36 61.29 373.17 60.81 373.17C60.57 373.17 60.33 372.96 60.33 372.72C60.33 372.15 60.87 370.08 61.95 366.36L62.94 362.79H65.43V361.53H63.27L64.44 357.18H63.39C61.77 359.58 60.27 360.84 57.9 361.74V362.79H59.43L57.39 369.93C56.94 371.49 56.67 372.78 56.67 373.32C56.67 374.49 57.51 375.27 58.77 375.27C60.57 375.27 61.77 374.28 63.75 371.19Z" fill="#1C1B1B"/>
</svg>
