<svg width="840" height="530" viewBox="0 0 840 530" fill="none" xmlns="http://www.w3.org/2000/svg">
<path fill-rule="evenodd" clip-rule="evenodd" d="M223.864 336.998C226.378 343.936 230.233 348.493 234.894 351.759C240.172 355.458 246.452 357.469 252.734 359.48L252.734 359.48C253.331 359.671 253.928 359.862 254.524 360.055C261.451 362.293 268.336 364.742 274.283 369.584C280.202 374.403 285.264 381.656 288.381 393.625L290.316 393.121C287.108 380.801 281.84 373.158 275.546 368.033C269.28 362.931 262.069 360.39 255.139 358.152C254.554 357.963 253.971 357.776 253.392 357.59L253.387 357.589C247.046 355.556 241.057 353.636 236.042 350.121C231.756 347.118 228.156 342.924 225.775 336.402L227.163 335.969L220.9 323.756L222.691 337.364L223.864 336.998Z" fill="#1C1B1B"/>
<path fill-rule="evenodd" clip-rule="evenodd" d="M52.6729 366.391C50.5455 348.548 50.4165 335.203 54.2203 323.41C57.9908 311.72 65.5839 301.676 78.6227 290.304L77.7404 288.989L90.2314 283.42L80.3408 292.865L79.7459 291.979C66.9731 303.152 59.7225 312.866 56.1238 324.024C52.4585 335.387 52.5387 348.372 54.6588 366.155L52.6729 366.391Z" fill="#1C1B1B"/>
<path d="M330 114L300.961 114L300.961 172.105" stroke="#1C1B1B" stroke-width="2"/>
<path d="M300.957 183.996L303.518 167.78L298.396 167.78L300.957 183.996Z" fill="#1C1B1B"/>
<line x1="624.781" y1="253.598" x2="563.12" y2="289.198" stroke="#1C1B1B" stroke-width="2"/>
<path d="M555.5 293.598L564.593 285.348L567.191 289.848L555.5 293.598Z" fill="#1C1B1B"/>
<path d="M287.38 410.31L286.54 409.77C285.1 411.78 284.17 412.47 282.88 412.47C281.56 412.47 280.69 411.39 280.69 409.8C280.69 407.91 281.47 405.21 282.55 403.26C283.36 401.85 284.2 401.13 285.13 401.13C285.49 401.13 285.79 401.34 285.79 401.64C285.79 401.76 285.73 401.94 285.55 402.21C285.28 402.69 285.16 403.02 285.16 403.38C285.16 404.28 285.88 404.94 286.9 404.94C288.01 404.94 288.76 404.1 288.76 402.84C288.76 401.25 287.41 400.14 285.4 400.14C281.17 400.14 276.85 405.06 276.85 409.86C276.85 412.53 278.71 414.39 281.44 414.39C282.76 414.39 284.05 413.91 285.07 413.04C285.85 412.38 286.33 411.81 287.38 410.31ZM299.81 410.31L298.97 409.77C297.53 411.78 296.6 412.47 295.31 412.47C293.99 412.47 293.12 411.39 293.12 409.8C293.12 407.91 293.9 405.21 294.98 403.26C295.79 401.85 296.63 401.13 297.56 401.13C297.92 401.13 298.22 401.34 298.22 401.64C298.22 401.76 298.16 401.94 297.98 402.21C297.71 402.69 297.59 403.02 297.59 403.38C297.59 404.28 298.31 404.94 299.33 404.94C300.44 404.94 301.19 404.1 301.19 402.84C301.19 401.25 299.84 400.14 297.83 400.14C293.6 400.14 289.28 405.06 289.28 409.86C289.28 412.53 291.14 414.39 293.87 414.39C295.19 414.39 296.48 413.91 297.5 413.04C298.28 412.38 298.76 411.81 299.81 410.31Z" fill="#1C1B1B"/>
<path d="M649.38 244.77C649.38 242.55 648.12 241.14 646.14 241.14C644.43 241.14 643.11 242.1 641.34 244.59L642.48 241.14L636.69 241.98V242.79C638.04 242.85 638.31 242.97 638.31 243.54C638.31 243.84 638.07 244.92 637.65 246.48L634.65 258.12C634.08 260.1 633.84 260.37 632.4 260.34V261.15H639.87V260.34C638.37 260.31 637.92 260.1 637.92 259.38C637.92 258.96 638.13 258.06 638.7 255.96C638.91 255.24 638.91 255.18 639.03 254.73C640.08 255.27 640.44 255.39 641.07 255.39C645.15 255.39 649.38 249.96 649.38 244.77ZM645.63 244.98C645.51 246.96 644.55 249.93 643.47 251.88C642.54 253.5 641.58 254.34 640.56 254.34C639.9 254.34 639.39 253.86 639.39 253.26C639.39 252.75 639.72 251.52 640.53 248.79C641.19 246.6 641.46 245.85 641.91 245.16C642.66 243.99 643.68 243.21 644.46 243.27C645.24 243.33 645.69 244.02 645.63 244.98Z" fill="#1C1B1B"/>
<path d="M354.03 107.15C354.03 106.1 353.16 105.14 352.2 105.14C351.3 105.14 350.52 105.95 350.52 106.88C350.52 107.39 350.7 107.81 351.24 108.41C351.69 108.92 351.84 109.19 351.84 109.52C351.84 110.57 351.03 111.77 348.06 115.16C347.94 109.28 347.76 107.54 347.13 105.14C345.66 105.5 344.97 105.62 342.48 105.98V106.79C343.41 106.79 343.68 106.88 343.89 107.27C344.37 108.23 344.7 110.84 344.7 114.08C344.7 114.2 344.7 114.71 344.67 115.31L344.55 119.39H345.33C349.14 115.76 350.55 114.17 352.2 111.77C353.4 110.03 354.03 108.41 354.03 107.15Z" fill="#1C1B1B"/>
<path d="M63.75 387.19L63.09 386.77C62.07 388.36 61.29 389.17 60.81 389.17C60.57 389.17 60.33 388.96 60.33 388.72C60.33 388.15 60.87 386.08 61.95 382.36L62.94 378.79H65.43V377.53H63.27L64.44 373.18H63.39C61.77 375.58 60.27 376.84 57.9 377.74V378.79H59.43L57.39 385.93C56.94 387.49 56.67 388.78 56.67 389.32C56.67 390.49 57.51 391.27 58.77 391.27C60.57 391.27 61.77 390.28 63.75 387.19Z" fill="#1C1B1B"/>
<path d="M4.5 166.72C3.9 166.72 3.39 166.51 2.97 166.09C2.55 165.67 2.34 165.16 2.34 164.56V138.82C2.34 138.22 2.55 137.71 2.97 137.29C3.39 136.87 3.9 136.66 4.5 136.66H13.5C14.1 136.66 14.61 136.87 15.03 137.29C15.45 137.71 15.66 138.22 15.66 138.82C15.66 139.42 15.45 139.93 15.03 140.35C14.61 140.77 14.1 140.98 13.5 140.98H6.66V149.08H12.6C13.2 149.08 13.71 149.29 14.13 149.71C14.55 150.13 14.76 150.64 14.76 151.24C14.76 151.84 14.55 152.35 14.13 152.77C13.71 153.19 13.2 153.4 12.6 153.4H6.66V164.56C6.66 165.16 6.45 165.67 6.03 166.09C5.61 166.51 5.1 166.72 4.5 166.72ZM20.7158 166.9C20.1158 166.9 19.6058 166.69 19.1858 166.27C18.7658 165.85 18.5558 165.34 18.5558 164.74V138.64C18.5558 138.04 18.7658 137.53 19.1858 137.11C19.6058 136.69 20.1158 136.48 20.7158 136.48C21.3158 136.48 21.8258 136.69 22.2458 137.11C22.6658 137.53 22.8758 138.04 22.8758 138.64V164.74C22.8758 165.34 22.6658 165.85 22.2458 166.27C21.8258 166.69 21.3158 166.9 20.7158 166.9ZM39.9846 149.98C40.5846 149.98 41.0946 150.19 41.5146 150.61C41.9346 151.03 42.1446 151.54 42.1446 152.14V159.34C42.1446 160.39 41.9496 161.38 41.5596 162.31C41.1696 163.21 40.6296 164.005 39.9396 164.695C39.2496 165.385 38.4396 165.925 37.5096 166.315C36.6096 166.705 35.6346 166.9 34.5846 166.9C33.5346 166.9 32.5446 166.705 31.6146 166.315C30.7146 165.925 29.9196 165.385 29.2296 164.695C28.5696 164.005 28.0296 163.21 27.6096 162.31C27.2196 161.38 27.0246 160.39 27.0246 159.34V144.04C27.0246 143.2 27.1596 142.39 27.4296 141.61C27.6996 140.8 28.0746 140.08 28.5546 139.45C29.0646 138.79 29.6646 138.235 30.3546 137.785C31.0446 137.305 31.8096 136.96 32.6496 136.75C33.4596 136.54 34.2846 136.465 35.1246 136.525C35.9646 136.555 36.7596 136.735 37.5096 137.065C38.2596 137.365 38.9496 137.785 39.5796 138.325C40.2096 138.865 40.7346 139.51 41.1546 140.26C41.4546 140.77 41.5146 141.31 41.3346 141.88C41.1846 142.45 40.8546 142.9 40.3446 143.23C39.8346 143.53 39.2946 143.605 38.7246 143.455C38.1546 143.275 37.7196 142.93 37.4196 142.42C37.0296 141.79 36.4896 141.34 35.7996 141.07C35.1396 140.77 34.4646 140.725 33.7746 140.935C33.0546 141.115 32.4696 141.505 32.0196 142.105C31.5696 142.675 31.3446 143.32 31.3446 144.04V159.34C31.3446 160.24 31.6596 161.005 32.2896 161.635C32.9496 162.265 33.7146 162.58 34.5846 162.58C35.4846 162.58 36.2496 162.265 36.8796 161.635C37.5096 161.005 37.8246 160.24 37.8246 159.34V154.3H35.4846C34.8846 154.3 34.3746 154.09 33.9546 153.67C33.5346 153.25 33.3246 152.74 33.3246 152.14C33.3246 151.54 33.5346 151.03 33.9546 150.61C34.3746 150.19 34.8846 149.98 35.4846 149.98H39.9846ZM45.4795 164.29C45.4795 163.57 45.7345 162.955 46.2445 162.445C46.7545 161.935 47.3695 161.68 48.0895 161.68C48.8095 161.68 49.4245 161.935 49.9345 162.445C50.4445 162.955 50.6995 163.57 50.6995 164.29C50.6995 165.01 50.4445 165.625 49.9345 166.135C49.4245 166.645 48.8095 166.9 48.0895 166.9C47.3695 166.9 46.7545 166.645 46.2445 166.135C45.7345 165.625 45.4795 165.01 45.4795 164.29ZM54.7668 138.82C54.7668 138.22 54.9768 137.71 55.3968 137.29C55.8168 136.87 56.3268 136.66 56.9268 136.66H62.3268C63.3768 136.66 64.3518 136.855 65.2518 137.245C66.1818 137.635 66.9918 138.175 67.6818 138.865C68.3718 139.555 68.9118 140.365 69.3018 141.295C69.6918 142.195 69.8868 143.17 69.8868 144.22V146.74C69.8868 147.79 69.6918 148.78 69.3018 149.71C68.9118 150.61 68.3718 151.405 67.6818 152.095C66.9918 152.785 66.1818 153.325 65.2518 153.715C64.3518 154.105 63.3768 154.3 62.3268 154.3H59.0868V164.74C59.0868 165.34 58.8768 165.85 58.4568 166.27C58.0368 166.69 57.5268 166.9 56.9268 166.9C56.3268 166.9 55.8168 166.69 55.3968 166.27C54.9768 165.85 54.7668 165.34 54.7668 164.74V138.82ZM65.5668 144.22C65.5668 143.32 65.2518 142.555 64.6218 141.925C63.9918 141.295 63.2268 140.98 62.3268 140.98H59.0868V149.98H62.3268C63.2268 149.98 63.9918 149.665 64.6218 149.035C65.2518 148.405 65.5668 147.64 65.5668 146.74V144.22Z" fill="#1C1B1B"/>
</svg>
