<svg width="840" height="507" viewBox="0 0 840 507" fill="none" xmlns="http://www.w3.org/2000/svg">
<g clip-path="url(#clip0)">
<path fill-rule="evenodd" clip-rule="evenodd" d="M225.77 287.77C227.083 295.032 230.118 300.172 234.163 304.175C238.745 308.708 244.598 311.745 250.453 314.783L250.453 314.783C251.009 315.072 251.566 315.361 252.121 315.651C258.573 319.02 264.948 322.592 269.997 328.364C275.022 334.109 278.794 342.109 279.856 354.432L281.848 354.261C280.756 341.577 276.847 333.157 271.503 327.047C266.183 320.966 259.502 317.249 253.047 313.878C252.502 313.593 251.959 313.311 251.418 313.031L251.414 313.028C245.505 309.959 239.924 307.061 235.57 302.753C231.849 299.072 229.006 294.333 227.754 287.504L229.196 287.31L225.074 274.219L224.553 287.934L225.77 287.77Z" fill="#1C1B1B"/>
<path fill-rule="evenodd" clip-rule="evenodd" d="M374.861 161.631C381.307 158.04 385.189 153.506 387.667 148.382C390.474 142.581 391.454 136.059 392.435 129.537L392.435 129.537C392.528 128.917 392.621 128.297 392.716 127.678C393.817 120.482 395.133 113.294 398.962 106.649C402.772 100.036 409.122 93.8787 420.438 88.8872L419.631 87.0573C407.983 92.195 401.281 98.6179 397.229 105.651C393.195 112.652 391.84 120.177 390.739 127.375C390.646 127.983 390.555 128.588 390.464 129.19L390.463 129.195C389.471 135.78 388.534 141.998 385.867 147.511C383.587 152.223 380.024 156.446 373.967 159.84L373.317 158.539L362.263 166.675L375.41 162.731L374.861 161.631Z" fill="#1C1B1B"/>
<path fill-rule="evenodd" clip-rule="evenodd" d="M52.6729 315.391C50.5455 297.548 50.4165 284.203 54.2203 272.41C57.9908 260.72 65.5839 250.676 78.6227 239.304L77.7404 237.989L90.2314 232.42L80.3408 241.865L79.7459 240.979C66.9731 252.152 59.7225 261.866 56.1238 273.024C52.4585 284.387 52.5387 297.372 54.6588 315.155L52.6729 315.391Z" fill="#1C1B1B"/>
<path fill-rule="evenodd" clip-rule="evenodd" d="M428.087 364.709C431.594 347.085 435.607 334.357 442.879 324.323C450.087 314.378 460.419 307.182 476.34 300.41L475.909 298.886L489.51 297.463L477.18 303.378L476.889 302.35C461.282 309.016 451.378 316.004 444.498 325.497C437.492 335.165 433.544 347.536 430.049 365.099L428.087 364.709Z" fill="#1C1B1B"/>
<path d="M214.999 9L185.961 9L185.961 67.1043" stroke="#1C1B1B" stroke-width="2"/>
<path d="M185.957 78.9951L188.518 62.78L183.396 62.78L185.957 78.9951Z" fill="#1C1B1B"/>
<line x1="652" y1="277.598" x2="580.799" y2="277.598" stroke="#1C1B1B" stroke-width="2"/>
<path d="M572 277.598L584 275L584 280.196L572 277.598Z" fill="#1C1B1B"/>
<line x1="96" y1="107" x2="96" y2="178.201" stroke="#1C1B1B" stroke-width="2"/>
<path d="M96 187L93.4019 175L98.5981 175L96 187Z" fill="#1C1B1B"/>
<path d="M281.38 363.77C281.38 361.55 280.12 360.14 278.14 360.14C276.43 360.14 275.11 361.1 273.34 363.59L274.48 360.14L268.69 360.98V361.79C270.04 361.85 270.31 361.97 270.31 362.54C270.31 362.84 270.07 363.92 269.65 365.48L266.65 377.12C266.08 379.1 265.84 379.37 264.4 379.34V380.15H271.87V379.34C270.37 379.31 269.92 379.1 269.92 378.38C269.92 377.96 270.13 377.06 270.7 374.96C270.91 374.24 270.91 374.18 271.03 373.73C272.08 374.27 272.44 374.39 273.07 374.39C277.15 374.39 281.38 368.96 281.38 363.77ZM277.63 363.98C277.51 365.96 276.55 368.93 275.47 370.88C274.54 372.5 273.58 373.34 272.56 373.34C271.9 373.34 271.39 372.86 271.39 372.26C271.39 371.75 271.72 370.52 272.53 367.79C273.19 365.6 273.46 364.85 273.91 364.16C274.66 362.99 275.68 362.21 276.46 362.27C277.24 362.33 277.69 363.02 277.63 363.98ZM292.48 370.25L291.61 369.74C290.23 371.81 289.36 372.47 288.07 372.47C286.81 372.47 286.15 371.63 286.15 370.01C286.15 369.53 286.21 369.14 286.33 368.54C289.45 367.94 290.92 367.28 292.42 365.9C293.47 364.94 294.04 363.83 294.04 362.75C294.04 361.22 292.72 360.14 290.89 360.14C286.54 360.14 282.25 365.03 282.25 369.98C282.25 372.53 284.17 374.39 286.78 374.39C289.09 374.39 290.68 373.22 292.48 370.25ZM291.28 362.15C291.28 363.47 290.77 364.76 289.81 365.75C289 366.62 288.25 367.04 286.54 367.58C287.62 363.41 289 361.13 290.44 361.13C291.01 361.13 291.28 361.46 291.28 362.15Z" fill="#1C1B1B"/>
<path d="M435.33 391.22L434.73 390.89C433.68 392.48 432.99 393.14 432.45 393.14C432.18 393.14 431.94 392.9 431.94 392.63C431.94 392.51 431.94 392.48 432.06 392.03L436.59 373.97L433.62 374.33L433.23 374.24C431.43 373.91 431.28 373.88 430.59 373.88C428.73 373.88 426.96 374.6 425.91 375.77C424.71 377.06 424.14 378.26 423.12 381.53H420.9L420.6 382.79H422.82L420.06 394.85C419.07 399.17 418.62 400.1 417.57 400.1C417.18 400.1 416.91 399.95 416.91 399.74C416.91 399.65 416.94 399.53 417.09 399.35C417.3 399.05 417.39 398.81 417.39 398.51C417.39 397.67 416.82 397.13 415.98 397.13C414.99 397.13 414.42 397.73 414.42 398.72C414.42 400.16 415.59 401.15 417.33 401.15C420.42 401.15 422.64 398.3 424.02 392.57L426.39 382.79H430.8L428.43 392.42C428.34 392.81 428.28 393.2 428.28 393.53C428.28 394.55 429.15 395.27 430.44 395.27C432.21 395.27 433.29 394.37 435.33 391.22ZM431.16 381.53H426.63C427.26 378.89 427.68 377.63 428.31 376.61C429.03 375.41 429.96 374.75 430.98 374.75C431.52 374.75 432.06 375.02 432.06 375.32C432.06 375.32 432.03 375.41 431.88 375.65C431.52 376.16 431.43 376.4 431.43 376.79C431.43 377.27 431.61 377.63 432.06 377.96L431.16 381.53Z" fill="#1C1B1B"/>
<path d="M668.999 278.19L668.339 277.77L667.919 278.37C667.139 279.54 666.449 280.17 665.999 280.17C665.759 280.17 665.549 279.96 665.549 279.72C665.549 279.45 665.699 278.67 665.819 278.16L668.549 268.14C666.929 268.5 664.829 268.8 662.489 268.98V269.79H662.879C663.779 269.79 664.259 270.09 664.259 270.66C664.259 270.9 664.169 271.35 664.049 271.86L662.309 278.31C662.069 279.18 661.919 279.96 661.919 280.38C661.919 281.52 662.759 282.27 663.989 282.27C665.789 282.27 666.899 281.37 668.999 278.19ZM669.839 264.3C669.839 263.19 668.909 262.26 667.769 262.26C666.719 262.26 665.789 263.19 665.789 264.24C665.789 265.41 666.659 266.31 667.769 266.31C668.909 266.31 669.839 265.41 669.839 264.3Z" fill="#1C1B1B"/>
<path d="M240.65 10.64L240.02 10.19C238.79 11.84 238.34 12.29 237.86 12.29C237.62 12.29 237.5 12.11 237.5 11.84C237.5 11.09 237.77 9.86 238.52 7.4L240.65 0.319999L237.32 0.529999L236.78 2.3C236.51 0.77 235.85 0.14 234.56 0.14C230.87 0.14 226.37 5.9 226.37 10.58C226.37 12.86 227.66 14.39 229.61 14.39C231.44 14.39 232.82 13.31 234.53 10.43C234.17 11.66 234.11 12.02 234.11 12.44C234.11 13.55 235.01 14.42 236.12 14.42C237.53 14.42 238.91 13.25 240.65 10.64ZM236.09 2.81C236.09 4.61 235.1 7.94 233.93 10.01C233.12 11.48 232.22 12.26 231.41 12.26C230.63 12.26 230.06 11.57 230.06 10.64C230.06 9.08 231.05 6.08 232.28 3.86C233.18 2.27 234.17 1.34 234.98 1.4C235.64 1.46 236.09 2 236.09 2.81Z" fill="#1C1B1B"/>
<path d="M95.75 93.19L95.09 92.77C94.07 94.36 93.29 95.17 92.81 95.17C92.57 95.17 92.33 94.96 92.33 94.72C92.33 94.15 92.87 92.08 93.95 88.36L94.94 84.79H97.43V83.53H95.27L96.44 79.18H95.39C93.77 81.58 92.27 82.84 89.9 83.74V84.79H91.43L89.39 91.93C88.94 93.49 88.67 94.78 88.67 95.32C88.67 96.49 89.51 97.27 90.77 97.27C92.57 97.27 93.77 96.28 95.75 93.19ZM106.83 93.31L105.99 92.77C104.55 94.78 103.62 95.47 102.33 95.47C101.01 95.47 100.14 94.39 100.14 92.8C100.14 90.91 100.92 88.21 102 86.26C102.81 84.85 103.65 84.13 104.58 84.13C104.94 84.13 105.24 84.34 105.24 84.64C105.24 84.76 105.18 84.94 105 85.21C104.73 85.69 104.61 86.02 104.61 86.38C104.61 87.28 105.33 87.94 106.35 87.94C107.46 87.94 108.21 87.1 108.21 85.84C108.21 84.25 106.86 83.14 104.85 83.14C100.62 83.14 96.2996 88.06 96.2996 92.86C96.2996 95.53 98.1596 97.39 100.89 97.39C102.21 97.39 103.5 96.91 104.52 96.04C105.3 95.38 105.78 94.81 106.83 93.31Z" fill="#1C1B1B"/>
<path d="M451.66 86.34L451 85.95C450.88 86.1 450.76 86.28 450.64 86.49C449.95 87.6 449.32 88.23 448.93 88.23C448.66 88.23 448.45 88.05 448.45 87.81C448.45 87.48 448.45 87.48 449.08 85.47L450.43 81.48C450.88 80.19 451.12 79.05 451.12 78.27C451.12 77.04 450.13 76.14 448.81 76.14C446.77 76.14 445.36 77.34 442.87 81.3C443.47 79.74 443.65 79.02 443.65 78.18C443.65 76.92 442.9 76.14 441.64 76.14C440.8 76.14 439.9 76.47 439.06 77.16C437.95 78 437.05 79.11 435.1 82.14L437.02 76.17C435.13 76.62 434.41 76.71 431.02 76.98V77.79C431.8 77.79 432.64 77.85 432.64 78.54C432.64 78.99 432.4 79.95 431.59 82.86L429.58 90H433.21C434.8 84.33 435.91 81.78 437.62 79.74C438.28 78.96 439.12 78.33 439.57 78.33C439.87 78.33 440.11 78.63 440.11 78.99C440.11 79.5 439.75 80.76 438.76 83.79L436.81 90H440.41C442.15 84.24 442.36 83.7 443.44 81.81C444.7 79.56 445.9 78.33 446.8 78.33C447.16 78.33 447.49 78.63 447.49 78.96C447.49 79.14 447.4 79.47 447.28 79.86L445.93 83.79C445.27 85.71 444.85 87.51 444.85 88.38C444.85 89.61 445.57 90.27 446.86 90.27C448.72 90.27 449.92 89.28 451.66 86.34Z" fill="#1C1B1B"/>
<path d="M70.38 329.77C70.38 327.55 69.12 326.14 67.14 326.14C65.43 326.14 64.11 327.1 62.34 329.59L63.48 326.14L57.69 326.98V327.79C59.04 327.85 59.31 327.97 59.31 328.54C59.31 328.84 59.07 329.92 58.65 331.48L55.65 343.12C55.08 345.1 54.84 345.37 53.4 345.34V346.15H60.87V345.34C59.37 345.31 58.92 345.1 58.92 344.38C58.92 343.96 59.13 343.06 59.7 340.96C59.91 340.24 59.91 340.18 60.03 339.73C61.08 340.27 61.44 340.39 62.07 340.39C66.15 340.39 70.38 334.96 70.38 329.77ZM66.63 329.98C66.51 331.96 65.55 334.93 64.47 336.88C63.54 338.5 62.58 339.34 61.56 339.34C60.9 339.34 60.39 338.86 60.39 338.26C60.39 337.75 60.72 336.52 61.53 333.79C62.19 331.6 62.46 330.85 62.91 330.16C63.66 328.99 64.68 328.21 65.46 328.27C66.24 328.33 66.69 329.02 66.63 329.98ZM84.48 329.77C84.48 327.55 83.22 326.14 81.24 326.14C79.53 326.14 78.21 327.1 76.44 329.59L77.58 326.14L71.79 326.98V327.79C73.14 327.85 73.41 327.97 73.41 328.54C73.41 328.84 73.17 329.92 72.75 331.48L69.75 343.12C69.18 345.1 68.94 345.37 67.5 345.34V346.15H74.97V345.34C73.47 345.31 73.02 345.1 73.02 344.38C73.02 343.96 73.23 343.06 73.8 340.96C74.01 340.24 74.01 340.18 74.13 339.73C75.18 340.27 75.54 340.39 76.17 340.39C80.25 340.39 84.48 334.96 84.48 329.77ZM80.73 329.98C80.61 331.96 79.65 334.93 78.57 336.88C77.64 338.5 76.68 339.34 75.66 339.34C75 339.34 74.49 338.86 74.49 338.26C74.49 337.75 74.82 336.52 75.63 333.79C76.29 331.6 76.56 330.85 77.01 330.16C77.76 328.99 78.78 328.21 79.56 328.27C80.34 328.33 80.79 329.02 80.73 329.98Z" fill="#1C1B1B"/>
</g>
<defs>
<clipPath id="clip0">
<rect width="840" height="507" fill="white"/>
</clipPath>
</defs>
</svg>
