<svg width="840" height="495" viewBox="0 0 840 495" fill="none" xmlns="http://www.w3.org/2000/svg">
<path fill-rule="evenodd" clip-rule="evenodd" d="M122.896 326.582C129.128 309.728 135.091 297.788 143.849 289.022C152.53 280.332 163.864 274.849 180.65 270.663L180.464 269.09L194.12 269.822L181.013 273.726L180.888 272.666C164.428 276.796 153.549 282.142 145.264 290.435C136.825 298.883 130.983 310.479 124.771 327.275L122.896 326.582Z" fill="#1C1B1B"/>
<path fill-rule="evenodd" clip-rule="evenodd" d="M201.896 375.582C208.128 358.728 214.091 346.788 222.849 338.022C231.53 329.332 242.864 323.849 259.65 319.663L259.464 318.09L273.12 318.822L260.013 322.726L259.888 321.666C243.428 325.796 232.549 331.142 224.264 339.435C215.825 347.883 209.983 359.479 203.771 376.275L201.896 375.582Z" fill="#1C1B1B"/>
<path fill-rule="evenodd" clip-rule="evenodd" d="M39.8955 278.582C46.1281 261.728 52.0914 249.788 60.849 241.022C69.5297 232.332 80.8636 226.849 97.6504 222.663L97.464 221.09L111.12 221.822L98.0134 225.726L97.8877 224.666C81.4281 228.796 70.5493 234.142 62.264 242.435C53.8253 250.883 47.9827 262.479 41.7714 279.275L39.8955 278.582Z" fill="#1C1B1B"/>
<path fill-rule="evenodd" clip-rule="evenodd" d="M551.368 124C534.462 129.883 522.454 135.593 513.554 144.148C504.73 152.628 499.051 163.813 494.558 180.454L492.999 180.239L493.465 193.854L497.605 180.875L496.556 180.73C500.986 164.415 506.52 153.682 514.939 145.59C523.515 137.348 535.177 131.752 552.025 125.889L551.368 124Z" fill="#1C1B1B"/>
<path fill-rule="evenodd" clip-rule="evenodd" d="M468.368 73C451.462 78.8835 439.454 84.5934 430.554 93.1479C421.73 101.628 416.051 112.813 411.558 129.454L409.999 129.239L410.465 142.854L414.605 129.875L413.556 129.73C417.986 113.415 423.52 102.682 431.939 94.5899C440.515 86.3481 452.177 80.7522 469.025 74.8889L468.368 73Z" fill="#1C1B1B"/>
<path fill-rule="evenodd" clip-rule="evenodd" d="M386.368 28C369.462 33.8835 357.454 39.5934 348.554 48.1479C339.73 56.628 334.051 67.8127 329.558 84.454L327.999 84.2386L328.465 97.8545L332.605 84.875L331.556 84.73C335.986 68.4147 341.52 57.6823 349.939 49.5899C358.515 41.3481 370.177 35.7522 387.025 29.8889L386.368 28Z" fill="#1C1B1B"/>
<path d="M123.32 346.469C123.32 344.279 121.94 342.749 119.96 342.749C118.43 342.749 117.35 343.439 115.82 345.479L118.52 335.639C116.42 336.029 114.95 336.239 112.28 336.539V337.349H112.82C113.72 337.349 114.17 337.649 114.17 338.249C114.17 338.639 113.81 340.139 113 342.959L110.18 352.769C109.88 353.849 109.58 355.019 109.58 355.199C109.58 356.039 111.74 356.999 113.72 356.999C118.61 356.999 123.32 351.839 123.32 346.469ZM119.57 346.859C119.57 348.629 118.76 351.419 117.68 353.279C116.66 355.109 115.49 356.009 114.2 356.009C113.66 356.009 113.27 355.679 113.27 355.199C113.27 354.839 113.78 352.499 114.11 351.329C114.5 349.979 115.1 348.329 115.58 347.309C116.33 345.659 117.26 344.789 118.25 344.789C119.12 344.789 119.57 345.479 119.57 346.859ZM134.48 352.919L133.64 352.379C132.2 354.389 131.27 355.079 129.98 355.079C128.66 355.079 127.79 353.999 127.79 352.409C127.79 350.519 128.57 347.819 129.65 345.869C130.46 344.459 131.3 343.739 132.23 343.739C132.59 343.739 132.89 343.949 132.89 344.249C132.89 344.369 132.83 344.549 132.65 344.819C132.38 345.299 132.26 345.629 132.26 345.989C132.26 346.889 132.98 347.549 134 347.549C135.11 347.549 135.86 346.709 135.86 345.449C135.86 343.859 134.51 342.749 132.5 342.749C128.27 342.749 123.95 347.669 123.95 352.469C123.95 355.139 125.81 356.999 128.54 356.999C129.86 356.999 131.15 356.519 132.17 355.649C132.95 354.989 133.43 354.419 134.48 352.919Z" fill="#1C1B1B"/>
<path d="M210.66 401.949L210 401.559C209.88 401.709 209.76 401.889 209.64 402.099C208.95 403.209 208.32 403.839 207.93 403.839C207.66 403.839 207.45 403.659 207.45 403.419C207.45 403.089 207.45 403.089 208.08 401.079L209.43 397.089C209.88 395.799 210.12 394.659 210.12 393.879C210.12 392.649 209.13 391.749 207.81 391.749C205.77 391.749 204.36 392.949 201.87 396.909C202.47 395.349 202.65 394.629 202.65 393.789C202.65 392.529 201.9 391.749 200.64 391.749C199.8 391.749 198.9 392.079 198.06 392.769C196.95 393.609 196.05 394.719 194.1 397.749L196.02 391.779C194.13 392.229 193.41 392.319 190.02 392.589V393.399C190.8 393.399 191.64 393.459 191.64 394.149C191.64 394.599 191.4 395.559 190.59 398.469L188.58 405.609H192.21C193.8 399.939 194.91 397.389 196.62 395.349C197.28 394.569 198.12 393.939 198.57 393.939C198.87 393.939 199.11 394.239 199.11 394.599C199.11 395.109 198.75 396.369 197.76 399.399L195.81 405.609H199.41C201.15 399.849 201.36 399.309 202.44 397.419C203.7 395.169 204.9 393.939 205.8 393.939C206.16 393.939 206.49 394.239 206.49 394.569C206.49 394.749 206.4 395.079 206.28 395.469L204.93 399.399C204.27 401.319 203.85 403.119 203.85 403.989C203.85 405.219 204.57 405.879 205.86 405.879C207.72 405.879 208.92 404.889 210.66 401.949Z" fill="#1C1B1B"/>
<path d="M577.32 119.86C577.32 117.67 575.94 116.14 573.96 116.14C572.43 116.14 571.35 116.83 569.82 118.87L572.52 109.03C570.42 109.42 568.95 109.63 566.28 109.93V110.74H566.82C567.72 110.74 568.17 111.04 568.17 111.64C568.17 112.03 567.81 113.53 567 116.35L564.18 126.16C563.88 127.24 563.58 128.41 563.58 128.59C563.58 129.43 565.74 130.39 567.72 130.39C572.61 130.39 577.32 125.23 577.32 119.86ZM573.57 120.25C573.57 122.02 572.76 124.81 571.68 126.67C570.66 128.5 569.49 129.4 568.2 129.4C567.66 129.4 567.27 129.07 567.27 128.59C567.27 128.23 567.78 125.89 568.11 124.72C568.5 123.37 569.1 121.72 569.58 120.7C570.33 119.05 571.26 118.18 572.25 118.18C573.12 118.18 573.57 118.87 573.57 120.25ZM591.48 111.46C591.48 109.99 590.34 109.06 588.51 109.06C586.95 109.06 585.51 109.69 584.43 110.89C583.17 112.27 582.6 113.5 581.73 116.53H579.54L579.27 117.79H581.46L578.82 129.55C577.89 133.99 577.32 135.22 576.12 135.22C575.82 135.22 575.58 135.07 575.58 134.89C575.58 134.89 575.64 134.74 575.7 134.62C575.94 134.26 576.06 133.93 576.06 133.6C576.06 132.88 575.34 132.16 574.56 132.16C573.75 132.16 573.03 132.91 573.03 133.78C573.03 135.22 574.2 136.15 576 136.15C577.32 136.15 578.46 135.7 579.42 134.77C580.5 133.72 581.19 132.37 582.12 129.61C582.93 127.18 583.29 125.74 584.97 117.79H587.67L587.94 116.53H585.18L585.72 114.4C586.47 111.43 587.37 109.93 588.45 109.93C588.75 109.93 588.96 110.08 588.96 110.32C588.96 110.32 588.93 110.47 588.81 110.65C588.57 111.01 588.48 111.28 588.48 111.58C588.48 112.42 589.11 113.05 589.95 113.05C590.85 113.05 591.48 112.39 591.48 111.46Z" fill="#1C1B1B"/>
<path d="M488.14 75.19L487.48 74.77L487.06 75.37C486.28 76.54 485.59 77.17 485.14 77.17C484.9 77.17 484.69 76.96 484.69 76.72C484.69 76.45 484.84 75.67 484.96 75.16L487.69 65.14C486.07 65.5 483.97 65.8 481.63 65.98V66.79H482.02C482.92 66.79 483.4 67.09 483.4 67.66C483.4 67.9 483.31 68.35 483.19 68.86L481.45 75.31C481.21 76.18 481.06 76.96 481.06 77.38C481.06 78.52 481.9 79.27 483.13 79.27C484.93 79.27 486.04 78.37 488.14 75.19ZM488.98 61.3C488.98 60.19 488.05 59.26 486.91 59.26C485.86 59.26 484.93 60.19 484.93 61.24C484.93 62.41 485.8 63.31 486.91 63.31C488.05 63.31 488.98 62.41 488.98 61.3ZM496.82 75.43C496.82 74.08 496.07 72.61 494.39 70.66C493.22 69.31 492.71 68.41 492.71 67.72C492.71 66.76 493.34 66.13 494.3 66.13C495.68 66.13 496.46 67.21 496.94 69.7L497.75 69.76L498.44 65.17H497.57C497.24 65.74 497.15 65.8 496.7 65.8C496.4 65.8 496.16 65.74 495.62 65.53C494.87 65.23 494.48 65.14 493.88 65.14C491.45 65.14 489.86 66.61 489.86 68.92C489.86 70.54 490.28 71.38 492.26 73.75C493.4 75.1 493.94 76.12 493.94 76.87C493.94 77.77 493.19 78.49 492.23 78.49C490.7 78.49 489.74 77.17 489.35 74.5L488.54 74.41L487.88 79.39H488.69C488.81 79.03 489.17 78.79 489.56 78.79C489.77 78.79 490.1 78.88 490.49 79.03C491.21 79.27 491.75 79.39 492.38 79.39C494.93 79.39 496.82 77.68 496.82 75.43Z" fill="#1C1B1B"/>
<path d="M412.38 23.77C412.38 21.55 411.12 20.14 409.14 20.14C407.43 20.14 406.11 21.1 404.34 23.59L405.48 20.14L399.69 20.98V21.79C401.04 21.85 401.31 21.97 401.31 22.54C401.31 22.84 401.07 23.92 400.65 25.48L397.65 37.12C397.08 39.1 396.84 39.37 395.4 39.34V40.15H402.87V39.34C401.37 39.31 400.92 39.1 400.92 38.38C400.92 37.96 401.13 37.06 401.7 34.96C401.91 34.24 401.91 34.18 402.03 33.73C403.08 34.27 403.44 34.39 404.07 34.39C408.15 34.39 412.38 28.96 412.38 23.77ZM408.63 23.98C408.51 25.96 407.55 28.93 406.47 30.88C405.54 32.5 404.58 33.34 403.56 33.34C402.9 33.34 402.39 32.86 402.39 32.26C402.39 31.75 402.72 30.52 403.53 27.79C404.19 25.6 404.46 24.85 404.91 24.16C405.66 22.99 406.68 22.21 407.46 22.27C408.24 22.33 408.69 23.02 408.63 23.98ZM426.75 30.64L426.12 30.19C424.89 31.84 424.44 32.29 423.96 32.29C423.72 32.29 423.6 32.11 423.6 31.84C423.6 31.09 423.87 29.86 424.62 27.4L426.75 20.32L423.42 20.53L422.88 22.3C422.61 20.77 421.95 20.14 420.66 20.14C416.97 20.14 412.47 25.9 412.47 30.58C412.47 32.86 413.76 34.39 415.71 34.39C417.54 34.39 418.92 33.31 420.63 30.43C420.27 31.66 420.21 32.02 420.21 32.44C420.21 33.55 421.11 34.42 422.22 34.42C423.63 34.42 425.01 33.25 426.75 30.64ZM422.19 22.81C422.19 24.61 421.2 27.94 420.03 30.01C419.22 31.48 418.32 32.26 417.51 32.26C416.73 32.26 416.16 31.57 416.16 30.64C416.16 29.08 417.15 26.08 418.38 23.86C419.28 22.27 420.27 21.34 421.08 21.4C421.74 21.46 422.19 22 422.19 22.81Z" fill="#1C1B1B"/>
<path d="M40.32 298.469C40.32 296.279 38.94 294.749 36.96 294.749C35.43 294.749 34.35 295.439 32.82 297.479L35.52 287.639C33.42 288.029 31.95 288.239 29.28 288.539V289.349H29.82C30.72 289.349 31.17 289.649 31.17 290.249C31.17 290.639 30.81 292.139 30 294.959L27.18 304.769C26.88 305.849 26.58 307.019 26.58 307.199C26.58 308.039 28.74 308.999 30.72 308.999C35.61 308.999 40.32 303.839 40.32 298.469ZM36.57 298.859C36.57 300.629 35.76 303.419 34.68 305.279C33.66 307.109 32.49 308.009 31.2 308.009C30.66 308.009 30.27 307.679 30.27 307.199C30.27 306.839 30.78 304.499 31.11 303.329C31.5 301.979 32.1 300.329 32.58 299.309C33.33 297.659 34.26 296.789 35.25 296.789C36.12 296.789 36.57 297.479 36.57 298.859ZM52.837 296.759C52.837 295.709 51.967 294.749 51.007 294.749C50.107 294.749 49.327 295.559 49.327 296.489C49.327 296.999 49.507 297.419 50.047 298.019C50.497 298.529 50.647 298.799 50.647 299.129C50.647 300.179 49.837 301.379 46.867 304.769C46.747 298.889 46.567 297.149 45.937 294.749C44.467 295.109 43.777 295.229 41.287 295.589V296.399C42.217 296.399 42.487 296.489 42.697 296.879C43.177 297.839 43.507 300.449 43.507 303.689C43.507 303.809 43.507 304.319 43.477 304.919L43.357 308.999H44.137C47.947 305.369 49.357 303.779 51.007 301.379C52.207 299.639 52.837 298.019 52.837 296.759Z" fill="#1C1B1B"/>
</svg>
