<svg width="840" height="308" viewBox="0 0 840 308" fill="none" xmlns="http://www.w3.org/2000/svg">
<g clip-path="url(#clip0)">
<path fill-rule="evenodd" clip-rule="evenodd" d="M223.459 70.3287C216.203 68.9885 211.075 65.9346 207.087 61.8739C202.571 57.2753 199.556 51.4104 196.54 45.5445C196.253 44.9869 195.966 44.4294 195.678 43.873C192.333 37.4079 188.785 31.0191 183.032 25.9483C177.306 20.9017 169.319 17.0999 157 15.992L157.179 14C169.859 15.1404 178.265 19.081 184.354 24.4478C190.416 29.7905 194.108 36.4862 197.455 42.9538C197.737 43.5002 198.017 44.0447 198.296 44.5863L198.298 44.5896C201.345 50.5107 204.223 56.1026 208.514 60.4725C212.181 64.207 216.909 67.0682 223.733 68.3456L223.932 66.9058L237.009 71.0771L223.291 71.5467L223.459 70.3287Z" fill="#1C1B1B"/>
<line x1="368.988" y1="252.874" x2="300.279" y2="234.202" stroke="#1C1B1B" stroke-width="2"/>
<path d="M291.787 231.895L304.048 232.535L302.686 237.549L291.787 231.895Z" fill="#1C1B1B"/>
<path d="M385.75 257.19L385.09 256.77C384.07 258.36 383.29 259.17 382.81 259.17C382.57 259.17 382.33 258.96 382.33 258.72C382.33 258.15 382.87 256.08 383.95 252.36L384.94 248.79H387.43V247.53H385.27L386.44 243.18H385.39C383.77 245.58 382.27 246.84 379.9 247.74V248.79H381.43L379.39 255.93C378.94 257.49 378.67 258.78 378.67 259.32C378.67 260.49 379.51 261.27 380.77 261.27C382.57 261.27 383.77 260.28 385.75 257.19ZM399.83 242.46C399.83 240.99 398.69 240.06 396.86 240.06C395.3 240.06 393.86 240.69 392.78 241.89C391.52 243.27 390.95 244.5 390.08 247.53H387.89L387.62 248.79H389.81L387.17 260.55C386.24 264.99 385.67 266.22 384.47 266.22C384.17 266.22 383.93 266.07 383.93 265.89C383.93 265.89 383.99 265.74 384.05 265.62C384.29 265.26 384.41 264.93 384.41 264.6C384.41 263.88 383.69 263.16 382.91 263.16C382.1 263.16 381.38 263.91 381.38 264.78C381.38 266.22 382.55 267.15 384.35 267.15C385.67 267.15 386.81 266.7 387.77 265.77C388.85 264.72 389.54 263.37 390.47 260.61C391.28 258.18 391.64 256.74 393.32 248.79H396.02L396.29 247.53H393.53L394.07 245.4C394.82 242.43 395.72 240.93 396.8 240.93C397.1 240.93 397.31 241.08 397.31 241.32C397.31 241.32 397.28 241.47 397.16 241.65C396.92 242.01 396.83 242.28 396.83 242.58C396.83 243.42 397.46 244.05 398.3 244.05C399.2 244.05 399.83 243.39 399.83 242.46Z" fill="#1C1B1B"/>
<path d="M130.75 16.19L130.09 15.77C129.07 17.36 128.29 18.17 127.81 18.17C127.57 18.17 127.33 17.96 127.33 17.72C127.33 17.15 127.87 15.08 128.95 11.36L129.94 7.79H132.43V6.53H130.27L131.44 2.18H130.39C128.77 4.58 127.27 5.84 124.9 6.74V7.79H126.43L124.39 14.93C123.94 16.49 123.67 17.78 123.67 18.32C123.67 19.49 124.51 20.27 125.77 20.27C127.57 20.27 128.77 19.28 130.75 16.19ZM144.92 16.55L144.26 16.07C143.42 17.42 142.7 18.23 142.25 18.23C142.07 18.23 141.92 18.05 141.92 17.87C141.92 17.6 142.61 14.9 143.63 11.18L146.96 -0.970002C145.16 -0.550002 143.69 -0.340001 140.69 -0.100001V0.71H141.32C142.1 0.71 142.55 1.01 142.55 1.55C142.55 1.82 142.4 2.45 141.68 5.09L141.14 7.13C140.42 6.41 139.85 6.14 138.98 6.14C135.32 6.14 130.82 11.93 130.82 16.64C130.82 18.83 132.17 20.39 134 20.39C135.92 20.39 137.27 19.31 138.98 16.46C138.71 17.63 138.65 18.02 138.65 18.5C138.65 19.64 139.31 20.33 140.45 20.33C141.92 20.33 143.27 19.19 144.92 16.55ZM140.69 8.87C140.69 10.19 139.4 14.09 138.35 16.01C137.51 17.48 136.64 18.23 135.77 18.23C135.02 18.23 134.48 17.39 134.54 16.34C134.63 14.72 135.56 11.96 136.64 10.01C137.6 8.3 138.68 7.34 139.58 7.4C140.24 7.43 140.69 8.03 140.69 8.87Z" fill="#1C1B1B"/>
<path d="M64.38 142.31L63.54 141.77C62.1 143.78 61.17 144.47 59.88 144.47C58.56 144.47 57.69 143.39 57.69 141.8C57.69 139.91 58.47 137.21 59.55 135.26C60.36 133.85 61.2 133.13 62.13 133.13C62.49 133.13 62.79 133.34 62.79 133.64C62.79 133.76 62.73 133.94 62.55 134.21C62.28 134.69 62.16 135.02 62.16 135.38C62.16 136.28 62.88 136.94 63.9 136.94C65.01 136.94 65.76 136.1 65.76 134.84C65.76 133.25 64.41 132.14 62.4 132.14C58.17 132.14 53.85 137.06 53.85 141.86C53.85 144.53 55.71 146.39 58.44 146.39C59.76 146.39 61.05 145.91 62.07 145.04C62.85 144.38 63.33 143.81 64.38 142.31ZM74.8001 142.43C74.8001 141.08 74.0501 139.61 72.3701 137.66C71.2001 136.31 70.6901 135.41 70.6901 134.72C70.6901 133.76 71.3201 133.13 72.2801 133.13C73.6601 133.13 74.4401 134.21 74.9201 136.7L75.7301 136.76L76.4201 132.17H75.5501C75.2201 132.74 75.1301 132.8 74.6801 132.8C74.3801 132.8 74.1401 132.74 73.6001 132.53C72.8501 132.23 72.4601 132.14 71.8601 132.14C69.4301 132.14 67.8401 133.61 67.8401 135.92C67.8401 137.54 68.2601 138.38 70.2401 140.75C71.3801 142.1 71.9201 143.12 71.9201 143.87C71.9201 144.77 71.1701 145.49 70.2101 145.49C68.6801 145.49 67.7201 144.17 67.3301 141.5L66.5201 141.41L65.8601 146.39H66.6701C66.7901 146.03 67.1501 145.79 67.5401 145.79C67.7501 145.79 68.0801 145.88 68.4701 146.03C69.1901 146.27 69.7301 146.39 70.3601 146.39C72.9101 146.39 74.8001 144.68 74.8001 142.43Z" fill="#1C1B1B"/>
<path d="M150 173L150 143L89 143" stroke="#1C1B1B" stroke-width="2"/>
<path d="M150.043 184.996L147.482 168.78L152.604 168.78L150.043 184.996Z" fill="#1C1B1B"/>
</g>
<defs>
<clipPath id="clip0">
<rect width="840" height="308" fill="white"/>
</clipPath>
</defs>
</svg>
