<svg width="840" height="490" viewBox="0 0 840 490" fill="none" xmlns="http://www.w3.org/2000/svg">
<g clip-path="url(#clip0)">
<path fill-rule="evenodd" clip-rule="evenodd" d="M533.67 213.15C515.766 214.461 502.654 216.875 491.813 222.851C481.066 228.774 472.662 238.133 463.992 253.086L462.535 252.471L459.452 265.781L466.832 254.283L465.85 253.869C474.376 239.216 482.521 230.256 492.778 224.602C503.224 218.844 515.974 216.451 533.816 215.144L533.67 213.15Z" fill="#1C1B1B"/>
<path d="M554.38 216.25L553.51 215.74C552.13 217.81 551.26 218.47 549.97 218.47C548.71 218.47 548.05 217.63 548.05 216.01C548.05 215.53 548.11 215.14 548.23 214.54C551.35 213.94 552.82 213.28 554.32 211.9C555.37 210.94 555.94 209.83 555.94 208.75C555.94 207.22 554.62 206.14 552.79 206.14C548.44 206.14 544.15 211.03 544.15 215.98C544.15 218.53 546.07 220.39 548.68 220.39C550.99 220.39 552.58 219.22 554.38 216.25ZM553.18 208.15C553.18 209.47 552.67 210.76 551.71 211.75C550.9 212.62 550.15 213.04 548.44 213.58C549.52 209.41 550.9 207.13 552.34 207.13C552.91 207.13 553.18 207.46 553.18 208.15Z" fill="#1C1B1B"/>
<path d="M347.14 234.19L346.48 233.77L346.06 234.37C345.28 235.54 344.59 236.17 344.14 236.17C343.9 236.17 343.69 235.96 343.69 235.72C343.69 235.45 343.84 234.67 343.96 234.16L346.69 224.14C345.07 224.5 342.97 224.8 340.63 224.98V225.79H341.02C341.92 225.79 342.4 226.09 342.4 226.66C342.4 226.9 342.31 227.35 342.19 227.86L340.45 234.31C340.21 235.18 340.06 235.96 340.06 236.38C340.06 237.52 340.9 238.27 342.13 238.27C343.93 238.27 345.04 237.37 347.14 234.19ZM347.98 220.3C347.98 219.19 347.05 218.26 345.91 218.26C344.86 218.26 343.93 219.19 343.93 220.24C343.93 221.41 344.8 222.31 345.91 222.31C347.05 222.31 347.98 221.41 347.98 220.3Z" fill="#1C1B1B"/>
<line x1="329" y1="229" x2="257.799" y2="229" stroke="#1C1B1B" stroke-width="2"/>
<path d="M249 229L261 226.402L261 231.598L249 229Z" fill="#1C1B1B"/>
<line x1="200.041" y1="21.515" x2="156.74" y2="46.5149" stroke="#1C1B1B" stroke-width="2"/>
<path d="M148.738 51.2472L157.832 42.9971L160.43 47.4971L148.738 51.2472Z" fill="#1C1B1B"/>
<line x1="242.674" y1="21.7053" x2="285.975" y2="46.7053" stroke="#1C1B1B" stroke-width="2"/>
<path d="M293.955 51.1695L282.264 47.4194L284.862 42.9194L293.955 51.1695Z" fill="#1C1B1B"/>
<path d="M221.376 22.19L220.716 21.77L220.296 22.37C219.516 23.54 218.826 24.17 218.376 24.17C218.136 24.17 217.926 23.96 217.926 23.72C217.926 23.45 218.076 22.67 218.196 22.16L220.926 12.14C219.306 12.5 217.206 12.8 214.866 12.98L214.866 13.79L215.256 13.79C216.156 13.79 216.636 14.09 216.636 14.66C216.636 14.9 216.546 15.35 216.426 15.86L214.686 22.31C214.446 23.18 214.296 23.96 214.296 24.38C214.296 25.52 215.136 26.27 216.366 26.27C218.166 26.27 219.276 25.37 221.376 22.19ZM222.216 8.3C222.216 7.19 221.286 6.26 220.146 6.26C219.096 6.26 218.166 7.19 218.166 8.24C218.166 9.41 219.036 10.31 220.146 10.31C221.286 10.31 222.216 9.41 222.216 8.3ZM228.436 22.19L227.776 21.77C226.756 23.36 225.976 24.17 225.496 24.17C225.256 24.17 225.016 23.96 225.016 23.72C225.016 23.15 225.556 21.08 226.636 17.36L227.626 13.79L230.116 13.79L230.116 12.53L227.956 12.53L229.126 8.18L228.076 8.18C226.456 10.58 224.956 11.84 222.586 12.74L222.586 13.79L224.116 13.79L222.076 20.93C221.626 22.49 221.356 23.78 221.356 24.32C221.356 25.49 222.196 26.27 223.456 26.27C225.256 26.27 226.456 25.28 228.436 22.19Z" fill="#1C1B1B"/>
</g>
<defs>
<clipPath id="clip0">
<rect width="840" height="490" fill="white"/>
</clipPath>
</defs>
</svg>
