<svg width="840" height="530" viewBox="0 0 840 530" fill="none" xmlns="http://www.w3.org/2000/svg">
<path fill-rule="evenodd" clip-rule="evenodd" d="M223.459 161.329C216.203 159.989 211.075 156.935 207.087 152.874C202.571 148.275 199.556 142.41 196.54 136.544C196.253 135.987 195.966 135.429 195.678 134.873C192.333 128.408 188.785 122.019 183.032 116.948C177.306 111.902 169.319 108.1 157 106.992L157.179 105C169.859 106.14 178.265 110.081 184.354 115.448C190.416 120.79 194.108 127.486 197.455 133.954C197.737 134.5 198.017 135.045 198.296 135.586L198.298 135.59C201.345 141.511 204.223 147.103 208.514 151.473C212.181 155.207 216.909 158.068 223.733 159.346L223.932 157.906L237.009 162.077L223.291 162.547L223.459 161.329Z" fill="#1C1B1B"/>
<line x1="368.988" y1="343.874" x2="300.279" y2="325.202" stroke="#1C1B1B" stroke-width="2"/>
<path d="M291.787 322.895L304.048 323.535L302.686 328.549L291.787 322.895Z" fill="#1C1B1B"/>
<path d="M391.38 348.25L390.51 347.74C389.13 349.81 388.26 350.47 386.97 350.47C385.71 350.47 385.05 349.63 385.05 348.01C385.05 347.53 385.11 347.14 385.23 346.54C388.35 345.94 389.82 345.28 391.32 343.9C392.37 342.94 392.94 341.83 392.94 340.75C392.94 339.22 391.62 338.14 389.79 338.14C385.44 338.14 381.15 343.03 381.15 347.98C381.15 350.53 383.07 352.39 385.68 352.39C387.99 352.39 389.58 351.22 391.38 348.25ZM390.18 340.15C390.18 341.47 389.67 342.76 388.71 343.75C387.9 344.62 387.15 345.04 385.44 345.58C386.52 341.41 387.9 339.13 389.34 339.13C389.91 339.13 390.18 339.46 390.18 340.15ZM400.57 348.19L399.91 347.77L399.49 348.37C398.71 349.54 398.02 350.17 397.57 350.17C397.33 350.17 397.12 349.96 397.12 349.72C397.12 349.45 397.27 348.67 397.39 348.16L400.12 338.14C398.5 338.5 396.4 338.8 394.06 338.98V339.79H394.45C395.35 339.79 395.83 340.09 395.83 340.66C395.83 340.9 395.74 341.35 395.62 341.86L393.88 348.31C393.64 349.18 393.49 349.96 393.49 350.38C393.49 351.52 394.33 352.27 395.56 352.27C397.36 352.27 398.47 351.37 400.57 348.19ZM401.41 334.3C401.41 333.19 400.48 332.26 399.34 332.26C398.29 332.26 397.36 333.19 397.36 334.24C397.36 335.41 398.23 336.31 399.34 336.31C400.48 336.31 401.41 335.41 401.41 334.3Z" fill="#1C1B1B"/>
<path d="M128.65 107.64L128.02 107.19C126.79 108.84 126.34 109.29 125.86 109.29C125.62 109.29 125.5 109.11 125.5 108.84C125.5 108.09 125.77 106.86 126.52 104.4L128.65 97.32L125.32 97.53L124.78 99.3C124.51 97.77 123.85 97.14 122.56 97.14C118.87 97.14 114.37 102.9 114.37 107.58C114.37 109.86 115.66 111.39 117.61 111.39C119.44 111.39 120.82 110.31 122.53 107.43C122.17 108.66 122.11 109.02 122.11 109.44C122.11 110.55 123.01 111.42 124.12 111.42C125.53 111.42 126.91 110.25 128.65 107.64ZM124.09 99.81C124.09 101.61 123.1 104.94 121.93 107.01C121.12 108.48 120.22 109.26 119.41 109.26C118.63 109.26 118.06 108.57 118.06 107.64C118.06 106.08 119.05 103.08 120.28 100.86C121.18 99.27 122.17 98.34 122.98 98.4C123.64 98.46 124.09 99 124.09 99.81ZM135.85 107.19L135.19 106.77C134.17 108.36 133.39 109.17 132.91 109.17C132.67 109.17 132.43 108.96 132.43 108.72C132.43 108.15 132.97 106.08 134.05 102.36L135.04 98.79H137.53V97.53H135.37L136.54 93.18H135.49C133.87 95.58 132.37 96.84 130 97.74V98.79H131.53L129.49 105.93C129.04 107.49 128.77 108.78 128.77 109.32C128.77 110.49 129.61 111.27 130.87 111.27C132.67 111.27 133.87 110.28 135.85 107.19Z" fill="#1C1B1B"/>
<path d="M467.5 275.72C466.9 275.72 466.39 275.51 465.97 275.09C465.55 274.67 465.34 274.16 465.34 273.56V247.82C465.34 247.22 465.55 246.71 465.97 246.29C466.39 245.87 466.9 245.66 467.5 245.66H476.5C477.1 245.66 477.61 245.87 478.03 246.29C478.45 246.71 478.66 247.22 478.66 247.82C478.66 248.42 478.45 248.93 478.03 249.35C477.61 249.77 477.1 249.98 476.5 249.98H469.66V258.08H475.6C476.2 258.08 476.71 258.29 477.13 258.71C477.55 259.13 477.76 259.64 477.76 260.24C477.76 260.84 477.55 261.35 477.13 261.77C476.71 262.19 476.2 262.4 475.6 262.4H469.66V273.56C469.66 274.16 469.45 274.67 469.03 275.09C468.61 275.51 468.1 275.72 467.5 275.72ZM483.716 275.9C483.116 275.9 482.606 275.69 482.186 275.27C481.766 274.85 481.556 274.34 481.556 273.74V247.64C481.556 247.04 481.766 246.53 482.186 246.11C482.606 245.69 483.116 245.48 483.716 245.48C484.316 245.48 484.826 245.69 485.246 246.11C485.666 246.53 485.876 247.04 485.876 247.64V273.74C485.876 274.34 485.666 274.85 485.246 275.27C484.826 275.69 484.316 275.9 483.716 275.9ZM502.985 258.98C503.585 258.98 504.095 259.19 504.515 259.61C504.935 260.03 505.145 260.54 505.145 261.14V268.34C505.145 269.39 504.95 270.38 504.56 271.31C504.17 272.21 503.63 273.005 502.94 273.695C502.25 274.385 501.44 274.925 500.51 275.315C499.61 275.705 498.635 275.9 497.585 275.9C496.535 275.9 495.545 275.705 494.615 275.315C493.715 274.925 492.92 274.385 492.23 273.695C491.57 273.005 491.03 272.21 490.61 271.31C490.22 270.38 490.025 269.39 490.025 268.34V253.04C490.025 252.2 490.16 251.39 490.43 250.61C490.7 249.8 491.075 249.08 491.555 248.45C492.065 247.79 492.665 247.235 493.355 246.785C494.045 246.305 494.81 245.96 495.65 245.75C496.46 245.54 497.285 245.465 498.125 245.525C498.965 245.555 499.76 245.735 500.51 246.065C501.26 246.365 501.95 246.785 502.58 247.325C503.21 247.865 503.735 248.51 504.155 249.26C504.455 249.77 504.515 250.31 504.335 250.88C504.185 251.45 503.855 251.9 503.345 252.23C502.835 252.53 502.295 252.605 501.725 252.455C501.155 252.275 500.72 251.93 500.42 251.42C500.03 250.79 499.49 250.34 498.8 250.07C498.14 249.77 497.465 249.725 496.775 249.935C496.055 250.115 495.47 250.505 495.02 251.105C494.57 251.675 494.345 252.32 494.345 253.04V268.34C494.345 269.24 494.66 270.005 495.29 270.635C495.95 271.265 496.715 271.58 497.585 271.58C498.485 271.58 499.25 271.265 499.88 270.635C500.51 270.005 500.825 269.24 500.825 268.34V263.3H498.485C497.885 263.3 497.375 263.09 496.955 262.67C496.535 262.25 496.325 261.74 496.325 261.14C496.325 260.54 496.535 260.03 496.955 259.61C497.375 259.19 497.885 258.98 498.485 258.98H502.985ZM508.48 273.29C508.48 272.57 508.735 271.955 509.245 271.445C509.755 270.935 510.37 270.68 511.09 270.68C511.81 270.68 512.425 270.935 512.935 271.445C513.445 271.955 513.7 272.57 513.7 273.29C513.7 274.01 513.445 274.625 512.935 275.135C512.425 275.645 511.81 275.9 511.09 275.9C510.37 275.9 509.755 275.645 509.245 275.135C508.735 274.625 508.48 274.01 508.48 273.29ZM517.767 247.82C517.767 247.22 517.977 246.71 518.397 246.29C518.817 245.87 519.327 245.66 519.927 245.66H528.927C529.527 245.66 530.037 245.87 530.457 246.29C530.877 246.71 531.087 247.22 531.087 247.82C531.087 248.42 530.877 248.93 530.457 249.35C530.037 249.77 529.527 249.98 528.927 249.98H522.087V258.08H528.027C528.627 258.08 529.137 258.29 529.557 258.71C529.977 259.13 530.187 259.64 530.187 260.24C530.187 260.84 529.977 261.35 529.557 261.77C529.137 262.19 528.627 262.4 528.027 262.4H522.087V271.4H528.927C529.527 271.4 530.037 271.61 530.457 272.03C530.877 272.45 531.087 272.96 531.087 273.56C531.087 274.16 530.877 274.67 530.457 275.09C530.037 275.51 529.527 275.72 528.927 275.72H519.927C519.327 275.72 518.817 275.51 518.397 275.09C517.977 274.67 517.767 274.16 517.767 273.56V247.82Z" fill="#1C1B1B"/>
</svg>
