<svg width="840" height="308" viewBox="0 0 840 308" fill="none" xmlns="http://www.w3.org/2000/svg">
<g clip-path="url(#clip0)">
<path fill-rule="evenodd" clip-rule="evenodd" d="M223.459 70.3287C216.203 68.9885 211.075 65.9346 207.087 61.8739C202.571 57.2753 199.556 51.4104 196.54 45.5445C196.253 44.9869 195.966 44.4294 195.678 43.873C192.333 37.4079 188.785 31.0191 183.032 25.9483C177.306 20.9017 169.319 17.0999 157 15.992L157.179 14C169.859 15.1404 178.265 19.081 184.354 24.4478C190.416 29.7905 194.108 36.4862 197.455 42.9538C197.737 43.5002 198.017 44.0447 198.296 44.5863L198.298 44.5896C201.345 50.5107 204.223 56.1026 208.514 60.4725C212.181 64.207 216.909 67.0682 223.733 68.3456L223.932 66.9058L237.009 71.0771L223.291 71.5467L223.459 70.3287Z" fill="#1C1B1B"/>
<line x1="368.988" y1="252.874" x2="300.279" y2="234.202" stroke="#1C1B1B" stroke-width="2"/>
<path d="M291.787 231.895L304.048 232.535L302.686 237.549L291.787 231.895Z" fill="#1C1B1B"/>
<path d="M391.38 257.25L390.51 256.74C389.13 258.81 388.26 259.47 386.97 259.47C385.71 259.47 385.05 258.63 385.05 257.01C385.05 256.53 385.11 256.14 385.23 255.54C388.35 254.94 389.82 254.28 391.32 252.9C392.37 251.94 392.94 250.83 392.94 249.75C392.94 248.22 391.62 247.14 389.79 247.14C385.44 247.14 381.15 252.03 381.15 256.98C381.15 259.53 383.07 261.39 385.68 261.39C387.99 261.39 389.58 260.22 391.38 257.25ZM390.18 249.15C390.18 250.47 389.67 251.76 388.71 252.75C387.9 253.62 387.15 254.04 385.44 254.58C386.52 250.41 387.9 248.13 389.34 248.13C389.91 248.13 390.18 248.46 390.18 249.15ZM400.57 257.19L399.91 256.77L399.49 257.37C398.71 258.54 398.02 259.17 397.57 259.17C397.33 259.17 397.12 258.96 397.12 258.72C397.12 258.45 397.27 257.67 397.39 257.16L400.12 247.14C398.5 247.5 396.4 247.8 394.06 247.98V248.79H394.45C395.35 248.79 395.83 249.09 395.83 249.66C395.83 249.9 395.74 250.35 395.62 250.86L393.88 257.31C393.64 258.18 393.49 258.96 393.49 259.38C393.49 260.52 394.33 261.27 395.56 261.27C397.36 261.27 398.47 260.37 400.57 257.19ZM401.41 243.3C401.41 242.19 400.48 241.26 399.34 241.26C398.29 241.26 397.36 242.19 397.36 243.24C397.36 244.41 398.23 245.31 399.34 245.31C400.48 245.31 401.41 244.41 401.41 243.3Z" fill="#1C1B1B"/>
<path d="M128.65 16.64L128.02 16.19C126.79 17.84 126.34 18.29 125.86 18.29C125.62 18.29 125.5 18.11 125.5 17.84C125.5 17.09 125.77 15.86 126.52 13.4L128.65 6.32L125.32 6.53L124.78 8.3C124.51 6.77 123.85 6.14 122.56 6.14C118.87 6.14 114.37 11.9 114.37 16.58C114.37 18.86 115.66 20.39 117.61 20.39C119.44 20.39 120.82 19.31 122.53 16.43C122.17 17.66 122.11 18.02 122.11 18.44C122.11 19.55 123.01 20.42 124.12 20.42C125.53 20.42 126.91 19.25 128.65 16.64ZM124.09 8.81C124.09 10.61 123.1 13.94 121.93 16.01C121.12 17.48 120.22 18.26 119.41 18.26C118.63 18.26 118.06 17.57 118.06 16.64C118.06 15.08 119.05 12.08 120.28 9.86C121.18 8.27 122.17 7.34 122.98 7.4C123.64 7.46 124.09 8 124.09 8.81ZM135.85 16.19L135.19 15.77C134.17 17.36 133.39 18.17 132.91 18.17C132.67 18.17 132.43 17.96 132.43 17.72C132.43 17.15 132.97 15.08 134.05 11.36L135.04 7.79H137.53V6.53H135.37L136.54 2.18H135.49C133.87 4.58 132.37 5.84 130 6.74V7.79H131.53L129.49 14.93C129.04 16.49 128.77 17.78 128.77 18.32C128.77 19.49 129.61 20.27 130.87 20.27C132.67 20.27 133.87 19.28 135.85 16.19Z" fill="#1C1B1B"/>
</g>
<defs>
<clipPath id="clip0">
<rect width="840" height="308" fill="white"/>
</clipPath>
</defs>
</svg>
