<svg width="840" height="308" viewBox="0 0 840 308" fill="none" xmlns="http://www.w3.org/2000/svg">
<g clip-path="url(#clip0)">
<path fill-rule="evenodd" clip-rule="evenodd" d="M223.459 70.3287C216.203 68.9885 211.075 65.9346 207.087 61.8739C202.571 57.2753 199.556 51.4104 196.54 45.5445C196.253 44.9869 195.966 44.4294 195.678 43.873C192.333 37.4079 188.785 31.0191 183.032 25.9483C177.306 20.9017 169.319 17.0999 157 15.992L157.179 14C169.859 15.1404 178.265 19.081 184.354 24.4478C190.416 29.7905 194.108 36.4862 197.455 42.9538C197.737 43.5002 198.017 44.0447 198.296 44.5863L198.298 44.5896C201.345 50.5107 204.223 56.1026 208.514 60.4725C212.181 64.207 216.909 67.0682 223.733 68.3456L223.932 66.9058L237.009 71.0771L223.291 71.5467L223.459 70.3287Z" fill="#1C1B1B"/>
<line x1="368.988" y1="252.874" x2="300.279" y2="234.202" stroke="#1C1B1B" stroke-width="2"/>
<path d="M291.787 231.895L304.048 232.535L302.686 237.549L291.787 231.895Z" fill="#1C1B1B"/>
<path d="M391.38 257.25L390.51 256.74C389.13 258.81 388.26 259.47 386.97 259.47C385.71 259.47 385.05 258.63 385.05 257.01C385.05 256.53 385.11 256.14 385.23 255.54C388.35 254.94 389.82 254.28 391.32 252.9C392.37 251.94 392.94 250.83 392.94 249.75C392.94 248.22 391.62 247.14 389.79 247.14C385.44 247.14 381.15 252.03 381.15 256.98C381.15 259.53 383.07 261.39 385.68 261.39C387.99 261.39 389.58 260.22 391.38 257.25ZM390.18 249.15C390.18 250.47 389.67 251.76 388.71 252.75C387.9 253.62 387.15 254.04 385.44 254.58C386.52 250.41 387.9 248.13 389.34 248.13C389.91 248.13 390.18 248.46 390.18 249.15ZM400.57 257.19L399.91 256.77L399.49 257.37C398.71 258.54 398.02 259.17 397.57 259.17C397.33 259.17 397.12 258.96 397.12 258.72C397.12 258.45 397.27 257.67 397.39 257.16L400.12 247.14C398.5 247.5 396.4 247.8 394.06 247.98V248.79H394.45C395.35 248.79 395.83 249.09 395.83 249.66C395.83 249.9 395.74 250.35 395.62 250.86L393.88 257.31C393.64 258.18 393.49 258.96 393.49 259.38C393.49 260.52 394.33 261.27 395.56 261.27C397.36 261.27 398.47 260.37 400.57 257.19ZM401.41 243.3C401.41 242.19 400.48 241.26 399.34 241.26C398.29 241.26 397.36 242.19 397.36 243.24C397.36 244.41 398.23 245.31 399.34 245.31C400.48 245.31 401.41 244.41 401.41 243.3Z" fill="#1C1B1B"/>
<path d="M128.65 16.64L128.02 16.19C126.79 17.84 126.34 18.29 125.86 18.29C125.62 18.29 125.5 18.11 125.5 17.84C125.5 17.09 125.77 15.86 126.52 13.4L128.65 6.32L125.32 6.53L124.78 8.3C124.51 6.77 123.85 6.14 122.56 6.14C118.87 6.14 114.37 11.9 114.37 16.58C114.37 18.86 115.66 20.39 117.61 20.39C119.44 20.39 120.82 19.31 122.53 16.43C122.17 17.66 122.11 18.02 122.11 18.44C122.11 19.55 123.01 20.42 124.12 20.42C125.53 20.42 126.91 19.25 128.65 16.64ZM124.09 8.81C124.09 10.61 123.1 13.94 121.93 16.01C121.12 17.48 120.22 18.26 119.41 18.26C118.63 18.26 118.06 17.57 118.06 16.64C118.06 15.08 119.05 12.08 120.28 9.86C121.18 8.27 122.17 7.34 122.98 7.4C123.64 7.46 124.09 8 124.09 8.81ZM135.85 16.19L135.19 15.77C134.17 17.36 133.39 18.17 132.91 18.17C132.67 18.17 132.43 17.96 132.43 17.72C132.43 17.15 132.97 15.08 134.05 11.36L135.04 7.79H137.53V6.53H135.37L136.54 2.18H135.49C133.87 4.58 132.37 5.84 130 6.74V7.79H131.53L129.49 14.93C129.04 16.49 128.77 17.78 128.77 18.32C128.77 19.49 129.61 20.27 130.87 20.27C132.67 20.27 133.87 19.28 135.85 16.19Z" fill="#1C1B1B"/>
<path d="M467.5 184.72C466.9 184.72 466.39 184.51 465.97 184.09C465.55 183.67 465.34 183.16 465.34 182.56V156.82C465.34 156.22 465.55 155.71 465.97 155.29C466.39 154.87 466.9 154.66 467.5 154.66H476.5C477.1 154.66 477.61 154.87 478.03 155.29C478.45 155.71 478.66 156.22 478.66 156.82C478.66 157.42 478.45 157.93 478.03 158.35C477.61 158.77 477.1 158.98 476.5 158.98H469.66V167.08H475.6C476.2 167.08 476.71 167.29 477.13 167.71C477.55 168.13 477.76 168.64 477.76 169.24C477.76 169.84 477.55 170.35 477.13 170.77C476.71 171.19 476.2 171.4 475.6 171.4H469.66V182.56C469.66 183.16 469.45 183.67 469.03 184.09C468.61 184.51 468.1 184.72 467.5 184.72ZM483.716 184.9C483.116 184.9 482.606 184.69 482.186 184.27C481.766 183.85 481.556 183.34 481.556 182.74V156.64C481.556 156.04 481.766 155.53 482.186 155.11C482.606 154.69 483.116 154.48 483.716 154.48C484.316 154.48 484.826 154.69 485.246 155.11C485.666 155.53 485.876 156.04 485.876 156.64V182.74C485.876 183.34 485.666 183.85 485.246 184.27C484.826 184.69 484.316 184.9 483.716 184.9ZM502.985 167.98C503.585 167.98 504.095 168.19 504.515 168.61C504.935 169.03 505.145 169.54 505.145 170.14V177.34C505.145 178.39 504.95 179.38 504.56 180.31C504.17 181.21 503.63 182.005 502.94 182.695C502.25 183.385 501.44 183.925 500.51 184.315C499.61 184.705 498.635 184.9 497.585 184.9C496.535 184.9 495.545 184.705 494.615 184.315C493.715 183.925 492.92 183.385 492.23 182.695C491.57 182.005 491.03 181.21 490.61 180.31C490.22 179.38 490.025 178.39 490.025 177.34V162.04C490.025 161.2 490.16 160.39 490.43 159.61C490.7 158.8 491.075 158.08 491.555 157.45C492.065 156.79 492.665 156.235 493.355 155.785C494.045 155.305 494.81 154.96 495.65 154.75C496.46 154.54 497.285 154.465 498.125 154.525C498.965 154.555 499.76 154.735 500.51 155.065C501.26 155.365 501.95 155.785 502.58 156.325C503.21 156.865 503.735 157.51 504.155 158.26C504.455 158.77 504.515 159.31 504.335 159.88C504.185 160.45 503.855 160.9 503.345 161.23C502.835 161.53 502.295 161.605 501.725 161.455C501.155 161.275 500.72 160.93 500.42 160.42C500.03 159.79 499.49 159.34 498.8 159.07C498.14 158.77 497.465 158.725 496.775 158.935C496.055 159.115 495.47 159.505 495.02 160.105C494.57 160.675 494.345 161.32 494.345 162.04V177.34C494.345 178.24 494.66 179.005 495.29 179.635C495.95 180.265 496.715 180.58 497.585 180.58C498.485 180.58 499.25 180.265 499.88 179.635C500.51 179.005 500.825 178.24 500.825 177.34V172.3H498.485C497.885 172.3 497.375 172.09 496.955 171.67C496.535 171.25 496.325 170.74 496.325 170.14C496.325 169.54 496.535 169.03 496.955 168.61C497.375 168.19 497.885 167.98 498.485 167.98H502.985ZM508.48 182.29C508.48 181.57 508.735 180.955 509.245 180.445C509.755 179.935 510.37 179.68 511.09 179.68C511.81 179.68 512.425 179.935 512.935 180.445C513.445 180.955 513.7 181.57 513.7 182.29C513.7 183.01 513.445 183.625 512.935 184.135C512.425 184.645 511.81 184.9 511.09 184.9C510.37 184.9 509.755 184.645 509.245 184.135C508.735 183.625 508.48 183.01 508.48 182.29ZM517.767 156.82C517.767 156.22 517.977 155.71 518.397 155.29C518.817 154.87 519.327 154.66 519.927 154.66H528.927C529.527 154.66 530.037 154.87 530.457 155.29C530.877 155.71 531.087 156.22 531.087 156.82C531.087 157.42 530.877 157.93 530.457 158.35C530.037 158.77 529.527 158.98 528.927 158.98H522.087V167.08H528.027C528.627 167.08 529.137 167.29 529.557 167.71C529.977 168.13 530.187 168.64 530.187 169.24C530.187 169.84 529.977 170.35 529.557 170.77C529.137 171.19 528.627 171.4 528.027 171.4H522.087V180.4H528.927C529.527 180.4 530.037 180.61 530.457 181.03C530.877 181.45 531.087 181.96 531.087 182.56C531.087 183.16 530.877 183.67 530.457 184.09C530.037 184.51 529.527 184.72 528.927 184.72H519.927C519.327 184.72 518.817 184.51 518.397 184.09C517.977 183.67 517.767 183.16 517.767 182.56V156.82Z" fill="#1C1B1B"/>
</g>
<defs>
<clipPath id="clip0">
<rect width="840" height="308" fill="white"/>
</clipPath>
</defs>
</svg>
